<?xml version="1.0" encoding="utf-8"?>
<!-- Generator: Adobe Illustrator 28.0.0, SVG Export Plug-In . SVG Version: 6.00 Build 0)  -->
<svg version="1.1" id="Слой_1" xmlns="http://www.w3.org/2000/svg" xmlns:xlink="http://www.w3.org/1999/xlink" x="0px" y="0px"
	 viewBox="0 0 40 40" style="enable-background:new 0 0 40 40;" xml:space="preserve">
<style type="text/css">
	.st0{fill:#EDD6A7;}
</style>
<path class="st0" d="M20.4,7.8c-0.2-0.5-0.8-0.6-1-0.2c-0.5,1.3-1,2.6-1.5,3.9h3.9C21.4,10.2,20.9,9,20.4,7.8z"/>
<path class="st0" d="M23.7,13.5c-0.4-1.1-0.4-1.1-1.6-0.9c-0.2,0-0.3,0-0.5,0c-1,0-2,0-2.9,0c-0.5,0-1-0.2-1.5-0.2
	c-0.3,0-0.8,0.1-0.9,0.3c-0.5,1-0.8,2.1-1.2,3.2h9.5C24.3,15,24,14.2,23.7,13.5z"/>
<path class="st0" d="M17.7,21.1c0.1,0,0.4-0.4,0.4-0.6c0-1,0-2,0-3.1c0-0.5-0.2-0.6-0.6-0.6c-1,0-2,0-3,0.1c-0.5,0.1-1,0.3-1.3,0.7
	c-0.6,1-1,2.2-1.5,3.4C13.9,21.1,15.8,21.1,17.7,21.1z"/>
<path class="st0" d="M25.5,22.1v4.7h5.3c0-0.1,0-0.2,0-0.3c-0.5-1.4-1-2.7-1.6-4c-0.1-0.2-0.3-0.3-0.5-0.3
	C27.7,22.1,26.6,22.1,25.5,22.1z"/>
<path class="st0" d="M23.9,22.1c-1-0.1-2.1-0.1-3.1,0c-0.2,0.1-0.4,0.3-0.5,0.5c0,1.4,0,2.7,0,4.2c1.4,0,2.6,0,3.8,0
	c0.1,0,0.4-0.3,0.4-0.5c0-1.2,0.1-2.5,0-3.7C24.4,22.4,24.2,22.2,23.9,22.1z"/>
<path class="st0" d="M19.1,17.3c0,1.3,0,2.5,0,3.8h9c-0.5-1.1-0.9-2.2-1.3-3.2c-0.2-0.6-0.7-1-1.4-1c-1.9,0-3.8,0-5.8,0
	C19.4,16.9,19.1,17.1,19.1,17.3z"/>
<path class="st0" d="M12.8,22.1c-0.1,0-0.3,0.2-0.3,0.4c0,1.4,0,2.8,0,4.4c2.2,0,4.3,0,6.3,0c0.1,0,0.4-0.3,0.4-0.4
	c0-1.4,0-2.8,0-4.3C17.1,22.1,15,22.1,12.8,22.1z"/>
<path class="st0" d="M33,29.4c-0.4-1-1.3-1.6-2.4-1.5c-2.3-0.1-4.5,0-6.8,0c-0.5,0-0.7,0.2-0.7,0.7c0,1.2,0,2.3,0,3.5
	c0,0.5,0.2,0.7,0.7,0.7c1.6,0,3.3,0,4.9,0h4.9c0.9,0,1-0.2,0.5-1S33.3,30.2,33,29.4z"/>
<path class="st0" d="M11.3,26.8c0.2-0.1,0.3-0.2,0.4-0.4c0-1.4,0-2.7,0-4.2c-0.7-0.1-1.4,0.3-1.6,1c-0.4,0.9-0.8,1.9-1.2,2.8
	c-0.1,0.2-0.2,0.5-0.2,0.8C9.6,26.8,10.5,26.8,11.3,26.8z"/>
<path class="st0" d="M8.6,27.9C8,28,7.4,28.3,7,28.8c-0.6,1-1.1,2.1-1.5,3.2c-0.2,0.4,0,0.6,0.4,0.6c3.4,0,6.7,0,10.1,0
	c0.2,0,0.5-0.3,0.5-0.4c0-1.4,0-2.9,0-4.4C13.9,27.9,11.3,27.8,8.6,27.9z"/>
<path class="st0" d="M21.9,27.8c-1.5,0-2.9,0-4.4,0c0,0.2-0.1,0.2-0.1,0.2c0,1.3,0,2.5,0,3.8c0,0.9,0.1,0.9,1.1,0.7c0-1,0-2.1,0-3.1
	c0-0.9,0.4-1.2,1.3-1.2s1.4,0.4,1.4,1.3c0,1,0,2,0,3.1l0.2,0.2c0.2-0.2,0.6-0.3,0.6-0.5c0.1-1.3,0.1-2.7,0.1-4
	C22.2,28.1,22.1,27.9,21.9,27.8z"/>
<path d="M34,29.1c-0.3-1-1-1.7-2-2c0-0.4-0.1-0.9-0.2-1.3c-0.5-1.2-1-2.5-1.5-3.7c-0.1-0.3-0.2-0.6-0.5-0.7c-0.8-0.3-0.9-1-1.2-1.6
	c-0.3-0.8-0.6-1.6-1-2.4c-0.2-0.4-0.5-1-0.9-1.1c-1-0.3-1.2-1.1-1.5-1.9c-0.2-0.7-0.5-1.4-0.9-2.1c-0.3-0.4-0.7-0.8-1.1-1.1
	c-0.2-0.2-0.5-0.4-0.6-0.6c-0.5-1.1-0.9-2.2-1.3-3.3c-0.2-0.8-1-1.3-1.8-1.1c-0.5,0.1-0.9,0.5-1.1,1.1c-0.4,1.1-0.8,2.2-1.2,3.2
	c-0.1,0.3-0.3,0.4-0.6,0.5c-0.7,0.1-1.2,0.6-1.4,1.2c-0.4,1-0.7,2-1.1,2.9c-0.1,0.3-0.3,0.5-0.6,0.6c-0.7,0.3-1.2,0.9-1.5,1.6
	c-0.3,0.8-0.7,1.6-1,2.4s-0.4,1.6-1.3,2c-0.3,0.1-0.4,0.5-0.6,0.8c-0.4,0.9-0.8,1.8-1.2,2.7c-0.2,0.4-0.2,0.8-0.4,1.2
	c-0.1,0.2-0.2,0.4-0.3,0.5c-0.5,0.5-1,1-1.5,1.6c-0.5,0.8-0.9,1.7-1.2,2.6c-0.7,1.5-0.1,2.3,1.5,2.3h27.6c1.5,0,2-0.9,1.3-2.2
	C34.8,30.7,34.3,29.9,34,29.1z M28.8,22.1c0.2,0,0.4,0.1,0.5,0.3c0.5,1.3,1.1,2.7,1.6,4c0,0.1,0,0.2,0,0.3h-5.4V22
	C26.6,22.1,27.7,22.1,28.8,22.1L28.8,22.1z M25.3,16.9c0.6,0,1.2,0.4,1.4,1c0.4,1,0.8,2.1,1.3,3.2h-9c0-1.3,0-2.5,0-3.8
	c0-0.1,0.3-0.4,0.5-0.4C21.5,16.9,23.4,16.9,25.3,16.9z M24.5,26.3c0,0.2-0.2,0.5-0.4,0.5c-1.2,0-2.5,0-3.8,0c0-1.5,0-2.9,0-4.2
	c0.1-0.2,0.3-0.4,0.5-0.5c1-0.1,2.1-0.1,3.1,0c0.3,0.1,0.5,0.3,0.6,0.6C24.5,23.9,24.5,25.1,24.5,26.3z M19.3,26.4
	c0,0.1-0.3,0.4-0.4,0.4c-2.1,0-4.1,0-6.3,0c0-1.5,0-2.9,0-4.4c0-0.1,0.2-0.4,0.3-0.4c2.1,0,4.3,0,6.4,0C19.3,23.6,19.3,25,19.3,26.4
	z M19.5,7.6c0.2-0.5,0.7-0.4,1,0.2c0.5,1.2,1,2.4,1.5,3.8h-4C18.5,10.2,19,8.9,19.5,7.6z M16.3,12.6c0.1-0.2,0.6-0.3,0.9-0.3
	c0.5,0,1,0.2,1.5,0.2c1,0,1.9,0,2.9,0c0.2,0,0.3,0,0.5,0c1.1-0.2,1.1-0.2,1.6,0.9l0.9,2.4h-9.5C15.5,14.8,15.9,13.7,16.3,12.6
	L16.3,12.6z M13.2,17.6c0.3-0.4,0.8-0.7,1.3-0.7c1-0.1,2-0.1,3-0.1c0.4,0,0.6,0.1,0.6,0.6c0,1,0,2,0,3.1c0,0.2-0.2,0.6-0.4,0.6
	c-1.9,0-3.9,0-6,0C12.3,19.8,12.7,18.7,13.2,17.6L13.2,17.6z M8.9,26c0.4-0.9,0.8-1.9,1.2-2.8c0.2-0.7,0.9-1.1,1.6-1
	c0,1.4,0,2.8,0,4.2c-0.1,0.2-0.2,0.3-0.4,0.4c-0.9,0-1.7,0-2.6,0C8.7,26.5,8.8,26.3,8.9,26z M16.6,32.2c0,0.2-0.3,0.4-0.5,0.4
	c-3.4,0-6.7,0-10.1,0c-0.4,0-0.6-0.2-0.4-0.6c0.4-1.1,0.9-2.2,1.5-3.2c0.4-0.5,1-0.9,1.6-0.9c2.6-0.1,5.3,0,7.9,0
	C16.6,29.3,16.6,30.8,16.6,32.2z M22.1,32.3c0,0.2-0.4,0.3-0.6,0.5l-0.2-0.2c0-1,0-2,0-3.1c0-0.9-0.5-1.3-1.4-1.3s-1.3,0.4-1.3,1.2
	c0,1,0,2.1,0,3.1c-1.1,0.2-1.1,0.2-1.1-0.7c0-1.3,0-2.5,0-3.8c0,0,0-0.1,0.1-0.2c1.4,0,2.9,0,4.4,0c0.2,0.1,0.3,0.2,0.4,0.4
	C22.2,29.6,22.2,30.9,22.1,32.3z M33.6,32.7h-4.9c-1.6,0-3.3,0-4.9,0c-0.5,0-0.7-0.1-0.7-0.7c0-1.2,0-2.3,0-3.5
	c0-0.5,0.2-0.7,0.7-0.7c2.3,0,4.5,0,6.8,0c1.1,0,2,0.6,2.4,1.6c0.3,0.8,0.8,1.5,1.2,2.3C34.6,32.5,34.5,32.7,33.6,32.7z"/>
</svg>
