<svg id="Слой_1" data-name="Слой 1" xmlns="http://www.w3.org/2000/svg" viewBox="0 0 566.93 566.93"><path d="M450.86,484h-406c-4.52,0-7.58-.41-8.86-2.36s-.39-4.94,1.45-9.1l.05-.11.08-.1,5.66-8.65q6.87-10.5,13.71-21c1.55-2.39,3.07-4.8,4.6-7.21,2.58-4.08,5.25-8.29,8-12.35a19.36,19.36,0,0,1,3.75-3.76c.56-.47,1.15-1,1.68-1.45.51-.73,1-1.44,1.54-2.16,1.16-1.6,2.35-3.25,3.41-4.94,2.06-3.26,4.1-6.63,6.06-9.89l2.52-4.16,24.66-39.12,6-9.36,0,0,0,0,4.77-7.34,11.4-17.53,1.39-2.14c1.74-2.67,3.55-5.44,5.24-8.21.3-.49.61-1,.92-1.45,1.63-2.51,3.16-4.88,2.73-8.06-.2-1.47.84-3.06,1.67-4.33,3.86-5.9,7.7-11.73,11.54-17.55q6.73-10.21,13.42-20.44c6.85-10.51,14.2-21.94,22.46-34.95a4.09,4.09,0,0,0,.65-2.48c-2.87-4-.68-7.4.92-9.9,5.41-8.45,11.18-17.44,17-26.42,1.33-2.06,2.79-4.09,4.2-6a74.48,74.48,0,0,0,7.71-12.33c5.45-12,12.82-23,20-33.7,3.92-5.85,8-11.9,11.64-18,4.9-8.19,10.23-16.28,15.4-24.11l3.66-5.56c2.16-3.3,4.09-4.83,6.08-4.83s4,1.63,6.21,5.13A29.35,29.35,0,0,0,290.33,91c.37.45.74.91,1.09,1.37l-.28.26.32-.2q1.74,2.83,3.45,5.69c2.46,4.08,5,8.29,7.63,12.35,3.6,5.57,7.34,11.19,10.95,16.62,7.1,10.67,14.44,21.7,21.07,32.91,5.68,9.59,11.9,19,17.92,28.2,5.57,8.46,11.33,17.22,16.64,26.06,1.84,3,3.17,5.86.86,9.47a4,4,0,0,0,.6,2.88c14.06,22.37,28.18,44.67,42.62,67.44l6.91,10.9c10.61,16.75,21.57,34.07,32.5,51a25.67,25.67,0,0,0,4.27,4.64c.94.87,1.92,1.77,2.8,2.72a66.37,66.37,0,0,1,5.15,6.25c1.68,2.35,3.3,4.81,4.86,7.18.65,1,1.3,2,2,3l.9.91.06.13c.22.45.42.9.62,1.36a20.19,20.19,0,0,0,1.37,2.71c3.66,5.68,7.42,11.43,11,17l3.79,5.79c.31.48.63.95.95,1.43,1.94,2.84,3.94,5.79,3.85,9.75a3.36,3.36,0,0,0,.72,1.43l.22.35q5.82,8.93,11.65,17.85c7.51,11.52,15.28,23.43,22.88,35.18,2.34,3.63,2,6,1.22,7.34s-2.67,3.1-7.38,3.11q-17.32,0-34.65,0Zm29-60.44q-50.2.06-100.43.05-36.66,0-73.32,0a22.66,22.66,0,0,0-6.43.91c-4.31,1.31-4.7,1.86-4.71,6.53q0,18.48,0,36.95c0,5.62,0,5.62,5.63,5.62H517.06l.12-.24-.51-.84c-.54-.89-1.08-1.78-1.64-2.65q-3.79-5.88-7.6-11.75c-6.28-9.7-12.78-19.73-19-29.71-2.19-3.52-4.58-4.89-8.53-4.89v-.83ZM50.6,473.47c1.11.1,2,.17,2.83.17H265.56c4.67,0,4.67,0,4.67-4.78q0-14.31,0-28.64v-9.1c0-3.54-1.45-5.49-4.4-6l-.88-.14a73.26,73.26,0,0,0-11.6-1.28c-44.89-.09-90.53-.09-134.67-.09H88c-.4,0-.81,0-1.23-.07s-.75-.05-1.11-.05a2.83,2.83,0,0,0-1.12.17l-.49.21c-1.73.74-3.69,1.57-4.54,2.85-4.9,7.35-9.69,15-14.31,22.32q-2,3.15-4,6.3c-2.61,4.13-5.21,8.28-8,12.71l-3.34,5.33ZM282,472.81c1.17,0,2.72,0,4.28.06h.33a3.38,3.38,0,0,0,2.49-.75,3.57,3.57,0,0,0,.7-2.66c-.08-2.18-.06-4.39,0-6.53,0-.95,0-1.9,0-2.85v-.82h0v-.13c0-.67,0-1.33,0-2-.05-2.24,0-4,0-5.49.06-2.51.09-4-.44-4.57s-1.78-.57-3.88-.57l-2.15,0-3.53,0h-1.93c-1.68,0-2.4.69-2.4,2.25q0,10.85,0,21.68c0,1.63.69,2.32,2.31,2.33Zm.65-34.67c-2,0-3.95.06-5.89.17a2.58,2.58,0,0,0-1,1.44,2.4,2.4,0,0,0,1.23,1.38,11.89,11.89,0,0,0,2.14.17c.52,0,1.05,0,1.58,0l.8,0h0l.83,0c.58,0,1.16,0,1.74,0l1.69,0a14.58,14.58,0,0,0,2.36-.16,2.49,2.49,0,0,0,1.36-1.43,2.7,2.7,0,0,0-1-1.39C286.61,438.2,284.63,438.14,282.68,438.14Zm211.46-9.65L502.62,441A81.14,81.14,0,0,0,494.14,428.49ZM75.51,423.91a113.29,113.29,0,0,0-8.22,12.4Zm209.8,8.95c.54,0,1.09,0,1.63,0h.37a2.55,2.55,0,0,0,1.89-.58,3.25,3.25,0,0,0,.64-2.38c0-2.6-.43-3.77-2.72-3.79h-4.87c-1.34,0-2.69,0-4,0H278c-2.1,0-3.06,1-3.22,3.35a3.24,3.24,0,0,0,.63,2.45,3.59,3.59,0,0,0,2.61.94c.58,0,1.15,0,1.73,0h3.72v0h1.81Zm-3.25-24.54c-2.27,0-4.36.07-6.4.21a5.4,5.4,0,0,0-3.31,2.18,34.25,34.25,0,0,0-3.33,6.66c-.6,1.45-.78,2.39-.52,2.79s1.13.62,2.63.69c1.26.06,2.61.08,4.26.08l3.36,0,2.56,0,.82,0h3.55l3.54,0c1.85,0,3.37,0,4.78-.06,1,0,1.71-.28,2-.72a2.37,2.37,0,0,0-.22-2.08l-.45-1a58.92,58.92,0,0,0-3.47-6.87,4.08,4.08,0,0,0-2.7-1.64C286.57,408.38,284.26,408.32,282.06,408.32Zm-199,9.94c1.45.12,2.59.2,3.72.2q84.74,0,169.49.05c.39,0,.79,0,1.19.06s.73.05,1.09.05a3,3,0,0,0,1.19-.19c1.65-.69,3.61-1.51,4.25-2.69,2.93-5.44,5.5-10.85,4.62-17.22a20.75,20.75,0,0,1,3-13.54,61.93,61.93,0,0,0,3.89-7.9c1.12-2.71,1.24-4.81.34-6.24s-2.81-2.24-5.7-2.41c-.44,0-.89,0-1.33,0H205.62c-25.9,0-56.59,0-87.9-.06l0-.83v.83a7.62,7.62,0,0,0-7.22,4c-5.22,8.35-10.6,16.79-15.8,25q-4.38,6.9-8.76,13.79c-1,1.54-1.91,3.15-3,5-.36.64-.75,1.3-1.16,2Zm212.15-49.85c-.53,0-1.22,0-1.92,0-2.64.17-4.47,1-5.3,2.42s-.67,3.36.43,5.68c1,2,2,4.08,3,6.06,1.19,2.37,2.43,4.83,3.56,7.29.83,1.79,1.55,3.67,1.23,5.33-1.19,6.19-.05,12.2,3.67,19.48,1.33,2.6,2.51,3.84,5.6,3.84,40.79-.06,82.25-.06,122.35-.07h53.21a14.7,14.7,0,0,0,2.35-.27l.59-.1-20.48-30.64.16-.13-.17.1L461,383.18c-2-3.24-4-6.59-5.82-10s-4.31-4.84-8.78-4.84c-22.47.07-46.48.1-77.91.1h-73.2Zm-10.92,34.82c.54,0,1.08,0,1.62,0a8.53,8.53,0,0,0,2-.19,5,5,0,0,0,1.88-1.31l.25-.24-.32-.3c-.63-.59-1.29-1.2-1.8-1.24-1.85-.14-3.81-.22-5.8-.22s-3.88.07-5.91.2c-.43,0-1,.58-1.57,1.07l-.26.24c.1.11.21.22.31.34a4.56,4.56,0,0,0,1.78,1.4,11,11,0,0,0,2.38.21c.61,0,1.23,0,1.85-.05s1.29-.05,1.92-.05h.83v.05ZM466.2,381.66,480,403.07C475.87,396.23,470.69,388.21,466.2,381.66ZM275.33,394.41c3.13.14,6.23.16,8.86.16h7.18L282.17,376l-.27,0-1.59,3.42c-2,4.33-4.13,8.81-6,13.27A4.44,4.44,0,0,0,275.33,394.41Zm5.58-26.73c.29.39.83,1.11,1.07,1.14h0a4.5,4.5,0,0,0,1.47-.93l.64-.5-.57-.45a4.53,4.53,0,0,0-1.37-.9v0c-.3,0-.83.62-1.22,1l-.25.27Zm1.51-7.79a5.69,5.69,0,0,1,4.14,1.78c2.19,2.14,4.86,2.32,7.62,2.32l100.09,0h52.51c1,0,1.94-.05,3.18-.12l1.05-.06c-.13-.23-.24-.45-.35-.66-.49-.93-.84-1.6-1.24-2.24q-3.66-5.83-7.36-11.64c-5.71-9-11.61-18.32-17.22-27.61-2.27-3.76-4.85-5.23-9.2-5.23q-59.31,0-118.58.05c-51.16,0-98.28,0-144.07-.1-5.23,0-8.64,1.93-11.42,6.45-5.08,8.23-10.32,16.54-15.39,24.58q-4.28,6.78-8.53,13.57a19.36,19.36,0,0,0-1.17,2.33c-.07.16-.15.33-.22.5l.83.05c1.12.07,2,.13,2.88.13H141.1l46.82,0c32.43,0,57.47,0,81.21-.12,2.71,0,5.56-1.3,8.31-2.55l.38-.17A11.58,11.58,0,0,1,282.42,359.89Zm135.71-48.08,0-.09a5.09,5.09,0,0,0-.37-.89l-1.23-.48a15.7,15.7,0,0,0-5.43-1.45c-59.2-.07-116.95-.08-165.65-.08H156.14c-1.09,0-2,0-2.93.05a4.43,4.43,0,0,0-4.09,2.93Zm-151.58-7.33c3.84,0,7.69,0,11.53.08l2.91,0c9.94.09,20.05.28,29.82.47l3.95.07a6.32,6.32,0,0,0,5.87-3.09c2.93-4.55,6.17-9.38,10.19-15.18,1.5-2.17,2.53-3.27,4-3.27,1.16,0,2.32.77,3.94,2.1,4.79,4,9.38,8,13.23,11.35a7.53,7.53,0,0,1,1.45,2c.17.28.34.57.52.83l.4.6-2.15,1.92L335,288l-11,16.13h89.19l0-.06a8.64,8.64,0,0,0-.67-1.44c-1.94-3.06-3.9-6.1-5.86-9.15-4.34-6.72-8.82-13.67-12.92-20.69-2.41-4.13-5.3-5.66-10.67-5.66-42.7.08-84.8.09-123.94.09H183.66c-.29,0-.58,0-.86,0h-.39c-1.85,0-3.16.83-4.38,2.79-3.36,5.41-6.86,10.86-10.23,16.14q-3.21,5-6.4,10c-1.24,1.95-2.43,4-3.69,6.1l-1.17,2h88.22L234.2,288l-3.32,2.86c-3.42,3-6.65,5.74-9.93,8.48a20.61,20.61,0,0,1-2.93,1.9c-.57.33-1.21.69-1.91,1.12l-1.57,1,.33-1.81c.12-.65.18-1.1.22-1.41a1.73,1.73,0,0,1,.45-1.19c5.75-5.1,11-9.7,16.23-14.29a3.7,3.7,0,0,1,2.42-1.06c1.57,0,2.63,1.34,3.29,2.36,1,1.58,2.09,3.15,3.14,4.73,2,3.09,4.18,6.28,6.17,9.5,1.72,2.77,3.49,4.48,7,4.48h.38C257.91,304.54,261.84,304.48,266.55,304.48ZM151,303.1l2.09-3.32L150.83,303ZM170,273.45l-3.65,6a48.91,48.91,0,0,0,5.42-8.88Zm43.15-11.52c19.86,0,40,.22,59.57.42s39.71.42,59.56.42c20.1,0,37.84-.22,54.16-.68,0-.08-.07-.15-.1-.23a19.11,19.11,0,0,0-1.34-2.72c-2.21-3.51-4.45-7-6.69-10.48-4-6.18-8.05-12.57-11.95-18.93-1.87-3.06-4.09-4.25-7.91-4.25-24.56.05-48.58.08-71.43.08-27.37,0-54.26,0-79.92-.11-4.16,0-6.56,1.32-8.61,4.71-3.94,6.52-8.07,13.06-12.07,19.38-2,3.15-4,6.29-5.95,9.45a20.66,20.66,0,0,0-1.1,2.1l-.36.74.12.35C189.72,262,200.86,261.93,213.15,261.93Zm147-41.88q-4.75-7.52-9.52-15-9.09-14.32-18.14-28.65a5.5,5.5,0,0,0-5.24-2.81q-22.11,0-44.17,0-22.77,0-45.56,0l0-.83v.83a5.27,5.27,0,0,0-5.15,2.81C226.57,185.62,220.66,195,215,204l-9.37,14.84a4.39,4.39,0,0,0-.43,1.22ZM354.82,202c3.7,6.19,7.54,11.91,11,16.93l.08,0ZM206.54,207.4a99.73,99.73,0,0,0-6.15,10Zm13.13-20.07c2.05-3.08,4-6.21,5.86-9.28q1.36-2.25,2.75-4.48l-.06,0ZM327.39,168l-.18-.33c-.49-.88-.86-1.57-1.29-2.22L319,154.58c-7.72-12-15.71-24.48-23.63-36.67-3.07-4.72-6.3-9.44-9.43-14l-4.06-6-6.54,10.63-.13-.08.12.09-8.54,12.82,0,0L236.57,168Zm-91-9.13a43.71,43.71,0,0,0-3.66,6Zm82.16-14.24c4.14,6.53,8.33,13.11,12.5,19.6l.1.14a26.36,26.36,0,0,0-1.31-2.33C325.93,156,322.06,150,318.52,144.59Z"/><path d="M75.64,418.48c1.69-2.39,3.47-4.72,5-7.2,2.93-4.64,5.73-9.37,8.58-14.06h0l24.66-39.11h0l6-9.35h0q8.08-12.43,16.17-24.88c2.23-3.44,4.5-6.86,6.64-10.36,1.89-3.08,4.32-5.92,3.77-10-.16-1.19.82-2.67,1.58-3.83C156.3,287,164.68,274.39,173,261.71q11.34-17.4,22.46-35c.59-.93,1.1-2.73.62-3.4-2.45-3.4-.85-6.17.94-9q8.47-13.23,17-26.41c4-6.17,9-11.88,12-18.49,8.41-18.56,21.19-34.35,31.55-51.65,6-10.07,12.6-19.82,19-29.64,4-6.08,7-5.91,10.91.29,1,1.54,2.2,2.91,3.32,4.36h0c3.69,6,7.26,12.13,11.09,18.06,10.66,16.51,22,32.61,32,49.5,10.95,18.48,23.51,35.88,34.57,54.26,1.71,2.85,2.94,5.35.87,8.61-.52.81-.05,2.74.59,3.76q21.22,33.78,42.63,67.44c13.09,20.66,26.15,41.36,39.41,61.91,1.83,2.84,4.82,4.93,7.15,7.47a66.68,66.68,0,0,1,5.09,6.17c2.38,3.33,4.58,6.8,6.86,10.21h0l.84.86v0a37.44,37.44,0,0,0,2,4.17c4.91,7.62,9.88,15.19,14.84,22.78,2.15,3.31,4.76,6.39,4.67,10.71a4.68,4.68,0,0,0,1.07,2.24C506,438.64,517.57,456.28,529,474c3.53,5.45,1.29,9.17-5.46,9.18q-36.34.07-72.69,0h-406c-9.18,0-10.38-1.86-6.66-10.3h0Q48,458,57.67,443.16c4.22-6.51,8.24-13.14,12.6-19.55,1.37-2,3.57-3.44,5.38-5.13ZM333.28,167.65h0v-.85c-.91-1.75-1.7-3.58-2.76-5.24q-7.35-11.44-14.82-22.8c-3.18-4.85-6.42-9.65-9.63-14.47l-15.3-23.81L282,86.36l-2.23,3.92-.86.84-1.7,3.41q-8.51,13.17-17,26.36l-1.7,2.55-5.95,9.35-.86.84q-1.28,2.13-2.54,4.27Q244,146,238.9,154.05c-3.12,4.1-6.28,8.18-8.08,13l1.07.64,7.86-12.82L250,138.74l2.55-4.25c.28-.29.57-.57.85-.85l6-9.36,1.7-2.55,17-26.35,1.7-3.4.85-.86c1.17.58,2.7.87,3.44,1.79,2.15,2.67,4,5.59,5.92,8.42l15.3,23.8c8.35,13.18,16.68,26.38,25.1,39.5.62,1,2,1.45,3,2.16Zm17,27.21v.85A269.55,269.55,0,0,0,365.61,220l1.44-.94Q359.1,207,351.13,194.86ZM163.22,285l1.7-2.56c4.31-4.65,9.64-13.79,9-16.91l-9.79,16.07-1.7,2.55-2.55,4.25q-5.09,7.44-10.16,14.87l1.53,1,9.47-15Zm47.62-83.33,5.1-7.66c5.05-6.56,9.1-13.72,13.48-20.69L228,172.4q-6.44,10.38-12.85,20.76L210,200.81l-.85,1.71a98.77,98.77,0,0,0-10.64,16.75l1.25.78L210,203.36Zm299.3,252.53,12.75,19.55c.36,1.17.71,2.33,1.22,4-2.38.1-4.31.26-6.25.26Q283.44,478,49,478a13.1,13.1,0,0,1-3.38-.09,16.14,16.14,0,0,1-3.17-1.63l23-35.71,11.24-17-1.34-.89a103.14,103.14,0,0,0-10.75,17c-3.15,4.62-6.43,9.17-9.44,13.89-4.6,7.21-9,14.54-13.51,21.82-1.86,3.5-1.68,4,1.8,4.19,1.41.09,2.83,0,4.25,0H395.36q62.89,0,125.8,0c1.85,0,3.69-.35,6.63-.65l-4.06-6.1L511,453.34,505,444c-3.43-7.5-11.79-19.42-14.95-20l14.11,20.88Q507.16,449.51,510.14,454.19ZM281.41,97.08l-6.81,11h0l-8.49,12.74,0,0-31,47.89h93.73c-1-1.68-1.5-2.79-2.17-3.83-10.18-15.84-20.33-31.71-30.59-47.5-4.47-6.88-9.17-13.59-13.77-20.38Zm106.28,165.8h0a37.35,37.35,0,0,0-2-4.18c-6.2-9.81-12.58-19.51-18.64-29.4-2.11-3.45-4.65-4.65-8.65-4.64q-75.66.15-151.3,0c-4.39,0-7.1,1.43-9.32,5.12-5.86,9.69-12,19.21-18,28.81-.63,1-1.1,2.14-1.65,3.22l.41,1.24C248.26,261.9,318,264.9,387.69,262.88ZM464.22,387h0c-2.8-4.73-5.77-9.38-8.35-14.23-2.12-4-5.06-5.28-9.58-5.27-49.73.14-99.46.08-149.19.07-1.28,0-2.56,0-3.83.05-5.9.38-8.07,4-5.55,9.27,2.12,4.48,4.47,8.85,6.55,13.35.69,1.49,1.44,3.34,1.16,4.83-1.38,7.22.48,13.63,3.75,20,1.48,2.9,3,4.29,6.34,4.29q87.78-.13,175.55-.08a40.53,40.53,0,0,0,4.35-.57C478,407.68,471.12,397.34,464.22,387Zm-11.87-22.48c-1.06-1.95-1.58-3.06-2.23-4.1-8.21-13.06-16.6-26-24.57-39.23-2.44-4-5.3-5.64-9.94-5.64q-131.3.12-262.61,0c-5.69,0-9.28,2.2-12.13,6.84-7.88,12.77-16,25.42-23.92,38.14a44.5,44.5,0,0,0-2,4c2.19.11,3.58.24,5,.24,49.72,0,99.44.08,149.16-.08,3,0,6.16-1.5,9-2.79s5.43-2,7.83.36,5.18,2.56,8.23,2.55q76.27,0,152.56,0C448.3,364.78,449.82,364.65,452.35,364.53ZM334.84,286.76c-4.13,6.06-8.07,11.87-12.34,18.16h92a24.11,24.11,0,0,0-1.25-2.76c-6.27-9.93-12.84-19.69-18.76-29.82-2.78-4.75-6.24-6.08-11.44-6.07q-98.82.19-197.64.09c-.85,0-1.7.06-2.55,0-2.54-.15-4.15,1-5.51,3.16-5.46,8.77-11.1,17.44-16.63,26.17-1.84,2.9-3.54,5.89-5.62,9.35h91.2L234.37,286.8c-5,4.26-9.41,8.16-14,11.95a44.5,44.5,0,0,1-4.74,2.95c.29-1.61.24-2,.41-2.13q8.08-7.17,16.22-14.29c1.95-1.69,3.32-.65,4.48,1.13,3.1,4.74,6.32,9.4,9.3,14.21,1.92,3.1,4,5,8.12,4.87,8.92-.31,17.85-.17,26.77-.08,11.19.11,22.37.33,33.55.54a7.19,7.19,0,0,0,6.79-3.46c3.29-5.12,6.71-10.16,10.17-15.16,2.51-3.63,3.37-3.77,6.72-1,4.48,3.69,8.86,7.5,13.21,11.33a12.85,12.85,0,0,1,1.83,2.65l-1.08,1ZM517.58,474.49c.18-.37.36-.74.53-1.11-.79-1.3-1.57-2.61-2.39-3.89-8.88-13.8-17.91-27.51-26.58-41.44-2.3-3.71-4.93-5.29-9.25-5.29q-86.86.12-173.75.08a23.47,23.47,0,0,0-6.67.94c-4.71,1.44-5.29,2.37-5.3,7.31q0,18.48,0,37c0,6.25.2,6.44,6.45,6.44h217Zm-469.16-.36c2.29.16,3.65.33,5,.33q106.07,0,212.13,0c5.23,0,5.49-.29,5.5-5.61q0-18.87,0-37.74c0-3.53-1.4-6.18-5.08-6.78a79.31,79.31,0,0,0-12.62-1.43q-82.68-.17-165.37-.1c-1.27,0-2.71-.34-3.79.12-1.94.84-4.31,1.74-5.39,3.36-6.27,9.43-12.24,19.06-18.28,28.64C56.64,461,52.82,467.12,48.42,474.13Zm32-55.24c2.88.18,4.66.4,6.44.4q84.74,0,169.49,0c1.27,0,2.7.32,3.79-.14,1.71-.71,3.87-1.6,4.65-3.06,3-5.47,5.63-11.11,4.72-17.72a19.78,19.78,0,0,1,2.88-13,63.82,63.82,0,0,0,3.94-8c2.48-6,.29-9.42-6.07-9.79-.56,0-1.13,0-1.7,0q-75.4,0-150.8-.06a8.43,8.43,0,0,0-8,4.44c-8.11,13-16.38,25.82-24.56,38.74C83.72,413.05,82.37,415.5,80.38,418.89Zm280.6-198c0-.61,0-.94-.09-1.15-9.24-14.59-18.53-29.15-27.73-43.77a6.3,6.3,0,0,0-6-3.19q-44.85.09-89.7,0a6.12,6.12,0,0,0-5.88,3.21c-8.84,14.19-17.83,28.28-26.73,42.43a11.73,11.73,0,0,0-.83,2.48ZM147.89,312.64H419.35c-.57-1.2-.74-2.36-1.28-2.56-2.28-.85-4.66-2-7-2q-127.46-.15-254.92-.07c-1,0-2,0-3,.05C150.43,308.2,148.92,309.76,147.89,312.64ZM290.63,460.09h0c0-1,0-2,0-3-.33-13.25,2.63-11.27-12.34-11.4h-.42c-2,0-3.21,1-3.22,3.08q0,10.85,0,21.68c0,2.07,1,3.15,3.13,3.15,2.83,0,5.67-.05,8.5.06,3,.11,4.47-1.14,4.37-4.26S290.63,463.21,290.63,460.09Zm-8.5-38.38v0c4,0,7.93.08,11.89,0,2.62-.07,3.61-1.48,2.49-4a69.6,69.6,0,0,0-4-8,4.87,4.87,0,0,0-3.36-2,109.88,109.88,0,0,0-13.58,0,6.08,6.08,0,0,0-3.92,2.53,34.73,34.73,0,0,0-3.42,6.81c-1.41,3.41-.79,4.46,2.83,4.62S278.45,421.71,282.13,421.71Zm.57-46.53-1.3-.11c-2.66,5.73-5.41,11.43-7.86,17.24-.28.67,1,2.89,1.64,2.92,5.41.24,10.84.14,17.51.14C289,387.92,285.85,381.55,282.7,375.18Zm0,58.49v0c1.41,0,2.82-.06,4.23,0,2.71.14,3.8-1.12,3.76-3.79s-.41-4.57-3.54-4.6c-3,0-5.92,0-8.88-.05s-4.07,1.48-4.25,4.11c-.19,2.84,1.33,4.16,4,4.27C279.57,433.73,281.12,433.67,282.67,433.67Zm173.87-65.45q16,24.75,31.94,49.49C488.54,413.45,460.42,369.77,456.54,368.22ZM282.63,404v0c1.84,0,3.74.3,5.48-.11,1.19-.27,2.15-1.53,3.21-2.35-1.1-.83-2.16-2.27-3.32-2.36a86.49,86.49,0,0,0-11.83,0c-1.05.07-2,1.36-3,2.09,1.05.91,2,2.35,3.16,2.6C278.34,404.27,280.52,404,282.63,404ZM282.34,442v0a36.49,36.49,0,0,0,5.92-.1,3.12,3.12,0,0,0,2.05-2.15c.08-.73-1.05-2.25-1.7-2.29a109.3,109.3,0,0,0-11.87,0c-.69,0-1.82,1.49-1.81,2.28a3,3,0,0,0,1.91,2.18A30.53,30.53,0,0,0,282.34,442Zm54.51-269.7-1.49.71q6.58,10.2,13.19,20.4l1.37-.9ZM285.5,367.4c-1.64-1.1-2.6-2.26-3.44-2.18s-1.67,1.34-2.5,2.09c.77.83,1.47,2.23,2.33,2.33S283.76,368.55,285.5,367.4Z"/><polygon points="119.24 348.22 119.24 348.21 120.48 349.3 119.24 348.22"/><path d="M119.86,348.76Z"/><polygon points="113.29 357.57 113.3 357.56 114.53 358.65 113.29 357.57"/><path d="M113.91,358.11Z"/><path d="M471,380.21h0Z"/><path d="M471.87,380.22v0Z"/><path d="M89.25,397.22Z"/><path d="M89.25,397.22Z"/><polygon points="75.08 417.89 75.09 417.88 76.22 419.07 75.08 417.89"/><path d="M75.65,418.48h0Z"/><polygon points="290.21 93.44 291.31 92.21 290.22 93.45 290.21 93.44"/><path d="M290.77,92.83h0Z"/><polygon points="37.61 472.36 37.61 472.36 38.86 473.43 37.61 472.36"/><path d="M38.23,472.9h0Z"/><path d="M433.43,357.75c-.29-.31-.59-.61-.9-.91a14.4,14.4,0,0,1-2-2.27c-5.08-7.9-9.2-14.4-12.94-20.46-1.77-2.86-3.8-4.14-6.59-4.14l-.62,0c-1.21.08-2.51.11-4.09.11l-3.2,0-2.61,0v0l21.55,27.58H344.94l2-5.77.68.24-.54-.49L351,347c3.1-3.68,6.31-7.49,9.42-11.26,1.19-1.44,2.35-3,3.47-4.42q1.38-1.81,2.8-3.6c1.2-1.49,2.26-2.48,3.56-2.48s2.6,1.22,3.69,2.54,2.23,2.89,3.26,4.34c.75,1,1.53,2.13,2.33,3.16s1.52,1.8,2.43,2.81l.73.8c.67-.86,1.31-1.72,1.94-2.56a88.09,88.09,0,0,1,5.91-7.32,10.28,10.28,0,0,1,6.13-3.18c2.4-.17,4.95-.26,7.58-.26s5.55.09,8.65.28c1.87.11,4.46,1.11,5.58,2.75,4.79,7,9.42,14.32,13.91,21.37l2.49,3.92a5.06,5.06,0,0,1,.59,1.81c0,.23.09.46.15.68l.14.54-1.83,1.37Zm-82.06-4c.34,0,.67,0,1,0a6.43,6.43,0,0,0,5.73-2.92c2.11-2.9,4.53-6,7.6-9.73,2.17-2.65,3.47-3.91,5-3.91s2.84,1.37,4.94,4.25c.34.46.67.92,1,1.39.64.9,1.3,1.83,2,2.69.93,1.16,1.91,2.26,3,3.55l1,1.15,8.7-10.87c.75-.94,1.93-2.19,3.45-2.19,1.13,0,2.2.69,3.25,2.1,1.52,2,3.14,4,4.71,6s3,3.74,4.45,5.66a6.18,6.18,0,0,0,5.29,2.8,11.09,11.09,0,0,0,1.47-.11l-19.09-24c-.52.7-1,1.37-1.47,2-1.41,1.93-2.62,3.61-3.9,5.27s-2.6,3.3-4,5c-.65.81-1.34,1.65-2.05,2.54l-.64.8-12.63-15.48Zm52.87-.21-9.51-12.05-7.17,8.95a23.9,23.9,0,0,1-2.8,3.1Zm-24.29,0a23,23,0,0,1-2.73-3.17c-1.59-2.08-3.23-4.16-5-6.37l-1.92-2.43-4.1,6-5.5,5.93Z"/><path d="M347.73,352.16c4.45-5.29,8.93-10.56,13.33-15.89,2.16-2.61,4.14-5.38,6.27-8,2.33-2.9,3.5-2.93,6,.07,2,2.39,3.68,5,5.58,7.47,1.1,1.42,2.37,2.72,3.86,4.4,3-3.84,5.46-7.45,8.41-10.61a9.39,9.39,0,0,1,5.58-2.91,122.13,122.13,0,0,1,16.12,0,7.12,7.12,0,0,1,4.95,2.4c5.65,8.29,11,16.8,16.39,25.27a8,8,0,0,1,.63,2.25l-.79.59a24.16,24.16,0,0,1-2.77-3.06q-6.56-10.17-12.94-20.45c-1.87-3-4.21-4.75-8-4.51-3.46.22-6.94.05-10.41.05l-.39,1,20.8,26.61H346.11c.65-1.88,1.14-3.27,1.63-4.67Zm17.86-5.11-6.75,7.28h47.1l-11.2-14.21-7.83,9.77c-4.16,5.2-5.05,5.18-9-.06-2.35-3.08-4.77-6.1-7.6-9.7l-4.7,6.93Zm49.85,7.1c-7-8.78-13.59-17.07-20.61-25.89-2.34,3.19-4.12,5.71-6,8.15s-3.78,4.74-6.06,7.57l-12.63-15.49-20.33,25.85c4.2.7,6.84-.16,8.93-3,2.41-3.31,5-6.53,7.57-9.7,4-4.89,4.87-4.83,8.62.31,1,1.37,1.93,2.79,3,4.11,1.38,1.71,2.87,3.33,4.72,5.47L392,339.87c1.75-2.18,3.41-2.78,5.4-.12,3,3.95,6.18,7.72,9.16,11.66C408.65,354.21,411.22,355.14,415.44,354.15Z"/><path d="M131.32,357l.22-.6c.09-.26.16-.52.24-.78a7.15,7.15,0,0,1,.75-1.91q2.94-4.71,5.92-9.4c3-4.81,6.18-9.77,9.2-14.7a7.55,7.55,0,0,1,7-4H155c2.68.08,5.46.11,8.26.11s5.74,0,8.7-.11h.29a7.93,7.93,0,0,1,6.85,3.62c1.7,2.34,3.51,4.64,5.42,7.08l2,2.58,1.58-2c1.62-2.09,3.1-4,4.6-5.89,1.07-1.36,2.2-2.67,3.28-3.94a3.4,3.4,0,0,1,5.86.14q10.51,13.32,21,26.69a5.3,5.3,0,0,1,.73,1.55c.11.3.23.66.4,1.07l.46,1.13H148.24l.79-1.26c.39-.63.75-1.22,1.08-1.78a28.13,28.13,0,0,1,2-3.1c4-5.26,8.19-10.58,12.2-15.72l4.24-5.43.27-.28h-7c-3.15,0-5.56,0-7.8.1a3.67,3.67,0,0,0-2.47,1.37c-2.27,3.46-4.47,7.07-6.59,10.56l-2.25,3.7-.23-.14.21.17-1.72,2.49c-1.4,2-2.86,4.15-4.33,6.2a27.44,27.44,0,0,1-1.93,2.31l-.87,1-.47.55Zm24.39-2.8,1.06-.25a8.07,8.07,0,0,0,3-1.08,28.94,28.94,0,0,0,4.4-4.51l.73-.86c2.1-2.46,4.16-5,6.34-7.61l2.93-3.54.64-.78,11.63,14.62,2.23-2.71c2-2.43,3.91-4.72,5.76-7s3-3.45,4.3-3.45,2.64,1.39,4.18,3.36l1.06,1.37c2.46,3.16,5,6.43,7.61,9.55,1.43,1.72,2.72,2.48,4.18,2.48h0a5.29,5.29,0,0,0,1.55-.26l-18.57-23.89L186.6,345.45l-3.73-4.81c-2.17-2.81-4.19-5.41-6.22-8-.81-1-1.71-2.09-2.24-2.09s-1.38,1-2.17,2l-2.86,3.6c-1.86,2.34-3.73,4.67-5.56,7-2,2.58-4,5.18-5.93,7.79l-2.3,3Zm28-.68.09-.13-9-11.83-9.43,12Zm24.44-.05-3.84-4.19.45-.43-.51.36-5.5-7.75-9.66,12Z"/><path d="M169.18,330.9l1.57-1.64c-6,0-11.4-.1-16.8.08a4.49,4.49,0,0,0-3.13,1.74c-3.07,4.68-5.92,9.5-8.86,14.28h0c-2,2.9-4,5.82-6,8.68-.83,1.15-1.83,2.16-2.75,3.24l-.87-.57a12.4,12.4,0,0,1,.92-2.52c5-8,10.16-16,15.12-24.1a6.8,6.8,0,0,1,6.63-3.59c5.66.15,11.34.14,17,0a7.15,7.15,0,0,1,6.45,3.28c2.47,3.4,5.12,6.66,8.12,10.52,2.55-3.27,4.67-6,6.83-8.76,1.05-1.33,2.15-2.62,3.26-3.91,1.56-1.82,3.12-1.75,4.58.11q10.51,13.32,21,26.69a12.27,12.27,0,0,1,1,2.42H149.73c1.19-1.92,2-3.47,3-4.82,5.44-7.06,10.94-14.08,16.41-21.11Zm35.7,17.85h0l-6.13-8.64c-4,5-7.49,9.31-11.43,14.2H210Zm-6.09-20.47L186.6,344.1c-3.42-4.41-6.34-8.2-9.3-12-2.51-3.2-3.24-3.19-5.71-.08-2.81,3.55-5.65,7.07-8.42,10.64-2.89,3.73-5.72,7.52-8.57,11.28l.73,1.23c1.68-.52,3.66-.64,5-1.64a35.12,35.12,0,0,0,5.26-5.49c3-3.52,5.92-7.11,9.27-11.15l11.63,14.62c3.16-3.85,6-7.16,8.64-10.55,3.31-4.16,4-4.18,7.19-.09,2.86,3.67,5.71,7.36,8.69,10.94,1.87,2.24,4.11,3.74,7.68,2.05Zm-14.66,26.09.65-1-10-13.14-11.13,14.12Z"/><path d="M299.41,358.1H268.69c-5.82,0-11.63,0-17.44,0a30.17,30.17,0,0,1-3.86-.34c-.76-.1-1.6-.21-2.56-.31l-1.31-.14,2.94-4.74c1.48-2.39,2.78-4.49,4.1-6.58.89-1.4,1.79-2.78,2.7-4.17,1.62-2.47,3.29-5,4.8-7.61,2.89-4.94,6.89-7.24,12.57-7.24.64,0,1.33,0,2,.09,3.94.33,8.12.48,13.16.48,3.73,0,7.5-.08,11.36-.18h.41c4.1,0,6.76,1.55,8.92,5.18s4.4,7.06,6.61,10.47c1.58,2.43,3.22,4.94,4.77,7.44a16.81,16.81,0,0,1,1.51,3.46c.18.51.36,1,.56,1.53l.34.85-.88.25c-.56.16-1.12.36-1.68.56a12.69,12.69,0,0,1-4,.95C309.6,358.07,305.18,358.1,299.41,358.1Zm16-4.79L302.45,334.1l-.71.82a25,25,0,0,1-2.31,2.49c-.4.36-.79.74-1.18,1.13-1.33,1.32-2.71,2.68-4.42,3.1a13.48,13.48,0,0,0-7.57,4.85,4.14,4.14,0,0,1-3.1,1.88c-1.1,0-2.15-.65-3.31-2l-.19-.23c-.94-1.12-2.51-3-3.49-3H276c-4.14,0-6.76-2.29-9.3-4.5l-.33-.29-.09-.08-.74-1c-.62-.82-1.2-1.59-1.84-2.32l-.34.07a2.47,2.47,0,0,1-.29.06c-4.95,5.4-8.55,11.63-12.24,18.24ZM280.85,341.2c.91,1.28,1.52,2.06,2.34,2.06h0a2.78,2.78,0,0,0,1.34-.46,3.11,3.11,0,0,0,1.61-2,1.46,1.46,0,0,0-.57-1.23,2.69,2.69,0,0,0-1.84-.89c-1.05,0-2.19.86-3.3,1.9C280.58,340.8,280.72,341,280.85,341.2Zm-14.49-9.65,1,1.21a42.36,42.36,0,0,0,3.05,3.51c1.61,1.61,3.11,2.39,4.58,2.39s3-.83,4.65-2.55c1.35-1.44,2.5-2.08,3.74-2.08s2.34.59,3.76,1.91c1.82,1.69,3.29,2.52,4.48,2.52,1.36,0,2.66-1,4.19-3.38l-.05-.11.38-.38,2.72-3,0,0Z"/><path d="M244.92,356.58c2.49-4,4.39-7.12,6.34-10.2,2.49-3.94,5.16-7.78,7.52-11.81,3.15-5.39,7.49-7.27,13.82-6.74a229.5,229.5,0,0,0,24.61.31c4.06-.11,6.56,1.34,8.6,4.77,3.62,6.09,7.66,11.91,11.39,17.92a31,31,0,0,1,2,4.86c-1.83.52-3.66,1.46-5.49,1.49-9.63.15-19.26.07-28.9.07-11.18,0-22.37,0-33.56,0C249.48,357.22,247.71,356.88,244.92,356.58Zm51.79-21.42q1.56-1.74,3.13-3.46l-.52-1h-33.4l-.59.88c1.49,1.76,2.85,3.64,4.47,5.26,3.56,3.54,6.94,3.52,10.42-.19,2.23-2.38,3.87-2.42,6.34-.13,4.41,4.1,7,3.57,10.16-1.39ZM267,337.72l0,0c-.91-1.18-1.77-2.41-2.78-3.51-.2-.22-1,.07-1.46.13h0c-5.37,5.77-9.17,12.53-13.25,19.83h67.46l-14.39-21.38c-1.59,1.78-2.52,3-3.65,4.05-1.66,1.49-3.28,3.56-5.25,4a14.29,14.29,0,0,0-8,5.13c-1.83,2.26-3.34,2-5.13-.16-1.21-1.44-2.89-3.54-4.34-3.53C272.1,342.33,269.62,340,267,337.72Zm12.36,2.8c1.64,2,2.62,4.77,5.62,3,1.51-.9,3-2.78,1.19-4.49C283.75,336.73,281.61,338.28,279.33,340.52Z"/><path d="M332.92,349.22c-1.32,0-2.4-1.18-3.37-2.45-2.33-3.07-4.56-6.28-6.72-9.39-1.12-1.6-2.24-3.21-3.38-4.81-1.8-2.53-1.44-5.05,1.07-7.48,3.25-3.14,7.35-4.8,13.32-5.38H334l.15,0,1.52.39a22.37,22.37,0,0,1,4.22,1.31c2.55,1.16,6,3.07,6.8,6.23.56,2.27-.3,4.82-2.61,7.78-1.68,2.16-3.24,4.49-4.74,6.74-1,1.44-2,2.94-3,4.38C335.22,348.16,334.2,349.22,332.92,349.22Zm-.65-7.64a6.93,6.93,0,0,0,.5.73l.05.06,0-.05a4.57,4.57,0,0,0,.62-.74,6.4,6.4,0,0,0-.52-.53h0l0,0A5.3,5.3,0,0,0,332.27,341.58Zm-4.49-6.1a3.14,3.14,0,0,0,1.92.82l.95,0c1.32,0,2.67-.09,4-.17l1.77-.1.64-.36c.18-.1.46-.25.65-.37a3.14,3.14,0,0,0-1-1.47,6.78,6.78,0,0,0-3.87-1,7.18,7.18,0,0,0-4.34,1.17A3.12,3.12,0,0,0,327.78,335.48Zm5-11.22c-.74.31-1.47.6-2.2.89-2.26.9-4.39,1.75-6.42,2.79a2.86,2.86,0,0,0-.22,1.76,3.27,3.27,0,0,0,1.35.34.65.65,0,0,0,.23,0,14.07,14.07,0,0,1,7.36-2.24,14.39,14.39,0,0,1,7.07,2,.5.5,0,0,0,.24,0,6.33,6.33,0,0,0,1.15-.2l.19-.05c0-.11-.05-.22-.07-.32a4.3,4.3,0,0,0-.44-1.45,58.22,58.22,0,0,0-6-2.62Z"/><path d="M333.91,320.53a38.39,38.39,0,0,1,5.63,1.66c5.88,2.68,9,6.14,3.88,12.75-2.78,3.56-5.12,7.46-7.74,11.15-2.12,3-3.24,3.12-5.47.18-3.51-4.62-6.72-9.45-10.09-14.18-1.76-2.47-.92-4.57,1-6.41C324.51,322.37,328.77,321,333.91,320.53Zm2.77,16.33h0c.68-.44,2-1,1.92-1.3a4,4,0,0,0-1.38-2.36c-2.1-1.59-7.28-1.47-9.25.25-.61.54-1.23,2-.94,2.42a3.87,3.87,0,0,0,2.65,1.27C332,337.21,334.35,337,336.68,336.86Zm-3.89-13.49c-3.19,1.32-6.18,2.4-9,3.84-.58.3-.94,2.12-.59,2.85a2.87,2.87,0,0,0,2.73.67,12.6,12.6,0,0,1,13.63-.25c.72.4,2-.16,3-.28-.35-1.08-.39-2.75-1.12-3.14C338.77,325.64,335.89,324.65,332.79,323.37Zm0,20.33c.73-.93,1.53-1.5,1.57-2.12s-.83-1.09-1.3-1.64c-.56.5-1.5.95-1.59,1.52S332.13,342.71,332.75,343.7Z"/><path d="M232.09,349.16c-1.43,0-2.58-1.27-3.51-2.53-2.67-3.58-6.14-8.32-9.31-13.25-1.37-2.14-1.85-3.9-1.49-5.53s1.58-3.09,3.82-4.52a19.82,19.82,0,0,1,10.62-3.41,16.92,16.92,0,0,1,10.49,3.81c4,3.11,4.42,4.85,2,9.27-.41.75-.79,1.53-1.17,2.3-.17.36-.35.72-.53,1.07l-.43-.21.37.32-2.17,3c-1.63,2.29-3.32,4.65-5,6.94C234.72,347.86,233.55,349.16,232.09,349.16Zm-.23-7.53a2.13,2.13,0,0,0,.26.44l.34-.26a2.8,2.8,0,0,0-.44-.31Zm-4.75-5.92a2.82,2.82,0,0,0,1.35.64h0a17.9,17.9,0,0,0,3.28-.37l.94-.15.13,0,.13,0c.44.08.78.17,1.06.23a2.91,2.91,0,0,0,.53.11c.72-.22,1.44-.51,2.21-.81h0s-.05-.09-.08-.14a4.12,4.12,0,0,0-1.09-1.51,5.72,5.72,0,0,0-3.22-1,10.66,10.66,0,0,0-4.49,1.2A2.82,2.82,0,0,0,227.11,335.71Zm-3.41-6a7.85,7.85,0,0,0,1.17.14,1.2,1.2,0,0,0,.53-.09,13.59,13.59,0,0,1,6.73-1.85,15.46,15.46,0,0,1,6.59,1.6.75.75,0,0,0,.33.06h0a5.67,5.67,0,0,0,1.28-.24l.2-.05c0-.09-.05-.19-.08-.28-.14-.48-.39-1.38-.61-1.49a50.24,50.24,0,0,0-5.81-2.33l-2.22-.8-2.16.77a40,40,0,0,0-5.72,2.34,5.23,5.23,0,0,0-.42,1.7c0,.16,0,.32-.07.48Z"/><path d="M242.3,336c-2.39,3.32-4.74,6.67-7.18,9.95-2.32,3.1-3.63,3.2-5.88.19-3.21-4.31-6.37-8.68-9.27-13.2-2.53-3.94-1.8-6.45,2.07-8.91,7.07-4.5,14.05-4.37,20.17.35,3.74,2.89,4,4.15,1.79,8.23-.6,1.11-1.14,2.26-1.71,3.4Zm-10.49-12.52a68.29,68.29,0,0,0-8.28,3.26c-.78.43-.74,2.38-1.08,3.63,1.13.05,2.51.55,3.35.09,4.21-2.34,8.29-2.22,12.57-.22.84.39,2.15-.21,3.24-.35-.45-1.08-.61-2.73-1.4-3.13A86.56,86.56,0,0,0,231.81,323.48Zm1,13.16c1.12.21,1.58.44,2,.33,1.09-.33,2.14-.79,3.2-1.2-.62-.94-1-2.2-1.91-2.76-2.79-1.83-5.76-1.11-8.51.17a3.43,3.43,0,0,0-1.24,2.7c0,.46,1.4,1.29,2.17,1.29A26.27,26.27,0,0,0,232.79,336.64Zm1.07,5.18c-.86-.58-1.32-1.11-1.84-1.17-.34,0-1.14.68-1.09.87.17.56.58,1.3,1,1.42S233,342.39,233.86,341.82Z"/><polygon points="141.38 344.77 141.39 344.77 142.55 345.94 141.38 344.77"/><path d="M142,345.36h0Z"/><polygon points="241.72 335.41 241.74 335.4 242.87 336.59 241.72 335.41"/><path d="M242.29,336h0Z"/><polygon points="347.15 351.58 347.15 351.57 348.32 352.74 347.15 351.58"/><path d="M347.74,352.15h0Z"/><polygon points="168.59 330.32 168.6 330.31 169.76 331.48 168.59 330.32"/><path d="M169.17,330.9h0Z"/><path d="M263.6,300.45c-3.8,0-5.91-3.14-8-6.18l-.37-.55c-2.32-3.43-4.77-6.87-7.15-10.19L245,279.15l-.23-.34c-.15-.22-.3-.44-.47-.65-1.42-1.73-5-2.8-9.22-2.8-5.35,0-10.1,1.63-11.53,4-1.32,2.15-2.63,4.37-3.89,6.51-2.06,3.5-4.2,7.13-6.48,10.59-1.16,1.75-3.55,3.59-5.54,3.64-5.12.13-10.66.19-17.44.19q-6.09,0-12.18,0l-5.26,0a5.07,5.07,0,0,1-1.93-.52c-.31-.13-.66-.28-1.07-.41l-.9-.31.43-.85c.24-.45.44-.87.63-1.27a20.51,20.51,0,0,1,1.25-2.33q2.46-3.72,5-7.44c2.55-3.82,5.19-7.76,7.72-11.68a8.09,8.09,0,0,1,7.24-4h.21l2.29,0h2.49l2.43,0H266.2c34.83,0,72.27,0,110-.13,6.69,0,10.58,2.13,13.54,7.36a127.91,127.91,0,0,0,7.22,11c1.2,1.7,2.44,3.45,3.63,5.2a21.2,21.2,0,0,1,1.21,2.15c.24.47.52,1,.86,1.63l.59,1.09-1.24.12-2,.23a26.53,26.53,0,0,1-3,.24h-16.8c-3.3,0-7.65,0-12.1.05h-.19c-4.07,0-6.68-1.51-8.46-4.9-1.49-2.86-3.16-5.69-4.78-8.43-1.36-2.3-2.76-4.67-4.05-7.05-1.63-3-3.59-4.27-6.57-4.27h-.45c-2.43.1-4.93.15-7.66.15s-5.4-.05-8.55-.14H327a7.51,7.51,0,0,0-6.82,3.53c-2.46,3.56-5.07,7.11-7.59,10.53-1.63,2.23-3.27,4.45-4.87,6.69-1.46,2-3,3.85-5.89,3.85a9.82,9.82,0,0,1-2.62-.41,19.21,19.21,0,0,0-5.33-.62c-1.2,0-2.44.06-3.64.12s-2.48.11-3.71.11h-.2l-6.6,0-10.82,0-.59,0-.46,0a.62.62,0,0,0-.29,0A9.28,9.28,0,0,1,263.6,300.45Zm-1-3.59c.1-.16.19-.33.27-.48a12.46,12.46,0,0,1,1.41-2.18l1.93-2.21c3-3.49,6.15-7.09,9.39-10.49C279.07,277.91,281,276,283,276c2.21,0,4,2.24,7.35,6.3,2.57,3.16,5.36,6.23,8.06,9.2L301,294.4c.87,1,1.42,1.17,1.72,1.17a1.25,1.25,0,0,0,.92-.63c3.55-4.69,7-9.4,10.67-14.39l3.33-4.53h-70Zm92.66-16.75c3,5.12,5.92,9.95,9,14.63.41.63,2.08,1.15,3.82,1.19,2.63.06,5.51.09,9,.09l5.83,0h13.18l.1-.26q-1.54-2.28-3.08-4.57c-3.15-4.68-6.41-9.53-9.82-14.13-.51-.7-2.3-1.23-4.25-1.27-3.13-.07-6.53-.11-10.69-.11l-7.3,0-4.44,0c-.95,0-1.9.06-3.11.13l-.82.05ZM179.52,295.87q7.93,0,15.86,0,5.72,0,11.43,0a3.7,3.7,0,0,0,2.58-1.19c3.09-4.8,6.06-9.69,9.21-14.86l2.4-3.94-.72-.05c-1.12-.06-2-.11-2.88-.12H217c-1.92,0-3.85,0-5.77.08s-3.87.08-5.8.08c-2.94,0-5.35-.09-7.6-.29-.81-.07-1.58-.11-2.31-.11-5.79,0-9.36,2.24-11.94,7.48a74.74,74.74,0,0,1-5.89,9.42c-.76,1.1-1.55,2.23-2.31,3.37l.16.11Zm116.15-1-2.95-3.36q-4.44-5.06-8.89-10.1a2.48,2.48,0,0,0-1.57-1,1.64,1.64,0,0,0-1.15.69c-3,3.44-6,6.9-9.1,10.56l-2.75,3.2Z"/><path d="M401.94,299c-2.21.22-3.57.46-4.93.47-9.64,0-19.27-.06-28.91.05-3.61,0-6.14-1.09-7.91-4.46-2.75-5.27-6-10.27-8.84-15.5-1.73-3.18-4-4.84-7.77-4.69-5.38.22-10.78.17-16.16,0a8.44,8.44,0,0,0-7.91,3.88c-4,5.82-8.34,11.46-12.46,17.21-1.92,2.67-3.56,4.28-7.61,3.12s-8.72-.39-13.1-.41c-5.81,0-11.62,0-17.43,0a4.3,4.3,0,0,0-1.69.06c-6,2.87-8.53-1.39-11.27-5.44-3.33-4.92-6.84-9.72-10.27-14.58-.25-.34-.48-.71-.74-1-3.87-4.69-18.93-3.88-22.09,1.25-3.49,5.67-6.7,11.52-10.36,17.07-1,1.54-3.19,3.24-4.87,3.28-11.61.28-23.23.16-34.85.12a11.59,11.59,0,0,1-2.74-.89,37.5,37.5,0,0,1,1.83-3.52c4.21-6.39,8.53-12.71,12.68-19.13a7.28,7.28,0,0,1,6.75-3.6c2.41,0,4.82,0,7.22,0,59.24,0,118.47,0,177.71-.12,5.9,0,9.83,1.67,12.81,6.93,3.19,5.65,7.24,10.82,10.88,16.22C400.53,296.16,401,297.18,401.94,299Zm-82.7-23.77H246c5.61,7.77,10.74,14.9,16.72,23.18a29.76,29.76,0,0,1,2.22-3.63c3.72-4.26,7.39-8.58,11.3-12.67,6.82-7.14,7.1-7,13.45.79,3.39,4.17,7.08,8.09,10.67,12.09,1.12,1.25,2.57,2.27,3.91.49C309.19,288.93,314,282.33,319.24,275.19Zm-96.81-.06c-2.3-.12-3.66-.24-5-.24-6.51,0-13.06.44-19.52-.13-7-.62-11.83,1.25-15.07,7.83-2.33,4.72-5.69,8.93-8.6,13.38.72.44.95.7,1.18.7,10.48.05,21,.12,31.43,0a4.43,4.43,0,0,0,3.26-1.56C214.18,288.75,218.07,282.24,222.43,275.13Zm174.31,21.68.45-1.19c-4.35-6.39-8.56-12.88-13.16-19.08-.84-1.15-3.21-1.57-4.9-1.61-7.48-.17-15-.08-22.44-.06-1.49,0-3,.13-5.34.25,4.34,7.2,8.12,13.76,12.26,20.07.69,1.07,2.94,1.53,4.49,1.56,6.77.16,13.55.06,20.33.06Zm-100.45-1.12.41-.91c-4.08-4.64-8.16-9.3-12.26-13.93-1.19-1.35-2.57-1.88-3.95-.29-4.21,4.84-8.37,9.72-13,15.13Z"/><path d="M322.8,467.14c-5.09,0-8.21-1.69-10.44-5.64a75.47,75.47,0,0,0-6.26-8.94c-2.09-2.69-2.2-5.3-.35-8,.76-1.09,1.51-2.2,2.25-3.31a96.33,96.33,0,0,1,6.17-8.48c1.21-1.44,3.26-2.16,5.07-2.79l1-.36a4.39,4.39,0,0,1,1.53-.24c.37,0,.75,0,1.13.06s.67.05,1,.05H370c32.19,0,66.5,0,100.94-.08,5,0,8.26,1,10.33,6.13a29.33,29.33,0,0,0,4.87,7.26c.86,1.05,1.75,2.13,2.56,3.24l-.21.18.23-.14,2.46,3.91q3.29,5.21,6.55,10.44c.58.94,1.1,1.93,1.7,3.08.32.6.66,1.25,1.06,2l.61,1.14-1.29.08c-.78,0-1.47.09-2.1.14-1.22.09-2.18.16-3.18.16H449.08c-41.37,0-84.16,0-126.23.1Zm2.72-33.44c-5.71,0-9.45,1-11.66,6.29a15.22,15.22,0,0,1-2.72,3.89l-.92,1.08c-1.83,2.25-1.81,4.31.06,6.66l1,1.27a29.48,29.48,0,0,1,4,5.77c1.92,4,4.95,4.86,9.21,4.86,35.94-.07,71.47-.08,104.52-.08h65.76l-16.25-24.5c-3.14,2.25-3.16,3,0,8.64l.61,1.09-6.48.66-.77-6.63-.07-.06c-3,3.41-6.36,5.14-9.92,5.14a13,13,0,0,1-4.87-1c-1.23,3-3.45,3.68-6.77,3.69h-3.34a28.48,28.48,0,0,1-9.73-1.31h-.1a2.44,2.44,0,0,0-1.17.43,6.44,6.44,0,0,1-3.49,1.3c-1.44,0-2.66-.78-3.71-2.4a5.48,5.48,0,0,0-1-.11,7.74,7.74,0,0,1-1.19-.12l-1.71-.31a23,23,0,0,1-4.44-1.08,36.46,36.46,0,0,1-4-2c-1.05-.56-2.13-1.14-3.22-1.61a7.43,7.43,0,0,0-2.16-.38c2.31,3.31,2.37,4,.63,6.5l-.65.93-.68-.91-.34-.43a10.31,10.31,0,0,1-.72-1c-1-1.68-1.8-2.9-2.26-2.9s-1.65.93-2.76,1.82a8.06,8.06,0,0,1-5.08,2,9.17,9.17,0,0,1-5.26-1.88,14.45,14.45,0,0,0-8.21-2.93,13.17,13.17,0,0,0-8.35,3.35,7.15,7.15,0,0,1-3.93,1.48,2.58,2.58,0,0,1-1.16-.24,6.25,6.25,0,0,0-2.84-.75c-1.56,0-3.07.72-5.05,2.41a3.49,3.49,0,0,1-1.64.64,6,6,0,0,0-.68.16l-.62.18-2.5-4.34c-3.61,2.06-5.5,3.08-7.62,3.08s-4-.89-7.64-2.6a4.47,4.47,0,0,0-1.82-.52c-1,0-1.84.69-2.86,4l-1.6-.11C336.85,448,336,448,335.58,448a6.3,6.3,0,0,0-1.5.3,7.09,7.09,0,0,1-2,.38,2.87,2.87,0,0,1-2.1-.85l-.74-.73,9.46-6,.4.17,2.18.93c1.62.67,3.29,1.37,4.87,2.19a9.4,9.4,0,0,0,4.37,1.2,7.71,7.71,0,0,0,4.41-1.45h0l1-.68c2-1.4,4.16-2.86,6.6-2.86a6.69,6.69,0,0,1,4.07,1.48,10.92,10.92,0,0,0,6.53,2.54c2.3,0,4.59-1,7-3.05a8.34,8.34,0,0,1,5.43-2.26,8.43,8.43,0,0,1,4.49,1.43,43.38,43.38,0,0,0,5.26,2.69l1.47.67a5.78,5.78,0,0,0,2.37.64,2.86,2.86,0,0,0,2.35-1.27l.1-.13.15-.08c.5-.28,1-.55,1.53-.81a21.88,21.88,0,0,0,3.15-1.84,8,8,0,0,1,4.87-1.84A8.19,8.19,0,0,1,416,440.4a28.39,28.39,0,0,0,6.61,3.35,7.62,7.62,0,0,0,2.29.37,2.85,2.85,0,0,0,1.63-.37,8.74,8.74,0,0,1,5.44-2.14c2,0,4.1.86,6.66,2.8a8.76,8.76,0,0,0,5.24,2.14c1.86,0,3.83-.88,6.39-2.84a9.15,9.15,0,0,1,5-1.91,3.72,3.72,0,0,1,1,.13,15.4,15.4,0,0,0,4.31.63c3.52,0,7-1.27,11-4a15.13,15.13,0,0,0,2.88-2.93l.48-.58-.74-.25a12.39,12.39,0,0,0-3.9-.9q-27.92-.06-55.83,0c-29.07,0-59.13,0-88.69-.14ZM453.88,446a.65.65,0,0,0-.6.31L454,446Zm-21.44-.23c.26.16.52.33.77.47l-.73-.53Zm-68.72.38.14-.16-.88-.72-.06.09Z"/><path d="M488,446.53c3,4.78,6,9.55,9,14.35.85,1.39,1.56,2.87,2.73,5-2.27.14-3.75.31-5.23.31q-85.84,0-171.68.11c-4.45,0-7.54-1.27-9.77-5.23a75.88,75.88,0,0,0-6.33-9c-1.82-2.36-2-4.6-.32-7,2.74-3.95,5.27-8.08,8.36-11.74,1.29-1.52,3.72-2.16,5.75-2.91a10.5,10.5,0,0,1,3.37-.07q73.51,0,147-.08c4.53,0,7.59.75,9.55,5.61,1.59,3.93,4.95,7.14,7.53,10.67ZM402.15,444a41.32,41.32,0,0,0,4.77-2.71c2.88-2.15,5.55-2.25,8.57-.2a28.71,28.71,0,0,0,6.81,3.45c1.42.48,3.68.66,4.69-.13,4.08-3.21,7.38-2.14,11.1.66,4.55,3.45,7.93,2.9,12.62-.7,1.41-1.08,3.77-2.07,5.27-1.64,6.1,1.76,11.21-.19,16-3.48,1.71-1.17,2.92-3.05,4.36-4.61-2-.54-4.06-1.55-6.1-1.56-48.17-.09-96.35,0-144.52-.19-5.85,0-10.19,1-12.63,6.79-.74,1.77-2.26,3.24-3.52,4.77-2.12,2.61-2,5.09.06,7.69,1.76,2.21,3.75,4.37,4.94,6.89,2.12,4.44,5.47,5.34,10,5.33q83.1-.18,166.2-.08h5.56l-17.58-26.49c-4.31,3-4.39,4-1,10.2l-4.43.45c-.26-2.32-.49-4.23-.71-6.15l-.95-.8c-4.25,5.15-9.22,6.94-15.16,4.2-3.6-1-3.6-1-5.1,2.28l5.07-2.25c-1,3.15-2.71,3.92-6.27,3.93-4.38,0-8.6.25-12.79-1.23a2.69,2.69,0,0,0-2,.5c-2.35,1.55-4.32,1.84-6.09-.93-.34-.52-1.78-.33-2.69-.51a37.56,37.56,0,0,1-6-1.36c-2.48-1-4.76-2.49-7.22-3.56-1.05-.45-2.33-.37-4.2-.62,3.32,4.65,3.32,4.65,1.67,7-.36-.48-.73-.89-1-1.35-2.53-4.08-2.62-4.2-6.24-1.29-3.21,2.57-6.29,2.17-9.36.05-6-4.13-11.74-4.23-17.54.46-1.07.87-3.21,1.64-4.2,1.14-3.59-1.8-6.17-.46-8.79,1.77a6.16,6.16,0,0,1-2,.64c-.93-1.62-1.76-3.05-2.58-4.49-7.52,4.27-7.59,4.42-15.22.85-3.18-1.49-4.54-.18-5.82,4-1.15-7-5.18-1.16-7.58-3.53l8.21-5.19c2.36,1,4.75,1.92,7,3.09,3.31,1.72,6.47,1.83,9.62-.3h0c3.3-2.18,6.65-5.15,10.73-2.09,5.16,3.85,9.8,3.53,14.56-.55,2.72-2.33,5.67-2.82,8.94-.75a61.09,61.09,0,0,0,6.82,3.41c2.07,1,4.09,1.21,5.73-.88Zm-39.3.05-1,1.35,1.95,1.91,1.27-1.46Zm69.43.45-1,1.46a18.59,18.59,0,0,0,2.3,1.37c.11.05.6-.78.91-1.2Z"/><polygon points="487.45 447.13 488.59 445.94 487.46 447.14 487.45 447.13"/><path d="M488,446.54h0Z"/><path d="M243.81,467.09c-2.58,0-5.4-.06-8.87-.06h-161c-1.29,0-2.55-.07-4.16-.16-.85-.05-1.79-.11-2.87-.16l-1.42-.06.77-1.2,2-3.17c1.21-1.92,2.25-3.58,3.34-5.2q2.54-3.78,5.12-7.54c3.49-5.12,7.09-10.41,10.45-15.72,1.93-3,4.37-4.34,8.17-4.34h.29c2.79,0,5.81.06,9.49.06h6.78l6.65,0h51.76c21.09,0,46,0,71-.1h.12c5.78,0,9.09,1.76,11.42,6.09a57.09,57.09,0,0,0,4.58,6.81c.63.84,1.26,1.68,1.87,2.53,1.59,2.23,1.64,4.33.14,6.42-3.2,4.47-5.86,8.21-8.48,12.16a7.66,7.66,0,0,1-6.91,3.65ZM239,463.44l1.24,0c.4,0,.8,0,1.19,0a6,6,0,0,0,1.94-.25,10.12,10.12,0,0,0,4.51-2.65c1.61-2,3.08-4.16,4.51-6.26.91-1.35,1.85-2.75,2.83-4.09a3.16,3.16,0,0,0,0-4.39,89.31,89.31,0,0,1-5.6-8.12c-1.63-2.78-3.82-4-7.31-4q-43.09.06-86.16.05l-53.71,0a15.27,15.27,0,0,0-2.75.36l-.39.08c2.64,4.19,9.7,7.92,15.34,7.92a9.92,9.92,0,0,0,1.57-.11,16.9,16.9,0,0,1,2.38-.19,9.93,9.93,0,0,1,7.88,3.62,3.92,3.92,0,0,0,3,1.59,5.56,5.56,0,0,0,2.8-.94c1-.62,2.06-1.2,3.08-1.76s1.9-1.06,2.83-1.62a7,7,0,0,1,3.6-1.16,5.74,5.74,0,0,1,3.92,1.71,5.45,5.45,0,0,0,3.79,1.57,8.28,8.28,0,0,0,3.93-1.17c1.62-.9,3.24-1.85,4.75-2.76a7.76,7.76,0,0,1,4-1.2,6.27,6.27,0,0,1,4.48,1.95,8.1,8.1,0,0,0,5.73,2.72,10.1,10.1,0,0,0,5.84-2.26,14.22,14.22,0,0,1,8.48-3.16c3,0,5.84,1.16,8.78,3.56a7.17,7.17,0,0,0,4.62,1.91,7.84,7.84,0,0,0,3.83-1.14,8.27,8.27,0,0,1,3.8-.85,5.81,5.81,0,0,1,3.41.92,7.87,7.87,0,0,0,5,1.92,16,16,0,0,0,6.38-1.86,10,10,0,0,1,4.21-1c3.28,0,6.47,1.77,9.22,5.1l1.46,1.77-2.25-.43c-.62-.12-1.17-.19-1.67-.26a7.81,7.81,0,0,1-2.64-.66,10.43,10.43,0,0,0-4.92-1.38,9.35,9.35,0,0,0-5.08,1.62,8.86,8.86,0,0,1-4.78,1.47,8.72,8.72,0,0,1-4.57-1.35c-.82-.51-1.58-1.06-2.39-1.65l-.52-.38a7,7,0,0,0-.59.82c-1.48,2.59-2.58,4.28-4.42,4.28-1.16,0-2.37-.66-4.5-2s-4.52-2.68-6.78-3.9l-3.06-1.67h0a6.75,6.75,0,0,0-3.1-.78,8,8,0,0,0-4.48,1.55c-1,.69-2.14,1.31-3.2,1.91l-1.6.91a9.18,9.18,0,0,1-4.63,1.45,7.14,7.14,0,0,1-4.2-1.45,2.87,2.87,0,0,0-1.62-.62,2.72,2.72,0,0,0-2.06,1.28,9.24,9.24,0,0,1-1.45,1.42l-.62.53-.47.43-2.19-1.41,2.4-4.69h0a24.86,24.86,0,0,0-2.82.8c-1,.39-2,.87-3.06,1.34a21.16,21.16,0,0,1-6.6,2.25c-.22,0-.45,0-.67,0a13.92,13.92,0,0,1-1.73-.14,12.75,12.75,0,0,0-1.45-.11,2.56,2.56,0,0,0-2.58,1.72c-.23.47-.8.7-1.69.7a2.85,2.85,0,0,1-1.44-.33,7.59,7.59,0,0,0-4.17-1.35,8.6,8.6,0,0,0-4.84,1.7,3.08,3.08,0,0,1-1.6.46,1.63,1.63,0,0,1-.94-.25c-1.66-1.11-3.57-1.26-5.59-1.43a14.5,14.5,0,0,1-6.67-1.67,18.83,18.83,0,0,0-4.8-1.67c-2.67-.68-5.68-1.44-8-3.73l-.08.06.52,6.74H94.09l1.14-1.35c.4-.47.77-.88,1.11-1.25a9,9,0,0,0,1.43-1.82l.3-.56c.38-.72,1.29-2.42,1.07-2.86A36.61,36.61,0,0,0,94,434.33h0a3.83,3.83,0,0,0-.56,0,2.88,2.88,0,0,0-1.35.29,11.16,11.16,0,0,0-2.91,3.16c-3.86,5.83-7.72,11.81-11.45,17.59L76,458c-.78,1.21-1.54,2.44-2.43,3.88l-.78,1.26,1.08.07c1.42.1,2.53.17,3.66.17q59.16,0,118.31,0H239ZM121.34,446.63a.87.87,0,0,0-.18-.27,2.26,2.26,0,0,0-.72-.23Z"/><path d="M66.92,465.9c2.19-3.43,3.71-5.93,5.33-8.35,5.2-7.76,10.6-15.39,15.59-23.28,2-3.1,4.35-4,7.75-4,7.64.12,15.29,0,22.93,0,40.92,0,81.85,0,122.77-.1,4.88,0,8.38,1.16,10.81,5.66,1.79,3.34,4.28,6.32,6.5,9.43,1.3,1.82,1.51,3.55.14,5.46-2.88,4-5.76,8.06-8.5,12.18a6.88,6.88,0,0,1-6.41,3.29c-6.8-.12-13.59,0-20.39,0q-74.76,0-149.53,0C72,466.21,70,466.05,66.92,465.9ZM142,444.84h-.85l-1.44,2.09,1.43.66C141.39,446.67,141.68,445.75,142,444.84Zm47.61-1.71h0c-3-1.49-5.72-1-8.41.82-1.53,1-3.17,1.86-4.75,2.8-2.64,1.55-5.23,2-7.94,0-1.78-1.27-3.43-1-4.81.83a15.8,15.8,0,0,1-2,1.84l-1-.66c.83-1.63,1.66-3.27,2.88-5.65-1.91.52-3.34.78-4.68,1.28-3.17,1.19-6.22,3.21-9.45,3.54-2.6.26-5.38-1.52-7.09,2-.14.28-1.47.34-1.94,0-3.43-2.21-6.67-1.84-9.92.35a1.88,1.88,0,0,1-1.62.22c-3.66-2.45-8.12-.68-12.31-3.13-3.81-2.23-9.5-1.66-13.2-5.82l-1,.83.48,6.28h-7a21.52,21.52,0,0,0,2.64-3.22c.69-1.32,1.85-3.21,1.38-4.16a37.4,37.4,0,0,0-5.25-7.53c-.43-.5-2.28-.4-3,.1a12.08,12.08,0,0,0-3.14,3.38C84,444,79.65,450.81,75.27,457.59c-1.19,1.84-2.32,3.71-4,6.33,2.64.14,4.41.33,6.17.33q80.76,0,161.53,0c1.56,0,3.24.26,4.64-.23a11,11,0,0,0,4.88-2.9c2.69-3.28,4.87-7,7.38-10.39a4,4,0,0,0,0-5.37,83.22,83.22,0,0,1-5.55-8c-1.86-3.17-4.39-4.38-8-4.38q-69.93.1-139.86.08a31.14,31.14,0,0,0-4.4.64c2.45,5.37,12,10.2,18.3,9.25,3.91-.59,7,.2,9.52,3.15,2,2.33,4.31,2.34,6.83.81,1.94-1.17,4-2.2,5.9-3.37,2.31-1.39,4.36-1.53,6.55.45,2.64,2.41,5.68,2.16,8.67.51,1.61-.89,3.19-1.83,4.77-2.77,2.64-1.57,5.33-1.5,7.45.62,4.15,4.15,8.5,3.58,12.64.55,5.67-4.15,10.92-4,16.26.37,2.91,2.36,5.79,2.85,9.37.85,1.66-.92,5-1.06,6.29,0,4.3,3.42,8.17,2,12.26.16s8.61-.74,12.46,3.92c-1.84-.36-3.11-.32-4.08-.84-3.71-2-7.16-2.05-10.83.27a7.61,7.61,0,0,1-8.47.11c-1.17-.71-2.26-1.56-3.52-2.45-.5.67-.87,1.08-1.14,1.54-2.69,4.72-3.39,4.79-7.75,2C196.33,446.69,192.9,445,189.58,443.13Zm-70.25,2-.49,1.07,3.07,1.7.6-.71c-.3-.53-.48-1.27-.94-1.53A7.65,7.65,0,0,0,119.33,445.12Zm84.25,1.82-.64.42.64.77c.17-.21.44-.4.45-.62S203.75,447.13,203.58,446.94Z"/><path d="M246.35,413.43h-.76c-1.94-.08-4-.12-6.58-.12-1.59,0-3.17,0-4.76,0l-4.77,0H206.81q-51.75,0-103.49,0c-1.44,0-2.88-.13-4.28-.26l-1.94-.16-.51,0-.84-2,.23-.39,3.46-5.26c2.58-4,5.26-8,8-12,4-6,8.18-11.81,11.67-16.73,1.1-1.55,2.09-2.58,3.32-2.58s2.23,1,3.38,2.58c1.86,2.53,3.71,5.07,5.69,7.79l2.31,3.16c.71-.82,1.42-1.61,2.1-2.38,2-2.19,3.81-4.26,5.47-6.44a10.3,10.3,0,0,1,8.86-4.44c11.16.05,22.44.05,33.34.06,14.72,0,29.93,0,44.9.13a15.91,15.91,0,0,1,8.11,2.86c1.73,1.13,2.74,1.77,3.51,1.77s1.41-.5,3-2.06c2.39-2.3,4-3.55,5.64-3.55,1.91,0,3.38,1.65,5.58,4.9,2.51,3.69,5.25,7.51,8.39,11.67a5.72,5.72,0,0,1,.07,7.53,119.47,119.47,0,0,0-7,10.54C253.71,411.72,250.71,413.43,246.35,413.43Zm-9.46-4.33c14.13,0,14.13,0,21.85-12.6l.75.34-.7-.43c.07-.12.15-.24.23-.35,1.29-1.67,1.2-3.23-.28-5.21q-1.77-2.39-3.51-4.79c-1.56-2.14-3.17-4.35-4.79-6.48-.61-.8-1.36-1.79-1.94-1.79-.26,0-.84.2-1.8,1.56-1.73,2.41-3.57,3.54-5.79,3.54-1.67,0-3.51-.64-6-2.07a17.75,17.75,0,0,0-8.37-2.2c-8.28-.07-16.59-.08-23.63-.08H188.08c-10.8,0-22.36,0-33.76-.18H154c-5.64,0-9.54,1.95-13,6.53-4.75,6.22-9.87,12.3-14.83,18.18L124,405.59a5.13,5.13,0,0,1-3.49,1.43h0a1.69,1.69,0,0,1-1.24-.63,3.32,3.32,0,0,1-1-2.05c.29-5.31.74-10.59,1.21-16a1.76,1.76,0,0,1,.86-1.18l.34-.28.3-.28.41.07a8.2,8.2,0,0,1,3.72,2.15c1.22,1,2.37,2,3.85,2a4.39,4.39,0,0,0,1.72-.39l-1.19-1.71c-2.14-3.08-4.18-6-6.29-8.86-.2,0-.47.09-.7.14l-.52.12-1.66,2.12c-1.51,1.94-3.08,3.94-4.48,6a8.19,8.19,0,0,0-.94,2.5l-.12.47,3.88.73-.22.85c-.19.76-.79,3.07-3,3.07a7.2,7.2,0,0,1-2.6-.72,13.08,13.08,0,0,0-1.42-.53l-9.77,14.3.09.17Zm-114.2-7.85c.87-1.11,1.74-2.25,2.49-3.42,1.56-2.43,1.44-3,1.4-3.12a5.17,5.17,0,0,0-2.23-1.53l-.71-.35Z"/><path d="M96.67,410.93c3.8-5.75,7.54-11.54,11.41-17.24s7.73-11.18,11.67-16.72c2.13-3,3.15-3,5.35,0,2.75,3.72,5.46,7.46,8.61,11.78,3-3.52,5.85-6.44,8.29-9.64a9.46,9.46,0,0,1,8.27-4.12c26,.12,52.11,0,78.16.2a15.18,15.18,0,0,1,7.67,2.72c3.8,2.49,4.34,2.72,7.57-.39,4.89-4.7,6.09-4.5,10,1.22,2.7,4,5.52,7.87,8.41,11.71,1.7,2.26,1.71,4.25.06,6.55a119.51,119.51,0,0,0-7,10.61c-2.17,3.83-5.21,5.15-9.46,5-5.37-.22-10.76-.06-16.14-.06q-63.07,0-126.16,0c-2.06,0-4.11-.28-6.17-.42Zm24.9-6.89c1.45-1.92,3-3.75,4.3-5.77.77-1.19,1.89-3,1.45-3.92-.58-1.19-2.5-1.72-4.36-2.84-.53,4.73-1,8.62-1.41,12.51Zm0-24.68c-2.14,2.79-4.39,5.51-6.37,8.41-.79,1.15-1,2.71-1.43,4.08l3.92.73c-1.17,4.55-4.07,1.46-6.59,1.12l-10.37,15.16.57,1h5.34l129.6,0c15.24,0,15.24,0,23.2-13,.08-.12.15-.24.24-.35,1.64-2.15,1.25-4.18-.28-6.22-2.79-3.74-5.48-7.56-8.31-11.27-1.5-2-2.75-3.45-5.06-.21-3,4.18-6.1,3.89-10.7,1.24a18.61,18.61,0,0,0-8.77-2.32c-24.08-.18-48.16.09-72.23-.24-6.23-.09-10.39,2.08-14,6.85-5.4,7.07-11.19,13.85-16.92,20.66a4.39,4.39,0,0,1-2.91,1.14c-.43,0-1.36-1.2-1.33-1.81.3-5.33.75-10.65,1.21-16,0-.3.57-.57,1-.93,3.48.6,5.32,6.36,10.65,3.25-2.85-4.08-5.47-7.9-8.23-11.61-.21-.29-1.41.14-2.15.24Z"/><path d="M319.86,413.45c-5.44,0-8.92-2-11.27-6.41a67.74,67.74,0,0,0-5.36-8.08L302,397.3c-1.18-1.63-2.49-4.15-.23-7.14,3.19-4.25,6.52-8.77,10.8-14.68a3.39,3.39,0,0,1,2.7-1.69,3.66,3.66,0,0,1,2.39,1.07c.37.32.72.65,1.08,1a14.31,14.31,0,0,0,2.7,2.15,5.74,5.74,0,0,0,2.18.44c.28,0,.57,0,.85.08,3.31-3,7.33-4.32,12.65-4.32h.11q19.37.06,38.74.06c13.5,0,26.88,0,39.76-.07,4,0,6.79,1.32,9,4.28,1.44,1.93,3.11,3.77,4.71,5.55.61.67,1.21,1.33,1.8,2l.43-.2a4.65,4.65,0,0,0,1.58-1c2-2.44,4-5.13,6.56-8.72,1-1.44,2.1-2.16,3.23-2.16a4,4,0,0,1,3.1,2c1.65,2.3,3.27,4.63,4.88,6.95s3,4.36,4.56,6.52c1.92,2.68,3.91,5.39,5.83,8L464,401l-.26.23.29-.17,6.73,11.23-1.24.17c-.77.1-1.51.22-2.25.34a29.78,29.78,0,0,1-4.73.53c-12.85,0-25.56.05-40.71.05H360.58c-16.39,0-28.91,0-40.59.1Zm-4-35-2.56,3.26c-2.69,3.39-5.46,6.9-8,10.48-.32.45-.11,2.18.53,3.26.82,1.39,1.79,2.74,2.73,4.05a42.29,42.29,0,0,1,3.38,5.18c1.67,3.2,4,4.45,8.17,4.45,30.8-.07,62.18-.08,89.17-.08h51.11c.93,0,1.87-.06,3.05-.13l.62,0-1.64-2.46c-2.64-4-5.13-7.74-7.64-11.42a2.4,2.4,0,0,0-.79-.57,4.89,4.89,0,0,1-2.49.71,7.84,7.84,0,0,1-4.06-1.52l-.35-.22-1.56,15.33-4.83-4.17-.05-.06c-1.64-2-3.27-4.05-4.9-6.07-4.84-6-9.85-12.23-14.93-18.19-.88-1-3.07-1.66-4.68-1.67-12.28-.05-26.8-.11-41.26-.11-14.11,0-26.74.05-38.58.17a19,19,0,0,0-9.36,3.14,7.67,7.67,0,0,1-4.05,1.43,5.76,5.76,0,0,1-3.72-1.53l-3.22-3.22Zm127.36,0c-.62.83-1.23,1.62-1.82,2.4-2.06,2.7-3.84,5-5.45,7.53a3.73,3.73,0,0,0-.17,3.1c1.76,2.44,3.79,4.77,5.75,7,.58.66,1.15,1.33,1.73,2V384.76l7.89,6.53.2-.18c-1.08-3.05-3-5.62-5-8.33C445.23,381.4,444.17,380,443.18,378.46Z"/><path d="M431.09,387c1-.55,2.18-.88,2.82-1.67,2.31-2.84,4.48-5.79,6.6-8.77,1.68-2.37,3.35-2.43,5-.13,3.19,4.46,6.26,9,9.44,13.46,2.77,3.89,5.62,7.7,8.43,11.55h0l6.09,10.16a58.06,58.06,0,0,1-6.87.86c-19.95.07-39.9.05-59.84.06-27.59,0-55.17-.08-82.76.07-4.94,0-8.3-1.51-10.67-6a85.39,85.39,0,0,0-6.62-9.83c-1.51-2.08-1.9-4-.25-6.17,3.66-4.85,7.25-9.76,10.81-14.68,1.19-1.64,2.41-1.78,3.89-.49a24.38,24.38,0,0,0,3.92,3.23c1,.58,2.45.47,3.7.66l0,0c3.52-3.29,7.71-4.35,12.46-4.34q39.25.14,78.51,0c3.58,0,6.19,1.08,8.35,4s4.6,5.36,6.92,8Zm-112.27-6.82-.85-.85-.85-.85-.85-.85h-.85c-3.64,4.67-7.41,9.25-10.82,14.09-.62.87-.18,3,.49,4.15,1.86,3.17,4.4,5.95,6.09,9.19,2,3.83,4.83,4.9,9,4.89q70.11-.15,140.22-.08c1.47,0,2.94-.13,5.15-.24-3.66-5.52-6.83-10.33-10.08-15.09-.34-.5-1.41-1.11-1.69-.94-3,1.87-5.06-.39-7.38-1.52-.47,4.62-.94,9.25-1.52,15L441.27,404h0c-6.58-8.12-13.07-16.33-19.85-24.28-1.08-1.26-3.49-1.94-5.29-1.95-26.62-.12-53.24-.2-79.86,0a20.07,20.07,0,0,0-9.79,3.27c-2.65,1.65-4.53,1.85-6.8,0ZM443.1,401.66l.94-.07V386.51l7.1,5.88,1.12-1c-1.71-5.37-5.91-9.18-9-14.36-3.08,4.13-5.74,7.42-8,10.94a4.48,4.48,0,0,0-.15,4C437.52,395.37,440.39,398.45,443.1,401.66Z"/><polygon points="429.95 387.15 430.76 385.82 432.21 386.61 431.38 388.36 429.95 387.15"/><path d="M431,387l.44-.72c-.19.42-.28.6-.37.78Z"/><polygon points="324.18 378.79 324.2 378.77 325.37 379.94 324.18 378.79"/><path d="M324.76,379.37l0,0Z"/><polygon points="463.63 387.6 464.8 386.43 463.64 387.61 463.63 387.6"/><path d="M464.22,387h0Z"/><polygon points="462.8 402.07 463.93 400.87 462.81 402.08 462.8 402.07"/><path d="M463.37,401.48h0Z"/><path d="M262.25,257.92c-15.7,0-67.22-.08-71-1l-1-.24.48-.94c.24-.47.46-.91.66-1.33a24.72,24.72,0,0,1,1.25-2.31c1.71-2.7,3.43-5.38,5.15-8.07q3-4.72,6.06-9.47a8.26,8.26,0,0,1,7.7-4.12q29.72,0,59.4,0c26.36,0,54,0,82.11-.07,4.06,0,6.75,1.46,8.78,4.73,2.3,3.72,4.75,7.45,7.11,11.06,1.32,2,2.64,4,3.94,6a20.84,20.84,0,0,1,1.12,2.07c.15.31.3.62.46.92l.37.71-.71.39C371.72,257.63,290.51,257.92,262.25,257.92Zm-4.19-22.71c.94,1.08,1.85,2.13,2.75,3.15,2.77,3.18,5.39,6.17,7.83,9.3,3.25,4.17,6.79,6.11,11.16,6.11a15.9,15.9,0,0,0,2.35-.18,12,12,0,0,1,1.78-.11c.59,0,1.19,0,1.79.06s1.15.05,1.71.05h0a9.35,9.35,0,0,0,1.88-.16,10.69,10.69,0,0,0,5.36-2.5c3.16-3.18,6.16-6.64,9.06-10q1.41-1.62,2.83-3.23c.55-.63,1.07-1.32,1.72-2.2l.24-.31Zm-44.2,0,3.55,4.27c3.6,4.33,7,8.41,10.51,12.4a5.38,5.38,0,0,0,4,1.83,4.5,4.5,0,0,0,3.68-1.8c2.82-3.87,5.49-7.91,8.32-12.19,1-1.47,2-3,3-4.51Zm108.57,4.19c2.56,4.06,5,7.9,7.48,11.7a5.08,5.08,0,0,0,4.14,2.6h0a5.58,5.58,0,0,0,4.05-2.13c2.56-2.91,5.08-5.91,7.65-9,1.51-1.81,3-3.63,4.66-5.69l1.41-1.73H319.74C320.66,236.59,321.55,238,322.43,239.39ZM240.49,253a4,4,0,0,0-.2.54,4.43,4.43,0,0,0,.6-.07,5.17,5.17,0,0,1,.67-.08c4.27,0,8.52.06,12.78.06s8.72,0,13.09,0a4.43,4.43,0,0,0,1.12-.27h0l-16.89-18.4Zm-17.07.1-14.79-18-11.74,18Zm145,0L357,235.44l-14.73,17.65Zm-42-.12-11.93-18.26-7.85,9.19,0,0-8.42,9Z"/><path d="M191.41,256.13c.74-1.44,1.22-2.56,1.87-3.58,3.72-5.86,7.51-11.67,11.21-17.54a7.5,7.5,0,0,1,7-3.74q70.74.12,141.49,0c3.64,0,6.15,1.23,8.08,4.34,3.57,5.77,7.38,11.4,11.05,17.11a32.69,32.69,0,0,1,1.54,2.93C370.82,257.17,198.08,257.73,191.41,256.13Zm48.34-3.46c-1.14,2.48,1.09,1.58,1.81,1.59,8.63.08,17.25.05,25.87,0a15.14,15.14,0,0,0,2.66-.69c-6.29-6.84-12.11-13.18-18.53-20.18l-11.82,19.27Zm66.32-9.34-9.76,10.46H328c-4.59-7-8.71-13.34-13.36-20.46-3.28,3.84-5.9,6.92-8.53,10Zm-49.8-9c4.28,5,8.18,9.25,11.72,13.79,3.7,4.75,8.15,7.13,14.28,6.24,2.36-.35,4.88.3,7.2-.17a11.57,11.57,0,0,0,5.78-2.73c4.19-4.21,8-8.79,11.92-13.25.89-1,1.65-2.11,3-3.88Zm-7.81,0H212.09c5.41,6.44,10.19,12.35,15.22,18,2.47,2.8,6.87,2.83,9,0C240.34,246.83,244,241,248.46,234.38Zm105.1-.06H318.25c3.92,6.17,7.37,11.75,11,17.22,2.47,3.76,6.51,4,9.49.57,2.61-3,5.14-6,7.67-9C348.6,240.44,350.76,237.75,353.56,234.32ZM195.37,254h29.79L208.55,233.7Zm174.6-.05-12.84-19.87c-5.7,6.82-10.93,13.1-16.58,19.87Z"/><path d="M216.19,215l.75-1.25c.56-.92,1.07-1.77,1.55-2.58,1-1.62,1.8-3,2.7-4.42,1.69-2.65,3.4-5.28,5.1-7.92,3-4.64,6.13-9.45,9.11-14.22,2.3-3.69,5.63-4.16,8.27-4.16h.41c3.38.06,6.76.14,10.14.22,9,.21,18.4.43,27.59.43H282c12.27,0,24.45-.34,35.87-.69h.74c5.79,0,9.85,2.21,12.77,7,3.34,5.45,6.89,10.9,10.32,16.18q2.52,3.86,5,7.74a8.93,8.93,0,0,1,.7,1.45l.48,1.09.53,1.16Zm7.39-4.23c4.86.35,19.38.56,39.94.56,35.73,0,71.39-.58,77.34-1.22a2.26,2.26,0,0,0-.22-.47c-.83-1.37-1.67-2.73-2.52-4.1-1.37-2.21-2.79-4.49-4.12-6.78-2.3-3.93-5.46-5.83-9.69-5.83H324a1.09,1.09,0,0,0-.37.13l-.57,4.09-.79-.09a3.59,3.59,0,0,1-2.55-1.19,3.67,3.67,0,0,1-.48-2.83l-2.06.07c-2.27.07-4.41.13-6.5.26-.72,0-1.9.11-2.19.43a3.9,3.9,0,0,1-2.92,1.51,4.81,4.81,0,0,1-2.69-1,8,8,0,0,0-.48,1.19c-.46,1.32-1.1,3.14-3.29,3.14a5.43,5.43,0,0,1-1.85-.36l-.77-.26,1.74-5.25-1.44.36c-1.85.46-3.45.87-5.05,1.15l-.24,0a15.93,15.93,0,0,1-2.46.29A2.68,2.68,0,0,1,287,194a5.13,5.13,0,0,0-3.47-1.73c-1.31,0-2.67.72-4.57,2.41-.66.59-1.37,1.12-2.06,1.64a27.15,27.15,0,0,0-2.22,1.8,4.57,4.57,0,0,1-3.1,1.46,4.51,4.51,0,0,1-3.17-1.57c-1.62-1.59-3.33-3.16-5-4.67l-1.14-1,2.34,7.62-7.19-.44.74-6.12-1.92.06c-4,.12-7.59.23-11.23.31h0a4,4,0,0,1-1.55-.36,9,9,0,0,0-3.37-.68,9.42,9.42,0,0,0-7.2,3.64,76.66,76.66,0,0,0-7.1,10.67C225.11,208.22,224.35,209.49,223.58,210.75ZM261,187.51c1.48,0,2.88.73,4.55,2.38,3.32,3.31,4.85,4.77,6.29,4.77s3.27-1.53,6.6-4.29a7.9,7.9,0,0,1,5-2.22,6.38,6.38,0,0,1,4.37,2,3.43,3.43,0,0,0,2,.83l.23,0a44,44,0,0,0,4.28-1.45c1.11-.41,2.27-.85,3.43-1.2a7.78,7.78,0,0,1,2.16-.35,2.4,2.4,0,0,1,1.72.54,5.21,5.21,0,0,0,3.9,1.48,19.65,19.65,0,0,0,2.88-.29,21.28,21.28,0,0,1,3.1-.31,7.4,7.4,0,0,1,3,.59,9.63,9.63,0,0,1,5.92-1.93,24.78,24.78,0,0,1,6.4,1.16l.8.22c-1.51-2.41-3-3.94-6.07-3.94-17,.08-34.24.09-50.91.09H242.89c-3.47,0-4.61.77-5.42,4.09l2.53-.21c3.47-.31,7.06-.62,10.62-.81h.12a4.46,4.46,0,0,1,2.15.79,7.73,7.73,0,0,0,.69.37c.39-.05.79-.07,1.18-.1a4.65,4.65,0,0,0,2.32-.5A6.13,6.13,0,0,1,261,187.51Z"/><path d="M347.11,214.16H217.65c1.68-2.78,2.9-4.92,4.23-7,4.73-7.39,9.57-14.71,14.22-22.15,1.92-3.08,4.66-3.83,8-3.76,12.58.25,25.17.65,37.75.66,12,0,24-.33,36.05-.7,5.59-.17,9.76,1.65,12.77,6.57,5,8.08,10.23,16,15.35,23.93A23,23,0,0,1,347.11,214.16Zm-93.79-23.59.07.06c1.43-.24,3.24,0,4.21-.83,2.85-2.34,4.9-1.72,7.32.68,6.65,6.6,6.73,6.55,14,.53,2.74-2.28,5.35-3,8.29-.29a3.87,3.87,0,0,0,3,1c2.64-.68,5.14-1.86,7.75-2.66,1-.29,2.53-.52,3.07,0,4.13,4,9.31-.53,13.56,1.85,4.36-3.55,8.93-1.73,13.48-.55.17,0,.42-.28.78-.54-1.69-2.83-3.32-5.22-7.35-5.2-26.19.14-52.39.07-78.58.11-4.26,0-5.57,1.31-6.46,5.83,4.73-.39,9.47-.86,14.23-1.12C251.53,189.38,252.44,190.17,253.32,190.57Zm49.35,2.59-.07,0c-.28-.13-.11-.05.07,0-1.66,1.41-.82,5.85-5.19,4.33.58-1.78,1.11-3.35,1.95-5.89-3.33.79-5.58,1.44-7.88,1.84-1.31.23-3.24.62-3.94-.05-3.46-3.34-6.25-1.93-9.16.65-1.37,1.22-2.95,2.2-4.29,3.45-1.81,1.7-3.38,1.65-5.14-.08-2.32-2.3-4.77-4.48-7.17-6.7l-.73.41,2.41,7.89-5.13-.32c.29-2.43.52-4.25.75-6.2-5.11.15-9.6.29-14.1.4a3.19,3.19,0,0,1-1.23-.31c-4.65-1.86-8.86,0-11.51,3.2-3.93,4.67-6.74,10.28-10.13,15.66,8.72,1.29,117,.63,119.77-.72a9.52,9.52,0,0,0-.6-1.53c-2.21-3.63-4.5-7.2-6.64-10.87-2.43-4.16-5.92-6.36-10.78-6.23a3.59,3.59,0,0,0-1.1.38c-.18,1.26-.34,2.44-.52,3.75-3.58-.4-2-3.31-2.28-4.05-3.53.12-6.49.18-9.45.35-.95.06-2.22.12-2.75.71C306,195.28,304.36,194.44,302.67,193.16Z"/><path d="M274.7,161.79c-1.45,0-2.89,0-4.33,0-2.32-.06-3.76-.6-4.51-1.69s-.73-2.5,0-4.45a4,4,0,0,0-.82-4.55,8.32,8.32,0,0,1-.41-10.76c2-2.93,4-5.88,6-8.82,2.48-3.66,5.05-7.44,7.62-11.13,1.13-1.61,2.13-2.69,3.36-2.69s2.23,1.06,3.36,2.65c3,4.32,6,8.77,8.93,13.08,1.63,2.42,3.26,4.85,4.9,7.26,2.17,3.18,2.14,6.39-.09,10.38a10.56,10.56,0,0,0-1.1,5.34c.09,2-.24,3.36-1.09,4.24a4.51,4.51,0,0,1-3.44,1.17h-.21c-1.5,0-3,0-4.51,0H278.06Zm17.38-5.51c-1.87-.72-3.5-1.35-5.2-1.86-2.58-.78-4.18-1.49-4.76-2.86s0-2.95,1.12-5.14c2-4,1.85-5.19-1.7-8.16-2.74,2.27-3,3.27-1.85,6.57,1.37,4.11,2,6,1.17,7.43s-2.78,1.87-6.7,2.73l-.14,0a9,9,0,0,0-2.33,1l-.39.21ZM291.91,143c2.61,2.46,1.43,4.76.57,6.43l-.23.43a4.92,4.92,0,0,0,3-2.49,4.72,4.72,0,0,0-.6-4.41c-1.72-2.82-3.67-5.58-5.57-8.24l-2.07-2.94c-1.26-1.82-2.55-3.63-4-5.65l-1.55-2.17q-1.83,2.79-3.62,5.46c-3.36,5-6.53,9.8-9.47,14.72a3.3,3.3,0,0,0-.31,3.16,4.57,4.57,0,0,0,2.5,2.19c-1.18-3.43-1.06-4,.87-6l.69-.73,3.31,4.7c-2.42-7.46.59-11.59,6.17-15.61l.5-.36,4.35,3.48v.95a12,12,0,0,1,2.68,9.36l2-2.95Z"/><path d="M281.42,160.94c-3.67,0-7.35.07-11,0-3.83-.11-5-1.55-3.8-5a4.83,4.83,0,0,0-1-5.34,7.51,7.51,0,0,1-.37-9.77c4.58-6.63,9-13.35,13.65-19.95,2.14-3.07,3.17-3.14,5.36,0,4.72,6.69,9.21,13.55,13.83,20.33,2.21,3.23,1.7,6.23-.13,9.51a11.29,11.29,0,0,0-1.2,5.77c.13,3-.65,4.62-3.9,4.55-3.82-.08-7.64,0-11.46,0Zm4.24-24.75c3.37,4,3.35,8.33,1.7,13.12l4-5.75c3,2.84.1,5.06-.44,7.46,5-.87,6.92-4.56,4.5-8.53s-5.08-7.5-7.67-11.22c-1.89-2.72-3.83-5.4-6.25-8.81-4.92,7.51-9.59,14.22-13.77,21.21-1.91,3.19.25,6.28,4.2,7-1.68-4.73-1.68-4.73.16-6.65l4.35,6.17.79-.56c-3.62-8.17-1.62-12.44,4.91-17.15l3.54,2.85Zm8.27,20.92c-.71-.86-.91-1.33-1.24-1.46-1.84-.73-3.69-1.45-5.58-2-4.84-1.46-5.35-2.5-3.14-6.84,2.31-4.51,1.91-6.06-2.42-9.59-3.49,2.78-3.92,4.07-2.64,7.89,2.5,7.51,2.49,7.46-5.06,9.12a18.33,18.33,0,0,0-3.73,1.76l.34,1.14Z"/><polygon points="265.51 120.32 265.54 120.29 266.7 121.46 265.51 120.32"/><path d="M266.12,120.87l0,0Z"/><rect x="281.41" y="96.25" width="0.86" height="1.65"/><path d="M281.41,97.07h0Z"/><polygon points="274.01 107.57 274.02 107.56 275.21 108.69 274.01 107.57"/><path d="M274.6,108.13h0Z"/><rect x="522.7" y="472.5" width="1.23" height="1.65" transform="translate(-181.4 508.86) rotate(-45.02)"/><path d="M522.88,473.75l.87-.86Z"/><rect x="41.24" y="475.26" width="1.65" height="1.22" transform="translate(-324.42 169.42) rotate(-45.05)"/><path d="M41.63,475.44l.86.86Z"/><rect x="305.03" y="123.89" width="1.23" height="1.65" transform="translate(1.37 252.73) rotate(-45.02)"/><path d="M305.21,125.14l.87-.86Z"/><rect x="64.19" y="439.56" width="1.65" height="1.21" transform="translate(-292.2 174.89) rotate(-45)"/><path d="M64.59,439.73l.85.86Z"/><rect x="276.76" y="94.35" width="1.65" height="1.2" transform="translate(14 223.77) rotate(-44.93)"/><path d="M277.16,94.53l.85.85Z"/><rect x="259.76" y="120.7" width="1.65" height="1.22" transform="translate(-9.58 219.46) rotate(-44.93)"/><path d="M261,121.74l-.86-.86Z"/><polygon points="349.47 194.04 353.14 194.02 349.44 197.72 349.47 194.04"/><path d="M350.29,194.86h.85l-.86.86Z"/><rect x="503.99" y="443.59" width="1.23" height="1.65" transform="translate(-166.42 487.52) rotate(-45.05)"/><path d="M505,444l-.87.87Z"/><rect x="289.73" y="100.08" width="1.23" height="1.65" transform="translate(13.69 234.85) rotate(-45)"/><path d="M289.91,101.34l.86-.87Z"/><rect x="214.69" y="192.97" width="1.65" height="1.23" transform="translate(-73.76 209.15) rotate(-45.01)"/><path d="M216,194l-.87-.87Z"/><rect x="509.95" y="452.94" width="1.22" height="1.65" transform="translate(-171.32 493.92) rotate(-45)"/><path d="M510.13,454.2l.86-.86Z"/><rect x="163.68" y="281.4" width="1.65" height="1.23" transform="translate(-151.15 198.6) rotate(-44.94)"/><path d="M164.93,282.44l-.86-.86Z"/><rect x="208.74" y="202.32" width="1.65" height="1.23" transform="translate(-82.12 207.33) rotate(-44.94)"/><path d="M209.13,202.5l.87.87Z"/><rect x="159.43" y="288.21" width="1.65" height="1.22" transform="translate(-157.36 198.16) rotate(-45.05)"/><path d="M159.82,288.38l.86.87Z"/><polygon points="238.31 154.62 239.47 153.46 240.33 154.32 239.17 155.48 238.31 154.62"/><path d="M239.75,154.9l-.86-.86Z"/><rect x="248.7" y="137.7" width="1.65" height="1.22" transform="translate(-24.72 216.95) rotate(-45)"/><path d="M249.1,137.88l.86.87Z"/><polygon points="278.9 91.94 278.89 91.13 278.87 88.27 282.57 91.96 278.9 91.94"/><path d="M280.57,91.13h-.86v-.86Z"/><polygon points="251.68 134.46 251.66 130.78 255.35 134.47 251.68 134.46"/><path d="M252.5,133.64v-.86l.86.86Z"/><rect x="258.06" y="123.25" width="1.65" height="1.23" transform="translate(-11.76 219.33) rotate(-45)"/><path d="M258.45,123.43l.86.86Z"/><rect x="209.6" y="200.64" width="1.65" height="1.2" transform="translate(-80.66 207.97) rotate(-45.05)"/><path d="M210.84,201.67l-.84-.85Z"/><path d="M249.68,132.82h3.65v3.68Z"/><path d="M251.66,133.64h.84v.85Z"/><rect x="161.97" y="283.95" width="1.65" height="1.22" transform="translate(-153.55 198.52) rotate(-45.01)"/><path d="M162.37,284.13l.86.86Z"/><polygon points="276.88 90.3 279.07 90.31 280.54 90.29 280.54 93.97 276.88 90.3"/><path d="M279.71,91.13V92l-.84-.85Z"/><polygon points="364.97 346.51 364.98 346.5 366.2 347.61 364.97 346.51"/><path d="M365.58,347.06h0Z"/><polygon points="204.3 349.33 205.47 348.17 204.31 349.34 204.3 349.33"/><path d="M204.88,348.75h0Z"/><polygon points="259.12 345.26 263.72 338.94 269.75 344.88 267.93 346.55 259.12 345.26"/><path d="M267.66,345.68l-7.07-1,3.23-4.44,4.73,4.66Z"/><path d="M296.33,345.29l.74-1.14c1.32-2,2.5-3.4,4-3.4s2.89,1.62,4.35,4.06l.83,1.39Z"/><path d="M297.76,344.59c2.7-4.16,4.09-4.08,6.93.64Z"/><polygon points="266.36 338.27 267.52 337.11 266.39 338.3 266.36 338.27"/><path d="M267,337.72l0,0Z"/><polygon points="262.13 333.71 262.14 333.7 263.28 334.89 262.13 333.71"/><path d="M262.7,334.31h0Z"/><polygon points="296.14 334.56 296.15 334.55 297.29 335.75 296.14 334.56"/><path d="M296.72,335.15h0Z"/><polygon points="336.11 337.45 337.24 336.25 336.12 337.46 336.11 337.45"/><path d="M336.68,336.86h0Z"/><polygon points="382.84 444.99 384.55 443.58 390.22 446.34 388.31 453.71 382.84 444.99"/><path d="M384.66,444.55l4.6,2.24c-.35,1.31-.67,2.57-1.27,4.87l-4.07-6.5Z"/><polygon points="401.56 443.41 401.57 443.4 402.74 444.57 401.56 443.41"/><path d="M402.16,444h0Z"/><polygon points="354.8 444.26 354.81 444.25 355.97 445.42 354.8 444.26"/><path d="M355.39,444.83h0Z"/><path d="M184.29,449.54c-.87-1.84-1-3.15-.5-4.23.72-1.5,2.64-2.26,5.3-2.89l.44-.6.36.41,1.69-.4-1,1.27.45.53-1,.25-5.18,6.89Z"/><path d="M189.58,443.13,185,449.19c-1.68-3.56-.52-4.87,4.56-6.05Z"/><path d="M141.12,444H142l0,1.65h-.86Z"/><path d="M141.13,444.84h0Z"/><path d="M237.5,406.58l1.92-3.31L234,407.19l-1.71-1.47,2.44-3.56c-.69-.81-1.35-1.61-2-2.4-1.81-2.17-3.52-4.22-5.34-6.16a29.52,29.52,0,0,0-3.44-3c-.38-.29-.77-.59-1.15-.9-2.68,2.43-4.05,3.64-5.61,3.64s-3-1.32-5.64-3.95a2.8,2.8,0,0,0-1.66-1c-.12,0-.49,0-1,.66-1.83,2.2-3.62,4.49-5.36,6.7l-2.19,2.79-.05,0h0c-.59.63-1.15,1.2-1.71,1.77-1.27,1.3-2.58,2.65-3.8,4a4.45,4.45,0,0,1-3.08,1.78,4.11,4.11,0,0,1-3-1.76c-1.52-1.77-3.18-3.48-4.79-5.13-.92-1-1.85-1.91-2.75-2.87a3.32,3.32,0,0,0-2.2-1.31,2,2,0,0,0-1.4.69,4.54,4.54,0,0,1-3.22,1.57c-1.59,0-2.94-1.09-4.08-2.11l-.06-.05L164,386l-7,5-.17-1.38q-.06-.45-.12-.72a1.44,1.44,0,0,1,.14-1.21c2.91-3.77,4.52-5.73,6.54-5.73s3.72,1.9,6.69,5.27c1.28,1.44,2.54,2.91,3.76,4.35l1.23,1.44c2.47-1.09,3.91-1.69,5.23-1.69,2,0,3.23,1.3,6,4.15l.1.1c1.39,1.46,2.89,2.88,4.34,4.25l1.78,1.7h.16l2.55-2.76q4-4.35,8.06-8.73c.33-.36.63-.74.93-1.12s.62-.79,1-1.16c2.26-2.5,3.4-3.76,4.83-3.76s2.56,1.22,4.85,3.65a18.59,18.59,0,0,0,1.81,1.65l.35.29a5.48,5.48,0,0,0,2.71-2.07c1-1.14,2.15-2.43,3.85-2.43a5,5,0,0,1,2.9,1.13h.36l6.49-3.78,1.67,2.34-4.84,4.52c-.37.57-.4,1.35.41,2.56l.38.57c1.7,2.57,3.3,5,6.5,5a7.57,7.57,0,0,0,.81,0l.25,0a1.73,1.73,0,0,1,1.25.46c.4.42.84.82,1.29,1.23,1.27,1.17,2.58,2.37,3,3.93.31,1.16-1,2.21-2.54,3.53-.53.45-1.07.9-1.47,1.3l-.56.56Z"/><path d="M227,387l6-3.52.82,1.14-3.46,3.23h0c-1.81,1.27-1.65,2.81-.58,4.42,2.05,3.07,3.93,6.39,8.47,5.88a1.09,1.09,0,0,1,.81.19c1.48,1.56,3.6,3,4.09,4.82.25.94-2.43,2.66-3.79,4l-.86-.78,2.15-3.7-.66-.91-6,4.33-.65-.56,2.38-3.47c-2.76-3.24-5.16-6.27-7.79-9.07a54.55,54.55,0,0,0-5.19-4.35l-.06.07a2.13,2.13,0,0,0-.34.25c-5.26,4.76-5.28,4.78-10.27-.16-1.31-1.28-2.6-1.87-3.92-.28-2.58,3.12-5.05,6.33-7.56,9.51h0c-1.85,1.93-3.77,3.81-5.54,5.81s-3.07,2.11-4.85,0c-2.4-2.79-5.06-5.35-7.57-8-1.45-1.54-3.11-2.28-4.78-.63-2.42,2.4-4.26,1.13-6.17-.58h0l-7.61-9.81-6.48,4.63c-.1-.84-.26-1.18-.15-1.32,5.51-7.14,6-7.16,12-.43,1.85,2.1,3.64,4.24,5.38,6.26,6.27-2.8,6.24-2.77,10.91,2.12,2.05,2.14,4.25,4.14,6.38,6.2H193q5.45-5.88,10.87-11.76c.67-.73,1.22-1.55,1.88-2.28,4.21-4.66,4.2-4.64,8.51-.06a30.64,30.64,0,0,0,2.45,2.18c3.86-.17,4.56-7.23,9.46-3.39H227Z"/><path d="M198.27,405.67c.64-6.77,4.34-11.15,9.41-11.15a10.9,10.9,0,0,1,6.09,2.07l1.5,1-1.74.47a6.21,6.21,0,0,1-1.71.22,15.06,15.06,0,0,1-2.47-.27,11.62,11.62,0,0,0-1.92-.23,2.63,2.63,0,0,0-2.49,1.46,57.42,57.42,0,0,1-5.23,7l-1.69,2Z"/><path d="M213.31,397.27c-3.42.93-6.81-2.11-9.07,1.53a57,57,0,0,1-5.15,6.95C199.94,396.73,206.42,392.63,213.31,397.27Z"/><path d="M121.77,380.51A.89.89,0,0,1,121,380l0,0-.75-.5,1.44-1.39.49.7c.33.23.66.53.47,1.06l-.21.61-.18,0-.37.05Z"/><path d="M121.56,379.37c.27.18.54.37,0,0,.34.51.16.23,0,0Z"/><polygon points="225.86 387.85 223.73 386.21 229.44 386.18 227.28 387.84 226.99 387.85 225.86 387.85"/><path d="M226.15,387h0Z"/><polygon points="229.81 387.29 229.82 387.28 230.98 388.45 229.81 387.29"/><path d="M230.39,387.87h0Z"/><polygon points="222.13 388.18 222.2 388.11 223.37 389.27 222.13 388.18"/><path d="M222.78,388.69l-.06.07Z"/><polygon points="171.14 395.25 172.31 394.08 171.15 395.26 171.14 395.25"/><path d="M171.73,394.67Z"/><polygon points="192.5 403.15 191.89 403.15 189.38 401.48 192.5 401.5 195.45 401.47 193.27 403.15 192.97 403.15 192.5 403.15"/><path d="M192.13,402.32h0Z"/><polygon points="199.48 398.09 200.62 396.89 201.23 397.49 202.07 398.34 200.91 399.51 199.48 398.09"/><path d="M200.63,398.08l.86.84-.85-.85Z"/><path d="M324.37,407.4c-.37-.33-.82-.65-1.29-1-1.22-.88-2.48-1.78-2.74-3.08s.74-2.67,3.19-4.77a6.4,6.4,0,0,1,4-1.38h.29c3.46,0,4.83-2.54,6.28-5.23l.22-.41a2,2,0,0,0-.27-1.82,6.27,6.27,0,0,0-4.67-2.89,2.53,2.53,0,0,0-.56.06l-.59.13a11,11,0,0,1-2.56.39l-.6,0-1.85-.18,1.52-1.38c1.77-1.6,3.59-3.26,6.15-3.26a6.41,6.41,0,0,1,1.81.27l.32.1.17.3c1.63,3,2.23,3.83,3.11,3.83s2-.55,3.9-1.47a2.39,2.39,0,0,1,1.08-.22,5.54,5.54,0,0,1,3,1,13.23,13.23,0,0,1,2.41,2.6c.22.28.44.57.69.87l7.48-8.16,18.38,20.71,8.27-9.16c1.07-1.19,2.4-2.41,4.12-2.41a4.93,4.93,0,0,1,3.16,1.36,2.19,2.19,0,0,0,1.35.59,3.14,3.14,0,0,0,2.19-1.45c1-1.26,2.08-2.5,3.11-3.7s2.15-2.48,3.17-3.76c1.18-1.47,2.35-2.19,3.58-2.19s2.38.71,3.54,2.18l4,5.08-1.64,2-.63-.48c-.33-.25-.68-.48-1-.72a10.8,10.8,0,0,1-2.36-1.92c-.77-.89-1.44-1.35-2-1.35s-1.32.53-2.14,1.62c-1.06,1.42-2.22,2.79-3.33,4.11-.86,1-1.75,2.08-2.58,3.13-1.16,1.48-2.33,2.2-3.56,2.2a4.47,4.47,0,0,1-3-1.37,3,3,0,0,0-2-1,3.32,3.32,0,0,0-2.32,1.4c-.91,1-1.88,2.06-2.81,3-1.07,1.14-2.18,2.31-3.2,3.51-1.72,2-2.91,3.14-4.3,3.14s-2.65-1.15-4.43-3.27c-.34-.42-.73-.8-1.13-1.22l-.57-.58-.08-.09-.73-.73-.06,0-1.69-1.7,0,0h0L355,387.13l-1,1.24c-1,1.24-1.82,2.23-2.67,3.2-1.36,1.55-2.63,2.3-3.9,2.3s-2.51-.81-3.6-2.4c-.86-1.24-1.59-1.87-2.2-1.87-.83,0-1.87,1.21-2.58,2.12-2,2.59-4.25,5-6.58,7.53-.87.94-1.75,1.9-2.64,2.89l2.32,3.22-1.36,1.87-6-4.15,1.89,3L325,407.94Z"/><path d="M364.74,398.08l-9.69-12.26c-1.86,2.24-3.06,3.76-4.33,5.21-2.27,2.59-4.27,2.8-6.2,0-2.32-3.38-3.92-2.59-6.11.2-2.91,3.69-6.22,7.06-9.63,10.87l2.36,3.28-.53.74-6.25-4.33-.75,1c.68,1.08,1.36,2.16,2.05,3.24l-.74.81c-1.35-1.18-3.49-2.21-3.78-3.61-.22-1.11,1.65-2.89,2.93-4a5.72,5.72,0,0,1,3.52-1.18c4.29.1,5.86-3.2,7.41-6.07,1.35-2.47-3.25-6.53-6.39-5.85a11,11,0,0,1-3.5.48c2.11-1.91,4.16-3.86,7.32-2.94h0c2.8,5.12,3.07,5.13,8.1,2.72a3.94,3.94,0,0,1,3.23.72c1.2.89,2,2.27,3.56,4.07l7.5-8.19,18.39,20.71,8.88-9.84c1.78-2,3.58-3.13,6.14-1,1.77,1.48,3.35.71,4.71-1,2-2.53,4.25-4.92,6.28-7.46s3.88-2.49,5.83,0l3.6,4.56-.72.87a19.92,19.92,0,0,1-3.26-2.52c-2.05-2.4-3.65-2.06-5.43.31s-4,4.78-5.9,7.22c-1.59,2-3.22,2.64-5.33.73s-3.76-1.46-5.47.51c-1.95,2.23-4.11,4.29-6,6.56-3.21,3.81-4.15,3.83-7.46-.13-.55-.65-1.16-1.23-1.75-1.84l-.05-.06-.8-.8,0,0-.85-.84-.85-.87Z"/><path d="M368.69,407.34c-.34-.13-.71-.23-1.08-.34a6.15,6.15,0,0,1-2.66-1.24,21.26,21.26,0,0,1-3.31-4.42l-.07-.11c-1.42-2.27-2.77-3.78-4.78-3.78a5.7,5.7,0,0,0-2.05.44,1.46,1.46,0,0,1-.52.09,2.39,2.39,0,0,1-.93-.22,2.14,2.14,0,0,1-.68-.53l-.13-.14-.76-.71.86-.58c2.08-1.4,3.48-2,4.83-2s2.76.65,4.53,2.26l1.69,1.51.88.78,5.17,7.74-.75.61Z"/><path d="M369,406.57c-1.17-.45-2.62-.61-3.47-1.41a21.36,21.36,0,0,1-3.24-4.37c-1.84-2.94-3.92-5.2-7.83-3.67a1.26,1.26,0,0,1-.82-.11,2.82,2.82,0,0,1-.58-.52c3.71-2.5,5.4-2.46,8.34.21.83.75,1.67,1.48,2.51,2.23h0l1.71,2.56h0l3.41,5.11Z"/><path d="M365.36,402.49l-.59.28v-1l-.5-.6.5-.23v-2h1.93l.27.22.06.05.82.82.79.9L366.42,402v1.75Z"/><path d="M367.3,400.65l-1.72.82h0v-1.71h.84l0,0,.8.8Z"/><polygon points="313.45 376.85 317.11 376.83 317.09 380.51 313.45 376.85"/><path d="M316.28,377.66v.86l-.86-.86Z"/><polygon points="316.54 379.96 317.13 379.37 316.51 379.92 314.29 377.69 317.96 377.68 317.94 381.36 316.54 379.96"/><path d="M317.13,378.51v.86l-.86-.86Z"/><polygon points="315.13 378.55 318.81 378.53 318.79 382.2 315.13 378.55"/><path d="M318,379.36v.86l-.86-.86Z"/><polygon points="315.98 379.39 319.66 379.38 319.64 383.06 315.98 379.39"/><path d="M318.83,380.21v.86c-.29-.28-.58-.57-.86-.86Z"/><polygon points="318.81 380.24 319.68 380.24 319.69 381.89 318.82 381.89 318.81 380.24"/><path d="M318.82,381.06h0Z"/><polygon points="331.85 384.21 332.99 383.02 331.86 384.22 331.85 384.21"/><path d="M332.43,383.62h0Z"/><polygon points="363.52 399.74 361.92 399.73 362.75 398.9 362 398.08 363.56 398.09 363.91 397.75 363.9 395.89 364.78 396.87 365.55 396.1 365.56 397.75 365.86 398.1 365.85 398.11 365.86 398.11 365.56 398.42 365.56 399.75 364.25 399.74 363.93 400.06 363.93 400.06 363.88 400.11 363.52 399.74"/><path d="M363.89,398.93l.85-.85v.84h-.85Z"/><polygon points="440.68 404.6 441.84 403.44 440.68 404.61 440.68 404.6"/><path d="M441.27,404h0Z"/><polygon points="368.39 407.14 369.58 406 368.39 407.15 368.39 407.14"/><path d="M369,406.58h0Z"/><polygon points="305.51 242.72 305.52 242.71 306.63 243.93 305.51 242.72"/><path d="M306.07,243.32h0Z"/><polygon points="239.15 252.11 239.16 252.1 240.35 253.24 239.15 252.11"/><path d="M239.74,252.68h0Z"/><path d="M280.22,199.54c-.13-2.18.17-3.54,1-4.41a3.69,3.69,0,0,1,2.83-1,10.59,10.59,0,0,1,1.74.16l1.62.27-7.07,6.76Z"/><path d="M285.64,195.09l-4.6,4.4C280.81,195.67,282,194.48,285.64,195.09Z"/><rect x="252.54" y="190.55" width="1.65" height="0.1" transform="translate(-60.25 237.14) rotate(-45.4)"/><path d="M253.32,190.57l.07.06Z"/><path d="M284.84,136.19v-.85h1.65v.86Z"/><path d="M285.66,136.19c0-.28,0-.57,0-.85Z"/><polygon points="362.76 398.11 366.42 398.09 366.39 401.74 362.76 398.11"/><path d="M365.59,399.77l-.85-.85h.85Z"/></svg>