<svg id="Слой_1" data-name="Слой 1" xmlns="http://www.w3.org/2000/svg" viewBox="0 0 566.93 566.93"><defs><style>.cls-1{fill:#ed6b44;}</style></defs><path class="cls-1" d="M470.54,379.79c.18.38.35.76.52,1.15a20.5,20.5,0,0,0,1.36,2.69c3.62,5.61,7.33,11.29,10.92,16.79l3.74,5.72c.31.48.63.94.94,1.41,1.92,2.82,3.9,5.73,3.81,9.64a3.42,3.42,0,0,0,.71,1.42l.23.34q5.75,8.83,11.5,17.65c7.43,11.39,15.12,23.16,22.62,34.78,2.32,3.58,1.94,5.92,1.22,7.26s-2.65,3.06-7.3,3.07q-17.13,0-34.26,0H47.62c-4.47,0-7.5-.39-8.76-2.33s-.39-4.88,1.43-9l.05-.1.08-.1h0L46,461.65q6.8-10.38,13.56-20.76,2.3-3.56,4.54-7.13c2.55-4,5.19-8.2,7.93-12.21a19.12,19.12,0,0,1,3.7-3.71c.56-.47,1.13-.95,1.66-1.44l1.53-2.13c1.14-1.58,2.32-3.22,3.37-4.88,2-3.23,4-6.56,6-9.79l2.48-4.1,24.39-38.68,5.89-9.25,0,0,0,0,4.71-7.26Q131.4,331.66,137,323l1.37-2.11c1.73-2.65,3.51-5.38,5.19-8.12.29-.48.6-1,.91-1.44,1.6-2.47,3.12-4.81,2.7-8-.2-1.46.83-3,1.65-4.28,3.81-5.83,7.61-11.59,11.41-17.35q6.65-10.1,13.27-20.2c6.77-10.39,14-21.69,22.2-34.56a4,4,0,0,0,.63-2.45c-2.83-3.94-.67-7.32.92-9.79,5.34-8.35,11.05-17.24,16.81-26.12,1.32-2,2.76-4,4.16-6a73.86,73.86,0,0,0,7.62-12.19c5.38-11.89,12.67-22.78,19.72-33.32,3.87-5.78,7.88-11.76,11.5-17.83,4.85-8.08,10.12-16.09,15.22-23.82L275.94,90c2.13-3.25,4-4.77,6-4.77s4,1.61,6.14,5.08a29.72,29.72,0,0,0,2.16,2.89q.56.68,1.08,1.35l-.28.26.32-.19c1.15,1.87,2.28,3.74,3.41,5.62,2.43,4,5,8.2,7.54,12.21,3.56,5.51,7.26,11.06,10.83,16.43,7,10.55,14.27,21.45,20.83,32.53,5.61,9.48,11.76,18.83,17.71,27.88,5.51,8.37,11.2,17,16.46,25.76,1.81,3,3.12,5.79.84,9.36a4,4,0,0,0,.59,2.85c13.9,22.12,27.87,44.16,42.14,66.67l6.83,10.78c10.48,16.55,21.33,33.67,32.13,50.42a25,25,0,0,0,4.22,4.58c.93.86,1.89,1.74,2.76,2.69a65.36,65.36,0,0,1,5.1,6.18c1.66,2.32,3.26,4.75,4.8,7.1l1.77,2.68v0Z"/><path d="M448.94,481.73H47.62c-4.47,0-7.5-.39-8.76-2.33s-.39-4.88,1.43-9l.05-.1.08-.1L46,461.65q6.8-10.38,13.56-20.76,2.3-3.56,4.54-7.13c2.55-4,5.19-8.2,7.93-12.21a19.12,19.12,0,0,1,3.7-3.71c.56-.47,1.13-.95,1.66-1.44l1.53-2.13c1.14-1.58,2.32-3.22,3.37-4.88,2-3.23,4-6.56,6-9.79l2.48-4.1,24.39-38.68,5.89-9.25,0,0,0,0,4.71-7.26Q131.4,331.66,137,323l1.37-2.11c1.73-2.65,3.51-5.38,5.19-8.12.29-.48.6-1,.91-1.44,1.6-2.47,3.12-4.81,2.7-8-.2-1.46.83-3,1.65-4.28,3.81-5.83,7.61-11.59,11.41-17.35q6.65-10.1,13.27-20.2c6.77-10.39,14-21.69,22.2-34.56a4,4,0,0,0,.63-2.45c-2.83-3.94-.67-7.32.92-9.79,5.34-8.35,11.05-17.24,16.81-26.12,1.32-2,2.76-4,4.16-6a73.86,73.86,0,0,0,7.62-12.19c5.38-11.89,12.67-22.78,19.72-33.32,3.87-5.78,7.88-11.76,11.5-17.83,4.85-8.08,10.12-16.09,15.22-23.82L275.94,90c2.13-3.25,4-4.77,6-4.77s4,1.61,6.14,5.08a29.72,29.72,0,0,0,2.16,2.89q.56.68,1.08,1.35l-.28.26.32-.19c1.15,1.87,2.28,3.74,3.41,5.62,2.43,4,5,8.2,7.54,12.21,3.56,5.51,7.26,11.06,10.83,16.43,7,10.55,14.27,21.45,20.83,32.53,5.61,9.48,11.76,18.83,17.71,27.88,5.51,8.37,11.2,17,16.46,25.76,1.81,3,3.12,5.79.84,9.36a4,4,0,0,0,.59,2.85c13.9,22.12,27.87,44.16,42.14,66.67l6.83,10.78c10.48,16.55,21.33,33.67,32.13,50.42a25,25,0,0,0,4.22,4.58c.93.86,1.89,1.74,2.76,2.69a65.36,65.36,0,0,1,5.1,6.18c1.66,2.32,3.26,4.75,4.8,7.1.64,1,1.29,2,1.94,2.93l.89.9.06.13c.21.44.41.89.61,1.34a20.5,20.5,0,0,0,1.36,2.69c3.62,5.61,7.33,11.29,10.92,16.79l3.74,5.72c.31.48.63.94.94,1.41,1.92,2.82,3.9,5.73,3.81,9.64a3.42,3.42,0,0,0,.71,1.42l.23.34q5.75,8.83,11.5,17.65c7.43,11.39,15.12,23.16,22.62,34.78,2.32,3.58,1.94,5.92,1.22,7.26s-2.65,3.06-7.3,3.07q-17.13,0-34.26,0ZM477.65,422q-49.65.06-99.28.05-36.24,0-72.49,0a22,22,0,0,0-6.35.9c-4.26,1.29-4.66,1.84-4.66,6.45q0,18.27,0,36.53c0,5.55,0,5.55,5.57,5.55h214l.12-.23-.51-.83c-.53-.88-1.06-1.76-1.62-2.62q-3.74-5.82-7.51-11.62c-6.21-9.59-12.63-19.5-18.77-29.37-2.17-3.48-4.53-4.83-8.43-4.83v-.82ZM53.26,471.3c1.1.09,2,.16,2.8.16l117.43,0h92.28c4.61,0,4.61,0,4.62-4.73q0-14.14,0-28.31v-9c0-3.49-1.43-5.42-4.35-5.9l-.87-.14a71.63,71.63,0,0,0-11.47-1.26c-44.37-.09-89.49-.09-133.13-.09H90.19c-.4,0-.81,0-1.22-.07s-.74-.06-1.1-.06a2.79,2.79,0,0,0-1.11.18l-.49.21c-1.7.72-3.64,1.55-4.48,2.81-4.84,7.27-9.57,14.79-14.15,22.07q-2,3.12-3.92,6.22c-2.58,4.09-5.15,8.19-7.9,12.57l-3.3,5.27Zm228.79-.65c1.16,0,2.68,0,4.23.06h.33a3.34,3.34,0,0,0,2.46-.75,3.49,3.49,0,0,0,.68-2.63c-.07-2.15-.05-4.34,0-6.45,0-.94,0-1.88,0-2.82v-.81h0v-.12c0-.67,0-1.33,0-2-.06-2.21,0-4,0-5.42.05-2.49.08-4-.44-4.52s-1.76-.57-3.83-.57l-2.13,0c-1,0-2.17,0-3.49,0H278c-1.66,0-2.37.69-2.37,2.23q0,10.72,0,21.44c0,1.6.69,2.29,2.29,2.29Zm.64-34.28c-1.94,0-3.91.06-5.83.17a2.65,2.65,0,0,0-1,1.42,2.43,2.43,0,0,0,1.22,1.37,11.74,11.74,0,0,0,2.12.16l1.56,0,.8,0h0l.81,0,1.72,0c.56,0,1.12,0,1.68,0a14.06,14.06,0,0,0,2.32-.16,2.45,2.45,0,0,0,1.35-1.42,2.64,2.64,0,0,0-1-1.37C286.57,436.43,284.62,436.37,282.69,436.37Zm209-9.54,8.39,12.41A81,81,0,0,0,491.73,426.83ZM77.88,422.3a114.13,114.13,0,0,0-8.12,12.27Zm207.4,8.85c.54,0,1.08,0,1.62,0h.36a2.53,2.53,0,0,0,1.88-.58,3.29,3.29,0,0,0,.63-2.36c0-2.57-.43-3.72-2.7-3.74h-4.8c-1.33,0-2.66,0-4,0h-.19c-2.07,0-3,1-3.18,3.31a3.21,3.21,0,0,0,.62,2.42,3.56,3.56,0,0,0,2.59.93c.56,0,1.13,0,1.7,0h3.68v0h1.78Zm-3.2-24.26c-2.24,0-4.31.07-6.33.21a5.35,5.35,0,0,0-3.27,2.15,34.41,34.41,0,0,0-3.3,6.59c-.59,1.43-.76,2.36-.51,2.76s1.12.61,2.6.68c1.25.06,2.59.08,4.21.08l3.33,0,2.52,0,.82,0h3.5l3.5,0c1.83,0,3.34,0,4.73-.06a2.35,2.35,0,0,0,2-.71,2.32,2.32,0,0,0-.22-2.06l-.45-1a58.27,58.27,0,0,0-3.42-6.79,4,4,0,0,0-2.68-1.62C286.54,407,284.25,406.89,282.08,406.89ZM85.39,416.72c1.43.11,2.56.2,3.67.2q83.79,0,167.56.05c.38,0,.78,0,1.18,0s.72.05,1.07.05a3.11,3.11,0,0,0,1.18-.18c1.63-.68,3.57-1.5,4.2-2.66,2.9-5.38,5.44-10.73,4.57-17a20.47,20.47,0,0,1,3-13.39,62.55,62.55,0,0,0,3.84-7.81c1.11-2.67,1.22-4.75.34-6.17s-2.78-2.21-5.64-2.38c-.43,0-.88,0-1.32,0H206.51c-25.6,0-55.94,0-86.9-.06l0-.82v.82a7.54,7.54,0,0,0-7.15,4C107.28,379.64,102,388,96.83,396.05q-4.33,6.81-8.66,13.63c-1,1.53-1.89,3.12-3,5l-1.15,2Zm209.72-49.28c-.52,0-1.21,0-1.9.05-2.6.17-4.42,1-5.24,2.4s-.65,3.31.43,5.6c1,2,2,4,3,6,1.18,2.35,2.4,4.78,3.52,7.21.82,1.77,1.53,3.63,1.21,5.27-1.17,6.12,0,12.06,3.63,19.26,1.32,2.57,2.48,3.8,5.54,3.8,40.32-.06,81.31-.07,121-.07h52.61a14.16,14.16,0,0,0,2.31-.27l.59-.09-20.25-30.3.16-.13-.17.1c-.84-1.4-1.68-2.81-2.53-4.21-1.95-3.2-4-6.52-5.75-9.89s-4.26-4.78-8.68-4.78c-22.22.07-45.95.1-77,.1H295.11Zm-10.79,34.42c.53,0,1.07.05,1.6.05a8.41,8.41,0,0,0,1.95-.19,4.84,4.84,0,0,0,1.85-1.3l.26-.23-.33-.3c-.62-.58-1.26-1.18-1.77-1.22-1.83-.14-3.77-.21-5.74-.21s-3.83.06-5.84.18c-.42,0-1,.58-1.55,1.07l-.26.23.31.33a4.52,4.52,0,0,0,1.76,1.4,11.37,11.37,0,0,0,2.35.21c.61,0,1.22,0,1.83-.06s1.27-.05,1.9-.05h.82v.05Zm179.79-21.32,13.66,21.17C473.67,394.94,468.56,387,464.11,380.54ZM275.43,393.15c3.08.13,6.15.15,8.76.15h7.08l-9.09-18.37-.26,0-1.58,3.38c-2,4.27-4.07,8.7-5.94,13.12A4.57,4.57,0,0,0,275.43,393.15Zm5.51-26.43c.29.38.82,1.1,1.06,1.13h0a4.57,4.57,0,0,0,1.45-.93l.63-.49-.56-.44a4.43,4.43,0,0,0-1.36-.89v0c-.3,0-.83.61-1.21,1l-.25.27Zm1.49-7.71a5.67,5.67,0,0,1,4.1,1.76c2.16,2.12,4.8,2.3,7.53,2.3L393,363h51.9c.95,0,1.92,0,3.15-.12l1-.05-.34-.66c-.48-.92-.83-1.58-1.23-2.21q-3.61-5.78-7.27-11.52c-5.65-8.9-11.48-18.11-17-27.29-2.25-3.72-4.8-5.17-9.11-5.17q-58.62.06-117.22.06c-50.57,0-97.15,0-142.42-.11-5.17,0-8.54,1.91-11.29,6.38-5,8.14-10.2,16.35-15.21,24.3q-4.23,6.71-8.43,13.41a17.68,17.68,0,0,0-1.16,2.31l-.22.49.82.06c1.1.07,2,.12,2.85.12H189c32.06,0,56.82,0,80.28-.11,2.68,0,5.5-1.28,8.22-2.52l.37-.16A11.39,11.39,0,0,1,282.43,359Zm134.16-47.52,0-.09a4.85,4.85,0,0,0-.38-.88l-1.21-.47a15.37,15.37,0,0,0-5.37-1.44c-58.52-.07-115.62-.08-163.75-.08H157.6c-1.08,0-2,0-2.9,0a4.39,4.39,0,0,0-4,2.9Zm-149.84-7.25c3.79,0,7.59,0,11.39.08l2.88,0c9.83.1,19.82.29,29.48.47l3.9.07a6.24,6.24,0,0,0,5.8-3.05c2.9-4.5,6.1-9.27,10.07-15,1.49-2.14,2.5-3.23,3.94-3.23,1.15,0,2.3.76,3.9,2.08,4.74,3.91,9.27,7.86,13.08,11.22a7.32,7.32,0,0,1,1.43,1.95c.17.28.33.56.51.83l.4.58-2.13,1.91-17-14.24-10.83,15.94h88.16l0-.06a8.72,8.72,0,0,0-.67-1.42c-1.91-3-3.85-6-5.79-9-4.28-6.65-8.72-13.52-12.77-20.46-2.38-4.08-5.24-5.6-10.55-5.6-42.21.09-83.83.1-122.52.1H186.51l-.84,0h-.87l-.85,0-.38,0c-1.83,0-3.13.83-4.33,2.76-3.33,5.35-6.78,10.74-10.12,16-2.11,3.3-4.23,6.6-6.33,9.91-1.22,1.93-2.4,3.93-3.65,6-.37.64-.76,1.29-1.15,2H245.2l-10.44-16-3.28,2.83c-3.38,2.91-6.57,5.67-9.82,8.38a20,20,0,0,1-2.89,1.87l-1.89,1.11-1.55,1,.33-1.8c.11-.64.17-1.08.21-1.39a1.77,1.77,0,0,1,.44-1.18c5.69-5,10.83-9.58,16.05-14.12a3.66,3.66,0,0,1,2.39-1c1.55,0,2.6,1.33,3.26,2.33,1,1.56,2.06,3.12,3.1,4.68,2,3.05,4.13,6.21,6.1,9.39,1.7,2.73,3.45,4.43,6.93,4.43h.38C258.2,304.3,262.09,304.24,266.75,304.24Zm-114.29-1.36,2.07-3.28-2.19,3.2Zm18.84-29.32-3.61,5.93A47.81,47.81,0,0,0,173,270.7ZM214,262.18c19.63,0,39.59.21,58.89.41s39.25.42,58.88.42c19.87,0,37.41-.22,53.55-.67a2.44,2.44,0,0,1-.1-.24,20.4,20.4,0,0,0-1.33-2.69q-3.29-5.19-6.61-10.36c-3.92-6.1-8-12.41-11.82-18.71-1.85-3-4-4.2-7.82-4.2-24.28.06-48,.08-70.61.08-27.06,0-53.64,0-79-.11-4.12,0-6.49,1.31-8.52,4.66-3.89,6.44-8,12.91-11.93,19.16-2,3.11-3.93,6.22-5.88,9.34a19.21,19.21,0,0,0-1.09,2.07c-.12.25-.23.5-.35.74l.11.34C190.79,262.26,201.8,262.18,214,262.18Zm145.3-41.41-9.42-14.84q-9-14.15-17.93-28.32a5.42,5.42,0,0,0-5.18-2.77q-21.86,0-43.66,0-22.53,0-45,0l0-.81v.81a5.22,5.22,0,0,0-5.1,2.79c-5.68,9.12-11.52,18.35-17.17,27.28q-4.64,7.33-9.26,14.66a5.22,5.22,0,0,0-.43,1.21ZM354,202.91c3.65,6.12,7.45,11.77,10.88,16.74l.08-.05Zm-146.59,5.36a98.23,98.23,0,0,0-6.08,9.91Zm13-19.84c2-3,3.93-6.14,5.79-9.18q1.35-2.22,2.72-4.42l-.06,0Zm106.49-19.15-.18-.33c-.48-.86-.85-1.55-1.27-2.19l-6.88-10.71c-7.63-11.9-15.53-24.2-23.36-36.25-3-4.66-6.22-9.33-9.31-13.85q-2-2.94-4-5.89l-6.47,10.51-.12-.08.11.09L267,123.25l0,0-29.82,46Zm-90-9a44.23,44.23,0,0,0-3.62,5.9Zm81.22-14.08c4.09,6.45,8.23,12.95,12.35,19.37l.1.14a25.66,25.66,0,0,0-1.29-2.3C325.44,157.41,321.62,151.53,318.12,146.18Z"/><path d="M78,416.94c1.66-2.37,3.42-4.67,5-7.12,2.89-4.59,5.66-9.26,8.48-13.9h0q12.19-19.34,24.38-38.67h0q3-4.62,5.89-9.25h0q8-12.28,16-24.59c2.21-3.4,4.45-6.79,6.57-10.24,1.87-3.05,4.27-5.85,3.73-9.93-.16-1.18.81-2.65,1.56-3.79,8.18-12.52,16.47-25,24.64-37.5q11.22-17.2,22.2-34.56c.59-.92,1.09-2.7.62-3.36-2.43-3.36-.84-6.11.93-8.88q8.39-13.08,16.82-26.11c3.95-6.1,8.87-11.74,11.83-18.28,8.31-18.34,20.94-34,31.18-51.06,6-9.95,12.46-19.59,18.83-29.3,3.94-6,6.93-5.84,10.78.29,1,1.52,2.18,2.88,3.28,4.31h0c3.64,6,7.17,12,11,17.85,10.54,16.32,21.75,32.24,31.64,48.93,10.82,18.27,23.24,35.48,34.17,53.65,1.69,2.81,2.91,5.29.86,8.5-.52.81-.05,2.72.58,3.73q21,33.37,42.14,66.67c13,20.42,25.85,40.88,39,61.2,1.81,2.81,4.75,4.87,7.06,7.38a65.15,65.15,0,0,1,5,6.1c2.36,3.29,4.53,6.72,6.78,10.09l0,0,.83.84h0a37.49,37.49,0,0,0,2,4.12c4.85,7.53,9.76,15,14.66,22.52,2.13,3.26,4.71,6.31,4.62,10.58a4.6,4.6,0,0,0,1.06,2.22c11.38,17.48,22.81,34.92,34.13,52.43,3.48,5.39,1.27,9.06-5.4,9.08q-35.94.06-71.87,0H47.62c-9.08,0-10.27-1.84-6.59-10.19h0q9.62-14.7,19.21-29.4c4.17-6.43,8.14-13,12.46-19.32,1.35-2,3.52-3.4,5.32-5.08ZM332.71,169h0v-.83c-.9-1.74-1.68-3.55-2.73-5.19q-7.26-11.31-14.65-22.54c-3.14-4.79-6.34-9.53-9.51-14.3q-7.57-11.76-15.13-23.53l-8.71-14-2.21,3.88-.85.83-1.68,3.36-16.8,26.07-1.68,2.52q-3,4.62-5.89,9.24l-.85.84-2.51,4.21q-5,8-10.09,16c-3.08,4.05-6.21,8.09-8,12.87l1.06.63,7.77-12.67,10.08-16q1.26-2.1,2.53-4.2l.83-.84q3-4.62,5.89-9.25l1.68-2.52,16.81-26,1.68-3.37.84-.84c1.16.57,2.67.86,3.41,1.77,2.11,2.64,3.92,5.53,5.85,8.32L305,126.94c8.26,13,16.49,26.07,24.82,39.05.61.95,1.93,1.44,2.92,2.14Zm16.81,26.89v.84a265.8,265.8,0,0,0,15.15,24.06l1.43-.94q-7.87-12-15.74-24ZM164.6,285l1.68-2.53c4.26-4.6,9.53-13.63,8.84-16.71l-9.68,15.88-1.68,2.52-2.52,4.2L151.2,303l1.51,1,9.36-14.84Zm47.07-82.38,5-7.57c5-6.49,9-13.56,13.33-20.45l-1.46-.9-12.7,20.52-5.06,7.56-.83,1.69A97.28,97.28,0,0,0,199.48,220l1.22.77q5.07-8.25,10.12-16.5ZM507.55,452.24l12.61,19.33,1.2,3.95c-2.36.1-4.27.26-6.18.26H51.71a13.34,13.34,0,0,1-3.35-.08,15.71,15.71,0,0,1-3.12-1.62q11.34-17.65,22.7-35.3L79,422l-1.32-.88A100.89,100.89,0,0,0,67.1,438c-3.13,4.57-6.37,9.07-9.34,13.73-4.55,7.13-8.91,14.38-13.35,21.58-1.85,3.45-1.67,3.91,1.77,4.14,1.4.09,2.8,0,4.2,0h343.7q62.18,0,124.37,0c1.82,0,3.64-.35,6.55-.64-1.76-2.66-2.89-4.34-4-6L508.38,451.4q-2.94-4.62-5.89-9.24c-3.38-7.42-11.65-19.21-14.77-19.82L501.66,443Q504.62,447.61,507.55,452.24Zm-226.11-353q-3.37,5.46-6.73,10.93h0q-4.18,6.3-8.39,12.6l0,0c-10.07,15.52-20.13,31.05-30.69,47.34h92.67c-.94-1.66-1.5-2.76-2.16-3.78-10.06-15.67-20.09-31.35-30.24-47-4.41-6.79-9.06-13.43-13.61-20.14ZM386.5,263.12h0a39.21,39.21,0,0,0-2-4.13c-6.13-9.7-12.43-19.28-18.42-29.06-2.09-3.41-4.61-4.6-8.56-4.59q-74.79.15-149.57,0c-4.34,0-7,1.41-9.21,5-5.8,9.58-11.87,19-17.81,28.48-.63,1-1.09,2.12-1.63,3.19l.4,1.22C248.66,262.15,317.57,265.11,386.5,263.12Zm75.65,122.71h0c-2.77-4.68-5.71-9.27-8.26-14.07-2.1-3.95-5-5.22-9.47-5.21-49.16.14-98.33.08-147.49.07-1.26,0-2.52,0-3.78.05-5.83.38-8,3.92-5.49,9.16,2.1,4.43,4.42,8.75,6.47,13.2.68,1.47,1.43,3.3,1.15,4.77-1.36,7.14.48,13.48,3.71,19.78,1.46,2.87,2.93,4.25,6.27,4.24q86.78-.12,173.55-.08a39,39,0,0,0,4.29-.56Zm-11.73-22.22c-1.05-1.93-1.56-3-2.21-4.06-8.11-12.91-16.4-25.73-24.29-38.79-2.41-4-5.23-5.57-9.82-5.56q-129.8.1-259.61-.05c-5.62,0-9.17,2.18-12,6.76-7.79,12.63-15.77,25.14-23.65,37.71-.67,1.08-1.12,2.3-1.93,4,2.17.11,3.55.24,4.92.24,49.15,0,98.3.08,147.45-.08,3,0,6.1-1.48,8.93-2.76s5.37-2,7.74.36,5.12,2.53,8.14,2.52q75.4,0,150.81,0C446.41,363.85,447.92,363.72,450.42,363.61ZM334.25,286.72l-12.2,18H413a22.41,22.41,0,0,0-1.23-2.74c-6.21-9.81-12.7-19.45-18.55-29.47-2.74-4.7-6.17-6-11.31-6q-97.69.19-195.38.09c-.84,0-1.68.05-2.52,0-2.51-.14-4.11,1-5.44,3.13-5.4,8.67-11,17.24-16.44,25.87-1.82,2.87-3.51,5.82-5.56,9.24h90.16c-4.12-6.31-7.8-11.95-11.78-18-4.9,4.21-9.3,8.06-13.79,11.8a45.33,45.33,0,0,1-4.68,2.92c.29-1.59.24-2,.4-2.11q8-7.08,16-14.12c1.93-1.68,3.29-.65,4.44,1.11,3.06,4.69,6.24,9.3,9.19,14.06,1.9,3.06,4,4.94,8,4.81,8.81-.31,17.64-.17,26.46-.08,11.06.11,22.11.33,33.16.54a7.14,7.14,0,0,0,6.72-3.43c3.25-5.06,6.63-10,10.05-15,2.48-3.58,3.33-3.72,6.65-1,4.42,3.65,8.75,7.42,13.06,11.21a12.92,12.92,0,0,1,1.8,2.62l-1.06,1ZM514.91,472.31c.17-.37.35-.74.52-1.1-.79-1.28-1.55-2.58-2.36-3.84-8.79-13.65-17.71-27.2-26.28-41-2.28-3.66-4.88-5.22-9.14-5.22q-85.89.12-171.77.07a23.28,23.28,0,0,0-6.59.94c-4.66,1.42-5.23,2.34-5.24,7.23q0,18.27,0,36.53c0,6.18.19,6.37,6.38,6.37H514.91ZM51.11,472c2.26.16,3.61.33,5,.33q104.85,0,209.71,0c5.16,0,5.43-.28,5.43-5.53q0-18.66,0-37.32c0-3.49-1.38-6.11-5-6.7a79.78,79.78,0,0,0-12.47-1.42q-81.75-.15-163.48-.09c-1.26,0-2.68-.34-3.75.12-1.92.83-4.26,1.72-5.33,3.32C74.91,434,69,443.5,63,453,59.23,459,55.46,465,51.11,472ZM82.7,417.34c2.85.19,4.61.4,6.36.4l167.56,0c1.26,0,2.67.31,3.75-.14,1.69-.71,3.82-1.59,4.6-3,2.92-5.42,5.56-11,4.66-17.52a19.58,19.58,0,0,1,2.85-12.86,64.43,64.43,0,0,0,3.89-7.91c2.45-5.91.29-9.31-6-9.68-.56,0-1.12,0-1.68,0q-74.53,0-149.08-.06a8.33,8.33,0,0,0-7.86,4.39c-8,12.82-16.19,25.53-24.27,38.29C86,411.57,84.67,414,82.7,417.34ZM360.1,221.59c0-.61,0-.94-.09-1.14-9.14-14.42-18.32-28.82-27.42-43.27A6.25,6.25,0,0,0,326.7,174q-44.34.09-88.68,0a6,6,0,0,0-5.81,3.17c-8.73,14-17.62,28-26.42,41.94a11.55,11.55,0,0,0-.82,2.46ZM149.44,312.31H417.8c-.56-1.19-.74-2.33-1.27-2.53-2.25-.84-4.61-2-6.93-2q-126-.14-252-.07c-1,0-2,0-2.94.06C152,307.91,150.46,309.46,149.44,312.31ZM290.55,458.07h0c0-1,0-2,0-2.94-.32-13.09,2.61-11.14-12.19-11.26h-.42c-2,0-3.17.95-3.18,3q0,10.72,0,21.44a2.75,2.75,0,0,0,3.09,3.11c2.81,0,5.61-.05,8.41,0,3,.12,4.42-1.12,4.32-4.2S290.55,461.15,290.55,458.07Zm-8.4-37.94v0c3.92,0,7.84.08,11.75,0,2.59-.07,3.57-1.47,2.46-3.91a67.22,67.22,0,0,0-3.92-7.88,4.82,4.82,0,0,0-3.33-2,109.25,109.25,0,0,0-13.42,0,6.06,6.06,0,0,0-3.88,2.5,34.55,34.55,0,0,0-3.38,6.74c-1.39,3.36-.78,4.4,2.8,4.56S278.51,420.13,282.15,420.13Zm.56-46-1.29-.1c-2.63,5.66-5.34,11.29-7.77,17-.28.66,1,2.86,1.62,2.88,5.36.24,10.73.14,17.32.14C288.94,386.73,285.83,380.43,282.71,374.13Zm0,57.83v0c1.39,0,2.79-.07,4.18,0,2.68.14,3.75-1.1,3.72-3.75,0-2.49-.41-4.52-3.5-4.54-2.92,0-5.85,0-8.78,0s-4,1.46-4.2,4.06c-.19,2.81,1.31,4.12,4,4.23C279.61,432,281.15,432,282.68,432Zm171.88-64.71,31.58,48.93C486.2,412,458.4,368.78,454.56,367.25ZM282.64,402.58v0c1.82,0,3.7.3,5.42-.1,1.17-.28,2.12-1.52,3.17-2.33-1.09-.82-2.14-2.25-3.28-2.34a86.19,86.19,0,0,0-11.7,0c-1,.07-2,1.35-3,2.07,1,.89,2,2.32,3.12,2.56C278.39,402.89,280.55,402.58,282.64,402.58Zm-.29,37.65v0a35.75,35.75,0,0,0,5.86-.1,3.09,3.09,0,0,0,2-2.13c.08-.71-1-2.22-1.68-2.26a109.28,109.28,0,0,0-11.73,0c-.69,0-1.8,1.47-1.79,2.25a3,3,0,0,0,1.88,2.16A29.87,29.87,0,0,0,282.35,440.23Zm53.89-266.62-1.48.7q6.53,10.08,13,20.16l1.36-.88Q342.71,183.6,336.24,173.61ZM285.47,366.44c-1.61-1.09-2.56-2.24-3.39-2.15s-1.66,1.32-2.48,2.06c.76.82,1.46,2.21,2.31,2.3S283.76,367.58,285.47,366.44Z"/><polygon points="121.12 347.48 121.12 347.47 122.35 348.55 121.12 347.48"/><path d="M121.73,348Z"/><polygon points="115.24 356.72 115.24 356.71 116.46 357.8 115.24 356.72"/><path d="M115.85,357.25h0Z"/><path d="M468.87,379.1h.85l-.83,0Z"/><path d="M469.71,379.11V380h0v-.86Z"/><path d="M91.47,395.92Z"/><path d="M91.47,395.92Z"/><polygon points="77.46 416.35 77.47 416.34 78.59 417.52 77.46 416.35"/><path d="M78,416.93h0Z"/><polygon points="290.13 95.61 291.22 94.39 290.14 95.62 290.13 95.61"/><path d="M290.68,95h0Z"/><polygon points="40.42 470.2 40.42 470.2 41.66 471.26 40.42 470.2"/><path d="M41,470.73h0Z"/><path d="M431.71,356.9c-.28-.31-.58-.6-.88-.9a13.57,13.57,0,0,1-1.95-2.24c-5-7.81-9.09-14.24-12.79-20.23-1.75-2.83-3.76-4.09-6.52-4.09l-.61,0c-1.2.07-2.48.11-4,.11l-3.16,0-2.59,0v0l21.3,27.26H344.24l2-5.7.67.23-.53-.48,3.85-4.57c3.07-3.64,6.24-7.4,9.32-11.13,1.18-1.42,2.32-2.92,3.43-4.37.91-1.19,1.83-2.38,2.77-3.55,1.18-1.48,2.23-2.46,3.52-2.46s2.57,1.21,3.64,2.51,2.21,2.86,3.23,4.29c.75,1,1.51,2.11,2.3,3.13s1.5,1.78,2.41,2.77l.72.8,1.92-2.53a84.19,84.19,0,0,1,5.84-7.24,10.15,10.15,0,0,1,6.06-3.14c2.37-.17,4.89-.26,7.49-.26s5.49.09,8.55.27c1.85.11,4.41,1.1,5.52,2.73,4.73,6.94,9.31,14.15,13.75,21.12l2.46,3.88a4.71,4.71,0,0,1,.58,1.78c0,.23.09.46.15.67l.14.54-1.81,1.35Zm-81.12-4c.34,0,.66,0,1,0a6.37,6.37,0,0,0,5.66-2.88c2.09-2.86,4.47-5.92,7.51-9.62,2.15-2.62,3.43-3.87,4.93-3.87s2.8,1.36,4.88,4.21c.33.45.66.91,1,1.37.63.89,1.28,1.82,2,2.67.93,1.13,1.89,2.23,3,3.5l1,1.14,8.59-10.74c.75-.93,1.92-2.17,3.41-2.17,1.13,0,2.18.68,3.22,2.07,1.51,2,3.11,4,4.65,5.92s3,3.7,4.41,5.6a6.12,6.12,0,0,0,5.23,2.77,10.92,10.92,0,0,0,1.45-.11l-18.88-23.71c-.5.7-1,1.36-1.45,2-1.39,1.92-2.59,3.57-3.85,5.22s-2.57,3.26-4,5c-.65.8-1.33,1.63-2,2.52l-.63.78-12.48-15.3Zm52.27-.2-9.4-11.92-7.09,8.86a24,24,0,0,1-2.76,3.06Zm-24,0a22.89,22.89,0,0,1-2.7-3.13c-1.57-2.06-3.2-4.12-4.92-6.3l-1.89-2.41-4.06,6-5.43,5.86Z"/><path d="M347,351.38c4.4-5.23,8.83-10.44,13.18-15.71,2.14-2.59,4.1-5.32,6.2-7.93,2.3-2.86,3.46-2.9,5.91.06,2,2.37,3.63,5,5.51,7.4,1.09,1.4,2.34,2.68,3.82,4.34,2.95-3.79,5.39-7.36,8.31-10.49a9.3,9.3,0,0,1,5.52-2.88,121,121,0,0,1,15.93,0,7.05,7.05,0,0,1,4.9,2.37c5.58,8.2,10.86,16.61,16.19,25a7.92,7.92,0,0,1,.63,2.22l-.78.59a24.43,24.43,0,0,1-2.74-3q-6.48-10.05-12.79-20.22c-1.85-3-4.16-4.69-7.87-4.45-3.42.21-6.86,0-10.29,0l-.38,1L418.79,356h-73.4l1.61-4.61Zm17.66-5.06c-2,2.18-4,4.35-6.67,7.2h46.56l-11.07-14-7.74,9.66c-4.12,5.14-5,5.12-8.93-.05-2.32-3.05-4.72-6-7.51-9.6l-4.65,6.85Zm49.28,7-20.38-25.59c-2.31,3.15-4.07,5.64-5.92,8.06s-3.74,4.68-6,7.48L369.16,328c-6.86,8.71-13.28,16.88-20.1,25.55,4.15.69,6.76-.15,8.83-3,2.38-3.27,4.91-6.45,7.48-9.58,4-4.84,4.82-4.78,8.52.3,1,1.35,1.92,2.76,3,4.07,1.37,1.68,2.83,3.29,4.67,5.4,3.31-4.15,6.25-7.83,9.2-11.5,1.73-2.16,3.37-2.75,5.34-.12,2.93,3.91,6.11,7.62,9.06,11.52C407.21,353.4,409.76,354.32,413.93,353.34Z"/><path d="M133.06,356.19l.21-.6c.09-.25.16-.51.24-.76a7.21,7.21,0,0,1,.74-1.89q2.91-4.65,5.86-9.3c3-4.75,6.1-9.66,9.09-14.52a7.45,7.45,0,0,1,6.93-3.95h.34c2.65.07,5.4.11,8.16.11s5.68,0,8.61-.11h.28a7.83,7.83,0,0,1,6.77,3.59c1.68,2.31,3.47,4.58,5.36,7l2,2.56,1.57-2c1.6-2.06,3.07-4,4.55-5.83,1.06-1.34,2.17-2.63,3.24-3.89a3.88,3.88,0,0,1,2.86-1.59,3.8,3.8,0,0,1,2.93,1.73q10.39,13.17,20.76,26.39a4.87,4.87,0,0,1,.72,1.52c.11.31.23.66.4,1.06l.46,1.13H149.79l.78-1.25c.39-.63.73-1.21,1.06-1.77a30,30,0,0,1,2-3.06c4-5.2,8.1-10.45,12.07-15.53l4.19-5.38.26-.27h-2.71l-4.25,0c-3.11,0-5.49,0-7.71.11A3.58,3.58,0,0,0,153,331c-2.25,3.42-4.42,7-6.52,10.44l-2.22,3.66-.23-.14.21.17-1.7,2.46c-1.39,2-2.83,4.11-4.29,6.13a25,25,0,0,1-1.9,2.28c-.29.33-.58.65-.86,1l-.47.54Zm24.11-2.77,1-.24a7.92,7.92,0,0,0,3-1.08,27.93,27.93,0,0,0,4.36-4.46l.71-.85c2.08-2.42,4.12-4.89,6.27-7.51l2.9-3.51.64-.77,11.49,14.45,2.21-2.67c2-2.4,3.86-4.67,5.68-7s2.94-3.41,4.26-3.41,2.61,1.37,4.13,3.32l1.05,1.35c2.43,3.13,4.95,6.36,7.53,9.45,1.41,1.69,2.68,2.45,4.12,2.45h0a5.18,5.18,0,0,0,1.54-.26L199.76,329.1l-12,15.64L184,340c-2.15-2.77-4.14-5.35-6.15-7.91-.8-1-1.69-2.07-2.21-2.07s-1.37,1-2.15,2l-2.83,3.56c-1.84,2.31-3.68,4.62-5.49,6.95-2,2.55-3.92,5.13-5.87,7.7-.75,1-1.51,2-2.27,3Zm27.65-.67.09-.13L176,340.93l-9.32,11.82ZM209,352.7l-3.8-4.14.45-.43-.5.36-5.44-7.67-9.56,11.88Z"/><path d="M170.49,330.35l1.55-1.62c-5.93,0-11.28-.09-16.61.08a4.45,4.45,0,0,0-3.09,1.72c-3,4.63-5.86,9.4-8.76,14.12h0c-2,2.87-3.94,5.76-6,8.59-.81,1.13-1.8,2.13-2.72,3.2l-.85-.57a12.94,12.94,0,0,1,.9-2.49c5-7.95,10.05-15.84,15-23.83a6.73,6.73,0,0,1,6.55-3.55c5.6.16,11.21.15,16.81,0a7,7,0,0,1,6.37,3.24c2.44,3.36,5.07,6.59,8,10.4,2.52-3.23,4.62-6,6.76-8.66,1-1.32,2.13-2.59,3.22-3.87,1.54-1.8,3.08-1.72,4.53.11q10.4,13.19,20.76,26.39a11.72,11.72,0,0,1,1,2.39H151.26c1.18-1.89,2-3.42,3-4.77,5.37-7,10.8-13.91,16.22-20.86ZM205.78,348h0l-6.06-8.54-11.3,14h22.41Zm-6-20.24c-4.29,5.57-8,10.45-12.06,15.64-3.38-4.36-6.26-8.11-9.19-11.84-2.48-3.17-3.2-3.16-5.64-.08-2.77,3.5-5.59,7-8.32,10.51-2.86,3.69-5.66,7.44-8.48,11.15l.72,1.22c1.67-.51,3.63-.63,4.93-1.62a34.78,34.78,0,0,0,5.2-5.43c3-3.47,5.86-7,9.17-11l11.5,14.46c3.12-3.8,5.88-7.08,8.54-10.42,3.28-4.12,4-4.14,7.1-.1,2.84,3.63,5.65,7.28,8.6,10.82,1.84,2.21,4.07,3.7,7.59,2Zm-14.5,25.79.65-1-9.89-13-11,14Z"/><path d="M299.22,357.24H268.86c-5.75,0-11.49,0-17.24,0a33.64,33.64,0,0,1-3.82-.34c-.75-.1-1.58-.21-2.53-.31l-1.29-.13,2.9-4.69c1.46-2.36,2.75-4.44,4.06-6.5.87-1.38,1.77-2.75,2.66-4.12,1.6-2.45,3.26-5,4.75-7.53,2.86-4.89,6.81-7.16,12.42-7.16.64,0,1.32,0,2,.09,3.9.33,8,.48,13,.48,3.68,0,7.41-.08,11.23-.18h.4c4.05,0,6.68,1.53,8.82,5.12s4.34,7,6.53,10.35c1.56,2.4,3.18,4.88,4.72,7.35a18.09,18.09,0,0,1,1.49,3.42c.18.51.35,1,.55,1.52l.34.84-.87.24c-.56.16-1.11.36-1.66.56a12.71,12.71,0,0,1-4,.94C309.3,357.22,304.93,357.24,299.22,357.24ZM315,352.51l-12.78-19-.7.81a24.56,24.56,0,0,1-2.29,2.47c-.38.35-.77.73-1.16,1.11-1.32,1.3-2.68,2.65-4.37,3.07a13.25,13.25,0,0,0-7.48,4.79,4.07,4.07,0,0,1-3.06,1.86c-1.09,0-2.13-.64-3.27-2l-.19-.22c-.93-1.11-2.48-3-3.46-3h-.13c-4.08,0-6.68-2.26-9.19-4.45l-.33-.28-.08-.09-.74-1c-.61-.8-1.18-1.57-1.82-2.28l-.33.06-.28.06c-4.9,5.34-8.46,11.5-12.11,18Zm-34.13-12c.9,1.26,1.5,2,2.31,2h0a2.75,2.75,0,0,0,1.33-.45,3.09,3.09,0,0,0,1.59-1.94,1.45,1.45,0,0,0-.56-1.22,2.68,2.68,0,0,0-1.83-.88c-1,0-2.16.85-3.25,1.87C280.61,340.15,280.75,340.34,280.88,340.54ZM266.55,331c.33.39.65.79,1,1.19a41.84,41.84,0,0,0,3,3.48c1.59,1.59,3.07,2.36,4.53,2.36s3-.83,4.6-2.52c1.33-1.42,2.47-2.06,3.69-2.06s2.31.58,3.71,1.89c1.81,1.67,3.26,2.49,4.44,2.49,1.34,0,2.62-1,4.14-3.34l0-.11L296,334l2.69-3v0Z"/><path d="M245.36,355.74c2.46-4,4.34-7,6.27-10.08,2.46-3.89,5.1-7.69,7.43-11.67,3.12-5.33,7.41-7.2,13.66-6.67a222,222,0,0,0,24.34.3c4-.09,6.48,1.33,8.5,4.73,3.57,6,7.56,11.77,11.26,17.71a31.34,31.34,0,0,1,2,4.81c-1.81.51-3.61,1.44-5.43,1.47-9.52.15-19,.07-28.56.07-11.06,0-22.12,0-33.19,0C249.87,356.38,248.12,356,245.36,355.74Zm51.2-21.17,3.09-3.43-.51-1h-33l-.58.87c1.47,1.74,2.81,3.6,4.42,5.2,3.52,3.5,6.86,3.48,10.3-.19,2.2-2.35,3.82-2.39,6.26-.13,4.36,4.05,7,3.53,10.05-1.37Zm-29.4,2.53,0,0c-.9-1.17-1.75-2.38-2.75-3.47-.2-.21-.95.07-1.44.13h0c-5.31,5.71-9.07,12.39-13.1,19.6h66.69l-14.22-21.13c-1.58,1.76-2.5,3-3.62,4-1.64,1.47-3.24,3.52-5.18,4a14.09,14.09,0,0,0-7.93,5.07c-1.8,2.23-3.3,1.95-5.07-.16-1.19-1.43-2.85-3.5-4.28-3.49C272.23,341.65,269.78,339.38,267.16,337.1Zm12.22,2.77c1.62,2,2.59,4.72,5.56,2.95,1.49-.9,3-2.75,1.17-4.45C283.74,336.12,281.63,337.65,279.38,339.87Z"/><path d="M332.35,348.47c-1.3,0-2.37-1.17-3.33-2.43-2.3-3-4.51-6.2-6.64-9.27q-1.67-2.38-3.34-4.76c-1.78-2.5-1.43-5,1.06-7.4,3.21-3.1,7.26-4.74,13.16-5.31l.15,0,.15.05c.46.13,1,.25,1.5.38a22.7,22.7,0,0,1,4.18,1.3c2.51,1.14,5.95,3,6.72,6.16.55,2.24-.3,4.75-2.58,7.69-1.66,2.13-3.2,4.43-4.69,6.66-.95,1.43-1.93,2.9-2.94,4.32C334.62,347.42,333.62,348.47,332.35,348.47Zm-.64-7.56a6,6,0,0,0,.5.72l.05.07,0-.05a4.74,4.74,0,0,0,.6-.73,4.81,4.81,0,0,0-.5-.52l0,0,0,0A5.3,5.3,0,0,0,331.71,340.91Zm-4.44-6a3.16,3.16,0,0,0,1.9.81h.94c1.31,0,2.64-.08,3.94-.16l1.75-.1c.19-.12.41-.24.62-.35s.46-.25.65-.37a3.16,3.16,0,0,0-1-1.46,6.71,6.71,0,0,0-3.82-.94,7.09,7.09,0,0,0-4.29,1.16A3.08,3.08,0,0,0,327.27,334.89Zm5-11.1-2.17.88c-2.24.89-4.35,1.74-6.36,2.76a3,3,0,0,0-.22,1.75,3.53,3.53,0,0,0,1.34.32.94.94,0,0,0,.23,0,13.91,13.91,0,0,1,7.27-2.21,14.27,14.27,0,0,1,7,2,.57.57,0,0,0,.25,0,5.51,5.51,0,0,0,1.13-.2l.18,0-.06-.33a4.4,4.4,0,0,0-.44-1.43,57.81,57.81,0,0,0-5.93-2.59Z"/><path d="M333.34,320.11a37.8,37.8,0,0,1,5.56,1.64c5.81,2.65,8.94,6.07,3.84,12.6-2.75,3.52-5.07,7.38-7.66,11-2.1,2.95-3.2,3.08-5.41.18-3.46-4.56-6.64-9.34-10-14-1.74-2.45-.91-4.52,1-6.34C324,321.93,328.25,320.6,333.34,320.11Zm2.73,16.14h0c.67-.44,1.94-1,1.89-1.29a3.92,3.92,0,0,0-1.37-2.32c-2.07-1.58-7.19-1.46-9.14.24-.6.53-1.21,2-.93,2.4a3.81,3.81,0,0,0,2.62,1.24C331.45,336.59,333.76,336.36,336.07,336.25Zm-3.84-13.34c-3.15,1.31-6.11,2.38-8.9,3.8-.58.3-.93,2.09-.58,2.82a2.82,2.82,0,0,0,2.7.66,12.45,12.45,0,0,1,13.47-.25c.71.4,2-.16,3-.28-.35-1.06-.4-2.71-1.11-3.1C338.14,325.16,335.29,324.18,332.23,322.91Zm0,20.1c.72-.91,1.51-1.48,1.55-2.1s-.82-1.07-1.29-1.61c-.55.49-1.48.93-1.57,1.5S331.57,342,332.19,343Z"/><path d="M232.68,348.41c-1.42,0-2.55-1.26-3.47-2.5-2.64-3.54-6.07-8.22-9.2-13.1-1.37-2.12-1.84-3.86-1.48-5.47s1.56-3,3.78-4.46a19.53,19.53,0,0,1,10.49-3.38,16.78,16.78,0,0,1,10.38,3.77c4,3.08,4.36,4.79,2,9.16-.41.75-.78,1.51-1.15,2.27-.18.36-.35.72-.53,1.07l-.42-.21.36.31-2.14,3c-1.61,2.26-3.28,4.59-5,6.86C235.28,347.12,234.12,348.41,232.68,348.41Zm-.23-7.44a2,2,0,0,0,.26.43l.33-.26a4.4,4.4,0,0,0-.43-.3Zm-4.69-5.86a2.81,2.81,0,0,0,1.32.64h0a17.54,17.54,0,0,0,3.24-.37l.93-.15.13,0,.13,0c.43.08.77.17,1,.23a3.09,3.09,0,0,0,.53.11c.71-.22,1.42-.5,2.18-.81h0l-.08-.14a4.26,4.26,0,0,0-1.07-1.5,5.66,5.66,0,0,0-3.19-.95,10.48,10.48,0,0,0-4.43,1.18A2.73,2.73,0,0,0,227.76,335.11Zm-3.38-5.94a9.13,9.13,0,0,0,1.16.13,1.13,1.13,0,0,0,.52-.09,13.4,13.4,0,0,1,6.66-1.82,15.09,15.09,0,0,1,6.51,1.58,1,1,0,0,0,.33,0h0a6.25,6.25,0,0,0,1.27-.23l.19-.05c0-.09-.05-.19-.08-.28-.13-.48-.38-1.36-.6-1.47a49.75,49.75,0,0,0-5.74-2.3c-.72-.26-1.46-.52-2.2-.8-.72.27-1.43.52-2.14.77a38.34,38.34,0,0,0-5.65,2.31,4.82,4.82,0,0,0-.41,1.68c0,.16,0,.32-.08.47Z"/><path d="M242.77,335.4c-2.36,3.28-4.68,6.6-7.1,9.84-2.29,3.06-3.59,3.16-5.81.18-3.18-4.26-6.29-8.58-9.17-13.05-2.5-3.89-1.77-6.37,2.05-8.8,7-4.45,13.89-4.33,19.94.34,3.7,2.85,4,4.1,1.77,8.13-.6,1.11-1.13,2.24-1.69,3.37ZM232.4,323a66.66,66.66,0,0,0-8.18,3.23c-.78.42-.74,2.35-1.07,3.58,1.11.06,2.47.55,3.3.09,4.17-2.31,8.2-2.19,12.44-.22.83.39,2.12-.2,3.2-.34-.45-1.07-.6-2.7-1.38-3.1A87.32,87.32,0,0,0,232.4,323Zm1,13c1.11.2,1.57.43,1.92.32,1.08-.33,2.12-.78,3.17-1.19-.61-.93-1-2.17-1.88-2.73-2.76-1.81-5.71-1.09-8.42.17a3.35,3.35,0,0,0-1.22,2.67c0,.45,1.38,1.27,2.14,1.28A27.13,27.13,0,0,0,233.37,336Zm1,5.11c-.84-.57-1.3-1.09-1.81-1.15-.34-.05-1.13.67-1.08.86.16.55.58,1.29,1,1.4S233.54,341.72,234.42,341.15Z"/><polygon points="143 344.07 143.01 344.07 144.16 345.22 143 344.07"/><path d="M143.58,344.65h0Z"/><polygon points="242.2 334.81 242.21 334.81 243.34 335.99 242.2 334.81"/><path d="M242.76,335.41h0Z"/><polygon points="346.42 350.8 346.43 350.79 347.58 351.94 346.42 350.8"/><path d="M347,351.37h0Z"/><polygon points="169.9 329.79 169.91 329.78 171.06 330.93 169.9 329.79"/><path d="M170.48,330.36h0Z"/><path d="M263.82,300.26c-3.75,0-5.84-3.11-7.86-6.12l-.37-.54c-2.29-3.39-4.72-6.79-7.06-10.07l-3.09-4.33-.23-.34c-.15-.22-.3-.44-.46-.64-1.41-1.7-4.9-2.76-9.11-2.76-5.3,0-10,1.61-11.41,3.91-1.3,2.13-2.59,4.32-3.84,6.43-2,3.47-4.15,7.05-6.41,10.47-1.14,1.73-3.5,3.55-5.47,3.6-5.07.13-10.55.18-17.25.18q-6,0-12,0l-5.2,0a5,5,0,0,1-1.91-.52c-.31-.13-.66-.27-1.06-.4l-.89-.31.43-.84c.23-.44.43-.86.62-1.26a19.14,19.14,0,0,1,1.23-2.29q2.45-3.69,4.9-7.36c2.53-3.77,5.14-7.67,7.64-11.55a8,8,0,0,1,7.15-3.93H266.4c34.43,0,71.44,0,108.75-.13,6.61,0,10.46,2.11,13.38,7.27a125.22,125.22,0,0,0,7.15,10.84c1.18,1.68,2.41,3.41,3.58,5.14a22.88,22.88,0,0,1,1.2,2.13c.24.46.51,1,.85,1.61l.58,1.08-1.22.12c-.76.07-1.41.15-2,.22a28.62,28.62,0,0,1-2.95.24H379.11c-3.27,0-7.57,0-12,.05H367c-4,0-6.6-1.49-8.35-4.85-1.48-2.82-3.14-5.62-4.74-8.33-1.33-2.27-2.72-4.62-4-7-1.61-3-3.55-4.22-6.5-4.22h-.44c-2.4.1-4.88.14-7.57.14s-5.33,0-8.45-.13h-.4a7.41,7.41,0,0,0-6.74,3.49c-2.43,3.52-5,7-7.5,10.41q-2.43,3.3-4.82,6.61c-1.44,2-3,3.8-5.82,3.8a9.57,9.57,0,0,1-2.59-.4,18.83,18.83,0,0,0-5.27-.61c-1.18,0-2.41.06-3.6.11s-2.45.12-3.66.12h-.2l-6.53,0h-10.7l-.58,0-.45,0a1,1,0,0,0-.29,0A9.09,9.09,0,0,1,263.82,300.26Zm-.94-3.55.27-.48a12.49,12.49,0,0,1,1.39-2.15l1.91-2.19c3-3.45,6.08-7,9.28-10.36,3.39-3.55,5.26-5.41,7.26-5.41,2.18,0,4,2.22,7.26,6.24,2.54,3.11,5.3,6.15,8,9.09l2.55,2.83c.86,1,1.4,1.15,1.7,1.15a1.26,1.26,0,0,0,.91-.62c3.51-4.64,6.93-9.3,10.55-14.23l3.29-4.48H248Zm91.59-16.56c3,5.06,5.87,9.83,8.9,14.46.41.62,2.07,1.14,3.78,1.18,2.6.06,5.45.09,8.94.09l5.76,0,5.38,0h7.65l.1-.25c-1-1.5-2-3-3.05-4.52-3.11-4.63-6.33-9.42-9.7-14-.51-.69-2.28-1.21-4.21-1.26-3.09-.07-6.45-.1-10.56-.1l-7.22,0-4.39,0c-.93,0-1.88.06-3.07.13l-.81,0ZM180.71,295.73q7.83,0,15.67,0,5.66,0,11.31,0a3.67,3.67,0,0,0,2.55-1.17c3-4.76,6-9.58,9.1-14.7l2.38-3.9-.72,0c-1.11-.06-2-.12-2.84-.12h-.43c-1.9,0-3.8,0-5.7.08s-3.83.08-5.74.08c-2.9,0-5.29-.1-7.51-.29-.8-.07-1.56-.11-2.28-.11-5.72,0-9.26,2.21-11.81,7.4a73.71,73.71,0,0,1-5.82,9.31c-.75,1.09-1.53,2.21-2.28,3.33l.16.11Zm114.82-1-2.91-3.32q-4.39-5-8.8-10a2.44,2.44,0,0,0-1.54-1,1.62,1.62,0,0,0-1.14.68c-3,3.41-5.9,6.83-9,10.45l-2.72,3.16Z"/><path d="M400.59,298.79c-2.18.21-3.53.45-4.88.45-9.52,0-19-.05-28.58.06-3.57,0-6.07-1.08-7.81-4.42-2.73-5.2-5.94-10.15-8.74-15.31-1.72-3.15-3.94-4.79-7.69-4.64-5.32.22-10.65.17-16,0a8.36,8.36,0,0,0-7.83,3.84c-4,5.75-8.23,11.32-12.31,17-1.89,2.63-3.52,4.22-7.53,3.08s-8.61-.39-12.95-.41c-5.74,0-11.48,0-17.23,0a4.21,4.21,0,0,0-1.67.06c-6,2.83-8.42-1.38-11.13-5.38-3.3-4.86-6.77-9.61-10.16-14.41-.24-.34-.47-.7-.73-1-3.82-4.63-18.72-3.83-21.84,1.25-3.45,5.6-6.62,11.38-10.24,16.87-1,1.52-3.15,3.2-4.81,3.24-11.48.28-23,.16-34.46.12a11.33,11.33,0,0,1-2.71-.88c.7-1.36,1.16-2.49,1.81-3.48,4.17-6.32,8.44-12.56,12.54-18.92a7.22,7.22,0,0,1,6.67-3.55c2.38,0,4.76,0,7.15,0,58.55,0,117.11,0,175.67-.12,5.83,0,9.72,1.65,12.66,6.85,3.16,5.59,7.16,10.7,10.76,16C399.19,296,399.63,297,400.59,298.79Zm-81.76-23.5h-72.4L263,298.2a29.31,29.31,0,0,1,2.21-3.58c3.67-4.22,7.3-8.49,11.16-12.53,6.75-7.06,7-6.92,13.3.78,3.35,4.12,7,8,10.55,11.95,1.1,1.24,2.54,2.24,3.86.48C308.89,288.87,313.63,282.35,318.83,275.29Zm-95.7-.07c-2.27-.11-3.62-.23-5-.23-6.44,0-12.92.43-19.31-.13-6.89-.62-11.69,1.24-14.89,7.74-2.3,4.66-5.63,8.83-8.5,13.23.71.43.94.69,1.17.69,10.35.05,20.71.11,31.06,0a4.4,4.4,0,0,0,3.23-1.54C215,288.69,218.82,282.26,223.13,275.22Zm172.31,21.44.45-1.18c-4.3-6.31-8.46-12.73-13-18.86-.83-1.13-3.18-1.55-4.84-1.59-7.39-.17-14.79-.09-22.19-.07-1.47,0-2.93.14-5.28.25,4.29,7.13,8,13.6,12.12,19.85.69,1.05,2.91,1.5,4.44,1.54,6.7.16,13.4.06,20.1.06Zm-99.3-1.11.41-.89c-4-4.6-8.06-9.2-12.12-13.78-1.18-1.33-2.54-1.86-3.9-.29-4.17,4.79-8.28,9.61-12.88,15Z"/><path d="M322.35,465c-5,0-8.11-1.67-10.32-5.57a75,75,0,0,0-6.19-8.84c-2.07-2.67-2.18-5.25-.34-7.89.75-1.08,1.49-2.18,2.22-3.27a94.68,94.68,0,0,1,6.09-8.39c1.21-1.42,3.24-2.13,5-2.76l1-.35a4.25,4.25,0,0,1,1.51-.23c.37,0,.74,0,1.12.05s.66,0,1,0H369c31.82,0,65.74,0,99.79-.08,4.95,0,8.16,1,10.2,6.06a28.76,28.76,0,0,0,4.83,7.18c.85,1,1.72,2.11,2.52,3.2l-.21.18.23-.14,2.44,3.86c2.16,3.44,4.33,6.88,6.47,10.33.57.93,1.09,1.91,1.69,3,.31.59.65,1.24,1,2l.61,1.12-1.28.08-2.08.14c-1.2.09-2.16.16-3.14.16H447.19c-40.9,0-83.2,0-124.79.1ZM325,432c-5.64,0-9.34,1-11.53,6.21a14.83,14.83,0,0,1-2.69,3.85c-.3.36-.61.71-.9,1.07-1.82,2.22-1.8,4.25.06,6.57.33.42.68.84,1,1.26a28.7,28.7,0,0,1,4,5.71c1.91,4,4.9,4.81,9.11,4.81,35.53-.08,70.65-.09,103.32-.09h65l-16.06-24.23c-3.1,2.23-3.12,2.95,0,8.54l.6,1.08-6.4.66-.76-6.56-.08-.06c-3,3.37-6.28,5.08-9.8,5.08a12.9,12.9,0,0,1-4.81-1c-1.22,3-3.42,3.64-6.7,3.65h-3.29a28.26,28.26,0,0,1-9.62-1.29h-.1a2.49,2.49,0,0,0-1.16.42,6.36,6.36,0,0,1-3.46,1.29c-1.42,0-2.62-.78-3.66-2.37a4.62,4.62,0,0,0-1-.11,7.49,7.49,0,0,1-1.18-.12l-1.69-.31a21.64,21.64,0,0,1-4.39-1.07,36.6,36.6,0,0,1-4-1.93c-1-.56-2.11-1.13-3.19-1.6a6.8,6.8,0,0,0-2.12-.37c2.28,3.27,2.34,3.93.62,6.42l-.64.92-.68-.89c-.11-.15-.23-.29-.34-.43-.24-.31-.49-.62-.71-1-1-1.66-1.78-2.87-2.23-2.87s-1.63.92-2.73,1.8a8,8,0,0,1-5,2,9.11,9.11,0,0,1-5.2-1.86,14.29,14.29,0,0,0-8.11-2.9,13,13,0,0,0-8.27,3.32,7,7,0,0,1-3.88,1.46,2.52,2.52,0,0,1-1.14-.24,6.24,6.24,0,0,0-2.81-.74c-1.54,0-3,.71-5,2.38a3.38,3.38,0,0,1-1.62.63c-.22.05-.45.09-.68.16l-.61.18L358,445.15c-3.57,2-5.43,3-7.54,3-2,0-3.93-.88-7.55-2.58a4.48,4.48,0,0,0-1.8-.51c-1,0-1.81.68-2.82,4l-1.58-.1c-.48-2.88-1.36-2.88-1.73-2.88a6.07,6.07,0,0,0-1.48.3,7.45,7.45,0,0,1-2,.37,2.81,2.81,0,0,1-2.07-.84l-.73-.72,9.35-5.9.4.17,2.15.91c1.6.67,3.25,1.36,4.81,2.17a9.32,9.32,0,0,0,4.32,1.19,7.66,7.66,0,0,0,4.36-1.43h0l1-.68c2-1.39,4.12-2.82,6.53-2.82a6.58,6.58,0,0,1,4,1.45,10.75,10.75,0,0,0,6.46,2.52c2.27,0,4.53-1,6.91-3a8.23,8.23,0,0,1,5.36-2.23,8.32,8.32,0,0,1,4.44,1.42,43.79,43.79,0,0,0,5.2,2.65l1.45.66a5.7,5.7,0,0,0,2.35.64,2.83,2.83,0,0,0,2.32-1.26l.1-.13.15-.08c.49-.27,1-.54,1.51-.8a21.34,21.34,0,0,0,3.11-1.82,8,8,0,0,1,4.82-1.81,8.11,8.11,0,0,1,4.6,1.6,28.1,28.1,0,0,0,6.53,3.31,7.44,7.44,0,0,0,2.27.36,2.83,2.83,0,0,0,1.61-.36,8.59,8.59,0,0,1,5.37-2.12c2,0,4.06.85,6.59,2.77a8.67,8.67,0,0,0,5.18,2.12c1.84,0,3.78-.87,6.32-2.81a9,9,0,0,1,4.91-1.89,3.58,3.58,0,0,1,1,.13,15.52,15.52,0,0,0,4.26.62c3.49,0,6.95-1.26,10.89-3.95a14.51,14.51,0,0,0,2.84-2.9l.48-.58-.73-.24a12.42,12.42,0,0,0-3.85-.89q-27.6-.06-55.19-.05c-28.74,0-58.46,0-87.68-.14Zm126.89,12.1a.65.65,0,0,0-.59.31l.68-.31Zm-21.19-.23c.26.17.51.33.76.47l-.72-.53Zm-67.93.38.13-.16-.86-.71-.07.09Z"/><path d="M485.68,444.67c3,4.73,6,9.44,8.91,14.19.84,1.37,1.55,2.83,2.7,5-2.25.13-3.71.3-5.17.3q-84.87,0-169.72.11c-4.4,0-7.45-1.25-9.66-5.17a75,75,0,0,0-6.26-8.93c-1.8-2.33-2-4.54-.31-6.92,2.71-3.9,5.21-8,8.27-11.6,1.26-1.5,3.67-2.14,5.67-2.88a10.32,10.32,0,0,1,3.34-.07q72.68,0,145.35-.08c4.48,0,7.51.74,9.45,5.54,1.57,3.89,4.9,7.07,7.44,10.56Zm-84.89-2.51a42,42,0,0,0,4.72-2.68c2.84-2.13,5.49-2.23,8.47-.2a28.6,28.6,0,0,0,6.73,3.41c1.41.48,3.64.66,4.64-.13,4-3.17,7.3-2.12,11,.66,4.5,3.4,7.84,2.86,12.48-.7,1.39-1.06,3.73-2,5.21-1.62,6,1.74,11.08-.19,15.83-3.44,1.68-1.15,2.88-3,4.31-4.56-2-.54-4-1.53-6-1.54-47.63-.09-95.25,0-142.87-.19-5.78,0-10.08,1-12.49,6.71-.74,1.76-2.24,3.2-3.47,4.72-2.1,2.58-2,5,0,7.6,1.74,2.19,3.7,4.33,4.89,6.81,2.09,4.39,5.4,5.28,9.9,5.27q82.15-.16,164.3-.08h5.49c-6.18-9.33-11.77-17.75-17.37-26.19-4.27,3-4.34,4-.95,10.09l-4.38.45c-.26-2.29-.48-4.19-.7-6.08l-.94-.8c-4.2,5.09-9.12,6.86-15,4.16-3.56-.95-3.56-.95-5,2.25l5-2.22c-1,3.11-2.69,3.87-6.21,3.88-4.33,0-8.5.25-12.64-1.22a2.7,2.7,0,0,0-2,.5c-2.33,1.54-4.28,1.82-6-.92-.34-.52-1.75-.32-2.66-.51a35.55,35.55,0,0,1-5.94-1.34c-2.46-1-4.71-2.46-7.14-3.52-1-.45-2.31-.36-4.16-.61,3.29,4.6,3.29,4.6,1.66,6.94-.36-.47-.72-.87-1-1.33-2.5-4-2.59-4.14-6.16-1.27-3.18,2.54-6.22,2.14-9.25.05-5.93-4.08-11.61-4.18-17.35.46-1.05.85-3.17,1.61-4.15,1.12-3.55-1.78-6.1-.46-8.69,1.75a6,6,0,0,1-2,.63c-.92-1.59-1.73-3-2.55-4.43-7.43,4.22-7.5,4.37-15,.83-3.14-1.47-4.48-.18-5.75,4-1.14-6.95-5.13-1.13-7.5-3.49l8.12-5.12c2.33,1,4.69,1.9,6.92,3,3.27,1.71,6.4,1.81,9.51-.29h0c3.26-2.16,6.57-5.09,10.61-2.07,5.09,3.81,9.69,3.49,14.39-.54,2.69-2.31,5.6-2.79,8.83-.74a60.6,60.6,0,0,0,6.75,3.36c2.05.95,4,1.2,5.66-.86Zm-38.85,0-1,1.33c.64.63,1.28,1.26,1.93,1.88l1.25-1.43Zm68.64.44-1,1.45a18.71,18.71,0,0,0,2.28,1.35c.1,0,.58-.77.89-1.19Z"/><polygon points="485.12 445.26 486.24 444.08 485.13 445.27 485.12 445.26"/><path d="M485.69,444.68h0Z"/><path d="M244.27,465c-2.56,0-5.35-.06-8.77-.06H76.31c-1.28,0-2.53-.07-4.12-.16l-2.83-.15L68,464.56l.76-1.18,2-3.14c1.2-1.9,2.23-3.53,3.3-5.14,1.67-2.49,3.37-5,5.06-7.45,3.45-5.06,7-10.29,10.34-15.54,1.9-3,4.31-4.29,8.07-4.29h.29c2.76,0,5.74.06,9.38.06h6.7l6.58,0h51.16c20.85,0,45.49,0,70.2-.1h.11c5.72,0,9,1.74,11.29,6a56.18,56.18,0,0,0,4.53,6.73c.62.84,1.24,1.67,1.84,2.51,1.58,2.2,1.63,4.28.15,6.34-3.17,4.42-5.79,8.12-8.39,12a7.58,7.58,0,0,1-6.83,3.61Zm-4.73-3.61c.4,0,.81,0,1.23,0l1.17,0a5.85,5.85,0,0,0,1.91-.25,10,10,0,0,0,4.46-2.62c1.6-1.95,3.06-4.1,4.46-6.18.9-1.34,1.83-2.72,2.8-4a3.13,3.13,0,0,0,0-4.34,82.35,82.35,0,0,1-5.54-8c-1.62-2.75-3.78-3.92-7.23-3.92q-42.6.06-85.17.05l-53.11,0a15.92,15.92,0,0,0-2.71.36l-.38.07c2.61,4.15,9.58,7.84,15.16,7.84a11,11,0,0,0,1.55-.11,15.25,15.25,0,0,1,2.35-.19,9.77,9.77,0,0,1,7.79,3.58,3.9,3.9,0,0,0,3,1.57,5.45,5.45,0,0,0,2.77-.93c1-.61,2-1.18,3-1.74s1.88-1,2.8-1.6a6.92,6.92,0,0,1,3.56-1.14,5.67,5.67,0,0,1,3.88,1.69,5.37,5.37,0,0,0,3.74,1.54,8.18,8.18,0,0,0,3.88-1.15c1.61-.89,3.21-1.83,4.7-2.73a7.7,7.7,0,0,1,3.94-1.19,6.19,6.19,0,0,1,4.42,1.93,8,8,0,0,0,5.67,2.69,10,10,0,0,0,5.77-2.23,14.06,14.06,0,0,1,8.38-3.13c2.94,0,5.78,1.15,8.69,3.52a7.1,7.1,0,0,0,4.56,1.89,7.76,7.76,0,0,0,3.79-1.13,8.22,8.22,0,0,1,3.76-.84,5.75,5.75,0,0,1,3.37.91,7.75,7.75,0,0,0,5,1.9,15.85,15.85,0,0,0,6.31-1.84,9.92,9.92,0,0,1,4.16-.95c3.24,0,6.39,1.75,9.12,5l1.44,1.74-2.22-.42c-.62-.12-1.16-.19-1.66-.26a7.64,7.64,0,0,1-2.61-.65,10.28,10.28,0,0,0-4.86-1.37,9.23,9.23,0,0,0-5,1.61,8.78,8.78,0,0,1-4.73,1.45,8.5,8.5,0,0,1-4.51-1.34c-.81-.5-1.57-1-2.37-1.63l-.51-.37a7.94,7.94,0,0,0-.59.81c-1.46,2.55-2.55,4.23-4.36,4.23-1.15,0-2.35-.65-4.45-2s-4.47-2.65-6.71-3.87c-1-.54-2-1.09-3-1.65h0a6.76,6.76,0,0,0-3.07-.78,8,8,0,0,0-4.43,1.53c-1,.69-2.11,1.3-3.16,1.89l-1.58.9a9,9,0,0,1-4.57,1.44,7,7,0,0,1-4.16-1.43,2.82,2.82,0,0,0-1.6-.62,2.7,2.7,0,0,0-2,1.27,9.05,9.05,0,0,1-1.44,1.4l-.61.53-.46.42L161,447.21l2.37-4.64h0a27.05,27.05,0,0,0-2.78.79c-1,.38-2,.86-3,1.33a21.22,21.22,0,0,1-6.53,2.22l-.66,0a15.6,15.6,0,0,1-1.71-.13,12.69,12.69,0,0,0-1.44-.12,2.54,2.54,0,0,0-2.55,1.71c-.23.46-.79.69-1.67.69a2.78,2.78,0,0,1-1.42-.33,7.48,7.48,0,0,0-4.12-1.34,8.54,8.54,0,0,0-4.79,1.68,3,3,0,0,1-1.58.46,1.69,1.69,0,0,1-.93-.24c-1.64-1.1-3.53-1.26-5.52-1.42a14.45,14.45,0,0,1-6.6-1.65,18.36,18.36,0,0,0-4.74-1.65c-2.65-.67-5.61-1.43-8-3.69l-.08.06.51,6.67H96.26l1.12-1.34c.39-.47.76-.87,1.1-1.24a9.09,9.09,0,0,0,1.41-1.79l.3-.56c.38-.71,1.27-2.39,1.06-2.83a36.83,36.83,0,0,0-5.09-7.28s0,0,0,0a4.71,4.71,0,0,0-.55,0,2.83,2.83,0,0,0-1.34.29A11.11,11.11,0,0,0,91.38,436c-3.82,5.77-7.63,11.68-11.32,17.4L78.33,456c-.77,1.2-1.52,2.41-2.4,3.84l-.77,1.24,1.07.08c1.4.09,2.5.17,3.61.17l117,0h42.73ZM123.19,444.77a.72.72,0,0,0-.18-.27,2.47,2.47,0,0,0-.71-.23Z"/><path d="M69.4,463.82c2.16-3.39,3.66-5.86,5.27-8.26,5.14-7.67,10.48-15.21,15.4-23,1.94-3.07,4.31-4,7.66-3.92,7.56.12,15.12,0,22.68,0,40.45,0,80.91.05,121.36-.1,4.83,0,8.29,1.15,10.68,5.6,1.78,3.3,4.24,6.25,6.43,9.32,1.29,1.8,1.49,3.51.14,5.4-2.84,4-5.69,8-8.4,12a6.81,6.81,0,0,1-6.34,3.25c-6.72-.12-13.44,0-20.16,0q-73.91,0-147.81,0C74.39,464.12,72.47,464,69.4,463.82ZM143.58,443h-.84l-1.42,2.07,1.42.65Zm47.07-1.69h0c-2.94-1.47-5.66-1-8.31.81-1.51,1-3.13,1.84-4.7,2.76-2.61,1.53-5.17,2-7.85,0-1.75-1.25-3.38-.95-4.75.82a16.26,16.26,0,0,1-2,1.83l-1-.66,2.85-5.58c-1.89.5-3.3.76-4.63,1.26-3.13,1.18-6.14,3.17-9.34,3.5-2.57.26-5.32-1.5-7,1.94-.14.28-1.45.34-1.92,0-3.39-2.18-6.59-1.81-9.8.36a1.87,1.87,0,0,1-1.6.21c-3.62-2.42-8-.67-12.17-3.09-3.77-2.2-9.39-1.64-13-5.76l-1,.83.47,6.2H98a21.79,21.79,0,0,0,2.61-3.18c.67-1.31,1.82-3.18,1.36-4.12a37.14,37.14,0,0,0-5.2-7.44c-.42-.5-2.24-.39-3,.1a11.82,11.82,0,0,0-3.11,3.34c-4.4,6.66-8.72,13.38-13,20.08-1.18,1.82-2.29,3.67-3.91,6.25,2.62.15,4.36.33,6.1.33q79.85,0,159.69,0c1.54,0,3.2.25,4.59-.23a10.84,10.84,0,0,0,4.82-2.87c2.66-3.24,4.82-6.88,7.29-10.27a3.92,3.92,0,0,0,0-5.31,81.38,81.38,0,0,1-5.49-7.95c-1.84-3.13-4.35-4.33-8-4.33q-69.13.11-138.26.08a31.9,31.9,0,0,0-4.35.63c2.43,5.31,11.82,10.08,18.09,9.14,3.87-.58,6.88.21,9.41,3.12,2,2.31,4.26,2.32,6.75.81,1.92-1.17,3.92-2.18,5.84-3.34,2.28-1.37,4.31-1.52,6.47.45,2.61,2.38,5.61,2.13,8.57.5,1.59-.88,3.16-1.81,4.72-2.74,2.61-1.55,5.27-1.48,7.36.61,4.11,4.11,8.41,3.55,12.5.55,5.6-4.11,10.79-3.94,16.07.36,2.87,2.34,5.73,2.82,9.27.84,1.64-.91,4.91-1,6.22,0,4.24,3.39,8.07,2,12.12.16s8.51-.73,12.31,3.88c-1.82-.35-3.08-.32-4-.83-3.66-2-7.07-2-10.7.27a7.56,7.56,0,0,1-8.38.11c-1.15-.71-2.23-1.55-3.47-2.43-.49.67-.86,1.07-1.12,1.53-2.67,4.66-3.36,4.73-7.67,1.93C197.32,444.83,193.93,443.15,190.65,441.31Zm-69.44,2-.48,1.05,3,1.68.59-.7c-.3-.52-.48-1.26-.93-1.52A7.52,7.52,0,0,0,121.21,443.28Zm83.28,1.8-.63.41.64.76c.16-.2.43-.4.44-.61S204.66,445.26,204.49,445.08Z"/><path d="M246.78,412l-.76,0c-1.91-.08-4-.12-6.5-.12-1.57,0-3.14,0-4.7,0l-4.72,0H207.69q-51.16,0-102.32,0c-1.42,0-2.84-.13-4.22-.26l-1.92-.16-.5,0-.84-2,.23-.39,3.42-5.19c2.56-3.9,5.2-7.94,7.87-11.86,4-5.91,8.09-11.68,11.54-16.54,1.09-1.53,2.07-2.55,3.28-2.55s2.21,1,3.34,2.55c1.84,2.5,3.67,5,5.63,7.69l2.28,3.13,2.08-2.35c1.94-2.17,3.77-4.22,5.41-6.37a10.17,10.17,0,0,1,8.76-4.39c11,.05,22.17.06,33,.06,14.55,0,29.59,0,44.39.13a15.78,15.78,0,0,1,8,2.83c1.71,1.12,2.71,1.75,3.46,1.75s1.4-.49,3-2c2.36-2.27,3.95-3.51,5.58-3.51,1.88,0,3.34,1.63,5.51,4.84,2.48,3.66,5.19,7.43,8.3,11.55a5.65,5.65,0,0,1,.07,7.44,118.14,118.14,0,0,0-6.91,10.41A9.81,9.81,0,0,1,246.78,412Zm-9.36-4.29c14,0,14,0,21.6-12.45l.75.33-.7-.42a2.88,2.88,0,0,1,.23-.34c1.27-1.66,1.19-3.2-.27-5.16q-1.75-2.36-3.48-4.74c-1.54-2.11-3.13-4.29-4.73-6.4-.6-.79-1.35-1.76-1.92-1.76-.26,0-.83.19-1.78,1.53-1.71,2.39-3.53,3.5-5.72,3.5-1.65,0-3.48-.63-5.92-2a17.64,17.64,0,0,0-8.28-2.18c-8.18-.06-16.4-.07-23.36-.07H189.17c-10.67,0-22.1,0-33.38-.17h-.33c-5.57,0-9.43,1.93-12.89,6.45-4.7,6.15-9.76,12.16-14.66,18l-2.09,2.48a5.09,5.09,0,0,1-3.45,1.41h0a1.63,1.63,0,0,1-1.22-.63,3.17,3.17,0,0,1-.94-2c.29-5.25.73-10.47,1.2-15.81a1.73,1.73,0,0,1,.84-1.16,3.17,3.17,0,0,0,.34-.28l.3-.28.4.07a8,8,0,0,1,3.68,2.13c1.21,1,2.35,2,3.8,2a4.34,4.34,0,0,0,1.71-.39l-1.18-1.68c-2.12-3-4.13-5.93-6.22-8.76-.2,0-.46.09-.69.14l-.52.11c-.54.71-1.09,1.4-1.63,2.1-1.5,1.92-3,3.89-4.44,5.92a8.09,8.09,0,0,0-.92,2.47c0,.15-.08.31-.13.47l3.85.72-.22.84c-.19.75-.78,3-3,3a7,7,0,0,1-2.57-.72c-.47-.19-1-.39-1.4-.52l-9.67,14.13.1.17Zm-112.89-7.75c.86-1.1,1.72-2.23,2.46-3.39,1.54-2.4,1.43-3,1.39-3.08-.27-.55-1.17-1-2.21-1.51l-.7-.35Z"/><path d="M98.8,409.47c3.76-5.68,7.46-11.41,11.28-17s7.65-11.05,11.54-16.53c2.1-3,3.12-2.93,5.29,0,2.71,3.68,5.39,7.38,8.51,11.64,3-3.47,5.78-6.36,8.19-9.52a9.39,9.39,0,0,1,8.18-4.08c25.76.12,51.51,0,77.27.2a15.09,15.09,0,0,1,7.58,2.69c3.76,2.46,4.29,2.69,7.48-.38,4.84-4.65,6-4.46,9.86,1.2,2.67,3.93,5.46,7.78,8.31,11.58,1.69,2.23,1.69,4.2.07,6.47a119.12,119.12,0,0,0-7,10.49c-2.14,3.79-5.15,5.1-9.35,4.92-5.31-.22-10.63-.06-16-.06q-62.37,0-124.72,0c-2,0-4.07-.27-6.1-.41Zm24.62-6.81c1.43-1.89,3-3.71,4.26-5.7.75-1.18,1.85-3,1.43-3.88-.58-1.17-2.48-1.7-4.32-2.81-.52,4.68-1,8.53-1.39,12.37Zm0-24.4c-2.12,2.77-4.34,5.45-6.3,8.32a16.43,16.43,0,0,0-1.41,4l3.87.73c-1.15,4.49-4,1.43-6.51,1.1l-10.25,15,.56,1h5.28l128.12,0c15.06,0,15.06,0,22.94-12.85a2.74,2.74,0,0,1,.23-.36c1.63-2.12,1.23-4.12-.27-6.14-2.76-3.7-5.42-7.48-8.22-11.15-1.48-1.94-2.72-3.41-5-.2-3,4.13-6,3.84-10.58,1.22a18.53,18.53,0,0,0-8.67-2.29c-23.8-.18-47.61.09-71.4-.24-6.16-.08-10.28,2.06-13.88,6.78-5.35,7-11.07,13.69-16.73,20.42a4.33,4.33,0,0,1-2.87,1.13c-.43,0-1.35-1.19-1.32-1.79.29-5.27.74-10.53,1.2-15.78,0-.31.55-.57.93-.93,3.44.59,5.26,6.28,10.53,3.21-2.82-4-5.4-7.8-8.13-11.47-.22-.29-1.4.14-2.13.24Z"/><path d="M319.44,412c-5.38,0-8.82-1.95-11.14-6.34a65.73,65.73,0,0,0-5.3-8c-.4-.55-.8-1.09-1.19-1.64-1.17-1.61-2.47-4.1-.23-7.06,3.15-4.2,6.45-8.67,10.67-14.51a3.36,3.36,0,0,1,2.68-1.67,3.64,3.64,0,0,1,2.36,1.06c.36.31.71.63,1.06,1a14.76,14.76,0,0,0,2.67,2.13,5.49,5.49,0,0,0,2.16.43l.84.08c3.27-2.92,7.25-4.27,12.5-4.27h.11q19.15.06,38.31.06c13.34,0,26.56,0,39.29-.07,4,0,6.72,1.31,8.92,4.24,1.42,1.9,3.07,3.72,4.65,5.48.6.66,1.2,1.32,1.79,2l.42-.2a4.48,4.48,0,0,0,1.55-1c2-2.42,4-5.08,6.49-8.63,1-1.42,2.08-2.14,3.2-2.14a4,4,0,0,1,3.07,2c1.62,2.28,3.22,4.58,4.81,6.88,1.5,2.15,3,4.3,4.51,6.44,1.9,2.65,3.86,5.32,5.77,7.91.85,1.16,1.71,2.32,2.56,3.49l-.25.23.29-.18,6.65,11.11-1.23.16c-.76.1-1.49.22-2.22.34a29,29,0,0,1-4.68.52c-12.7.05-25.27.06-40.24.06H359.7c-16.2,0-28.58,0-40.13.09Zm-4-34.55-2.53,3.21c-2.66,3.36-5.4,6.83-7.9,10.37-.31.44-.1,2.15.53,3.22.8,1.38,1.77,2.71,2.7,4a43.42,43.42,0,0,1,3.34,5.13c1.64,3.16,3.91,4.39,8.07,4.39,30.45-.07,61.47-.07,88.15-.07h50.52c.93,0,1.85,0,3-.12l.61,0-1.61-2.44c-2.61-3.93-5.08-7.65-7.56-11.28a2.2,2.2,0,0,0-.78-.56,5,5,0,0,1-2.46.69,7.77,7.77,0,0,1-4-1.5l-.35-.21-1.54,15.15-4.78-4.12-.05-.06q-2.43-3-4.84-6c-4.79-5.94-9.73-12.08-14.76-18-.87-1-3-1.64-4.62-1.64-12.15-.06-26.49-.12-40.79-.12-14,0-26.43.06-38.14.17a18.88,18.88,0,0,0-9.26,3.1,7.58,7.58,0,0,1-4,1.42,5.59,5.59,0,0,1-3.67-1.52l-3.19-3.17Zm125.91,0-1.81,2.38c-2,2.67-3.79,5-5.38,7.44a3.7,3.7,0,0,0-.17,3.07c1.74,2.41,3.75,4.71,5.68,6.94.57.66,1.15,1.32,1.71,2V383.6l7.81,6.46.19-.18c-1.07-3-3-5.55-5-8.24C443.38,380.28,442.33,378.88,441.36,377.37Z"/><path d="M429.41,385.86c.94-.54,2.14-.87,2.79-1.66,2.28-2.8,4.42-5.72,6.52-8.67,1.66-2.34,3.3-2.4,4.93-.12,3.15,4.4,6.19,8.9,9.33,13.31,2.73,3.83,5.55,7.61,8.34,11.41h0l6,10.05a56.21,56.21,0,0,1-6.79.85c-19.72.07-39.44.05-59.15.05-27.27,0-54.54-.07-81.81.07-4.89,0-8.21-1.49-10.55-5.9a85.69,85.69,0,0,0-6.55-9.72c-1.49-2-1.87-3.93-.24-6.09q5.41-7.2,10.68-14.52c1.17-1.61,2.38-1.75,3.85-.48a24.75,24.75,0,0,0,3.87,3.19c1,.57,2.43.46,3.66.66l0,0c3.47-3.25,7.62-4.31,12.32-4.29q38.81.12,77.61,0a9.29,9.29,0,0,1,8.25,3.91c2.09,2.78,4.55,5.29,6.84,7.92Zm-111-6.75-.84-.84-.84-.84-.84-.84h-.83c-3.61,4.62-7.33,9.15-10.71,13.93-.6.86-.17,3,.49,4.1,1.84,3.14,4.35,5.89,6,9.09,2,3.79,4.78,4.84,8.86,4.83q69.3-.15,138.61-.07c1.46,0,2.91-.14,5.1-.25-3.62-5.44-6.75-10.2-10-14.91-.34-.49-1.4-1.1-1.67-.93-3,1.85-5-.39-7.3-1.5-.46,4.57-.93,9.14-1.5,14.82l-3.54-3.05h0c-6.5-8-12.91-16.14-19.61-24-1.07-1.25-3.46-1.92-5.24-1.93-26.31-.12-52.63-.2-78.94.05A19.93,19.93,0,0,0,326,380c-2.62,1.64-4.48,1.83-6.72,0ZM441.28,400.3l.93-.06v-14.9l7,5.8,1.11-1c-1.69-5.32-5.84-9.08-8.91-14.2-3.05,4.09-5.68,7.33-7.94,10.82a4.4,4.4,0,0,0-.14,4C435.76,394.09,438.6,397.14,441.28,400.3Z"/><polygon points="428.27 385.97 429.08 384.65 430.51 385.43 429.69 387.16 428.27 385.97"/><path d="M429.33,385.79c.1-.16.21-.32.44-.71l-.36.78Z"/><polygon points="323.71 377.7 323.74 377.68 324.89 378.83 323.71 377.7"/><path d="M324.29,378.28l0,0Z"/><polygon points="461.57 386.41 462.73 385.25 461.58 386.42 461.57 386.41"/><path d="M462.15,385.83h0Z"/><polygon points="460.75 400.71 461.87 399.53 460.75 400.72 460.75 400.71"/><path d="M461.32,400.13h0Z"/><path d="M262.49,258.21c-15.52,0-66.45-.07-70.22-1l-1-.25.48-.92c.24-.47.46-.9.66-1.31a22.38,22.38,0,0,1,1.22-2.3l5.1-8q3-4.67,6-9.36a8.16,8.16,0,0,1,7.61-4.07q29.38,0,58.72,0c26.06,0,53.37,0,81.17-.08,4,0,6.68,1.45,8.68,4.68,2.28,3.68,4.7,7.37,7,10.94q1.95,3,3.89,6a21.48,21.48,0,0,1,1.1,2.05c.15.31.3.61.46.91l.37.71-.71.38C370.71,257.92,290.43,258.21,262.49,258.21Zm-4.14-22.45,2.72,3.12c2.74,3.14,5.33,6.1,7.74,9.19,3.21,4.12,6.72,6,11,6a15.71,15.71,0,0,0,2.32-.18,13.11,13.11,0,0,1,1.75-.11c.59,0,1.19,0,1.78.06s1.13.06,1.68.06h0a9.14,9.14,0,0,0,1.86-.16,10.58,10.58,0,0,0,5.3-2.48c3.12-3.14,6.09-6.56,9-9.86l2.79-3.2c.55-.62,1.06-1.3,1.71-2.17l.23-.31Zm-43.7,0,3.52,4.22c3.55,4.28,6.91,8.32,10.39,12.26a5.29,5.29,0,0,0,4,1.81,4.4,4.4,0,0,0,3.63-1.78c2.8-3.82,5.44-7.82,8.23-12,1-1.45,1.93-2.93,3-4.46ZM322,239.89c2.54,4,4.93,7.82,7.4,11.57a5,5,0,0,0,4.09,2.57h0a5.5,5.5,0,0,0,4-2.1c2.54-2.88,5-5.85,7.57-8.9,1.49-1.78,2.95-3.58,4.61-5.62L351,235.7H319.33Zm-81,13.5a3.21,3.21,0,0,0-.2.54c.18,0,.4-.05.6-.08a4.65,4.65,0,0,1,.66-.07c4.22,0,8.42.05,12.63.05l12.94,0a4.87,4.87,0,0,0,1.11-.27h0l-16.7-18.19Zm-16.87.1-14.63-17.85-11.6,17.85Zm143.38-.05L356.2,236l-14.56,17.45ZM326,253.31l-11.79-18.05-7.76,9.09,0,0L298,253.31Z"/><path d="M192.46,256.44c.74-1.42,1.21-2.53,1.85-3.54,3.68-5.79,7.42-11.54,11.08-17.33a7.42,7.42,0,0,1,7-3.7q69.93.1,139.87,0c3.61,0,6.09,1.21,8,4.29,3.53,5.71,7.29,11.27,10.93,16.91.59.92,1,1.93,1.52,2.9C369.83,257.48,199.06,258,192.46,256.44ZM240.25,253c-1.13,2.45,1.08,1.56,1.79,1.57,8.53.08,17,.06,25.57,0a13.5,13.5,0,0,0,2.63-.68l-18.32-20c-4.27,7-8,13-11.68,19.05Zm65.56-9.23-9.64,10.34h31.28l-13.2-20.22c-3.25,3.79-5.84,6.83-8.44,9.87Zm-49.23-8.85c4.23,4.95,8.09,9.15,11.59,13.63,3.66,4.7,8.05,7.06,14.12,6.17,2.33-.34,4.82.29,7.11-.16a11.47,11.47,0,0,0,5.72-2.71c4.13-4.16,7.9-8.68,11.78-13.09.88-1,1.63-2.09,3-3.84Zm-7.72,0h-36c5.34,6.37,10.07,12.21,15,17.83,2.44,2.76,6.79,2.8,8.86,0C240.83,247.25,244.47,241.48,248.86,234.94Zm103.9-.05H317.85c3.87,6.09,7.29,11.6,10.85,17,2.44,3.72,6.43,3.92,9.38.57,2.58-2.93,5.08-5.92,7.58-8.91C347.85,240.93,350,238.27,352.76,234.89ZM196.38,254.31h29.45l-16.42-20.05Zm172.6-.05c-4.41-6.84-8.35-12.92-12.69-19.64l-16.4,19.64Z"/><path d="M217,215.76l.74-1.23c.56-.91,1.06-1.76,1.53-2.55,1-1.61,1.79-3,2.67-4.38q2.5-3.91,5-7.82c3-4.59,6.05-9.34,9-14.06,2.27-3.64,5.56-4.11,8.18-4.11h.4l10,.23c8.94.21,18.18.42,27.27.42H282c12.13,0,24.17-.34,35.46-.68l.73,0c5.73,0,9.74,2.19,12.62,6.9,3.3,5.38,6.81,10.78,10.21,16,1.65,2.55,3.31,5.09,5,7.65a10.64,10.64,0,0,1,.69,1.43c.13.31.28.66.47,1.08l.53,1.15Zm7.3-4.18c4.8.35,19.16.56,39.49.56,35.32,0,70.57-.57,76.46-1.21a4.12,4.12,0,0,0-.22-.47c-.82-1.35-1.66-2.7-2.49-4.05-1.36-2.18-2.76-4.44-4.08-6.7-2.27-3.88-5.4-5.77-9.57-5.77h-.36a1.29,1.29,0,0,0-.37.12l-.56,4-.79-.09a3.54,3.54,0,0,1-2.51-1.17,3.58,3.58,0,0,1-.48-2.79l-2,.06c-2.24.07-4.35.13-6.42.26-.71,0-1.88.11-2.17.43a3.87,3.87,0,0,1-2.89,1.49,4.71,4.71,0,0,1-2.65-1,8.13,8.13,0,0,0-.47,1.17c-.46,1.31-1.09,3.11-3.26,3.11a5.58,5.58,0,0,1-1.83-.35l-.76-.27,1.72-5.18-1.42.35c-1.83.46-3.42.86-5,1.13l-.23,0a14.43,14.43,0,0,1-2.43.29A2.64,2.64,0,0,1,287,195a5,5,0,0,0-3.43-1.7c-1.29,0-2.64.71-4.52,2.37-.65.59-1.36,1.12-2,1.63a28.14,28.14,0,0,0-2.19,1.77,4,4,0,0,1-6.2-.1c-1.6-1.57-3.29-3.12-4.92-4.62l-1.12-1,2.3,7.54-7.11-.44.74-6-1.9.06c-3.91.12-7.51.22-11.1.31h0a4.1,4.1,0,0,1-1.53-.36,9,9,0,0,0-3.34-.67,9.33,9.33,0,0,0-7.11,3.59,76.12,76.12,0,0,0-7,10.55C225.77,209.08,225,210.33,224.26,211.58Zm36.94-23c1.47,0,2.86.73,4.5,2.36,3.29,3.27,4.8,4.71,6.22,4.71s3.24-1.5,6.53-4.23a7.78,7.78,0,0,1,4.94-2.2,6.31,6.31,0,0,1,4.33,1.94,3.35,3.35,0,0,0,2,.82.73.73,0,0,0,.22,0,43,43,0,0,0,4.24-1.42c1.1-.42,2.24-.84,3.39-1.2a7.93,7.93,0,0,1,2.13-.34,2.39,2.39,0,0,1,1.71.54,5.15,5.15,0,0,0,3.85,1.46,19.4,19.4,0,0,0,2.85-.29,20.86,20.86,0,0,1,3.06-.3,7.17,7.17,0,0,1,3,.58,9.57,9.57,0,0,1,5.86-1.91,24.1,24.1,0,0,1,6.32,1.15l.8.21c-1.5-2.38-2.93-3.89-6-3.89-16.81.08-33.85.09-50.33.09H243.35c-3.42,0-4.55.76-5.35,4.05l2.49-.22c3.44-.3,7-.6,10.5-.8h.12a4.47,4.47,0,0,1,2.13.78,7.73,7.73,0,0,0,.68.38c.38-.06.78-.08,1.16-.11a4.65,4.65,0,0,0,2.3-.49A6.07,6.07,0,0,1,261.2,188.6Z"/><path d="M346.38,215h-128c1.66-2.74,2.87-4.86,4.18-6.91,4.68-7.3,9.47-14.54,14.06-21.89,1.9-3.05,4.61-3.79,7.87-3.72,12.44.25,24.88.65,37.32.65,11.88,0,23.76-.32,35.64-.69,5.52-.17,9.64,1.63,12.63,6.49,4.89,8,10.11,15.78,15.17,23.66A22.69,22.69,0,0,1,346.38,215Zm-92.71-23.32.07.07c1.41-.25,3.19,0,4.16-.82,2.81-2.32,4.84-1.71,7.23.66,6.57,6.53,6.66,6.48,13.84.52,2.7-2.24,5.29-3,8.19-.28a3.81,3.81,0,0,0,2.95,1c2.6-.67,5.08-1.84,7.66-2.63,1-.29,2.49-.51,3,0,4.09,3.92,9.21-.52,13.41,1.83,4.31-3.51,8.82-1.71,13.32-.55.16.05.42-.27.77-.53-1.67-2.8-3.28-5.16-7.26-5.14-25.9.14-51.8.07-77.69.11-4.21,0-5.5,1.29-6.38,5.76,4.67-.39,9.36-.85,14.07-1.1C251.89,190.46,252.79,191.23,253.67,191.63Zm48.78,2.56c-.17-.09-.34-.18-.07,0-.28-.13-.1,0,.07,0-1.64,1.39-.81,5.79-5.13,4.28.58-1.76,1.09-3.31,1.93-5.82-3.29.78-5.52,1.43-7.8,1.82-1.29.23-3.2.61-3.89-.06-3.42-3.29-6.18-1.9-9.05.65-1.35,1.21-2.92,2.18-4.24,3.42-1.79,1.67-3.35,1.62-5.08-.09-2.3-2.27-4.72-4.42-7.09-6.62l-.73.4,2.39,7.8-5.07-.31c.29-2.4.51-4.21.74-6.13-5.05.15-9.5.29-13.94.39a3.13,3.13,0,0,1-1.22-.3c-4.59-1.84-8.75,0-11.38,3.16-3.88,4.62-6.66,10.17-10,15.48,8.62,1.28,115.65.62,118.41-.7a10.68,10.68,0,0,0-.6-1.52c-2.18-3.59-4.45-7.12-6.57-10.74-2.4-4.12-5.85-6.29-10.65-6.17a3.54,3.54,0,0,0-1.09.38c-.17,1.25-.33,2.41-.52,3.71-3.54-.4-1.93-3.28-2.24-4-3.5.12-6.43.17-9.35.34-.94.06-2.19.11-2.72.7C305.71,196.29,304.12,195.45,302.45,194.19Z"/><path d="M274.8,163.18c-1.43,0-2.85,0-4.28-.05-2.3-.06-3.72-.59-4.46-1.67s-.72-2.47,0-4.4a4,4,0,0,0-.81-4.5,8.2,8.2,0,0,1-.4-10.63q3-4.35,5.95-8.73c2.46-3.61,5-7.35,7.54-11,1.11-1.59,2.1-2.65,3.32-2.65s2.21,1,3.32,2.62c3,4.26,6,8.67,8.83,12.93,1.61,2.39,3.22,4.79,4.85,7.17,2.14,3.15,2.11,6.32-.1,10.26a10.45,10.45,0,0,0-1.08,5.28c.09,2-.24,3.32-1.08,4.19a4.44,4.44,0,0,1-3.4,1.16h-.21c-1.48,0-3,0-4.46,0H278.13ZM292,157.73c-1.85-.71-3.46-1.33-5.14-1.84-2.55-.76-4.13-1.47-4.71-2.82s0-2.92,1.11-5.08c2-3.94,1.84-5.13-1.67-8.07-2.72,2.25-2.93,3.23-1.84,6.49,1.36,4.07,2,5.92,1.16,7.35s-2.75,1.85-6.63,2.7l-.13,0a9.13,9.13,0,0,0-2.31,1l-.38.21Zm-.17-13.17c2.59,2.44,1.42,4.71.56,6.36-.07.15-.15.29-.22.43a4.86,4.86,0,0,0,3-2.46,4.67,4.67,0,0,0-.59-4.37c-1.7-2.78-3.63-5.51-5.5-8.14l-2.05-2.9c-1.25-1.8-2.53-3.59-3.95-5.59l-1.53-2.15c-1.22,1.84-2.41,3.64-3.59,5.4-3.31,5-6.45,9.69-9.35,14.55a3.27,3.27,0,0,0-.32,3.13,4.51,4.51,0,0,0,2.48,2.16c-1.17-3.38-1.05-3.92.86-5.92l.68-.72,3.27,4.64c-2.39-7.37.58-11.45,6.1-15.42l.5-.36,4.29,3.44v.94a11.81,11.81,0,0,1,2.65,9.25l2-2.92Z"/><path d="M281.45,162.34c-3.64,0-7.27.07-10.9,0-3.79-.1-5-1.53-3.76-5a4.75,4.75,0,0,0-1-5.28,7.42,7.42,0,0,1-.36-9.66c4.53-6.56,8.93-13.19,13.49-19.72,2.12-3,3.14-3.1,5.3,0,4.67,6.62,9.11,13.4,13.67,20.09,2.18,3.2,1.69,6.17-.13,9.41a11.12,11.12,0,0,0-1.18,5.7c.13,3-.64,4.57-3.86,4.5-3.77-.08-7.55,0-11.32,0Zm4.19-24.47c3.32,3.95,3.31,8.24,1.67,13,1.28-1.85,2.57-3.7,3.94-5.69,3,2.82.1,5-.43,7.38,4.9-.85,6.84-4.5,4.44-8.43s-5-7.42-7.58-11.09c-1.87-2.68-3.78-5.34-6.18-8.71-4.86,7.42-9.47,14.06-13.61,21-1.89,3.15.25,6.21,4.16,6.93-1.67-4.68-1.67-4.68.15-6.58l4.3,6.1.78-.55c-3.57-8.08-1.6-12.3,4.85-16.95l3.51,2.81Zm8.17,20.68c-.7-.85-.89-1.31-1.22-1.44-1.82-.72-3.65-1.43-5.52-2-4.79-1.44-5.29-2.47-3.1-6.75,2.27-4.47,1.89-6-2.4-9.49-3.45,2.75-3.87,4-2.61,7.8,2.48,7.43,2.47,7.38-5,9a17.62,17.62,0,0,0-3.68,1.74l.33,1.12Z"/><polygon points="265.72 122.18 265.75 122.16 266.9 123.31 265.72 122.18"/><path d="M266.32,122.73l0,0Z"/><rect x="281.43" y="98.39" width="0.85" height="1.63"/><path d="M281.43,99.2h0Z"/><polygon points="274.12 109.58 274.12 109.57 275.31 110.69 274.12 109.58"/><path d="M274.71,110.14h0Z"/><rect x="519.97" y="470.34" width="1.21" height="1.63" transform="translate(-180.67 506.29) rotate(-45.02)"/><path d="M520.14,471.58l.86-.86Z"/><rect x="44" y="473.07" width="1.63" height="1.21" transform="translate(-322.05 170.72) rotate(-45.05)"/><path d="M44.39,473.24l.86.86Z"/><rect x="304.78" y="125.71" width="1.21" height="1.63" transform="translate(0.01 253.09) rotate(-45.02)"/><path d="M305,127l.86-.85Z"/><rect x="66.7" y="437.77" width="1.63" height="1.19" transform="translate(-290.2 176.14) rotate(-45)"/><path d="M67.09,438l.85.84Z"/><rect x="276.84" y="96.52" width="1.63" height="1.19" transform="translate(12.5 224.45) rotate(-44.93)"/><path d="M277.24,96.69l.83.84Z"/><rect x="260.03" y="122.56" width="1.63" height="1.21" transform="translate(-10.81 220.19) rotate(-44.93)"/><path d="M261.27,123.59l-.86-.85Z"/><polygon points="348.71 195.06 352.34 195.04 348.69 198.7 348.71 195.06"/><path d="M349.52,195.87h.85l-.85.85Z"/><rect x="501.47" y="441.76" width="1.21" height="1.63" transform="translate(-165.86 485.2) rotate(-45.05)"/><path d="M502.51,442.14c-.29.29-.57.58-.86.86C501.94,442.72,502.22,442.43,502.51,442.14Z"/><rect x="289.65" y="102.18" width="1.21" height="1.63" transform="translate(12.19 235.41) rotate(-45)"/><path d="M289.83,103.42l.86-.86Z"/><rect x="215.48" y="194.01" width="1.63" height="1.21" transform="translate(-74.26 210) rotate(-45.01)"/><path d="M216.72,195l-.86-.86Z"/><rect x="507.36" y="451.01" width="1.21" height="1.63" transform="translate(-170.71 491.52) rotate(-45)"/><path d="M507.53,452.25l.86-.86Z"/><rect x="165.05" y="281.42" width="1.63" height="1.21" transform="translate(-150.76 199.56) rotate(-44.94)"/><path d="M166.29,282.46l-.86-.86Z"/><rect x="209.59" y="203.25" width="1.63" height="1.21" transform="translate(-82.53 208.19) rotate(-44.94)"/><path d="M210,203.43l.86.86Z"/><rect x="160.84" y="288.15" width="1.63" height="1.2" transform="translate(-156.9 199.14) rotate(-45.05)"/><path d="M161.23,288.33l.85.85Z"/><polygon points="238.82 156.09 239.98 154.94 240.83 155.79 239.68 156.95 238.82 156.09"/><path d="M240.25,156.37l-.85-.85Z"/><rect x="249.1" y="139.37" width="1.63" height="1.21" transform="translate(-25.78 217.72) rotate(-45)"/><path d="M249.49,139.55l.85.85Z"/><polygon points="278.95 94.13 278.94 93.33 278.93 90.5 282.58 94.15 278.95 94.13"/><path d="M280.6,93.33h-.85v-.85Z"/><polygon points="252.04 136.16 252.03 132.53 255.67 136.18 252.04 136.16"/><path d="M252.86,135.35v-.85l.85.86Z"/><rect x="258.35" y="125.08" width="1.63" height="1.21" transform="translate(-12.97 220.07) rotate(-45)"/><path d="M258.73,125.26l.86.85Z"/><rect x="210.44" y="201.59" width="1.63" height="1.18" transform="translate(-81.08 208.84) rotate(-45.05)"/><path d="M211.67,202.6l-.83-.84Z"/><path d="M250.06,134.54h2.78l.83,0v3.64Z"/><path d="M252,135.36h.84v.84Z"/><rect x="163.36" y="283.94" width="1.63" height="1.21" transform="translate(-153.14 199.5) rotate(-45.01)"/><path d="M163.75,284.12l.85.85Z"/><polygon points="276.95 92.51 279.12 92.51 280.57 92.5 280.57 96.13 276.95 92.51"/><path d="M279.75,93.32v.85l-.83-.84Z"/><polygon points="364.04 345.79 364.05 345.77 365.26 346.87 364.04 345.79"/><path d="M364.64,346.33h0Z"/><polygon points="205.21 348.58 206.36 347.43 205.22 348.59 205.21 348.58"/><path d="M205.78,348h0Z"/><polygon points="259.4 344.55 263.94 338.31 269.9 344.18 268.11 345.83 259.4 344.55"/><path d="M267.84,345l-7-1,3.19-4.38,4.68,4.6Z"/><path d="M296.18,344.58l.73-1.13c1.31-2,2.47-3.36,3.94-3.36s2.85,1.61,4.3,4l.82,1.38Z"/><path d="M297.6,343.89c2.66-4.11,4-4,6.85.64Z"/><polygon points="266.55 337.65 267.71 336.5 266.58 337.68 266.55 337.65"/><path d="M267.16,337.1l0,0Z"/><polygon points="262.38 333.13 262.38 333.13 263.51 334.31 262.38 333.13"/><path d="M262.94,333.73h0Z"/><polygon points="296 333.98 296.01 333.97 297.13 335.15 296 333.98"/><path d="M296.57,334.56h0Z"/><polygon points="335.5 336.83 336.63 335.65 335.51 336.84 335.5 336.83"/><path d="M336.07,336.25h0Z"/><polygon points="381.7 443.14 383.39 441.75 389 444.48 387.11 451.77 381.7 443.14"/><path d="M383.51,442.71l4.54,2.21-1.25,4.81-4-6.42Z"/><polygon points="400.21 441.58 400.22 441.57 401.38 442.73 400.21 441.58"/><path d="M400.8,442.15h0Z"/><polygon points="353.99 442.42 353.99 442.41 355.14 443.57 353.99 442.42"/><path d="M354.57,443h0Z"/><path d="M185.42,447.64c-.86-1.82-1-3.11-.49-4.18.71-1.49,2.6-2.23,5.23-2.86l.45-.59.35.4,1.67-.38-.94,1.24.45.53-1,.25L186,448.86Z"/><path d="M190.65,441.31l-4.49,6c-1.67-3.51-.52-4.81,4.5-6Z"/><path d="M142.75,442.18h.84v1.63h-.85Z"/><path d="M142.75,443h0Z"/><path d="M238,405.17l1.9-3.27-5.37,3.87-1.68-1.44,2.41-3.52-2-2.38c-1.79-2.14-3.48-4.17-5.28-6.08a27.1,27.1,0,0,0-3.4-2.92l-1.14-.89c-2.64,2.39-4,3.59-5.55,3.59s-2.94-1.3-5.57-3.9a2.76,2.76,0,0,0-1.64-1c-.12,0-.49,0-1,.65-1.8,2.18-3.58,4.44-5.29,6.62l-2.17,2.76-.05,0h0c-.59.63-1.14,1.19-1.69,1.75-1.26,1.29-2.56,2.62-3.76,4a4.38,4.38,0,0,1-3,1.76,4.06,4.06,0,0,1-3-1.74c-1.51-1.75-3.15-3.44-4.74-5.08-.92-.94-1.83-1.88-2.72-2.83a3.31,3.31,0,0,0-2.18-1.3,2,2,0,0,0-1.38.69,4.53,4.53,0,0,1-3.18,1.55c-1.57,0-2.91-1.08-4-2.09l-.05-.05-7.09-9.14-6.89,4.92-.16-1.36c0-.3-.08-.54-.12-.71a1.42,1.42,0,0,1,.14-1.2c2.88-3.72,4.47-5.67,6.47-5.67s3.67,1.88,6.61,5.21c1.26,1.43,2.5,2.89,3.71,4.31l1.22,1.42c2.44-1.08,3.86-1.68,5.17-1.68,2,0,3.2,1.29,5.9,4.11l.09.1c1.37,1.44,2.86,2.84,4.29,4.2l1.76,1.68h.16l2.52-2.72c2.66-2.88,5.32-5.75,8-8.64.32-.35.62-.73.92-1.11s.61-.77.94-1.14c2.23-2.47,3.35-3.72,4.77-3.72s2.53,1.21,4.79,3.61a18.17,18.17,0,0,0,1.8,1.63l.34.28a5.29,5.29,0,0,0,2.67-2c1-1.13,2.13-2.41,3.81-2.41a4.89,4.89,0,0,1,2.87,1.13h.36l6.41-3.74,1.66,2.31-4.79,4.47c-.37.57-.39,1.33.4,2.53l.38.56c1.68,2.54,3.26,4.94,6.43,4.94a7.63,7.63,0,0,0,.8,0H239a1.72,1.72,0,0,1,1.24.45c.39.41.83.82,1.27,1.22,1.26,1.15,2.55,2.34,3,3.89.3,1.14-.94,2.18-2.51,3.49-.52.43-1.06.88-1.45,1.28l-.55.55Z"/><path d="M227.64,385.84l6-3.49.81,1.13-3.42,3.2h0c-1.8,1.25-1.64,2.77-.57,4.37,2,3,3.88,6.32,8.37,5.81a1.07,1.07,0,0,1,.8.19c1.46,1.54,3.55,2.94,4,4.76.25.93-2.41,2.63-3.75,4l-.84-.77c.7-1.22,1.41-2.44,2.12-3.66l-.65-.9-5.93,4.29-.65-.56c1-1.37,1.89-2.75,2.35-3.43-2.73-3.2-5.09-6.19-7.7-9a50.75,50.75,0,0,0-5.13-4.3l-.06.06c-.11.09-.23.16-.33.25-5.2,4.71-5.22,4.73-10.16-.15-1.29-1.27-2.57-1.85-3.87-.28-2.55,3.08-5,6.26-7.47,9.4h0c-1.84,1.91-3.73,3.77-5.48,5.75s-3,2.08-4.8,0c-2.37-2.75-5-5.28-7.48-7.94-1.43-1.53-3.07-2.26-4.72-.63-2.39,2.38-4.22,1.12-6.11-.57h0l-7.52-9.7-6.42,4.58c-.09-.83-.25-1.17-.14-1.31,5.45-7.06,5.94-7.08,11.83-.42,1.83,2.07,3.6,4.19,5.32,6.18,6.2-2.76,6.17-2.73,10.79,2.1,2,2.12,4.2,4.09,6.31,6.13H194q5.37-5.81,10.74-11.63c.66-.71,1.21-1.53,1.86-2.25,4.16-4.6,4.15-4.59,8.41-.06a30.13,30.13,0,0,0,2.42,2.16c3.82-.17,4.51-7.15,9.35-3.35h.84Z"/><path d="M199.24,404.27c.64-6.69,4.29-11,9.31-11a10.82,10.82,0,0,1,6,2l1.48,1-1.72.46a6.11,6.11,0,0,1-1.69.22,14.69,14.69,0,0,1-2.44-.27,11.4,11.4,0,0,0-1.9-.23,2.6,2.6,0,0,0-2.46,1.44,57.48,57.48,0,0,1-5.17,7l-1.67,2Z"/><path d="M214.12,396c-3.39.92-6.74-2.09-9,1.52a56.37,56.37,0,0,1-5.09,6.86C200.9,395.44,207.3,391.39,214.12,396Z"/><path d="M123.62,379.4a.88.88,0,0,1-.74-.48l0,0-.74-.5,1.43-1.38.49.7c.32.23.65.52.46,1.05l-.21.6-.18,0-.36.05Z"/><path d="M123.41,378.28l0,0c.34.5.16.23,0,0Z"/><polygon points="226.52 386.65 224.41 385.03 230.06 385.01 227.93 386.65 227.63 386.65 226.52 386.65"/><path d="M226.8,385.84h0Z"/><polygon points="230.42 386.1 230.43 386.1 231.58 387.25 230.42 386.1"/><path d="M231,386.68h0Z"/><polygon points="222.83 386.98 222.9 386.92 224.05 388.06 222.83 386.98"/><path d="M223.47,387.49l-.06.06Z"/><polygon points="172.43 393.97 173.58 392.82 172.43 393.98 172.43 393.97"/><path d="M173,393.4h0Z"/><polygon points="193.53 401.78 192.94 401.79 190.46 400.13 193.54 400.15 196.46 400.12 194.3 401.78 194.01 401.79 193.53 401.78"/><path d="M193.18,401h0Z"/><polygon points="200.44 396.78 201.57 395.6 202.17 396.18 203 397.03 201.85 398.18 200.44 396.78"/><path d="M201.58,396.77l.84.83-.83-.84Z"/><path d="M323.9,406c-.37-.32-.81-.64-1.28-1-1.2-.86-2.44-1.76-2.71-3s.74-2.63,3.17-4.72a6.3,6.3,0,0,1,3.91-1.36h.29c3.41,0,4.76-2.51,6.2-5.17l.22-.41a1.94,1.94,0,0,0-.27-1.8,6.21,6.21,0,0,0-4.61-2.85,2.53,2.53,0,0,0-.56.06l-.59.13a10.55,10.55,0,0,1-2.52.38l-.59,0-1.83-.18,1.5-1.36c1.74-1.58,3.55-3.22,6.08-3.22a6.68,6.68,0,0,1,1.79.26l.32.1.16.3c1.61,2.93,2.21,3.79,3.08,3.79s2-.55,3.85-1.46a2.52,2.52,0,0,1,1.07-.21,5.45,5.45,0,0,1,3,1,13,13,0,0,1,2.39,2.58l.68.85,7.39-8.06,18.18,20.47,8.17-9.05c1.06-1.18,2.37-2.38,4.07-2.38a4.84,4.84,0,0,1,3.13,1.33,2.07,2.07,0,0,0,1.33.59,3.09,3.09,0,0,0,2.17-1.44c1-1.24,2.05-2.46,3.07-3.65s2.13-2.46,3.13-3.72c1.17-1.45,2.32-2.16,3.54-2.16s2.36.7,3.5,2.15l4,5-1.62,2-.62-.47c-.33-.25-.67-.48-1-.71a11.09,11.09,0,0,1-2.33-1.9c-.76-.89-1.43-1.34-2-1.34s-1.3.53-2.11,1.61c-1.05,1.4-2.19,2.75-3.3,4.06-.85,1-1.72,2.05-2.55,3.1-1.14,1.45-2.3,2.16-3.52,2.16a4.38,4.38,0,0,1-2.93-1.35,3.05,3.05,0,0,0-2-.95A3.3,3.3,0,0,0,382,395.3c-.9,1-1.85,2-2.78,3s-2.16,2.27-3.16,3.46c-1.7,2-2.88,3.11-4.25,3.11s-2.62-1.14-4.38-3.24c-.34-.41-.72-.79-1.12-1.2-.19-.19-.38-.38-.56-.58l-.08-.09-.72-.71-.06-.06-1.67-1.68,0,0h0l-9-11.34-1,1.22c-1,1.23-1.8,2.2-2.65,3.17-1.34,1.53-2.6,2.27-3.85,2.27s-2.48-.8-3.56-2.37c-.85-1.23-1.58-1.85-2.17-1.85-.82,0-1.85,1.19-2.56,2.09-2,2.56-4.19,4.93-6.5,7.44l-2.61,2.86L331.6,404l-1.34,1.86-5.93-4.11,1.86,2.94-1.68,1.87Z"/><path d="M363.81,396.77l-9.58-12.12c-1.84,2.21-3,3.72-4.28,5.15-2.24,2.56-4.22,2.76-6.13,0-2.29-3.34-3.87-2.56-6,.2-2.87,3.65-6.15,7-9.52,10.75.45.62,1.39,1.93,2.34,3.23l-.53.73-6.18-4.27c-.25.31-.49.63-.74.95l2,3.2-.73.8c-1.32-1.17-3.44-2.18-3.73-3.57-.22-1.1,1.63-2.86,2.9-3.94a5.6,5.6,0,0,1,3.48-1.17c4.24.1,5.78-3.16,7.33-6,1.32-2.44-3.23-6.45-6.33-5.78a10.94,10.94,0,0,1-3.45.47c2.08-1.89,4.11-3.82,7.23-2.9h0c2.77,5,3,5.07,8,2.69.8-.39,2.38.09,3.2.71,1.19.88,2,2.24,3.52,4l7.41-8.09,18.18,20.48,8.78-9.73c1.77-2,3.54-3.09,6.07-1,1.75,1.47,3.32.71,4.66-1,2-2.5,4.21-4.86,6.21-7.37s3.83-2.47,5.76,0c1.18,1.51,2.37,3,3.56,4.52l-.71.85a19,19,0,0,1-3.22-2.49c-2-2.37-3.61-2-5.37.31s-3.94,4.72-5.84,7.14c-1.57,2-3.18,2.61-5.27.72s-3.71-1.45-5.4.5c-1.93,2.21-4.06,4.25-5.95,6.49-3.18,3.76-4.11,3.78-7.38-.13-.54-.64-1.15-1.22-1.72-1.82l-.06-.06-.79-.79,0,0-.83-.83-.85-.86Z"/><path d="M367.72,405.93c-.34-.13-.71-.24-1.07-.34a6.14,6.14,0,0,1-2.63-1.23,21.11,21.11,0,0,1-3.28-4.36l-.07-.12c-1.39-2.24-2.73-3.73-4.72-3.73a5.57,5.57,0,0,0-2,.43,1.36,1.36,0,0,1-.51.09,2.38,2.38,0,0,1-.92-.22,2.07,2.07,0,0,1-.67-.53l-.13-.13-.75-.7.85-.57c2-1.39,3.44-1.95,4.77-1.95s2.73.64,4.48,2.23l1.68,1.5.86.76,5.11,7.66-.74.6Z"/><path d="M368,405.16c-1.17-.44-2.59-.6-3.43-1.39a21,21,0,0,1-3.22-4.32c-1.81-2.91-3.86-5.14-7.73-3.63a1.17,1.17,0,0,1-.81-.11,2.78,2.78,0,0,1-.58-.52c3.67-2.47,5.35-2.42,8.25.21.82.75,1.65,1.47,2.48,2.21h0l1.69,2.53h0q1.68,2.53,3.37,5.05Z"/><path d="M364.43,401.13l-.59.28v-1l-.49-.58.49-.24v-2h1.91l.27.21.06.06.81.81.78.89-2.2,1.05v1.74Z"/><path d="M366.35,399.31l-1.7.81h0v-1.68h.83l0,0,.79.79Z"/><polygon points="313.11 375.79 316.72 375.76 316.71 379.4 313.11 375.79"/><path d="M315.9,376.58v.86l-.84-.85Z"/><polygon points="316.17 378.85 316.74 378.28 316.13 378.82 313.93 376.62 317.56 376.61 317.55 380.24 316.17 378.85"/><path d="M316.74,377.42v.86l-.85-.85Z"/><polygon points="314.77 377.46 318.4 377.45 318.39 381.08 314.77 377.46"/><path d="M317.59,378.26v.86c-.28-.29-.56-.57-.85-.85Z"/><polygon points="315.61 378.3 319.24 378.29 319.23 381.92 315.61 378.3"/><path d="M318.43,379.1V380c-.28-.29-.56-.57-.85-.85Z"/><polygon points="318.41 379.13 319.27 379.13 319.27 380.76 318.42 380.76 318.41 379.13"/><path d="M318.41,380h0Z"/><polygon points="331.3 383.06 332.42 381.88 331.31 383.07 331.3 383.06"/><path d="M331.87,382.48h0Z"/><polygon points="362.61 398.41 361.03 398.4 361.84 397.58 361.1 396.77 362.65 396.78 362.99 396.44 362.98 394.61 363.85 395.58 364.61 394.81 364.62 396.44 364.92 396.79 364.91 396.8 364.92 396.8 364.62 397.1 364.62 398.42 363.32 398.41 363.01 398.73 363.01 398.72 362.96 398.77 362.61 398.41"/><path d="M363,397.61l.84-.84v.83H363Z"/><polygon points="438.88 403.22 440.03 402.07 438.89 403.23 438.88 403.22"/><path d="M439.46,402.65h0Z"/><polygon points="367.42 405.73 368.6 404.6 367.43 405.74 367.42 405.73"/><path d="M368,405.17h0Z"/><polygon points="305.26 243.18 305.27 243.18 306.36 244.38 305.26 243.18"/><path d="M305.81,243.78h0Z"/><polygon points="239.65 252.47 239.66 252.46 240.84 253.58 239.65 252.47"/><path d="M240.24,253h0Z"/><path d="M280.26,200.5c-.13-2.15.17-3.5,1-4.36a3.61,3.61,0,0,1,2.79-1,10.28,10.28,0,0,1,1.72.16l1.6.27-7,6.68Z"/><path d="M285.61,196.1l-4.54,4.35C280.84,196.67,282,195.5,285.61,196.1Z"/><rect x="252.89" y="191.61" width="1.63" height="0.1" transform="translate(-60.91 237.7) rotate(-45.4)"/><path d="M253.67,191.63l.07.07Z"/><path d="M284.82,137.87V137h1.63c0,.28,0,.56,0,.85Z"/><path d="M285.64,137.87v0Z"/><polygon points="361.86 396.8 365.48 396.78 365.45 400.39 361.86 396.8"/><path d="M364.65,398.44l-.84-.84h.84Z"/></svg>