<svg width="166" height="165" viewBox="0 0 166 165" fill="none" xmlns="http://www.w3.org/2000/svg">
<g clip-path="url(#clip0_260_33540)">
<path d="M20.7201 175.77L51.8328 144.657L20.7201 113.545L-10.3926 144.657L-7.56415 147.486L20.7201 119.201L46.1759 144.657L17.8917 172.941L20.7201 175.77Z" fill="#59AAF3"/>
<path d="M15.0636 170.113L40.5195 144.658L20.7205 124.859L-4.73535 150.314L-1.90693 153.143L20.7205 130.515L34.8626 144.658L12.2352 167.285L15.0636 170.113Z" fill="#59AAF3"/>
<path d="M23.5483 144.657L20.7199 141.829L3.74932 158.799L0.920898 155.971L20.7199 136.172L29.2052 144.657L9.40617 164.456L6.57775 161.628L23.5483 144.657Z" fill="#59AAF3"/>
<path d="M82.9457 113.544L114.058 82.4316L111.23 79.6032L82.9457 107.887L57.4899 82.4316L85.7741 54.1474L82.9457 51.319L51.833 82.4316L82.9457 113.544Z" fill="#59AAF3"/>
<path d="M63.1465 82.4316L71.6318 90.9169L97.0876 65.4611L94.2592 62.6327L71.6318 85.2601L68.8033 82.4316L91.4307 59.8042L88.6023 56.9758L63.1465 82.4316Z" fill="#59AAF3"/>
<path d="M74.46 93.7451L82.9452 102.23L108.401 76.7746L105.573 73.9461L82.9452 96.5735L80.1168 93.7451L102.744 71.1177L99.9158 68.2893L74.46 93.7451Z" fill="#59AAF3"/>
<path d="M51.8324 82.4322L20.7197 113.545L23.5482 116.373L54.6608 85.2607L51.8324 82.4322Z" fill="#59AAF3"/>
<path d="M80.1166 110.716L49.0039 141.829L51.8323 144.658L82.945 113.545L80.1166 110.716Z" fill="#59AAF3"/>
<path d="M40.5189 105.059L37.6904 107.888L57.4894 127.687L60.3178 124.858L40.5189 105.059Z" fill="#59AAF3"/>
<path d="M46.1751 99.403L43.3467 102.231L63.1457 122.03L65.9741 119.202L46.1751 99.403Z" fill="#59AAF3"/>
<path d="M49.0039 96.5742L68.8029 116.373L77.2882 107.888L74.4597 105.059L68.8029 110.716L54.6608 96.5742L60.3176 90.9174L57.4892 88.0889L49.0039 96.5742Z" fill="#59AAF3"/>
<path d="M34.8622 110.717L26.377 119.202L29.2054 122.031L34.8622 116.374L49.0044 130.516L43.3475 136.173L46.1759 139.001L54.6612 130.516L34.8622 110.717Z" fill="#59AAF3"/>
<path d="M150.829 181.426L181.941 150.313L179.113 147.485L150.829 175.769L125.373 150.313L153.657 122.029L150.829 119.201L119.716 150.313L150.829 181.426Z" fill="#59AAF3"/>
<path d="M131.029 150.313L139.515 158.799L164.97 133.343L162.142 130.514L139.515 153.142L136.686 150.313L159.314 127.686L156.485 124.858L131.029 150.313Z" fill="#59AAF3"/>
<path d="M142.343 161.627L150.828 170.112L176.284 144.656L173.455 141.828L150.828 164.455L148 161.627L170.627 139L167.799 136.171L142.343 161.627Z" fill="#59AAF3"/>
<path d="M119.715 150.314L88.6025 181.427L91.431 184.255L122.544 153.143L119.715 150.314Z" fill="#59AAF3"/>
<path d="M116.887 164.456L136.686 184.255L145.171 175.77L142.343 172.941L136.686 178.598L122.544 164.456L128.2 158.799L125.372 155.971L116.887 164.456Z" fill="#59AAF3"/>
<path d="M114.058 82.431L145.171 51.3184L114.058 20.2057L82.9453 51.3184L85.7737 54.1468L114.058 25.8625L139.514 51.3184L111.23 79.6026L114.058 82.431Z" fill="#59AAF3"/>
<path d="M108.402 76.7746L133.857 51.3187L114.058 31.5198L88.6025 56.9756L91.431 59.804L114.058 37.1766L128.2 51.3187L105.573 73.9461L108.402 76.7746Z" fill="#59AAF3"/>
<path d="M116.886 51.3181L114.058 48.4897L97.0872 65.4603L94.2588 62.6318L114.058 42.8329L122.543 51.3181L102.744 71.1171L99.9156 68.2887L116.886 51.3181Z" fill="#59AAF3"/>
<path d="M176.284 20.2055L207.396 -10.9072L204.568 -13.7357L176.284 14.5486L150.828 -10.9072L179.112 -39.1915L176.284 -42.0199L145.171 -10.9072L176.284 20.2055Z" fill="#59AAF3"/>
<path d="M145.17 -10.9066L114.058 20.2061L116.886 23.0345L147.999 -8.0782L145.17 -10.9066Z" fill="#59AAF3"/>
<path d="M173.454 17.3776L142.342 48.4902L145.17 51.3187L176.283 20.206L173.454 17.3776Z" fill="#59AAF3"/>
<path d="M133.857 11.7204L131.028 14.5488L150.827 34.3478L153.656 31.5194L133.857 11.7204Z" fill="#59AAF3"/>
<path d="M139.513 6.06415L136.685 8.89258L156.484 28.6916L159.312 25.8631L139.513 6.06415Z" fill="#59AAF3"/>
<path d="M142.342 3.23535L162.141 23.0343L170.626 14.5491L167.798 11.7206L162.141 17.3775L147.999 3.23535L153.655 -2.4215L150.827 -5.24992L142.342 3.23535Z" fill="#59AAF3"/>
<path d="M128.2 17.378L119.715 25.8633L122.543 28.6917L128.2 23.0349L142.342 37.177L136.685 42.8338L139.514 45.6623L147.999 37.177L128.2 17.378Z" fill="#59AAF3"/>
<path d="M181.941 150.314L213.053 119.201L181.941 88.0885L150.828 119.201L153.657 122.03L181.941 93.7453L207.397 119.201L179.112 147.485L181.941 150.314Z" fill="#59AAF3"/>
<path d="M176.284 144.657L201.74 119.202L181.941 99.4026L156.485 124.858L159.314 127.687L181.941 105.059L196.083 119.202L173.456 141.829L176.284 144.657Z" fill="#59AAF3"/>
<path d="M184.769 119.201L181.941 116.373L164.97 133.343L162.142 130.515L181.941 110.716L190.426 119.201L170.627 139L167.798 136.171L184.769 119.201Z" fill="#59AAF3"/>
<path d="M54.6615 209.71L85.7742 178.598L82.9458 175.769L54.6615 204.053L29.2057 178.598L57.4899 150.313L54.6615 147.485L23.5488 178.598L54.6615 209.71Z" fill="#59AAF3"/>
<path d="M34.8623 178.598L43.3476 187.083L68.8034 161.627L65.975 158.799L43.3476 181.426L40.5192 178.598L63.1466 155.97L60.3181 153.142L34.8623 178.598Z" fill="#59AAF3"/>
<path d="M46.1758 189.911L54.6611 198.396L80.1169 172.941L77.2885 170.112L54.6611 192.74L51.8326 189.911L74.46 167.284L71.6316 164.455L46.1758 189.911Z" fill="#59AAF3"/>
<path d="M85.7738 178.598L116.886 147.485L85.7738 116.373L54.6611 147.485L57.4896 150.314L85.7738 122.03L111.23 147.485L82.9454 175.77L85.7738 178.598Z" fill="#59AAF3"/>
<path d="M80.1173 172.942L105.573 147.486L85.7742 127.687L60.3184 153.143L63.1468 155.971L85.7742 133.344L99.9163 147.486L77.2889 170.113L80.1173 172.942Z" fill="#59AAF3"/>
<path d="M88.602 147.485L85.7736 144.657L68.803 161.627L65.9746 158.799L85.7736 139L94.2589 147.485L74.4599 167.284L71.6315 164.456L88.602 147.485Z" fill="#59AAF3"/>
<path d="M147.999 116.372L179.112 85.2598L176.284 82.4313L147.999 110.716L122.544 85.2598L150.828 56.9755L147.999 54.1471L116.887 85.2598L147.999 116.372Z" fill="#59AAF3"/>
<path d="M128.2 85.2598L136.685 93.745L162.141 68.2892L159.313 65.4608L136.685 88.0882L133.857 85.2598L156.484 62.6324L153.656 59.8039L128.2 85.2598Z" fill="#59AAF3"/>
<path d="M139.515 96.5732L148 105.059L173.456 79.6027L170.627 76.7743L148 99.4017L145.171 96.5732L167.799 73.9458L164.97 71.1174L139.515 96.5732Z" fill="#59AAF3"/>
<path d="M116.886 85.2604L85.7734 116.373L88.6019 119.201L119.715 88.0888L116.886 85.2604Z" fill="#59AAF3"/>
<path d="M145.17 113.545L114.058 144.657L116.886 147.486L147.999 116.373L145.17 113.545Z" fill="#59AAF3"/>
<path d="M105.573 107.887L102.744 110.716L122.543 130.515L125.372 127.686L105.573 107.887Z" fill="#59AAF3"/>
<path d="M111.229 102.231L108.4 105.06L128.199 124.859L131.028 122.03L111.229 102.231Z" fill="#59AAF3"/>
<path d="M114.058 99.4023L133.857 119.201L142.342 110.716L139.513 107.888L133.857 113.544L119.714 99.4023L125.371 93.7455L122.543 90.9171L114.058 99.4023Z" fill="#59AAF3"/>
<path d="M99.9159 113.545L91.4307 122.03L94.2591 124.859L99.9159 119.202L114.058 133.344L108.401 139.001L111.23 141.829L119.715 133.344L99.9159 113.545Z" fill="#59AAF3"/>
<path d="M179.113 85.2601L210.225 54.1475L179.113 23.0348L148 54.1475L150.828 56.9759L179.113 28.6916L204.569 54.1475L176.284 82.4317L179.113 85.2601Z" fill="#59AAF3"/>
<path d="M173.456 79.6037L198.912 54.1478L179.113 34.3489L153.657 59.8047L156.486 62.6331L179.113 40.0057L193.255 54.1478L170.628 76.7752L173.456 79.6037Z" fill="#59AAF3"/>
<path d="M181.941 54.1472L179.112 51.3188L162.142 68.2894L159.313 65.4609L179.112 45.662L187.598 54.1472L167.799 73.9462L164.97 71.1178L181.941 54.1472Z" fill="#59AAF3"/>
<path d="M15.0639 45.6615L46.1765 14.5488L43.3481 11.7204L15.0639 40.0047L-10.392 14.5488L17.8923 -13.7354L15.0639 -16.5639L-16.0488 14.5488L15.0639 45.6615Z" fill="#59AAF3"/>
<path d="M-4.73535 14.5488L3.74992 23.0341L29.2058 -2.42173L26.3773 -5.25015L3.74993 17.3773L0.9215 14.5488L23.5489 -8.07858L20.7205 -10.907L-4.73535 14.5488Z" fill="#59AAF3"/>
<path d="M6.57812 25.8623L15.0634 34.3476L40.5192 8.89175L37.6908 6.06333L15.0634 28.6907L12.235 25.8623L34.8624 3.2349L32.034 0.406474L6.57812 25.8623Z" fill="#59AAF3"/>
<path d="M12.2348 42.8336L-18.8779 73.9463L-16.0495 76.7747L15.0632 45.662L12.2348 42.8336Z" fill="#59AAF3"/>
<path d="M-18.8779 28.6914L0.921049 48.4904L9.40633 40.0051L6.5779 37.1767L0.921049 42.8335L-13.2211 28.6914L-7.56423 23.0346L-10.3927 20.2061L-18.8779 28.6914Z" fill="#59AAF3"/>
<path d="M46.1762 14.5492L77.2888 -16.5635L46.1762 -47.6762L15.0635 -16.5635L17.8919 -13.7351L46.1762 -42.0193L71.632 -16.5635L43.3477 11.7208L46.1762 14.5492Z" fill="#59AAF3"/>
<path d="M40.5197 8.89273L65.9755 -16.5631L46.1765 -36.3621L20.7207 -10.9062L23.5491 -8.07782L46.1765 -30.7052L60.3187 -16.5631L37.6913 6.0643L40.5197 8.89273Z" fill="#59AAF3"/>
<path d="M49.0044 -16.5637L46.1759 -19.3921L29.2054 -2.42157L26.377 -5.25L46.1759 -25.049L54.6612 -16.5637L34.8622 3.23528L32.0338 0.406851L49.0044 -16.5637Z" fill="#59AAF3"/>
<path d="M17.892 110.716L49.0047 79.6035L17.892 48.4908L-13.2207 79.6035L-10.3923 82.4319L17.892 54.1477L43.3478 79.6035L15.0636 107.888L17.892 110.716Z" fill="#59AAF3"/>
<path d="M12.2355 105.06L37.6913 79.6039L17.8924 59.8049L-7.56348 85.2607L-4.73505 88.0892L17.8924 65.4618L32.0345 79.6039L9.40708 102.231L12.2355 105.06Z" fill="#59AAF3"/>
<path d="M20.7202 79.6033L17.8918 76.7749L0.921199 93.7454L-1.90723 90.917L17.8918 71.118L26.377 79.6033L6.57805 99.4023L3.74962 96.5738L20.7202 79.6033Z" fill="#59AAF3"/>
<path d="M80.1176 48.4906L111.23 17.3779L108.402 14.5495L80.1176 42.8338L54.6617 17.3779L82.946 -10.9063L80.1176 -13.7348L49.0049 17.3779L80.1176 48.4906Z" fill="#59AAF3"/>
<path d="M60.3184 17.3779L68.8036 25.8632L94.2595 0.407376L91.431 -2.42105L68.8036 20.2064L65.9752 17.3779L88.6026 -5.24947L85.7742 -8.0779L60.3184 17.3779Z" fill="#59AAF3"/>
<path d="M71.6328 28.6914L80.1181 37.1767L105.574 11.7209L102.745 8.89243L80.1181 31.5198L77.2897 28.6914L99.9171 6.064L97.0886 3.23558L71.6328 28.6914Z" fill="#59AAF3"/>
<path d="M49.0043 17.3785L17.8916 48.4912L20.72 51.3196L51.8327 20.207L49.0043 17.3785Z" fill="#59AAF3"/>
<path d="M77.2885 45.6627L46.1758 76.7754L49.0042 79.6038L80.1169 48.4911L77.2885 45.6627Z" fill="#59AAF3"/>
<path d="M37.6907 40.0056L34.8623 42.834L54.6613 62.633L57.4897 59.8045L37.6907 40.0056Z" fill="#59AAF3"/>
<path d="M43.347 34.3493L40.5186 37.1777L60.3175 56.9767L63.146 54.1483L43.347 34.3493Z" fill="#59AAF3"/>
<path d="M46.1758 31.5205L65.9748 51.3195L74.46 42.8342L71.6316 40.0058L65.9748 45.6626L51.8326 31.5205L57.4895 25.8637L54.6611 23.0352L46.1758 31.5205Z" fill="#59AAF3"/>
<path d="M32.0341 45.6632L23.5488 54.1484L26.3773 56.9769L32.0341 51.32L46.1762 65.4621L40.5194 71.119L43.3478 73.9474L51.8331 65.4621L32.0341 45.6632Z" fill="#59AAF3"/>
<path d="M111.23 17.3773L142.343 -13.7354L111.23 -44.848L80.1172 -13.7354L82.9456 -10.9069L111.23 -39.1912L136.686 -13.7354L108.401 14.5489L111.23 17.3773Z" fill="#59AAF3"/>
<path d="M105.573 11.7209L131.029 -13.735L111.23 -33.534L85.7744 -8.07812L88.6028 -5.2497L111.23 -27.8771L125.372 -13.735L102.745 8.89243L105.573 11.7209Z" fill="#59AAF3"/>
<path d="M114.058 -13.7356L111.23 -16.564L94.2591 0.406551L91.4307 -2.42188L111.23 -22.2209L119.715 -13.7356L99.9159 6.0634L97.0875 3.23498L114.058 -13.7356Z" fill="#59AAF3"/>
<path d="M-13.2203 141.829L17.8924 110.716L15.0639 107.887L-13.2203 136.172L-38.6762 110.716L-10.3919 82.4316L-13.2203 79.6031L-44.333 110.716L-13.2203 141.829Z" fill="#59AAF3"/>
<path d="M-33.0195 110.716L-24.5343 119.201L0.921575 93.7453L-1.90685 90.9168L-24.5343 113.544L-27.3627 110.716L-4.73528 88.0884L-7.5637 85.26L-33.0195 110.716Z" fill="#59AAF3"/>
<path d="M-21.7061 122.029L-13.2208 130.515L12.2351 105.059L9.40663 102.23L-13.2208 124.858L-16.0492 122.029L6.5782 99.4019L3.74978 96.5735L-21.7061 122.029Z" fill="#59AAF3"/>
</g>
<defs>
<clipPath id="clip0_260_33540">
<rect x="0.5" width="165" height="165" rx="82.5" fill="white"/>
</clipPath>
</defs>
</svg>
