<svg width="166" height="165" viewBox="0 0 166 165" fill="none" xmlns="http://www.w3.org/2000/svg">
<g clip-path="url(#clip0_260_33880)">
<path d="M81.833 146.568L101.632 126.769L79.0046 104.142L81.833 101.314L104.46 123.941L107.289 121.113L81.833 95.6567L73.3477 104.142L95.9751 126.769L81.833 140.912L53.5488 112.627L50.7203 115.456L81.833 146.568Z" fill="#D4B8FF"/>
<path d="M81.8329 129.597L59.2055 106.97L56.3771 109.798L81.8329 135.254L90.3182 126.769L67.6908 104.142L81.8329 89.9995L110.117 118.284L112.946 115.455L81.8329 84.3426L62.0339 104.142L84.6613 126.769L81.8329 129.597Z" fill="#D4B8FF"/>
<path d="M-3.02002 106.971L16.7789 87.1717L-5.84845 64.5443L-3.02002 61.7159L19.6074 84.3433L22.4358 81.5149L-3.02002 56.0591L-11.5053 64.5443L11.1221 87.1717L-3.02002 101.314L-31.3043 73.0296L-34.1327 75.858L-3.02002 106.971Z" fill="#D4B8FF"/>
<path d="M-3.02013 89.9998L-25.6475 67.3724L-28.476 70.2008L-3.02013 95.6566L5.46514 87.1714L-17.1623 64.544L-3.02013 50.4018L25.2641 78.6861L28.0925 75.8577L-3.02013 44.745L-22.8191 64.544L-0.191707 87.1714L-3.02013 89.9998Z" fill="#D4B8FF"/>
<path d="M132.745 220.107L152.544 200.308L129.916 177.681L132.745 174.853L155.372 197.48L158.2 194.652L132.745 169.196L124.259 177.681L146.887 200.308L132.745 214.451L104.46 186.166L101.632 188.995L132.745 220.107Z" fill="#D4B8FF"/>
<path d="M132.745 203.136L110.117 180.509L107.289 183.338L132.745 208.793L141.23 200.308L118.602 177.681L132.745 163.539L161.029 191.823L163.857 188.994L132.745 157.882L112.946 177.681L135.573 200.308L132.745 203.136Z" fill="#D4B8FF"/>
<path d="M149.715 78.6865L169.514 58.8876L146.887 36.2602L149.715 33.4317L172.343 56.0591L175.171 53.2307L149.715 27.7749L141.23 36.2602L163.857 58.8876L149.715 73.0297L121.431 44.7454L118.603 47.5739L149.715 78.6865Z" fill="#D4B8FF"/>
<path d="M149.715 61.7156L127.088 39.0882L124.259 41.9166L149.715 67.3724L158.2 58.8872L135.573 36.2598L149.715 22.1177L177.999 50.4019L180.828 47.5735L149.715 16.4608L129.916 36.2598L152.544 58.8872L149.715 61.7156Z" fill="#D4B8FF"/>
<path d="M64.8623 39.0879L84.6613 19.2889L62.0339 -3.33847L64.8623 -6.1669L87.4897 16.4605L90.3181 13.6321L64.8623 -11.8237L56.377 -3.33847L79.0044 19.2889L64.8623 33.431L36.5781 5.1468L33.7496 7.97523L64.8623 39.0879Z" fill="#D4B8FF"/>
<path d="M64.8622 22.117L42.2348 -0.510426L39.4064 2.318L64.8622 27.7738L73.3475 19.2885L50.7201 -3.33885L64.8622 -17.481L93.1464 10.8033L95.9749 7.97484L64.8622 -23.1378L45.0632 -3.33885L67.6906 19.2885L64.8622 22.117Z" fill="#D4B8FF"/>
<path d="M47.8916 180.51L67.6906 160.711L45.0632 138.083L47.8916 135.255L70.519 157.882L73.3474 155.054L47.8916 129.598L39.4063 138.083L62.0337 160.711L47.8916 174.853L19.6074 146.569L16.7789 149.397L47.8916 180.51Z" fill="#D4B8FF"/>
<path d="M47.8915 163.539L25.2641 140.911L22.4357 143.74L47.8915 169.196L56.3768 160.71L33.7494 138.083L47.8915 123.941L76.1757 152.225L79.0042 149.397L47.8915 118.284L28.0925 138.083L50.7199 160.71L47.8915 163.539Z" fill="#D4B8FF"/>
<path d="M183.656 44.7451L203.455 24.9461L180.828 2.31875L183.656 -0.509673L206.284 22.1177L209.112 19.2893L183.656 -6.16652L175.171 2.31875L197.798 24.9461L183.656 39.0883L155.372 10.804L152.544 13.6325L183.656 44.7451Z" fill="#D4B8FF"/>
<path d="M183.657 27.7742L161.029 5.1468L158.201 7.97523L183.657 33.431L192.142 24.9458L169.515 2.31838L183.657 -11.8237L211.941 16.4605L214.769 13.6321L183.657 -17.4806L163.858 2.31838L186.485 24.9458L183.657 27.7742Z" fill="#D4B8FF"/>
<path d="M13.9507 214.45L33.7497 194.651L11.1223 172.024L13.9507 169.195L36.5781 191.823L39.4065 188.994L13.9507 163.539L5.46541 172.024L28.0928 194.651L13.9507 208.793L-14.3336 180.509L-17.162 183.338L13.9507 214.45Z" fill="#D4B8FF"/>
<path d="M13.9506 197.479L-8.67682 174.852L-11.5052 177.68L13.9506 203.136L22.4358 194.651L-0.191552 172.023L13.9506 157.881L42.2348 186.166L45.0632 183.337L13.9506 152.224L-5.8484 172.023L16.779 194.651L13.9506 197.479Z" fill="#D4B8FF"/>
<path d="M98.8032 5.14746L118.602 -14.6515L95.9748 -37.2789L98.8032 -40.1073L121.431 -17.4799L124.259 -20.3084L98.8032 -45.7642L90.3179 -37.2789L112.945 -14.6515L98.8032 -0.509388L70.519 -28.7936L67.6906 -25.9652L98.8032 5.14746Z" fill="#D4B8FF"/>
<path d="M115.774 112.627L135.573 92.828L112.945 70.2006L115.774 67.3722L138.401 89.9996L141.23 87.1711L115.774 61.7153L107.289 70.2006L129.916 92.828L115.774 106.97L87.4897 78.6859L84.6613 81.5143L115.774 112.627Z" fill="#D4B8FF"/>
<path d="M115.774 95.656L93.1464 73.0286L90.318 75.8571L115.774 101.313L124.259 92.8276L101.632 70.2002L115.774 56.0581L144.058 84.3423L146.886 81.5139L115.774 50.4012L95.9748 70.2002L118.602 92.8276L115.774 95.656Z" fill="#D4B8FF"/>
<path d="M30.9214 73.0293L50.7204 53.2303L28.093 30.6029L30.9214 27.7745L53.5488 50.4019L56.3772 47.5735L30.9214 22.1177L22.4361 30.6029L45.0635 53.2303L30.9214 67.3724L2.63714 39.0882L-0.191284 41.9166L30.9214 73.0293Z" fill="#D4B8FF"/>
<path d="M30.9213 56.0584L8.29388 33.431L5.46545 36.2594L30.9213 61.7152L39.4065 53.2299L16.7792 30.6026L30.9213 16.4604L59.2055 44.7447L62.0339 41.9162L30.9213 10.8036L11.1223 30.6026L33.7497 53.2299L30.9213 56.0584Z" fill="#D4B8FF"/>
<path d="M166.686 186.166L186.485 166.367L163.857 143.74L166.686 140.911L189.313 163.539L192.141 160.71L166.686 135.254L158.2 143.74L180.828 166.367L166.686 180.509L138.401 152.225L135.573 155.053L166.686 186.166Z" fill="#D4B8FF"/>
<path d="M166.686 169.195L144.059 146.568L141.23 149.396L166.686 174.852L175.171 166.367L152.544 143.739L166.686 129.597L194.97 157.881L197.799 155.053L166.686 123.94L146.887 143.739L169.514 166.367L166.686 169.195Z" fill="#D4B8FF"/>
<path d="M65.697 162.704C65.697 170.681 65.697 186.039 65.697 193.817L96.8096 193.817L98.8037 191.823L96.8096 189.829C93.9812 189.829 71.8629 189.829 69.685 189.829L69.685 162.704L67.691 160.71L65.697 162.704Z" fill="#D4B8FF"/>
<path d="M-11.1513 146.215H7.94053L3.95245 142.227L-7.16325 142.227V131.111L-11.1513 127.123V146.215Z" fill="#D4B8FF"/>
<path d="M-19.1556 123.107C-19.1556 131.083 -19.1556 146.441 -19.1556 154.219L11.9571 154.219L13.9511 152.225L11.9571 150.231C9.12867 150.231 -12.9896 150.231 -15.1675 150.231L-15.1675 123.107L-17.1615 121.113L-19.1556 123.107Z" fill="#D4B8FF"/>
<path d="M-19.6367 158.236L-5.84815 172.025L-3.01973 169.196L-9.99179 162.224H3.95234L7.94042 158.236H-19.6367Z" fill="#D4B8FF"/>
<path d="M22.7896 112.273H41.8815L37.8934 108.285L26.7777 108.285V97.1697L22.7896 93.1816V112.273Z" fill="#D4B8FF"/>
<path d="M14.7853 89.1653C14.7853 97.1415 14.7853 112.5 14.7853 120.278L45.898 120.278L47.8921 118.284L45.898 116.29C43.0696 116.29 20.9513 116.29 18.7734 116.29L18.7734 89.1653L16.7794 87.1713L14.7853 89.1653Z" fill="#D4B8FF"/>
<path d="M-11.5051 115.456L-14.3335 118.284L16.7792 149.397L19.6076 146.568L-11.5051 115.456Z" fill="#D4B8FF"/>
<path d="M-5.84833 109.799L-8.67676 112.627L22.4359 143.74L25.2643 140.911L-5.84833 109.799Z" fill="#D4B8FF"/>
<path d="M10.7685 93.1821L6.78047 97.1702V111.114L-0.191595 104.142L-3.02002 106.971L10.7685 120.759V93.1821Z" fill="#D4B8FF"/>
<path d="M14.3042 124.295L28.0928 138.083L30.9212 135.255L23.9491 128.283H37.8933L41.8813 124.295H14.3042Z" fill="#D4B8FF"/>
<path d="M150.55 -46.5993C150.55 -38.6231 150.55 -23.2648 150.55 -15.4866L181.663 -15.4866L183.657 -17.4807L181.663 -19.4747C178.834 -19.4747 156.716 -19.4747 154.538 -19.4747L154.538 -46.5993L152.544 -48.5933L150.55 -46.5993Z" fill="#D4B8FF"/>
<path d="M124.259 -20.3089L121.431 -17.4805L152.543 13.6322L155.372 10.8038L124.259 -20.3089Z" fill="#D4B8FF"/>
<path d="M129.916 -25.9651L127.088 -23.1367L158.201 7.97595L161.029 5.14753L129.916 -25.9651Z" fill="#D4B8FF"/>
<path d="M150.069 -11.4697L163.857 2.31884L166.686 -0.509582L159.714 -7.48165H173.658L177.646 -11.4697H150.069Z" fill="#D4B8FF"/>
<path d="M107.642 151.871H126.734L122.746 147.883L111.63 147.883V136.767L107.642 132.779V151.871Z" fill="#D4B8FF"/>
<path d="M99.6379 128.763C99.6379 136.739 99.6379 152.098 99.6379 159.876L130.751 159.876L132.745 157.882L130.751 155.888C127.922 155.888 105.804 155.888 103.626 155.888L103.626 128.763L101.632 126.769L99.6379 128.763Z" fill="#D4B8FF"/>
<path d="M73.3475 155.053L70.519 157.882L101.632 188.995L104.46 186.166L73.3475 155.053Z" fill="#D4B8FF"/>
<path d="M79.0042 149.396L76.1758 152.225L107.288 183.337L110.117 180.509L79.0042 149.396Z" fill="#D4B8FF"/>
<path d="M95.6211 132.78L91.633 136.768V150.712L84.6609 143.74L81.8325 146.568L95.6211 160.357V132.78Z" fill="#D4B8FF"/>
<path d="M99.1567 163.893L112.945 177.681L115.774 174.853L108.802 167.881H122.746L126.734 163.893H99.1567Z" fill="#D4B8FF"/>
<path d="M56.7305 78.3321H75.8224L71.8343 74.344L60.7186 74.344V63.2283L56.7305 59.2402V78.3321Z" fill="#D4B8FF"/>
<path d="M48.7263 55.2239C48.7263 63.2001 48.7263 78.5584 48.7263 86.3366L79.8389 86.3366L81.833 84.3426L79.8389 82.3485C77.0105 82.3485 54.8922 82.3485 52.7143 82.3485L52.7143 55.2239L50.7203 53.2299L48.7263 55.2239Z" fill="#D4B8FF"/>
<path d="M22.4358 81.5143L19.6074 84.3428L50.7201 115.455L53.5485 112.627L22.4358 81.5143Z" fill="#D4B8FF"/>
<path d="M28.0926 75.8571L25.2642 78.6855L56.3768 109.798L59.2053 106.97L28.0926 75.8571Z" fill="#D4B8FF"/>
<path d="M44.7095 59.2407L40.7214 63.2288V77.1729L33.7493 70.2009L30.9209 73.0293L44.7095 86.8179V59.2407Z" fill="#D4B8FF"/>
<path d="M48.2451 90.3535L62.0337 104.142L64.8621 101.314L57.89 94.3416H71.8342L75.8223 90.3535H48.2451Z" fill="#D4B8FF"/>
<path d="M5.81888 4.793H24.9107L20.9227 0.804925L9.80696 0.804925V-10.3108L5.81888 -14.2989V4.793Z" fill="#D4B8FF"/>
<path d="M-2.18536 -18.3151C-2.18536 -10.339 -2.18536 5.01938 -2.18537 12.7975L28.9273 12.7975L30.9213 10.8035L28.9273 8.80946C26.0989 8.80946 3.98061 8.80946 1.80272 8.80946L1.80272 -18.3151L-0.19132 -20.3092L-2.18536 -18.3151Z" fill="#D4B8FF"/>
<path d="M-28.4758 7.97529L-31.3042 10.8037L-0.191531 41.9164L2.63689 39.088L-28.4758 7.97529Z" fill="#D4B8FF"/>
<path d="M-22.819 2.31806L-25.6475 5.14648L5.46521 36.2592L8.29363 33.4307L-22.819 2.31806Z" fill="#D4B8FF"/>
<path d="M-6.20215 -14.2983L-10.1902 -10.3103V3.63388L-17.1623 -3.33819L-19.9907 -0.509766L-6.20215 13.2788V-14.2983Z" fill="#D4B8FF"/>
<path d="M-2.6665 16.8145L11.1221 30.603L13.9505 27.7746L6.97842 20.8025H20.9226L24.9106 16.8145H-2.6665Z" fill="#D4B8FF"/>
<path d="M141.584 117.931H160.675L156.687 113.943L145.572 113.943V102.827L141.584 98.8388V117.931Z" fill="#D4B8FF"/>
<path d="M133.579 94.8226C133.579 102.799 133.579 118.157 133.579 125.935L164.692 125.935L166.686 123.941L164.692 121.947C161.864 121.947 139.745 121.947 137.567 121.947L137.567 94.8226L135.573 92.8285L133.579 94.8226Z" fill="#D4B8FF"/>
<path d="M107.289 121.113L104.46 123.941L135.573 155.054L138.402 152.226L107.289 121.113Z" fill="#D4B8FF"/>
<path d="M112.946 115.456L110.117 118.284L141.23 149.397L144.058 146.568L112.946 115.456Z" fill="#D4B8FF"/>
<path d="M129.562 98.8394L125.574 102.827V116.772L118.602 109.8L115.774 112.628L129.562 126.416V98.8394Z" fill="#D4B8FF"/>
<path d="M133.098 129.951L146.887 143.74L149.715 140.911L142.743 133.939H156.687L160.675 129.951H133.098Z" fill="#D4B8FF"/>
<path d="M90.6719 44.3916H109.764L105.776 40.4036L94.66 40.4036V29.2878L90.6719 25.2998V44.3916Z" fill="#D4B8FF"/>
<path d="M82.6677 21.2835C82.6677 29.2597 82.6677 44.618 82.6677 52.3962L113.78 52.3962L115.774 50.4021L113.78 48.4081C110.952 48.4081 88.8336 48.4081 86.6558 48.4081L86.6557 21.2835L84.6617 19.2895L82.6677 21.2835Z" fill="#D4B8FF"/>
<path d="M56.3773 47.5739L53.5488 50.4023L84.6615 81.515L87.4899 78.6866L56.3773 47.5739Z" fill="#D4B8FF"/>
<path d="M62.034 41.9167L59.2056 44.7451L90.3182 75.8578L93.1467 73.0294L62.034 41.9167Z" fill="#D4B8FF"/>
<path d="M78.6509 25.3003L74.6628 29.2884V43.2325L67.6907 36.2604L64.8623 39.0889L78.6509 52.8774V25.3003Z" fill="#D4B8FF"/>
<path d="M82.1865 56.4131L95.9751 70.2017L98.8035 67.3732L91.8314 60.4012H105.776L109.764 56.4131H82.1865Z" fill="#D4B8FF"/>
<path d="M5.46563 -25.9651L2.63721 -23.1367L33.7499 7.97595L36.5783 5.14753L5.46563 -25.9651Z" fill="#D4B8FF"/>
<path d="M11.1224 -31.6224L8.29395 -28.7939L39.4066 2.31872L42.235 -0.509702L11.1224 -31.6224Z" fill="#D4B8FF"/>
<path d="M167.52 60.8812C167.52 68.8573 167.52 84.2157 167.52 91.9938L198.633 91.9938L200.627 89.9998L198.633 88.0058C195.804 88.0057 173.686 88.0057 171.508 88.0057L171.508 60.8812L169.514 58.8871L167.52 60.8812Z" fill="#D4B8FF"/>
<path d="M141.23 87.1716L138.401 90L169.514 121.113L172.342 118.284L141.23 87.1716Z" fill="#D4B8FF"/>
<path d="M146.887 81.5143L144.058 84.3428L175.171 115.455L177.999 112.627L146.887 81.5143Z" fill="#D4B8FF"/>
<path d="M163.503 64.898L159.515 68.886V82.8302L152.543 75.8581L149.715 78.6865L163.503 92.4751V64.898Z" fill="#D4B8FF"/>
<path d="M124.613 10.4502H143.705L139.717 6.46215L128.601 6.46215V-4.65356L124.613 -8.64164V10.4502Z" fill="#D4B8FF"/>
<path d="M116.609 -12.6579C116.609 -4.68174 116.609 10.6766 116.609 18.4548L147.721 18.4548L149.715 16.4607L147.721 14.4667C144.893 14.4667 122.775 14.4667 120.597 14.4667L120.597 -12.6579L118.603 -14.6519L116.609 -12.6579Z" fill="#D4B8FF"/>
<path d="M90.3182 13.6325L87.4897 16.4609L118.602 47.5736L121.431 44.7452L90.3182 13.6325Z" fill="#D4B8FF"/>
<path d="M95.9749 7.97529L93.1465 10.8037L124.259 41.9164L127.088 39.088L95.9749 7.97529Z" fill="#D4B8FF"/>
<path d="M112.592 -8.64111L108.604 -4.65303V9.2911L101.632 2.31904L98.8032 5.14746L112.592 18.936V-8.64111Z" fill="#D4B8FF"/>
<path d="M116.127 22.4717L129.916 36.2602L132.744 33.4318L125.772 26.4598H139.717L143.705 22.4717H116.127Z" fill="#D4B8FF"/>
</g>
<defs>
<clipPath id="clip0_260_33880">
<rect x="0.5" width="165" height="165" rx="82.5" fill="white"/>
</clipPath>
</defs>
</svg>
