<svg width="166" height="165" viewBox="0 0 166 165" fill="none" xmlns="http://www.w3.org/2000/svg">
<g clip-path="url(#clip0_260_32916)">
<path d="M53.6619 177.711L22.5492 146.598L19.7208 149.427L48.0051 177.711L22.5492 203.167L-5.73505 174.883L-8.56348 177.711L22.5492 208.824L53.6619 177.711Z" fill="#FFDA48"/>
<path d="M22.5486 197.51L31.0339 189.024L5.57805 163.568L2.74963 166.397L25.377 189.024L22.5486 191.853L-0.0787995 169.225L-2.90723 172.054L22.5486 197.51Z" fill="#FFDA48"/>
<path d="M33.8621 186.196L42.3474 177.711L16.8915 152.255L14.0631 155.083L36.6905 177.711L33.8621 180.539L11.2347 157.912L8.40625 160.74L33.8621 186.196Z" fill="#FFDA48"/>
<path d="M19.7205 143.77L-11.3922 112.657L-14.2206 115.485L14.0637 143.77L-11.3922 169.225L-39.6765 140.941L-42.5049 143.77L-11.3922 174.882L19.7205 143.77Z" fill="#FFDA48"/>
<path d="M-0.078336 152.255L8.40695 143.769L-17.0489 118.314L-19.8773 121.142L2.75009 143.769L-0.078336 146.598L-22.7058 123.97L-25.5342 126.799L-0.078336 152.255Z" fill="#FFDA48"/>
<path d="M81.9461 81.5439L50.8334 50.4312L48.005 53.2597L76.2892 81.5439L50.8334 107L22.5491 78.7155L19.7207 81.5439L50.8334 112.657L81.9461 81.5439Z" fill="#FFDA48"/>
<path d="M50.8328 101.344L59.3181 92.8583L33.8622 67.4024L31.0338 70.2308L53.6612 92.8583L50.8328 95.6867L28.2054 73.0593L25.377 75.8877L50.8328 101.344Z" fill="#FFDA48"/>
<path d="M62.1463 90.0291L70.6316 81.5438L45.1757 56.088L42.3473 58.9164L64.9747 81.5438L62.1463 84.3722L39.5189 61.7448L36.6904 64.5732L62.1463 90.0291Z" fill="#FFDA48"/>
<path d="M183.769 183.367L152.657 152.254L149.828 155.083L178.112 183.367L152.657 208.823L124.372 180.539L121.544 183.367L152.657 214.48L183.769 183.367Z" fill="#FFDA48"/>
<path d="M163.97 191.852L172.456 183.367L147 157.911L144.172 160.74L166.799 183.367L163.97 186.195L141.343 163.568L138.515 166.396L163.97 191.852Z" fill="#FFDA48"/>
<path d="M16.8924 78.7158L-14.2203 47.6031L-17.0487 50.4315L11.2355 78.7158L-14.2203 104.172L-42.5046 75.8874L-45.333 78.7158L-14.2203 109.829L16.8924 78.7158Z" fill="#FFDA48"/>
<path d="M-2.90744 87.201L5.57784 78.7157L-19.878 53.2598L-22.7064 56.0883L-0.0790105 78.7157L-2.90744 81.5441L-25.5349 58.9167L-28.3633 61.7451L-2.90744 87.201Z" fill="#FFDA48"/>
<path d="M118.716 180.539L87.6029 149.426L84.7745 152.255L113.059 180.539L87.6029 205.995L59.3187 177.711L56.4902 180.539L87.6029 211.652L118.716 180.539Z" fill="#FFDA48"/>
<path d="M98.9168 189.024L107.402 180.539L81.9462 155.083L79.1178 157.912L101.745 180.539L98.9168 183.367L76.2894 160.74L73.4609 163.568L98.9168 189.024Z" fill="#FFDA48"/>
<path d="M178.112 53.2598L146.999 22.1471L144.171 24.9755L172.455 53.2598L146.999 78.7156L118.715 50.4313L115.887 53.2598L146.999 84.3725L178.112 53.2598Z" fill="#FFDA48"/>
<path d="M147 73.0594L155.485 64.5741L130.029 39.1182L127.201 41.9467L149.828 64.5741L147 67.4025L124.372 44.7751L121.544 47.6035L147 73.0594Z" fill="#FFDA48"/>
<path d="M158.313 61.7449L166.799 53.2596L141.343 27.8038L138.514 30.6322L161.142 53.2596L158.313 56.0881L135.686 33.4606L132.857 36.2891L158.313 61.7449Z" fill="#FFDA48"/>
<path d="M14.0633 13.6621L-17.0494 -17.4506L-19.8778 -14.6222L8.40643 13.6621L-17.0494 39.118L-45.3337 10.8337L-48.1621 13.6621L-17.0494 44.7748L14.0633 13.6621Z" fill="#FFDA48"/>
<path d="M-5.73556 22.1472L2.74972 13.662L-22.7061 -11.7939L-25.5346 -8.96545L-2.90714 13.662L-5.73556 16.4904L-28.363 -6.13702L-31.1914 -3.30859L-5.73556 22.1472Z" fill="#FFDA48"/>
<path d="M115.887 115.485L84.7738 84.3727L81.9454 87.2011L110.23 115.485L84.7738 140.941L56.4896 112.657L53.6611 115.485L84.7738 146.598L115.887 115.485Z" fill="#FFDA48"/>
<path d="M84.7742 135.284L93.2595 126.799L67.8036 101.343L64.9752 104.171L87.6026 126.799L84.7742 129.627L62.1468 107L59.3184 109.828L84.7742 135.284Z" fill="#FFDA48"/>
<path d="M96.0877 123.97L104.573 115.485L79.1171 90.0294L76.2887 92.8578L98.9161 115.485L96.0877 118.314L73.4603 95.6862L70.6318 98.5146L96.0877 123.97Z" fill="#FFDA48"/>
<path d="M144.171 19.3184L113.058 -11.7943L110.23 -8.96591L138.514 19.3184L113.058 44.7742L84.7737 16.4899L81.9453 19.3184L113.058 50.4311L144.171 19.3184Z" fill="#FFDA48"/>
<path d="M113.058 39.118L121.544 30.6327L96.0878 5.17683L93.2594 8.00526L115.887 30.6327L113.058 33.4611L90.431 10.8337L87.6025 13.6621L113.058 39.118Z" fill="#FFDA48"/>
<path d="M124.372 27.8045L132.857 19.3192L107.401 -6.13665L104.573 -3.30822L127.2 19.3192L124.372 22.1476L101.744 -0.479794L98.916 2.34863L124.372 27.8045Z" fill="#FFDA48"/>
<path d="M79.117 16.4902L48.0043 -14.6225L45.1759 -11.794L73.4601 16.4902L48.0043 41.9461L19.72 13.6618L16.8916 16.4902L48.0043 47.6029L79.117 16.4902Z" fill="#FFDA48"/>
<path d="M48.0047 36.2889L56.49 27.8036L31.0341 2.34773L28.2057 5.17615L50.8331 27.8036L48.0047 30.632L25.3773 8.00458L22.5488 10.833L48.0047 36.2889Z" fill="#FFDA48"/>
<path d="M59.3181 24.9754L67.8034 16.4901L42.3476 -8.96575L39.5192 -6.13732L62.1466 16.4901L59.3181 19.3185L36.6907 -3.3089L33.8623 -0.480469L59.3181 24.9754Z" fill="#FFDA48"/>
<path d="M180.94 118.313L149.828 87.2008L146.999 90.0292L175.283 118.313L149.828 143.769L121.543 115.485L118.715 118.313L149.828 149.426L180.94 118.313Z" fill="#FFDA48"/>
<path d="M149.828 138.113L158.313 129.628L132.857 104.172L130.029 107L152.656 129.628L149.828 132.456L127.2 109.829L124.372 112.657L149.828 138.113Z" fill="#FFDA48"/>
<path d="M161.141 126.799L169.627 118.313L144.171 92.8575L141.342 95.6859L163.97 118.313L161.141 121.142L138.514 98.5143L135.686 101.343L161.141 126.799Z" fill="#FFDA48"/>
<path d="M19.7201 81.5445L-11.3926 112.657L-8.56415 115.486L22.5485 84.373L19.7201 81.5445Z" fill="#FFDA48"/>
<path d="M48.0043 109.829L16.8916 140.941L19.72 143.77L50.8327 112.657L48.0043 109.829Z" fill="#FFDA48"/>
<path d="M8.40655 104.172L5.57812 107L25.3771 126.799L28.2055 123.971L8.40655 104.172Z" fill="#FFDA48"/>
<path d="M14.0638 98.5143L11.2354 101.343L31.0343 121.142L33.8628 118.313L14.0638 98.5143Z" fill="#FFDA48"/>
<path d="M16.8916 95.6865L36.6906 115.486L45.1759 107L42.3474 104.172L36.6906 109.829L22.5485 95.6865L28.2053 90.0297L25.3769 87.2012L16.8916 95.6865Z" fill="#FFDA48"/>
<path d="M2.74993 109.828L-5.73535 118.313L-2.90692 121.142L2.74993 115.485L16.8921 129.627L11.2352 135.284L14.0636 138.112L22.5489 129.627L2.74993 109.828Z" fill="#FFDA48"/>
<path d="M42.348 -20.2797L11.2354 10.833L14.0638 13.6614L45.1765 -17.4513L42.348 -20.2797Z" fill="#FFDA48"/>
<path d="M-2.9073 -20.2792L-11.3926 -11.7939L-8.56415 -8.96552L-2.9073 -14.6224L11.2348 -0.480237L5.57798 5.17662L8.40641 8.00504L16.8917 -0.480237L-2.9073 -20.2792Z" fill="#FFDA48"/>
<path d="M115.887 53.2603L84.7744 84.373L87.6028 87.2015L118.716 56.0888L115.887 53.2603Z" fill="#FFDA48"/>
<path d="M144.171 81.5445L113.059 112.657L115.887 115.486L147 84.373L144.171 81.5445Z" fill="#FFDA48"/>
<path d="M104.574 75.8874L101.745 78.7158L121.544 98.5148L124.373 95.6864L104.574 75.8874Z" fill="#FFDA48"/>
<path d="M110.23 70.2302L107.401 73.0586L127.2 92.8576L130.029 90.0292L110.23 70.2302Z" fill="#FFDA48"/>
<path d="M113.059 67.4023L132.858 87.2013L141.343 78.7161L138.514 75.8876L132.858 81.5445L118.715 67.4023L124.372 61.7455L121.544 58.9171L113.059 67.4023Z" fill="#FFDA48"/>
<path d="M98.9159 81.544L90.4307 90.0293L93.2591 92.8577L98.9159 87.2009L113.058 101.343L107.401 107L110.23 109.828L118.715 101.343L98.9159 81.544Z" fill="#FFDA48"/>
<path d="M172.455 -14.6225L141.343 16.4902L144.171 19.3187L175.284 -11.794L172.455 -14.6225Z" fill="#FFDA48"/>
<path d="M132.858 -20.2796L130.029 -17.4512L149.828 2.34782L152.657 -0.480609L132.858 -20.2796Z" fill="#FFDA48"/>
<path d="M127.2 -14.622L118.715 -6.13672L121.543 -3.30829L127.2 -8.96515L141.342 5.17699L135.685 10.8338L138.514 13.6623L146.999 5.17699L127.2 -14.622Z" fill="#FFDA48"/>
<path d="M107.402 -17.4506L76.2891 13.6621L79.1175 16.4905L110.23 -14.6222L107.402 -17.4506Z" fill="#FFDA48"/>
<path d="M62.1464 -17.4511L53.6611 -8.96582L56.4896 -6.13739L62.1464 -11.7942L76.2885 2.34789L70.6317 8.00474L73.4601 10.8332L81.9454 2.34789L62.1464 -17.4511Z" fill="#FFDA48"/>
<path d="M180.941 56.0885L149.828 87.2012L152.657 90.0296L183.769 58.9169L180.941 56.0885Z" fill="#FFDA48"/>
<path d="M163.97 84.3721L155.484 92.8574L158.313 95.6858L163.97 90.029L178.112 104.171L172.455 109.828L175.283 112.656L183.769 104.171L163.97 84.3721Z" fill="#FFDA48"/>
<path d="M53.6615 115.485L22.5488 146.598L25.3773 149.426L56.49 118.313L53.6615 115.485Z" fill="#FFDA48"/>
<path d="M81.9457 143.769L50.833 174.882L53.6614 177.71L84.7741 146.598L81.9457 143.769Z" fill="#FFDA48"/>
<path d="M42.348 138.113L39.5195 140.941L59.3185 160.74L62.1469 157.912L42.348 138.113Z" fill="#FFDA48"/>
<path d="M48.0042 132.456L45.1758 135.284L64.9748 155.083L67.8032 152.255L48.0042 132.456Z" fill="#FFDA48"/>
<path d="M50.833 129.627L70.632 149.426L79.1173 140.941L76.2889 138.112L70.632 143.769L56.4899 129.627L62.1467 123.97L59.3183 121.142L50.833 129.627Z" fill="#FFDA48"/>
<path d="M36.6913 143.77L28.2061 152.255L31.0345 155.083L36.6913 149.426L50.8335 163.569L45.1766 169.225L48.005 172.054L56.4903 163.569L36.6913 143.77Z" fill="#FFDA48"/>
<path d="M81.9457 19.3189L50.833 50.4316L53.6614 53.2601L84.7741 22.1474L81.9457 19.3189Z" fill="#FFDA48"/>
<path d="M110.23 47.6031L79.1172 78.7158L81.9456 81.5442L113.058 50.4315L110.23 47.6031Z" fill="#FFDA48"/>
<path d="M70.6321 41.946L67.8037 44.7744L87.6027 64.5734L90.4311 61.745L70.6321 41.946Z" fill="#FFDA48"/>
<path d="M76.2894 36.2897L73.4609 39.1182L93.2599 58.9172L96.0884 56.0887L76.2894 36.2897Z" fill="#FFDA48"/>
<path d="M79.1172 33.4609L98.9162 53.2599L107.401 44.7746L104.573 41.9462L98.9162 47.6031L84.774 33.4609L90.4309 27.8041L87.6025 24.9757L79.1172 33.4609Z" fill="#FFDA48"/>
<path d="M64.9755 47.6026L56.4902 56.0879L59.3187 58.9163L64.9755 53.2595L79.1177 67.4016L73.4608 73.0585L76.2892 75.8869L84.7745 67.4016L64.9755 47.6026Z" fill="#FFDA48"/>
<path d="M183.769 121.142L152.656 152.255L155.485 155.083L186.597 123.971L183.769 121.142Z" fill="#FFDA48"/>
<path d="M166.799 149.427L158.313 157.912L161.142 160.741L166.799 155.084L180.941 169.226L175.284 174.883L178.112 177.711L186.598 169.226L166.799 149.427Z" fill="#FFDA48"/>
<path d="M16.892 16.4908L-14.2207 47.6035L-11.3923 50.4319L19.7204 19.3192L16.892 16.4908Z" fill="#FFDA48"/>
<path d="M45.1762 44.775L14.0635 75.8877L16.8919 78.7161L48.0046 47.6034L45.1762 44.775Z" fill="#FFDA48"/>
<path d="M5.57843 39.1179L2.75 41.9463L22.549 61.7453L25.3774 58.9169L5.57843 39.1179Z" fill="#FFDA48"/>
<path d="M11.2347 33.4606L8.40625 36.2891L28.2052 56.0881L31.0337 53.2596L11.2347 33.4606Z" fill="#FFDA48"/>
<path d="M14.0635 30.6328L33.8625 50.4318L42.3477 41.9465L39.5193 39.1181L33.8625 44.7749L19.7203 30.6328L25.3772 24.976L22.5488 22.1475L14.0635 30.6328Z" fill="#FFDA48"/>
<path d="M-0.0781953 44.7745L-8.56348 53.2598L-5.73505 56.0882L-0.0781953 50.4313L14.0639 64.5735L8.40709 70.2303L11.2355 73.0588L19.7208 64.5735L-0.0781953 44.7745Z" fill="#FFDA48"/>
<path d="M118.715 118.314L87.6025 149.427L90.431 152.255L121.544 121.142L118.715 118.314Z" fill="#FFDA48"/>
<path d="M146.999 146.598L115.887 177.711L118.715 180.539L149.828 149.427L146.999 146.598Z" fill="#FFDA48"/>
<path d="M107.402 140.941L104.573 143.77L124.372 163.569L127.201 160.74L107.402 140.941Z" fill="#FFDA48"/>
<path d="M113.059 135.284L110.23 138.112L130.029 157.911L132.858 155.083L113.059 135.284Z" fill="#FFDA48"/>
<path d="M115.887 132.456L135.686 152.255L144.171 143.77L141.343 140.941L135.686 146.598L121.544 132.456L127.2 126.799L124.372 123.971L115.887 132.456Z" fill="#FFDA48"/>
<path d="M101.745 146.598L93.2598 155.083L96.0882 157.911L101.745 152.255L115.887 166.397L110.23 172.054L113.059 174.882L121.544 166.397L101.745 146.598Z" fill="#FFDA48"/>
<path d="M178.113 -8.96524L147 22.1475L149.828 24.9759L180.941 -6.13681L178.113 -8.96524Z" fill="#FFDA48"/>
<path d="M166.798 13.6618L163.97 16.4902L183.769 36.2892L186.597 33.4608L166.798 13.6618Z" fill="#FFDA48"/>
<path d="M161.142 19.3184L152.656 27.8037L155.485 30.6321L161.142 24.9753L175.284 39.1174L169.627 44.7743L172.455 47.6027L180.941 39.1174L161.142 19.3184Z" fill="#FFDA48"/>
</g>
<defs>
<clipPath id="clip0_260_32916">
<rect x="0.5" width="165" height="165" rx="82.5" fill="white"/>
</clipPath>
</defs>
</svg>
