<svg width="1239" height="1117" viewBox="0 0 1239 1117" fill="none" xmlns="http://www.w3.org/2000/svg">
<g clip-path="url(#clip0_284_36999)">
<path d="M1002.56 114.656H886.309V104.088L942.108 51.2477H886.309V40.6797H953.257L964.406 30.1117H886.309V19.5437H975.555L986.705 8.97571H886.309V-1.59229H1002.56V8.97571L946.758 61.8157H1002.56V72.3837H935.608L924.459 82.9517H1002.56V93.5197H913.31L902.161 104.088H1002.56V114.656Z" fill="#1B1C1F"/>
<path d="M1002.56 748.737H886.309V738.169L942.108 685.329H886.309V674.761H953.257L964.406 664.193H886.309V653.625H975.555L986.705 643.057H886.309V632.489H1002.56V643.057L946.758 695.897H1002.56V706.465H935.608L924.459 717.033H1002.56V727.601H913.31L902.161 738.169H1002.56V748.737Z" fill="#1B1C1F"/>
<path d="M1097.67 431.694H981.424V421.126L1037.22 368.286H981.424V357.718H1048.37L1059.52 347.15H981.424V336.582H1070.67L1081.82 326.014H981.424V315.446H1097.67V326.014L1041.87 378.854H1097.67V389.422H1030.72L1019.57 399.99H1097.67V410.558H1008.43L997.276 421.126H1097.67V431.694Z" fill="#1B1C1F"/>
<path d="M1097.67 1065.78H981.424V1055.21L1037.22 1002.37H981.424V991.8H1048.37L1059.52 981.232H981.424V970.664H1070.67L1081.82 960.096H981.424V949.528H1097.67V960.096L1041.87 1012.94H1097.67V1023.5H1030.72L1019.57 1034.07H1097.67V1044.64H1008.43L997.276 1055.21H1097.67V1065.78Z" fill="#1B1C1F"/>
<path d="M431.887 114.656H315.639V104.088L371.438 51.2477H315.639V40.6797H382.587L393.736 30.1117H315.639V19.5437H404.885L416.035 8.97571H315.639V-1.59229H431.887V8.97571L376.088 61.8157H431.887V72.3837H364.938L353.789 82.9517H431.887V93.5197H342.64L331.491 104.088H431.887V114.656Z" fill="#1B1C1F"/>
<path d="M431.887 748.737H315.639V738.169L371.438 685.329H315.639V674.761H382.587L393.736 664.193H315.639V653.625H404.885L416.035 643.057H315.639V632.489H431.887V643.057L376.088 695.897H431.887V706.465H364.938L353.789 717.033H431.887V727.601H342.64L331.491 738.169H431.887V748.737Z" fill="#1B1C1F"/>
<path d="M526.998 431.694H410.75V421.126L466.549 368.286H410.75V357.718H477.698L488.848 347.15H410.75V336.582H499.997L511.146 326.014H410.75V315.446H526.998V326.014L471.199 378.854H526.998V389.422H460.05L448.9 399.99H526.998V410.558H437.751L426.602 421.126H526.998V431.694Z" fill="#1B1C1F"/>
<path d="M526.998 1065.78H410.75V1055.21L466.549 1002.37H410.75V991.8H477.698L488.848 981.232H410.75V970.664H499.997L511.146 960.096H410.75V949.528H526.998V960.096L471.199 1012.94H526.998V1023.5H460.05L448.9 1034.07H526.998V1044.64H437.751L426.602 1055.21H526.998V1065.78Z" fill="#1B1C1F"/>
<path d="M146.553 178.064H30.3047V167.496L86.1037 114.656H30.3047V104.088H97.253L108.402 93.5199H30.3047V82.9519H119.551L130.701 72.3839H30.3047V61.8159H146.553V72.3839L90.7537 125.224H146.553V135.792H79.6044L68.4552 146.36H146.553V156.928H57.3059L46.1567 167.496H146.553V178.064Z" fill="#1B1C1F"/>
<path d="M146.553 812.144H30.3047V801.576L86.1037 748.736H30.3047V738.168H97.253L108.402 727.6H30.3047V717.032H119.551L130.701 706.464H30.3047V695.896H146.553V706.464L90.7537 759.304H146.553V769.872H79.6044L68.4552 780.44H146.553V791.008H57.3059L46.1567 801.576H146.553V812.144Z" fill="#1B1C1F"/>
<path d="M1287.89 178.064H1171.65V167.496L1227.44 114.656H1171.65V104.088H1238.59L1249.74 93.5199H1171.65V82.9519H1260.89L1272.04 72.3839H1171.65V61.8159H1287.89V72.3839L1232.09 125.224H1287.89V135.792H1220.95L1209.8 146.36H1287.89V156.928H1198.65L1187.5 167.496H1287.89V178.064Z" fill="#1B1C1F"/>
<path d="M1287.89 812.144H1171.65V801.576L1227.44 748.736H1171.65V738.168H1238.59L1249.74 727.6H1171.65V717.032H1260.89L1272.04 706.464H1171.65V695.896H1287.89V706.464L1232.09 759.304H1287.89V769.872H1220.95L1209.8 780.44H1287.89V791.008H1198.65L1187.5 801.576H1287.89V812.144Z" fill="#1B1C1F"/>
<path d="M241.664 495.103H125.416V484.535L181.215 431.695H125.416V421.127H192.364L203.514 410.559H125.416V399.991H214.663L225.812 389.423H125.416V378.855H241.664V389.423L185.865 442.263H241.664V452.831H174.716L163.567 463.399H241.664V473.967H152.417L141.268 484.535H241.664V495.103Z" fill="#1B1C1F"/>
<path d="M241.664 1129.18H125.416V1118.62L181.215 1065.78H125.416V1055.21H192.364L203.514 1044.64H125.416V1034.07H214.663L225.812 1023.5H125.416V1012.94H241.664V1023.5L185.865 1076.34H241.664V1086.91H174.716L163.567 1097.48H241.664V1108.05H152.417L141.268 1118.62H241.664V1129.18Z" fill="#1B1C1F"/>
<path d="M717.224 178.063H600.976V167.495L656.775 114.655H600.976V104.087H667.924L679.073 93.5189H600.976V82.9509H690.222L701.372 72.3829H600.976V61.8149H717.224V72.3829L661.425 125.223H717.224V135.791H650.275L639.126 146.359H717.224V156.927H627.977L616.828 167.495H717.224V178.063Z" fill="#1B1C1F"/>
<path d="M717.224 812.144H600.976V801.576L656.775 748.736H600.976V738.168H667.924L679.073 727.6H600.976V717.032H690.222L701.372 706.464H600.976V695.896H717.224V706.464L661.425 759.304H717.224V769.872H650.275L639.126 780.44H717.224V791.008H627.977L616.828 801.576H717.224V812.144Z" fill="#1B1C1F"/>
<path d="M812.336 495.103H696.088V484.535L751.887 431.695H696.088V421.127H763.036L774.185 410.559H696.088V399.991H785.335L796.484 389.423H696.088V378.855H812.336V389.423L756.537 442.263H812.336V452.831H745.388L734.238 463.399H812.336V473.967H723.089L711.94 484.535H812.336V495.103Z" fill="#1B1C1F"/>
<path d="M812.336 1129.18H696.088V1118.62L751.887 1065.78H696.088V1055.21H763.036L774.185 1044.64H696.088V1034.07H785.335L796.484 1023.5H696.088V1012.94H812.336V1023.5L756.537 1076.34H812.336V1086.91H745.388L734.238 1097.48H812.336V1108.05H723.089L711.94 1118.62H812.336V1129.18Z" fill="#1B1C1F"/>
<path d="M146.553 51.248H30.3047V40.68L86.1037 -12.16H30.3047V-22.728H97.253L108.402 -33.296H30.3047V-43.864H119.551L130.701 -54.432H30.3047V-65H146.553V-54.432L90.7537 -1.592H146.553V8.976H79.6044L68.4552 19.544H146.553V30.112H57.3059L46.1567 40.68H146.553V51.248Z" fill="#1B1C1F"/>
<path d="M146.553 685.327H30.3047V674.759L86.1037 621.919H30.3047V611.351H97.253L108.402 600.783H30.3047V590.215H119.551L130.701 579.647H30.3047V569.079H146.553V579.647L90.7537 632.487H146.553V643.055H79.6044L68.4552 653.623H146.553V664.191H57.3059L46.1567 674.759H146.553V685.327Z" fill="#1B1C1F"/>
<path d="M1287.89 51.248H1171.65V40.68L1227.44 -12.16H1171.65V-22.728H1238.59L1249.74 -33.296H1171.65V-43.864H1260.89L1272.04 -54.432H1171.65V-65H1287.89V-54.432L1232.09 -1.592H1287.89V8.976H1220.95L1209.8 19.544H1287.89V30.112H1198.65L1187.5 40.68H1287.89V51.248Z" fill="#1B1C1F"/>
<path d="M1287.89 685.327H1171.65V674.759L1227.44 621.919H1171.65V611.351H1238.59L1249.74 600.783H1171.65V590.215H1260.89L1272.04 579.647H1171.65V569.079H1287.89V579.647L1232.09 632.487H1287.89V643.055H1220.95L1209.8 653.623H1287.89V664.191H1198.65L1187.5 674.759H1287.89V685.327Z" fill="#1B1C1F"/>
<path d="M241.664 368.289H125.416V357.721L181.215 304.881H125.416V294.313H192.364L203.514 283.745H125.416V273.177H214.663L225.812 262.609H125.416V252.041H241.664V262.609L185.865 315.449H241.664V326.017H174.716L163.567 336.585H241.664V347.153H152.417L141.268 357.721H241.664V368.289Z" fill="#1B1C1F"/>
<path d="M241.664 1002.37H125.416V991.8L181.215 938.96H125.416V928.392H192.364L203.514 917.824H125.416V907.256H214.663L225.812 896.688H125.416V886.12H241.664V896.688L185.865 949.528H241.664V960.096H174.716L163.567 970.664H241.664V981.232H152.417L141.268 991.8H241.664V1002.37Z" fill="#1B1C1F"/>
<path d="M717.224 51.248H600.976V40.68L656.775 -12.16H600.976V-22.728H667.924L679.073 -33.296H600.976V-43.864H690.222L701.372 -54.432H600.976V-65H717.224V-54.432L661.425 -1.592H717.224V8.976H650.275L639.126 19.544H717.224V30.112H627.977L616.828 40.68H717.224V51.248Z" fill="#1B1C1F"/>
<path d="M717.224 685.327H600.976V674.759L656.775 621.919H600.976V611.351H667.924L679.073 600.783H600.976V590.215H690.222L701.372 579.647H600.976V569.079H717.224V579.647L661.425 632.487H717.224V643.055H650.275L639.126 653.623H717.224V664.191H627.977L616.828 674.759H717.224V685.327Z" fill="#1B1C1F"/>
<path d="M812.336 368.289H696.088V357.721L751.887 304.881H696.088V294.313H763.036L774.185 283.745H696.088V273.177H785.335L796.484 262.609H696.088V252.041H812.336V262.609L756.537 315.449H812.336V326.017H745.388L734.238 336.585H812.336V347.153H723.089L711.94 357.721H812.336V368.289Z" fill="#1B1C1F"/>
<path d="M812.336 1002.37H696.088V991.8L751.887 938.96H696.088V928.392H763.036L774.185 917.824H696.088V907.256H785.335L796.484 896.688H696.088V886.12H812.336V896.688L756.537 949.528H812.336V960.096H745.388L734.238 970.664H812.336V981.232H723.089L711.94 991.8H812.336V1002.37Z" fill="#1B1C1F"/>
<path d="M1002.56 241.472H886.309V230.904L942.108 178.064H886.309V167.496H953.257L964.406 156.928H886.309V146.36H975.555L986.705 135.792H886.309V125.224H1002.56V135.792L946.758 188.632H1002.56V199.2H935.608L924.459 209.768H1002.56V220.336H913.31L902.161 230.904H1002.56V241.472Z" fill="#1B1C1F"/>
<path d="M1002.56 875.554H886.309V864.986L942.108 812.146H886.309V801.578H953.257L964.406 791.01H886.309V780.442H975.555L986.705 769.874H886.309V759.306H1002.56V769.874L946.758 822.714H1002.56V833.282H935.608L924.459 843.85H1002.56V854.418H913.31L902.161 864.986H1002.56V875.554Z" fill="#1B1C1F"/>
<path d="M1097.67 558.513H981.424V547.945L1037.22 495.105H981.424V484.537H1048.37L1059.52 473.969H981.424V463.401H1070.67L1081.82 452.833H981.424V442.265H1097.67V452.833L1041.87 505.673H1097.67V516.241H1030.72L1019.57 526.809H1097.67V537.377H1008.43L997.276 547.945H1097.67V558.513Z" fill="#1B1C1F"/>
<path d="M1097.67 1192.59H981.424V1182.02L1037.22 1129.18H981.424V1118.62H1048.37L1059.52 1108.05H981.424V1097.48H1070.67L1081.82 1086.91H981.424V1076.34H1097.67V1086.91L1041.87 1139.75H1097.67V1150.32H1030.72L1019.57 1160.89H1097.67V1171.46H1008.43L997.276 1182.02H1097.67V1192.59Z" fill="#1B1C1F"/>
<path d="M431.887 241.472H315.639V230.904L371.438 178.064H315.639V167.496H382.587L393.736 156.928H315.639V146.36H404.885L416.035 135.792H315.639V125.224H431.887V135.792L376.088 188.632H431.887V199.2H364.938L353.789 209.768H431.887V220.336H342.64L331.491 230.904H431.887V241.472Z" fill="#1B1C1F"/>
<path d="M431.887 875.554H315.639V864.986L371.438 812.146H315.639V801.578H382.587L393.736 791.01H315.639V780.442H404.885L416.035 769.874H315.639V759.306H431.887V769.874L376.088 822.714H431.887V833.282H364.938L353.789 843.85H431.887V854.418H342.64L331.491 864.986H431.887V875.554Z" fill="#1B1C1F"/>
<path d="M526.998 558.513H410.75V547.945L466.549 495.105H410.75V484.537H477.698L488.848 473.969H410.75V463.401H499.997L511.146 452.833H410.75V442.265H526.998V452.833L471.199 505.673H526.998V516.241H460.05L448.9 526.809H526.998V537.377H437.751L426.602 547.945H526.998V558.513Z" fill="#1B1C1F"/>
<path d="M526.998 1192.59H410.75V1182.02L466.549 1129.18H410.75V1118.62H477.698L488.848 1108.05H410.75V1097.48H499.997L511.146 1086.91H410.75V1076.34H526.998V1086.91L471.199 1139.75H526.998V1150.32H460.05L448.9 1160.89H526.998V1171.46H437.751L426.602 1182.02H526.998V1192.59Z" fill="#1B1C1F"/>
<path d="M431.887 368.289H315.639V357.721L371.438 304.881H315.639V294.313H382.587L393.736 283.745H315.639V273.177H404.885L416.035 262.609H315.639V252.041H431.887V262.609L376.088 315.449H431.887V326.017H364.938L353.789 336.585H431.887V347.153H342.64L331.491 357.721H431.887V368.289Z" fill="#1B1C1F"/>
<path d="M431.887 1002.37H315.639V991.8L371.438 938.96H315.639V928.392H382.587L393.736 917.824H315.639V907.256H404.885L416.035 896.688H315.639V886.12H431.887V896.688L376.088 949.528H431.887V960.096H364.938L353.789 970.664H431.887V981.232H342.64L331.491 991.8H431.887V1002.37Z" fill="#1B1C1F"/>
<path d="M146.553 304.881H30.3047V294.313L86.1037 241.473H30.3047V230.905H97.253L108.402 220.337H30.3047V209.769H119.551L130.701 199.201H30.3047V188.633H146.553V199.201L90.7537 252.041H146.553V262.609H79.6044L68.4552 273.177H146.553V283.745H57.3059L46.1567 294.313H146.553V304.881Z" fill="#1B1C1F"/>
<path d="M146.553 938.959H30.3047V928.391L86.1037 875.551H30.3047V864.983H97.253L108.402 854.415H30.3047V843.847H119.551L130.701 833.279H30.3047V822.711H146.553V833.279L90.7537 886.119H146.553V896.687H79.6044L68.4552 907.255H146.553V917.823H57.3059L46.1567 928.391H146.553V938.959Z" fill="#1B1C1F"/>
<path d="M1287.89 304.881H1171.65V294.313L1227.44 241.473H1171.65V230.905H1238.59L1249.74 220.337H1171.65V209.769H1260.89L1272.04 199.201H1171.65V188.633H1287.89V199.201L1232.09 252.041H1287.89V262.609H1220.95L1209.8 273.177H1287.89V283.745H1198.65L1187.5 294.313H1287.89V304.881Z" fill="#1B1C1F"/>
<path d="M1287.89 938.959H1171.65V928.391L1227.44 875.551H1171.65V864.983H1238.59L1249.74 854.415H1171.65V843.847H1260.89L1272.04 833.279H1171.65V822.711H1287.89V833.279L1232.09 886.119H1287.89V896.687H1220.95L1209.8 907.255H1287.89V917.823H1198.65L1187.5 928.391H1287.89V938.959Z" fill="#1B1C1F"/>
<path d="M241.664 621.919H125.416V611.351L181.215 558.511H125.416V547.943H192.364L203.514 537.375H125.416V526.807H214.663L225.812 516.239H125.416V505.671H241.664V516.239L185.865 569.079H241.664V579.647H174.716L163.567 590.215H241.664V600.783H152.417L141.268 611.351H241.664V621.919Z" fill="#1B1C1F"/>
<path d="M717.224 304.88H600.976V294.312L656.775 241.472H600.976V230.904H667.924L679.073 220.336H600.976V209.768H690.222L701.372 199.2H600.976V188.632H717.224V199.2L661.425 252.04H717.224V262.608H650.275L639.126 273.176H717.224V283.744H627.977L616.828 294.312H717.224V304.88Z" fill="#1B1C1F"/>
<path d="M717.224 938.959H600.976V928.391L656.775 875.551H600.976V864.983H667.924L679.073 854.415H600.976V843.847H690.222L701.372 833.279H600.976V822.711H717.224V833.279L661.425 886.119H717.224V896.687H650.275L639.126 907.255H717.224V917.823H627.977L616.828 928.391H717.224V938.959Z" fill="#1B1C1F"/>
<path d="M812.336 621.919H696.088V611.351L751.887 558.511H696.088V547.943H763.036L774.185 537.375H696.088V526.807H785.335L796.484 516.239H696.088V505.671H812.336V516.239L756.537 569.079H812.336V579.647H745.388L734.238 590.215H812.336V600.783H723.089L711.94 611.351H812.336V621.919Z" fill="#1B1C1F"/>
<path d="M51.4394 114.656H-64.8086V104.088L-9.00957 51.2477H-64.8086V40.6797H2.13968L13.2889 30.1117H-64.8086V19.5437H24.4382L35.5874 8.97571H-64.8086V-1.59229H51.4394V8.97571L-4.35962 61.8157H51.4394V72.3837H-15.5089L-26.6581 82.9517H51.4394V93.5197H-37.8074L-48.9566 104.088H51.4394V114.656Z" fill="#1B1C1F"/>
<path d="M51.4394 748.737H-64.8086V738.169L-9.00957 685.329H-64.8086V674.761H2.13968L13.2889 664.193H-64.8086V653.625H24.4382L35.5874 643.057H-64.8086V632.489H51.4394V643.057L-4.35962 695.897H51.4394V706.465H-15.5089L-26.6581 717.033H51.4394V727.601H-37.8074L-48.9566 738.169H51.4394V748.737Z" fill="#1B1C1F"/>
<path d="M1192.78 114.656H1076.54V104.088L1132.33 51.2482H1076.54V40.6802H1143.48L1154.63 30.1122H1076.54V19.5442H1165.78L1176.93 8.9762H1076.54V-1.5918H1192.78V8.9762L1136.98 61.8162H1192.78V72.3842H1125.83L1114.69 82.9522H1192.78V93.5202H1103.54L1092.39 104.088H1192.78V114.656Z" fill="#1B1C1F"/>
<path d="M1192.78 748.735H1076.54V738.167L1132.33 685.327H1076.54V674.759H1143.48L1154.63 664.191H1076.54V653.623H1165.78L1176.93 643.055H1076.54V632.487H1192.78V643.055L1136.98 695.895H1192.78V706.463H1125.83L1114.69 717.031H1192.78V727.599H1103.54L1092.39 738.167H1192.78V748.735Z" fill="#1B1C1F"/>
<path d="M146.553 431.694H30.3047V421.126L86.1037 368.286H30.3047V357.718H97.253L108.402 347.15H30.3047V336.582H119.551L130.701 326.014H30.3047V315.446H146.553V326.014L90.7537 378.854H146.553V389.422H79.6044L68.4552 399.99H146.553V410.558H57.3059L46.1567 421.126H146.553V431.694Z" fill="#1B1C1F"/>
<path d="M146.553 1065.78H30.3047V1055.21L86.1037 1002.37H30.3047V991.8H97.253L108.402 981.232H30.3047V970.664H119.551L130.701 960.096H30.3047V949.528H146.553V960.096L90.7537 1012.94H146.553V1023.5H79.6044L68.4552 1034.07H146.553V1044.64H57.3059L46.1567 1055.21H146.553V1065.78Z" fill="#1B1C1F"/>
<path d="M1287.89 431.694H1171.65V421.126L1227.44 368.286H1171.65V357.718H1238.59L1249.74 347.15H1171.65V336.582H1260.89L1272.04 326.014H1171.65V315.446H1287.89V326.014L1232.09 378.854H1287.89V389.422H1220.95L1209.8 399.99H1287.89V410.558H1198.65L1187.5 421.126H1287.89V431.694Z" fill="#1B1C1F"/>
<path d="M1287.89 1065.78H1171.65V1055.21L1227.44 1002.37H1171.65V991.8H1238.59L1249.74 981.232H1171.65V970.664H1260.89L1272.04 960.096H1171.65V949.528H1287.89V960.096L1232.09 1012.94H1287.89V1023.5H1220.95L1209.8 1034.07H1287.89V1044.64H1198.65L1187.5 1055.21H1287.89V1065.78Z" fill="#1B1C1F"/>
<path d="M622.113 114.656H505.865V104.088L561.664 51.2482H505.865V40.6802H572.814L583.963 30.1122H505.865V19.5442H595.112L606.261 8.9762H505.865V-1.5918H622.113V8.9762L566.314 61.8162H622.113V72.3842H555.165L544.016 82.9522H622.113V93.5202H532.866L521.717 104.088H622.113V114.656Z" fill="#1B1C1F"/>
<path d="M622.113 748.736H505.865V738.168L561.664 685.328H505.865V674.76H572.814L583.963 664.192H505.865V653.624H595.112L606.261 643.056H505.865V632.488H622.113V643.056L566.314 695.896H622.113V706.464H555.165L544.016 717.032H622.113V727.6H532.866L521.717 738.168H622.113V748.736Z" fill="#1B1C1F"/>
<path d="M717.224 431.696H600.976V421.128L656.775 368.288H600.976V357.72H667.924L679.073 347.152H600.976V336.584H690.222L701.372 326.016H600.976V315.448H717.224V326.016L661.425 378.856H717.224V389.424H650.275L639.126 399.992H717.224V410.56H627.977L616.828 421.128H717.224V431.696Z" fill="#1B1C1F"/>
<path d="M717.224 1065.78H600.976V1055.21L656.775 1002.37H600.976V991.8H667.924L679.073 981.232H600.976V970.664H690.222L701.372 960.096H600.976V949.528H717.224V960.096L661.425 1012.94H717.224V1023.5H650.275L639.126 1034.07H717.224V1044.64H627.977L616.828 1055.21H717.224V1065.78Z" fill="#1B1C1F"/>
<path d="M336.776 178.064H220.528V167.496L276.327 114.656H220.528V104.088H287.477L298.626 93.5199H220.528V82.9519H309.775L320.924 72.3839H220.528V61.8159H336.776V72.3839L280.977 125.224H336.776V135.792H269.828L258.679 146.36H336.776V156.928H247.53L236.38 167.496H336.776V178.064Z" fill="#1B1C1F"/>
<path d="M336.776 812.145H220.528V801.577L276.327 748.737H220.528V738.169H287.477L298.626 727.601H220.528V717.033H309.775L320.924 706.465H220.528V695.897H336.776V706.465L280.977 759.305H336.776V769.873H269.828L258.679 780.441H336.776V791.009H247.53L236.38 801.577H336.776V812.145Z" fill="#1B1C1F"/>
<path d="M431.887 495.103H315.639V484.535L371.438 431.695H315.639V421.127H382.587L393.736 410.559H315.639V399.991H404.885L416.035 389.423H315.639V378.855H431.887V389.423L376.088 442.263H431.887V452.831H364.938L353.789 463.399H431.887V473.967H342.64L331.491 484.535H431.887V495.103Z" fill="#1B1C1F"/>
<path d="M431.887 1129.18H315.639V1118.62L371.438 1065.78H315.639V1055.21H382.587L393.736 1044.64H315.639V1034.07H404.885L416.035 1023.5H315.639V1012.94H431.887V1023.5L376.088 1076.34H431.887V1086.91H364.938L353.789 1097.48H431.887V1108.05H342.64L331.491 1118.62H431.887V1129.18Z" fill="#1B1C1F"/>
<path d="M907.448 178.064H791.2V167.496L846.999 114.656H791.2V104.088H858.148L869.298 93.5204H791.2V82.9524H880.447L891.596 72.3844H791.2V61.8164H907.448V72.3844L851.649 125.224H907.448V135.792H840.5L829.351 146.36H907.448V156.928H818.201L807.052 167.496H907.448V178.064Z" fill="#1B1C1F"/>
<path d="M907.448 812.144H791.2V801.576L846.999 748.736H791.2V738.168H858.148L869.298 727.6H791.2V717.032H880.447L891.596 706.464H791.2V695.896H907.448V706.464L851.649 759.304H907.448V769.872H840.5L829.351 780.44H907.448V791.008H818.201L807.052 801.576H907.448V812.144Z" fill="#1B1C1F"/>
<path d="M1002.56 495.103H886.309V484.535L942.108 431.695H886.309V421.127H953.257L964.406 410.559H886.309V399.991H975.555L986.705 389.423H886.309V378.855H1002.56V389.423L946.758 442.263H1002.56V452.831H935.608L924.459 463.399H1002.56V473.967H913.31L902.161 484.535H1002.56V495.103Z" fill="#1B1C1F"/>
<path d="M1002.56 1129.19H886.309V1118.62L942.108 1065.78H886.309V1055.21H953.257L964.406 1044.64H886.309V1034.07H975.555L986.705 1023.51H886.309V1012.94H1002.56V1023.51L946.758 1076.35H1002.56V1086.91H935.608L924.459 1097.48H1002.56V1108.05H913.31L902.161 1118.62H1002.56V1129.19Z" fill="#1B1C1F"/>
<path d="M336.776 51.248H220.528V40.68L276.327 -12.16H220.528V-22.728H287.477L298.626 -33.296H220.528V-43.864H309.775L320.924 -54.432H220.528V-65H336.776V-54.432L280.977 -1.592H336.776V8.976H269.828L258.679 19.544H336.776V30.112H247.53L236.38 40.68H336.776V51.248Z" fill="#1B1C1F"/>
<path d="M336.776 685.327H220.528V674.759L276.327 621.919H220.528V611.351H287.477L298.626 600.783H220.528V590.215H309.775L320.924 579.647H220.528V569.079H336.776V579.647L280.977 632.487H336.776V643.055H269.828L258.679 653.623H336.776V664.191H247.53L236.38 674.759H336.776V685.327Z" fill="#1B1C1F"/>
<path d="M431.887 368.289H315.639V357.721L371.438 304.881H315.639V294.313H382.587L393.736 283.745H315.639V273.177H404.885L416.035 262.609H315.639V252.041H431.887V262.609L376.088 315.449H431.887V326.017H364.938L353.789 336.585H431.887V347.153H342.64L331.491 357.721H431.887V368.289Z" fill="#1B1C1F"/>
<path d="M431.887 1002.37H315.639V991.8L371.438 938.96H315.639V928.392H382.587L393.736 917.824H315.639V907.256H404.885L416.035 896.688H315.639V886.12H431.887V896.688L376.088 949.528H431.887V960.096H364.938L353.789 970.664H431.887V981.232H342.64L331.491 991.8H431.887V1002.37Z" fill="#1B1C1F"/>
<path d="M907.449 51.248H791.201V40.68L847 -12.16H791.201V-22.728H858.149L869.299 -33.296H791.201V-43.864H880.448L891.597 -54.432H791.201V-65H907.449V-54.432L851.65 -1.592H907.449V8.976H840.501L829.352 19.544H907.449V30.112H818.202L807.053 40.68H907.449V51.248Z" fill="#1B1C1F"/>
<path d="M907.449 685.328H791.201V674.76L847 621.92H791.201V611.352H858.149L869.299 600.784H791.201V590.216H880.448L891.597 579.648H791.201V569.08H907.449V579.648L851.65 632.488H907.449V643.056H840.501L829.352 653.624H907.449V664.192H818.202L807.053 674.76H907.449V685.328Z" fill="#1B1C1F"/>
<path d="M1002.56 368.289H886.309V357.721L942.108 304.881H886.309V294.313H953.257L964.406 283.745H886.309V273.177H975.555L986.705 262.609H886.309V252.041H1002.56V262.609L946.758 315.449H1002.56V326.017H935.608L924.459 336.585H1002.56V347.153H913.31L902.161 357.721H1002.56V368.289Z" fill="#1B1C1F"/>
<path d="M1002.56 1002.37H886.309V991.8L942.108 938.96H886.309V928.392H953.257L964.406 917.824H886.309V907.256H975.555L986.705 896.688H886.309V886.12H1002.56V896.688L946.758 949.528H1002.56V960.096H935.608L924.459 970.664H1002.56V981.232H913.31L902.161 991.8H1002.56V1002.37Z" fill="#1B1C1F"/>
<path d="M51.4394 241.472H-64.8086V230.904L-9.00957 178.064H-64.8086V167.496H2.13968L13.2889 156.928H-64.8086V146.36H24.4382L35.5874 135.792H-64.8086V125.224H51.4394V135.792L-4.35962 188.632H51.4394V199.2H-15.5089L-26.6581 209.768H51.4394V220.336H-37.8074L-48.9566 230.904H51.4394V241.472Z" fill="#1B1C1F"/>
<path d="M51.4394 875.552H-64.8086V864.984L-9.00957 812.144H-64.8086V801.576H2.13968L13.2889 791.008H-64.8086V780.44H24.4382L35.5874 769.872H-64.8086V759.304H51.4394V769.872L-4.35962 822.712H51.4394V833.28H-15.5089L-26.6581 843.848H51.4394V854.416H-37.8074L-48.9566 864.984H51.4394V875.552Z" fill="#1B1C1F"/>
<path d="M1192.78 241.473H1076.54V230.905L1132.33 178.065H1076.54V167.497H1143.48L1154.63 156.929H1076.54V146.361H1165.78L1176.93 135.793H1076.54V125.225H1192.78V135.793L1136.98 188.633H1192.78V199.201H1125.83L1114.69 209.769H1192.78V220.337H1103.54L1092.39 230.905H1192.78V241.473Z" fill="#1B1C1F"/>
<path d="M1192.78 875.552H1076.54V864.984L1132.33 812.144H1076.54V801.576H1143.48L1154.63 791.008H1076.54V780.44H1165.78L1176.93 769.872H1076.54V759.304H1192.78V769.872L1136.98 822.712H1192.78V833.28H1125.83L1114.69 843.848H1192.78V854.416H1103.54L1092.39 864.984H1192.78V875.552Z" fill="#1B1C1F"/>
<path d="M146.553 558.513H30.3047V547.945L86.1037 495.105H30.3047V484.537H97.253L108.402 473.969H30.3047V463.401H119.551L130.701 452.833H30.3047V442.265H146.553V452.833L90.7537 505.673H146.553V516.241H79.6044L68.4552 526.809H146.553V537.377H57.3059L46.1567 547.945H146.553V558.513Z" fill="#1B1C1F"/>
<path d="M146.553 1192.59H30.3047V1182.02L86.1037 1129.18H30.3047V1118.62H97.253L108.402 1108.05H30.3047V1097.48H119.551L130.701 1086.91H30.3047V1076.34H146.553V1086.91L90.7537 1139.75H146.553V1150.32H79.6044L68.4552 1160.89H146.553V1171.46H57.3059L46.1567 1182.02H146.553V1192.59Z" fill="#1B1C1F"/>
<path d="M1287.89 558.513H1171.65V547.945L1227.44 495.105H1171.65V484.537H1238.59L1249.74 473.969H1171.65V463.401H1260.89L1272.04 452.833H1171.65V442.265H1287.89V452.833L1232.09 505.673H1287.89V516.241H1220.95L1209.8 526.809H1287.89V537.377H1198.65L1187.5 547.945H1287.89V558.513Z" fill="#1B1C1F"/>
<path d="M1287.89 1192.59H1171.65V1182.02L1227.44 1129.18H1171.65V1118.62H1238.59L1249.74 1108.05H1171.65V1097.48H1260.89L1272.04 1086.91H1171.65V1076.34H1287.89V1086.91L1232.09 1139.75H1287.89V1150.32H1220.95L1209.8 1160.89H1287.89V1171.46H1198.65L1187.5 1182.02H1287.89V1192.59Z" fill="#1B1C1F"/>
<path d="M622.113 241.472H505.865V230.904L561.664 178.064H505.865V167.496H572.814L583.963 156.928H505.865V146.36H595.112L606.261 135.792H505.865V125.224H622.113V135.792L566.314 188.632H622.113V199.2H555.165L544.016 209.768H622.113V220.336H532.866L521.717 230.904H622.113V241.472Z" fill="#1B1C1F"/>
<path d="M622.113 875.552H505.865V864.984L561.664 812.144H505.865V801.576H572.814L583.963 791.008H505.865V780.44H595.112L606.261 769.872H505.865V759.304H622.113V769.872L566.314 822.712H622.113V833.28H555.165L544.016 843.848H622.113V854.416H532.866L521.717 864.984H622.113V875.552Z" fill="#1B1C1F"/>
<path d="M717.224 558.513H600.976V547.945L656.775 495.105H600.976V484.537H667.924L679.073 473.969H600.976V463.401H690.222L701.372 452.833H600.976V442.265H717.224V452.833L661.425 505.673H717.224V516.241H650.275L639.126 526.809H717.224V537.377H627.977L616.828 547.945H717.224V558.513Z" fill="#1B1C1F"/>
<path d="M717.224 1192.59H600.976V1182.02L656.775 1129.18H600.976V1118.62H667.924L679.073 1108.05H600.976V1097.48H690.222L701.372 1086.91H600.976V1076.34H717.224V1086.91L661.425 1139.75H717.224V1150.32H650.275L639.126 1160.89H717.224V1171.46H627.977L616.828 1182.02H717.224V1192.59Z" fill="#1B1C1F"/>
<path d="M336.776 304.88H220.528V294.312L276.327 241.472H220.528V230.904H287.477L298.626 220.336H220.528V209.768H309.775L320.924 199.2H220.528V188.632H336.776V199.2L280.977 252.04H336.776V262.608H269.828L258.679 273.176H336.776V283.744H247.53L236.38 294.312H336.776V304.88Z" fill="#1B1C1F"/>
<path d="M336.776 938.959H220.528V928.391L276.327 875.551H220.528V864.983H287.477L298.626 854.415H220.528V843.847H309.775L320.924 833.279H220.528V822.711H336.776V833.279L280.977 886.119H336.776V896.687H269.828L258.679 907.255H336.776V917.823H247.53L236.38 928.391H336.776V938.959Z" fill="#1B1C1F"/>
<path d="M431.887 621.919H315.639V611.351L371.438 558.511H315.639V547.943H382.587L393.736 537.375H315.639V526.807H404.885L416.035 516.239H315.639V505.671H431.887V516.239L376.088 569.079H431.887V579.647H364.938L353.789 590.215H431.887V600.783H342.64L331.491 611.351H431.887V621.919Z" fill="#1B1C1F"/>
<path d="M907.448 304.88H791.2V294.312L846.999 241.472H791.2V230.904H858.148L869.298 220.336H791.2V209.768H880.447L891.596 199.2H791.2V188.632H907.448V199.2L851.649 252.04H907.448V262.608H840.5L829.351 273.176H907.448V283.744H818.201L807.052 294.312H907.448V304.88Z" fill="#1B1C1F"/>
<path d="M907.448 938.959H791.2V928.391L846.999 875.551H791.2V864.983H858.148L869.298 854.415H791.2V843.847H880.447L891.596 833.279H791.2V822.711H907.448V833.279L851.649 886.119H907.448V896.687H840.5L829.351 907.255H907.448V917.823H818.201L807.052 928.391H907.448V938.959Z" fill="#1B1C1F"/>
<path d="M1002.56 621.92H886.309V611.352L942.108 558.512H886.309V547.944H953.257L964.406 537.376H886.309V526.808H975.555L986.705 516.24H886.309V505.672H1002.56V516.24L946.758 569.08H1002.56V579.648H935.608L924.459 590.216H1002.56V600.784H913.31L902.161 611.352H1002.56V621.92Z" fill="#1B1C1F"/>
<path d="M1097.67 51.248H981.424V40.68L1037.22 -12.16H981.424V-22.728H1048.37L1059.52 -33.296H981.424V-43.864H1070.67L1081.82 -54.432H981.424V-65H1097.67V-54.432L1041.87 -1.592H1097.67V8.976H1030.72L1019.57 19.544H1097.67V30.112H1008.43L997.276 40.68H1097.67V51.248Z" fill="#1B1C1F"/>
<path d="M1097.67 685.327H981.424V674.759L1037.22 621.919H981.424V611.351H1048.37L1059.52 600.783H981.424V590.215H1070.67L1081.82 579.647H981.424V569.079H1097.67V579.647L1041.87 632.487H1097.67V643.055H1030.72L1019.57 653.623H1097.67V664.191H1008.43L997.276 674.759H1097.67V685.327Z" fill="#1B1C1F"/>
<path d="M51.4394 368.289H-64.8086V357.721L-9.00957 304.881H-64.8086V294.313H2.13968L13.2889 283.745H-64.8086V273.177H24.4382L35.5874 262.609H-64.8086V252.041H51.4394V262.609L-4.35962 315.449H51.4394V326.017H-15.5089L-26.6581 336.585H51.4394V347.153H-37.8074L-48.9566 357.721H51.4394V368.289Z" fill="#1B1C1F"/>
<path d="M51.4394 1002.37H-64.8086V991.8L-9.00957 938.96H-64.8086V928.392H2.13968L13.2889 917.824H-64.8086V907.256H24.4382L35.5874 896.688H-64.8086V886.12H51.4394V896.688L-4.35962 949.528H51.4394V960.096H-15.5089L-26.6581 970.664H51.4394V981.232H-37.8074L-48.9566 991.8H51.4394V1002.37Z" fill="#1B1C1F"/>
<path d="M1192.78 368.288H1076.54V357.72L1132.33 304.88H1076.54V294.312H1143.48L1154.63 283.744H1076.54V273.176H1165.78L1176.93 262.608H1076.54V252.04H1192.78V262.608L1136.98 315.448H1192.78V326.016H1125.83L1114.69 336.584H1192.78V347.152H1103.54L1092.39 357.72H1192.78V368.288Z" fill="#1B1C1F"/>
<path d="M1192.78 1002.37H1076.54V991.8L1132.33 938.96H1076.54V928.392H1143.48L1154.63 917.824H1076.54V907.256H1165.78L1176.93 896.688H1076.54V886.12H1192.78V896.688L1136.98 949.528H1192.78V960.096H1125.83L1114.69 970.664H1192.78V981.232H1103.54L1092.39 991.8H1192.78V1002.37Z" fill="#1B1C1F"/>
<path d="M526.998 51.248H410.75V40.68L466.549 -12.16H410.75V-22.728H477.698L488.848 -33.296H410.75V-43.864H499.997L511.146 -54.432H410.75V-65H526.998V-54.432L471.199 -1.592H526.998V8.976H460.05L448.9 19.544H526.998V30.112H437.751L426.602 40.68H526.998V51.248Z" fill="#1B1C1F"/>
<path d="M526.998 685.327H410.75V674.759L466.549 621.919H410.75V611.351H477.698L488.848 600.783H410.75V590.215H499.997L511.146 579.647H410.75V569.079H526.998V579.647L471.199 632.487H526.998V643.055H460.05L448.9 653.623H526.998V664.191H437.751L426.602 674.759H526.998V685.327Z" fill="#1B1C1F"/>
<path d="M622.113 368.289H505.865V357.721L561.664 304.881H505.865V294.313H572.814L583.963 283.745H505.865V273.177H595.112L606.261 262.609H505.865V252.041H622.113V262.609L566.314 315.449H622.113V326.017H555.165L544.016 336.585H622.113V347.153H532.866L521.717 357.721H622.113V368.289Z" fill="#1B1C1F"/>
<path d="M622.113 1002.37H505.865V991.8L561.664 938.96H505.865V928.392H572.814L583.963 917.824H505.865V907.256H595.112L606.261 896.688H505.865V886.12H622.113V896.688L566.314 949.528H622.113V960.096H555.165L544.016 970.664H622.113V981.232H532.866L521.717 991.8H622.113V1002.37Z" fill="#1B1C1F"/>
<path d="M241.664 114.657H125.416V104.089L181.215 51.2492H125.416V40.6812H192.364L203.514 30.1132H125.416V19.5452H214.663L225.812 8.97718H125.416V-1.59082H241.664V8.97718L185.865 61.8172H241.664V72.3852H174.716L163.567 82.9532H241.664V93.5212H152.417L141.268 104.089H241.664V114.657Z" fill="#1B1C1F"/>
<path d="M241.664 748.737H125.416V738.169L181.215 685.329H125.416V674.761H192.364L203.514 664.193H125.416V653.625H214.663L225.812 643.057H125.416V632.489H241.664V643.057L185.865 695.897H241.664V706.465H174.716L163.567 717.033H241.664V727.601H152.417L141.268 738.169H241.664V748.737Z" fill="#1B1C1F"/>
<path d="M336.776 431.694H220.528V421.126L276.327 368.286H220.528V357.718H287.477L298.626 347.15H220.528V336.582H309.775L320.924 326.014H220.528V315.446H336.776V326.014L280.977 378.854H336.776V389.422H269.828L258.679 399.99H336.776V410.558H247.53L236.38 421.126H336.776V431.694Z" fill="#1B1C1F"/>
<path d="M336.776 1065.78H220.528V1055.21L276.327 1002.37H220.528V991.8H287.477L298.626 981.232H220.528V970.664H309.775L320.924 960.096H220.528V949.528H336.776V960.096L280.977 1012.94H336.776V1023.5H269.828L258.679 1034.07H336.776V1044.64H247.53L236.38 1055.21H336.776V1065.78Z" fill="#1B1C1F"/>
<path d="M812.336 114.656H696.088V104.088L751.887 51.2477H696.088V40.6797H763.036L774.185 30.1117H696.088V19.5437H785.335L796.484 8.97571H696.088V-1.59229H812.336V8.97571L756.537 61.8157H812.336V72.3837H745.388L734.238 82.9517H812.336V93.5197H723.089L711.94 104.088H812.336V114.656Z" fill="#1B1C1F"/>
<path d="M812.336 748.737H696.088V738.169L751.887 685.329H696.088V674.761H763.036L774.185 664.193H696.088V653.625H785.335L796.484 643.057H696.088V632.489H812.336V643.057L756.537 695.897H812.336V706.465H745.388L734.238 717.033H812.336V727.601H723.089L711.94 738.169H812.336V748.737Z" fill="#1B1C1F"/>
<path d="M907.449 431.694H791.201V421.126L847 368.286H791.201V357.718H858.149L869.299 347.15H791.201V336.582H880.448L891.597 326.014H791.201V315.446H907.449V326.014L851.65 378.854H907.449V389.422H840.501L829.352 399.99H907.449V410.558H818.202L807.053 421.126H907.449V431.694Z" fill="#1B1C1F"/>
<path d="M907.448 1065.78H791.2V1055.21L846.999 1002.37H791.2V991.8H858.148L869.298 981.232H791.2V970.664H880.447L891.596 960.096H791.2V949.528H907.448V960.096L851.649 1012.94H907.448V1023.5H840.5L829.351 1034.07H907.448V1044.64H818.201L807.052 1055.21H907.448V1065.78Z" fill="#1B1C1F"/>
<path d="M1097.67 178.064H981.424V167.496L1037.22 114.656H981.424V104.088H1048.37L1059.52 93.5199H981.424V82.9519H1070.67L1081.82 72.3839H981.424V61.8159H1097.67V72.3839L1041.87 125.224H1097.67V135.792H1030.72L1019.57 146.36H1097.67V156.928H1008.43L997.276 167.496H1097.67V178.064Z" fill="#1B1C1F"/>
<path d="M1097.67 812.145H981.424V801.577L1037.22 748.737H981.424V738.169H1048.37L1059.52 727.601H981.424V717.033H1070.67L1081.82 706.465H981.424V695.897H1097.67V706.465L1041.87 759.305H1097.67V769.873H1030.72L1019.57 780.441H1097.67V791.009H1008.43L997.276 801.577H1097.67V812.145Z" fill="#1B1C1F"/>
<path d="M51.4394 495.103H-64.8086V484.535L-9.00957 431.695H-64.8086V421.127H2.13968L13.2889 410.559H-64.8086V399.991H24.4382L35.5874 389.423H-64.8086V378.855H51.4394V389.423L-4.35962 442.263H51.4394V452.831H-15.5089L-26.6581 463.399H51.4394V473.967H-37.8074L-48.9566 484.535H51.4394V495.103Z" fill="#1B1C1F"/>
<path d="M51.4394 1129.19H-64.8086V1118.62L-9.00957 1065.78H-64.8086V1055.21H2.13968L13.2889 1044.64H-64.8086V1034.07H24.4382L35.5874 1023.51H-64.8086V1012.94H51.4394V1023.51L-4.35962 1076.35H51.4394V1086.91H-15.5089L-26.6581 1097.48H51.4394V1108.05H-37.8074L-48.9566 1118.62H51.4394V1129.19Z" fill="#1B1C1F"/>
<path d="M1192.78 495.103H1076.54V484.535L1132.33 431.695H1076.54V421.127H1143.48L1154.63 410.559H1076.54V399.991H1165.78L1176.93 389.423H1076.54V378.855H1192.78V389.423L1136.98 442.263H1192.78V452.831H1125.83L1114.69 463.399H1192.78V473.967H1103.54L1092.39 484.535H1192.78V495.103Z" fill="#1B1C1F"/>
<path d="M1192.78 1129.19H1076.54V1118.62L1132.33 1065.78H1076.54V1055.21H1143.48L1154.63 1044.65H1076.54V1034.08H1165.78L1176.93 1023.51H1076.54V1012.94H1192.78V1023.51L1136.98 1076.35H1192.78V1086.92H1125.83L1114.69 1097.49H1192.78V1108.05H1103.54L1092.39 1118.62H1192.78V1129.19Z" fill="#1B1C1F"/>
<path d="M526.998 178.064H410.75V167.496L466.549 114.656H410.75V104.088H477.698L488.848 93.5199H410.75V82.9519H499.997L511.146 72.3839H410.75V61.8159H526.998V72.3839L471.199 125.224H526.998V135.792H460.05L448.9 146.36H526.998V156.928H437.751L426.602 167.496H526.998V178.064Z" fill="#1B1C1F"/>
<path d="M526.998 812.144H410.75V801.576L466.549 748.736H410.75V738.168H477.698L488.848 727.6H410.75V717.032H499.997L511.146 706.464H410.75V695.896H526.998V706.464L471.199 759.304H526.998V769.872H460.05L448.9 780.44H526.998V791.008H437.751L426.602 801.576H526.998V812.144Z" fill="#1B1C1F"/>
<path d="M622.113 495.103H505.865V484.535L561.664 431.695H505.865V421.127H572.814L583.963 410.559H505.865V399.991H595.112L606.261 389.423H505.865V378.855H622.113V389.423L566.314 442.263H622.113V452.831H555.165L544.016 463.399H622.113V473.967H532.866L521.717 484.535H622.113V495.103Z" fill="#1B1C1F"/>
<path d="M622.113 1129.19H505.865V1118.62L561.664 1065.78H505.865V1055.21H572.814L583.963 1044.64H505.865V1034.07H595.112L606.261 1023.51H505.865V1012.94H622.113V1023.51L566.314 1076.35H622.113V1086.91H555.165L544.016 1097.48H622.113V1108.05H532.866L521.717 1118.62H622.113V1129.19Z" fill="#1B1C1F"/>
<path d="M1097.67 304.88H981.424V294.312L1037.22 241.472H981.424V230.904H1048.37L1059.52 220.336H981.424V209.768H1070.67L1081.82 199.2H981.424V188.632H1097.67V199.2L1041.87 252.04H1097.67V262.608H1030.72L1019.57 273.176H1097.67V283.744H1008.43L997.276 294.312H1097.67V304.88Z" fill="#1B1C1F"/>
<path d="M1097.67 938.959H981.424V928.391L1037.22 875.551H981.424V864.983H1048.37L1059.52 854.415H981.424V843.847H1070.67L1081.82 833.279H981.424V822.711H1097.67V833.279L1041.87 886.119H1097.67V896.687H1030.72L1019.57 907.255H1097.67V917.823H1008.43L997.276 928.391H1097.67V938.959Z" fill="#1B1C1F"/>
<path d="M51.4394 621.919H-64.8086V611.351L-9.00957 558.511H-64.8086V547.943H2.13968L13.2889 537.375H-64.8086V526.807H24.4382L35.5874 516.239H-64.8086V505.671H51.4394V516.239L-4.35962 569.079H51.4394V579.647H-15.5089L-26.6581 590.215H51.4394V600.783H-37.8074L-48.9566 611.351H51.4394V621.919Z" fill="#1B1C1F"/>
<path d="M1192.78 621.919H1076.54V611.351L1132.33 558.511H1076.54V547.943H1143.48L1154.63 537.375H1076.54V526.807H1165.78L1176.93 516.239H1076.54V505.671H1192.78V516.239L1136.98 569.079H1192.78V579.647H1125.83L1114.69 590.215H1192.78V600.783H1103.54L1092.39 611.351H1192.78V621.919Z" fill="#1B1C1F"/>
<path d="M526.998 304.881H410.75V294.313L466.549 241.473H410.75V230.905H477.698L488.848 220.337H410.75V209.769H499.997L511.146 199.201H410.75V188.633H526.998V199.201L471.199 252.041H526.998V262.609H460.05L448.9 273.177H526.998V283.745H437.751L426.602 294.313H526.998V304.881Z" fill="#1B1C1F"/>
<path d="M526.998 938.959H410.75V928.391L466.549 875.551H410.75V864.983H477.698L488.848 854.415H410.75V843.847H499.997L511.146 833.279H410.75V822.711H526.998V833.279L471.199 886.119H526.998V896.687H460.05L448.9 907.255H526.998V917.823H437.751L426.602 928.391H526.998V938.959Z" fill="#1B1C1F"/>
<path d="M622.113 621.92H505.865V611.352L561.664 558.512H505.865V547.944H572.814L583.963 537.376H505.865V526.808H595.112L606.261 516.24H505.865V505.672H622.113V516.24L566.314 569.08H622.113V579.648H555.165L544.016 590.216H622.113V600.784H532.866L521.717 611.352H622.113V621.92Z" fill="#1B1C1F"/>
<path d="M241.664 241.472H125.416V230.904L181.215 178.064H125.416V167.496H192.364L203.514 156.928H125.416V146.36H214.663L225.812 135.792H125.416V125.224H241.664V135.792L185.865 188.632H241.664V199.2H174.716L163.567 209.768H241.664V220.336H152.417L141.268 230.904H241.664V241.472Z" fill="#1B1C1F"/>
<path d="M241.664 875.552H125.416V864.984L181.215 812.144H125.416V801.576H192.364L203.514 791.008H125.416V780.44H214.663L225.812 769.872H125.416V759.304H241.664V769.872L185.865 822.712H241.664V833.28H174.716L163.567 843.848H241.664V854.416H152.417L141.268 864.984H241.664V875.552Z" fill="#1B1C1F"/>
<path d="M336.776 558.514H220.528V547.946L276.327 495.106H220.528V484.538H287.477L298.626 473.97H220.528V463.402H309.775L320.924 452.834H220.528V442.266H336.776V452.834L280.977 505.674H336.776V516.242H269.828L258.679 526.81H336.776V537.378H247.53L236.38 547.946H336.776V558.514Z" fill="#1B1C1F"/>
<path d="M336.776 1192.59H220.528V1182.02L276.327 1129.18H220.528V1118.62H287.477L298.626 1108.05H220.528V1097.48H309.775L320.924 1086.91H220.528V1076.34H336.776V1086.91L280.977 1139.75H336.776V1150.32H269.828L258.679 1160.89H336.776V1171.46H247.53L236.38 1182.02H336.776V1192.59Z" fill="#1B1C1F"/>
<path d="M812.336 241.472H696.088V230.904L751.887 178.064H696.088V167.496H763.036L774.185 156.928H696.088V146.36H785.335L796.484 135.792H696.088V125.224H812.336V135.792L756.537 188.632H812.336V199.2H745.388L734.238 209.768H812.336V220.336H723.089L711.94 230.904H812.336V241.472Z" fill="#1B1C1F"/>
<path d="M812.336 875.554H696.088V864.986L751.887 812.146H696.088V801.578H763.036L774.185 791.01H696.088V780.442H785.335L796.484 769.874H696.088V759.306H812.336V769.874L756.537 822.714H812.336V833.282H745.388L734.238 843.85H812.336V854.418H723.089L711.94 864.986H812.336V875.554Z" fill="#1B1C1F"/>
<path d="M907.448 558.514H791.2V547.946L846.999 495.106H791.2V484.538H858.148L869.298 473.97H791.2V463.402H880.447L891.596 452.834H791.2V442.266H907.448V452.834L851.649 505.674H907.448V516.242H840.5L829.351 526.81H907.448V537.378H818.201L807.052 547.946H907.448V558.514Z" fill="#1B1C1F"/>
<path d="M907.448 1192.59H791.2V1182.02L846.999 1129.18H791.2V1118.62H858.148L869.298 1108.05H791.2V1097.48H880.447L891.596 1086.91H791.2V1076.34H907.448V1086.91L851.649 1139.75H907.448V1150.32H840.5L829.351 1160.89H907.448V1171.46H818.201L807.052 1182.02H907.448V1192.59Z" fill="#1B1C1F"/>
</g>
<defs>
<clipPath id="clip0_284_36999">
<rect width="1238.19" height="1117" fill="white"/>
</clipPath>
</defs>
</svg>
