<svg width="166" height="165" viewBox="0 0 166 165" fill="none" xmlns="http://www.w3.org/2000/svg">
<g clip-path="url(#clip0_305_24104)">
<path d="M-25.3062 168.359L-2.91502 190.751L22.6748 165.161L25.8736 168.359L0.283709 193.949L3.48244 197.148L32.271 168.359L22.6748 158.763L-2.91502 184.353L-18.9087 168.359L13.0786 136.372L9.87991 133.173L-25.3062 168.359Z" fill="#F4ECE0"/>
<path d="M-6.11376 168.359L19.4761 142.77L16.2774 139.571L-12.5112 168.359L-2.91503 177.956L22.6748 152.366L38.6685 168.359L6.68117 200.347L9.8799 203.545L45.066 168.359L22.6748 145.968L-2.91503 171.558L-6.11376 168.359Z" fill="#F4ECE0"/>
<g clip-path="url(#clip1_305_24104)">
<path d="M41.8677 101.186L6.68164 136.372L9.88037 139.571L45.0664 104.385L41.8677 101.186Z" fill="#F4ECE0"/>
<path d="M29.0728 126.777L25.874 129.976L54.6626 158.764L57.8613 155.565L29.0728 126.777Z" fill="#F4ECE0"/>
<path d="M35.4702 120.379L32.2715 123.578L61.0601 152.367L64.2588 149.168L35.4702 120.379Z" fill="#F4ECE0"/>
<path d="M67.458 145.969L70.6568 142.771L45.0669 117.181L51.4644 110.783L48.2656 107.584L38.6694 117.181L67.458 145.969Z" fill="#F4ECE0"/>
<path d="M16.2778 145.969L22.6753 139.572L48.2652 165.162L51.4639 161.963L22.6753 133.174L13.0791 142.771L16.2778 145.969Z" fill="#F4ECE0"/>
</g>
<path d="M-44.4985 129.975L-18.9087 104.385L-22.1074 101.186L-50.896 129.975L-41.2998 139.571L-15.7099 113.981L0.283731 129.975L-31.7036 161.962L-28.5049 165.161L6.6812 129.975L-15.7099 107.583L-41.2998 133.173L-44.4985 129.975Z" fill="#F4ECE0"/>
<g clip-path="url(#clip2_305_24104)">
<path d="M3.48294 62.8012L-31.7031 97.9873L-28.5044 101.186L6.68167 66L3.48294 62.8012Z" fill="#F4ECE0"/>
<path d="M-9.3125 88.3911L-12.5112 91.5898L16.2774 120.378L19.4761 117.18L-9.3125 88.3911Z" fill="#F4ECE0"/>
<path d="M-2.91455 81.9937L-6.11328 85.1924L22.6753 113.981L25.874 110.782L-2.91455 81.9937Z" fill="#F4ECE0"/>
<path d="M29.0728 107.584L32.2715 104.385L6.68164 78.7949L13.0791 72.3975L9.88038 69.1987L0.28418 78.7949L29.0728 107.584Z" fill="#F4ECE0"/>
<path d="M-22.1069 107.583L-15.7095 101.186L9.88039 126.776L13.0791 123.577L-15.7095 94.7886L-25.3057 104.385L-22.1069 107.583Z" fill="#F4ECE0"/>
</g>
<g clip-path="url(#clip3_305_24104)">
<path d="M80.252 139.57L45.0659 174.756L48.2647 177.955L83.4507 142.769L80.252 139.57Z" fill="#F4ECE0"/>
<path d="M73.8545 158.762L70.6558 161.961L99.4444 190.75L102.643 187.551L73.8545 158.762Z" fill="#F4ECE0"/>
<path d="M105.842 184.352L109.041 181.153L83.4512 155.563L89.8486 149.166L86.6499 145.967L77.0537 155.563L105.842 184.352Z" fill="#F4ECE0"/>
</g>
<path d="M-25.3066 40.4082L-2.91551 62.7993L22.6743 37.2095L25.8731 40.4082L0.283221 65.9981L3.48195 69.1968L32.2705 40.4082L22.6743 30.812L-2.91551 56.4019L-18.9092 40.4082L13.0782 8.42088L9.87942 5.22214L-25.3066 40.4082Z" fill="#F4ECE0"/>
<path d="M-6.11425 40.4082L19.4756 14.8183L16.2769 11.6196L-12.5117 40.4082L-2.91552 50.0044L22.6743 24.4145L38.668 40.4082L6.68068 72.3955L9.87941 75.5943L45.0655 40.4082L22.6743 18.0171L-2.91552 43.6069L-6.11425 40.4082Z" fill="#F4ECE0"/>
<g clip-path="url(#clip4_305_24104)">
<path d="M41.8672 -26.7652L6.68115 8.4209L9.87988 11.6196L45.0659 -23.5664L41.8672 -26.7652Z" fill="#F4ECE0"/>
<path d="M29.0718 -1.17432L25.873 2.02441L54.6616 30.813L57.8604 27.6143L29.0718 -1.17432Z" fill="#F4ECE0"/>
<path d="M35.4697 -7.57276L32.271 -4.37402L61.0596 24.4146L64.2583 21.2158L35.4697 -7.57276Z" fill="#F4ECE0"/>
<path d="M67.457 18.0171L70.6558 14.8184L45.0659 -10.7715L51.4634 -17.1689L48.2647 -20.3677L38.6685 -10.7715L67.457 18.0171Z" fill="#F4ECE0"/>
<path d="M16.2773 18.0171L22.6748 11.6196L48.2647 37.2095L51.4634 34.0108L22.6748 5.22216L13.0786 14.8184L16.2773 18.0171Z" fill="#F4ECE0"/>
</g>
<path d="M51.4629 117.178L73.854 139.569L99.4439 113.979L102.643 117.178L77.0528 142.768L80.2515 145.966L109.04 117.178L99.4439 107.582L73.854 133.171L57.8604 117.178L89.8477 85.1904L86.649 81.9917L51.4629 117.178Z" fill="#F4ECE0"/>
<path d="M70.6553 117.178L96.2451 91.5879L93.0464 88.3891L64.2578 117.178L73.854 126.774L99.4439 101.184L115.438 117.178L83.4502 149.165L86.6489 152.364L121.835 117.178L99.4439 94.7866L73.854 120.376L70.6553 117.178Z" fill="#F4ECE0"/>
<g clip-path="url(#clip5_305_24104)">
<path d="M118.637 50.0044L83.4507 85.1904L86.6494 88.3892L121.835 53.2031L118.637 50.0044Z" fill="#F4ECE0"/>
<path d="M105.842 75.5952L102.643 78.7939L131.432 107.583L134.63 104.384L105.842 75.5952Z" fill="#F4ECE0"/>
<path d="M112.239 69.1978L109.041 72.3965L137.829 101.185L141.028 97.9863L112.239 69.1978Z" fill="#F4ECE0"/>
<path d="M144.227 94.7876L147.426 91.5889L121.836 65.999L128.233 59.6016L125.035 56.4028L115.438 65.999L144.227 94.7876Z" fill="#F4ECE0"/>
<path d="M93.0469 94.7876L99.4443 88.3901L125.034 113.98L128.233 110.781L99.4443 81.9927L89.8481 91.5889L93.0469 94.7876Z" fill="#F4ECE0"/>
</g>
<path d="M89.8481 155.564L112.239 177.956L137.829 152.366L141.028 155.564L115.438 181.154L118.637 184.353L147.425 155.564L137.829 145.968L112.239 171.558L96.2456 155.564L128.233 123.577L125.034 120.378L89.8481 155.564Z" fill="#F4ECE0"/>
<path d="M109.041 155.564L134.63 129.975L131.432 126.776L102.643 155.564L112.239 165.161L137.829 139.571L153.823 155.564L121.835 187.552L125.034 190.751L160.22 155.564L137.829 133.173L112.239 158.763L109.041 155.564Z" fill="#F4ECE0"/>
<g clip-path="url(#clip6_305_24104)">
<path d="M157.022 88.3911L121.836 123.577L125.035 126.776L160.221 91.5898L157.022 88.3911Z" fill="#F4ECE0"/>
<path d="M144.227 113.981L141.028 117.18L169.816 145.968L173.015 142.77L144.227 113.981Z" fill="#F4ECE0"/>
<path d="M150.625 107.583L147.426 110.782L176.214 139.571L179.413 136.372L150.625 107.583Z" fill="#F4ECE0"/>
<path d="M182.612 133.173L185.811 129.975L160.221 104.385L166.618 97.9873L163.419 94.7886L153.823 104.385L182.612 133.173Z" fill="#F4ECE0"/>
<path d="M131.432 133.173L137.83 126.776L163.419 152.366L166.618 149.167L137.83 120.378L128.233 129.975L131.432 133.173Z" fill="#F4ECE0"/>
</g>
<path d="M-44.499 2.02441L-18.9092 -23.5655L-22.1079 -26.7642L-50.8965 2.02441L-41.3003 11.6206L-15.7104 -13.9693L0.283242 2.02441L-31.7041 34.0117L-28.5054 37.2105L6.68071 2.02441L-15.7104 -20.3667L-41.3003 5.22314L-44.499 2.02441Z" fill="#F4ECE0"/>
<g clip-path="url(#clip7_305_24104)">
<path d="M-22.1074 -20.3667L-15.71 -26.7642L9.8799 -1.1743L13.0786 -4.37303L-15.71 -33.1616L-25.3062 -23.5654L-22.1074 -20.3667Z" fill="#F4ECE0"/>
</g>
<path d="M128.232 65.999L150.624 88.3902L176.213 62.8003L179.412 65.999L153.822 91.5889L157.021 94.7876L185.81 65.999L176.213 56.4028L150.624 81.9927L134.63 65.999L166.617 34.0117L163.418 30.813L128.232 65.999Z" fill="#F4ECE0"/>
<path d="M147.425 65.999L173.015 40.4092L169.816 37.2104L141.027 65.999L150.624 75.5952L176.213 50.0054L192.207 65.999L160.22 97.9863L163.418 101.185L198.605 65.999L176.213 43.6079L150.624 69.1978L147.425 65.999Z" fill="#F4ECE0"/>
<g clip-path="url(#clip8_305_24104)">
<path d="M195.406 -1.17434L160.22 34.0117L163.419 37.2105L198.605 2.02439L195.406 -1.17434Z" fill="#F4ECE0"/>
</g>
<path d="M13.0781 78.7939L35.4693 101.185L61.0591 75.5952L64.2578 78.7939L38.668 104.384L41.8667 107.583L70.6553 78.7939L61.0591 69.1977L35.4693 94.7876L19.4756 78.7939L51.4629 46.8066L48.2642 43.6079L13.0781 78.7939Z" fill="#F4ECE0"/>
<path d="M32.2705 78.7939L57.8604 53.2041L54.6616 50.0053L25.8731 78.7939L35.4692 88.3901L61.0591 62.8003L77.0528 78.7939L45.0654 110.781L48.2642 113.98L83.4502 78.7939L61.0591 56.4028L35.4692 81.9927L32.2705 78.7939Z" fill="#F4ECE0"/>
<g clip-path="url(#clip9_305_24104)">
<path d="M80.252 11.6206L45.0659 46.8066L48.2647 50.0054L83.4507 14.8193L80.252 11.6206Z" fill="#F4ECE0"/>
<path d="M67.4565 37.2104L64.2578 40.4092L93.0464 69.1978L96.2451 65.999L67.4565 37.2104Z" fill="#F4ECE0"/>
<path d="M73.8545 30.813L70.6558 34.0117L99.4444 62.8003L102.643 59.6016L73.8545 30.813Z" fill="#F4ECE0"/>
<path d="M105.842 56.4029L109.041 53.2041L83.4507 27.6143L89.8482 21.2168L86.6494 18.0181L77.0532 27.6143L105.842 56.4029Z" fill="#F4ECE0"/>
<path d="M54.6621 56.4028L61.0596 50.0054L86.6494 75.5952L89.8482 72.3965L61.0596 43.6079L51.4634 53.2041L54.6621 56.4028Z" fill="#F4ECE0"/>
</g>
<path d="M128.232 193.95L150.624 216.341L176.213 190.751L179.412 193.95L153.822 219.54L157.021 222.739L185.81 193.95L176.213 184.354L150.624 209.944L134.63 193.95L166.617 161.963L163.418 158.764L128.232 193.95Z" fill="#F4ECE0"/>
<g clip-path="url(#clip10_305_24104)">
<path d="M195.406 126.776L160.22 161.962L163.419 165.161L198.605 129.975L195.406 126.776Z" fill="#F4ECE0"/>
</g>
<path d="M51.4629 -10.7695L73.854 11.6216L99.4439 -13.9683L102.643 -10.7695L77.0528 14.8203L80.2515 18.0191L109.04 -10.7695L99.4439 -20.3657L73.854 5.22413L57.8604 -10.7695L89.8477 -42.7569L86.649 -45.9556L51.4629 -10.7695Z" fill="#F4ECE0"/>
<path d="M70.6553 -10.7695L96.2451 -36.3594L93.0464 -39.5581L64.2578 -10.7695L73.854 -1.17334L99.4439 -26.7632L115.438 -10.7695L83.4502 21.2178L86.6489 24.4165L121.835 -10.7695L99.4439 -33.1607L73.854 -7.5708L70.6553 -10.7695Z" fill="#F4ECE0"/>
<path d="M89.8477 27.6143L112.239 50.0054L137.829 24.4155L141.027 27.6143L115.438 53.2041L118.636 56.4029L147.425 27.6143L137.829 18.0181L112.239 43.6079L96.2451 27.6143L128.232 -4.37307L125.034 -7.5718L89.8477 27.6143Z" fill="#F4ECE0"/>
<path d="M109.04 27.6143L134.63 2.02439L131.431 -1.17434L102.643 27.6143L112.239 37.2105L137.829 11.6206L153.822 27.6143L121.835 59.6016L125.034 62.8003L160.22 27.6143L137.829 5.22312L112.239 30.813L109.04 27.6143Z" fill="#F4ECE0"/>
<g clip-path="url(#clip11_305_24104)">
<path d="M144.226 -13.9683L141.027 -10.7695L169.816 18.0191L173.015 14.8203L144.226 -13.9683Z" fill="#F4ECE0"/>
<path d="M150.624 -20.3657L147.425 -17.167L176.214 11.6216L179.413 8.42287L150.624 -20.3657Z" fill="#F4ECE0"/>
<path d="M182.611 5.22316L185.81 2.02443L160.22 -23.5654L166.618 -29.9629L163.419 -33.1616L153.823 -23.5654L182.611 5.22316Z" fill="#F4ECE0"/>
<path d="M131.432 5.22315L137.829 -1.17432L163.419 24.4155L166.618 21.2168L137.829 -7.57178L128.233 2.02441L131.432 5.22315Z" fill="#F4ECE0"/>
</g>
</g>
<defs>
<clipPath id="clip0_305_24104">
<rect x="0.833496" width="165" height="165" rx="82.5" fill="white"/>
</clipPath>
<clipPath id="clip1_305_24104">
<rect width="49.7606" height="49.7606" fill="white" transform="translate(6.68164 136.372) rotate(-45)"/>
</clipPath>
<clipPath id="clip2_305_24104">
<rect width="49.7606" height="49.7606" fill="white" transform="translate(-31.7031 97.9873) rotate(-45)"/>
</clipPath>
<clipPath id="clip3_305_24104">
<rect width="49.7606" height="49.7606" fill="white" transform="translate(45.0659 174.756) rotate(-45)"/>
</clipPath>
<clipPath id="clip4_305_24104">
<rect width="49.7606" height="49.7606" fill="white" transform="translate(6.68115 8.4209) rotate(-45)"/>
</clipPath>
<clipPath id="clip5_305_24104">
<rect width="49.7606" height="49.7606" fill="white" transform="translate(83.4507 85.1904) rotate(-45)"/>
</clipPath>
<clipPath id="clip6_305_24104">
<rect width="49.7606" height="49.7606" fill="white" transform="translate(121.836 123.577) rotate(-45)"/>
</clipPath>
<clipPath id="clip7_305_24104">
<rect width="49.7606" height="49.7606" fill="white" transform="translate(-31.7036 -29.9629) rotate(-45)"/>
</clipPath>
<clipPath id="clip8_305_24104">
<rect width="49.7606" height="49.7606" fill="white" transform="translate(160.22 34.0117) rotate(-45)"/>
</clipPath>
<clipPath id="clip9_305_24104">
<rect width="49.7606" height="49.7606" fill="white" transform="translate(45.0659 46.8066) rotate(-45)"/>
</clipPath>
<clipPath id="clip10_305_24104">
<rect width="49.7606" height="49.7606" fill="white" transform="translate(160.22 161.962) rotate(-45)"/>
</clipPath>
<clipPath id="clip11_305_24104">
<rect width="49.7606" height="49.7606" fill="white" transform="translate(121.835 -4.37305) rotate(-45)"/>
</clipPath>
</defs>
</svg>
