<svg width="288" height="62" viewBox="0 0 288 62" fill="none" xmlns="http://www.w3.org/2000/svg">
<path d="M160.899 20.8188H156.841V48.9203H184.334V44.8623H160.899V20.8188Z" fill="#F4ECE0"/>
<path d="M252.102 24.9783V20.8188H224.102V24.9783H245.913L224.102 44.8623V48.9203H252.102V44.8623H230.189L252.102 24.9783Z" fill="#F4ECE0"/>
<path d="M259.507 20.8188V48.9203H287.609V44.8623H263.464V36.9493H283.449V32.7899H263.464V24.9783H287.609V20.8188H259.507Z" fill="#F4ECE0"/>
<path d="M117.072 48.9205L132.087 20.819H136.246L151.362 48.9205H146.695L134.217 25.79L121.739 48.9205H117.072Z" fill="#F4ECE0"/>
<path d="M15.116 20.8188L0 48.9203H4.66667L17.1449 25.7899L29.6232 48.9203H34.2899L19.1739 20.8188H15.116Z" fill="#F4ECE0"/>
<path d="M213.957 20.819L201.478 44.0509L189 20.819H184.333L199.449 48.9205V61.5002H203.507V48.9205L218.623 20.819H213.957Z" fill="#F4ECE0"/>
<path d="M201.478 5.5C201.478 5.5 195.899 16.4565 195.696 19.8044C195.594 23.1522 198.638 25.6884 201.478 25.6884C204.319 25.6884 207.261 23.8623 207.261 19.7029C207.261 16.558 201.478 5.5 201.478 5.5Z" fill="#F4ECE0"/>
<path d="M67.8695 31.5727C67.8695 33.3988 66.3478 34.9205 64.5217 34.9205H43.826V24.9785H64.5217C66.3478 24.9785 67.8695 26.5002 67.8695 28.3263V31.5727ZM71.9275 41.1089C71.9275 39.4857 71.3188 38.0654 70.3043 36.9495C71.3188 35.8335 71.9275 34.4132 71.9275 32.7901V27.1089C71.9275 23.6596 69.5942 20.819 66.1449 20.819H39.7681V48.9205H43.826V38.9785H58.6376H64.4203C66.2464 38.9785 67.7681 40.5002 67.7681 42.3263V43.2393V49.022H68.4782H71.3188H71.8261V41.1089H71.9275Z" fill="#F4ECE0"/>
<path d="M67.8695 31.5727C67.8695 33.3988 66.3478 34.9205 64.5217 34.9205H43.826V24.9785H64.5217C66.3478 24.9785 67.8695 26.5002 67.8695 28.3263V31.5727ZM71.9275 41.1089C71.9275 39.4857 71.3188 38.0654 70.3043 36.9495C71.3188 35.8335 71.9275 34.4132 71.9275 32.7901V27.1089C71.9275 23.6596 69.5942 20.819 66.1449 20.819H39.7681V48.9205H43.826V38.9785H64.5217C66.3478 38.9785 67.8695 40.5002 67.8695 42.3263V49.022H71.9275V41.1089Z" fill="#F4ECE0"/>
<path d="M107.435 31.5727C107.435 33.3988 105.913 34.9205 104.087 34.9205H83.3912V24.9785H104.087C105.913 24.9785 107.435 26.5002 107.435 28.3263V31.5727ZM111.594 41.1089C111.594 39.4857 110.985 38.0654 109.971 36.9495C110.985 35.8335 111.594 34.4132 111.594 32.7901V27.1089C111.594 23.6596 109.261 20.819 105.812 20.819H79.3333V48.9205H83.3912V38.9785H104.087C105.913 38.9785 107.435 40.5002 107.435 42.3263V49.022H111.493V41.1089H111.594Z" fill="#F4ECE0"/>
</svg>
