<svg width="271" height="56" viewBox="0 0 271 56" fill="none" xmlns="http://www.w3.org/2000/svg">
<path d="M73.6478 51.7622C62.8947 51.7622 56.5244 45.9342 56.5244 34.2187C56.5244 22.5032 62.7725 16.4966 73.7073 16.4966C84.6422 16.4966 90.8307 22.3246 90.8307 34.0401C90.8307 45.7556 84.5827 51.7622 73.6478 51.7622ZM80.2564 34.2187C80.2564 27.6697 78.5133 23.4061 73.6478 23.4061C68.7823 23.4061 67.0988 27.6729 67.0988 34.0401C67.0988 40.4072 68.8418 44.8527 73.7073 44.8527C78.5729 44.8527 80.2564 40.5859 80.2564 34.2187Z" fill="#F4ECE0"/>
<path d="M165.131 49.9C165.131 49.9 160.206 51.3421 153.895 51.3421C147.227 51.3421 143.202 49.7213 140.499 47.2572C137.374 44.373 135.753 39.868 135.753 34.1592C135.753 23.4657 141.462 16.4966 151.973 16.4966C157.5 16.4966 162.065 18.4183 164.651 22.3841C167.175 26.2903 167.175 31.1558 167.175 36.8615H145.967C145.967 41.4888 148.97 44.3103 154.738 44.3103C159.303 44.3103 164.651 42.5672 164.651 42.5672H165.131V49.8969V49.9ZM157.14 30.7358C157.14 26.2308 155.88 23.2274 151.854 23.2274C147.829 23.2274 146.145 26.2903 145.907 30.7358H157.143H157.14Z" fill="#F4ECE0"/>
<path d="M253.156 51.7622C242.403 51.7622 236.032 45.9342 236.032 34.2187C236.032 22.5032 242.28 16.4966 253.215 16.4966C264.15 16.4966 270.339 22.3246 270.339 34.0401C270.339 45.7556 264.09 51.7622 253.156 51.7622ZM259.764 34.2187C259.764 27.6697 258.021 23.4061 253.156 23.4061C248.29 23.4061 246.607 27.6729 246.607 34.0401C246.607 40.4072 248.35 44.8527 253.215 44.8527C258.081 44.8527 259.764 40.5859 259.764 34.2187Z" fill="#F4ECE0"/>
<path d="M51.5025 27.4035C51.5683 21.7448 48.9412 16.3432 40.3732 16.3432C34.3666 16.3432 33.0812 19.2556 29.5637 19.2556C25.5102 19.2556 23.206 16.3369 18.6383 16.3369C14.0706 16.3369 11.619 19.2399 8.85707 19.2556C6.092 19.2713 6.48388 18.3402 4.14203 17.5282C2.02904 16.7946 0.608887 17.5313 0.608887 17.5313L0.615157 44.5864V50.8627H10.7067V30.7955C10.7067 28.3314 11.1864 24.7293 15.8732 24.7293C18.0364 24.7293 19.3562 25.5099 20.1399 26.6511C20.9801 27.9113 20.9801 29.4161 20.9801 30.9774V50.8627H31.0717V30.7955C31.0717 28.3314 31.5513 24.7293 36.2382 24.7293C38.4013 24.7293 39.7243 25.5099 40.5049 26.6511C41.3451 27.9113 41.3451 29.4161 41.3451 31.0369V50.8627H51.4366V32.9963C51.4711 29.9679 51.4993 27.6386 51.5025 27.4066V27.4035Z" fill="#F4ECE0"/>
<path d="M205.133 29.4751C205.133 26.2273 205.443 16.3301 193.511 16.3301C189.107 16.3301 184.718 18.8663 182.05 18.882C179.385 18.8976 179.774 17.9571 177.501 17.2141C175.228 16.4712 173.833 17.2706 173.833 17.2706V19.719V50.8558H183.925V30.7887C183.925 28.4469 184.404 24.7225 189.511 24.7225C191.975 24.7225 193.355 25.5627 194.138 26.7038C195.038 28.0268 195.038 29.5284 195.038 31.1492V50.8558H205.13V31.2119C205.13 30.6445 205.13 30.099 205.127 29.566C205.127 29.5347 205.13 29.5033 205.13 29.472L205.133 29.4751Z" fill="#F4ECE0"/>
<path d="M129.455 4H119.542V19.3615C117.643 19.2424 117.198 18.3802 115.73 17.7376C114.179 16.9852 112.335 16.6779 110.351 16.6779C100.319 16.6779 95.6318 24.4872 95.6318 34.4001C95.6318 35.3249 95.6726 36.2309 95.7541 37.1087C95.7541 40.3566 97.8452 52 109.777 52C115.163 52 117.147 49.561 120.201 49.561C122.866 49.561 123.48 50.4858 125.787 51.1128C127.509 51.5799 129.455 51.0564 129.455 51.0564V34.1274V4ZM112.934 24.1267C117.922 24.1267 119.602 28.3307 119.602 34.0991C119.602 39.8675 117.919 44.0716 112.874 44.0716C107.83 44.0716 106.206 39.8675 106.206 34.0991C106.206 28.3307 107.89 24.1267 112.934 24.1267Z" fill="#F4ECE0"/>
<path d="M212.786 17.8781V9.88694L222.699 7.18457V17.8781H231.471V25.2077H222.699V38.9108C222.699 40.5943 222.699 42.0959 223.42 43.1775C224.141 44.2591 225.401 44.56 226.906 44.56C229.069 44.56 230.991 43.9581 230.991 43.9581H231.471V51.2282C231.471 51.2282 228.706 51.9492 224.803 51.9492C219.696 51.9492 216.272 50.7485 214.41 47.9835C212.789 45.5194 212.789 42.5756 212.789 39.2117V17.8781H212.786Z" fill="#F4ECE0"/>
</svg>
