<svg width="258" height="56" viewBox="0 0 258 56" fill="none" xmlns="http://www.w3.org/2000/svg">
<path d="M246.577 25.6939L246.599 25.6837L246.592 25.6617C245.969 23.4452 244.52 21.5352 242.398 20.1399C240.336 18.7802 237.757 18.0318 235.135 18.0318C231.796 18.0318 228.98 18.7768 226.994 20.1856C224.991 21.6063 223.934 23.6298 223.934 26.0376C223.934 28.84 225.028 30.894 227.279 32.3146C229.263 33.566 231.876 34.1874 234.402 34.7868C238.805 35.8316 242.964 36.8188 242.964 41.013C242.964 42.4185 242.251 43.746 240.955 44.7518C239.596 45.8067 237.711 46.3875 235.65 46.3875C230.894 46.3875 227.88 44.1507 226.163 39.3468L226.153 39.3181L222.549 41.0503L222.529 41.0604L222.536 41.0825C223.252 43.4564 224.703 45.6052 226.623 47.1326C229.014 49.0341 232.052 49.9993 235.652 49.9993C239.045 49.9993 241.932 49.1476 244.001 47.539C246.076 45.9236 247.173 43.6681 247.173 41.013C247.188 37.7179 245.961 35.3101 243.414 33.6506C241.191 32.2012 238.234 31.5035 235.628 30.8855C231.613 29.939 228.147 29.1194 228.147 26.0393C228.147 24.6288 228.75 23.5299 229.939 22.7696C231.105 22.0245 232.772 21.6452 234.887 21.6452C238.8 21.6452 242.149 23.9346 243.031 27.2111L243.041 27.2399L246.582 25.6939H246.577ZM216.591 34.3889C216.653 33.9707 216.719 32.9276 216.719 32.3604C216.719 28.31 215.226 24.6542 212.513 22.0618C211.172 20.78 209.572 19.7826 207.758 19.0969C205.894 18.3924 203.852 18.0335 201.686 18.0335C199.52 18.0335 197.338 18.4382 195.419 19.2357C193.56 20.0078 191.921 21.1288 190.548 22.5698C187.789 25.4636 186.27 29.5275 186.27 34.0181C186.27 38.5087 187.789 42.5742 190.548 45.4664C191.921 46.9057 193.56 48.0283 195.419 48.8005C197.338 49.5997 199.448 50.0027 201.686 50.0027C205.312 50.0027 208.508 49.1306 210.928 47.4814C213.37 45.8186 215.041 43.3515 215.759 40.3476L215.764 40.3205L211.878 39.5737L211.873 39.5991C211.407 41.7191 210.222 43.4548 208.446 44.6231C206.685 45.7796 204.326 46.3892 201.622 46.3892C198.466 46.3892 195.619 45.2124 193.606 43.0755C191.554 40.8962 190.45 37.9025 190.412 34.4143H216.587L216.591 34.3906V34.3889ZM212.51 30.7991H190.739C191.305 28.0154 192.61 25.7007 194.513 24.1022C196.429 22.4953 198.907 21.6452 201.686 21.6452C204.705 21.6452 207.313 22.5427 209.226 24.2411C211.048 25.8564 212.185 28.1238 212.51 30.7991ZM180.798 34.3889C180.86 33.9707 180.926 32.9276 180.926 32.3604C180.926 28.31 179.433 24.6542 176.72 22.0618C175.379 20.78 173.779 19.7826 171.966 19.0969C170.101 18.3924 168.059 18.0335 165.893 18.0335C163.728 18.0335 161.545 18.4382 159.627 19.2357C157.767 20.0078 156.128 21.1288 154.755 22.5698C151.997 25.4636 150.478 29.5275 150.478 34.0181C150.478 38.5087 151.998 42.5742 154.755 45.4664C156.128 46.9057 157.767 48.0283 159.627 48.8005C161.547 49.5997 163.655 50.0027 165.893 50.0027C169.517 50.0027 172.714 49.1306 175.135 47.4814C177.577 45.8186 179.248 43.3515 179.966 40.3476L179.971 40.3205L176.087 39.5737L176.08 39.5991C175.616 41.7191 174.429 43.4548 172.653 44.6231C170.892 45.7796 168.533 46.3892 165.829 46.3892C162.671 46.3892 159.825 45.2124 157.813 43.0755C155.761 40.8962 154.657 37.9025 154.62 34.4143H180.794L180.798 34.3906V34.3889ZM176.717 30.7991H154.945C155.512 28.0154 156.817 25.7007 158.722 24.1022C160.636 22.4953 163.116 21.6452 165.895 21.6452C168.913 21.6452 171.52 22.5427 173.434 24.2411C175.256 25.8564 176.392 28.1238 176.717 30.7991ZM147.895 49.5099L132.49 30.7077L146.708 18.5719L146.763 18.5262H141.061L124.753 31.9963V6.00269H120.611V49.5082H124.753V37.342L129.256 33.4407L142.584 49.4981L142.592 49.5082H147.897L147.895 49.5099ZM109.475 45.5121C112.418 42.6115 114.04 38.5307 114.04 34.0181C114.04 29.5055 112.418 25.4247 109.475 22.5241C106.537 19.6302 102.412 18.0352 97.8587 18.0352C95.5356 18.0352 93.3411 18.4348 91.3379 19.2188C89.3872 19.9841 87.6635 21.0949 86.2191 22.5224C84.7747 23.9498 83.6487 25.6516 82.8748 27.5785C82.0824 29.5563 81.6777 31.7237 81.6777 34.0164C81.6777 36.3091 82.0807 38.4765 82.8748 40.4559C83.6504 42.3829 84.7747 44.0847 86.2191 45.5121C87.6635 46.9412 89.3872 48.052 91.3379 48.8174C93.3411 49.6014 95.5356 50.001 97.8587 50.001C102.414 50.001 106.537 48.4076 109.475 45.5121ZM109.771 34.0181C109.771 41.3009 104.872 46.3892 97.8587 46.3892C94.3773 46.3892 91.3938 45.187 89.2281 42.9146C87.1114 40.6947 85.9465 37.535 85.9465 34.0181C85.9465 30.5011 87.1114 27.3415 89.2281 25.1216C91.3938 22.8492 94.3773 21.6469 97.8587 21.6469C104.872 21.6469 109.771 26.7336 109.771 34.0181ZM71.8871 45.5121C74.83 42.6115 76.4522 38.5307 76.4522 34.0181C76.4522 29.5055 74.83 25.4247 71.8871 22.5241C68.9492 19.6302 64.8244 18.0352 60.2711 18.0352C57.9462 18.0352 55.7534 18.4348 53.7503 19.2188C51.7996 19.9841 50.0758 21.0949 48.6297 22.5224C47.1854 23.9498 46.0593 25.6516 45.2855 27.5785C44.4913 29.5563 44.0883 31.7237 44.0883 34.0164C44.0883 36.3091 44.4897 38.4765 45.2855 40.4559C46.0593 42.3829 47.1854 44.0847 48.6297 45.5121C50.0758 46.9412 51.7979 48.052 53.7503 48.8174C55.7534 49.6014 57.9479 50.001 60.2711 50.001C64.8244 50.001 68.9492 48.4076 71.8871 45.5121ZM72.1834 34.0181C72.1834 41.3009 67.2847 46.3892 60.2711 46.3892C56.7914 46.3892 53.8061 45.187 51.6387 42.9146C49.5238 40.6947 48.3588 37.535 48.3588 34.0181C48.3588 30.5011 49.5238 27.3415 51.6387 25.1216C53.8061 22.8492 56.7914 21.6469 60.2711 21.6469C67.2847 21.6469 72.1834 26.7336 72.1834 34.0181ZM33.678 49.5099H37.7554V28.862C37.7554 25.6922 36.6396 22.9745 34.5297 21.0035C32.4808 19.0884 29.5819 18.0335 26.363 18.0335C21.6506 18.0335 17.4783 20.5328 14.8977 24.8947V18.5262H10.8169V49.5099H14.8943V35.9213C14.8943 31.6509 15.9357 28.0442 17.905 25.4958C19.8506 22.9779 22.5768 21.6469 25.7839 21.6469C28.1748 21.6469 30.1814 22.4005 31.5902 23.8262C32.9533 25.2062 33.6746 27.1179 33.6746 29.3548V49.5116L33.678 49.5099Z" fill="#F4ECE0"/>
</svg>
