<svg width="123" height="56" viewBox="0 0 123 56" fill="none" xmlns="http://www.w3.org/2000/svg">
<path d="M82.4893 13.075H55.9946V15.4836H82.4893V13.075Z" fill="#F4ECE0"/>
<path d="M70.446 0.946106H68.0374V27.6128H70.446V0.946106Z" fill="#F4ECE0"/>
<path d="M121.027 40.4295H119.135V55.9134H121.027V40.4295Z" fill="#F4ECE0"/>
<path d="M56.5107 12.1285C56.5107 11.4404 56.3387 10.064 56.3387 10.064C55.0484 0.773705 45.9301 -0.000488281 43.0053 -0.000488281C38.1881 -0.000488281 34.2311 1.63392 31.5645 4.73069C29.1559 1.63392 25.1989 -0.000488281 20.3817 -0.000488281C16.4247 -0.000488281 13.3279 1.11779 10.4892 3.52639C10.4892 3.09628 10.4031 2.58015 10.4031 2.06403L10.3171 0.859726H0.59668L0.6827 2.06403C0.768722 3.1823 0.854741 5.93499 0.854741 8.08553V28.2145H10.9193V14.8812C10.9193 9.20381 14.7042 7.22531 17.973 7.22531C21.4139 7.22531 23.6505 8.34359 23.6505 13.6769V28.2145H33.715V14.8812C33.715 9.20381 37.4999 7.22531 40.7688 7.22531C44.2096 7.22531 46.4462 8.34359 46.4462 13.6769V28.2145H56.5107V12.1285Z" fill="#F4ECE0"/>
<path d="M11.5213 44.7306C10.6611 44.7306 9.97295 44.9027 9.28478 45.1607C8.5966 45.5048 8.08047 45.9349 7.73638 46.4511V44.8166H5.92993V55.9134H7.8224V50.236C7.8224 49.0317 8.08047 48.1715 8.68262 47.4833C9.28477 46.8812 10.059 46.5371 11.0912 46.5371C12.0375 46.5371 12.7256 46.7951 13.1557 47.3113C13.6719 47.8274 13.9299 48.6876 13.9299 49.7199V55.8274H15.8224V49.4618C15.8224 47.9134 15.3923 46.7091 14.6181 45.8489C13.9299 45.1607 12.8977 44.7306 11.5213 44.7306Z" fill="#F4ECE0"/>
<path d="M24.2527 53.849C23.8226 54.1931 23.3065 54.3651 22.7904 54.3651C22.2743 54.3651 21.8441 54.1931 21.5861 53.849C21.328 53.5049 21.156 53.0748 21.156 52.4726V46.4511H24.1667V44.8167H21.156V42.4081H19.2635V44.8167H17.457V46.4511H19.2635V52.5586C19.2635 53.6769 19.5216 54.5371 20.1237 55.1393C20.7259 55.7414 21.5 55.9995 22.6183 55.9995C23.0484 55.9995 23.4785 55.9135 23.9087 55.8275C24.3388 55.6554 24.6829 55.4834 24.9409 55.2253L24.2527 53.849Z" fill="#F4ECE0"/>
<path d="M35.7797 50.4081C35.7797 49.2898 35.5216 48.3436 35.0915 47.4834C34.6614 46.6232 34.0593 45.935 33.2851 45.5049C32.5109 44.9888 31.5646 44.8167 30.6184 44.8167C29.5861 44.8167 28.7259 45.0748 27.9517 45.5049C27.1775 46.021 26.4894 46.6232 26.0593 47.4834C25.6291 48.3436 25.3711 49.2898 25.3711 50.4081C25.3711 51.5264 25.6291 52.4726 26.0593 53.3328C26.4894 54.193 27.1775 54.8812 28.0378 55.3113C28.898 55.8275 29.8442 55.9995 30.9625 55.9995C31.8227 55.9995 32.5969 55.8275 33.3711 55.5694C34.0593 55.2253 34.6614 54.7952 35.1776 54.193L34.1453 52.9027C33.3711 53.7629 32.3388 54.2791 31.1345 54.2791C30.1023 54.2791 29.2421 54.021 28.5539 53.4189C27.8657 52.8167 27.4356 52.0425 27.3496 51.0963H35.8657C35.7797 50.7522 35.7797 50.5801 35.7797 50.4081ZM33.9733 49.6339H27.2636C27.3496 48.6877 27.6937 47.9135 28.3818 47.3113C28.984 46.7092 29.7582 46.4511 30.7044 46.4511C31.6507 46.4511 32.4249 46.7092 33.027 47.3113C33.5431 47.9135 33.8872 48.6877 33.9733 49.6339Z" fill="#F4ECE0"/>
<path d="M39.8226 46.7091V44.8166H38.0161V55.9134H39.9086V50.408C39.9086 49.2037 40.1667 48.2575 40.7688 47.6554C41.371 47.0532 42.1452 46.7091 43.1774 46.7091C43.3495 46.7091 43.5215 46.7091 43.6075 46.7091V44.7306C42.6613 44.7306 41.8871 44.9027 41.2849 45.2468C40.5968 45.5908 40.0806 46.0209 39.8226 46.7091Z" fill="#F4ECE0"/>
<path d="M51.0912 44.7306C50.2309 44.7306 49.5428 44.9027 48.8546 45.1607C48.1664 45.5048 47.6503 45.9349 47.3062 46.4511V44.8166H45.4998V55.9134H47.3922V50.236C47.3922 49.0317 47.6503 48.1715 48.2524 47.4833C48.8546 46.8812 49.6288 46.5371 50.6611 46.5371C51.6073 46.5371 52.2955 46.7951 52.7256 47.3113C53.2417 47.8274 53.4998 48.6876 53.4998 49.7199V55.8274H55.3922V49.4618C55.3922 47.9134 54.9621 46.7091 54.1879 45.8489C53.4998 45.1607 52.3815 44.7306 51.0912 44.7306Z" fill="#F4ECE0"/>
<path d="M66.8335 55.9134V49.2037C66.8335 47.7414 66.4033 46.6231 65.7152 45.8489C64.941 45.0747 63.8227 44.7306 62.3603 44.7306C61.5001 44.7306 60.7259 44.8166 59.9517 45.0747C59.1775 45.3328 58.5754 45.6769 57.9732 46.107L58.7474 47.5693C59.1775 47.2252 59.6937 46.8812 60.2958 46.7091C60.898 46.4511 61.5001 46.365 62.1023 46.365C63.0485 46.365 63.7367 46.6231 64.1668 47.0532C64.6829 47.4833 64.855 48.1715 64.855 49.0317V49.4618H61.8442C60.3818 49.4618 59.2636 49.7199 58.6614 50.322C57.9732 50.9242 57.6292 51.6984 57.6292 52.6446C57.6292 53.5908 57.9732 54.365 58.6614 54.9672C59.3496 55.5693 60.2958 55.8274 61.5001 55.8274C62.2743 55.8274 63.0485 55.6553 63.5646 55.3973C64.1668 55.1392 64.5969 54.7091 64.941 54.193V55.6553H66.8335V55.9134ZM64.941 52.5586C64.6829 53.1607 64.3388 53.6769 63.8227 54.0209C63.3066 54.365 62.7044 54.5371 61.9302 54.5371C61.2421 54.5371 60.6399 54.365 60.2098 54.0209C59.7797 53.6769 59.6076 53.2467 59.6076 52.7306C59.6076 51.6123 60.3818 51.0102 62.0162 51.0102H64.941V52.5586Z" fill="#F4ECE0"/>
<path d="M75.1773 53.849C74.7472 54.1931 74.2311 54.3651 73.7149 54.3651C73.1988 54.3651 72.7687 54.1931 72.5106 53.849C72.2526 53.5049 72.0805 53.0748 72.0805 52.4726V46.4511H75.0913V44.8167H72.0805V42.4081H70.188V44.8167H68.3816V46.4511H70.188V52.5586C70.188 53.6769 70.4461 54.5371 71.0483 55.1393C71.6504 55.7414 72.4246 55.9995 73.5429 55.9995C73.973 55.9995 74.4031 55.9135 74.8332 55.8275C75.2633 55.7414 75.6074 55.4834 75.8655 55.2253L75.1773 53.849Z" fill="#F4ECE0"/>
<path d="M79.8226 41.376C79.8226 41.0319 79.7366 40.6878 79.4785 40.4297C79.2204 40.1716 78.9624 40.0856 78.5323 40.0856C78.1022 40.0856 77.8441 40.1716 77.586 40.4297C77.328 40.6878 77.2419 41.0319 77.2419 41.376C77.2419 41.72 77.328 42.0641 77.586 42.3222C77.8441 42.5803 78.1022 42.6663 78.5323 42.6663C78.9624 42.6663 79.2204 42.4942 79.4785 42.3222C79.7366 42.0641 79.8226 41.72 79.8226 41.376ZM79.4785 44.8168H77.586V55.9136H79.4785V44.8168Z" fill="#F4ECE0"/>
<path d="M2.91952 41.376C2.91952 41.0319 2.83349 40.6878 2.57543 40.4297C2.31736 40.1716 2.0593 40.0856 1.62919 40.0856C1.2851 40.0856 0.94102 40.1716 0.682955 40.4297C0.42489 40.6878 0.338867 41.0319 0.338867 41.376C0.338867 41.72 0.42489 42.0641 0.682955 42.3222C0.94102 42.5803 1.19908 42.6663 1.62919 42.6663C1.97328 42.6663 2.31736 42.4942 2.57543 42.3222C2.83349 42.0641 2.91952 41.72 2.91952 41.376ZM2.57543 44.8168H0.682955V55.9136H2.57543V44.8168Z" fill="#F4ECE0"/>
<path d="M92.6399 50.4081C92.6399 49.2898 92.3818 48.3436 91.9517 47.4834C91.5216 46.6232 90.8335 45.935 89.9732 45.5049C89.113 44.9888 88.1668 44.8167 87.1345 44.8167C86.1023 44.8167 85.156 45.0748 84.2958 45.5049C83.4356 46.021 82.8335 46.6232 82.3173 47.4834C81.8872 48.3436 81.6292 49.2898 81.6292 50.4081C81.6292 51.5264 81.8872 52.4726 82.3173 53.3328C82.7474 54.193 83.4356 54.8812 84.2958 55.3113C85.156 55.8275 86.1023 55.9995 87.1345 55.9995C88.1668 55.9995 89.113 55.7414 89.9732 55.3113C90.8335 54.7952 91.4356 54.193 91.9517 53.3328C92.3818 52.3866 92.6399 51.4404 92.6399 50.4081ZM90.6614 50.4081C90.6614 51.1823 90.4894 51.8705 90.2313 52.4726C89.8872 53.0748 89.5431 53.5049 88.941 53.849C88.4249 54.193 87.8227 54.3651 87.1345 54.3651C86.4464 54.3651 85.8442 54.193 85.3281 53.849C84.812 53.5049 84.3818 53.0748 84.0378 52.4726C83.6937 51.8705 83.6076 51.1823 83.6076 50.4081C83.6076 49.6339 83.7797 48.9457 84.0378 48.3436C84.3818 47.7414 84.812 47.3113 85.3281 46.9672C85.8442 46.6232 86.4464 46.4511 87.1345 46.4511C87.8227 46.4511 88.4249 46.6232 88.941 46.9672C89.4571 47.3113 89.8872 47.7414 90.2313 48.3436C90.4894 48.9457 90.6614 49.6339 90.6614 50.4081Z" fill="#F4ECE0"/>
<path d="M100.382 44.7306C99.522 44.7306 98.8338 44.9027 98.1456 45.1607C97.4574 45.5048 96.9413 45.9349 96.5972 46.4511V44.8166H94.7908V55.9134H96.6832V50.236C96.6832 49.0317 96.9413 48.1715 97.5435 47.4833C98.1456 46.7951 98.9198 46.5371 99.9521 46.5371C100.898 46.5371 101.586 46.7951 102.017 47.3113C102.533 47.8274 102.791 48.6876 102.791 49.7199V55.8274H104.683V49.4618C104.683 47.9134 104.253 46.7091 103.479 45.8489C102.791 45.1607 101.673 44.7306 100.382 44.7306Z" fill="#F4ECE0"/>
<path d="M116.124 55.9134V49.2037C116.124 47.7414 115.694 46.6231 115.005 45.8489C114.231 45.0747 113.113 44.7306 111.651 44.7306C110.79 44.7306 110.016 44.8166 109.242 45.0747C108.468 45.3328 107.866 45.6769 107.264 46.107L108.038 47.5693C108.468 47.2252 108.984 46.8812 109.586 46.7091C110.188 46.4511 110.79 46.365 111.393 46.365C112.339 46.365 113.027 46.6231 113.457 47.0532C113.973 47.4833 114.145 48.1715 114.145 49.0317V49.4618H111.135C109.672 49.4618 108.554 49.7199 107.952 50.322C107.264 50.9242 106.919 51.6984 106.919 52.6446C106.919 53.5908 107.264 54.365 107.952 54.9672C108.64 55.5693 109.586 55.8274 110.79 55.8274C111.565 55.8274 112.339 55.6553 112.855 55.3973C113.457 55.1392 113.887 54.7091 114.231 54.193V55.6553H116.124V55.9134ZM114.231 52.5586C113.973 53.1607 113.629 53.6769 113.113 54.0209C112.597 54.365 111.995 54.5371 111.221 54.5371C110.532 54.5371 109.93 54.365 109.5 54.0209C109.07 53.6769 108.898 53.2467 108.898 52.7306C108.898 51.6123 109.672 51.0102 111.307 51.0102H114.231V52.5586Z" fill="#F4ECE0"/>
<path d="M122.059 13.849C122.059 4.30058 113.199 -0.000488281 104.339 -0.000488281C101.414 -0.000488281 96.3388 0.429619 92.812 3.01026L92.5539 0.859726H81.6292L81.7152 2.06403C81.8012 3.35435 81.9732 5.67693 81.9732 7.65542V9.978V28.7307V37.1608H93.2421V25.1178C96.0808 27.0963 99.8657 28.1285 104.597 28.1285C112.769 28.1285 122.059 24.3436 122.059 13.849ZM110.446 14.021C110.446 18.2361 106.833 21.2468 101.93 21.2468C96.941 21.2468 93.4141 18.2361 93.4141 14.021C93.4141 9.80596 97.027 6.7952 101.93 6.7952C106.833 6.7952 110.446 9.89198 110.446 14.021Z" fill="#F4ECE0"/>
</svg>
