<svg width="329" height="33" viewBox="0 0 329 33" fill="none" xmlns="http://www.w3.org/2000/svg">
<path d="M328.339 30.6758C328.31 31.0609 328.147 31.3868 327.85 31.6535C327.584 31.9201 327.273 32.0535 326.917 32.0535C326.502 32.0535 326.162 31.9201 325.895 31.6535C325.658 31.3868 325.539 31.0609 325.539 30.6758V2.32171C325.539 1.93655 325.673 1.61064 325.939 1.34399C326.206 1.07734 326.547 0.94401 326.962 0.94401C327.317 0.94401 327.628 1.07734 327.895 1.34399C328.191 1.61064 328.339 1.93655 328.339 2.32171V30.6758Z" fill="#F4ECE0"/>
<path d="M319.085 29.4314C319.44 29.4314 319.751 29.5647 320.018 29.8314C320.285 30.0684 320.418 30.3647 320.418 30.7202C320.418 31.1054 320.285 31.4313 320.018 31.6979C319.751 31.9349 319.44 32.0535 319.085 32.0535H303.219C302.834 32.0535 302.508 31.9201 302.241 31.6535C302.004 31.3868 301.886 31.0757 301.886 30.7202V2.27727C301.886 1.92174 302.019 1.61064 302.286 1.34399C302.552 1.07734 302.893 0.94401 303.308 0.94401C303.663 0.94401 303.975 1.07734 304.241 1.34399C304.537 1.61064 304.686 1.92174 304.686 2.27727V30.1869L303.841 29.4314H319.085Z" fill="#F4ECE0"/>
<path d="M286.048 0.94401C288.537 0.94401 290.478 1.62545 291.87 2.98835C293.292 4.32161 294.003 6.18818 294.003 8.58805C294.003 9.83243 293.737 11.0175 293.203 12.1434C292.67 13.2693 291.885 14.1877 290.848 14.8988C289.811 15.5803 288.522 15.9654 286.982 16.0543L286.804 15.1655C287.9 15.1655 288.967 15.3284 290.004 15.6543C291.07 15.9506 292.018 16.4395 292.848 17.1209C293.677 17.8024 294.344 18.6616 294.848 19.6986C295.351 20.7059 295.603 21.9355 295.603 23.3873C295.603 24.9279 295.337 26.2612 294.803 27.387C294.3 28.4833 293.603 29.3721 292.715 30.0536C291.855 30.735 290.863 31.2387 289.737 31.5646C288.611 31.8905 287.441 32.0535 286.226 32.0535H274.271C273.916 32.0535 273.604 31.9201 273.338 31.6535C273.071 31.3868 272.938 31.0757 272.938 30.7202V2.27727C272.938 1.92174 273.071 1.61064 273.338 1.34399C273.604 1.07734 273.916 0.94401 274.271 0.94401H286.048ZM285.693 3.56609H275.249L275.782 2.76614V15.3432L275.293 14.6766H285.693C287.233 14.647 288.522 14.1433 289.559 13.1656C290.626 12.1879 291.159 10.7361 291.159 8.81026C291.159 7.18072 290.685 5.90671 289.737 4.98824C288.789 4.04014 287.441 3.56609 285.693 3.56609ZM286.004 17.3431H275.56L275.782 17.0765V29.8314L275.515 29.4314H286.093C287.989 29.4314 289.574 28.9573 290.848 28.0092C292.122 27.0315 292.759 25.4908 292.759 23.3873C292.759 21.9059 292.448 20.7207 291.826 19.8319C291.204 18.943 290.374 18.306 289.337 17.9209C288.3 17.5357 287.189 17.3431 286.004 17.3431Z" fill="#F4ECE0"/>
<path d="M263.254 0.94401C263.668 0.94401 263.994 1.07734 264.231 1.34399C264.468 1.58101 264.587 1.89211 264.587 2.27727V20.6763C264.587 22.8688 264.068 24.8538 263.031 26.6315C261.994 28.4092 260.602 29.8314 258.854 30.898C257.106 31.9349 255.136 32.4534 252.943 32.4534C250.751 32.4534 248.766 31.9349 246.988 30.898C245.24 29.8314 243.847 28.4092 242.81 26.6315C241.773 24.8538 241.255 22.8688 241.255 20.6763V2.27727C241.255 1.89211 241.373 1.58101 241.61 1.34399C241.877 1.07734 242.233 0.94401 242.677 0.94401C243.033 0.94401 243.344 1.07734 243.61 1.34399C243.877 1.58101 244.01 1.89211 244.01 2.27727V20.6763C244.01 22.3947 244.41 23.9354 245.21 25.2983C246.04 26.6612 247.136 27.7574 248.499 28.587C249.862 29.3869 251.343 29.7869 252.943 29.7869C254.602 29.7869 256.113 29.3869 257.476 28.587C258.839 27.7574 259.921 26.6612 260.72 25.2983C261.55 23.9354 261.965 22.3947 261.965 20.6763V2.27727C261.965 1.89211 262.083 1.58101 262.32 1.34399C262.557 1.07734 262.868 0.94401 263.254 0.94401Z" fill="#F4ECE0"/>
<path d="M223.314 4.36591L212.514 31.2089C212.396 31.5052 212.233 31.7274 212.025 31.8756C211.818 32.0237 211.581 32.0978 211.314 32.0978C210.9 32.0978 210.588 31.9941 210.381 31.7867C210.174 31.5496 210.055 31.2682 210.025 30.9423C209.996 30.7941 210.011 30.6164 210.07 30.409L221.803 1.69939C221.951 1.37348 222.129 1.15127 222.336 1.03276C222.573 0.884618 222.84 0.810547 223.136 0.810547C223.432 0.810547 223.684 0.899431 223.891 1.0772C224.128 1.22534 224.306 1.43273 224.425 1.69939L236.113 30.2756C236.172 30.4534 236.202 30.6312 236.202 30.8089C236.202 31.2237 236.069 31.5496 235.802 31.7867C235.535 31.9941 235.224 32.0978 234.869 32.0978C234.572 32.0978 234.306 32.0237 234.069 31.8756C233.861 31.6978 233.698 31.4756 233.58 31.2089L222.514 4.18814L223.314 4.36591ZM215.092 23.076L216.203 20.4539H229.98L230.513 23.076H215.092Z" fill="#F4ECE0"/>
<path d="M197.55 32.0535C197.135 32.0535 196.795 31.9201 196.528 31.6535C196.291 31.3868 196.172 31.0757 196.172 30.7202V2.4106H198.928V30.7202C198.928 31.0757 198.794 31.3868 198.528 31.6535C198.261 31.9201 197.935 32.0535 197.55 32.0535ZM186.973 3.47721C186.617 3.47721 186.306 3.3587 186.04 3.12167C185.773 2.88465 185.64 2.57355 185.64 2.18839C185.64 1.83285 185.773 1.53657 186.04 1.29955C186.306 1.06252 186.617 0.94401 186.973 0.94401H208.127C208.483 0.94401 208.794 1.06252 209.061 1.29955C209.327 1.53657 209.461 1.84767 209.461 2.23283C209.461 2.61799 209.327 2.92909 209.061 3.16611C208.794 3.37351 208.483 3.47721 208.127 3.47721H186.973Z" fill="#F4ECE0"/>
<path d="M171.929 32.4983C169.677 32.5279 167.721 32.1724 166.062 31.4317C164.403 30.691 162.818 29.5799 161.307 28.0985C161.159 27.98 161.025 27.8319 160.907 27.6541C160.818 27.4763 160.774 27.2689 160.774 27.0319C160.774 26.6764 160.907 26.3505 161.174 26.0542C161.47 25.7579 161.796 25.6098 162.151 25.6098C162.507 25.6098 162.833 25.7579 163.129 26.0542C164.285 27.2986 165.588 28.2467 167.04 28.8985C168.521 29.5503 170.106 29.8762 171.795 29.8762C173.217 29.8762 174.477 29.654 175.573 29.2096C176.699 28.7652 177.588 28.1282 178.239 27.2986C178.891 26.469 179.217 25.5061 179.217 24.4098C179.217 23.0469 178.847 21.9507 178.106 21.1211C177.365 20.2619 176.388 19.5656 175.173 19.0323C173.958 18.4694 172.61 17.9657 171.129 17.5213C169.914 17.1658 168.758 16.7658 167.662 16.3214C166.566 15.8473 165.588 15.2844 164.729 14.6326C163.87 13.9511 163.203 13.1215 162.729 12.1438C162.255 11.1661 162.018 9.98097 162.018 8.58846C162.018 7.01817 162.433 5.62565 163.262 4.4109C164.092 3.19615 165.262 2.24805 166.773 1.56661C168.314 0.855536 170.092 0.5 172.106 0.5C173.854 0.5 175.528 0.79628 177.128 1.38884C178.758 1.9814 180.047 2.85543 180.995 4.01092C181.439 4.48497 181.661 4.91458 181.661 5.29974C181.661 5.59602 181.513 5.8923 181.217 6.18858C180.921 6.48486 180.595 6.63301 180.239 6.63301C179.943 6.63301 179.691 6.52931 179.484 6.32191C178.98 5.69972 178.343 5.1516 177.573 4.67755C176.802 4.17388 175.943 3.78871 174.995 3.52206C174.077 3.25541 173.114 3.12208 172.106 3.12208C170.714 3.12208 169.455 3.34429 168.329 3.78871C167.233 4.2035 166.359 4.81088 165.707 5.61084C165.085 6.41079 164.773 7.37371 164.773 8.49957C164.773 9.74395 165.129 10.7661 165.84 11.5661C166.551 12.366 167.484 13.0327 168.64 13.566C169.795 14.0696 171.025 14.5437 172.329 14.9881C173.603 15.3436 174.817 15.7584 175.973 16.2325C177.158 16.6769 178.195 17.2398 179.084 17.9213C180.002 18.6027 180.713 19.4619 181.217 20.4989C181.75 21.5359 182.017 22.8395 182.017 24.4098C182.017 25.9209 181.587 27.2838 180.728 28.4985C179.869 29.7133 178.684 30.6762 177.173 31.3872C175.691 32.0983 173.943 32.4687 171.929 32.4983Z" fill="#F4ECE0"/>
<path d="M127.273 0.94401H143.583C143.939 0.94401 144.25 1.07734 144.516 1.34399C144.783 1.58101 144.916 1.89211 144.916 2.27727C144.916 2.66244 144.783 2.97353 144.516 3.21055C144.25 3.44758 143.939 3.56609 143.583 3.56609H128.295L128.739 2.81058V15.2988L128.251 14.7211H141.583C141.939 14.7211 142.25 14.8544 142.517 15.121C142.783 15.3877 142.917 15.6988 142.917 16.0543C142.917 16.4395 142.783 16.7506 142.517 16.9876C142.25 17.2246 141.939 17.3431 141.583 17.3431H128.34L128.739 16.8987V29.698L128.517 29.4314H143.583C143.939 29.4314 144.25 29.5647 144.516 29.8314C144.783 30.098 144.916 30.4091 144.916 30.7646C144.916 31.1498 144.783 31.4609 144.516 31.6979C144.25 31.9349 143.939 32.0535 143.583 32.0535H127.273C126.917 32.0535 126.606 31.9201 126.34 31.6535C126.073 31.3868 125.94 31.0757 125.94 30.7202V2.27727C125.94 1.92174 126.073 1.61064 126.34 1.34399C126.606 1.07734 126.917 0.94401 127.273 0.94401Z" fill="#F4ECE0"/>
<path d="M109.561 32.4983C107.31 32.5279 105.354 32.1724 103.695 31.4317C102.036 30.691 100.451 29.5799 98.9397 28.0985C98.7916 27.98 98.6582 27.8319 98.5397 27.6541C98.4508 27.4763 98.4064 27.2689 98.4064 27.0319C98.4064 26.6764 98.5397 26.3505 98.8064 26.0542C99.1027 25.7579 99.4286 25.6098 99.7841 25.6098C100.14 25.6098 100.466 25.7579 100.762 26.0542C101.917 27.2986 103.221 28.2467 104.673 28.8985C106.154 29.5503 107.739 29.8762 109.428 29.8762C110.85 29.8762 112.109 29.654 113.206 29.2096C114.331 28.7652 115.22 28.1282 115.872 27.2986C116.524 26.469 116.85 25.5061 116.85 24.4098C116.85 23.0469 116.48 21.9507 115.739 21.1211C114.998 20.2619 114.02 19.5656 112.806 19.0323C111.591 18.4694 110.243 17.9657 108.761 17.5213C107.547 17.1658 106.391 16.7658 105.295 16.3214C104.199 15.8473 103.221 15.2844 102.362 14.6326C101.503 13.9511 100.836 13.1215 100.362 12.1438C99.8878 11.1661 99.6508 9.98097 99.6508 8.58846C99.6508 7.01817 100.066 5.62565 100.895 4.4109C101.725 3.19615 102.895 2.24805 104.406 1.56661C105.947 0.855536 107.724 0.5 109.739 0.5C111.487 0.5 113.161 0.79628 114.761 1.38884C116.391 1.9814 117.679 2.85543 118.628 4.01092C119.072 4.48497 119.294 4.91458 119.294 5.29974C119.294 5.59602 119.146 5.8923 118.85 6.18858C118.553 6.48486 118.228 6.63301 117.872 6.63301C117.576 6.63301 117.324 6.52931 117.117 6.32191C116.613 5.69972 115.976 5.1516 115.206 4.67755C114.435 4.17388 113.576 3.78871 112.628 3.52206C111.709 3.25541 110.746 3.12208 109.739 3.12208C108.347 3.12208 107.087 3.34429 105.962 3.78871C104.865 4.2035 103.991 4.81088 103.339 5.61084C102.717 6.41079 102.406 7.37371 102.406 8.49957C102.406 9.74395 102.762 10.7661 103.473 11.5661C104.184 12.366 105.117 13.0327 106.273 13.566C107.428 14.0696 108.658 14.5437 109.961 14.9881C111.235 15.3436 112.45 15.7584 113.606 16.2325C114.791 16.6769 115.828 17.2398 116.717 17.9213C117.635 18.6027 118.346 19.4619 118.85 20.4989C119.383 21.5359 119.65 22.8395 119.65 24.4098C119.65 25.9209 119.22 27.2838 118.361 28.4985C117.502 29.7133 116.317 30.6762 114.806 31.3872C113.324 32.0983 111.576 32.4687 109.561 32.4983Z" fill="#F4ECE0"/>
<path d="M92.675 30.6758C92.6454 31.0609 92.4824 31.3868 92.1861 31.6535C91.9195 31.9201 91.6084 32.0535 91.2529 32.0535C90.8381 32.0535 90.4974 31.9201 90.2307 31.6535C89.9937 31.3868 89.8752 31.0609 89.8752 30.6758V2.32171C89.8752 1.93655 90.0085 1.61064 90.2751 1.34399C90.5418 1.07734 90.8825 0.94401 91.2973 0.94401C91.6528 0.94401 91.9639 1.07734 92.2306 1.34399C92.5269 1.61064 92.675 1.93655 92.675 2.32171V30.6758Z" fill="#F4ECE0"/>
<path d="M80.2955 0.94401C80.6807 0.94401 80.9769 1.06252 81.1843 1.29955C81.4213 1.53657 81.5399 1.83285 81.5399 2.18839V30.6313C81.5399 31.0757 81.3917 31.4313 81.0954 31.6979C80.8288 31.9349 80.5177 32.0535 80.1622 32.0535C79.9844 32.0535 79.7918 32.0238 79.5844 31.9646C79.377 31.8757 79.2141 31.7572 79.0956 31.609L59.2744 4.89936L60.0299 4.49938V30.8535C60.0299 31.1794 59.9114 31.4609 59.6744 31.6979C59.4373 31.9349 59.1411 32.0535 58.7855 32.0535C58.4004 32.0535 58.0893 31.9349 57.8522 31.6979C57.6448 31.4609 57.5411 31.1794 57.5411 30.8535V2.27727C57.5411 1.83285 57.6745 1.50694 57.9411 1.29955C58.2078 1.06252 58.5041 0.94401 58.83 0.94401C59.0077 0.94401 59.2003 0.988452 59.4077 1.07734C59.6151 1.13659 59.7781 1.2551 59.8966 1.43287L79.4955 27.8315L79.0511 28.6314V2.18839C79.0511 1.83285 79.1696 1.53657 79.4066 1.29955C79.6733 1.06252 79.9696 0.94401 80.2955 0.94401Z" fill="#F4ECE0"/>
<path d="M33.6153 0.94401H49.9255C50.281 0.94401 50.5921 1.07734 50.8588 1.34399C51.1254 1.58101 51.2588 1.89211 51.2588 2.27727C51.2588 2.66244 51.1254 2.97353 50.8588 3.21055C50.5921 3.44758 50.281 3.56609 49.9255 3.56609H34.6374L35.0819 2.81058V15.2988L34.593 14.7211H47.9256C48.2812 14.7211 48.5923 14.8544 48.8589 15.121C49.1256 15.3877 49.2589 15.6988 49.2589 16.0543C49.2589 16.4395 49.1256 16.7506 48.8589 16.9876C48.5923 17.2246 48.2812 17.3431 47.9256 17.3431H34.6819L35.0819 16.8987V29.698L34.8597 29.4314H49.9255C50.281 29.4314 50.5921 29.5647 50.8588 29.8314C51.1254 30.098 51.2588 30.4091 51.2588 30.7646C51.2588 31.1498 51.1254 31.4609 50.8588 31.6979C50.5921 31.9349 50.281 32.0535 49.9255 32.0535H33.6153C33.2597 32.0535 32.9486 31.9201 32.682 31.6535C32.4153 31.3868 32.282 31.0757 32.282 30.7202V2.27727C32.282 1.92174 32.4153 1.61064 32.682 1.34399C32.9486 1.07734 33.2597 0.94401 33.6153 0.94401Z" fill="#F4ECE0"/>
<path d="M13.0046 0.94401C15.1971 0.94401 17.1081 1.3588 18.7376 2.18839C20.3968 3.01797 21.7597 4.17347 22.8263 5.65487C23.8929 7.10664 24.6781 8.76581 25.1817 10.6324C25.715 12.4989 25.9817 14.4544 25.9817 16.4987C25.9817 19.343 25.5076 21.9503 24.5595 24.3205C23.6411 26.6612 22.2189 28.5425 20.2931 29.9647C18.3969 31.3572 15.9674 32.0535 13.0046 32.0535H1.67188C1.31635 32.0535 1.00525 31.9201 0.738602 31.6535C0.471949 31.3868 0.338623 31.0757 0.338623 30.7202V2.27727C0.338623 1.92174 0.471949 1.61064 0.738602 1.34399C1.00525 1.07734 1.31635 0.94401 1.67188 0.94401H13.0046ZM12.5602 29.4314C15.0786 29.4314 17.1081 28.8536 18.6488 27.6981C20.1894 26.5426 21.3153 24.9872 22.0263 23.0317C22.7671 21.0466 23.1374 18.869 23.1374 16.4987C23.1374 14.7803 22.93 13.1508 22.5152 11.6101C22.13 10.0398 21.5079 8.66212 20.6486 7.47699C19.8191 6.26224 18.7228 5.31415 17.3599 4.6327C16.0267 3.92163 14.4268 3.56609 12.5602 3.56609H2.82738L3.13847 3.16611V29.8758L2.87182 29.4314H12.5602Z" fill="#F4ECE0"/>
</svg>
