<svg width="299" height="56" viewBox="0 0 299 56" fill="none" xmlns="http://www.w3.org/2000/svg">
<g clip-path="url(#clip0_464_5166)">
<path d="M78.5435 27.7752C78.9479 27.7752 79.2996 27.6302 79.5897 27.3401C79.8798 27.05 80.0292 26.7027 80.0468 26.2939V13.2258C80.0161 12.817 79.8974 12.5225 79.6952 12.3335C79.3216 11.9906 78.9391 11.8192 78.5479 11.8192H78.2402V11.5862H87.2249C87.9897 11.5862 88.6227 11.5291 89.1238 11.4104C89.6249 11.2917 89.9282 11.2126 90.0381 11.1642V15.2697L89.8051 15.2478V14.9884C89.8051 14.017 89.4446 13.3313 88.7282 12.9225C88.3853 12.7203 87.9765 12.6104 87.5062 12.5928H83.5633V19.4192H86.6622C87.2424 19.406 87.7172 19.2038 88.0908 18.8214C88.4688 18.439 88.6534 17.9643 88.6534 17.4016V17.1906H88.8864V22.6104H88.6534V22.4214C88.6534 21.8412 88.4688 21.3665 88.0996 20.9884C87.7348 20.6148 87.2688 20.417 86.7062 20.3994H83.5633V26.9928H86.6359C87.7787 26.9928 88.737 26.6632 89.5106 26.0082C90.2842 25.3533 90.86 24.4214 91.2337 23.217H91.4666L90.3897 28.0038H78.2358V27.7709H78.5435V27.7752Z" fill="#F4ECE0"/>
<path d="M92.8071 28.0085V27.7755H93.0884C93.4489 27.7755 93.7478 27.6569 93.9939 27.4239C94.2357 27.1909 94.3588 26.9008 94.3588 26.5536V15.4107C94.3588 15.0678 94.2313 14.7733 93.9808 14.5316C93.7302 14.2898 93.4357 14.1667 93.0884 14.1667H92.8071V13.9338H99.3302V14.1667H99.0489C98.6885 14.1667 98.3808 14.2854 98.1346 14.5184C97.8841 14.7514 97.761 15.0503 97.761 15.4107V27.0722H100.574C101.546 27.0591 102.363 26.7558 103.04 26.1711C103.713 25.5821 104.205 24.7602 104.517 23.6964H104.776L103.862 28.0129H92.8115L92.8071 28.0085Z" fill="#F4ECE0"/>
<path d="M105.453 27.7755H105.734C106.112 27.7755 106.429 27.6569 106.697 27.4107C106.961 27.169 107.097 26.8744 107.097 26.5316V15.4107C107.097 15.0678 106.965 14.7733 106.697 14.5316C106.429 14.2898 106.112 14.1667 105.734 14.1667H105.453V13.9338H112.112V14.1667H111.831C111.471 14.1667 111.159 14.2854 110.89 14.5184C110.627 14.7514 110.482 15.0415 110.469 15.3843V26.5272C110.482 26.8876 110.627 27.1821 110.89 27.4195C111.159 27.6525 111.471 27.7712 111.831 27.7712H112.112V28.0041H105.453V27.7712V27.7755Z" fill="#F4ECE0"/>
<path d="M113.99 26.0835C113.99 25.0681 114.218 24.1978 114.671 23.4813H114.86C114.842 23.5912 114.834 23.6923 114.834 23.7846C114.834 24.7384 115.177 25.578 115.853 26.2945C116.535 27.0154 117.484 27.3714 118.702 27.3714C119.577 27.3714 120.253 27.1692 120.733 26.7604C121.212 26.356 121.449 25.9033 121.449 25.3978C121.449 24.8923 121.313 24.4967 121.04 24.189C120.763 23.8857 120.315 23.5296 119.691 23.1209L116.359 21.011C114.952 20.1362 114.249 19.011 114.249 17.6307C114.249 17.4901 114.258 17.3406 114.271 17.1868C114.368 16.0747 114.794 15.2044 115.563 14.5714C116.333 13.9384 117.234 13.6219 118.275 13.6219C119.317 13.6219 120.416 13.6923 121.572 13.8329H122.838L122.508 16.9274H122.297C122.297 16.1934 122.043 15.6132 121.537 15.1912C121.027 14.7692 120.355 14.5582 119.519 14.5582C118.684 14.5582 118.021 14.734 117.537 15.0857C117.053 15.4373 116.812 15.9033 116.812 16.4791C116.812 16.9494 117.045 17.3538 117.515 17.7011C117.704 17.8417 117.977 18.022 118.337 18.2417L122.069 20.5406C123.352 21.3231 123.994 22.4044 123.994 23.7758C123.994 25.2307 123.48 26.3472 122.456 27.1297C121.432 27.9121 120.104 28.3033 118.478 28.3033C117.475 28.3033 116.592 28.189 115.827 27.9516C115.062 27.7187 114.5 27.4198 114.139 27.0593C114.047 26.778 113.999 26.4483 113.999 26.0747L113.99 26.0835Z" fill="#F4ECE0"/>
<path d="M139.985 27.7758H140.174V28.0088H133.278V27.7758H133.467C133.779 27.7758 134.007 27.6835 134.148 27.4945C134.289 27.3055 134.359 27.1341 134.359 26.9802C134.359 26.8264 134.328 26.6593 134.267 26.4879L133.352 24.3297H128.377L127.44 26.5099C127.379 26.6681 127.348 26.8264 127.348 26.989C127.348 27.1517 127.423 27.3231 127.572 27.5033C127.717 27.6835 127.95 27.7714 128.262 27.7714H128.451V28.0044H123.761V27.7714H123.95C124.28 27.7714 124.605 27.6703 124.935 27.4681C125.265 27.2659 125.528 26.9582 125.735 26.5538L130.592 16.1363C131.278 14.589 131.638 13.6352 131.669 13.2747H131.88L138.17 26.4615C138.372 26.9143 138.64 27.2484 138.979 27.4593C139.313 27.6703 139.656 27.7758 139.999 27.7758H139.985ZM128.772 23.411H132.948L130.882 18.5099L128.772 23.411Z" fill="#F4ECE0"/>
<path d="M151.902 17.4283C151.902 18.0085 151.779 18.514 151.528 18.9536C151.045 19.7975 150.306 20.2591 149.322 20.3382C150.368 20.4173 151.242 20.7865 151.95 21.4503C152.653 22.114 153.005 22.9624 153.005 23.9953C153.005 26.0129 151.792 27.2788 149.37 27.7975C148.684 27.9382 147.928 28.0085 147.119 28.0085H140.315V27.7755H140.574C140.935 27.7755 141.234 27.6569 141.475 27.4239C141.717 27.1909 141.849 26.892 141.862 26.5316V15.4107C141.849 14.8481 141.581 14.4656 141.062 14.2591C140.904 14.1975 140.741 14.1667 140.57 14.1667H140.311V13.9338H146.596C150.13 13.9338 151.897 15.0986 151.897 17.4283H151.902ZM149.203 23.7843C149.203 23.0635 149.053 22.4613 148.759 21.9777C148.209 21.0415 147.264 20.5711 145.919 20.5711H145.871V20.3602C146.623 20.3602 147.234 20.1404 147.704 19.7052C148.174 19.2656 148.407 18.5887 148.407 17.6656C148.407 15.7887 147.555 14.8481 145.849 14.8481H145.194V27.0722H146.135C147.04 27.0722 147.779 26.8085 148.35 26.2722C148.922 25.7404 149.207 24.9096 149.207 23.7843H149.203Z" fill="#F4ECE0"/>
<path d="M165.484 28.0087H154.434V27.7757H154.715C155.075 27.7757 155.374 27.657 155.616 27.424C155.858 27.1911 155.99 26.901 156.003 26.5537V15.3845C155.99 15.0416 155.858 14.7515 155.616 14.5185C155.374 14.2856 155.071 14.1669 154.715 14.1669H154.434V13.9339H162.693C163.115 13.9339 163.576 13.8944 164.078 13.8152C164.579 13.7361 164.93 13.657 165.133 13.5823V17.3141H164.9V17.1032C164.9 16.413 164.711 15.8768 164.337 15.4856C163.959 15.0944 163.436 14.8922 162.768 14.8746H159.387V20.5757H162.064C162.596 20.5625 163.027 20.3823 163.357 20.035C163.686 19.6922 163.849 19.2526 163.849 18.7207V18.5581H164.082V23.5295H163.849V23.3669C163.849 22.6328 163.576 22.101 163.027 21.7713C162.746 21.5999 162.434 21.512 162.086 21.512H159.387V27.0724H162.205C163.176 27.0592 163.998 26.7559 164.68 26.1713C165.361 25.5823 165.858 24.7603 166.17 23.6966H166.381L165.489 28.0131L165.484 28.0087Z" fill="#F4ECE0"/>
<path d="M180.5 17.2613V17.0504C180.5 16.3778 180.311 15.846 179.937 15.4547C179.559 15.0635 179.036 14.8613 178.364 14.8438H175.643V26.5493C175.656 26.8921 175.792 27.1822 176.043 27.4196C176.293 27.6526 176.592 27.7712 176.935 27.7712H177.194V28.0042H170.72V27.7712H170.953C171.313 27.7712 171.616 27.6526 171.867 27.4196C172.117 27.1866 172.241 26.8877 172.241 26.5273V14.8438H169.542C168.851 14.8613 168.32 15.0635 167.946 15.4547C167.568 15.846 167.383 16.3778 167.383 17.0504V17.2613H167.15V13.5558C167.37 13.635 167.735 13.7141 168.241 13.7888C168.75 13.8679 169.203 13.9075 169.612 13.9075H178.271C178.957 13.9075 179.524 13.8591 179.972 13.7536C180.416 13.6526 180.671 13.5866 180.733 13.5558V17.2613H180.5Z" fill="#F4ECE0"/>
<path d="M197.744 27.7755H198.003V28.0085H191.55V27.7755H191.783C192.144 27.7755 192.447 27.6569 192.697 27.4239C192.948 27.1909 193.075 26.892 193.075 26.5316V21.4635H186.908V26.5316C186.922 26.892 187.053 27.1865 187.304 27.4239C187.555 27.6569 187.853 27.7755 188.196 27.7755H188.456V28.0085H181.981V27.7755H182.24C182.601 27.7755 182.904 27.6569 183.155 27.4107C183.405 27.169 183.533 26.8744 183.533 26.5316V15.4107C183.533 15.0678 183.405 14.7733 183.155 14.5316C182.904 14.2898 182.601 14.1667 182.24 14.1667H181.981V13.9338H188.456V14.1667H188.196C187.853 14.1667 187.555 14.2854 187.304 14.5184C187.053 14.7514 186.922 15.0415 186.908 15.3843V20.5228H193.075V15.4107C193.075 14.9272 192.864 14.5667 192.443 14.3294C192.24 14.2195 192.021 14.1667 191.788 14.1667H191.555V13.9338H198.007V14.1667H197.748C197.405 14.1667 197.106 14.2854 196.856 14.5184C196.605 14.7514 196.473 15.0503 196.456 15.4107V26.5536C196.473 27.0371 196.684 27.3887 197.089 27.6085C197.291 27.7184 197.511 27.7712 197.744 27.7712V27.7755Z" fill="#F4ECE0"/>
<path d="M226.86 27.7758H227.234V28.0087H220.197V27.7978H220.548C220.812 27.7846 221.041 27.6747 221.23 27.4681C221.419 27.2659 221.493 27.0373 221.463 26.7868L220.548 18.2725L216.14 25.8725C215.559 26.8439 215.265 27.7098 215.247 28.4747H215.014L208.984 18.3384L208.069 26.7824C208.038 27.0329 208.118 27.2615 208.302 27.4725C208.491 27.6835 208.715 27.789 208.984 27.789H209.335V28H204.43V27.767H204.808C205.243 27.767 205.625 27.6351 205.946 27.367C206.267 27.1032 206.456 26.7428 206.522 26.2901L208.469 11.2527H208.68L215.951 23.2175L222.944 11.2527H223.155L225.151 26.2901C225.23 26.7428 225.428 27.1032 225.748 27.367C226.069 27.6351 226.443 27.767 226.865 27.767L226.86 27.7758Z" fill="#F4ECE0"/>
<path d="M242.812 14.167H242.482C242.188 14.167 241.933 14.2593 241.731 14.4351C241.528 14.6153 241.419 14.8439 241.401 15.1252V22.8879C241.401 24.5758 240.887 25.9033 239.854 26.8659C238.821 27.8285 237.282 28.3077 235.243 28.3077C233.203 28.3077 231.616 27.8373 230.482 26.9011C229.348 25.9648 228.781 24.6417 228.781 22.9362V15.1472C228.781 14.8659 228.676 14.6329 228.465 14.4439C228.254 14.2549 227.999 14.1626 227.704 14.1626H227.375V13.9296H233.546V14.1626H233.216C232.922 14.1626 232.671 14.2549 232.465 14.4439C232.262 14.6329 232.161 14.8659 232.161 15.1472V22.7736C232.161 24.2109 232.491 25.3406 233.159 26.1494C233.823 26.9626 234.759 27.3714 235.964 27.3714C237.168 27.3714 238.117 26.989 238.812 26.2241C239.511 25.4593 239.858 24.3956 239.858 23.0329V15.1516C239.845 14.8527 239.731 14.6153 239.528 14.4351C239.326 14.2549 239.076 14.167 238.777 14.167H238.469V13.934H242.808V14.167H242.812ZM233.84 12.1362C233.568 12.4087 233.234 12.545 232.843 12.545C232.451 12.545 232.117 12.4087 231.845 12.1362C231.568 11.8637 231.436 11.5296 231.436 11.1384C231.436 10.7472 231.572 10.4131 231.845 10.1406C232.117 9.86808 232.451 9.73181 232.843 9.73181C233.234 9.73181 233.568 9.86808 233.84 10.1406C234.113 10.4131 234.249 10.7472 234.249 11.1384C234.249 11.5296 234.113 11.8637 233.84 12.1362ZM239.331 12.1362C239.054 12.4087 238.724 12.545 238.333 12.545C237.942 12.545 237.608 12.4087 237.335 12.1362C237.062 11.8637 236.926 11.5296 236.926 11.1384C236.926 10.7472 237.062 10.4131 237.335 10.1406C237.608 9.86808 237.942 9.73181 238.333 9.73181C238.724 9.73181 239.058 9.86808 239.331 10.1406C239.603 10.4131 239.739 10.7472 239.739 11.1384C239.739 11.5296 239.603 11.8637 239.331 12.1362Z" fill="#F4ECE0"/>
<path d="M244.056 28.0085V27.7755H244.337C244.697 27.7755 244.996 27.6569 245.238 27.4239C245.48 27.1909 245.603 26.9008 245.603 26.5536V15.4107C245.603 15.0678 245.475 14.7733 245.225 14.5316C244.974 14.2898 244.675 14.1667 244.333 14.1667H244.051V13.9338H250.574V14.1667H250.293C249.933 14.1667 249.629 14.2854 249.379 14.5184C249.128 14.7514 249.005 15.0503 249.005 15.4107V27.0722H251.818C252.79 27.0591 253.607 26.7558 254.28 26.1711C254.952 25.5821 255.445 24.7602 255.761 23.6964H256.021L255.102 28.0129H244.051L244.056 28.0085Z" fill="#F4ECE0"/>
<path d="M256.698 28.0085V27.7755H256.979C257.34 27.7755 257.638 27.6569 257.88 27.4239C258.122 27.1909 258.245 26.9008 258.245 26.5536V15.4107C258.245 15.0678 258.118 14.7733 257.867 14.5316C257.616 14.2898 257.318 14.1667 256.975 14.1667H256.693V13.9338H263.216V14.1667H262.935C262.575 14.1667 262.271 14.2854 262.021 14.5184C261.77 14.7514 261.647 15.0503 261.647 15.4107V27.0722H264.46C265.432 27.0591 266.249 26.7558 266.922 26.1711C267.594 25.5821 268.087 24.7602 268.403 23.6964H268.663L267.744 28.0129H256.693L256.698 28.0085Z" fill="#F4ECE0"/>
<path d="M280.394 28.0087H269.344V27.7757H269.625C269.985 27.7757 270.284 27.657 270.526 27.424C270.768 27.1911 270.9 26.901 270.913 26.5537V15.3845C270.9 15.0416 270.768 14.7515 270.526 14.5185C270.284 14.2856 269.985 14.1669 269.625 14.1669H269.344V13.9339H277.603C278.025 13.9339 278.487 13.8944 278.988 13.8152C279.489 13.7361 279.84 13.657 280.043 13.5823V17.3141H279.81V17.1032C279.81 16.413 279.621 15.8768 279.247 15.4856C278.873 15.0944 278.346 14.8922 277.678 14.8746H274.302V20.5757H276.975C277.506 20.5625 277.937 20.3823 278.267 20.035C278.597 19.6922 278.759 19.2526 278.759 18.7207V18.5581H278.992V23.5295H278.759V23.3669C278.759 22.6328 278.487 22.101 277.937 21.7713C277.656 21.5999 277.344 21.512 277.001 21.512H274.302V27.0724H277.115C278.087 27.0592 278.909 26.7559 279.59 26.1713C280.271 25.5823 280.768 24.7603 281.08 23.6966H281.291L280.399 28.0131L280.394 28.0087Z" fill="#F4ECE0"/>
<path d="M288.302 14.892H287.551V26.5272C287.551 26.9008 287.678 27.2041 287.937 27.4283C288.197 27.6569 288.491 27.7668 288.816 27.7668H289.076V27.9997H282.623V27.7668H282.904C283.247 27.7668 283.542 27.6481 283.783 27.4151C284.025 27.1821 284.148 26.892 284.148 26.5448V15.3755C284.148 15.0327 284.025 14.7426 283.783 14.5096C283.542 14.2766 283.256 14.158 282.926 14.158H282.623V13.925H289.823C291.234 13.925 292.412 14.1975 293.366 14.747C294.43 15.358 294.962 16.3646 294.962 17.7711C294.962 18.6766 294.689 19.4942 294.14 20.2239C293.59 20.9492 292.781 21.3931 291.7 21.5514C292.122 21.692 292.544 21.9558 292.957 22.347C293.37 22.7382 293.704 23.1382 293.955 23.5426C294.456 24.4349 294.979 25.2525 295.524 25.9953C296.074 26.7382 296.513 27.2173 296.847 27.4371C297.186 27.6569 297.595 27.7668 298.082 27.7668V27.9997H296.109C294.812 27.9997 293.814 27.8415 293.12 27.5294C292.421 27.2173 291.801 26.6239 291.256 25.7492C290.412 24.4041 289.889 23.3404 289.682 22.558C289.493 22.0876 289.274 21.736 289.014 21.503C288.755 21.27 288.509 21.1382 288.276 21.103V20.914H288.86C290.192 20.9008 291.005 20.114 291.3 18.5668C291.362 18.3338 291.397 18.1316 291.397 17.9558C291.397 17.7799 291.388 17.547 291.37 17.2393C291.357 16.9316 291.256 16.5887 291.08 16.2063C290.9 15.8239 290.671 15.547 290.386 15.3711C289.902 15.0722 289.401 14.9184 288.887 14.9008C288.711 14.8832 288.518 14.8788 288.302 14.8788V14.892Z" fill="#F4ECE0"/>
<path d="M89.8271 11.45V13.8983C89.6381 13.4016 89.304 13.0148 88.8293 12.7467C88.4556 12.5269 88.0117 12.4038 87.5018 12.3906H83.3523V19.6346H86.6622C87.2952 19.617 87.8227 19.3972 88.2359 18.9752C88.4249 18.7818 88.5743 18.5664 88.6754 18.3291V21.4895C88.5743 21.2522 88.4293 21.0412 88.2446 20.8522C87.8403 20.439 87.3216 20.2192 86.7018 20.2016H83.3523V27.2126H86.6315C87.8183 27.2126 88.8293 26.8654 89.6425 26.1796C90.1831 25.7225 90.6315 25.1291 90.9875 24.4126L90.2227 27.806H79.3084C79.4578 27.7269 79.6029 27.6214 79.7304 27.4939C80.0556 27.1687 80.2315 26.7687 80.249 26.3027V13.217C80.2139 12.7555 80.0688 12.4126 79.8271 12.1884C79.6468 12.0214 79.4622 11.8939 79.2776 11.8016H87.2205C87.9985 11.8016 88.6534 11.7401 89.1677 11.6214C89.4754 11.5511 89.6864 11.4983 89.8271 11.4587M90.0337 11.173C89.9238 11.2214 89.6205 11.3005 89.1194 11.4192C88.6183 11.5379 87.9853 11.595 87.2205 11.595H78.2358V11.828H78.5435C78.9347 11.828 79.3172 11.9994 79.6908 12.3423C79.893 12.5313 80.0117 12.8258 80.0424 13.2346V26.3027C80.0249 26.7115 79.871 27.0588 79.5853 27.3489C79.2952 27.639 78.9479 27.784 78.5391 27.784H78.2314V28.017H90.3853L91.4622 23.2302H91.2293C90.8512 24.4346 90.2798 25.3665 89.5062 26.0214C88.7326 26.6763 87.7743 27.006 86.6315 27.006H83.5589V20.4126H86.7018C87.2644 20.4302 87.7304 20.6236 88.0952 21.0016C88.4644 21.3752 88.649 21.8544 88.649 22.4346V22.6236H88.882V17.2038H88.649V17.4148C88.649 17.9774 88.46 18.4522 88.0864 18.8346C87.7128 19.217 87.2337 19.4192 86.6578 19.4324H83.5589V12.606H87.5018C87.9721 12.6192 88.3765 12.7291 88.7238 12.9357C89.4447 13.3401 89.8007 14.0302 89.8007 15.0016V15.261L90.0337 15.2829V11.1774V11.173Z" fill="#F4ECE0"/>
<path d="M98.2973 14.1404C98.1874 14.2019 98.0819 14.2766 97.9852 14.3689C97.6951 14.6415 97.5456 14.9931 97.5456 15.4107V27.2788H100.57C101.585 27.2613 102.46 26.9404 103.168 26.325C103.638 25.9162 104.025 25.3887 104.328 24.7558L103.682 27.8019H93.8225C93.9324 27.7404 94.0379 27.6657 94.1302 27.5733C94.4115 27.2964 94.5566 26.9536 94.5566 26.558V15.4151C94.5566 15.0151 94.4071 14.6678 94.117 14.3865C94.0159 14.2898 93.9104 14.2107 93.7961 14.1448H98.2929M99.3214 13.9382H92.7983V14.1711H93.0797C93.4269 14.1711 93.7214 14.2942 93.972 14.536C94.2225 14.7777 94.35 15.0722 94.35 15.4151V26.558C94.35 26.9008 94.2269 27.1909 93.9852 27.4283C93.739 27.6613 93.4401 27.7799 93.0797 27.7799H92.7983V28.0129H103.849L104.763 23.6964H104.504C104.192 24.7602 103.699 25.5821 103.027 26.1711C102.354 26.7558 101.532 27.0591 100.561 27.0722H97.7478V15.4107C97.7478 15.0503 97.8709 14.7558 98.1214 14.5184C98.372 14.2854 98.6753 14.1667 99.0357 14.1667H99.317V13.9338L99.3214 13.9382Z" fill="#F4ECE0"/>
<path d="M111.075 14.1405C110.961 14.202 110.855 14.2724 110.754 14.3647C110.447 14.6372 110.28 14.9801 110.262 15.3888V26.5405C110.28 26.9581 110.447 27.3053 110.754 27.5779C110.855 27.6658 110.961 27.7405 111.075 27.7976H106.499C106.618 27.7361 106.728 27.657 106.833 27.5603C107.145 27.279 107.299 26.9273 107.299 26.5273V15.4064C107.299 15.002 107.141 14.6548 106.833 14.3735C106.728 14.2812 106.618 14.202 106.499 14.1361H111.075M112.112 13.9295H105.453V14.1625H105.734C106.112 14.1625 106.429 14.2855 106.697 14.5273C106.961 14.7691 107.097 15.0636 107.097 15.4064V26.5273C107.097 26.8702 106.965 27.1647 106.697 27.4064C106.429 27.6482 106.112 27.7713 105.734 27.7713H105.453V28.0042H112.112V27.7713H111.831C111.471 27.7713 111.159 27.6526 110.89 27.4196C110.627 27.1867 110.482 26.8878 110.469 26.5273V15.3845C110.482 15.0416 110.627 14.7515 110.89 14.5185C111.159 14.2855 111.471 14.1669 111.831 14.1669H112.112V13.9339V13.9295Z" fill="#F4ECE0"/>
<path d="M118.271 13.8371C119.295 13.8371 120.394 13.9075 121.568 14.0481H122.605L122.385 16.1097C122.253 15.6877 122.016 15.3317 121.664 15.0415C121.119 14.5888 120.394 14.3602 119.515 14.3602C118.636 14.3602 117.928 14.5492 117.41 14.9273C116.869 15.3185 116.596 15.8459 116.596 16.4921C116.596 17.0328 116.86 17.4987 117.383 17.8811C117.577 18.0262 117.858 18.2108 118.218 18.4306L121.95 20.7295C123.177 21.4767 123.774 22.4789 123.774 23.7888C123.774 25.169 123.286 26.2416 122.319 26.98C121.335 27.7273 120.043 28.1097 118.469 28.1097C117.493 28.1097 116.618 27.9954 115.88 27.7668C115.172 27.5514 114.649 27.2789 114.315 26.9624C114.24 26.7119 114.201 26.4174 114.201 26.0921C114.201 25.3009 114.346 24.5976 114.632 23.991C114.675 24.9141 115.036 25.7405 115.704 26.4438C116.421 27.2042 117.432 27.5866 118.706 27.5866C119.629 27.5866 120.359 27.3668 120.869 26.9273C121.392 26.4833 121.66 25.969 121.66 25.4064C121.66 24.8437 121.502 24.4042 121.194 24.0569C120.904 23.7361 120.438 23.3668 119.801 22.9536L116.469 20.8394C115.115 19.9954 114.456 18.9492 114.456 17.6393C114.456 17.5075 114.464 17.3624 114.478 17.213C114.57 16.1492 114.966 15.3404 115.695 14.7382C116.421 14.1404 117.291 13.8371 118.275 13.8371M118.275 13.6306C117.234 13.6306 116.333 13.947 115.563 14.58C114.799 15.213 114.368 16.0833 114.271 17.1954C114.258 17.3536 114.249 17.4987 114.249 17.6393C114.249 19.0152 114.952 20.1404 116.359 21.0196L119.691 23.1295C120.315 23.5383 120.768 23.8899 121.04 24.1976C121.313 24.5053 121.449 24.9053 121.449 25.4064C121.449 25.9075 121.212 26.3602 120.733 26.769C120.253 27.1778 119.581 27.38 118.702 27.38C117.48 27.38 116.53 27.0196 115.853 26.3031C115.172 25.5822 114.834 24.747 114.834 23.7932C114.834 23.7009 114.842 23.5998 114.86 23.4899H114.671C114.218 24.2108 113.99 25.0767 113.99 26.0921C113.99 26.4657 114.038 26.7954 114.13 27.0767C114.491 27.4372 115.053 27.7317 115.818 27.969C116.588 28.202 117.471 28.3207 118.469 28.3207C120.095 28.3207 121.423 27.9295 122.447 27.147C123.471 26.3646 123.985 25.2481 123.985 23.7932C123.985 22.4174 123.344 21.3361 122.06 20.558L118.328 18.2591C117.968 18.0393 117.695 17.8591 117.506 17.7185C117.036 17.3756 116.803 16.9668 116.803 16.4965C116.803 15.9163 117.045 15.4547 117.528 15.1031C118.012 14.7514 118.675 14.5756 119.511 14.5756C120.346 14.5756 121.018 14.7866 121.528 15.2086C122.038 15.6306 122.289 16.2108 122.289 16.9448H122.5L122.829 13.8503H121.563C120.407 13.7097 119.308 13.6393 118.267 13.6393L118.275 13.6306Z" fill="#F4ECE0"/>
<path d="M131.796 13.6175L137.963 26.545C138.183 27.0373 138.482 27.4021 138.851 27.6307C138.952 27.6966 139.058 27.7494 139.163 27.7977H134.122C134.192 27.7494 134.254 27.6879 134.306 27.6175C134.473 27.3934 134.561 27.178 134.561 26.9758C134.561 26.7999 134.526 26.6109 134.451 26.3999L133.537 24.2417L133.484 24.1142H128.232L128.179 24.2417L127.238 26.4263C127.168 26.6065 127.128 26.7912 127.128 26.9846C127.128 27.1955 127.221 27.4153 127.401 27.6351C127.454 27.6966 127.511 27.7538 127.577 27.7977H124.741C124.838 27.7538 124.935 27.701 125.027 27.6439C125.388 27.4197 125.682 27.0857 125.906 26.6373L130.763 16.2197C131.317 14.9714 131.656 14.1098 131.792 13.6131M128.447 23.6131H133.256L133.133 23.323L131.067 18.4219L130.878 17.9692L130.684 18.4175L128.574 23.3186L128.451 23.6087M131.862 13.2659H131.651C131.621 13.6263 131.26 14.5802 130.574 16.1274L125.717 26.545C125.515 26.9538 125.247 27.2571 124.917 27.4593C124.588 27.6615 124.262 27.7626 123.933 27.7626H123.744V27.9955H128.434V27.7626H128.245C127.933 27.7626 127.7 27.6747 127.555 27.4945C127.405 27.3142 127.33 27.1428 127.33 26.9802C127.33 26.8175 127.361 26.6549 127.423 26.501L128.359 24.3208H133.335L134.249 26.4791C134.311 26.6505 134.341 26.8131 134.341 26.9714C134.341 27.1296 134.271 27.301 134.13 27.4857C133.99 27.6747 133.766 27.767 133.449 27.767H133.26V27.9999H140.157V27.767H139.968C139.625 27.767 139.282 27.6615 138.948 27.4505C138.61 27.2395 138.341 26.9054 138.139 26.4527L131.849 13.2659H131.862ZM128.768 23.4021L130.878 18.501L132.944 23.4021H128.768Z" fill="#F4ECE0"/>
<path d="M146.601 14.1404C150.029 14.1404 151.695 15.2173 151.695 17.4283C151.695 17.9689 151.576 18.4481 151.348 18.8481C150.895 19.6349 150.227 20.0569 149.308 20.1272V20.5448C150.302 20.6195 151.141 20.9755 151.809 21.6041C152.478 22.2327 152.798 23.0151 152.798 23.9997C152.798 25.9206 151.664 27.0986 149.33 27.5953C148.658 27.7316 147.915 27.8019 147.119 27.8019H141.313C141.423 27.7404 141.524 27.6657 141.62 27.5733C141.902 27.3008 142.056 26.9536 142.073 26.5316V15.4063C142.056 14.8261 141.792 14.3909 141.308 14.1404H146.605M144.987 27.2788H146.135C147.093 27.2788 147.884 26.9931 148.495 26.4261C149.106 25.8591 149.418 24.9711 149.418 23.7887C149.418 23.0371 149.26 22.3909 148.944 21.8766C148.491 21.103 147.783 20.6239 146.812 20.4437C147.207 20.3294 147.555 20.1316 147.849 19.8591C148.359 19.3843 148.618 18.6459 148.618 17.6656C148.618 15.6876 147.664 14.6415 145.853 14.6415H144.987V27.2788ZM146.605 13.9338H140.319V14.1667H140.579C140.75 14.1667 140.913 14.1975 141.071 14.2591C141.59 14.4656 141.853 14.8481 141.871 15.4107V26.5316C141.858 26.892 141.726 27.1865 141.484 27.4239C141.242 27.6569 140.944 27.7755 140.583 27.7755H140.324V28.0085H147.128C147.941 28.0085 148.693 27.9382 149.379 27.7975C151.805 27.2832 153.014 26.0129 153.014 23.9953C153.014 22.9624 152.662 22.114 151.959 21.4503C151.256 20.7865 150.376 20.4129 149.33 20.3382C150.315 20.2591 151.049 19.7975 151.537 18.9536C151.787 18.514 151.911 18.0085 151.911 17.4283C151.911 15.0986 150.144 13.9338 146.609 13.9338H146.605ZM145.198 27.0722V14.8481H145.853C147.559 14.8481 148.412 15.7843 148.412 17.6656C148.412 18.5887 148.179 19.27 147.708 19.7052C147.238 20.1448 146.631 20.3602 145.875 20.3602V20.5711H145.924C147.269 20.5711 148.214 21.0415 148.763 21.9777C149.058 22.4613 149.207 23.0635 149.207 23.7843C149.207 24.9096 148.922 25.7404 148.35 26.2722C147.779 26.8041 147.04 27.0722 146.135 27.0722H145.194H145.198Z" fill="#F4ECE0"/>
<path d="M164.926 13.8636V16.0306C164.825 15.7669 164.675 15.5339 164.486 15.3361C164.073 14.9054 163.493 14.6812 162.763 14.6636H159.176V20.7823H162.064C162.649 20.7647 163.132 20.5625 163.502 20.1801C163.656 20.0174 163.779 19.8328 163.871 19.635V22.4174C163.717 22.0746 163.471 21.7977 163.132 21.5955C162.816 21.4021 162.464 21.3054 162.086 21.3054H159.181V27.2834H162.209C163.225 27.2658 164.1 26.9449 164.816 26.3295C165.256 25.9515 165.625 25.4724 165.919 24.901L165.317 27.8065H155.462C155.572 27.7449 155.673 27.6702 155.77 27.5779C156.051 27.3054 156.205 26.9669 156.223 26.5581V15.3801C156.205 14.9845 156.051 14.646 155.77 14.3735C155.673 14.2812 155.572 14.2065 155.462 14.1449H162.697C163.133 14.1449 163.607 14.1054 164.113 14.0262C164.451 13.9735 164.719 13.9207 164.926 13.868M165.133 13.5867C164.926 13.6658 164.579 13.7449 164.078 13.8196C163.576 13.8988 163.115 13.9383 162.693 13.9383H154.434V14.1713H154.715C155.075 14.1713 155.374 14.29 155.616 14.5229C155.858 14.7559 155.99 15.046 156.003 15.3889V26.5581C155.99 26.901 155.858 27.1911 155.616 27.4284C155.374 27.6614 155.071 27.7801 154.715 27.7801H154.434V28.0131H165.484L166.376 23.6966H166.165C165.853 24.7603 165.357 25.5823 164.675 26.1713C163.994 26.7559 163.172 27.0592 162.201 27.0724H159.383V21.512H162.082C162.429 21.512 162.737 21.5999 163.023 21.7713C163.572 22.101 163.845 22.6328 163.845 23.3669V23.5295H164.078V18.5581H163.845V18.7207C163.845 19.2526 163.682 19.6922 163.352 20.035C163.023 20.3779 162.596 20.5581 162.06 20.5757H159.383V14.8746H162.763C163.436 14.8922 163.959 15.0944 164.333 15.4856C164.711 15.8768 164.895 16.4174 164.895 17.1032V17.3141H165.128V13.5823L165.133 13.5867Z" fill="#F4ECE0"/>
<path d="M167.361 13.8328C167.581 13.8855 167.862 13.9427 168.214 13.9954C168.728 14.0745 169.203 14.1141 169.616 14.1141H178.276C178.979 14.1141 179.564 14.0613 180.025 13.9558C180.254 13.9031 180.416 13.8635 180.531 13.8328V15.9954C180.43 15.7317 180.28 15.5031 180.091 15.3053C179.678 14.8745 179.098 14.646 178.368 14.6328H175.436V26.5581C175.454 26.9581 175.612 27.2965 175.902 27.569C175.999 27.657 176.1 27.7361 176.21 27.7932H171.7C171.81 27.7317 171.915 27.657 172.012 27.569C172.306 27.2921 172.456 26.9449 172.456 26.5273V14.6372H169.546C168.803 14.6547 168.219 14.8789 167.805 15.3097C167.616 15.5075 167.471 15.7361 167.366 15.9998V13.8328M180.742 13.5558C180.68 13.5866 180.425 13.6526 179.981 13.7536C179.533 13.8547 178.966 13.9075 178.28 13.9075H169.621C169.212 13.9075 168.759 13.8679 168.249 13.7888C167.739 13.7097 167.379 13.6306 167.159 13.5558V17.2613H167.392V17.0504C167.392 16.3778 167.581 15.846 167.955 15.4547C168.328 15.0635 168.86 14.8613 169.55 14.8438H172.249V26.5273C172.249 26.8877 172.122 27.1822 171.876 27.4196C171.625 27.6526 171.322 27.7712 170.961 27.7712H170.728V28.0042H177.203V27.7712H176.944C176.601 27.7712 176.302 27.6526 176.052 27.4196C175.801 27.1866 175.669 26.8965 175.652 26.5493V14.8438H178.372C179.045 14.8613 179.568 15.0635 179.946 15.4547C180.324 15.846 180.509 16.3778 180.509 17.0504V17.2613H180.742V13.5558Z" fill="#F4ECE0"/>
<path d="M197.018 14.1404C196.908 14.2019 196.807 14.2766 196.711 14.3689C196.421 14.6415 196.267 14.9887 196.245 15.4107V26.5624C196.267 27.125 196.513 27.5382 196.988 27.7931C196.992 27.7931 196.996 27.7975 197.001 27.8019H192.53C192.64 27.7404 192.746 27.6657 192.843 27.5777C193.137 27.3008 193.286 26.9536 193.286 26.536V21.2613H186.702V26.5448C186.719 26.958 186.878 27.3096 187.163 27.5777C187.26 27.6657 187.361 27.7448 187.471 27.8019H182.974C183.089 27.7404 183.199 27.6569 183.295 27.5602C183.585 27.2788 183.735 26.9316 183.735 26.5316V15.4107C183.735 15.0107 183.585 14.6634 183.295 14.3821C183.194 14.2854 183.089 14.2063 182.974 14.1404H187.471C187.361 14.2019 187.26 14.2766 187.163 14.3689C186.873 14.6415 186.719 14.9799 186.702 15.3887V20.7338H193.286V15.4107C193.286 14.8481 193.036 14.4217 192.544 14.1492C192.539 14.1492 192.535 14.1448 192.53 14.1404H197.023M198.007 13.9338H191.555V14.1667H191.788C192.021 14.1667 192.24 14.2239 192.443 14.3294C192.864 14.5623 193.075 14.9228 193.075 15.4107V20.5228H186.908V15.3843C186.922 15.0415 187.053 14.7514 187.304 14.5184C187.555 14.2854 187.853 14.1667 188.196 14.1667H188.456V13.9338H181.981V14.1667H182.24C182.601 14.1667 182.904 14.2898 183.155 14.5316C183.405 14.7733 183.533 15.0678 183.533 15.4107V26.5316C183.533 26.8744 183.405 27.169 183.155 27.4107C182.904 27.6525 182.601 27.7755 182.24 27.7755H181.981V28.0085H188.456V27.7755H188.196C187.853 27.7755 187.555 27.6569 187.304 27.4239C187.053 27.1909 186.922 26.892 186.908 26.5316V21.4635H193.075V26.5316C193.075 26.892 192.948 27.1865 192.697 27.4239C192.447 27.6569 192.144 27.7755 191.783 27.7755H191.55V28.0085H198.003V27.7755H197.744C197.511 27.7755 197.291 27.7228 197.089 27.6129C196.68 27.3931 196.473 27.0415 196.456 26.558V15.4151C196.473 15.0547 196.605 14.7602 196.856 14.5228C197.106 14.2898 197.405 14.1711 197.748 14.1711H198.007V13.9382V13.9338Z" fill="#F4ECE0"/>
<path d="M208.632 11.5868L215.77 23.3318L215.951 23.6307L216.126 23.3274L222.984 11.5955L224.94 26.3296C225.028 26.8307 225.252 27.2351 225.608 27.534C225.735 27.6439 225.876 27.7318 226.021 27.7978H221.159C221.239 27.745 221.309 27.6835 221.379 27.6087C221.608 27.3582 221.704 27.0725 221.665 26.7648L220.751 18.2505L220.685 17.6175L220.364 18.167L215.955 25.767C215.436 26.6329 215.137 27.4329 215.054 28.1494L209.155 18.2329L208.834 17.6966L208.768 18.3164L207.854 26.7604C207.814 27.0725 207.911 27.3582 208.14 27.6175C208.201 27.6879 208.267 27.7494 208.337 27.7978H205.656C205.806 27.7274 205.942 27.6395 206.074 27.534C206.434 27.2351 206.654 26.8307 206.72 26.3208L208.627 11.5824M223.146 11.2527H222.935L215.942 23.2175L208.671 11.2527H208.46L206.513 26.2901C206.452 26.7428 206.258 27.1032 205.937 27.367C205.616 27.6351 205.238 27.767 204.799 27.767H204.421V28H209.326V27.789H208.975C208.711 27.789 208.482 27.6835 208.293 27.4725C208.104 27.2615 208.03 27.0285 208.06 26.7824L208.975 18.3384L215.006 28.4747H215.238C215.252 27.7098 215.551 26.8395 216.131 25.8725L220.54 18.2725L221.454 26.7868C221.485 27.0373 221.41 27.2659 221.221 27.4681C221.032 27.6703 220.803 27.7802 220.54 27.7978H220.188V28.0087H227.225V27.7758H226.852C226.43 27.7758 226.056 27.6439 225.735 27.3758C225.414 27.112 225.217 26.7516 225.137 26.2989L223.142 11.2615L223.146 11.2527Z" fill="#F4ECE0"/>
<path d="M238.328 9.94268C238.662 9.94268 238.944 10.057 239.181 10.2899C239.414 10.5273 239.528 10.8042 239.528 11.1383C239.528 11.4724 239.414 11.7537 239.181 11.9866C238.944 12.224 238.667 12.3383 238.328 12.3383C237.99 12.3383 237.713 12.224 237.48 11.9866C237.243 11.7493 237.128 11.4724 237.128 11.1383C237.128 10.8042 237.243 10.5229 237.48 10.2899C237.713 10.0526 237.994 9.93829 238.328 9.93829M232.838 9.93829C233.177 9.93829 233.454 10.0526 233.687 10.2855C233.924 10.5229 234.038 10.7998 234.038 11.1339C234.038 11.468 233.924 11.7493 233.687 11.9822C233.454 12.2152 233.177 12.3295 232.838 12.3295C232.5 12.3295 232.223 12.2152 231.99 11.9778C231.757 11.7449 231.643 11.468 231.643 11.1295C231.643 10.791 231.757 10.5141 231.994 10.2811C232.227 10.0482 232.509 9.93389 232.843 9.93389M241.788 14.1317C241.722 14.1713 241.656 14.2196 241.599 14.2724C241.353 14.4877 241.216 14.7691 241.199 15.1207V22.8834C241.199 24.5053 240.702 25.7932 239.717 26.7075C238.728 27.6262 237.225 28.0921 235.247 28.0921C233.269 28.0921 231.709 27.635 230.618 26.7339C229.542 25.8416 228.992 24.5625 228.992 22.9317V15.1427C228.992 14.7998 228.86 14.5097 228.605 14.2855C228.539 14.2284 228.469 14.1757 228.399 14.1317H232.531C232.46 14.1757 232.39 14.2284 232.324 14.2855C232.078 14.5141 231.955 14.7998 231.955 15.1427V22.7691C231.955 24.2548 232.306 25.4328 232.997 26.2768C233.7 27.1383 234.698 27.5735 235.959 27.5735C237.221 27.5735 238.232 27.1647 238.966 26.3559C239.695 25.5559 240.065 24.435 240.065 23.024V15.1295C240.047 14.7778 239.911 14.4877 239.665 14.268C239.603 14.2152 239.542 14.1669 239.471 14.1273H241.783M238.328 9.71851C237.937 9.71851 237.603 9.85477 237.331 10.1273C237.058 10.3998 236.922 10.7339 236.922 11.1251C236.922 11.5163 237.058 11.8504 237.331 12.1229C237.603 12.3954 237.937 12.5317 238.328 12.5317C238.72 12.5317 239.054 12.3954 239.326 12.1229C239.599 11.8504 239.735 11.5163 239.735 11.1251C239.735 10.7339 239.599 10.3998 239.326 10.1273C239.049 9.85477 238.72 9.71851 238.328 9.71851ZM232.838 9.71851C232.447 9.71851 232.113 9.85477 231.84 10.1273C231.564 10.3998 231.432 10.7339 231.432 11.1251C231.432 11.5163 231.568 11.8504 231.84 12.1229C232.113 12.3954 232.447 12.5317 232.838 12.5317C233.229 12.5317 233.564 12.3954 233.836 12.1229C234.109 11.8504 234.245 11.5163 234.245 11.1251C234.245 10.7339 234.109 10.3998 233.836 10.1273C233.564 9.85477 233.229 9.71851 232.838 9.71851ZM242.808 13.9163H238.469V14.1493H238.777C239.071 14.1493 239.322 14.2416 239.528 14.4174C239.731 14.5976 239.84 14.835 239.858 15.1339V23.0152C239.858 24.3735 239.511 25.4416 238.812 26.2064C238.117 26.9713 237.168 27.3537 235.964 27.3537C234.759 27.3537 233.823 26.9493 233.159 26.1317C232.491 25.3185 232.161 24.1932 232.161 22.7559V15.1295C232.161 14.8482 232.262 14.6152 232.465 14.4262C232.667 14.2372 232.917 14.1449 233.216 14.1449H233.546V13.9119H227.375V14.1449H227.704C227.999 14.1449 228.258 14.2372 228.465 14.4262C228.676 14.6152 228.781 14.8482 228.781 15.1295V22.9185C228.781 24.624 229.348 25.9427 230.482 26.8834C231.616 27.8196 233.203 28.2899 235.243 28.2899C237.282 28.2899 238.821 27.8108 239.854 26.8482C240.887 25.8856 241.401 24.5625 241.401 22.8702V15.1075C241.414 14.8262 241.524 14.5932 241.731 14.4174C241.933 14.2372 242.183 14.1493 242.482 14.1493H242.812V13.9163H242.808Z" fill="#F4ECE0"/>
<path d="M249.546 14.1405C249.436 14.202 249.33 14.2768 249.234 14.3691C248.944 14.6416 248.794 14.9932 248.794 15.4108V27.279H251.818C252.834 27.2614 253.708 26.9405 254.416 26.3251C254.886 25.9119 255.278 25.3889 255.577 24.7559L254.93 27.802H245.071C245.181 27.7405 245.282 27.6658 245.379 27.5735C245.664 27.2965 245.805 26.9537 245.805 26.5537V15.4108C245.805 15.0108 245.656 14.6636 245.366 14.3823C245.264 14.2855 245.159 14.2064 245.045 14.1405H249.541M250.57 13.9339H244.047V14.1669H244.328C244.671 14.1669 244.97 14.2899 245.221 14.5317C245.471 14.7735 245.599 15.068 245.599 15.4108V26.5537C245.599 26.8965 245.475 27.1867 245.234 27.424C244.992 27.657 244.693 27.7757 244.333 27.7757H244.051V28.0086H255.102L256.021 23.6921H255.761C255.449 24.7559 254.952 25.5779 254.28 26.1669C253.607 26.7515 252.785 27.0548 251.818 27.068H249.005V15.4064C249.005 15.046 249.128 14.7515 249.379 14.5141C249.629 14.2812 249.933 14.1625 250.293 14.1625H250.574V13.9295L250.57 13.9339Z" fill="#F4ECE0"/>
<path d="M262.192 14.1405C262.082 14.202 261.977 14.2768 261.88 14.3691C261.59 14.6416 261.441 14.9932 261.441 15.4108V27.279H264.465C265.48 27.2614 266.355 26.9405 267.063 26.3251C267.533 25.9119 267.924 25.3889 268.223 24.7559L267.577 27.802H257.718C257.827 27.7405 257.929 27.6658 258.025 27.5735C258.311 27.2965 258.452 26.9537 258.452 26.5537V15.4108C258.452 15.0108 258.302 14.6636 258.012 14.3823C257.911 14.2855 257.805 14.2064 257.691 14.1405H262.188M263.216 13.9339H256.693V14.1669H256.975C257.318 14.1669 257.616 14.2899 257.867 14.5317C258.118 14.7735 258.245 15.068 258.245 15.4108V26.5537C258.245 26.8965 258.122 27.1867 257.88 27.424C257.638 27.657 257.34 27.7757 256.979 27.7757H256.698V28.0086H267.748L268.667 23.6921H268.408C268.096 24.7559 267.599 25.5779 266.926 26.1669C266.254 26.7515 265.432 27.0548 264.465 27.068H261.652V15.4064C261.652 15.046 261.775 14.7515 262.025 14.5141C262.276 14.2812 262.579 14.1625 262.94 14.1625H263.221V13.9295L263.216 13.9339Z" fill="#F4ECE0"/>
<path d="M279.836 13.8636V16.0306C279.735 15.7669 279.586 15.5339 279.397 15.3361C278.983 14.9054 278.407 14.6812 277.673 14.6636H274.087V20.7823H276.975C277.564 20.7647 278.043 20.5625 278.412 20.1801C278.566 20.0174 278.689 19.8328 278.781 19.635V22.4174C278.627 22.0746 278.381 21.7977 278.043 21.5955C277.731 21.4021 277.379 21.3054 276.997 21.3054H274.091V27.2834H277.115C278.131 27.2658 279.005 26.9449 279.726 26.3295C280.166 25.9471 280.535 25.4724 280.83 24.901L280.232 27.8065H270.377C270.487 27.7449 270.588 27.6702 270.684 27.5779C270.966 27.3054 271.12 26.9669 271.137 26.5581V15.3801C271.12 14.9845 270.97 14.646 270.684 14.3735C270.592 14.2812 270.487 14.2065 270.377 14.1449H277.612C278.047 14.1449 278.522 14.1054 279.027 14.0262C279.366 13.9735 279.634 13.9207 279.84 13.868M280.047 13.5867C279.845 13.6658 279.493 13.7449 278.992 13.8196C278.491 13.8988 278.029 13.9383 277.608 13.9383H269.348V14.1713H269.629C269.99 14.1713 270.289 14.29 270.531 14.5229C270.772 14.7559 270.904 15.046 270.917 15.3889V26.5581C270.904 26.901 270.772 27.1911 270.531 27.4284C270.289 27.6614 269.99 27.7801 269.629 27.7801H269.348V28.0131H280.399L281.291 23.6966H281.08C280.768 24.7603 280.271 25.5823 279.59 26.1713C278.909 26.7559 278.082 27.0592 277.115 27.0724H274.302V21.512H277.001C277.344 21.512 277.656 21.5999 277.937 21.7713C278.487 22.101 278.759 22.6328 278.759 23.3669V23.5295H278.992V18.5581H278.759V18.7207C278.759 19.2526 278.597 19.6922 278.267 20.035C277.937 20.3779 277.511 20.5581 276.975 20.5757H274.302V14.8746H277.678C278.35 14.8922 278.873 15.0944 279.247 15.4856C279.625 15.8768 279.81 16.4174 279.81 17.1032V17.3141H280.043V13.5823L280.047 13.5867Z" fill="#F4ECE0"/>
<path d="M289.823 14.1404C291.186 14.1404 292.346 14.4085 293.265 14.936C294.267 15.5118 294.755 16.4393 294.755 17.7799C294.755 18.6371 294.491 19.4195 293.977 20.1052C293.458 20.7953 292.707 21.1997 291.674 21.3492L290.803 21.4766L291.638 21.7536C292.03 21.8854 292.425 22.136 292.816 22.5052C293.216 22.8832 293.537 23.27 293.775 23.6525C294.28 24.5536 294.816 25.3843 295.362 26.1272C295.933 26.9008 296.381 27.3887 296.742 27.6217C296.852 27.692 296.966 27.7536 297.085 27.8019H296.113C294.852 27.8019 293.871 27.6481 293.208 27.3492C292.553 27.0547 291.955 26.4832 291.432 25.6481C290.605 24.3294 290.082 23.2744 289.876 22.492C289.678 21.9953 289.436 21.6173 289.155 21.358C289.058 21.27 288.966 21.1953 288.869 21.1338C290.302 21.1162 291.19 20.2678 291.502 18.6327C291.573 18.3777 291.603 18.158 291.603 17.9689C291.603 17.7931 291.594 17.5514 291.577 17.2437C291.559 16.914 291.454 16.5404 291.265 16.1316C291.063 15.7052 290.812 15.4063 290.491 15.2085C289.977 14.892 289.436 14.725 288.9 14.7118C288.72 14.6942 288.518 14.6854 288.293 14.6854H287.331V26.5316C287.331 26.9668 287.485 27.3228 287.788 27.5909C287.88 27.6744 287.981 27.7448 288.087 27.8019H283.616C283.726 27.7404 283.827 27.6657 283.92 27.5733C284.205 27.2964 284.346 26.9536 284.346 26.5536V15.3843C284.346 14.9843 284.201 14.6415 283.92 14.3689C283.823 14.2766 283.726 14.2019 283.616 14.1404H289.814M289.814 13.9338H282.614V14.1667H282.918C283.247 14.1667 283.529 14.2854 283.775 14.5184C284.016 14.7514 284.14 15.0415 284.14 15.3843V26.5536C284.14 26.8964 284.016 27.1865 283.775 27.4239C283.533 27.6569 283.238 27.7755 282.896 27.7755H282.614V28.0085H289.067V27.7755H288.808C288.478 27.7755 288.183 27.6613 287.929 27.4371C287.669 27.2129 287.542 26.9096 287.542 26.536V14.9008H288.293C288.513 14.9008 288.707 14.9096 288.878 14.9228C289.392 14.936 289.893 15.0942 290.377 15.3931C290.658 15.5645 290.887 15.8415 291.071 16.2283C291.252 16.6107 291.348 16.9536 291.362 17.2613C291.375 17.5645 291.388 17.8063 291.388 17.9777C291.388 18.1492 291.357 18.3558 291.291 18.5887C290.997 20.136 290.184 20.9184 288.852 20.936H288.267V21.125C288.5 21.1558 288.746 21.2876 289.005 21.525C289.265 21.758 289.485 22.114 289.674 22.5799C289.876 23.3624 290.399 24.4261 291.247 25.7711C291.792 26.6459 292.416 27.2393 293.111 27.5514C293.805 27.8635 294.803 28.0217 296.1 28.0217H298.074V27.7887C297.59 27.7887 297.177 27.6788 296.838 27.4591C296.504 27.2393 296.06 26.7602 295.515 26.0173C294.966 25.2744 294.443 24.4569 293.946 23.5646C293.696 23.1558 293.366 22.7602 292.948 22.3689C292.535 21.9777 292.113 21.714 291.691 21.5733C292.772 21.4151 293.581 20.9755 294.131 20.2459C294.68 19.5206 294.953 18.703 294.953 17.7931C294.953 16.3865 294.421 15.3755 293.357 14.7689C292.403 14.2195 291.221 13.947 289.814 13.947V13.9338Z" fill="#F4ECE0"/>
<path d="M82.4777 45.5952C81.7172 45.1776 81.1194 44.5974 80.6842 43.8633C80.2491 43.1248 80.0337 42.2985 80.0337 41.3754C80.0337 40.4523 80.2491 39.6259 80.6842 38.8919C81.1194 38.1578 81.7172 37.5776 82.4864 37.16C83.2557 36.7424 84.1128 36.5314 85.0579 36.5314C85.7963 36.5314 86.4733 36.6545 87.0886 36.9051C87.6996 37.1556 88.2271 37.5204 88.6579 38.0084L87.7788 38.8611C87.0667 38.1139 86.1788 37.7358 85.1106 37.7358C84.4073 37.7358 83.77 37.8941 83.2029 38.2106C82.6359 38.527 82.1875 38.9622 81.8667 39.5161C81.5458 40.0699 81.3875 40.6941 81.3875 41.3798C81.3875 42.0655 81.5458 42.6853 81.8667 43.2435C82.1875 43.7974 82.6315 44.2325 83.2029 44.549C83.77 44.8655 84.4073 45.0237 85.1106 45.0237C86.1656 45.0237 87.0579 44.6457 87.7788 43.8853L88.6579 44.738C88.2227 45.2259 87.6996 45.5952 87.0799 45.8501C86.4601 46.1051 85.7832 46.2281 85.0403 46.2281C84.0908 46.2281 83.2381 46.0172 82.4733 45.5996L82.4777 45.5952Z" fill="#F4ECE0"/>
<path d="M93.713 45.5952C92.9438 45.1776 92.3416 44.5974 91.9064 43.8545C91.4668 43.1161 91.2515 42.2853 91.2515 41.3754C91.2515 40.4655 91.4668 39.6391 91.9064 38.8963C92.346 38.1578 92.9438 37.5776 93.713 37.1556C94.4822 36.738 95.3438 36.527 96.302 36.527C97.2603 36.527 98.1086 36.738 98.8735 37.1556C99.6383 37.5732 100.24 38.1534 100.676 38.8875C101.111 39.6259 101.326 40.4523 101.326 41.371C101.326 42.2897 101.111 43.1205 100.676 43.8589C100.24 44.593 99.6427 45.1732 98.8735 45.5908C98.1042 46.0084 97.2471 46.2194 96.302 46.2194C95.357 46.2194 94.4822 46.0084 93.713 45.5908V45.5952ZM98.1746 44.5446C98.7284 44.2281 99.168 43.793 99.4888 43.2391C99.8097 42.6853 99.968 42.0611 99.968 41.3754C99.968 40.6897 99.8097 40.0699 99.4888 39.5117C99.168 38.9578 98.7284 38.5226 98.1746 38.2062C97.6207 37.8897 96.9921 37.7314 96.2976 37.7314C95.6031 37.7314 94.9701 37.8897 94.4075 38.2062C93.8449 38.5226 93.4009 38.9578 93.08 39.5117C92.7592 40.0655 92.6009 40.6897 92.6009 41.3754C92.6009 42.0611 92.7592 42.6809 93.08 43.2391C93.4009 43.793 93.8405 44.2281 94.4075 44.5446C94.9701 44.8611 95.6031 45.0194 96.2976 45.0194C96.9921 45.0194 97.6207 44.8611 98.1746 44.5446Z" fill="#F4ECE0"/>
<path d="M110.926 43.749H105.884L104.843 46.1182H103.449L107.744 36.6369H109.084L113.392 46.1182H111.972L110.931 43.749H110.926ZM110.451 42.6633L108.407 38.0171L106.364 42.6633H110.456H110.451Z" fill="#F4ECE0"/>
<path d="M117.963 45.5952C117.203 45.1776 116.605 44.5974 116.17 43.8633C115.735 43.1248 115.52 42.2985 115.52 41.3754C115.52 40.4523 115.735 39.6259 116.17 38.8919C116.605 38.1578 117.203 37.5776 117.972 37.16C118.742 36.7424 119.599 36.5314 120.544 36.5314C121.282 36.5314 121.959 36.6545 122.574 36.9051C123.185 37.1556 123.713 37.5204 124.144 38.0084L123.26 38.8611C122.548 38.1139 121.66 37.7358 120.592 37.7358C119.889 37.7358 119.251 37.8941 118.684 38.2106C118.117 38.527 117.669 38.9622 117.348 39.5161C117.027 40.0699 116.869 40.6941 116.869 41.3798C116.869 42.0655 117.027 42.6853 117.348 43.2435C117.669 43.7974 118.113 44.2325 118.684 44.549C119.251 44.8655 119.889 45.0237 120.592 45.0237C121.647 45.0237 122.539 44.6457 123.26 43.8853L124.144 44.738C123.709 45.2259 123.185 45.5952 122.566 45.8501C121.946 46.1051 121.269 46.2281 120.526 46.2281C119.577 46.2281 118.724 46.0172 117.959 45.5996L117.963 45.5952Z" fill="#F4ECE0"/>
<path d="M135.862 36.6369V46.1182H134.509V41.894H129.062V46.1182H127.708V36.6369H129.062V40.7116H134.509V36.6369H135.862Z" fill="#F4ECE0"/>
<path d="M140.328 36.6369H141.682V46.1182H140.328V36.6369Z" fill="#F4ECE0"/>
<path d="M154.306 36.6369V46.1182H153.194L147.506 39.0501V46.1182H146.152V36.6369H147.264L152.952 43.705V36.6369H154.306Z" fill="#F4ECE0"/>
<path d="M165.348 41.3226H166.649V45.0194C166.179 45.4062 165.634 45.7051 165.01 45.9117C164.385 46.1183 163.735 46.2238 163.058 46.2238C162.1 46.2238 161.238 46.0128 160.473 45.5952C159.704 45.1776 159.102 44.5974 158.667 43.8633C158.227 43.1248 158.012 42.2985 158.012 41.3754C158.012 40.4523 158.227 39.6259 158.667 38.8831C159.106 38.1446 159.708 37.5644 160.482 37.1512C161.256 36.7336 162.122 36.527 163.089 36.527C163.849 36.527 164.535 36.6501 165.155 36.9007C165.774 37.1512 166.297 37.5117 166.733 37.9908L165.893 38.8303C165.133 38.1007 164.218 37.7314 163.141 37.7314C162.421 37.7314 161.77 37.8853 161.199 38.1974C160.627 38.5095 160.179 38.9446 159.853 39.4985C159.528 40.0523 159.366 40.6809 159.366 41.3754C159.366 42.0699 159.528 42.6809 159.853 43.2391C160.179 43.793 160.627 44.2281 161.199 44.5446C161.774 44.8611 162.416 45.0194 163.128 45.0194C163.977 45.0194 164.719 44.8172 165.348 44.4084V41.3183V41.3226Z" fill="#F4ECE0"/>
<path d="M183.062 46.2677L181.801 45.0062C180.961 45.8193 179.906 46.2237 178.632 46.2237C177.999 46.2237 177.432 46.1182 176.926 45.9117C176.421 45.7051 176.025 45.415 175.739 45.0369C175.454 44.6633 175.313 44.2369 175.313 43.7578C175.313 43.1776 175.493 42.6677 175.849 42.2193C176.205 41.771 176.794 41.3138 177.616 40.8435C177.203 40.4303 176.909 40.0523 176.737 39.7182C176.566 39.3842 176.478 39.0369 176.478 38.6765C176.478 38.0347 176.711 37.5204 177.177 37.1336C177.643 36.7468 178.262 36.549 179.04 36.549C179.761 36.549 180.333 36.7248 180.759 37.0765C181.186 37.4281 181.397 37.9116 181.397 38.527C181.397 39.0062 181.243 39.4325 180.931 39.8149C180.618 40.193 180.1 40.593 179.379 41.0062L181.722 43.3358C181.994 42.8215 182.188 42.2457 182.302 41.6127L183.344 41.9512C183.181 42.782 182.904 43.5029 182.517 44.1182L183.792 45.3886L183.062 46.2545V46.2677ZM181.032 44.2501L178.337 41.5688C177.687 41.9292 177.234 42.2677 176.975 42.5798C176.715 42.8919 176.588 43.2435 176.588 43.6303C176.588 44.0831 176.786 44.4479 177.177 44.7248C177.572 45.0062 178.082 45.1424 178.715 45.1424C179.656 45.1424 180.425 44.8435 181.032 44.2501ZM178.047 37.8237C177.81 38.0347 177.687 38.3117 177.687 38.6545C177.687 38.9007 177.753 39.1336 177.884 39.3578C178.016 39.582 178.271 39.8897 178.649 40.2765C179.273 39.9248 179.704 39.6215 179.942 39.371C180.179 39.1204 180.302 38.8435 180.302 38.5446C180.302 38.2281 180.192 37.9732 179.968 37.7842C179.748 37.5952 179.436 37.4985 179.04 37.4985C178.614 37.4985 178.284 37.604 178.043 37.8149L178.047 37.8237Z" fill="#F4ECE0"/>
<path d="M193.981 45.5952C193.221 45.1776 192.623 44.5974 192.188 43.8633C191.752 43.1248 191.537 42.2985 191.537 41.3754C191.537 40.4523 191.752 39.6259 192.188 38.8919C192.623 38.1578 193.221 37.5776 193.99 37.16C194.759 36.7424 195.616 36.5314 196.566 36.5314C197.304 36.5314 197.981 36.6545 198.596 36.9051C199.207 37.1556 199.735 37.5204 200.166 38.0084L199.282 38.8611C198.57 38.1139 197.682 37.7358 196.614 37.7358C195.911 37.7358 195.273 37.8941 194.706 38.2106C194.139 38.527 193.691 38.9622 193.37 39.5161C193.049 40.0699 192.891 40.6941 192.891 41.3798C192.891 42.0655 193.049 42.6853 193.37 43.2435C193.691 43.7974 194.135 44.2325 194.706 44.549C195.273 44.8655 195.911 45.0237 196.614 45.0237C197.669 45.0237 198.561 44.6457 199.282 43.8853L200.166 44.738C199.731 45.2259 199.207 45.5952 198.588 45.8501C197.968 46.1051 197.291 46.2281 196.548 46.2281C195.599 46.2281 194.746 46.0172 193.981 45.5996V45.5952Z" fill="#F4ECE0"/>
<path d="M205.216 45.5952C204.447 45.1776 203.845 44.5974 203.41 43.8545C202.97 43.1161 202.755 42.2853 202.755 41.3754C202.755 40.4655 202.97 39.6391 203.41 38.8963C203.849 38.1578 204.447 37.5776 205.216 37.1556C205.986 36.738 206.847 36.527 207.805 36.527C208.764 36.527 209.612 36.738 210.377 37.1556C211.142 37.5732 211.744 38.1534 212.179 38.8875C212.614 39.6259 212.83 40.4523 212.83 41.371C212.83 42.2897 212.614 43.1205 212.179 43.8589C211.744 44.593 211.146 45.1732 210.377 45.5908C209.608 46.0084 208.75 46.2194 207.805 46.2194C206.86 46.2194 205.986 46.0084 205.216 45.5908V45.5952ZM209.678 44.5446C210.232 44.2281 210.671 43.793 210.992 43.2391C211.313 42.6853 211.471 42.0611 211.471 41.3754C211.471 40.6897 211.313 40.0699 210.992 39.5117C210.671 38.9578 210.232 38.5226 209.678 38.2062C209.124 37.8897 208.496 37.7314 207.801 37.7314C207.107 37.7314 206.478 37.8897 205.911 38.2062C205.348 38.5226 204.904 38.9578 204.583 39.5117C204.263 40.0655 204.104 40.6897 204.104 41.3754C204.104 42.0611 204.263 42.6809 204.583 43.2391C204.904 43.793 205.344 44.2281 205.911 44.5446C206.474 44.8611 207.107 45.0194 207.801 45.0194C208.496 45.0194 209.124 44.8611 209.678 44.5446Z" fill="#F4ECE0"/>
<path d="M224.68 36.6369V46.1182H223.568L217.88 39.0501V46.1182H216.526V36.6369H217.638L223.326 43.705V36.6369H224.68Z" fill="#F4ECE0"/>
<path d="M229.85 45.8941C229.186 45.6743 228.663 45.3842 228.285 45.0325L228.786 43.9776C229.146 44.3029 229.608 44.5666 230.175 44.7688C230.737 44.971 231.318 45.0721 231.915 45.0721C232.702 45.0721 233.287 44.9402 233.678 44.6721C234.065 44.404 234.258 44.0523 234.258 43.6084C234.258 43.2831 234.153 43.0194 233.937 42.8172C233.726 42.615 233.467 42.4567 233.151 42.3512C232.839 42.2413 232.399 42.1226 231.832 41.9864C231.115 41.815 230.544 41.6435 230.104 41.4721C229.665 41.3007 229.291 41.0369 228.979 40.6809C228.667 40.3248 228.513 39.8457 228.513 39.2391C228.513 38.7336 228.645 38.2765 228.913 37.8721C229.181 37.4677 229.581 37.1424 230.126 36.8963C230.667 36.6545 231.344 36.5314 232.144 36.5314C232.702 36.5314 233.256 36.6018 233.797 36.7468C234.342 36.8919 234.803 37.0985 235.195 37.371L234.746 38.4567C234.351 38.2018 233.924 38.0128 233.471 37.8809C233.019 37.749 232.579 37.6831 232.144 37.6831C231.375 37.6831 230.803 37.8237 230.417 38.1051C230.034 38.3864 229.841 38.7468 229.841 39.1864C229.841 39.5117 229.951 39.7754 230.166 39.9776C230.381 40.1798 230.654 40.338 230.975 40.4523C231.296 40.5666 231.731 40.6853 232.285 40.8128C232.997 40.9842 233.573 41.1556 234.003 41.327C234.439 41.4985 234.808 41.7622 235.12 42.1139C235.432 42.4655 235.586 42.9402 235.586 43.538C235.586 44.0347 235.45 44.4875 235.181 44.9007C234.909 45.3095 234.5 45.6347 233.946 45.8765C233.397 46.1139 232.72 46.2369 231.915 46.2369C231.203 46.2369 230.513 46.127 229.85 45.9029V45.8941Z" fill="#F4ECE0"/>
<path d="M240.161 45.1424C239.458 44.4215 239.106 43.3842 239.106 42.0259V36.6369H240.46V41.9732C240.46 44.0039 241.348 45.0193 243.128 45.0193C243.994 45.0193 244.658 44.7688 245.12 44.2677C245.581 43.7666 245.81 43.0017 245.81 41.9732V36.6369H247.124V42.0259C247.124 43.3886 246.772 44.4303 246.069 45.1468C245.366 45.8633 244.381 46.2237 243.115 46.2237C241.849 46.2237 240.865 45.8633 240.161 45.138V45.1424Z" fill="#F4ECE0"/>
<path d="M251.524 36.6369H252.878V44.9402H258.012V46.1182H251.524V36.6369Z" fill="#F4ECE0"/>
<path d="M262.197 37.8149H258.944V36.6369H266.786V37.8149H263.537V46.1182H262.197V37.8149Z" fill="#F4ECE0"/>
<path d="M269.889 36.6369H271.243V46.1182H269.889V36.6369Z" fill="#F4ECE0"/>
<path d="M283.867 36.6369V46.1182H282.755L277.067 39.0501V46.1182H275.713V36.6369H276.825L282.513 43.705V36.6369H283.867Z" fill="#F4ECE0"/>
<path d="M294.904 41.3226H296.205V45.0194C295.735 45.4062 295.19 45.7051 294.566 45.9117C293.942 46.1183 293.291 46.2238 292.614 46.2238C291.656 46.2238 290.794 46.0128 290.025 45.5952C289.256 45.1776 288.654 44.5974 288.218 43.8633C287.779 43.1248 287.563 42.2985 287.563 41.3754C287.563 40.4523 287.779 39.6259 288.218 38.8831C288.658 38.1446 289.26 37.5644 290.034 37.1512C290.807 36.7336 291.673 36.527 292.64 36.527C293.401 36.527 294.087 36.6501 294.706 36.9007C295.326 37.1512 295.849 37.5117 296.284 37.9908L295.445 38.8303C294.684 38.1007 293.77 37.7314 292.693 37.7314C291.972 37.7314 291.322 37.8853 290.75 38.1974C290.179 38.5095 289.731 38.9446 289.405 39.4985C289.08 40.0523 288.917 40.6809 288.917 41.3754C288.917 42.0699 289.08 42.6809 289.405 43.2391C289.731 43.793 290.179 44.2281 290.75 44.5446C291.326 44.8611 291.968 45.0194 292.68 45.0194C293.528 45.0194 294.271 44.8172 294.904 44.4084V41.3183V41.3226Z" fill="#F4ECE0"/>
<path d="M36.0159 20.7428C34.1742 22.5626 34.1566 25.534 35.9764 27.3758L41.7258 33.1955C44.1302 35.6351 44.1215 39.5868 41.6995 42.0087L34.3456 49.3626L7.56315 22.5802L18.5873 11.556H11.95L0.925781 22.5802L34.3456 56L45.0138 45.3274C49.2555 41.0901 49.2775 34.167 45.0665 29.8988L36.0159 20.7428Z" fill="#F4ECE0"/>
<path d="M1.42676 22.5801L12.0993 11.9075H17.7345L7.06193 22.5801L34.3455 49.8636L41.9499 42.2592C44.5081 39.7054 44.5169 35.5251 41.9763 32.9493L36.2268 27.1295C35.4136 26.3075 34.9697 25.213 34.9741 24.057C34.9785 23.0196 35.3477 22.035 36.0202 21.257L44.8114 30.1537C48.8906 34.2812 48.8686 40.9801 44.7631 45.0812L34.3455 55.5032L1.42676 22.5801Z" fill="#F4ECE0"/>
<path d="M56.7414 11.551H50.1084L61.1326 22.5795L53.6073 30.1004L56.926 33.4191L67.77 22.5795L56.7414 11.551Z" fill="#F4ECE0"/>
<path d="M54.1082 30.101L61.6335 22.5801L50.9609 11.9075H56.5961L67.2687 22.5801L56.9258 32.9185L54.1082 30.101Z" fill="#F4ECE0"/>
<path d="M30.1391 -0.00012207C29.2204 2.43504 29.7699 4.81307 31.3303 7.22186L23.7127 14.8394C19.4402 19.112 19.4402 26.0395 23.7127 30.312L32.6841 39.2834C34.5171 37.4505 34.5171 34.479 32.6841 32.6505L27.027 26.9933C24.5918 24.5537 24.5918 20.5889 27.027 18.1537L34.3413 10.8394L44.416 20.9142C46.249 22.7471 49.2204 22.7471 51.049 20.9142L37.6556 7.52076L30.1391 -0.00012207Z" fill="#F4ECE0"/>
<path d="M23.9677 30.0655C19.8402 25.938 19.8402 19.2215 23.9677 15.0941L31.7875 7.27426L31.6336 7.03251C30.1611 4.76437 29.7215 2.67206 30.2974 0.658875L50.5479 20.9094C49.7655 21.5776 48.7809 21.938 47.7435 21.938C46.5831 21.938 45.4974 21.4853 44.6754 20.6677L34.3501 10.3424L26.7853 17.9072C24.2094 20.4831 24.2094 24.6721 26.7853 27.2479L32.4424 32.9051C33.26 33.7226 33.7127 34.8127 33.7127 35.9732C33.7127 37.0149 33.3479 37.9996 32.6842 38.782L23.9721 30.0699L23.9677 30.0655Z" fill="#F4ECE0"/>
</g>
<defs>
<clipPath id="clip0_464_5166">
<rect width="297.156" height="56" fill="white" transform="translate(0.925781)"/>
</clipPath>
</defs>
</svg>
