<svg width="848" height="765" viewBox="0 0 848 765" fill="none" xmlns="http://www.w3.org/2000/svg">
<g clip-path="url(#clip0_245_135364)">
<g clip-path="url(#clip1_245_135364)">
<path fill-rule="evenodd" clip-rule="evenodd" d="M-38.4039 655.823L14.7404 747.872L-77.3082 801.016L-130.452 708.967L-38.4039 655.823ZM-34.0812 639.69L-146.585 704.645L-81.6309 817.148L30.8729 752.194L-34.0812 639.69ZM-47.0491 688.088L-17.5245 739.227L-68.6626 768.751L-98.1872 717.613L-47.0491 688.088ZM-42.7264 671.956L-114.32 713.29L-72.9853 784.884L-1.39197 743.549L-42.7264 671.956ZM-49.7905 730.581L-55.6954 720.353L-65.923 726.258L-60.0181 736.486L-49.7905 730.581ZM-82.0556 721.936L-51.3727 704.221L-33.658 734.904L-64.3408 752.618L-82.0556 721.936Z" fill="#202124"/>
<path fill-rule="evenodd" clip-rule="evenodd" d="M49.7467 714.025L80.4296 696.31L27.2853 604.262L17.0577 610.167L64.297 691.988L54.0694 697.892L6.83009 616.072L-3.39752 621.976L49.7467 714.025ZM153.606 681.336L88.6514 568.832L78.4238 574.737L137.473 677.013L45.4244 730.158L-13.6247 627.882L-23.8523 633.786L41.1017 746.29L153.606 681.336ZM121.34 672.691L90.6572 690.406L37.513 598.357L47.7406 592.452L94.9799 674.273L105.208 668.368L57.9682 586.547L68.1958 580.642L121.34 672.691Z" fill="#202124"/>
<path fill-rule="evenodd" clip-rule="evenodd" d="M569.348 291.3L579.576 285.395L644.53 397.899L634.302 403.804L569.348 291.3ZM467.071 350.35L477.299 344.445L542.253 456.949L532.025 462.853L467.071 350.35ZM559.121 297.205L548.894 303.11L613.848 415.614L624.075 409.709L559.121 297.205ZM487.527 338.54L497.755 332.635L562.709 445.139L552.481 451.044L487.527 338.54ZM538.665 309.015L568.189 360.153L537.506 377.868L507.982 326.73L518.209 320.825L541.829 361.735L552.057 355.831L528.437 314.92L538.665 309.015ZM603.618 421.519L574.094 370.381L543.411 388.095L572.936 439.234L583.163 433.329L559.544 392.418L569.771 386.513L593.391 427.424L603.618 421.519Z" fill="#202124"/>
<path fill-rule="evenodd" clip-rule="evenodd" d="M697.984 230.669L751.128 322.717L659.08 375.861L605.935 283.813L697.984 230.669ZM702.307 214.536L589.803 279.49L654.757 391.994L767.261 327.04L702.307 214.536ZM689.339 262.934L718.863 314.072L667.725 343.597L638.201 292.459L689.339 262.934ZM693.661 246.801L622.068 288.136L663.402 359.729L734.996 318.395L693.661 246.801ZM686.598 305.427L680.693 295.199L670.466 301.104L676.371 311.332L686.598 305.427ZM654.333 296.781L685.016 279.067L702.731 309.749L672.048 327.464L654.333 296.781Z" fill="#202124"/>
<path fill-rule="evenodd" clip-rule="evenodd" d="M786.133 288.871L816.816 271.156L763.672 179.107L753.444 185.012L800.684 266.833L790.456 272.738L743.217 190.917L732.989 196.822L786.133 288.871ZM889.992 256.182L825.038 143.678L814.811 149.583L873.86 251.859L781.811 305.004L722.762 202.727L712.534 208.632L777.489 321.136L889.992 256.182ZM857.727 247.536L827.044 265.251L773.9 173.203L784.127 167.298L831.367 249.119L841.594 243.214L794.355 161.393L804.583 155.488L857.727 247.536Z" fill="#202124"/>
<path fill-rule="evenodd" clip-rule="evenodd" d="M201.154 503.877L211.382 497.972L276.336 610.476L266.108 616.38L201.154 503.877ZM98.8781 562.926L109.106 557.021L174.06 669.525L163.832 675.43L98.8781 562.926ZM190.927 509.782L180.699 515.687L245.653 628.19L255.881 622.285L190.927 509.782ZM119.334 551.116L129.562 545.211L194.516 657.715L184.288 663.62L119.334 551.116ZM170.472 521.591L199.996 572.729L169.313 590.444L139.789 539.306L150.016 533.401L173.636 574.312L183.864 568.407L160.244 527.496L170.472 521.591ZM235.425 634.095L205.901 582.957L175.218 600.672L204.742 651.81L214.97 645.905L191.35 604.994L201.578 599.09L225.198 640L235.425 634.095Z" fill="#202124"/>
<path fill-rule="evenodd" clip-rule="evenodd" d="M329.79 443.246L382.935 535.294L290.886 588.439L237.742 496.39L329.79 443.246ZM334.113 427.113L221.609 492.067L286.563 604.571L399.067 539.617L334.113 427.113ZM321.145 475.511L350.67 526.649L299.532 556.174L270.007 505.036L321.145 475.511ZM325.468 459.379L253.875 500.713L295.209 572.306L366.802 530.972L325.468 459.379ZM318.404 518.004L312.499 507.776L302.271 513.681L308.176 523.909L318.404 518.004ZM286.139 509.358L316.822 491.644L334.536 522.326L303.853 540.041L286.139 509.358Z" fill="#202124"/>
<path fill-rule="evenodd" clip-rule="evenodd" d="M417.941 501.447L448.624 483.732L395.48 391.684L385.252 397.589L432.491 479.409L422.264 485.314L375.024 403.493L364.797 409.398L417.941 501.447ZM521.8 468.758L456.846 356.254L446.618 362.159L505.667 464.435L413.619 517.579L354.57 415.303L344.342 421.208L409.296 533.712L521.8 468.758ZM489.534 460.113L458.851 477.827L405.707 385.779L415.935 379.874L463.174 461.695L473.402 455.79L426.162 373.969L436.39 368.064L489.534 460.113Z" fill="#202124"/>
<path fill-rule="evenodd" clip-rule="evenodd" d="M906.858 96.4385L936.383 147.577L905.7 165.291L876.175 114.153L886.403 108.248L910.023 149.159L920.25 143.254L896.631 102.343L906.858 96.4385ZM927.313 84.6288L917.086 90.5337L982.04 203.037L992.268 197.133L927.313 84.6288ZM835.266 137.773L845.493 131.868L910.448 244.372L900.22 250.277L835.266 137.773ZM937.542 78.7241L947.769 72.8192L1012.72 185.323L1002.5 191.228L937.542 78.7241ZM855.721 125.963L865.948 120.058L930.902 232.562L920.675 238.467L855.721 125.963ZM971.813 208.942L942.288 157.804L911.605 175.519L941.13 226.657L951.358 220.752L927.738 179.842L937.966 173.937L961.585 214.847L971.813 208.942Z" fill="#202124"/>
<path fill-rule="evenodd" clip-rule="evenodd" d="M715.813 615.843L745.338 666.981L714.655 684.696L685.13 633.558L695.358 627.653L718.978 668.564L729.205 662.659L705.586 621.748L715.813 615.843ZM644.22 657.178L654.447 651.273L719.401 763.777L709.174 769.682L644.22 657.178ZM746.497 598.128L756.724 592.223L821.678 704.727L811.451 710.632L746.497 598.128ZM736.27 604.033L726.042 609.938L790.996 722.442L801.224 716.537L736.27 604.033ZM664.676 645.368L674.903 639.463L739.857 751.967L729.63 757.872L664.676 645.368ZM780.767 728.347L751.242 677.209L720.559 694.924L750.084 746.062L760.312 740.157L736.692 699.246L746.92 693.341L770.539 734.252L780.767 728.347Z" fill="#202124"/>
<path fill-rule="evenodd" clip-rule="evenodd" d="M875.133 537.497L928.277 629.545L836.229 682.69L783.085 590.641L875.133 537.497ZM879.456 521.364L766.952 586.318L831.906 698.822L944.41 633.868L879.456 521.364ZM866.488 569.762L896.013 620.9L844.875 650.425L815.35 599.287L866.488 569.762ZM870.811 553.63L799.217 594.964L840.552 666.557L912.145 625.223L870.811 553.63ZM863.748 612.255L857.843 602.027L847.615 607.932L853.52 618.16L863.748 612.255ZM831.482 603.61L862.165 585.895L879.88 616.578L849.197 634.292L831.482 603.61Z" fill="#202124"/>
<path fill-rule="evenodd" clip-rule="evenodd" d="M506.938 750.075L560.082 842.123L468.034 895.268L414.889 803.219L506.938 750.075ZM511.261 733.942L398.757 798.896L463.711 911.4L576.215 846.446L511.261 733.942ZM498.293 782.34L527.817 833.479L476.679 863.003L447.155 811.865L498.293 782.34ZM502.615 766.208L431.022 807.542L472.356 879.136L543.95 837.801L502.615 766.208ZM495.552 824.833L489.647 814.606L479.42 820.511L485.325 830.738L495.552 824.833ZM463.287 816.188L493.97 798.473L511.685 829.156L481.002 846.871L463.287 816.188Z" fill="#202124"/>
<path fill-rule="evenodd" clip-rule="evenodd" d="M595.089 808.276L625.771 790.561L572.627 698.513L562.4 704.418L609.639 786.238L599.411 792.143L552.172 710.322L541.944 716.227L595.089 808.276ZM698.947 775.587L633.993 663.084L623.766 668.988L682.815 771.265L590.766 824.409L531.717 722.133L521.49 728.038L586.444 840.541L698.947 775.587ZM666.682 766.942L635.999 784.656L582.855 692.608L593.082 686.703L640.322 768.524L650.549 762.619L603.31 680.798L613.538 674.893L666.682 766.942Z" fill="#202124"/>
<path fill-rule="evenodd" clip-rule="evenodd" d="M361.517 2.18602L391.042 53.3241L360.359 71.0389L330.834 19.9008L341.062 13.9959L364.682 54.9063L374.909 49.0014L351.29 8.09093L361.517 2.18602ZM289.924 43.5205L300.151 37.6156L365.106 150.119L354.878 156.024L289.924 43.5205ZM392.201 -15.5291L402.428 -21.434L467.383 91.0698L457.155 96.9747L392.201 -15.5291ZM381.974 -9.62416L371.746 -3.71924L436.7 108.785L446.928 102.88L381.974 -9.62416ZM310.38 31.7107L320.607 25.8058L385.561 138.31L375.334 144.214L310.38 31.7107ZM426.471 114.69L396.946 63.5517L366.264 81.2664L395.788 132.404L406.016 126.5L382.396 85.5891L392.624 79.6842L416.243 120.595L426.471 114.69Z" fill="#202124"/>
<path fill-rule="evenodd" clip-rule="evenodd" d="M520.836 -76.1604L573.981 15.8881L481.932 69.0324L428.788 -23.0162L520.836 -76.1604ZM525.159 -92.293L412.655 -27.3389L477.609 85.1649L590.113 20.2108L525.159 -92.293ZM512.191 -43.895L541.716 7.24305L490.578 36.7676L461.053 -14.3705L512.191 -43.895ZM516.514 -60.0276L444.921 -18.6932L486.255 52.9002L557.848 11.5657L516.514 -60.0276ZM509.451 -1.40228L503.546 -11.6299L493.318 -5.72498L499.223 4.50264L509.451 -1.40228ZM477.186 -10.0477L507.868 -27.7624L525.583 2.92042L494.9 20.6352L477.186 -10.0477Z" fill="#202124"/>
<path fill-rule="evenodd" clip-rule="evenodd" d="M608.986 -17.9584L639.669 -35.6732L586.525 -127.722L576.297 -121.817L623.536 -39.9959L613.309 -34.091L566.069 -115.912L555.842 -110.007L608.986 -17.9584ZM712.845 -50.6471L647.891 -163.151L637.663 -157.246L696.712 -54.9698L604.664 -1.82559L545.615 -104.102L535.387 -98.1968L600.341 14.3069L712.845 -50.6471ZM680.579 -59.2927L649.897 -41.578L596.752 -133.627L606.98 -139.531L654.219 -57.7105L664.447 -63.6154L617.207 -145.436L627.435 -151.341L680.579 -59.2927Z" fill="#202124"/>
<path fill-rule="evenodd" clip-rule="evenodd" d="M24.0064 197.048L34.234 191.143L99.1881 303.647L88.9605 309.551L24.0064 197.048ZM-78.2695 256.097L-68.0419 250.192L-3.08777 362.696L-13.3154 368.601L-78.2695 256.097ZM13.7793 202.953L3.55163 208.858L68.5057 321.361L78.7333 315.456L13.7793 202.953ZM-57.8136 244.287L-47.586 238.382L17.3681 350.886L7.14047 356.791L-57.8136 244.287ZM-6.67602 214.762L22.8486 265.9L-7.83428 283.615L-37.3589 232.477L-27.1313 226.572L-3.51158 267.483L6.71603 261.578L-16.9036 220.667L-6.67602 214.762ZM58.2777 327.266L28.7531 276.128L-1.92975 293.843L27.5948 344.981L37.8224 339.076L14.2028 298.165L24.4304 292.26L48.0501 333.171L58.2777 327.266Z" fill="#202124"/>
<path fill-rule="evenodd" clip-rule="evenodd" d="M152.643 136.417L205.787 228.465L113.739 281.61L60.5944 189.561L152.643 136.417ZM156.966 120.284L44.4619 185.238L109.416 297.742L221.92 232.788L156.966 120.284ZM143.998 168.682L173.522 219.82L122.384 249.345L92.8597 198.207L143.998 168.682ZM148.32 152.55L76.7272 193.884L118.062 265.477L189.655 224.143L148.32 152.55ZM141.257 211.175L135.352 200.947L125.125 206.852L131.03 217.08L141.257 211.175ZM108.992 202.53L139.675 184.815L157.39 215.498L126.707 233.212L108.992 202.53Z" fill="#202124"/>
<path fill-rule="evenodd" clip-rule="evenodd" d="M240.794 194.618L271.476 176.903L218.332 84.8544L208.105 90.7593L255.344 172.58L245.116 178.485L197.877 96.6643L187.649 102.569L240.794 194.618ZM344.652 161.929L279.698 49.4253L269.471 55.3302L328.52 157.606L236.471 210.751L177.422 108.474L167.195 114.379L232.149 226.883L344.652 161.929ZM312.387 153.283L281.704 170.998L228.56 78.9497L238.787 73.0448L286.027 154.866L296.254 148.961L249.015 67.1399L259.243 61.235L312.387 153.283Z" fill="#202124"/>
<path fill-rule="evenodd" clip-rule="evenodd" d="M361.517 2.18602L391.042 53.3241L360.359 71.0389L330.834 19.9008L341.062 13.9959L364.682 54.9063L374.909 49.0014L351.29 8.09093L361.517 2.18602ZM289.924 43.5205L300.151 37.6156L365.106 150.119L354.878 156.024L289.924 43.5205ZM392.201 -15.5291L402.428 -21.434L467.383 91.0698L457.155 96.9747L392.201 -15.5291ZM381.974 -9.62416L371.746 -3.71924L436.7 108.785L446.928 102.88L381.974 -9.62416ZM310.38 31.7107L320.607 25.8058L385.561 138.31L375.334 144.214L310.38 31.7107ZM426.471 114.69L396.946 63.5517L366.264 81.2664L395.788 132.404L406.016 126.5L382.396 85.5891L392.624 79.6842L416.243 120.595L426.471 114.69Z" fill="#202124"/>
<path fill-rule="evenodd" clip-rule="evenodd" d="M520.836 -76.1604L573.981 15.8881L481.932 69.0324L428.788 -23.0162L520.836 -76.1604ZM525.159 -92.293L412.655 -27.3389L477.609 85.1649L590.113 20.2108L525.159 -92.293ZM512.191 -43.895L541.716 7.24305L490.578 36.7676L461.053 -14.3705L512.191 -43.895ZM516.514 -60.0276L444.921 -18.6932L486.255 52.9002L557.848 11.5657L516.514 -60.0276ZM509.451 -1.40228L503.546 -11.6299L493.318 -5.72498L499.223 4.50264L509.451 -1.40228ZM477.186 -10.0477L507.868 -27.7624L525.583 2.92042L494.9 20.6352L477.186 -10.0477Z" fill="#202124"/>
<path fill-rule="evenodd" clip-rule="evenodd" d="M608.986 -17.9584L639.669 -35.6732L586.525 -127.722L576.297 -121.817L623.536 -39.9959L613.309 -34.091L566.069 -115.912L555.842 -110.007L608.986 -17.9584ZM712.845 -50.6471L647.891 -163.151L637.663 -157.246L696.712 -54.9698L604.664 -1.82559L545.615 -104.102L535.387 -98.1968L600.341 14.3069L712.845 -50.6471ZM680.579 -59.2927L649.897 -41.578L596.752 -133.627L606.98 -139.531L654.219 -57.7105L664.447 -63.6154L617.207 -145.436L627.435 -151.341L680.579 -59.2927Z" fill="#202124"/>
<path fill-rule="evenodd" clip-rule="evenodd" d="M24.0064 197.048L34.234 191.143L99.1881 303.647L88.9605 309.551L24.0064 197.048ZM-78.2695 256.097L-68.0419 250.192L-3.08777 362.696L-13.3154 368.601L-78.2695 256.097ZM13.7793 202.953L3.55163 208.858L68.5057 321.361L78.7333 315.456L13.7793 202.953ZM-57.8136 244.287L-47.586 238.382L17.3681 350.886L7.14047 356.791L-57.8136 244.287ZM-6.67602 214.762L22.8486 265.9L-7.83428 283.615L-37.3589 232.477L-27.1313 226.572L-3.51158 267.483L6.71603 261.578L-16.9036 220.667L-6.67602 214.762ZM58.2777 327.266L28.7531 276.128L-1.92975 293.843L27.5948 344.981L37.8224 339.076L14.2028 298.165L24.4304 292.26L48.0501 333.171L58.2777 327.266Z" fill="#202124"/>
<path fill-rule="evenodd" clip-rule="evenodd" d="M152.643 136.417L205.787 228.465L113.739 281.61L60.5944 189.561L152.643 136.417ZM156.966 120.284L44.4619 185.238L109.416 297.742L221.92 232.788L156.966 120.284ZM143.998 168.682L173.522 219.82L122.384 249.345L92.8597 198.207L143.998 168.682ZM148.32 152.55L76.7272 193.884L118.062 265.477L189.655 224.143L148.32 152.55ZM141.257 211.175L135.352 200.947L125.125 206.852L131.03 217.08L141.257 211.175ZM108.992 202.53L139.675 184.815L157.39 215.498L126.707 233.212L108.992 202.53Z" fill="#202124"/>
<path fill-rule="evenodd" clip-rule="evenodd" d="M240.794 194.618L271.476 176.903L218.332 84.8544L208.105 90.7593L255.344 172.58L245.116 178.485L197.877 96.6643L187.649 102.569L240.794 194.618ZM344.652 161.929L279.698 49.4253L269.471 55.3302L328.52 157.606L236.471 210.751L177.422 108.474L167.195 114.379L232.149 226.883L344.652 161.929ZM312.387 153.283L281.704 170.998L228.56 78.9497L238.787 73.0448L286.027 154.866L296.254 148.961L249.015 67.1399L259.243 61.235L312.387 153.283Z" fill="#202124"/>
<path fill-rule="evenodd" clip-rule="evenodd" d="M-47.276 -20.8967L5.8683 71.1518L-86.1802 124.296L-139.324 32.2475L-47.276 -20.8967ZM-42.9532 -37.0293L-155.457 27.9248L-90.5029 140.429L22.0008 75.4745L-42.9532 -37.0293ZM-55.9211 11.3686L-26.3965 62.5067L-77.5346 92.0313L-107.059 40.8932L-55.9211 11.3686ZM-51.5984 -4.76391L-123.192 36.5705L-81.8573 108.164L-10.264 66.8294L-51.5984 -4.76391ZM-58.6616 53.8614L-64.5665 43.6338L-74.7941 49.5387L-68.8892 59.7663L-58.6616 53.8614ZM-90.9266 45.216L-60.2438 27.5012L-42.529 58.1841L-73.2119 75.8988L-90.9266 45.216Z" fill="#202124"/>
<path fill-rule="evenodd" clip-rule="evenodd" d="M40.8736 37.3053L71.5564 19.5906L18.4122 -72.458L8.18457 -66.5531L55.4239 15.2678L45.1963 21.1728L-2.04305 -60.6482L-12.2707 -54.7432L40.8736 37.3053ZM144.732 4.61637L79.7784 -107.887L69.5507 -101.982L128.6 0.293679L36.5514 53.4379L-22.4978 -48.8382L-32.7254 -42.9333L32.2287 69.5705L144.732 4.61637ZM112.468 -4.02953L81.7853 13.6852L28.641 -78.3633L38.8687 -84.2682L86.108 -2.4473L96.3356 -8.35222L49.0963 -90.1732L59.3239 -96.0781L112.468 -4.02953Z" fill="#202124"/>
<path fill-rule="evenodd" clip-rule="evenodd" d="M26.9754 863.539L57.6582 845.824L4.51396 753.775L-5.71366 759.68L41.5257 841.501L31.2981 847.406L-15.9413 765.585L-26.1689 771.49L26.9754 863.539ZM130.834 830.85L65.88 718.346L55.6524 724.251L114.702 826.527L22.653 879.672L-36.3961 777.395L-46.6237 783.3L18.3303 895.804L130.834 830.85ZM98.5687 822.204L67.8858 839.919L14.7416 747.871L24.9692 741.966L72.2085 823.787L82.4362 817.882L35.1968 736.061L45.4244 730.156L98.5687 822.204Z" fill="#202124"/>
<path fill-rule="evenodd" clip-rule="evenodd" d="M546.577 440.815L556.804 434.91L621.759 547.414L611.531 553.319L546.577 440.815ZM444.301 499.865L454.529 493.96L519.483 606.463L509.255 612.368L444.301 499.865ZM536.35 446.72L526.122 452.625L591.076 565.129L601.304 559.224L536.35 446.72ZM464.757 488.054L474.984 482.15L539.939 594.653L529.711 600.558L464.757 488.054ZM515.894 458.53L545.419 509.668L514.736 527.383L485.212 476.245L495.439 470.34L519.059 511.25L529.287 505.345L505.667 464.435L515.894 458.53ZM580.849 571.034L551.325 519.896L520.642 537.61L550.166 588.749L560.394 582.844L536.774 541.933L547.002 536.028L570.622 576.939L580.849 571.034Z" fill="#202124"/>
<path fill-rule="evenodd" clip-rule="evenodd" d="M675.212 380.184L728.357 472.233L636.308 525.377L583.164 433.329L675.212 380.184ZM679.535 364.052L567.031 429.006L631.985 541.51L744.489 476.556L679.535 364.052ZM666.567 412.45L696.092 463.588L644.954 493.112L615.429 441.974L666.567 412.45ZM670.89 396.317L599.296 437.652L640.631 509.245L712.224 467.91L670.89 396.317ZM663.827 454.942L657.922 444.714L647.694 450.619L653.599 460.847L663.827 454.942ZM631.562 446.296L662.245 428.581L679.959 459.264L649.277 476.979L631.562 446.296Z" fill="#202124"/>
<path fill-rule="evenodd" clip-rule="evenodd" d="M834.956 397.051L804.273 414.766L751.129 322.717L761.357 316.812L808.596 398.633L818.824 392.728L771.584 310.907L781.812 305.002L834.956 397.051ZM867.222 405.697L802.268 293.193L792.04 299.098L851.089 401.374L759.041 454.518L699.991 352.242L689.764 358.147L754.718 470.651L867.222 405.697ZM763.364 438.385L794.047 420.671L740.903 328.622L730.675 334.527L777.914 416.348L767.687 422.253L720.447 340.432L710.22 346.337L763.364 438.385Z" fill="#202124"/>
<path fill-rule="evenodd" clip-rule="evenodd" d="M147.701 671.107L177.225 722.245L146.543 739.96L117.018 688.822L127.246 682.917L150.865 723.827L161.093 717.922L137.473 677.012L147.701 671.107ZM76.1075 712.441L86.3351 706.537L151.289 819.04L141.062 824.945L76.1075 712.441ZM178.384 653.392L188.612 647.487L253.566 759.991L243.339 765.896L178.384 653.392ZM168.157 659.297L157.93 665.202L222.884 777.705L233.111 771.801L168.157 659.297ZM96.5633 700.632L106.791 694.727L171.745 807.231L161.517 813.135L96.5633 700.632ZM212.655 783.611L183.13 732.473L152.447 750.187L181.972 801.325L192.199 795.421L168.58 754.51L178.807 748.605L202.427 789.516L212.655 783.611Z" fill="#202124"/>
<path fill-rule="evenodd" clip-rule="evenodd" d="M307.021 592.76L360.165 684.809L268.117 737.953L214.972 645.905L307.021 592.76ZM311.344 576.628L198.84 641.582L263.794 754.086L376.298 689.132L311.344 576.628ZM298.376 625.026L327.9 676.164L276.762 705.689L247.238 654.55L298.376 625.026ZM302.698 608.893L231.105 650.228L272.44 721.821L344.033 680.487L302.698 608.893ZM295.635 667.519L289.73 657.291L279.503 663.196L285.408 673.424L295.635 667.519ZM263.37 658.873L294.053 641.159L311.768 671.841L281.085 689.556L263.37 658.873Z" fill="#202124"/>
<path fill-rule="evenodd" clip-rule="evenodd" d="M395.171 650.962L425.853 633.248L372.709 541.199L362.482 547.104L409.721 628.925L399.493 634.83L352.254 553.009L342.026 558.914L395.171 650.962ZM499.029 618.274L434.075 505.77L423.848 511.675L482.897 613.951L390.848 667.095L331.799 564.819L321.572 570.724L386.526 683.228L499.029 618.274ZM466.765 609.628L436.082 627.342L382.938 535.294L393.166 529.389L440.405 611.21L450.633 605.305L403.393 523.484L413.621 517.579L466.765 609.628Z" fill="#202124"/>
<path fill-rule="evenodd" clip-rule="evenodd" d="M914.77 228.238L924.998 222.333L989.952 334.837L979.724 340.742L914.77 228.238ZM812.494 287.287L822.722 281.383L887.676 393.886L877.448 399.791L812.494 287.287ZM904.543 234.143L894.315 240.048L959.27 352.552L969.497 346.647L904.543 234.143ZM832.949 275.478L843.177 269.573L908.131 382.077L897.903 387.982L832.949 275.478ZM884.088 245.953L913.612 297.091L882.93 314.805L853.405 263.667L863.633 257.762L887.252 298.673L897.48 292.768L873.86 251.858L884.088 245.953ZM949.042 358.457L919.518 307.319L888.835 325.033L918.36 376.171L928.587 370.266L904.968 329.356L915.195 323.451L938.815 364.362L949.042 358.457Z" fill="#202124"/>
<path fill-rule="evenodd" clip-rule="evenodd" d="M723.723 747.644L733.951 741.739L798.905 854.243L788.677 860.148L723.723 747.644ZM621.447 806.694L631.675 800.789L696.629 913.293L686.402 919.197L621.447 806.694ZM713.496 753.549L703.269 759.454L768.223 871.958L778.45 866.053L713.496 753.549ZM641.903 794.884L652.131 788.979L717.085 901.482L706.857 907.387L641.903 794.884ZM693.041 765.359L722.566 816.497L691.883 834.212L662.358 783.074L672.586 777.169L696.205 818.079L706.433 812.174L682.813 771.264L693.041 765.359ZM757.996 877.863L728.471 826.725L697.788 844.44L727.313 895.578L737.54 889.673L713.921 848.762L724.148 842.857L747.768 883.768L757.996 877.863Z" fill="#202124"/>
<path fill-rule="evenodd" clip-rule="evenodd" d="M852.359 687.013L905.503 779.062L813.455 832.206L760.31 740.158L852.359 687.013ZM856.682 670.881L744.178 735.835L809.132 848.339L921.636 783.385L856.682 670.881ZM843.714 719.279L873.238 770.417L822.1 799.941L792.576 748.803L843.714 719.279ZM848.036 703.146L776.443 744.481L817.777 816.074L889.371 774.739L848.036 703.146ZM840.973 761.771L835.068 751.543L824.841 757.448L830.746 767.676L840.973 761.771ZM808.708 753.125L839.391 735.411L857.106 766.093L826.423 783.808L808.708 753.125Z" fill="#202124"/>
<path fill-rule="evenodd" clip-rule="evenodd" d="M369.429 133.987L379.657 128.082L444.611 240.586L434.383 246.491L369.429 133.987ZM267.153 193.036L277.381 187.131L342.335 299.635L332.108 305.54L267.153 193.036ZM359.202 139.892L348.975 145.797L413.929 258.301L424.156 252.396L359.202 139.892ZM287.609 181.226L297.837 175.321L362.791 287.825L352.563 293.73L287.609 181.226ZM338.747 151.702L368.272 202.84L337.589 220.555L308.064 169.416L318.292 163.512L341.911 204.422L352.139 198.517L328.519 157.607L338.747 151.702ZM403.702 264.206L374.177 213.068L343.494 230.782L373.019 281.92L383.246 276.016L359.627 235.105L369.854 229.2L393.474 270.111L403.702 264.206Z" fill="#202124"/>
<path fill-rule="evenodd" clip-rule="evenodd" d="M498.065 73.3562L551.209 165.405L459.161 218.549L406.016 126.5L498.065 73.3562ZM502.388 57.2236L389.884 122.178L454.838 234.682L567.342 169.727L502.388 57.2236ZM489.42 105.621L518.944 156.76L467.806 186.284L438.282 135.146L489.42 105.621ZM493.742 89.489L422.149 130.823L463.483 202.417L535.077 161.082L493.742 89.489ZM486.679 148.114L480.774 137.886L470.547 143.791L476.452 154.018L486.679 148.114ZM454.414 139.468L485.097 121.753L502.812 152.436L472.129 170.151L454.414 139.468Z" fill="#202124"/>
<path fill-rule="evenodd" clip-rule="evenodd" d="M657.81 90.2227L627.127 107.937L573.983 15.8889L584.21 9.98402L631.45 91.805L641.677 85.9L594.438 4.07911L604.666 -1.82581L657.81 90.2227ZM690.075 98.8682L625.121 -13.6356L614.893 -7.7307L673.943 94.5455L581.894 147.69L522.845 45.4135L512.617 51.3185L577.571 163.822L690.075 98.8682ZM586.217 131.557L616.9 113.843L563.756 21.794L553.528 27.6989L600.768 109.52L590.54 115.425L543.301 33.6038L533.073 39.5087L586.217 131.557Z" fill="#202124"/>
<path fill-rule="evenodd" clip-rule="evenodd" d="M-101.04 405.613L-90.8124 399.708L-25.8583 512.212L-36.086 518.117L-101.04 405.613ZM1.23697 346.564L11.4646 340.659L76.4187 453.162L66.1911 459.067L1.23697 346.564ZM-8.99016 352.469L-19.2178 358.373L45.7363 470.877L55.9639 464.972L-8.99016 352.469ZM-80.5842 393.803L-70.3566 387.899L-5.40253 500.402L-15.6301 506.307L-80.5842 393.803ZM-29.4466 364.279L0.0779438 415.417L-30.6049 433.132L-60.1295 381.994L-49.9019 376.089L-26.2822 416.999L-16.0546 411.094L-39.6743 370.184L-29.4466 364.279ZM35.5071 476.782L5.98247 425.644L-24.7004 443.359L4.82421 494.497L15.0518 488.592L-8.56784 447.682L1.65977 441.777L25.2794 482.687L35.5071 476.782Z" fill="#202124"/>
<path fill-rule="evenodd" clip-rule="evenodd" d="M129.872 285.932L183.017 377.981L90.9682 431.125L37.8239 339.077L129.872 285.932ZM134.195 269.8L21.6914 334.754L86.6455 447.258L199.149 382.304L134.195 269.8ZM121.227 318.198L150.752 369.336L99.6138 398.86L70.0892 347.722L121.227 318.198ZM125.55 302.065L53.9567 343.4L95.2911 414.993L166.884 373.659L125.55 302.065ZM118.487 360.69L112.582 350.463L102.354 356.368L108.259 366.595L118.487 360.69ZM86.2218 352.045L116.905 334.33L134.619 365.013L103.937 382.728L86.2218 352.045Z" fill="#202124"/>
<path fill-rule="evenodd" clip-rule="evenodd" d="M218.022 344.134L248.705 326.42L195.561 234.371L185.333 240.276L232.572 322.097L222.345 328.002L175.106 246.181L164.878 252.086L218.022 344.134ZM321.881 311.446L256.927 198.942L246.699 204.847L305.748 307.123L213.7 360.267L154.651 257.991L144.423 263.896L209.377 376.4L321.881 311.446ZM289.617 302.799L258.934 320.514L205.79 228.466L216.017 222.561L263.257 304.382L273.484 298.477L226.245 216.656L236.472 210.751L289.617 302.799Z" fill="#202124"/>
<path fill-rule="evenodd" clip-rule="evenodd" d="M737.623 -78.5901L747.85 -84.495L812.804 28.0088L802.577 33.9137L737.623 -78.5901ZM635.347 -19.5407L645.574 -25.4456L710.529 87.0581L700.301 92.9631L635.347 -19.5407ZM727.396 -72.6851L717.168 -66.7802L782.122 45.7236L792.35 39.8186L727.396 -72.6851ZM655.802 -31.3503L666.029 -37.2552L730.983 75.2486L720.756 81.1535L655.802 -31.3503ZM706.94 -60.8754L736.465 -9.73735L705.782 7.9774L676.257 -43.1607L686.485 -49.0656L710.105 -8.15513L720.332 -14.06L696.713 -54.9705L706.94 -60.8754ZM771.895 51.6285L742.37 0.490399L711.688 18.2051L741.212 69.3432L751.44 63.4383L727.82 22.5279L738.048 16.6229L761.667 57.5334L771.895 51.6285Z" fill="#202124"/>
<path fill-rule="evenodd" clip-rule="evenodd" d="M866.259 -139.221L919.403 -47.1724L827.355 5.97183L774.211 -86.0767L866.259 -139.221ZM870.582 -155.354L758.078 -90.3994L823.032 22.1044L935.536 -42.8497L870.582 -155.354ZM857.614 -106.956L887.139 -55.8177L836.001 -26.2931L806.476 -77.4312L857.614 -106.956ZM861.937 -123.088L790.343 -81.7539L831.678 -10.1606L903.271 -51.495L861.937 -123.088ZM854.874 -64.463L848.969 -74.6906L838.741 -68.7857L844.646 -58.5581L854.874 -64.463ZM822.609 -73.1084L853.291 -90.8231L871.006 -60.1403L840.323 -42.4255L822.609 -73.1084Z" fill="#202124"/>
<path fill-rule="evenodd" clip-rule="evenodd" d="M210.42 -46.9454L220.647 -52.8503L285.601 59.6535L275.374 65.5584L210.42 -46.9454ZM292.241 -94.1845L302.468 -100.089L367.422 12.4144L357.195 18.3193L292.241 -94.1845ZM189.965 -35.1355L200.193 -41.0404L265.147 71.4634L254.919 77.3683L189.965 -35.1355ZM282.014 -88.2795L271.786 -82.3745L336.74 30.1292L346.968 24.2243L282.014 -88.2795ZM261.558 -76.4698L291.083 -25.3317L260.4 -7.61699L230.876 -58.7551L241.103 -64.66L264.723 -23.7495L274.95 -29.6544L251.331 -70.5649L261.558 -76.4698ZM326.512 36.0338L296.988 -15.1043L266.305 2.6105L295.829 53.7486L306.057 47.8437L282.437 6.9332L292.665 1.02828L316.284 41.9387L326.512 36.0338Z" fill="#202124"/>
<path fill-rule="evenodd" clip-rule="evenodd" d="M420.877 -154.817L474.022 -62.7681L381.973 -9.62387L328.829 -101.672L420.877 -154.817ZM425.2 -170.949L312.696 -105.995L377.65 6.50867L490.154 -58.4454L425.2 -170.949ZM412.232 -122.552L441.757 -71.4136L390.619 -41.889L361.094 -93.0271L412.232 -122.552ZM416.555 -138.684L344.962 -97.3498L386.296 -25.7565L457.889 -67.0909L416.555 -138.684ZM409.492 -80.0589L403.587 -90.2865L393.359 -84.3816L399.264 -74.154L409.492 -80.0589ZM377.227 -88.7043L407.91 -106.419L425.624 -75.7362L394.942 -58.0214L377.227 -88.7043Z" fill="#202124"/>
<path fill-rule="evenodd" clip-rule="evenodd" d="M52.6821 57.7605L105.826 149.809L13.7778 202.953L-39.3665 110.905L52.6821 57.7605ZM57.0048 41.6279L-55.499 106.582L9.45506 219.086L121.959 154.132L57.0048 41.6279ZM44.0369 90.0256L73.5615 141.164L22.4234 170.688L-7.10119 119.55L44.0369 90.0256ZM48.3596 73.893L-23.2337 115.227L18.1007 186.821L89.694 145.486L48.3596 73.893ZM41.2965 132.518L35.3915 122.291L25.1639 128.196L31.0688 138.423L41.2965 132.518ZM9.0314 123.873L39.7142 106.158L57.429 136.841L26.7461 154.556L9.0314 123.873Z" fill="#202124"/>
<path fill-rule="evenodd" clip-rule="evenodd" d="M244.691 83.2724L179.737 -29.2314L169.51 -23.3265L228.559 78.9497L136.51 132.094L77.461 29.8177L67.2334 35.7227L132.187 148.226L244.691 83.2724ZM140.832 115.962L171.515 98.2469L118.371 6.19834L108.143 12.1033L155.383 93.9242L145.155 99.8291L97.9159 18.0082L87.6882 23.9131L140.832 115.962ZM212.426 74.6274L181.743 92.3421L128.599 0.293554L138.826 -5.61137L186.066 76.2096L196.293 70.3047L149.054 -11.5163L159.282 -17.4212L212.426 74.6274Z" fill="#202124"/>
<path fill-rule="evenodd" clip-rule="evenodd" d="M564.715 566.711L574.942 560.806L639.896 673.31L629.669 679.215L564.715 566.711ZM544.26 578.521L554.488 572.616L619.442 685.12L609.214 691.025L544.26 578.521ZM646.536 519.472L656.763 513.567L721.717 626.071L711.49 631.976L646.536 519.472ZM636.308 525.377L626.081 531.282L691.035 643.786L701.263 637.881L636.308 525.377ZM615.853 537.187L645.378 588.325L614.695 606.039L585.17 554.901L595.398 548.996L619.018 589.907L629.245 584.002L605.626 543.091L615.853 537.187ZM680.807 649.69L651.282 598.552L620.599 616.267L650.124 667.405L660.352 661.5L636.732 620.59L646.96 614.685L670.579 655.595L680.807 649.69Z" fill="#202124"/>
<path fill-rule="evenodd" clip-rule="evenodd" d="M775.172 458.841L828.317 550.889L736.268 604.033L683.124 511.985L775.172 458.841ZM779.495 442.708L666.991 507.662L731.945 620.166L844.449 555.212L779.495 442.708ZM766.527 491.105L796.052 542.244L744.914 571.768L715.389 520.63L766.527 491.105ZM770.85 474.973L699.257 516.307L740.591 587.901L812.184 546.566L770.85 474.973ZM763.787 533.598L757.882 523.371L747.654 529.276L753.559 539.503L763.787 533.598ZM731.522 524.953L762.205 507.238L779.919 537.921L749.236 555.636L731.522 524.953Z" fill="#202124"/>
<path fill-rule="evenodd" clip-rule="evenodd" d="M863.321 517.042L894.004 499.327L840.859 407.278L830.632 413.183L877.871 495.004L867.643 500.909L820.404 419.088L810.177 424.993L863.321 517.042ZM967.18 484.352L902.225 371.849L891.998 377.754L951.047 480.03L858.998 533.174L799.949 430.898L789.722 436.803L854.676 549.307L967.18 484.352ZM934.914 475.707L904.231 493.422L851.087 401.374L861.315 395.469L908.554 477.29L918.782 471.385L871.542 389.564L881.77 383.659L934.914 475.707Z" fill="#202124"/>
<path fill-rule="evenodd" clip-rule="evenodd" d="M247.658 749.763L277.183 800.901L246.5 818.616L216.975 767.478L227.203 761.573L250.823 802.483L261.05 796.578L237.431 755.668L247.658 749.763ZM268.113 737.953L257.886 743.858L322.84 856.362L333.068 850.457L268.113 737.953ZM176.065 791.098L186.292 785.193L251.246 897.697L241.019 903.602L176.065 791.098ZM278.342 732.049L288.569 726.144L353.523 838.648L343.296 844.552L278.342 732.049ZM196.521 779.288L206.748 773.383L271.702 885.887L261.475 891.792L196.521 779.288ZM312.613 862.267L283.088 811.129L252.405 828.844L281.93 879.982L292.158 874.077L268.538 833.166L278.766 827.262L302.385 868.172L312.613 862.267Z" fill="#202124"/>
<path fill-rule="evenodd" clip-rule="evenodd" d="M406.977 671.418L460.121 763.466L368.073 816.611L314.928 724.562L406.977 671.418ZM411.3 655.285L298.796 720.239L363.75 832.743L476.254 767.789L411.3 655.285ZM398.332 703.683L427.856 754.821L376.718 784.345L347.194 733.207L398.332 703.683ZM402.655 687.55L331.061 728.885L372.396 800.478L443.989 759.143L402.655 687.55ZM395.591 746.175L389.687 735.948L379.459 741.853L385.364 752.08L395.591 746.175ZM363.326 737.53L394.009 719.815L411.724 750.498L381.041 768.213L363.326 737.53Z" fill="#202124"/>
<path fill-rule="evenodd" clip-rule="evenodd" d="M598.986 696.93L534.032 584.426L523.804 590.331L582.854 692.607L490.805 745.751L431.756 643.475L421.528 649.38L486.482 761.884L598.986 696.93ZM495.127 729.619L525.81 711.904L472.666 619.856L462.438 625.76L509.678 707.581L499.45 713.486L452.211 631.665L441.983 637.57L495.127 729.619ZM566.721 688.285L536.038 705.999L482.894 613.951L493.121 608.046L540.361 689.867L550.588 683.962L503.349 602.141L513.577 596.236L566.721 688.285Z" fill="#202124"/>
<path fill-rule="evenodd" clip-rule="evenodd" d="M952.32 765.669L1005.46 857.717L913.415 910.861L860.271 818.813L952.32 765.669ZM956.642 749.536L844.139 814.49L909.093 926.994L1021.6 862.04L956.642 749.536ZM943.675 797.934L973.199 849.072L922.061 878.596L892.537 827.458L943.675 797.934ZM947.997 781.801L876.404 823.136L917.738 894.729L989.332 853.394L947.997 781.801ZM940.934 840.426L935.029 830.199L924.802 836.104L930.707 846.331L940.934 840.426ZM908.669 831.781L939.352 814.066L957.067 844.749L926.384 862.464L908.669 831.781Z" fill="#202124"/>
<path fill-rule="evenodd" clip-rule="evenodd" d="M53.6434 602.679L-11.3107 490.175L-21.5383 496.08L37.5109 598.356L-54.5377 651.5L-113.587 549.224L-123.814 555.129L-58.8604 667.633L53.6434 602.679ZM-50.2142 635.368L-19.5314 617.653L-72.6756 525.604L-82.9033 531.509L-35.6639 613.33L-45.8915 619.235L-93.1309 537.414L-103.358 543.319L-50.2142 635.368ZM21.3791 594.033L-9.30375 611.748L-62.448 519.7L-52.2204 513.795L-4.98106 595.616L5.24656 589.711L-41.9928 507.89L-31.7652 501.985L21.3791 594.033Z" fill="#202124"/>
<path fill-rule="evenodd" clip-rule="evenodd" d="M387.567 259.883L397.795 253.978L462.749 366.482L452.521 372.386L387.567 259.883ZM469.388 212.644L479.616 206.739L544.57 319.243L534.342 325.147L469.388 212.644ZM367.113 271.693L377.34 265.788L442.294 378.292L432.067 384.197L367.113 271.693ZM459.161 218.549L448.934 224.454L513.888 336.957L524.115 331.052L459.161 218.549ZM438.706 230.358L468.23 281.496L437.548 299.211L408.023 248.073L418.251 242.168L441.87 283.079L452.098 277.174L428.478 236.263L438.706 230.358ZM503.66 342.862L474.135 291.724L443.452 309.439L472.977 360.577L483.204 354.672L459.585 313.761L469.812 307.856L493.432 348.767L503.66 342.862Z" fill="#202124"/>
<path fill-rule="evenodd" clip-rule="evenodd" d="M598.025 152.011L651.169 244.06L559.121 297.204L505.976 205.156L598.025 152.011ZM602.348 135.879L489.844 200.833L554.798 313.337L667.302 248.383L602.348 135.879ZM589.38 184.276L618.904 235.415L567.766 264.939L538.242 213.801L589.38 184.276ZM593.702 168.144L522.109 209.478L563.444 281.072L635.037 239.737L593.702 168.144ZM586.639 226.769L580.734 216.542L570.507 222.446L576.412 232.674L586.639 226.769ZM554.374 218.124L585.057 200.409L602.772 231.092L572.089 248.807L554.374 218.124Z" fill="#202124"/>
<path fill-rule="evenodd" clip-rule="evenodd" d="M686.174 210.214L716.857 192.499L663.713 100.45L653.485 106.355L700.725 188.176L690.497 194.081L643.258 112.26L633.03 118.165L686.174 210.214ZM790.033 177.524L725.079 65.0207L714.851 70.9256L773.901 173.202L681.852 226.346L622.803 124.07L612.575 129.975L677.529 242.479L790.033 177.524ZM757.768 168.879L727.085 186.594L673.941 94.5455L684.168 88.6406L731.408 170.462L741.635 164.557L694.396 82.7357L704.623 76.8308L757.768 168.879Z" fill="#202124"/>
<path fill-rule="evenodd" clip-rule="evenodd" d="M70.5107 442.935L100.035 494.073L69.3525 511.788L39.8279 460.65L50.0555 454.745L73.6752 495.655L83.9028 489.75L60.2831 448.84L70.5107 442.935ZM90.966 431.125L80.7384 437.03L145.692 549.534L155.92 543.629L90.966 431.125ZM-1.08278 484.27L9.14484 478.365L74.0989 590.869L63.8713 596.774L-1.08278 484.27ZM101.194 425.22L111.422 419.316L176.376 531.819L166.148 537.724L101.194 425.22ZM19.3731 472.459L29.6008 466.555L94.5548 579.058L84.3272 584.963L19.3731 472.459ZM135.465 555.439L105.941 504.301L75.258 522.015L104.783 573.154L115.01 567.249L91.3905 526.338L101.618 520.433L125.238 561.344L135.465 555.439Z" fill="#202124"/>
<path fill-rule="evenodd" clip-rule="evenodd" d="M229.83 364.589L282.974 456.637L190.925 509.781L137.781 417.733L229.83 364.589ZM234.152 348.456L121.648 413.41L186.603 525.914L299.106 460.96L234.152 348.456ZM221.184 396.854L250.709 447.992L199.571 477.516L170.046 426.378L221.184 396.854ZM225.507 380.721L153.914 422.056L195.248 493.649L266.841 452.314L225.507 380.721ZM218.444 439.346L212.539 429.119L202.311 435.024L208.216 445.251L218.444 439.346ZM186.179 430.701L216.862 412.986L234.576 443.669L203.894 461.384L186.179 430.701Z" fill="#202124"/>
<path fill-rule="evenodd" clip-rule="evenodd" d="M317.98 422.79L348.663 405.075L295.519 313.026L285.291 318.931L332.53 400.752L322.303 406.657L275.063 324.836L264.836 330.741L317.98 422.79ZM421.839 390.101L356.885 277.597L346.657 283.502L405.706 385.778L313.658 438.922L254.609 336.646L244.381 342.551L309.335 455.055L421.839 390.101ZM389.573 381.455L358.89 399.17L305.746 307.122L315.974 301.217L363.213 383.038L373.441 377.133L326.201 295.312L336.429 289.407L389.573 381.455Z" fill="#202124"/>
<path fill-rule="evenodd" clip-rule="evenodd" d="M755.763 47.3055L765.99 41.4006L830.944 153.904L820.717 159.809L755.763 47.3055ZM837.584 0.066455L847.811 -5.83846L912.765 106.665L902.538 112.57L837.584 0.066455ZM735.308 59.1156L745.535 53.2107L810.49 165.715L800.262 171.619L735.308 59.1156ZM827.357 5.97147L817.129 11.8764L882.083 124.38L892.311 118.475L827.357 5.97147ZM806.901 17.7811L836.426 68.9192L805.743 86.6339L776.218 35.4959L786.446 29.5909L810.066 70.5014L820.293 64.5965L796.674 23.686L806.901 17.7811ZM871.855 130.285L842.33 79.1467L811.648 96.8615L841.172 148L851.4 142.095L827.78 101.184L838.008 95.2793L861.627 136.19L871.855 130.285Z" fill="#202124"/>
</g>
</g>
<defs>
<clipPath id="clip0_245_135364">
<rect width="848" height="765" fill="white"/>
</clipPath>
<clipPath id="clip1_245_135364">
<rect width="3294.94" height="1428.99" fill="white" transform="translate(-1360 587) rotate(-30)"/>
</clipPath>
</defs>
</svg>
