<?xml version="1.0" encoding="UTF-8"?>
<svg id="a" data-name="Ebene 1" xmlns="http://www.w3.org/2000/svg" viewBox="0 0 1190 625">
  <defs>
    <style>
      .b {
        fill: #202124;
        stroke-width: 0px;
      }
    </style>
  </defs>
  <g>
    <path class="b" d="m280,306l22.49-13L55.49,150l-22.49,13,247,143Z"/>
    <path class="b" d="m257.51,33l247,143,22.49-13L280,20l-22.49,13Z"/>
    <path class="b" d="m459.66,202l22.49-13L235.15,46l-22.49,13,247,143Z"/>
    <path class="b" d="m324.85,280l22.49-13L100.34,124l-22.49,13,247,143Z"/>
    <path class="b" d="m190.17,72l112.32,65-67.34,39-112.32-65,22.49-13,89.83,52,22.36-13-89.83-52,22.49-13Z"/>
    <path class="b" d="m324.85,150l112.32,65-22.49,13-89.83-52-22.36,13,89.83,52-22.49,13-112.32-65,67.34-39Z"/>
    <path class="b" d="m540,462V176l-22.49,13v260l-202.02,117v-260l-22.49,13v286l247-143Z"/>
    <path class="b" d="m337.85,527l67.47-39v-234l-22.49,13v208l-22.49,13v-208l-22.49,13v234Z"/>
    <path class="b" d="m427.68,475l67.47-39v-234l-22.49,13v208l-22.49,13v-208l-22.49,13v234Z"/>
    <path class="b" d="m244.51,332v234l-202.02-117v-234l202.15,117m22.49-13L20,176v286l247,143v-286h.13Z"/>
    <path class="b" d="m199.66,358v130l-112.32-65v-130l112.32,65Zm22.49-13l-157.17-91v182l157.17,91v-182Z"/>
    <path class="b" d="m154.68,384v26l-22.49-13v-26l22.49,13Zm22.49-13l-67.34-39v78l67.34,39v-78Z"/>
  </g>
  <g>
    <g>
      <path class="b" d="m1143.5,353.38l-18.71,13.55c-5.18-7.61-10.74-12.44-18.33-12.44-8.89,0-13.14,5.38-13.14,14.11,0,10.02,5.56,14.11,19.07,18.56,22.96,7.42,32.6,16.89,32.6,39.54,0,20.97-13.33,37.31-37.97,37.31-19.07,0-32.22-6.13-42.22-20.98l19.44-13.74c5.93,7.43,11.48,12.81,20.93,12.81,10.37,0,13.89-6.5,13.89-14.29,0-8.91-4.07-13.92-20.18-19.12-21.48-7.05-31.48-18.93-31.48-40.09s12.04-36.01,37.96-36.01c17.04,0,30.75,6.68,38.15,20.79Z"/>
      <path class="b" d="m1010.87,462.34h-39.63v-128.08h39.63c24.81,0,42.03,14.85,42.03,55.69v16.71c0,40.65-17.22,55.69-42.03,55.69Zm0-22.09c13.33,0,16.11-12.07,16.11-33.6v-16.71c0-21.53-2.78-33.6-16.11-33.6h-13.7v83.9h13.7Z"/>
      <path class="b" d="m957.49,462.34h-27.22l-18.7-50.3h-12.78v50.3h-25.93v-128.08h40c24.63,0,40.74,13.18,40.74,39.17,0,17.26-6.85,28.59-17.78,34.15l21.67,54.76Zm-58.7-72.21h11.11c10.93,0,17.78-3.34,17.78-16.71s-6.85-17.08-17.78-17.08h-11.11v33.78Z"/>
      <path class="b" d="m854.69,407.39c0,39.54-16.67,56.61-42.22,56.61s-42.22-17.08-42.22-56.61v-18.19c0-39.54,16.67-56.61,42.22-56.61s42.22,17.08,42.22,56.61v18.19Zm-58.52,0c0,25.62,5.18,34.71,16.3,34.71s16.3-9.1,16.3-34.71v-18.19c0-25.62-5.18-34.71-16.3-34.71s-16.3,9.09-16.3,34.71v18.19Z"/>
      <path class="b" d="m690.93,377.88l-22.22,84.46h-24.63l-24.07-128.08h28.33l11.3,80,18.89-80h24.81l18.89,80,11.3-80h28.33l-24.07,128.08h-24.63l-22.22-84.46Z"/>
    </g>
    <g>
      <path class="b" d="m1118.02,175.3h51.98v16.89h-31.99v24.62h28.42v16.89h-28.42v40.36h-19.99v-98.76Z"/>
      <path class="b" d="m1104.01,231.69c0,30.49-12.85,43.66-32.55,43.66s-32.56-13.17-32.56-43.66v-14.03c0-30.49,12.85-43.66,32.56-43.66s32.55,13.17,32.55,43.66v14.03Zm-45.13,0c0,19.75,4.01,26.77,12.57,26.77s12.56-7.01,12.56-26.77v-14.03c0-19.75-4-26.77-12.56-26.77s-12.57,7.01-12.57,26.77v14.03Z"/>
      <path class="b" d="m1011.04,194.8l-18.7,13.55c-5.18-7.61-10.74-12.44-18.33-12.44-8.89,0-13.15,5.38-13.15,14.11,0,10.02,5.56,14.11,19.07,18.56,22.96,7.42,32.59,16.89,32.59,39.54,0,20.98-13.33,37.31-37.96,37.31-19.07,0-32.22-6.13-42.22-20.98l19.44-13.74c5.93,7.42,11.48,12.81,20.93,12.81,10.37,0,13.89-6.5,13.89-14.29,0-8.91-4.07-13.92-20.18-19.12-21.48-7.05-31.48-18.93-31.48-40.09s12.04-36.01,37.96-36.01c17.04,0,30.74,6.68,38.15,20.79Z"/>
      <path class="b" d="m873.95,305.43c-24.81,0-42.04-15.78-42.04-53.46v-76.29h25.93v76.29c0,21.9,4.07,31.56,16.11,31.56s16.11-9.65,16.11-31.56v-76.29h25.93v76.29c0,37.68-17.22,53.46-42.04,53.46Z"/>
      <path class="b" d="m756.47,279.44l-6.11,24.32h-27.04l36.85-128.08h25.18l36.85,128.08h-27.04l-6.11-24.32h-32.59Zm27.41-21.9l-11.11-45.11-11.11,45.11h22.22Z"/>
      <path class="b" d="m655.11,175.68v50.86h31.85v-50.86h25.93v128.08h-25.93v-55.31h-31.85v55.31h-25.93v-128.08h25.93Z"/>
      <rect class="b" x="1038.89" y="286.9" width="131.11" height="16.86"/>
    </g>
  </g>
</svg>