<svg width="166" height="165" viewBox="0 0 166 165" fill="none" xmlns="http://www.w3.org/2000/svg">
<g clip-path="url(#clip0_260_33376)">
<path d="M37.2885 90.7994L68.4012 121.912L65.5727 124.741L36.4965 123.949L51.4306 138.883L48.6022 141.711L30.6841 123.793L24.8717 123.637L45.7738 144.54L42.9453 147.368L19.0593 123.482L13.2468 123.326L40.1169 150.196L37.2885 153.025L6.17578 121.912L9.00421 119.084L38.0804 119.876L23.1463 104.942L25.9748 102.113L43.8929 120.031L49.7053 120.187L28.8032 99.2847L31.6316 96.4563L55.5177 120.342L61.3301 120.498L34.4601 93.6278L37.2885 90.7994Z" fill="#FF6C3C"/>
<path d="M11.8334 133.225L42.9461 164.338L40.1177 167.166L11.0414 166.374L25.9755 181.308L23.1471 184.137L5.22903 166.219L-0.583392 166.063L20.3187 186.965L17.4903 189.794L-6.39581 165.908L-12.2082 165.752L14.6618 192.622L11.8334 195.451L-19.2793 164.338L-16.4509 161.509L12.6254 162.301L-2.30873 147.367L0.519693 144.539L18.4378 162.457L24.2502 162.613L3.34812 141.71L6.17655 138.882L30.0626 162.768L35.875 162.924L9.00497 136.054L11.8334 133.225Z" fill="#FF6C3C"/>
<path d="M17.4897 -30.8236L48.6023 0.289062L45.7739 3.11749L16.6977 2.32553L31.6318 17.2596L28.8034 20.0881L10.8853 2.16997L5.07286 2.0144L25.9749 22.9165L23.1465 25.7449L-0.739561 1.85884L-6.55198 1.70328L20.3181 28.5733L17.4897 31.4018L-13.623 0.289062L-10.7946 -2.53936L18.2816 -1.7474L3.34752 -16.6815L6.17594 -19.5099L24.094 -1.59184L29.9064 -1.43628L9.00437 -22.3384L11.8328 -25.1668L35.7189 -1.28072L41.5313 -1.12515L14.6612 -27.9952L17.4897 -30.8236Z" fill="#FF6C3C"/>
<path d="M133.455 85.1422L164.568 116.255L161.74 119.083L132.664 118.291L147.598 133.225L144.769 136.054L126.851 118.136L121.039 117.98L141.941 138.882L139.112 141.711L115.226 117.825L109.414 117.669L136.284 144.539L133.455 147.368L102.343 116.255L105.171 113.426L134.247 114.218L119.313 99.2843L122.142 96.4559L140.06 114.374L145.872 114.53L124.97 93.6275L127.799 90.799L151.685 114.685L157.497 114.841L130.627 87.9706L133.455 85.1422Z" fill="#FF6C3C"/>
<path d="M88.2006 5.9459L119.313 37.0586L116.485 39.887L87.4086 39.0951L102.343 54.0292L99.5143 56.8576L81.5962 38.9395L75.7838 38.7839L96.6859 59.686L93.8574 62.5144L69.9714 38.6284L64.159 38.4728L91.029 65.3429L88.2006 68.1713L57.0879 37.0586L59.9163 34.2302L88.9925 35.0221L74.0585 20.088L76.8869 17.2596L94.805 35.1777L100.617 35.3333L79.7153 14.4312L82.5437 11.6028L106.43 35.4888L112.242 35.6444L85.3722 8.77432L88.2006 5.9459Z" fill="#FF6C3C"/>
<path d="M-7.9664 11.6031L23.1463 42.7158L20.3179 45.5442L-8.75837 44.7523L6.17573 59.6864L3.3473 62.5148L-14.5708 44.5967L-20.3832 44.4412L0.518878 65.3432L-2.30955 68.1717L-26.1956 44.2856L-32.008 44.13L-5.13798 71.0001L-7.9664 73.8285L-39.0791 42.7158L-36.2507 39.8874L-7.17444 40.6794L-22.1085 25.7453L-19.2801 22.9168L-1.36203 40.8349L4.45039 40.9905L-16.4517 20.0884L-13.6233 17.26L10.2628 41.146L16.0752 41.3016L-10.7948 14.4315L-7.9664 11.6031Z" fill="#FF6C3C"/>
<path d="M107.999 127.569L139.112 158.682L136.284 161.51L107.207 160.718L122.142 175.652L119.313 178.481L101.395 160.563L95.5826 160.407L116.485 181.309L113.656 184.137L89.7702 160.251L83.9578 160.096L110.828 186.966L107.999 189.794L76.8867 158.682L79.7151 155.853L108.791 156.645L93.8573 141.711L96.6857 138.883L114.604 156.801L120.416 156.956L99.5141 136.054L102.343 133.226L126.229 157.112L132.041 157.267L105.171 130.397L107.999 127.569Z" fill="#FF6C3C"/>
<path d="M62.7445 48.3727L93.8572 79.4854L91.0288 82.3138L61.9526 81.5218L76.8867 96.4559L74.0582 99.2843L56.1402 81.3663L50.3277 81.2107L71.2298 102.113L68.4014 104.941L44.5153 81.0551L38.7029 80.8996L65.573 107.77L62.7445 110.598L31.6318 79.4854L34.4603 76.6569L63.5365 77.4489L48.6024 62.5148L51.4308 59.6864L69.3489 77.6044L75.1613 77.76L54.2593 56.8579L57.0877 54.0295L80.9737 77.9156L86.7862 78.0711L59.9161 51.2011L62.7445 48.3727Z" fill="#FF6C3C"/>
<path d="M178.71 164.338L209.823 195.451L206.995 198.28L177.918 197.488L192.852 212.422L190.024 215.25L172.106 197.332L166.294 197.177L187.196 218.079L184.367 220.907L160.481 197.021L154.669 196.865L181.539 223.735L178.71 226.564L147.598 195.451L150.426 192.623L179.502 193.415L164.568 178.481L167.397 175.652L185.315 193.57L191.127 193.726L170.225 172.824L173.053 169.995L196.94 193.881L202.752 194.037L175.882 167.167L178.71 164.338Z" fill="#FF6C3C"/>
<path d="M158.912 42.7154L190.024 73.8281L187.196 76.6566L158.12 75.8646L173.054 90.7987L170.225 93.6271L152.307 75.709L146.495 75.5535L167.397 96.4555L164.568 99.284L140.682 75.3979L134.87 75.2423L161.74 102.112L158.912 104.941L127.799 73.8281L130.627 70.9997L159.703 71.7917L144.769 56.8576L147.598 54.0291L165.516 71.9472L171.328 72.1028L150.426 51.2007L153.255 48.3723L177.141 72.2583L182.953 72.4139L156.083 45.5439L158.912 42.7154Z" fill="#FF6C3C"/>
<path d="M113.657 -36.4799L144.769 -5.36719L141.941 -2.53876L112.865 -3.33072L127.799 11.6034L124.97 14.4318L107.052 -3.48628L101.24 -3.64185L122.142 17.2602L119.313 20.0887L95.4274 -3.79741L89.615 -3.95297L116.485 22.9171L113.657 25.7455L82.5439 -5.36719L85.3724 -8.19561L114.449 -7.40365L99.5145 -22.3377L102.343 -25.1662L120.261 -7.24809L126.073 -7.09253L105.171 -27.9946L108 -30.823L131.886 -6.93697L137.698 -6.7814L110.828 -33.6515L113.657 -36.4799Z" fill="#FF6C3C"/>
<path d="M184.368 0.289646L215.48 31.4023L212.652 34.2308L183.576 33.4388L198.51 48.3729L195.681 51.2013L177.763 33.2833L171.951 33.1277L192.853 54.0298L190.024 56.8582L166.138 32.9721L160.326 32.8166L187.196 59.6866L184.368 62.515L153.255 31.4023L156.083 28.5739L185.16 29.3659L170.225 14.4318L173.054 11.6034L190.972 29.5214L196.784 29.677L175.882 8.77493L178.711 5.9465L202.597 29.8326L208.409 29.9881L181.539 3.11807L184.368 0.289646Z" fill="#FF6C3C"/>
<path d="M11.833 195.451L42.9457 226.564L45.7741 223.735L17.4899 195.451L42.9457 169.995L57.0878 184.137L34.4604 206.765L48.6026 220.907L51.431 218.079L40.1173 206.765L62.7447 184.137L42.9457 164.338L11.833 195.451Z" fill="#FF6C3C"/>
<path d="M-33.4219 116.255L-2.30918 147.368L0.51925 144.539L-27.765 116.255L-2.30918 90.799L11.833 104.941L-10.7945 127.569L3.34768 141.711L6.1761 138.882L-5.1376 127.569L17.4898 104.941L-2.30918 85.1422L-33.4219 116.255Z" fill="#FF6C3C"/>
<path d="M3.34698 124.74L0.518555 127.568L9.00384 136.054L11.8323 133.225L3.34698 124.74Z" fill="#FF6C3C"/>
<path d="M-2.30941 102.113L0.519018 104.941L-13.6231 119.083L-16.4515 116.255L-2.30941 102.113ZM-2.30941 96.4559L-22.1084 116.255L-13.6231 124.74L6.17587 104.941L-2.30941 96.4559Z" fill="#FF6C3C"/>
<path d="M-58.8779 158.682L-27.7652 189.794L-24.9368 186.966L-53.2211 158.682L-27.7652 133.226L-13.6231 147.368L-36.2505 169.995L-22.1084 184.137L-19.28 181.309L-30.5937 169.995L-7.96624 147.368L-27.7652 127.569L-58.8779 158.682Z" fill="#FF6C3C"/>
<path d="M-53.2207 -5.36719L-22.108 25.7455L-19.2796 22.9171L-47.5638 -5.36719L-22.108 -30.823L-7.96587 -16.6809L-30.5933 5.94652L-16.4512 20.0887L-13.6227 17.2602L-24.9364 5.94652L-2.30902 -16.6809L-22.108 -36.4799L-53.2207 -5.36719Z" fill="#FF6C3C"/>
<path d="M62.7451 110.598L93.8578 141.71L96.6862 138.882L68.402 110.598L93.8578 85.1418L108 99.2839L85.3725 121.911L99.5147 136.053L102.343 133.225L91.0294 121.911L113.657 99.2839L93.8578 79.485L62.7451 110.598Z" fill="#FF6C3C"/>
<path d="M99.515 119.083L96.6865 121.911L105.172 130.396L108 127.568L99.515 119.083Z" fill="#FF6C3C"/>
<path d="M93.8576 96.4555L96.686 99.2839L82.5439 113.426L79.7154 110.598L93.8576 96.4555ZM93.8576 90.7987L74.0586 110.598L82.5439 119.083L102.343 99.2839L93.8576 90.7987Z" fill="#FF6C3C"/>
<path d="M17.4902 31.4023L48.6029 62.515L51.4314 59.6866L23.1471 31.4023L48.6029 5.9465L62.7451 20.0886L40.1177 42.7161L54.2598 56.8582L57.0882 54.0298L45.7745 42.7161L68.4019 20.0886L48.6029 0.289646L17.4902 31.4023Z" fill="#FF6C3C"/>
<path d="M54.2591 39.8874L51.4307 42.7158L59.9159 51.2011L62.7444 48.3727L54.2591 39.8874Z" fill="#FF6C3C"/>
<path d="M48.6027 17.2602L51.4311 20.0886L37.289 34.2308L34.4606 31.4023L48.6027 17.2602ZM48.6027 11.6034L28.8037 31.4023L37.289 39.8876L57.088 20.0886L48.6027 11.6034Z" fill="#FF6C3C"/>
<path d="M133.455 147.367L164.568 178.48L167.396 175.651L139.112 147.367L164.568 121.911L178.71 136.053L156.082 158.681L170.225 172.823L173.053 169.995L161.739 158.681L184.367 136.053L164.568 116.254L133.455 147.367Z" fill="#FF6C3C"/>
<path d="M164.568 133.225L167.396 136.053L153.254 150.196L150.425 147.367L164.568 133.225ZM164.568 127.568L144.769 147.367L153.254 155.852L173.053 136.053L164.568 127.568Z" fill="#FF6C3C"/>
<path d="M37.2891 153.024L68.4018 184.137L71.2302 181.309L42.9459 153.024L68.4018 127.569L82.5439 141.711L59.9165 164.338L74.0586 178.48L76.887 175.652L65.5733 164.338L88.2007 141.711L68.4018 121.912L37.2891 153.024Z" fill="#FF6C3C"/>
<path d="M74.0589 161.509L71.2305 164.338L79.7157 172.823L82.5442 169.995L74.0589 161.509Z" fill="#FF6C3C"/>
<path d="M68.4015 138.882L71.23 141.711L57.0878 155.853L54.2594 153.024L68.4015 138.882ZM68.4015 133.225L48.6025 153.024L57.0878 161.51L76.8868 141.711L68.4015 133.225Z" fill="#FF6C3C"/>
<path d="M-7.96582 73.8281L23.1469 104.941L25.9753 102.112L-2.30897 73.8281L23.1469 48.3723L37.289 62.5144L14.6616 85.1418L28.8037 99.284L31.6322 96.4555L20.3185 85.1418L42.9459 62.5144L23.1469 42.7154L-7.96582 73.8281Z" fill="#FF6C3C"/>
<path d="M28.804 82.3132L25.9756 85.1416L34.4609 93.6269L37.2893 90.7985L28.804 82.3132Z" fill="#FF6C3C"/>
<path d="M23.1466 59.686L25.9751 62.5144L11.8329 76.6566L9.00451 73.8281L23.1466 59.686ZM23.1466 54.0291L3.34766 73.8281L11.8329 82.3134L31.6319 62.5144L23.1466 54.0291Z" fill="#FF6C3C"/>
<path d="M108 189.794L139.113 220.907L141.941 218.078L113.657 189.794L139.113 164.338L153.255 178.48L130.627 201.108L144.77 215.25L147.598 212.421L136.284 201.108L158.912 178.48L139.113 158.681L108 189.794Z" fill="#FF6C3C"/>
<path d="M88.2002 68.1719L119.313 99.2846L122.141 96.4561L93.857 68.1719L119.313 42.716L133.455 56.8582L110.828 79.4856L124.97 93.6277L127.798 90.7993L116.484 79.4856L139.112 56.8582L119.313 37.0592L88.2002 68.1719Z" fill="#FF6C3C"/>
<path d="M124.97 76.6569L122.142 79.4854L130.627 87.9706L133.455 85.1422L124.97 76.6569Z" fill="#FF6C3C"/>
<path d="M119.313 54.0297L122.141 56.8582L107.999 71.0003L105.171 68.1719L119.313 54.0297ZM119.313 48.3729L99.5137 68.1719L107.999 76.6572L127.798 56.8582L119.313 48.3729Z" fill="#FF6C3C"/>
<path d="M113.656 25.7451L144.769 56.8578L147.597 54.0294L119.313 25.7451L144.769 0.289274L158.911 14.4314L136.284 37.0588L150.426 51.201L153.254 48.3725L141.941 37.0588L164.568 14.4314L144.769 -5.36758L113.656 25.7451Z" fill="#FF6C3C"/>
<path d="M150.425 34.2302L147.597 37.0586L156.082 45.5439L158.91 42.7154L150.425 34.2302Z" fill="#FF6C3C"/>
<path d="M144.769 11.603L147.597 14.4314L133.455 28.5735L130.627 25.7451L144.769 11.603ZM144.769 5.94613L124.97 25.7451L133.455 34.2304L153.254 14.4314L144.769 5.94613Z" fill="#FF6C3C"/>
<path d="M139.112 -16.6816L170.225 14.4311L173.053 11.6026L144.769 -16.6816L170.225 -42.1375L184.367 -27.9953L161.74 -5.36793L175.882 8.7742L178.71 5.94578L167.397 -5.36793L190.024 -27.9953L170.225 -47.7943L139.112 -16.6816Z" fill="#FF6C3C"/>
<path d="M42.9453 -11.0244L74.058 20.0883L76.8864 17.2599L48.6022 -11.0244L74.058 -36.4803L88.2001 -22.3381L65.5727 0.289294L79.7149 14.4314L82.5433 11.603L71.2296 0.289294L93.857 -22.3381L74.058 -42.1371L42.9453 -11.0244Z" fill="#FF6C3C"/>
<path d="M79.7151 -2.53936L76.8867 0.289062L85.372 8.77434L88.2004 5.94592L79.7151 -2.53936Z" fill="#FF6C3C"/>
<path d="M158.911 104.941L190.024 136.054L192.852 133.226L164.568 104.941L190.024 79.4856L204.166 93.6277L181.539 116.255L195.681 130.397L198.509 127.569L187.195 116.255L209.823 93.6277L190.024 73.8287L158.911 104.941Z" fill="#FF6C3C"/>
</g>
<defs>
<clipPath id="clip0_260_33376">
<rect x="0.5" width="165" height="165" rx="82.5" fill="white"/>
</clipPath>
</defs>
</svg>
