<svg width="502" height="234" viewBox="0 0 502 234" fill="none" xmlns="http://www.w3.org/2000/svg">
<path d="M-11 -5V39H33V19H-3V31H25V27H1V23H29V35H-7V-1H29V11H1V7H25V3H-3V15H33V-5H-11Z" fill="#F7693A"/>
<path d="M-11 75V119H33V99H-3V111H25V107H1V103H29V115H-7V79H29V91H1V87H25V83H-3V95H33V75H-11Z" fill="#F7693A"/>
<path d="M-11 155V199H33V179H-3V191H25V187H1V183H29V195H-7V159H29V171H1V167H25V163H-3V175H33V155H-11Z" fill="#F7693A"/>
<path d="M37 -5L37 39L81 39V19L45 19V31L73 31V27L49 27V23L77 23V35L41 35L41 -1L77 -1V11L49 11V7L73 7V3L45 3V15L81 15V-5L37 -5Z" fill="#F7693A"/>
<path d="M37 75L37 119H81V99H45V111H73V107H49V103H77V115H41L41 79H77V91H49V87H73V83H45V95H81V75H37Z" fill="#F7693A"/>
<path d="M37 155L37 199H81V179H45V191H73V187H49V183H77V195H41L41 159H77V171H49V167H73V163H45V175H81V155H37Z" fill="#F7693A"/>
<path d="M61 35V79H105V59H69V71H97V67H73V63H101V75H65V39H101V51H73V47H97V43H69V55H105V35H61Z" fill="#F7693A"/>
<path d="M61 115V159H105V139H69V151H97V147H73V143H101V155H65V119H101V131H73V127H97V123H69V135H105V115H61Z" fill="#F7693A"/>
<path d="M61 195V239H105V219H69V231H97V227H73V223H101V235H65V199H101V211H73V207H97V203H69V215H105V195H61Z" fill="#F7693A"/>
<path d="M13 35V79H57V59H21V71H49V67H25V63H53V75H17V39H53V51H25V47H49V43H21V55H57V35H13Z" fill="#F7693A"/>
<path d="M-35 35V79H9V59H-27V71H1V67H-23V63H5V75H-31V39H5V51H-23V47H1V43H-27V55H9V35H-35Z" fill="#F7693A"/>
<path d="M13 115V159H57V139H21V151H49V147H25V143H53V155H17V119H53V131H25V127H49V123H21V135H57V115H13Z" fill="#F7693A"/>
<path d="M13 195V239H57V219H21V231H49V227H25V223H53V235H17V199H53V211H25V207H49V203H21V215H57V195H13Z" fill="#F7693A"/>
<path d="M-35 115V159H9V139H-27V151H1V147H-23V143H5V155H-31V119H5V131H-23V127H1V123H-27V135H9V115H-35Z" fill="#F7693A"/>
<path d="M-35 195V239H9V219H-27V231H1V227H-23V223H5V235H-31V199H5V211H-23V207H1V203H-27V215H9V195H-35Z" fill="#F7693A"/>
<path d="M85 -5V39H129V19H93V31H121V27H97V23H125V35H89V-1H125V11H97V7H121V3H93V15H129V-5H85Z" fill="#F7693A"/>
<path d="M85 75V119H129V99H93V111H121V107H97V103H125V115H89V79H125V91H97V87H121V83H93V95H129V75H85Z" fill="#F7693A"/>
<path d="M85 155V199H129V179H93V191H121V187H97V183H125V195H89V159H125V171H97V167H121V163H93V175H129V155H85Z" fill="#F7693A"/>
<path d="M133 -5V39H177V19H141V31H169V27H145V23H173V35H137V-1H173V11H145V7H169V3H141V15H177V-5H133Z" fill="#F7693A"/>
<path d="M133 75V119H177V99H141V111H169V107H145V103H173V115H137V79H173V91H145V87H169V83H141V95H177V75H133Z" fill="#F7693A"/>
<path d="M133 155V199H177V179H141V191H169V187H145V183H173V195H137V159H173V171H145V167H169V163H141V175H177V155H133Z" fill="#F7693A"/>
<path d="M157 35V79H201V59H165V71H193V67H169V63H197V75H161V39H197V51H169V47H193V43H165V55H201V35H157Z" fill="#F7693A"/>
<path d="M157 115V159H201V139H165V151H193V147H169V143H197V155H161V119H197V131H169V127H193V123H165V135H201V115H157Z" fill="#F7693A"/>
<path d="M157 195V239H201V219H165V231H193V227H169V223H197V235H161V199H197V211H169V207H193V203H165V215H201V195H157Z" fill="#F7693A"/>
<path d="M109 35V79H153V59H117V71H145V67H121V63H149V75H113V39H149V51H121V47H145V43H117V55H153V35H109Z" fill="#F7693A"/>
<path d="M109 115V159H153V139H117V151H145V147H121V143H149V155H113V119H149V131H121V127H145V123H117V135H153V115H109Z" fill="#F7693A"/>
<path d="M109 195V239H153V219H117V231H145V227H121V223H149V235H113V199H149V211H121V207H145V203H117V215H153V195H109Z" fill="#F7693A"/>
<path d="M181 -5V39H225V19H189V31H217V27H193V23H221V35H185V-1H221V11H193V7H217V3H189V15H225V-5H181Z" fill="#F7693A"/>
<path d="M181 75V119H225V99H189V111H217V107H193V103H221V115H185V79H221V91H193V87H217V83H189V95H225V75H181Z" fill="#F7693A"/>
<path d="M181 155V199H225V179H189V191H217V187H193V183H221V195H185V159H221V171H193V167H217V163H189V175H225V155H181Z" fill="#F7693A"/>
<path d="M229 -5V39L273 39V19L237 19V31L265 31V27L241 27V23L269 23V35L233 35V-1L269 -1V11L241 11V7L265 7V3L237 3V15L273 15V-5L229 -5Z" fill="#F7693A"/>
<path d="M373 -5V39L417 39V19L381 19V31L409 31V27L385 27V23L413 23V35L377 35V-1L413 -1V11L385 11V7L409 7V3L381 3V15L417 15V-5L373 -5Z" fill="#F7693A"/>
<path d="M229 75V119H273V99H237V111H265V107H241V103H269V115H233V79H269V91H241V87H265V83H237V95H273V75H229Z" fill="#F7693A"/>
<path d="M229 155V199H273V179H237V191H265V187H241V183H269V195H233V159H269V171H241V167H265V163H237V175H273V155H229Z" fill="#F7693A"/>
<path d="M373 75V119H417V99H381V111H409V107H385V103H413V115H377V79H413V91H385V87H409V83H381V95H417V75H373Z" fill="#F7693A"/>
<path d="M373 155V199H417V179H381V191H409V187H385V183H413V195H377V159H413V171H385V167H409V163H381V175H417V155H373Z" fill="#F7693A"/>
<path d="M253 35V79H297V59H261V71H289V67H265V63H293V75H257V39H293V51H265V47H289V43H261V55H297V35H253Z" fill="#F7693A"/>
<path d="M397 35V79H441V59H405V71H433V67H409V63H437V75H401V39H437V51H409V47H433V43H405V55H441V35H397Z" fill="#F7693A"/>
<path d="M253 115V159H297V139H261V151H289V147H265V143H293V155H257V119H293V131H265V127H289V123H261V135H297V115H253Z" fill="#F7693A"/>
<path d="M253 195V239H297V219H261V231H289V227H265V223H293V235H257V199H293V211H265V207H289V203H261V215H297V195H253Z" fill="#F7693A"/>
<path d="M397 115V159H441V139H405V151H433V147H409V143H437V155H401V119H437V131H409V127H433V123H405V135H441V115H397Z" fill="#F7693A"/>
<path d="M397 195V239H441V219H405V231H433V227H409V223H437V235H401V199H437V211H409V207H433V203H405V215H441V195H397Z" fill="#F7693A"/>
<path d="M205 35V79H249V59H213V71H241V67H217V63H245V75H209V39H245V51H217V47H241V43H213V55H249V35H205Z" fill="#F7693A"/>
<path d="M205 115V159H249V139H213V151H241V147H217V143H245V155H209V119H245V131H217V127H241V123H213V135H249V115H205Z" fill="#F7693A"/>
<path d="M205 195V239H249V219H213V231H241V227H217V223H245V235H209V199H245V211H217V207H241V203H213V215H249V195H205Z" fill="#F7693A"/>
<path d="M277 -5V39H321V19H285V31H313V27H289V23H317V35H281V-1H317V11H289V7H313V3H285V15H321V-5H277Z" fill="#F7693A"/>
<path d="M421 -5V39H465V19H429V31H457V27H433V23H461V35H425V-1H461V11H433V7H457V3H429V15H465V-5H421Z" fill="#F7693A"/>
<path d="M277 75V119H321V99H285V111H313V107H289V103H317V115H281V79H317V91H289V87H313V83H285V95H321V75H277Z" fill="#F7693A"/>
<path d="M277 155V199H321V179H285V191H313V187H289V183H317V195H281V159H317V171H289V167H313V163H285V175H321V155H277Z" fill="#F7693A"/>
<path d="M421 75V119H465V99H429V111H457V107H433V103H461V115H425V79H461V91H433V87H457V83H429V95H465V75H421Z" fill="#F7693A"/>
<path d="M421 155V199H465V179H429V191H457V187H433V183H461V195H425V159H461V171H433V167H457V163H429V175H465V155H421Z" fill="#F7693A"/>
<path d="M325 -5V39H369V19H333V31H361V27H337V23H365V35H329V-1H365V11H337V7H361V3H333V15H369V-5H325Z" fill="#F7693A"/>
<path d="M469 -5V39H513V19H477V31H505V27H481V23H509V35H473V-1H509V11H481V7H505V3H477V15H513V-5H469Z" fill="#F7693A"/>
<path d="M325 75V119H369V99H333V111H361V107H337V103H365V115H329V79H365V91H337V87H361V83H333V95H369V75H325Z" fill="#F7693A"/>
<path d="M325 155V199H369V179H333V191H361V187H337V183H365V195H329V159H365V171H337V167H361V163H333V175H369V155H325Z" fill="#F7693A"/>
<path d="M469 75V119H513V99H477V111H505V107H481V103H509V115H473V79H509V91H481V87H505V83H477V95H513V75H469Z" fill="#F7693A"/>
<path d="M469 155V199H513V179H477V191H505V187H481V183H509V195H473V159H509V171H481V167H505V163H477V175H513V155H469Z" fill="#F7693A"/>
<path d="M349 35V79H393V59H357V71H385V67H361V63H389V75H353V39H389V51H361V47H385V43H357V55H393V35H349Z" fill="#F7693A"/>
<path d="M493 35V79H537V59H501V71H529V67H505V63H533V75H497V39H533V51H505V47H529V43H501V55H537V35H493Z" fill="#F7693A"/>
<path d="M349 115V159H393V139H357V151H385V147H361V143H389V155H353V119H389V131H361V127H385V123H357V135H393V115H349Z" fill="#F7693A"/>
<path d="M349 195V239H393V219H357V231H385V227H361V223H389V235H353V199H389V211H361V207H385V203H357V215H393V195H349Z" fill="#F7693A"/>
<path d="M493 115V159H537V139H501V151H529V147H505V143H533V155H497V119H533V131H505V127H529V123H501V135H537V115H493Z" fill="#F7693A"/>
<path d="M493 195V239H537V219H501V231H529V227H505V223H533V235H497V199H533V211H505V207H529V203H501V215H537V195H493Z" fill="#F7693A"/>
<path d="M301 35V79H345V59H309V71H337V67H313V63H341V75H305V39H341V51H313V47H337V43H309V55H345V35H301Z" fill="#F7693A"/>
<path d="M445 35V79H489V59H453V71H481V67H457V63H485V75H449V39H485V51H457V47H481V43H453V55H489V35H445Z" fill="#F7693A"/>
<path d="M301 115V159H345V139H309V151H337V147H313V143H341V155H305V119H341V131H313V127H337V123H309V135H345V115H301Z" fill="#F7693A"/>
<path d="M301 195V239H345V219H309V231H337V227H313V223H341V235H305V199H341V211H313V207H337V203H309V215H345V195H301Z" fill="#F7693A"/>
<path d="M445 115V159H489V139H453V151H481V147H457V143H485V155H449V119H485V131H457V127H481V123H453V135H489V115H445Z" fill="#F7693A"/>
<path d="M445 195V239H489V219H453V231H481V227H457V223H485V235H449V199H485V211H457V207H481V203H453V215H489V195H445Z" fill="#F7693A"/>
</svg>
