<svg width="982" height="1117" viewBox="0 0 982 1117" fill="none" xmlns="http://www.w3.org/2000/svg">
<g clip-path="url(#clip0_519_13492)">
<g clip-path="url(#clip1_519_13492)">
<path fill-rule="evenodd" clip-rule="evenodd" d="M425.024 511.555L439.958 502.933L534.8 667.203L519.866 675.825L425.024 511.555ZM574.363 425.335L589.297 416.713L684.138 580.983L669.204 589.605L574.363 425.335ZM559.43 433.957L544.496 442.579L639.337 606.849L654.271 598.227L559.43 433.957ZM454.894 494.312L469.827 485.69L564.669 649.96L549.735 658.582L454.894 494.312ZM529.56 451.202L572.669 525.87L527.868 551.736L484.759 477.067L499.692 468.445L534.18 528.18L549.114 519.558L514.626 459.823L529.56 451.202ZM624.401 615.471L581.291 540.803L536.49 566.669L579.6 641.337L594.534 632.715L560.046 572.98L574.979 564.358L609.467 624.093L624.401 615.471Z" fill="#CEB2F7"/>
<path fill-rule="evenodd" clip-rule="evenodd" d="M762.186 336.805L839.784 471.208L705.381 548.805L627.783 414.402L762.186 336.805ZM768.498 313.249L604.228 408.091L699.069 572.361L863.339 477.519L768.498 313.249ZM749.563 383.916L792.673 458.584L718.004 501.694L674.895 427.026L749.563 383.916ZM755.875 360.36L651.339 420.714L711.693 525.25L816.228 464.896L755.875 360.36ZM745.562 445.961L736.94 431.027L722.006 439.649L730.628 454.583L745.562 445.961ZM698.451 433.338L743.252 407.472L769.118 452.273L724.317 478.139L698.451 433.338Z" fill="#CEB2F7"/>
<path fill-rule="evenodd" clip-rule="evenodd" d="M890.897 421.787L935.698 395.921L858.1 261.518L843.167 270.14L912.142 389.609L897.209 398.231L828.233 278.762L813.299 287.384L890.897 421.787ZM1042.55 374.058L947.704 209.788L932.77 218.41L1018.99 367.746L884.587 445.344L798.367 296.007L783.433 304.629L878.275 468.899L1042.55 374.058ZM995.433 361.434L950.632 387.3L873.035 252.897L887.968 244.275L956.944 363.744L971.878 355.122L902.902 235.653L917.836 227.031L995.433 361.434Z" fill="#CEB2F7"/>
<path fill-rule="evenodd" clip-rule="evenodd" d="M36.7477 735.724L51.6814 727.102L146.523 891.372L131.589 899.994L36.7477 735.724ZM-112.589 821.944L-97.6551 813.322L-2.8137 977.592L-17.7474 986.214L-112.589 821.944ZM21.8143 744.346L6.88063 752.968L101.722 917.238L116.656 908.616L21.8143 744.346ZM-82.7196 804.7L-67.786 796.078L27.0555 960.348L12.1218 968.97L-82.7196 804.7ZM-8.05155 761.59L35.0582 836.258L-9.74277 862.124L-52.8525 787.456L-37.9189 778.834L-3.43107 838.568L11.5026 829.946L-22.9852 770.212L-8.05155 761.59ZM86.7877 925.86L43.6779 851.192L-1.12304 877.058L41.9867 951.726L56.9204 943.104L22.4326 883.37L37.3662 874.748L71.854 934.482L86.7877 925.86Z" fill="#CEB2F7"/>
<path fill-rule="evenodd" clip-rule="evenodd" d="M224.574 647.196L302.171 781.599L167.768 859.196L90.1708 724.793L224.574 647.196ZM230.885 623.64L66.6152 718.481L161.457 882.752L325.727 787.91L230.885 623.64ZM211.952 694.307L255.062 768.975L180.393 812.085L137.284 737.417L211.952 694.307ZM218.264 670.751L113.728 731.105L174.082 835.641L278.617 775.287L218.264 670.751ZM207.948 756.352L199.326 741.418L184.392 750.04L193.014 764.974L207.948 756.352ZM160.836 743.729L205.637 717.863L231.503 762.664L186.702 788.53L160.836 743.729Z" fill="#CEB2F7"/>
<path fill-rule="evenodd" clip-rule="evenodd" d="M353.285 732.177L398.086 706.311L320.488 571.908L305.555 580.53L374.53 699.999L359.597 708.621L290.621 589.152L275.688 597.774L353.285 732.177ZM504.932 684.447L410.091 520.177L395.157 528.799L481.376 678.135L346.974 755.733L260.754 606.396L245.82 615.018L340.662 779.288L504.932 684.447ZM457.82 671.824L413.019 697.69L335.422 563.287L350.355 554.665L419.331 674.134L434.265 665.512L365.289 546.043L380.223 537.421L457.82 671.824Z" fill="#CEB2F7"/>
<path fill-rule="evenodd" clip-rule="evenodd" d="M1067.17 140.81L1110.28 215.478L1065.48 241.344L1022.37 166.676L1037.3 158.054L1071.79 217.788L1086.72 209.166L1052.23 149.432L1067.17 140.81ZM992.5 183.919L1007.43 175.297L1102.28 339.567L1087.34 348.189L992.5 183.919ZM1097.04 123.566L1082.1 132.188L1176.94 296.458L1191.88 287.836L1097.04 123.566ZM1111.97 114.945L1126.9 106.323L1221.74 270.593L1206.81 279.215L1111.97 114.945ZM962.633 201.164L977.567 192.542L1072.41 356.812L1057.47 365.434L962.633 201.164ZM1162.01 305.08L1118.9 230.412L1074.1 256.278L1117.21 330.946L1132.14 322.324L1097.65 262.59L1112.59 253.968L1147.08 313.702L1162.01 305.08Z" fill="#CEB2F7"/>
<path fill-rule="evenodd" clip-rule="evenodd" d="M683.683 959.564L698.616 950.942L793.458 1115.21L778.524 1123.83L683.683 959.564ZM833.021 873.344L847.955 864.722L942.796 1028.99L927.863 1037.61L833.021 873.344ZM818.088 881.966L803.154 890.588L897.996 1054.86L912.929 1046.24L818.088 881.966ZM713.552 942.32L728.486 933.698L823.327 1097.97L808.393 1106.59L713.552 942.32ZM788.218 899.21L831.328 973.879L786.527 999.744L743.417 925.076L758.351 916.454L792.838 976.189L807.772 967.567L773.284 907.832L788.218 899.21ZM883.059 1063.48L839.949 988.812L795.148 1014.68L838.258 1089.35L853.192 1080.72L818.704 1020.99L833.638 1012.37L868.126 1072.1L883.059 1063.48Z" fill="#CEB2F7"/>
<path fill-rule="evenodd" clip-rule="evenodd" d="M1020.85 784.814L1098.45 919.217L964.043 996.815L886.445 862.412L1020.85 784.814ZM1027.16 761.259L862.89 856.1L957.731 1020.37L1122 925.529L1027.16 761.259ZM1008.23 831.926L1051.33 906.594L976.667 949.704L933.557 875.035L1008.23 831.926ZM1014.54 808.37L910.001 868.724L970.355 973.259L1074.89 912.906L1014.54 808.37ZM1004.22 893.971L995.601 879.037L980.667 887.659L989.289 902.593L1004.22 893.971ZM957.112 881.347L1001.91 855.481L1027.78 900.282L982.978 926.148L957.112 881.347Z" fill="#CEB2F7"/>
<path fill-rule="evenodd" clip-rule="evenodd" d="M483.233 1095.2L560.83 1229.61L426.428 1307.21L348.83 1172.8L483.233 1095.2ZM489.545 1071.65L325.274 1166.49L420.116 1330.76L584.386 1235.92L489.545 1071.65ZM470.61 1142.32L513.72 1216.98L439.051 1260.09L395.942 1185.43L470.61 1142.32ZM476.922 1118.76L372.386 1179.11L432.74 1283.65L537.275 1223.3L476.922 1118.76ZM466.609 1204.36L457.987 1189.43L443.053 1198.05L451.675 1212.98L466.609 1204.36ZM419.498 1191.74L464.299 1165.87L490.165 1210.67L445.364 1236.54L419.498 1191.74Z" fill="#CEB2F7"/>
<path fill-rule="evenodd" clip-rule="evenodd" d="M611.945 1180.19L656.746 1154.32L579.148 1019.92L564.214 1028.54L633.19 1148.01L618.256 1156.63L549.281 1037.16L534.347 1045.78L611.945 1180.19ZM763.592 1132.46L668.75 968.187L653.817 976.809L740.036 1126.15L605.633 1203.74L519.414 1054.41L504.48 1063.03L599.321 1227.3L763.592 1132.46ZM716.481 1119.83L671.68 1145.7L594.082 1011.3L609.016 1002.67L677.992 1122.14L692.925 1113.52L623.95 994.052L638.883 985.43L716.481 1119.83Z" fill="#CEB2F7"/>
<path fill-rule="evenodd" clip-rule="evenodd" d="M166.362 63.5449L181.296 54.923L276.137 219.193L261.204 227.815L166.362 63.5449ZM315.701 -22.6752L330.635 -31.2972L425.476 132.973L410.542 141.595L315.701 -22.6752ZM300.767 -14.0531L285.834 -5.4312L380.675 158.839L395.609 150.217L300.767 -14.0531ZM196.231 46.3014L211.165 37.6795L306.007 201.95L291.073 210.572L196.231 46.3014ZM270.897 3.19153L314.007 77.8598L269.206 103.726L226.096 29.0574L241.03 20.4354L275.518 80.1701L290.452 71.5481L255.964 11.8135L270.897 3.19153ZM365.74 167.462L322.63 92.7933L277.829 118.659L320.939 193.327L335.873 184.706L301.385 124.971L316.318 116.349L350.806 176.084L365.74 167.462Z" fill="#CEB2F7"/>
<path fill-rule="evenodd" clip-rule="evenodd" d="M503.527 -111.205L581.124 23.1984L446.722 100.796L369.124 -33.607L503.527 -111.205ZM509.839 -134.76L345.568 -39.9187L440.41 124.351L604.68 29.5101L509.839 -134.76ZM490.904 -64.093L534.014 10.5753L459.346 53.685L416.236 -20.9833L490.904 -64.093ZM497.216 -87.6486L392.68 -27.295L453.034 77.2406L557.569 16.887L497.216 -87.6486ZM486.903 -2.04851L478.281 -16.9822L463.347 -8.36022L471.969 6.57344L486.903 -2.04851ZM439.792 -14.6719L484.593 -40.5378L510.459 4.26319L465.658 30.129L439.792 -14.6719Z" fill="#CEB2F7"/>
<path fill-rule="evenodd" clip-rule="evenodd" d="M632.237 -26.2231L677.038 -52.0889L599.44 -186.492L584.507 -177.87L653.482 -58.4006L638.549 -49.7787L569.573 -169.248L554.639 -160.626L632.237 -26.2231ZM783.885 -73.9521L689.043 -238.222L674.11 -229.6L760.329 -80.2638L625.926 -2.66629L539.707 -152.003L524.773 -143.381L619.615 20.8893L783.885 -73.9521ZM736.773 -86.5759L691.972 -60.7101L614.375 -195.113L629.308 -203.735L698.284 -84.2657L713.217 -92.8876L644.242 -212.357L659.176 -220.979L736.773 -86.5759Z" fill="#CEB2F7"/>
<path fill-rule="evenodd" clip-rule="evenodd" d="M-34.0845 199.186L43.5131 333.589L-90.8898 411.187L-168.487 276.784L-34.0845 199.186ZM-27.7728 175.631L-192.043 270.472L-97.2015 434.742L67.0687 339.901L-27.7728 175.631ZM-46.7074 246.299L-3.59767 320.967L-78.266 364.077L-121.376 289.409L-46.7074 246.299ZM-40.3957 222.743L-144.931 283.097L-84.5777 387.632L19.9579 327.279L-40.3957 222.743ZM-50.7085 308.343L-59.3304 293.41L-74.2641 302.032L-65.6421 316.965L-50.7085 308.343ZM-97.8197 295.72L-53.0187 269.854L-27.1529 314.655L-71.9538 340.521L-97.8197 295.72Z" fill="#CEB2F7"/>
<path fill-rule="evenodd" clip-rule="evenodd" d="M94.6285 284.168L139.429 258.302L61.8319 123.899L46.8982 132.521L115.874 251.99L100.94 260.612L31.9646 141.143L17.0309 149.765L94.6285 284.168ZM246.277 236.439L151.435 72.1683L136.501 80.7902L222.721 230.127L88.318 307.724L2.09854 158.388L-12.8351 167.01L82.0063 331.28L246.277 236.439ZM199.165 223.815L154.364 249.681L76.7662 115.278L91.6998 106.656L160.675 226.125L175.609 217.503L106.633 98.0337L121.567 89.4118L199.165 223.815Z" fill="#CEB2F7"/>
<path fill-rule="evenodd" clip-rule="evenodd" d="M166.362 63.5449L181.296 54.923L276.137 219.193L261.204 227.815L166.362 63.5449ZM315.701 -22.6752L330.635 -31.2972L425.476 132.973L410.542 141.595L315.701 -22.6752ZM300.767 -14.0531L285.834 -5.4312L380.675 158.839L395.609 150.217L300.767 -14.0531ZM196.231 46.3014L211.165 37.6795L306.007 201.95L291.073 210.572L196.231 46.3014ZM270.897 3.19153L314.007 77.8598L269.206 103.726L226.096 29.0574L241.03 20.4354L275.518 80.1701L290.452 71.5481L255.964 11.8135L270.897 3.19153ZM365.74 167.462L322.63 92.7933L277.829 118.659L320.939 193.327L335.873 184.706L301.385 124.971L316.318 116.349L350.806 176.084L365.74 167.462Z" fill="#CEB2F7"/>
<path fill-rule="evenodd" clip-rule="evenodd" d="M503.527 -111.205L581.124 23.1984L446.722 100.796L369.124 -33.607L503.527 -111.205ZM509.839 -134.76L345.568 -39.9187L440.41 124.351L604.68 29.5101L509.839 -134.76ZM490.904 -64.093L534.014 10.5753L459.346 53.685L416.236 -20.9833L490.904 -64.093ZM497.216 -87.6486L392.68 -27.295L453.034 77.2406L557.569 16.887L497.216 -87.6486ZM486.903 -2.04851L478.281 -16.9822L463.347 -8.36022L471.969 6.57344L486.903 -2.04851ZM439.792 -14.6719L484.593 -40.5378L510.459 4.26319L465.658 30.129L439.792 -14.6719Z" fill="#CEB2F7"/>
<path fill-rule="evenodd" clip-rule="evenodd" d="M632.237 -26.2231L677.038 -52.0889L599.44 -186.492L584.507 -177.87L653.482 -58.4006L638.549 -49.7787L569.573 -169.248L554.639 -160.626L632.237 -26.2231ZM783.885 -73.9521L689.043 -238.222L674.11 -229.6L760.329 -80.2638L625.926 -2.66629L539.707 -152.003L524.773 -143.381L619.615 20.8893L783.885 -73.9521ZM736.773 -86.5759L691.972 -60.7101L614.375 -195.113L629.308 -203.735L698.284 -84.2657L713.217 -92.8876L644.242 -212.357L659.176 -220.979L736.773 -86.5759Z" fill="#CEB2F7"/>
<path fill-rule="evenodd" clip-rule="evenodd" d="M-34.0845 199.186L43.5131 333.589L-90.8898 411.187L-168.487 276.784L-34.0845 199.186ZM-27.7728 175.631L-192.043 270.472L-97.2015 434.742L67.0687 339.901L-27.7728 175.631ZM-46.7074 246.299L-3.59767 320.967L-78.266 364.077L-121.376 289.409L-46.7074 246.299ZM-40.3957 222.743L-144.931 283.097L-84.5777 387.632L19.9579 327.279L-40.3957 222.743ZM-50.7085 308.343L-59.3304 293.41L-74.2641 302.032L-65.6421 316.965L-50.7085 308.343ZM-97.8197 295.72L-53.0187 269.854L-27.1529 314.655L-71.9538 340.521L-97.8197 295.72Z" fill="#CEB2F7"/>
<path fill-rule="evenodd" clip-rule="evenodd" d="M94.6285 284.168L139.429 258.302L61.8319 123.899L46.8982 132.521L115.874 251.99L100.94 260.612L31.9646 141.143L17.0309 149.765L94.6285 284.168ZM246.277 236.439L151.435 72.1683L136.501 80.7902L222.721 230.127L88.318 307.724L2.09854 158.388L-12.8351 167.01L82.0063 331.28L246.277 236.439ZM199.165 223.815L154.364 249.681L76.7662 115.278L91.6998 106.656L160.675 226.125L175.609 217.503L106.633 98.0337L121.567 89.4118L199.165 223.815Z" fill="#CEB2F7"/>
<path fill-rule="evenodd" clip-rule="evenodd" d="M541.111 643.647L556.045 635.025L650.886 799.295L635.952 807.917L541.111 643.647ZM391.774 729.867L406.708 721.245L501.55 885.515L486.616 894.137L391.774 729.867ZM526.178 652.269L511.244 660.891L606.085 825.161L621.019 816.539L526.178 652.269ZM421.644 712.623L436.577 704.001L531.419 868.271L516.485 876.893L421.644 712.623ZM496.312 669.513L539.421 744.182L494.621 770.048L451.511 695.379L466.444 686.757L500.932 746.492L515.866 737.87L481.378 678.135L496.312 669.513ZM591.153 833.784L548.043 759.115L503.242 784.981L546.352 859.649L561.286 851.027L526.798 791.293L541.732 782.671L576.219 842.405L591.153 833.784Z" fill="#CEB2F7"/>
<path fill-rule="evenodd" clip-rule="evenodd" d="M728.937 555.118L806.535 689.521L672.132 767.119L594.534 632.716L728.937 555.118ZM735.249 531.563L570.979 626.404L665.82 790.674L830.09 695.833L735.249 531.563ZM716.315 602.229L759.425 676.898L684.757 720.007L641.647 645.339L716.315 602.229ZM722.627 578.674L618.091 639.027L678.445 743.563L782.981 683.209L722.627 578.674ZM712.313 664.274L703.691 649.34L688.757 657.962L697.379 672.896L712.313 664.274ZM665.202 651.651L710.003 625.785L735.869 670.586L691.068 696.452L665.202 651.651Z" fill="#CEB2F7"/>
<path fill-rule="evenodd" clip-rule="evenodd" d="M962.184 579.745L917.383 605.611L839.785 471.208L854.719 462.586L923.694 582.056L938.628 573.434L869.653 453.965L884.586 445.343L962.184 579.745ZM1009.3 592.369L914.454 428.099L899.52 436.721L985.74 586.058L851.337 663.655L765.118 514.319L750.184 522.941L845.025 687.211L1009.3 592.369ZM857.65 640.1L902.451 614.235L824.853 479.832L809.919 488.454L878.895 607.923L863.961 616.545L794.986 497.076L780.052 505.698L857.65 640.1Z" fill="#CEB2F7"/>
<path fill-rule="evenodd" clip-rule="evenodd" d="M-145.836 1040.26L-130.902 1031.64L-36.0608 1195.91L-50.9945 1204.53L-145.836 1040.26ZM3.50282 954.037L18.4365 945.415L113.278 1109.68L98.3443 1118.31L3.50282 954.037ZM-11.4317 962.66L-26.3653 971.282L68.4761 1135.55L83.4098 1126.93L-11.4317 962.66ZM-115.967 1023.01L-101.033 1014.39L-6.19152 1178.66L-21.1252 1187.28L-115.967 1023.01ZM-41.3006 979.904L1.8091 1054.57L-42.9919 1080.44L-86.1016 1005.77L-71.168 997.148L-36.6802 1056.88L-21.7465 1048.26L-56.2343 988.526L-41.3006 979.904ZM53.5417 1144.17L10.432 1069.51L-34.369 1095.37L8.74075 1170.04L23.6744 1161.42L-10.8134 1101.68L4.12026 1093.06L38.6081 1152.8L53.5417 1144.17Z" fill="#CEB2F7"/>
<path fill-rule="evenodd" clip-rule="evenodd" d="M191.329 865.507L268.926 999.91L134.523 1077.51L56.9257 943.105L191.329 865.507ZM197.64 841.952L33.3701 936.793L128.212 1101.06L292.482 1006.22L197.64 841.952ZM178.706 912.619L221.815 987.287L147.147 1030.4L104.037 955.728L178.706 912.619ZM185.017 889.063L80.4818 949.417L140.835 1053.95L245.371 993.598L185.017 889.063ZM174.705 974.664L166.083 959.73L151.149 968.352L159.771 983.286L174.705 974.664ZM127.593 962.04L172.394 936.174L198.26 980.975L153.459 1006.84L127.593 962.04Z" fill="#CEB2F7"/>
<path fill-rule="evenodd" clip-rule="evenodd" d="M320.038 950.489L364.839 924.624L287.242 790.221L272.308 798.843L341.284 918.312L326.35 926.934L257.375 807.465L242.441 816.087L320.038 950.489ZM471.686 902.76L376.845 738.49L361.911 747.112L448.131 896.448L313.728 974.046L227.508 824.709L212.575 833.331L307.416 997.601L471.686 902.76ZM424.578 890.135L379.777 916.001L302.179 781.598L317.113 772.976L386.088 892.445L401.022 883.823L332.047 764.354L346.98 755.732L424.578 890.135Z" fill="#CEB2F7"/>
<path fill-rule="evenodd" clip-rule="evenodd" d="M1033.92 359.122L1077.03 433.79L1032.23 459.656L989.12 384.987L1004.05 376.365L1038.54 436.1L1053.48 427.478L1018.99 367.744L1033.92 359.122ZM1063.79 341.878L1048.85 350.5L1143.7 514.77L1158.63 506.148L1063.79 341.878ZM1078.72 333.256L1093.66 324.634L1188.5 488.904L1173.56 497.526L1078.72 333.256ZM929.385 419.477L944.319 410.855L1039.16 575.125L1024.23 583.747L929.385 419.477ZM959.252 402.233L974.186 393.611L1069.03 557.881L1054.09 566.503L959.252 402.233ZM1128.76 523.392L1085.65 448.723L1040.85 474.589L1083.96 549.258L1098.9 540.636L1064.41 480.901L1079.34 472.279L1113.83 532.014L1128.76 523.392Z" fill="#CEB2F7"/>
<path fill-rule="evenodd" clip-rule="evenodd" d="M799.768 1091.66L814.702 1083.03L909.543 1247.3L894.61 1255.93L799.768 1091.66ZM650.432 1177.88L665.365 1169.25L760.207 1333.52L745.273 1342.15L650.432 1177.88ZM784.835 1100.28L769.901 1108.9L864.743 1273.17L879.676 1264.55L784.835 1100.28ZM680.301 1160.63L695.235 1152.01L790.076 1316.28L775.142 1324.9L680.301 1160.63ZM754.969 1117.52L798.079 1192.19L753.278 1218.06L710.168 1143.39L725.102 1134.77L759.59 1194.5L774.523 1185.88L740.035 1126.14L754.969 1117.52ZM849.81 1281.79L806.701 1207.12L761.9 1232.99L805.009 1307.66L819.943 1299.04L785.455 1239.3L800.389 1230.68L834.877 1290.41L849.81 1281.79Z" fill="#CEB2F7"/>
<path fill-rule="evenodd" clip-rule="evenodd" d="M987.591 1003.13L1065.19 1137.53L930.786 1215.13L853.188 1080.73L987.591 1003.13ZM993.903 979.572L829.633 1074.41L924.474 1238.68L1088.74 1143.84L993.903 979.572ZM974.968 1050.24L1018.08 1124.91L943.41 1168.02L900.3 1093.35L974.968 1050.24ZM981.28 1026.68L876.744 1087.04L937.098 1191.57L1041.63 1131.22L981.28 1026.68ZM970.967 1112.28L962.345 1097.35L947.412 1105.97L956.034 1120.91L970.967 1112.28ZM923.856 1099.66L968.657 1073.79L994.523 1118.6L949.722 1144.46L923.856 1099.66Z" fill="#CEB2F7"/>
<path fill-rule="evenodd" clip-rule="evenodd" d="M282.453 195.638L297.386 187.016L392.228 351.286L377.294 359.908L282.453 195.638ZM133.116 281.857L148.05 273.235L242.891 437.506L227.958 446.127L133.116 281.857ZM267.519 204.26L252.586 212.882L347.427 377.152L362.361 368.53L267.519 204.26ZM162.985 264.613L177.919 255.991L272.76 420.261L257.827 428.883L162.985 264.613ZM237.653 221.503L280.763 296.171L235.962 322.037L192.852 247.369L207.786 238.747L242.274 298.481L257.208 289.859L222.72 230.125L237.653 221.503ZM332.495 385.774L289.385 311.106L244.584 336.971L287.694 411.64L302.627 403.018L268.14 343.283L283.073 334.661L317.561 394.396L332.495 385.774Z" fill="#CEB2F7"/>
<path fill-rule="evenodd" clip-rule="evenodd" d="M470.279 107.108L547.876 241.511L413.473 319.109L335.876 184.706L470.279 107.108ZM476.591 83.5528L312.32 178.394L407.162 342.664L571.432 247.823L476.591 83.5528ZM457.656 154.22L500.766 228.888L426.097 271.998L382.988 197.33L457.656 154.22ZM463.968 130.664L359.432 191.018L419.786 295.553L524.321 235.2L463.968 130.664ZM453.655 216.264L445.033 201.33L430.099 209.952L438.721 224.886L453.655 216.264ZM406.544 203.64L451.345 177.775L477.21 222.576L432.409 248.441L406.544 203.64Z" fill="#CEB2F7"/>
<path fill-rule="evenodd" clip-rule="evenodd" d="M703.526 131.736L658.725 157.602L581.128 23.1994L596.061 14.5774L665.037 134.047L679.971 125.425L610.995 5.95546L625.929 -2.66649L703.526 131.736ZM750.638 144.36L655.797 -19.91L640.863 -11.288L727.083 138.049L592.68 215.646L506.46 66.3095L491.527 74.9315L586.368 239.202L750.638 144.36ZM598.993 192.091L643.794 166.226L566.197 31.8226L551.263 40.4446L620.239 159.914L605.305 168.536L536.329 49.0665L521.396 57.6885L598.993 192.091Z" fill="#CEB2F7"/>
<path fill-rule="evenodd" clip-rule="evenodd" d="M-67.3296 417.498L10.2679 551.901L-124.135 629.498L-201.732 495.095L-67.3296 417.498ZM-61.0179 393.942L-225.288 488.784L-130.447 653.054L33.8236 558.212L-61.0179 393.942ZM-79.9525 464.609L-36.8427 539.277L-111.511 582.387L-154.621 507.719L-79.9525 464.609ZM-73.6408 441.053L-178.176 501.407L-117.823 605.942L-13.2871 545.589L-73.6408 441.053ZM-83.9535 526.654L-92.5754 511.72L-107.509 520.342L-98.8872 535.276L-83.9535 526.654ZM-131.065 514.03L-86.2637 488.165L-60.3979 532.966L-105.199 558.831L-131.065 514.03Z" fill="#CEB2F7"/>
<path fill-rule="evenodd" clip-rule="evenodd" d="M165.917 442.125L121.116 467.991L43.5181 333.588L58.4518 324.966L127.427 444.435L142.361 435.814L73.3854 316.344L88.3191 307.722L165.917 442.125ZM61.3804 502.48L106.181 476.614L28.5838 342.211L13.6502 350.833L82.6258 470.302L67.6921 478.924L-1.28346 359.455L-16.2171 368.077L61.3804 502.48ZM213.027 454.751L118.186 290.48L103.252 299.102L189.472 448.439L55.0689 526.036L-31.1506 376.7L-46.0842 385.322L48.7572 549.592L213.027 454.751Z" fill="#CEB2F7"/>
<path fill-rule="evenodd" clip-rule="evenodd" d="M820.064 -114.753L834.998 -123.375L929.839 40.8956L914.906 49.5176L820.064 -114.753ZM670.728 -28.5325L685.661 -37.1544L780.503 127.116L765.569 135.738L670.728 -28.5325ZM805.131 -106.131L790.197 -97.5086L885.039 66.7616L899.972 58.1397L805.131 -106.131ZM700.594 -45.7754L715.528 -54.3974L810.369 109.873L795.435 118.495L700.594 -45.7754ZM775.264 -88.8864L818.374 -14.2181L773.573 11.6478L730.463 -63.0205L745.397 -71.6425L779.885 -11.9078L794.818 -20.5298L760.33 -80.2644L775.264 -88.8864ZM870.106 75.3842L826.997 0.715963L782.196 26.5818L825.305 101.25L840.239 92.6281L805.751 32.8935L820.685 24.2716L855.173 84.0062L870.106 75.3842Z" fill="#CEB2F7"/>
<path fill-rule="evenodd" clip-rule="evenodd" d="M1007.89 -203.282L1085.49 -68.8788L951.085 8.71875L873.487 -125.684L1007.89 -203.282ZM1014.2 -226.837L849.932 -131.996L944.773 32.2743L1109.04 -62.5671L1014.2 -226.837ZM995.268 -156.17L1038.38 -81.502L963.71 -38.3923L920.6 -113.061L995.268 -156.17ZM1001.58 -179.726L897.044 -119.372L957.398 -14.8367L1061.93 -75.1903L1001.58 -179.726ZM991.266 -94.1252L982.644 -109.059L967.71 -100.437L976.332 -85.5033L991.266 -94.1252ZM944.155 -106.749L988.956 -132.615L1014.82 -87.8135L970.021 -61.9477L944.155 -106.749Z" fill="#CEB2F7"/>
<path fill-rule="evenodd" clip-rule="evenodd" d="M20.4111 -51.3035L35.3448 -59.9254L130.186 104.345L115.253 112.967L20.4111 -51.3035ZM169.748 -137.522L184.681 -146.144L279.523 18.1258L264.589 26.7477L169.748 -137.522ZM154.814 -128.9L139.881 -120.278L234.722 43.9917L249.656 35.3698L154.814 -128.9ZM50.2782 -68.5469L65.2118 -77.1688L160.053 87.1014L145.12 95.7233L50.2782 -68.5469ZM124.947 -111.657L168.057 -36.989L123.256 -11.1232L80.1463 -85.7914L95.08 -94.4134L129.568 -34.6788L144.501 -43.3007L110.014 -103.035L124.947 -111.657ZM219.788 52.6128L176.678 -22.0555L131.877 3.81037L174.987 78.4786L189.92 69.8567L155.432 10.1221L170.366 1.50012L204.854 61.2347L219.788 52.6128Z" fill="#CEB2F7"/>
<path fill-rule="evenodd" clip-rule="evenodd" d="M357.574 -226.054L435.171 -91.6508L300.768 -14.0532L223.171 -148.456L357.574 -226.054ZM363.885 -249.609L199.615 -154.768L294.457 9.50238L458.727 -85.3391L363.885 -249.609ZM344.951 -178.942L388.061 -104.274L313.392 -61.1642L270.282 -135.833L344.951 -178.942ZM351.262 -202.498L246.727 -142.144L307.081 -37.6086L411.616 -97.9623L351.262 -202.498ZM340.95 -116.897L332.328 -131.831L317.394 -123.209L326.016 -108.275L340.95 -116.897ZM293.839 -129.521L338.639 -155.386L364.505 -110.586L319.704 -84.7197L293.839 -129.521Z" fill="#CEB2F7"/>
<path fill-rule="evenodd" clip-rule="evenodd" d="M100.32 121.589L5.47821 -42.6813L-9.45545 -34.0593L76.764 115.277L-57.6388 192.875L-143.858 43.5382L-158.792 52.1602L-63.9506 216.43L100.32 121.589ZM-51.3273 169.32L-6.52639 143.454L-84.1239 9.0508L-99.0576 17.6728L-30.082 137.142L-45.0156 145.764L-113.991 26.2947L-128.925 34.9166L-51.3273 169.32ZM53.2078 108.966L8.40685 134.832L-69.1907 0.429111L-54.2571 -8.19284L14.7186 111.276L29.6522 102.654L-39.3234 -16.8148L-24.3897 -25.4367L53.2078 108.966Z" fill="#CEB2F7"/>
<path fill-rule="evenodd" clip-rule="evenodd" d="M537.728 844.713L552.661 836.091L647.503 1000.36L632.569 1008.98L537.728 844.713ZM687.064 758.494L701.998 749.872L796.839 914.143L781.906 922.765L687.064 758.494ZM672.131 767.116L657.197 775.738L752.039 940.009L766.972 931.387L672.131 767.116ZM567.595 827.47L582.529 818.848L677.37 983.118L662.436 991.74L567.595 827.47ZM642.263 784.36L685.373 859.028L640.572 884.894L597.462 810.226L612.396 801.604L646.883 861.339L661.817 852.717L627.329 792.982L642.263 784.36ZM737.104 948.63L693.995 873.961L649.194 899.827L692.303 974.495L707.237 965.874L672.749 906.139L687.683 897.517L722.171 957.252L737.104 948.63Z" fill="#CEB2F7"/>
<path fill-rule="evenodd" clip-rule="evenodd" d="M874.891 669.964L952.489 804.367L818.086 881.965L740.488 747.562L874.891 669.964ZM881.203 646.409L716.933 741.25L811.774 905.52L976.044 810.679L881.203 646.409ZM862.268 717.075L905.378 791.743L830.709 834.853L787.6 760.184L862.268 717.075ZM868.58 693.519L764.044 753.873L824.398 858.408L928.933 798.055L868.58 693.519ZM858.267 779.121L849.645 764.187L834.711 772.809L843.333 787.743L858.267 779.121ZM811.156 766.497L855.957 740.631L881.823 785.432L837.022 811.298L811.156 766.497Z" fill="#CEB2F7"/>
<path fill-rule="evenodd" clip-rule="evenodd" d="M1155.25 707.216L1060.4 542.946L1045.47 551.568L1131.69 700.904L997.288 778.502L911.068 629.165L896.135 637.787L990.976 802.057L1155.25 707.216ZM1003.6 754.947L1048.4 729.081L970.803 594.678L955.869 603.3L1024.85 722.77L1009.91 731.391L940.936 611.922L926.002 620.544L1003.6 754.947ZM1108.13 694.593L1063.33 720.459L985.736 586.056L1000.67 577.434L1069.65 696.903L1084.58 688.281L1015.6 568.812L1030.54 560.19L1108.13 694.593Z" fill="#CEB2F7"/>
<path fill-rule="evenodd" clip-rule="evenodd" d="M104.651 1094.75L147.761 1169.42L102.96 1195.28L59.8499 1120.62L74.7836 1111.99L109.271 1171.73L124.205 1163.11L89.7172 1103.37L104.651 1094.75ZM29.9828 1137.86L44.9165 1129.24L139.758 1293.51L124.824 1302.13L29.9828 1137.86ZM0.114672 1155.1L15.0483 1146.48L109.89 1310.75L94.9561 1319.38L0.114672 1155.1ZM149.453 1068.89L164.387 1060.26L259.228 1224.53L244.295 1233.16L149.453 1068.89ZM134.518 1077.51L119.584 1086.13L214.426 1250.4L229.359 1241.78L134.518 1077.51ZM199.493 1259.02L156.383 1184.35L111.583 1210.22L154.692 1284.89L169.626 1276.27L135.138 1216.53L150.072 1207.91L184.56 1267.64L199.493 1259.02Z" fill="#CEB2F7"/>
<path fill-rule="evenodd" clip-rule="evenodd" d="M337.277 980.356L414.874 1114.76L280.472 1192.36L202.874 1057.95L337.277 980.356ZM343.589 956.8L179.318 1051.64L274.16 1215.91L438.43 1121.07L343.589 956.8ZM324.654 1027.47L367.764 1102.13L293.095 1145.24L249.986 1070.58L324.654 1027.47ZM330.966 1003.91L226.43 1064.26L286.784 1168.8L391.319 1108.45L330.966 1003.91ZM320.653 1089.51L312.031 1074.58L297.097 1083.2L305.719 1098.13L320.653 1089.51ZM273.542 1076.89L318.343 1051.02L344.209 1095.82L299.408 1121.69L273.542 1076.89Z" fill="#CEB2F7"/>
<path fill-rule="evenodd" clip-rule="evenodd" d="M617.636 1017.61L522.795 853.336L507.861 861.958L594.08 1011.29L459.678 1088.89L373.458 939.555L358.524 948.177L453.366 1112.45L617.636 1017.61ZM465.989 1065.34L510.79 1039.47L433.192 905.068L418.259 913.69L487.234 1033.16L472.301 1041.78L403.325 922.312L388.391 930.934L465.989 1065.34ZM570.524 1004.98L525.723 1030.85L448.125 896.446L463.059 887.824L532.035 1007.29L546.968 998.671L477.993 879.202L492.926 870.58L570.524 1004.98Z" fill="#CEB2F7"/>
<path fill-rule="evenodd" clip-rule="evenodd" d="M1133.55 1117.98L1211.14 1252.38L1076.74 1329.98L999.144 1195.57L1133.55 1117.98ZM1139.86 1094.42L975.589 1189.26L1070.43 1353.53L1234.7 1258.69L1139.86 1094.42ZM1120.93 1165.09L1164.04 1239.76L1089.37 1282.87L1046.26 1208.2L1120.93 1165.09ZM1127.24 1141.53L1022.7 1201.89L1083.06 1306.42L1187.59 1246.07L1127.24 1141.53ZM1116.92 1227.13L1108.3 1212.2L1093.37 1220.82L1101.99 1235.75L1116.92 1227.13ZM1069.81 1214.51L1114.61 1188.64L1140.48 1233.44L1095.68 1259.31L1069.81 1214.51Z" fill="#CEB2F7"/>
<path fill-rule="evenodd" clip-rule="evenodd" d="M279.069 396.707L294.003 388.085L388.844 552.355L373.911 560.977L279.069 396.707ZM428.407 310.487L443.341 301.865L538.182 466.136L523.248 474.758L428.407 310.487ZM413.473 319.11L398.54 327.732L493.381 492.002L508.315 483.38L413.473 319.11ZM308.937 379.463L323.871 370.841L418.713 535.111L403.779 543.733L308.937 379.463ZM383.607 336.353L426.716 411.021L381.915 436.887L338.806 362.218L353.739 353.597L388.227 413.331L403.161 404.709L368.673 344.975L383.607 336.353ZM478.447 500.623L435.337 425.955L390.536 451.821L433.646 526.489L448.58 517.867L414.092 458.133L429.025 449.511L463.513 509.245L478.447 500.623Z" fill="#CEB2F7"/>
<path fill-rule="evenodd" clip-rule="evenodd" d="M616.233 221.957L693.83 356.359L559.428 433.957L481.83 299.554L616.233 221.957ZM622.545 198.401L458.274 293.242L553.116 457.513L717.386 362.671L622.545 198.401ZM603.61 269.068L646.72 343.736L572.052 386.846L528.942 312.178L603.61 269.068ZM609.922 245.512L505.386 305.866L565.74 410.402L670.276 350.048L609.922 245.512ZM599.609 331.113L590.987 316.179L576.054 324.801L584.675 339.735L599.609 331.113ZM552.498 318.489L597.299 292.623L623.165 337.424L578.364 363.29L552.498 318.489Z" fill="#CEB2F7"/>
<path fill-rule="evenodd" clip-rule="evenodd" d="M896.589 259.209L801.748 94.9383L786.814 103.56L873.034 252.897L738.631 330.494L652.411 181.158L637.478 189.78L732.319 354.05L896.589 259.209ZM744.942 306.939L789.743 281.073L712.145 146.67L697.212 155.292L766.187 274.762L751.254 283.383L682.278 163.914L667.344 172.536L744.942 306.939ZM849.477 246.586L804.676 272.452L727.079 138.049L742.012 129.427L810.988 248.896L825.921 240.274L756.946 120.805L771.88 112.183L849.477 246.586Z" fill="#CEB2F7"/>
<path fill-rule="evenodd" clip-rule="evenodd" d="M-258.545 707.097L-243.611 698.475L-148.77 862.745L-163.703 871.367L-258.545 707.097ZM-109.206 620.877L-94.2727 612.256L0.568721 776.526L-14.3649 785.148L-109.206 620.877ZM-124.141 629.499L-139.075 638.121L-44.2331 802.391L-29.2994 793.769L-124.141 629.499ZM-228.676 689.853L-213.742 681.231L-118.901 845.501L-133.834 854.123L-228.676 689.853ZM-154.008 646.743L-110.898 721.411L-155.699 747.277L-198.809 672.609L-183.875 663.987L-149.387 723.722L-134.454 715.1L-168.941 655.365L-154.008 646.743ZM-59.1664 811.014L-102.276 736.346L-147.077 762.211L-103.967 836.88L-89.0337 828.258L-123.522 768.523L-108.588 759.901L-74.1001 819.636L-59.1664 811.014Z" fill="#CEB2F7"/>
<path fill-rule="evenodd" clip-rule="evenodd" d="M78.6177 532.348L156.215 666.751L21.8123 744.349L-55.7852 609.946L78.6177 532.348ZM84.9294 508.793L-79.3408 603.634L15.5006 767.904L179.771 673.063L84.9294 508.793ZM65.9947 579.46L109.104 654.128L34.4362 697.238L-8.67356 622.569L65.9947 579.46ZM72.3064 555.904L-32.2292 616.258L28.1245 720.793L132.66 660.44L72.3064 555.904ZM61.9926 641.505L53.3707 626.571L38.437 635.193L47.059 650.127L61.9926 641.505ZM14.8814 628.881L59.6824 603.015L85.5482 647.816L40.7473 673.682L14.8814 628.881Z" fill="#CEB2F7"/>
<path fill-rule="evenodd" clip-rule="evenodd" d="M358.976 569.599L264.134 405.329L249.201 413.951L335.42 563.287L201.017 640.885L114.798 491.548L99.8643 500.17L194.706 664.441L358.976 569.599ZM207.329 617.33L252.13 591.464L174.532 457.061L159.599 465.683L228.574 585.152L213.641 593.774L144.665 474.305L129.731 482.927L207.329 617.33ZM311.864 556.977L267.063 582.842L189.466 448.44L204.399 439.818L273.375 559.287L288.309 550.665L219.333 431.196L234.267 422.574L311.864 556.977Z" fill="#CEB2F7"/>
<path fill-rule="evenodd" clip-rule="evenodd" d="M846.549 69.0728L861.482 60.4508L956.324 224.721L941.39 233.343L846.549 69.0728ZM966.019 0.0982102L980.953 -8.52374L1075.79 155.746L1060.86 164.368L966.019 0.0982102ZM816.682 86.3178L831.616 77.6959L926.458 241.966L911.524 250.588L816.682 86.3178ZM951.086 8.72029L936.152 17.3422L1030.99 181.612L1045.93 172.99L951.086 8.72029ZM921.219 25.9634L964.328 100.632L919.527 126.498L876.418 51.8293L891.351 43.2073L925.839 102.942L940.773 94.32L906.285 34.5854L921.219 25.9634ZM1016.06 190.234L972.949 115.565L928.148 141.431L971.258 216.099L986.192 207.477L951.704 147.743L966.637 139.121L1001.13 198.855L1016.06 190.234Z" fill="#CEB2F7"/>
</g>
</g>
<defs>
<clipPath id="clip0_519_13492">
<rect width="1238.19" height="1117" fill="white" transform="translate(-256.962)"/>
</clipPath>
<clipPath id="clip1_519_13492">
<rect width="4811.05" height="2086.51" fill="white" transform="translate(-2242.74 857.096) rotate(-30)"/>
</clipPath>
</defs>
</svg>
