<?xml version="1.0" encoding="UTF-8"?>
<svg id="a" data-name="Ebene 1" xmlns="http://www.w3.org/2000/svg" viewBox="0 0 560 625">
  <defs>
    <style>
      .b {
        fill: #f4ece0;
        stroke-width: 0px;
      }
    </style>
  </defs>
  <path class="b" d="m280,306l22.49-13L55.49,150l-22.49,13,247,143Z"/>
  <path class="b" d="m257.51,33l247,143,22.49-13L280,20l-22.49,13Z"/>
  <path class="b" d="m459.66,202l22.49-13L235.15,46l-22.49,13,247,143Z"/>
  <path class="b" d="m324.85,280l22.49-13L100.34,124l-22.49,13,247,143Z"/>
  <path class="b" d="m190.17,72l112.32,65-67.34,39-112.32-65,22.49-13,89.83,52,22.36-13-89.83-52,22.49-13Z"/>
  <path class="b" d="m324.85,150l112.32,65-22.49,13-89.83-52-22.36,13,89.83,52-22.49,13-112.32-65,67.34-39Z"/>
  <path class="b" d="m540,462V176l-22.49,13v260l-202.02,117v-260l-22.49,13v286l247-143Z"/>
  <path class="b" d="m337.85,527l67.47-39v-234l-22.49,13v208l-22.49,13v-208l-22.49,13v234Z"/>
  <path class="b" d="m427.68,475l67.47-39v-234l-22.49,13v208l-22.49,13v-208l-22.49,13v234Z"/>
  <path class="b" d="m244.51,332v234l-202.02-117v-234l202.15,117m22.49-13L20,176v286l247,143v-286h.13Z"/>
  <path class="b" d="m199.66,358v130l-112.32-65v-130l112.32,65Zm22.49-13l-157.17-91v182l157.17,91v-182Z"/>
  <path class="b" d="m154.68,384v26l-22.49-13v-26l22.49,13Zm22.49-13l-67.34-39v78l67.34,39v-78Z"/>
</svg>