<svg width="166" height="165" viewBox="0 0 166 165" fill="none" xmlns="http://www.w3.org/2000/svg">
<g clip-path="url(#clip0_260_33134)">
<g clip-path="url(#clip1_260_33134)">
<path d="M23.8919 133.598L-7.2207 164.711L-4.39228 167.539L26.7204 136.427L23.8919 133.598Z" fill="#5BBE6D"/>
<path d="M12.5784 156.225L9.75 159.054L35.2058 184.51L38.0342 181.681L12.5784 156.225Z" fill="#5BBE6D"/>
<path d="M18.2347 150.569L15.4062 153.397L40.8621 178.853L43.6905 176.025L18.2347 150.569Z" fill="#5BBE6D"/>
<path d="M46.5193 173.196L49.3477 170.368L26.7203 147.74L32.3772 142.083L29.5487 139.255L21.0635 147.74L46.5193 173.196Z" fill="#5BBE6D"/>
<path d="M1.26495 173.197L6.92179 167.54L29.5492 190.167L32.3776 187.339L6.92179 161.883L-1.56348 170.368L1.26495 173.197Z" fill="#5BBE6D"/>
</g>
<g clip-path="url(#clip2_260_33134)">
<path d="M60.6614 -21.9661L57.833 -19.1377L83.2888 6.31811L86.1172 3.48969L60.6614 -21.9661Z" fill="#5BBE6D"/>
<path d="M66.3177 -27.6224L63.4893 -24.7939L88.9451 0.661861L91.7735 -2.16656L66.3177 -27.6224Z" fill="#5BBE6D"/>
<path d="M49.348 -4.99482L55.0048 -10.6517L77.6322 11.9757L80.4606 9.1473L55.0048 -16.3085L46.5195 -7.82324L49.348 -4.99482Z" fill="#5BBE6D"/>
</g>
<g clip-path="url(#clip3_260_33134)">
<path d="M137.029 20.4616L105.916 51.5742L108.744 54.4026L139.857 23.29L137.029 20.4616Z" fill="#5BBE6D"/>
<path d="M125.715 43.0886L122.887 45.917L148.343 71.3728L151.171 68.5444L125.715 43.0886Z" fill="#5BBE6D"/>
<path d="M131.371 37.4323L128.543 40.2607L153.999 65.7165L156.827 62.8881L131.371 37.4323Z" fill="#5BBE6D"/>
<path d="M159.656 60.0593L162.484 57.2309L139.857 34.6035L145.514 28.9467L142.685 26.1182L134.2 34.6035L159.656 60.0593Z" fill="#5BBE6D"/>
<path d="M114.402 60.0599L120.059 54.403L142.686 77.0304L145.514 74.202L120.059 48.7462L111.573 57.2314L114.402 60.0599Z" fill="#5BBE6D"/>
</g>
<g clip-path="url(#clip4_260_33134)">
<path d="M15.4066 11.9752L-15.7061 43.0879L-12.8776 45.9163L18.235 14.8037L15.4066 11.9752Z" fill="#5BBE6D"/>
<path d="M4.09307 34.6032L1.26465 37.4316L26.7205 62.8874L29.5489 60.059L4.09307 34.6032Z" fill="#5BBE6D"/>
<path d="M9.7503 28.946L6.92188 31.7744L32.3777 57.2302L35.2061 54.4018L9.7503 28.946Z" fill="#5BBE6D"/>
<path d="M38.0339 51.573L40.8624 48.7446L18.235 26.1172L23.8918 20.4603L21.0634 17.6319L12.5781 26.1172L38.0339 51.573Z" fill="#5BBE6D"/>
<path d="M-7.22041 51.5735L-1.56356 45.9167L21.0638 68.5441L23.8922 65.7157L-1.56356 40.2598L-10.0488 48.7451L-7.22041 51.5735Z" fill="#5BBE6D"/>
</g>
<g clip-path="url(#clip5_260_33134)">
<path d="M145.514 142.084L114.401 173.196L117.23 176.025L148.342 144.912L145.514 142.084Z" fill="#5BBE6D"/>
<path d="M134.2 164.711L131.372 167.539L156.828 192.995L159.656 190.166L134.2 164.711Z" fill="#5BBE6D"/>
<path d="M139.857 159.054L137.028 161.883L162.484 187.339L165.313 184.51L139.857 159.054Z" fill="#5BBE6D"/>
<path d="M168.141 181.681L170.97 178.853L148.342 156.226L153.999 150.569L151.171 147.74L142.686 156.226L168.141 181.681Z" fill="#5BBE6D"/>
</g>
<g clip-path="url(#clip6_260_33134)">
<path d="M80.4603 77.0289L49.3477 108.142L52.1761 110.97L83.2887 79.8574L80.4603 77.0289Z" fill="#5BBE6D"/>
<path d="M69.1468 99.656L66.3184 102.484L91.7742 127.94L94.6026 125.112L69.1468 99.656Z" fill="#5BBE6D"/>
<path d="M74.803 93.9997L71.9746 96.8281L97.4304 122.284L100.259 119.456L74.803 93.9997Z" fill="#5BBE6D"/>
<path d="M103.088 116.627L105.916 113.798L83.2887 91.1709L88.9455 85.5141L86.1171 82.6856L77.6318 91.1709L103.088 116.627Z" fill="#5BBE6D"/>
<path d="M57.8333 116.627L63.4902 110.97L86.1175 133.598L88.946 130.769L63.4902 105.314L55.0049 113.799L57.8333 116.627Z" fill="#5BBE6D"/>
</g>
<g clip-path="url(#clip7_260_33134)">
</g>
<g clip-path="url(#clip8_260_33134)">
<path d="M21.0641 23.2894L52.1768 -7.82324L49.3483 -10.6517L18.2357 20.461L21.0641 23.2894Z" fill="#5BBE6D"/>
<path d="M32.3776 0.661431L35.2061 -2.16699L9.75025 -27.6228L6.92182 -24.7944L32.3776 0.661431Z" fill="#5BBE6D"/>
<path d="M26.7214 6.31866L29.5498 3.49023L4.094 -21.9656L1.26557 -19.1371L26.7214 6.31866Z" fill="#5BBE6D"/>
<path d="M-1.56323 -16.3083L-4.39165 -13.4799L18.2357 9.14746L12.5789 14.8043L15.4073 17.6327L23.8926 9.14746L-1.56323 -16.3083Z" fill="#5BBE6D"/>
</g>
<g clip-path="url(#clip9_260_33134)">
<path d="M151.171 153.397L182.283 122.284L179.455 119.456L148.342 150.568L151.171 153.397Z" fill="#5BBE6D"/>
<path d="M162.484 130.77L165.312 127.941L139.857 102.486L137.028 105.314L162.484 130.77Z" fill="#5BBE6D"/>
<path d="M156.828 136.426L159.656 133.598L134.2 108.142L131.372 110.97L156.828 136.426Z" fill="#5BBE6D"/>
<path d="M128.543 113.799L125.715 116.628L148.342 139.255L142.685 144.912L145.514 147.74L153.999 139.255L128.543 113.799Z" fill="#5BBE6D"/>
<path d="M173.798 113.799L168.141 119.455L145.513 96.828L142.685 99.6564L168.141 125.112L176.626 116.627L173.798 113.799Z" fill="#5BBE6D"/>
</g>
<g clip-path="url(#clip10_260_33134)">
</g>
<g clip-path="url(#clip11_260_33134)">
<path d="M86.1168 88.3431L117.229 57.2305L114.401 54.402L83.2884 85.5147L86.1168 88.3431Z" fill="#5BBE6D"/>
<path d="M97.4304 65.7161L100.259 62.8877L74.803 37.4319L71.9746 40.2603L97.4304 65.7161Z" fill="#5BBE6D"/>
<path d="M91.7741 71.3724L94.6025 68.5439L69.1467 43.0881L66.3183 45.9166L91.7741 71.3724Z" fill="#5BBE6D"/>
<path d="M63.4895 48.7454L60.6611 51.5738L83.2885 74.2012L77.6316 79.858L80.46 82.6864L88.9453 74.2012L63.4895 48.7454Z" fill="#5BBE6D"/>
<path d="M108.745 48.7458L103.088 54.4026L80.4606 31.7753L77.6322 34.6037L103.088 60.0595L111.573 51.5742L108.745 48.7458Z" fill="#5BBE6D"/>
</g>
<g clip-path="url(#clip12_260_33134)">
<path d="M105.916 187.339L108.744 184.511L83.2883 159.055L80.4599 161.883L105.916 187.339Z" fill="#5BBE6D"/>
<path d="M100.259 192.995L103.088 190.167L77.6321 164.711L74.8037 167.54L100.259 192.995Z" fill="#5BBE6D"/>
<path d="M117.229 170.368L111.572 176.025L88.945 153.397L86.1165 156.226L111.572 181.682L120.058 173.196L117.229 170.368Z" fill="#5BBE6D"/>
</g>
<g clip-path="url(#clip13_260_33134)">
<path d="M29.5485 144.911L60.6611 113.799L57.8327 110.97L26.7201 142.083L29.5485 144.911Z" fill="#5BBE6D"/>
<path d="M40.862 122.284L43.6904 119.456L18.2346 94.0003L15.4062 96.8287L40.862 122.284Z" fill="#5BBE6D"/>
<path d="M35.2058 127.941L38.0342 125.112L12.5784 99.6565L9.74995 102.485L35.2058 127.941Z" fill="#5BBE6D"/>
<path d="M6.92115 105.314L4.09272 108.142L26.7201 130.77L21.0633 136.426L23.8917 139.255L32.377 130.77L6.92115 105.314Z" fill="#5BBE6D"/>
<path d="M52.1765 105.314L46.5196 110.971L23.8922 88.3436L21.0638 91.172L46.5196 116.628L55.0049 108.143L52.1765 105.314Z" fill="#5BBE6D"/>
</g>
<g clip-path="url(#clip14_260_33134)">
<path d="M142.685 31.7748L173.798 0.662109L170.969 -2.16631L139.857 28.9463L142.685 31.7748Z" fill="#5BBE6D"/>
<path d="M153.999 9.14776L156.827 6.31934L131.371 -19.1365L128.543 -16.308L153.999 9.14776Z" fill="#5BBE6D"/>
<path d="M148.342 14.804L151.171 11.9756L125.715 -13.4802L122.887 -10.6518L148.342 14.804Z" fill="#5BBE6D"/>
<path d="M120.058 -7.82299L117.229 -4.99457L139.857 17.6328L134.2 23.2897L137.028 26.1181L145.514 17.6328L120.058 -7.82299Z" fill="#5BBE6D"/>
<path d="M165.313 -7.82256L159.656 -2.16572L137.029 -24.7931L134.201 -21.9647L159.656 3.49113L168.142 -4.99414L165.313 -7.82256Z" fill="#5BBE6D"/>
</g>
<path d="M23.8916 26.1182L55.0043 57.2308L57.8327 54.4024L29.5484 26.1182L55.0043 0.662359L83.2885 28.9466L86.1169 26.1182L55.0043 -4.99449L23.8916 26.1182Z" fill="#5BBE6D"/>
<path d="M55.0048 6.31942L46.5195 14.8047L71.9753 40.2605L74.8038 37.4321L52.1764 14.8047L55.0048 11.9763L77.6322 34.6036L80.4606 31.7752L55.0048 6.31942Z" fill="#5BBE6D"/>
<path d="M43.6903 17.6329L35.2051 26.1182L60.6609 51.574L63.4893 48.7455L40.8619 26.1182L43.6903 23.2897L66.3177 45.9171L69.1462 43.0887L43.6903 17.6329Z" fill="#5BBE6D"/>
<path d="M153.999 156.226L185.112 187.338L187.94 184.51L159.656 156.226L185.112 130.77L213.396 159.054L216.224 156.226L185.112 125.113L153.999 156.226Z" fill="#5BBE6D"/>
<path d="M173.798 147.74L165.312 156.226L190.768 181.681L193.597 178.853L170.969 156.226L173.798 153.397L196.425 176.025L199.254 173.196L173.798 147.74Z" fill="#5BBE6D"/>
<path d="M88.9453 91.1719L120.058 122.285L122.886 119.456L94.6022 91.1719L120.058 65.7161L148.342 94.0003L151.171 91.1719L120.058 60.0592L88.9453 91.1719Z" fill="#5BBE6D"/>
<path d="M120.058 71.3731L111.572 79.8584L137.028 105.314L139.856 102.486L117.229 79.8584L120.058 77.03L142.685 99.6574L145.513 96.8289L120.058 71.3731Z" fill="#5BBE6D"/>
<path d="M108.744 82.6866L100.259 91.1719L125.715 116.628L128.543 113.799L105.916 91.1719L108.744 88.3435L131.371 110.971L134.2 108.142L108.744 82.6866Z" fill="#5BBE6D"/>
<path d="M-32.6768 82.6865L-1.56411 113.799L1.26432 110.971L-27.0199 82.6865L-1.56411 57.2307L26.7201 85.5149L29.5485 82.6865L-1.56411 51.5739L-32.6768 82.6865Z" fill="#5BBE6D"/>
<path d="M-1.56356 62.8888L-10.0488 71.374L15.407 96.8298L18.2354 94.0014L-4.39198 71.374L-1.56356 68.5456L21.0638 91.173L23.8922 88.3446L-1.56356 62.8888Z" fill="#5BBE6D"/>
<path d="M-12.878 74.2013L-21.3633 82.6865L4.09252 108.142L6.92095 105.314L-15.7064 82.6865L-12.878 79.8581L9.74937 102.485L12.5778 99.6571L-12.878 74.2013Z" fill="#5BBE6D"/>
<path d="M32.3779 147.74L63.4906 178.853L66.319 176.024L38.0348 147.74L63.4906 122.284L91.7748 150.569L94.6032 147.74L63.4906 116.628L32.3779 147.74Z" fill="#5BBE6D"/>
<path d="M63.4902 127.941L55.0049 136.427L80.4607 161.883L83.2891 159.054L60.6617 136.427L63.4902 133.598L86.1175 156.226L88.946 153.397L63.4902 127.941Z" fill="#5BBE6D"/>
<path d="M52.1767 139.255L43.6914 147.74L69.1472 173.196L71.9756 170.368L49.3483 147.74L52.1767 144.912L74.8041 167.539L77.6325 164.711L52.1767 139.255Z" fill="#5BBE6D"/>
<path d="M80.46 -30.4502L111.573 0.662457L114.401 -2.16597L86.1168 -30.4502L111.573 -55.906L139.857 -27.6218L142.685 -30.4502L111.573 -61.5628L80.46 -30.4502Z" fill="#5BBE6D"/>
<path d="M145.514 34.6035L176.626 65.7162L179.455 62.8877L151.171 34.6035L176.626 9.14771L204.911 37.4319L207.739 34.6035L176.626 3.49086L145.514 34.6035Z" fill="#5BBE6D"/>
<path d="M165.312 26.1182L156.827 34.6035L182.283 60.0593L185.111 57.2309L162.484 34.6035L165.312 31.7751L187.94 54.4025L190.768 51.5741L165.312 26.1182Z" fill="#5BBE6D"/>
<path d="M23.8916 195.823L55.0043 226.936L57.8327 224.107L29.5484 195.823L55.0043 170.367L83.2885 198.652L86.1169 195.823L55.0043 164.711L23.8916 195.823Z" fill="#5BBE6D"/>
<path d="M137.028 82.6865L168.141 113.799L170.969 110.971L142.685 82.6865L168.141 57.2307L196.425 85.5149L199.254 82.6865L168.141 51.5739L137.028 82.6865Z" fill="#5BBE6D"/>
<path d="M168.142 62.8888L159.656 71.374L185.112 96.8298L187.94 94.0014L165.313 71.374L168.142 68.5456L190.769 91.173L193.597 88.3446L168.142 62.8888Z" fill="#5BBE6D"/>
<path d="M156.827 74.2013L148.342 82.6865L173.798 108.142L176.626 105.314L153.999 82.6865L156.827 79.8581L179.454 102.485L182.283 99.6571L156.827 74.2013Z" fill="#5BBE6D"/>
<path d="M-41.1621 130.77L-10.0495 161.882L-7.22103 159.054L-35.5053 130.77L-10.0495 105.314L18.2348 133.598L21.0632 130.77L-10.0495 99.6569L-41.1621 130.77Z" fill="#5BBE6D"/>
<path d="M-10.0499 110.971L-18.5352 119.456L6.92065 144.912L9.74907 142.083L-12.8783 119.456L-10.0499 116.628L12.5775 139.255L15.4059 136.427L-10.0499 110.971Z" fill="#5BBE6D"/>
<path d="M-21.3634 122.284L-29.8486 130.77L-4.39283 156.225L-1.5644 153.397L-24.1918 130.77L-21.3634 127.941L1.26402 150.568L4.09244 147.74L-21.3634 122.284Z" fill="#5BBE6D"/>
<path d="M71.9746 17.6328L103.087 48.7455L105.916 45.917L77.6315 17.6328L103.087 -7.82299L131.371 20.4612L134.2 17.6328L103.087 -13.4798L71.9746 17.6328Z" fill="#5BBE6D"/>
<path d="M103.087 -2.16593L94.6016 6.31934L120.057 31.7751L122.886 28.9467L100.258 6.31934L103.087 3.49091L125.714 26.1183L128.543 23.2899L103.087 -2.16593Z" fill="#5BBE6D"/>
<path d="M91.7734 9.14754L83.2881 17.6328L108.744 43.0886L111.572 40.2602L88.9449 17.6328L91.7734 14.8044L114.401 37.4318L117.229 34.6034L91.7734 9.14754Z" fill="#5BBE6D"/>
<path d="M-49.6475 9.14746L-18.5348 40.2601L-15.7064 37.4317L-43.9906 9.14746L-18.5348 -16.3083L9.74942 11.9759L12.5778 9.14746L-18.5348 -21.9652L-49.6475 9.14746Z" fill="#5BBE6D"/>
<path d="M-18.5343 -10.6513L-27.0195 -2.16602L-1.56373 23.2898L1.2647 20.4614L-21.3627 -2.16602L-18.5343 -4.99444L4.09312 17.6329L6.92154 14.8045L-18.5343 -10.6513Z" fill="#5BBE6D"/>
<path d="M80.46 139.255L111.573 170.368L114.401 167.539L86.1168 139.255L111.573 113.799L139.857 142.083L142.685 139.255L111.573 108.142L80.46 139.255Z" fill="#5BBE6D"/>
<path d="M111.573 119.456L103.088 127.941L128.544 153.397L131.372 150.569L108.745 127.941L111.573 125.113L134.201 147.74L137.029 144.912L111.573 119.456Z" fill="#5BBE6D"/>
<path d="M100.259 130.77L91.7734 139.255L117.229 164.711L120.058 161.882L97.4303 139.255L100.259 136.426L122.886 159.054L125.715 156.225L100.259 130.77Z" fill="#5BBE6D"/>
<path d="M18.2354 77.0293L49.348 108.142L52.1764 105.314L23.8922 77.0293L49.348 51.5735L77.6322 79.8577L80.4607 77.0293L49.348 45.9166L18.2354 77.0293Z" fill="#5BBE6D"/>
<path d="M49.3476 57.2306L40.8623 65.7158L66.3181 91.1716L69.1465 88.3432L46.5192 65.7158L49.3476 62.8874L71.975 85.5148L74.8034 82.6864L49.3476 57.2306Z" fill="#5BBE6D"/>
<path d="M38.0341 68.544L29.5488 77.0293L55.0046 102.485L57.8331 99.6567L35.2057 77.0293L38.0341 74.2009L60.6615 96.8283L63.4899 93.9998L38.0341 68.544Z" fill="#5BBE6D"/>
</g>
<defs>
<clipPath id="clip0_260_33134">
<rect x="0.5" width="165" height="165" rx="82.5" fill="white"/>
</clipPath>
<clipPath id="clip1_260_33134">
<rect width="43.9999" height="43.9999" fill="white" transform="translate(-7.2207 164.711) rotate(-45)"/>
</clipPath>
<clipPath id="clip2_260_33134">
<rect width="43.9999" height="43.9999" fill="white" transform="translate(40.8623 -13.4805) rotate(-45)"/>
</clipPath>
<clipPath id="clip3_260_33134">
<rect width="43.9999" height="43.9999" fill="white" transform="translate(105.916 51.5742) rotate(-45)"/>
</clipPath>
<clipPath id="clip4_260_33134">
<rect width="43.9999" height="43.9999" fill="white" transform="translate(-15.7061 43.0879) rotate(-45)"/>
</clipPath>
<clipPath id="clip5_260_33134">
<rect width="43.9999" height="43.9999" fill="white" transform="translate(114.401 173.196) rotate(-45)"/>
</clipPath>
<clipPath id="clip6_260_33134">
<rect width="43.9999" height="43.9999" fill="white" transform="translate(49.3477 108.142) rotate(-45)"/>
</clipPath>
<clipPath id="clip7_260_33134">
<rect width="43.9999" height="43.9999" fill="white" transform="translate(162.484 -4.99512) rotate(-45)"/>
</clipPath>
<clipPath id="clip8_260_33134">
<rect width="43.9999" height="43.9999" fill="white" transform="translate(52.1768 -7.82324) rotate(135)"/>
</clipPath>
<clipPath id="clip9_260_33134">
<rect width="43.9999" height="43.9999" fill="white" transform="translate(182.283 122.284) rotate(135)"/>
</clipPath>
<clipPath id="clip10_260_33134">
<rect width="43.9999" height="43.9999" fill="white" transform="translate(4.09277 170.367) rotate(135)"/>
</clipPath>
<clipPath id="clip11_260_33134">
<rect width="43.9999" height="43.9999" fill="white" transform="translate(117.229 57.2305) rotate(135)"/>
</clipPath>
<clipPath id="clip12_260_33134">
<rect width="43.9999" height="43.9999" fill="white" transform="translate(125.715 178.854) rotate(135)"/>
</clipPath>
<clipPath id="clip13_260_33134">
<rect width="43.9999" height="43.9999" fill="white" transform="translate(60.6611 113.799) rotate(135)"/>
</clipPath>
<clipPath id="clip14_260_33134">
<rect width="43.9999" height="43.9999" fill="white" transform="translate(173.798 0.662109) rotate(135)"/>
</clipPath>
</defs>
</svg>
