<svg width="1568" height="458" viewBox="0 0 1568 458" fill="none" xmlns="http://www.w3.org/2000/svg">
<g clip-path="url(#clip0_242_123519)">
<rect width="1568" height="457.127" fill="#59AAF3"/>
<g clip-path="url(#clip1_242_123519)">
<path fill-rule="evenodd" clip-rule="evenodd" d="M-32.6978 -111.835L20.4464 -19.7863L-71.6021 33.358L-124.746 -58.6905L-32.6978 -111.835ZM-28.3751 -127.967L-140.879 -63.0132L-75.9248 49.4905L36.579 -15.4636L-28.3751 -127.967ZM-41.343 -79.5693L-11.8185 -28.4312L-62.9565 1.09337L-92.4811 -50.0447L-41.343 -79.5693ZM-37.0203 -95.7018L-108.614 -54.3674L-67.2792 17.2259L4.31408 -24.1085L-37.0203 -95.7018ZM-44.0845 -37.0769L-49.9894 -47.3045L-60.217 -41.3996L-54.3121 -31.1719L-44.0845 -37.0769ZM-76.3495 -45.7223L-45.6667 -63.437L-27.9519 -32.7542L-58.6348 -15.0394L-76.3495 -45.7223Z" fill="#202124"/>
<path fill-rule="evenodd" clip-rule="evenodd" d="M409.747 560.024L440.43 542.309L387.285 450.261L377.058 456.166L424.297 537.987L414.069 543.892L366.83 462.071L356.602 467.976L409.747 560.024ZM513.605 527.335L448.651 414.831L438.424 420.736L497.473 523.013L405.424 576.157L346.375 473.881L336.148 479.786L401.102 592.289L513.605 527.335ZM481.34 518.69L450.657 536.405L397.513 444.356L407.741 438.451L454.98 520.272L465.207 514.367L417.968 432.546L428.196 426.641L481.34 518.69Z" fill="#202124"/>
<path fill-rule="evenodd" clip-rule="evenodd" d="M929.348 137.3L939.576 131.395L1004.53 243.899L994.302 249.804L929.348 137.3ZM827.071 196.35L837.299 190.445L902.253 302.948L892.025 308.853L827.071 196.35ZM919.121 143.205L908.894 149.11L973.848 261.614L984.075 255.709L919.121 143.205ZM847.527 184.54L857.755 178.635L922.709 291.139L912.481 297.044L847.527 184.54ZM898.665 155.015L928.189 206.153L897.506 223.868L867.982 172.73L878.209 166.825L901.829 207.735L912.057 201.83L888.437 160.92L898.665 155.015ZM963.618 267.519L934.094 216.381L903.411 234.095L932.936 285.233L943.163 279.329L919.544 238.418L929.771 232.513L953.391 273.424L963.618 267.519Z" fill="#202124"/>
<path fill-rule="evenodd" clip-rule="evenodd" d="M1057.98 76.6684L1111.13 168.717L1019.08 221.861L965.935 129.813L1057.98 76.6684ZM1062.31 60.5358L949.803 125.49L1014.76 237.994L1127.26 173.04L1062.31 60.5358ZM1049.34 108.934L1078.86 160.072L1027.73 189.596L998.201 138.458L1049.34 108.934ZM1053.66 92.8012L982.068 134.136L1023.4 205.729L1095 164.394L1053.66 92.8012ZM1046.6 151.426L1040.69 141.199L1030.47 147.104L1036.37 157.331L1046.6 151.426ZM1014.33 142.781L1045.02 125.066L1062.73 155.749L1032.05 173.464L1014.33 142.781Z" fill="#202124"/>
<path fill-rule="evenodd" clip-rule="evenodd" d="M1146.13 134.87L1176.82 117.155L1123.67 25.1068L1113.44 31.0117L1160.68 112.833L1150.46 118.738L1103.22 36.9166L1092.99 42.8215L1146.13 134.87ZM1249.99 102.181L1185.04 -10.3224L1174.81 -4.41748L1233.86 97.8587L1141.81 151.003L1082.76 48.7268L1072.53 54.6317L1137.49 167.135L1249.99 102.181ZM1217.73 93.5358L1187.04 111.251L1133.9 19.202L1144.13 13.2971L1191.37 95.118L1201.59 89.2131L1154.35 7.39215L1164.58 1.48724L1217.73 93.5358Z" fill="#202124"/>
<path fill-rule="evenodd" clip-rule="evenodd" d="M561.154 349.877L571.382 343.972L636.336 456.476L626.108 462.38L561.154 349.877ZM458.878 408.926L469.106 403.021L534.06 515.525L523.832 521.43L458.878 408.926ZM550.927 355.782L540.699 361.687L605.653 474.19L615.881 468.285L550.927 355.782ZM479.334 397.116L489.562 391.211L554.516 503.715L544.288 509.62L479.334 397.116ZM530.472 367.591L559.996 418.729L529.313 436.444L499.789 385.306L510.016 379.401L533.636 420.312L543.864 414.407L520.244 373.496L530.472 367.591ZM595.425 480.095L565.901 428.957L535.218 446.672L564.742 497.81L574.97 491.905L551.35 450.994L561.578 445.089L585.198 486L595.425 480.095Z" fill="#202124"/>
<path fill-rule="evenodd" clip-rule="evenodd" d="M689.79 289.246L742.935 381.294L650.886 434.438L597.742 342.39L689.79 289.246ZM694.113 273.113L581.609 338.067L646.563 450.571L759.067 385.617L694.113 273.113ZM681.145 321.511L710.67 372.649L659.532 402.174L630.007 351.035L681.145 321.511ZM685.468 305.378L613.875 346.713L655.209 418.306L726.802 376.972L685.468 305.378ZM678.404 364.003L672.499 353.776L662.271 359.681L668.176 369.908L678.404 364.003ZM646.139 355.358L676.822 337.643L694.536 368.326L663.853 386.041L646.139 355.358Z" fill="#202124"/>
<path fill-rule="evenodd" clip-rule="evenodd" d="M777.941 347.446L808.624 329.732L755.48 237.683L745.252 243.588L792.491 325.409L782.264 331.314L735.024 249.493L724.797 255.398L777.941 347.446ZM881.8 314.758L816.846 202.254L806.618 208.159L865.667 310.435L773.619 363.579L714.57 261.303L704.342 267.208L769.296 379.712L881.8 314.758ZM849.534 306.112L818.852 323.827L765.707 231.778L775.935 225.873L823.174 307.694L833.402 301.789L786.162 219.969L796.39 214.064L849.534 306.112Z" fill="#202124"/>
<path fill-rule="evenodd" clip-rule="evenodd" d="M1266.86 -57.5621L1296.38 -6.42404L1265.7 11.2907L1236.18 -39.8474L1246.4 -45.7523L1270.02 -4.84183L1280.25 -10.7467L1256.63 -51.6572L1266.86 -57.5621ZM1287.31 -69.3718L1277.09 -63.4669L1342.04 49.0369L1352.27 43.132L1287.31 -69.3718ZM1195.27 -16.2277L1205.49 -22.1326L1270.45 90.3711L1260.22 96.2761L1195.27 -16.2277ZM1297.54 -75.2765L1307.77 -81.1814L1372.72 31.3223L1362.5 37.2273L1297.54 -75.2765ZM1215.72 -28.0375L1225.95 -33.9424L1290.9 78.5614L1280.68 84.4663L1215.72 -28.0375ZM1331.81 54.9418L1302.29 3.8037L1271.61 21.5185L1301.13 72.6565L1311.36 66.7516L1287.74 25.8412L1297.97 19.9362L1321.59 60.8467L1331.81 54.9418Z" fill="#202124"/>
<path fill-rule="evenodd" clip-rule="evenodd" d="M1426.18 -135.908L1479.32 -43.8595L1387.27 9.28472L1334.13 -82.7638L1426.18 -135.908ZM1430.5 -152.041L1318 -87.0865L1382.95 25.4173L1495.45 -39.5368L1430.5 -152.041ZM1417.53 -103.643L1447.06 -52.5047L1395.92 -22.9801L1366.39 -74.1182L1417.53 -103.643ZM1421.86 -119.775L1350.26 -78.4409L1391.6 -6.84756L1463.19 -48.182L1421.86 -119.775ZM1414.79 -61.15L1408.89 -71.3776L1398.66 -65.4727L1404.56 -55.2451L1414.79 -61.15ZM1382.53 -69.7954L1413.21 -87.5101L1430.93 -56.8273L1400.24 -39.1126L1382.53 -69.7954Z" fill="#202124"/>
<path fill-rule="evenodd" clip-rule="evenodd" d="M1075.81 461.843L1105.34 512.981L1074.65 530.696L1045.13 479.558L1055.36 473.653L1078.98 514.563L1089.2 508.658L1065.58 467.748L1075.81 461.843ZM1004.22 503.177L1014.45 497.273L1079.4 609.776L1069.17 615.681L1004.22 503.177ZM1106.5 444.128L1116.72 438.223L1181.68 550.727L1171.45 556.632L1106.5 444.128ZM1096.27 450.033L1086.04 455.938L1151 568.441L1161.22 562.537L1096.27 450.033ZM1024.67 491.368L1034.9 485.463L1099.86 597.966L1089.63 603.871L1024.67 491.368ZM1140.77 574.347L1111.24 523.209L1080.56 540.923L1110.08 592.061L1120.31 586.156L1096.69 545.246L1106.92 539.341L1130.54 580.252L1140.77 574.347Z" fill="#202124"/>
<path fill-rule="evenodd" clip-rule="evenodd" d="M1235.13 383.496L1288.28 475.545L1196.23 528.689L1143.08 436.641L1235.13 383.496ZM1239.45 367.364L1126.95 432.318L1191.9 544.822L1304.41 479.867L1239.45 367.364ZM1226.49 415.762L1256.01 466.9L1204.87 496.424L1175.35 445.286L1226.49 415.762ZM1230.81 399.629L1159.22 440.963L1200.55 512.557L1272.14 471.222L1230.81 399.629ZM1223.75 458.254L1217.84 448.027L1207.61 453.932L1213.52 464.159L1223.75 458.254ZM1191.48 449.609L1222.16 431.894L1239.88 462.577L1209.2 480.292L1191.48 449.609Z" fill="#202124"/>
<path fill-rule="evenodd" clip-rule="evenodd" d="M1323.28 441.698L1353.96 423.983L1300.82 331.935L1290.59 337.84L1337.83 419.66L1327.6 425.565L1280.37 343.744L1270.14 349.649L1323.28 441.698ZM1427.14 409.009L1362.19 296.506L1351.96 302.41L1411.01 404.687L1318.96 457.831L1259.91 355.555L1249.68 361.46L1314.64 473.963L1427.14 409.009ZM1394.88 400.364L1364.19 418.078L1311.05 326.03L1321.28 320.125L1368.51 401.946L1378.74 396.041L1331.5 314.22L1341.73 308.315L1394.88 400.364Z" fill="#202124"/>
<path fill-rule="evenodd" clip-rule="evenodd" d="M1444.01 249.266L1473.53 300.404L1442.85 318.119L1413.32 266.981L1423.55 261.076L1447.17 301.986L1457.4 296.081L1433.78 255.171L1444.01 249.266ZM1464.46 237.456L1454.23 243.361L1519.19 355.865L1529.42 349.96L1464.46 237.456ZM1372.41 290.6L1382.64 284.696L1447.6 397.199L1437.37 403.104L1372.41 290.6ZM1474.69 231.552L1484.92 225.647L1549.87 338.15L1539.64 344.055L1474.69 231.552ZM1392.87 278.791L1403.1 272.886L1468.05 385.39L1457.82 391.294L1392.87 278.791ZM1508.96 361.77L1479.44 310.632L1448.75 328.347L1478.28 379.485L1488.51 373.58L1464.89 332.669L1475.11 326.764L1498.73 367.675L1508.96 361.77Z" fill="#202124"/>
<path fill-rule="evenodd" clip-rule="evenodd" d="M1603.33 170.92L1656.47 262.969L1564.42 316.113L1511.28 224.064L1603.33 170.92ZM1607.65 154.788L1495.14 219.742L1560.1 332.245L1672.6 267.291L1607.65 154.788ZM1594.68 203.185L1624.2 254.323L1573.07 283.848L1543.54 232.71L1594.68 203.185ZM1599 187.053L1527.41 228.387L1568.74 299.981L1640.34 258.646L1599 187.053ZM1591.94 245.678L1586.04 235.451L1575.81 241.356L1581.71 251.583L1591.94 245.678ZM1559.67 237.033L1590.36 219.318L1608.07 250.001L1577.39 267.716L1559.67 237.033Z" fill="#202124"/>
<path fill-rule="evenodd" clip-rule="evenodd" d="M-86.4639 314.675L-76.2363 308.77L-11.2822 421.274L-21.5098 427.179L-86.4639 314.675ZM15.8133 255.625L26.0409 249.72L90.995 362.224L80.7674 368.129L15.8133 255.625ZM5.58501 261.531L-4.64261 267.436L60.3115 379.939L70.5391 374.034L5.58501 261.531ZM-66.0079 302.865L-55.7803 296.96L9.17383 409.464L-1.05378 415.369L-66.0079 302.865ZM-14.8703 273.34L14.6543 324.479L-16.0285 342.193L-45.5531 291.055L-35.3255 285.15L-11.7058 326.061L-1.47822 320.156L-25.0979 279.245L-14.8703 273.34ZM50.0834 385.844L20.5588 334.706L-10.124 352.421L19.4006 403.559L29.6282 397.654L6.00852 356.743L16.2361 350.839L39.8558 391.749L50.0834 385.844Z" fill="#202124"/>
<path fill-rule="evenodd" clip-rule="evenodd" d="M144.449 194.994L197.593 287.042L105.545 340.187L52.4006 248.138L144.449 194.994ZM148.772 178.861L36.2681 243.815L101.222 356.319L213.726 291.365L148.772 178.861ZM135.804 227.259L165.329 278.397L114.19 307.922L84.6658 256.784L135.804 227.259ZM140.127 211.127L68.5333 252.461L109.868 324.055L181.461 282.72L140.127 211.127ZM133.062 269.752L127.158 259.524L116.93 265.429L122.835 275.657L133.062 269.752ZM100.797 261.106L131.48 243.392L149.195 274.075L118.512 291.789L100.797 261.106Z" fill="#202124"/>
<path fill-rule="evenodd" clip-rule="evenodd" d="M232.599 253.196L263.282 235.481L210.137 143.432L199.91 149.337L247.149 231.158L236.921 237.063L189.682 155.242L179.454 161.147L232.599 253.196ZM336.458 220.507L271.503 108.003L261.276 113.908L320.325 216.184L228.276 269.328L169.227 167.052L159 172.957L223.954 285.461L336.458 220.507ZM304.192 211.861L273.509 229.576L220.365 137.528L230.593 131.623L277.832 213.444L288.06 207.539L240.82 125.718L251.048 119.813L304.192 211.861Z" fill="#202124"/>
<path fill-rule="evenodd" clip-rule="evenodd" d="M721.517 -151.814L751.042 -100.676L720.359 -82.9608L690.834 -134.099L701.062 -140.004L724.682 -99.0933L734.909 -104.998L711.29 -145.909L721.517 -151.814ZM649.924 -110.479L660.151 -116.384L725.106 -3.8802L714.878 2.02472L649.924 -110.479ZM752.201 -169.529L762.428 -175.434L827.383 -62.9299L817.155 -57.0249L752.201 -169.529ZM741.974 -163.624L731.746 -157.719L796.7 -45.2151L806.928 -51.12L741.974 -163.624ZM670.38 -122.289L680.607 -128.194L745.561 -15.69L735.334 -9.78513L670.38 -122.289ZM786.471 -39.3099L756.946 -90.448L726.264 -72.7332L755.788 -21.5951L766.016 -27.5L742.396 -68.4105L752.624 -74.3154L776.243 -33.4049L786.471 -39.3099Z" fill="#202124"/>
<path fill-rule="evenodd" clip-rule="evenodd" d="M384.006 43.0482L394.234 37.1432L459.188 149.647L448.96 155.552L384.006 43.0482ZM281.73 102.097L291.958 96.1924L356.912 208.696L346.684 214.601L281.73 102.097ZM373.779 48.9531L363.551 54.858L428.505 167.362L438.733 161.457L373.779 48.9531ZM302.186 90.2874L312.414 84.3825L377.368 196.886L367.14 202.791L302.186 90.2874ZM353.324 60.7628L382.848 111.901L352.165 129.616L322.641 78.4776L332.868 72.5726L356.488 113.483L366.716 107.578L343.096 66.6677L353.324 60.7628ZM418.277 173.266L388.753 122.128L358.07 139.843L387.594 190.981L397.822 185.076L374.202 144.166L384.43 138.261L408.05 179.171L418.277 173.266Z" fill="#202124"/>
<path fill-rule="evenodd" clip-rule="evenodd" d="M512.643 -17.5831L565.787 74.4655L473.739 127.61L420.594 35.5612L512.643 -17.5831ZM516.966 -33.7156L404.462 31.2385L469.416 143.742L581.92 78.7882L516.966 -33.7156ZM503.998 14.6824L533.522 65.8204L482.384 95.345L452.86 44.2069L503.998 14.6824ZM508.32 -1.45018L436.727 39.8842L478.062 111.478L549.655 70.1431L508.32 -1.45018ZM501.257 57.1752L495.352 46.9476L485.125 52.8525L491.03 63.0801L501.257 57.1752ZM468.992 48.5298L499.675 30.815L517.39 61.4979L486.707 79.2126L468.992 48.5298Z" fill="#202124"/>
<path fill-rule="evenodd" clip-rule="evenodd" d="M600.793 40.6178L631.475 22.903L578.331 -69.1455L568.104 -63.2406L615.343 18.5803L605.115 24.4852L557.876 -57.3357L547.648 -51.4308L600.793 40.6178ZM704.651 7.92907L639.697 -104.575L629.47 -98.6698L688.519 3.60638L596.47 56.7506L537.421 -45.5255L527.194 -39.6206L592.148 72.8832L704.651 7.92907ZM672.386 -0.716454L641.703 16.9983L588.559 -75.0502L598.786 -80.9552L646.026 0.865771L656.253 -5.03915L609.014 -86.8601L619.242 -92.765L672.386 -0.716454Z" fill="#202124"/>
<path fill-rule="evenodd" clip-rule="evenodd" d="M-86.4639 314.675L-76.2363 308.77L-11.2822 421.274L-21.5098 427.179L-86.4639 314.675ZM15.8133 255.625L26.0409 249.72L90.995 362.224L80.7674 368.129L15.8133 255.625ZM5.58501 261.531L-4.64261 267.436L60.3115 379.939L70.5391 374.034L5.58501 261.531ZM-66.0079 302.865L-55.7803 296.96L9.17383 409.464L-1.05378 415.369L-66.0079 302.865ZM-14.8703 273.34L14.6543 324.479L-16.0285 342.193L-45.5531 291.055L-35.3255 285.15L-11.7058 326.061L-1.47822 320.156L-25.0979 279.245L-14.8703 273.34ZM50.0834 385.844L20.5588 334.706L-10.124 352.421L19.4006 403.559L29.6282 397.654L6.00852 356.743L16.2361 350.839L39.8558 391.749L50.0834 385.844Z" fill="#202124"/>
<path fill-rule="evenodd" clip-rule="evenodd" d="M144.449 194.994L197.593 287.042L105.545 340.187L52.4006 248.138L144.449 194.994ZM148.772 178.861L36.2681 243.815L101.222 356.319L213.726 291.365L148.772 178.861ZM135.804 227.259L165.329 278.397L114.19 307.922L84.6658 256.784L135.804 227.259ZM140.127 211.127L68.5333 252.461L109.868 324.055L181.461 282.72L140.127 211.127ZM133.062 269.752L127.158 259.524L116.93 265.429L122.835 275.657L133.062 269.752ZM100.797 261.106L131.48 243.392L149.195 274.075L118.512 291.789L100.797 261.106Z" fill="#202124"/>
<path fill-rule="evenodd" clip-rule="evenodd" d="M232.599 253.196L263.282 235.481L210.137 143.432L199.91 149.337L247.149 231.158L236.921 237.063L189.682 155.242L179.454 161.147L232.599 253.196ZM336.458 220.507L271.503 108.003L261.276 113.908L320.325 216.184L228.276 269.328L169.227 167.052L159 172.957L223.954 285.461L336.458 220.507ZM304.192 211.861L273.509 229.576L220.365 137.528L230.593 131.623L277.832 213.444L288.06 207.539L240.82 125.718L251.048 119.813L304.192 211.861Z" fill="#202124"/>
<path fill-rule="evenodd" clip-rule="evenodd" d="M721.517 -151.814L751.042 -100.676L720.359 -82.9608L690.834 -134.099L701.062 -140.004L724.682 -99.0933L734.909 -104.998L711.29 -145.909L721.517 -151.814ZM649.924 -110.479L660.151 -116.384L725.106 -3.8802L714.878 2.02472L649.924 -110.479ZM752.201 -169.529L762.428 -175.434L827.383 -62.9299L817.155 -57.0249L752.201 -169.529ZM741.974 -163.624L731.746 -157.719L796.7 -45.2151L806.928 -51.12L741.974 -163.624ZM670.38 -122.289L680.607 -128.194L745.561 -15.69L735.334 -9.78513L670.38 -122.289ZM786.471 -39.3099L756.946 -90.448L726.264 -72.7332L755.788 -21.5951L766.016 -27.5L742.396 -68.4105L752.624 -74.3154L776.243 -33.4049L786.471 -39.3099Z" fill="#202124"/>
<path fill-rule="evenodd" clip-rule="evenodd" d="M384.006 43.0482L394.234 37.1432L459.188 149.647L448.96 155.552L384.006 43.0482ZM281.73 102.097L291.958 96.1924L356.912 208.696L346.684 214.601L281.73 102.097ZM373.779 48.9531L363.551 54.858L428.505 167.362L438.733 161.457L373.779 48.9531ZM302.186 90.2874L312.414 84.3825L377.368 196.886L367.14 202.791L302.186 90.2874ZM353.324 60.7628L382.848 111.901L352.165 129.616L322.641 78.4776L332.868 72.5726L356.488 113.483L366.716 107.578L343.096 66.6677L353.324 60.7628ZM418.277 173.266L388.753 122.128L358.07 139.843L387.594 190.981L397.822 185.076L374.202 144.166L384.43 138.261L408.05 179.171L418.277 173.266Z" fill="#202124"/>
<path fill-rule="evenodd" clip-rule="evenodd" d="M512.643 -17.5831L565.787 74.4655L473.739 127.61L420.594 35.5612L512.643 -17.5831ZM516.966 -33.7156L404.462 31.2385L469.416 143.742L581.92 78.7882L516.966 -33.7156ZM503.998 14.6824L533.522 65.8204L482.384 95.345L452.86 44.2069L503.998 14.6824ZM508.32 -1.45018L436.727 39.8842L478.062 111.478L549.655 70.1431L508.32 -1.45018ZM501.257 57.1752L495.352 46.9476L485.125 52.8525L491.03 63.0801L501.257 57.1752ZM468.992 48.5298L499.675 30.815L517.39 61.4979L486.707 79.2126L468.992 48.5298Z" fill="#202124"/>
<path fill-rule="evenodd" clip-rule="evenodd" d="M600.793 40.6178L631.475 22.903L578.331 -69.1455L568.104 -63.2406L615.343 18.5803L605.115 24.4852L557.876 -57.3357L547.648 -51.4308L600.793 40.6178ZM704.651 7.92907L639.697 -104.575L629.47 -98.6698L688.519 3.60638L596.47 56.7506L537.421 -45.5255L527.194 -39.6206L592.148 72.8832L704.651 7.92907ZM672.386 -0.716454L641.703 16.9983L588.559 -75.0502L598.786 -80.9552L646.026 0.865771L656.253 -5.03915L609.014 -86.8601L619.242 -92.765L672.386 -0.716454Z" fill="#202124"/>
<path fill-rule="evenodd" clip-rule="evenodd" d="M-55.4693 37.6812L-2.32507 129.73L-94.3736 182.874L-147.518 90.8254L-55.4693 37.6812ZM-51.1466 21.5487L-163.65 86.5027L-98.6963 199.007L13.8075 134.052L-51.1466 21.5487ZM-64.115 69.9466L-34.5904 121.085L-85.7285 150.609L-115.253 99.4712L-64.115 69.9466ZM-59.7923 53.8141L-131.386 95.1485L-90.0512 166.742L-18.4579 125.407L-59.7923 53.8141ZM-66.8564 112.439L-72.7613 102.211L-82.9889 108.116L-77.084 118.344L-66.8564 112.439ZM-99.1215 103.794L-68.4386 86.0789L-50.7239 116.762L-81.4067 134.476L-99.1215 103.794Z" fill="#202124"/>
<path fill-rule="evenodd" clip-rule="evenodd" d="M32.6797 95.882L63.3626 78.1673L10.2183 -13.8813L-0.00928147 -7.97636L47.2301 73.8446L37.0024 79.7495L-10.2369 -2.07144L-20.4645 3.83347L32.6797 95.882ZM136.539 63.1931L71.5845 -49.3107L61.3569 -43.4058L120.406 58.8704L28.3575 112.015L-30.6917 9.73849L-40.9193 15.6434L24.0348 128.147L136.539 63.1931ZM104.273 54.5477L73.5902 72.2625L20.446 -19.7861L30.6736 -25.691L77.9129 56.13L88.1406 50.225L40.9012 -31.5959L51.1288 -37.5008L104.273 54.5477Z" fill="#202124"/>
<path fill-rule="evenodd" clip-rule="evenodd" d="M153.405 -96.5494L182.93 -45.4113L152.247 -27.6966L122.722 -78.8347L132.95 -84.7396L156.569 -43.8291L166.797 -49.734L143.177 -90.6445L153.405 -96.5494ZM81.8115 -55.2149L92.0392 -61.1198L156.993 51.384L146.766 57.2889L81.8115 -55.2149ZM184.089 -114.265L194.316 -120.169L259.27 -7.66569L249.043 -1.76078L184.089 -114.265ZM173.861 -108.36L163.634 -102.455L228.588 10.0491L238.816 4.14418L173.861 -108.36ZM102.267 -67.0247L112.495 -72.9297L177.449 39.5741L167.221 45.479L102.267 -67.0247ZM218.359 15.9543L188.834 -35.1838L158.151 -17.469L187.676 33.669L197.903 27.7641L174.284 -13.1463L184.511 -19.0513L208.131 21.8592L218.359 15.9543Z" fill="#202124"/>
<path fill-rule="evenodd" clip-rule="evenodd" d="M906.577 286.815L916.804 280.91L981.759 393.414L971.531 399.319L906.577 286.815ZM804.301 345.865L814.529 339.96L879.483 452.464L869.255 458.369L804.301 345.865ZM896.35 292.72L886.122 298.625L951.076 411.129L961.304 405.224L896.35 292.72ZM824.757 334.055L834.984 328.15L899.938 440.654L889.711 446.558L824.757 334.055ZM875.894 304.53L905.419 355.668L874.736 373.383L845.212 322.245L855.439 316.34L879.059 357.25L889.286 351.345L865.667 310.435L875.894 304.53ZM940.849 417.034L911.324 365.896L880.642 383.611L910.166 434.749L920.394 428.844L896.774 387.933L907.002 382.028L930.621 422.939L940.849 417.034Z" fill="#202124"/>
<path fill-rule="evenodd" clip-rule="evenodd" d="M1035.21 226.184L1088.36 318.233L996.308 371.377L943.164 279.328L1035.21 226.184ZM1039.54 210.052L927.031 275.006L991.985 387.51L1104.49 322.555L1039.54 210.052ZM1026.57 258.45L1056.09 309.588L1004.95 339.112L975.429 287.974L1026.57 258.45ZM1030.89 242.317L959.296 283.651L1000.63 355.245L1072.22 313.91L1030.89 242.317ZM1023.83 300.942L1017.92 290.714L1007.69 296.619L1013.6 306.846L1023.83 300.942ZM991.562 292.296L1022.24 274.581L1039.96 305.264L1009.28 322.979L991.562 292.296Z" fill="#202124"/>
<path fill-rule="evenodd" clip-rule="evenodd" d="M1194.96 243.051L1164.27 260.766L1111.13 168.717L1121.36 162.812L1168.6 244.633L1178.82 238.728L1131.58 156.907L1141.81 151.002L1194.96 243.051ZM1227.22 251.697L1162.27 139.193L1152.04 145.098L1211.09 247.374L1119.04 300.518L1059.99 198.242L1049.76 204.147L1114.72 316.651L1227.22 251.697ZM1123.36 284.386L1154.05 266.671L1100.9 174.622L1090.67 180.527L1137.91 262.348L1127.69 268.253L1080.45 186.432L1070.22 192.337L1123.36 284.386Z" fill="#202124"/>
<path fill-rule="evenodd" clip-rule="evenodd" d="M1632.74 -132.434L1622.51 -126.529L1687.46 -14.0251L1697.69 -19.93L1632.74 -132.434ZM1540.69 -79.2897L1550.92 -85.1946L1615.87 27.3091L1605.64 33.214L1540.69 -79.2897ZM1642.96 -138.338L1653.19 -144.243L1718.15 -31.7396L1707.92 -25.8347L1642.96 -138.338ZM1561.14 -91.0994L1571.37 -97.0044L1636.33 15.4994L1626.1 21.4043L1561.14 -91.0994ZM1612.28 -120.624L1641.81 -69.4857L1611.12 -51.771L1581.6 -102.909L1591.83 -108.814L1615.45 -67.9035L1625.67 -73.8084L1602.05 -114.719L1612.28 -120.624ZM1677.24 -8.12011L1647.71 -59.2582L1617.03 -41.5434L1646.55 9.59464L1656.78 3.68972L1633.16 -37.2207L1643.39 -43.1257L1667.01 -2.21519L1677.24 -8.12011Z" fill="#202124"/>
<path fill-rule="evenodd" clip-rule="evenodd" d="M667.02 438.761L720.164 530.809L628.116 583.953L574.971 491.905L667.02 438.761ZM671.343 422.628L558.839 487.582L623.793 600.086L736.297 535.132L671.343 422.628ZM658.375 471.026L687.899 522.164L636.761 551.689L607.237 500.55L658.375 471.026ZM662.697 454.893L591.104 496.228L632.439 567.821L704.032 526.487L662.697 454.893ZM655.634 513.519L649.729 503.291L639.502 509.196L645.407 519.424L655.634 513.519ZM623.369 504.873L654.052 487.159L671.767 517.841L641.084 535.556L623.369 504.873Z" fill="#202124"/>
<path fill-rule="evenodd" clip-rule="evenodd" d="M755.17 496.962L785.852 479.247L732.708 387.199L722.481 393.104L769.72 474.925L759.492 480.83L712.253 399.009L702.025 404.914L755.17 496.962ZM859.028 464.274L794.074 351.77L783.847 357.675L842.896 459.951L750.847 513.095L691.798 410.819L681.57 416.724L746.525 529.228L859.028 464.274ZM826.764 455.627L796.081 473.342L742.937 381.294L753.165 375.389L800.404 457.21L810.632 451.305L763.392 369.484L773.62 363.579L826.764 455.627Z" fill="#202124"/>
<path fill-rule="evenodd" clip-rule="evenodd" d="M1274.77 74.2382L1285 68.3333L1349.95 180.837L1339.72 186.742L1274.77 74.2382ZM1172.49 133.288L1182.72 127.383L1247.68 239.886L1237.45 245.791L1172.49 133.288ZM1264.54 80.1432L1254.32 86.0481L1319.27 198.552L1329.5 192.647L1264.54 80.1432ZM1192.95 121.478L1203.18 115.573L1268.13 228.077L1257.9 233.982L1192.95 121.478ZM1244.09 91.9528L1273.61 143.091L1242.93 160.806L1213.4 109.668L1223.63 103.763L1247.25 144.673L1257.48 138.768L1233.86 97.8577L1244.09 91.9528ZM1309.04 204.457L1279.52 153.319L1248.84 171.033L1278.36 222.172L1288.59 216.267L1264.97 175.356L1275.2 169.451L1298.81 210.362L1309.04 204.457Z" fill="#202124"/>
<path fill-rule="evenodd" clip-rule="evenodd" d="M1403.41 13.607L1456.55 105.656L1364.5 158.8L1311.36 66.7512L1403.41 13.607ZM1407.73 -2.52556L1295.23 62.4285L1360.18 174.932L1472.68 109.978L1407.73 -2.52556ZM1394.76 45.8722L1424.29 97.0103L1373.15 126.535L1343.62 75.3968L1394.76 45.8722ZM1399.08 29.7397L1327.49 71.0741L1368.83 142.667L1440.42 101.333L1399.08 29.7397ZM1392.02 88.365L1386.12 78.1374L1375.89 84.0423L1381.79 94.2699L1392.02 88.365ZM1359.76 79.7196L1390.44 62.0048L1408.15 92.6877L1377.47 110.402L1359.76 79.7196Z" fill="#202124"/>
<path fill-rule="evenodd" clip-rule="evenodd" d="M1491.56 71.8077L1522.24 54.093L1469.1 -37.9556L1458.87 -32.0507L1506.11 49.7703L1495.88 55.6752L1448.64 -26.1457L1438.41 -20.2408L1491.56 71.8077ZM1595.41 39.1197L1530.46 -73.3841L1520.23 -67.4792L1579.28 34.797L1487.23 87.9412L1428.18 -14.3349L1417.96 -8.43003L1482.91 104.074L1595.41 39.1197ZM1563.15 30.4734L1532.47 48.1882L1479.32 -43.8604L1489.55 -49.7653L1536.79 32.0556L1547.02 26.1507L1499.78 -55.6702L1510.01 -61.5751L1563.15 30.4734Z" fill="#202124"/>
<path fill-rule="evenodd" clip-rule="evenodd" d="M1372.1 549.88L1341.42 567.594L1288.28 475.546L1298.5 469.641L1345.74 551.462L1355.97 545.557L1308.73 463.736L1318.96 457.831L1372.1 549.88ZM1404.37 558.525L1339.41 446.021L1329.19 451.926L1388.24 554.203L1296.19 607.347L1237.14 505.071L1226.91 510.976L1291.86 623.479L1404.37 558.525ZM1300.51 591.214L1331.19 573.499L1278.05 481.451L1267.82 487.356L1315.06 569.177L1304.83 575.082L1257.59 493.261L1247.37 499.166L1300.51 591.214Z" fill="#202124"/>
<path fill-rule="evenodd" clip-rule="evenodd" d="M1451.92 381.067L1462.15 375.162L1527.1 487.666L1516.87 493.571L1451.92 381.067ZM1349.64 440.116L1359.87 434.211L1424.82 546.715L1414.6 552.62L1349.64 440.116ZM1441.69 386.972L1431.46 392.877L1496.42 505.38L1506.64 499.475L1441.69 386.972ZM1370.1 428.306L1380.32 422.402L1445.28 534.905L1435.05 540.81L1370.1 428.306ZM1421.24 398.781L1450.76 449.919L1420.08 467.634L1390.55 416.496L1400.78 410.591L1424.4 451.502L1434.63 445.597L1411.01 404.686L1421.24 398.781ZM1486.19 511.285L1456.67 460.147L1425.98 477.862L1455.51 529L1465.73 523.095L1442.12 482.185L1452.34 476.28L1475.96 517.19L1486.19 511.285Z" fill="#202124"/>
<path fill-rule="evenodd" clip-rule="evenodd" d="M1580.55 320.436L1633.7 412.484L1541.65 465.628L1488.51 373.58L1580.55 320.436ZM1584.88 304.303L1472.37 369.257L1537.33 481.761L1649.83 416.807L1584.88 304.303ZM1571.91 352.701L1601.43 403.839L1550.3 433.363L1520.77 382.225L1571.91 352.701ZM1576.23 336.568L1504.64 377.903L1545.97 449.496L1617.57 408.161L1576.23 336.568ZM1569.17 395.193L1563.26 384.966L1553.04 390.871L1558.94 401.098L1569.17 395.193ZM1536.9 386.548L1567.59 368.833L1585.3 399.516L1554.62 417.231L1536.9 386.548Z" fill="#202124"/>
<path fill-rule="evenodd" clip-rule="evenodd" d="M-6.95896 405.141L3.26865 399.236L68.2227 511.74L57.9951 517.645L-6.95896 405.141ZM-109.235 464.19L-99.0072 458.285L-34.0531 570.789L-44.2807 576.694L-109.235 464.19ZM-17.1861 411.046L-27.4137 416.951L37.5404 529.455L47.768 523.55L-17.1861 411.046ZM-88.779 452.38L-78.5514 446.475L-13.5973 558.979L-23.8249 564.884L-88.779 452.38ZM-37.6414 422.856L-8.11679 473.994L-38.7996 491.708L-68.3242 440.57L-58.0966 434.665L-34.4769 475.576L-24.2493 469.671L-47.869 428.76L-37.6414 422.856ZM27.3123 535.359L-2.21226 484.221L-32.8951 501.936L-3.37052 553.074L6.85709 547.169L-16.7626 506.259L-6.53496 500.354L17.0847 541.264L27.3123 535.359Z" fill="#202124"/>
<path fill-rule="evenodd" clip-rule="evenodd" d="M121.678 344.51L174.822 436.558L82.7734 489.703L29.6291 397.654L121.678 344.51ZM126 328.377L13.4966 393.331L78.4507 505.835L190.954 440.881L126 328.377ZM113.032 376.775L142.557 427.913L91.419 457.438L61.8944 406.3L113.032 376.775ZM117.355 360.643L45.7619 401.977L87.0963 473.57L158.69 432.236L117.355 360.643ZM110.291 419.268L104.386 409.04L94.1585 414.945L100.063 425.173L110.291 419.268ZM78.026 410.622L108.709 392.908L126.424 423.59L95.7407 441.305L78.026 410.622Z" fill="#202124"/>
<path fill-rule="evenodd" clip-rule="evenodd" d="M209.827 402.71L240.51 384.996L187.366 292.947L177.138 298.852L224.378 380.673L214.15 386.578L166.911 304.757L156.683 310.662L209.827 402.71ZM313.686 370.022L248.732 257.518L238.504 263.423L297.554 365.699L205.505 418.843L146.456 316.567L136.228 322.472L201.182 434.976L313.686 370.022ZM281.421 361.376L250.738 379.091L197.593 287.042L207.821 281.138L255.06 362.958L265.288 357.054L218.049 275.233L228.276 269.328L281.421 361.376Z" fill="#202124"/>
<path fill-rule="evenodd" clip-rule="evenodd" d="M729.428 -20.0131L739.656 -25.918L804.61 86.5858L794.382 92.4907L729.428 -20.0131ZM627.152 39.0362L637.38 33.1313L702.334 145.635L692.107 151.54L627.152 39.0362ZM719.201 -14.1081L708.974 -8.20317L773.928 104.301L784.155 98.3957L719.201 -14.1081ZM647.608 27.2262L657.836 21.3213L722.79 133.825L712.562 139.73L647.608 27.2262ZM698.746 -2.29845L728.271 48.8396L697.588 66.5544L668.063 15.4163L678.291 9.51138L701.91 50.4218L712.138 44.5169L688.518 3.60646L698.746 -2.29845ZM763.701 110.206L734.176 59.0674L703.493 76.7822L733.018 127.92L743.245 122.015L719.626 81.1049L729.853 75.2L753.473 116.11L763.701 110.206Z" fill="#202124"/>
<path fill-rule="evenodd" clip-rule="evenodd" d="M858.064 -80.6442L911.208 11.4044L819.16 64.5486L766.015 -27.4999L858.064 -80.6442ZM862.387 -96.7767L749.883 -31.8226L814.837 80.6812L927.341 15.7271L862.387 -96.7767ZM849.419 -48.3789L878.943 2.75923L827.805 32.2838L798.281 -18.8543L849.419 -48.3789ZM853.741 -64.5114L782.148 -23.177L823.482 48.4163L895.076 7.08193L853.741 -64.5114ZM846.678 -5.88683L840.774 -16.1144L830.546 -10.2095L836.451 0.018084L846.678 -5.88683ZM814.413 -14.5322L845.096 -32.247L862.811 -1.56414L832.128 16.1506L814.413 -14.5322Z" fill="#202124"/>
<path fill-rule="evenodd" clip-rule="evenodd" d="M1017.81 -63.7774L987.126 -46.0627L933.982 -138.111L944.209 -144.016L991.449 -62.1952L1001.68 -68.1001L954.437 -149.921L964.665 -155.826L1017.81 -63.7774ZM1050.07 -55.132L985.12 -167.636L974.892 -161.731L1033.94 -59.4547L941.893 -6.31043L882.844 -108.587L872.616 -102.682L937.57 9.8221L1050.07 -55.132ZM946.216 -22.4429L976.899 -40.1576L923.755 -132.206L913.527 -126.301L960.767 -44.4803L950.539 -38.5754L903.3 -120.396L893.072 -114.491L946.216 -22.4429Z" fill="#202124"/>
<path fill-rule="evenodd" clip-rule="evenodd" d="M258.959 251.614L269.187 245.709L334.141 358.213L323.913 364.117L258.959 251.614ZM361.236 192.564L371.464 186.659L436.418 299.163L426.19 305.068L361.236 192.564ZM351.009 198.469L340.781 204.374L405.735 316.878L415.963 310.973L351.009 198.469ZM279.415 239.804L289.642 233.899L354.596 346.403L344.369 352.308L279.415 239.804ZM330.552 210.279L360.077 261.417L329.394 279.132L299.87 227.994L310.097 222.089L333.717 262.999L343.944 257.095L320.325 216.184L330.552 210.279ZM395.506 322.783L365.981 271.645L335.299 289.359L364.823 340.498L375.051 334.593L351.431 293.682L361.659 287.777L385.278 328.688L395.506 322.783Z" fill="#202124"/>
<path fill-rule="evenodd" clip-rule="evenodd" d="M489.872 131.932L543.016 223.981L450.967 277.125L397.823 185.077L489.872 131.932ZM494.194 115.8L381.69 180.754L446.645 293.258L559.148 228.304L494.194 115.8ZM481.226 164.198L510.751 215.336L459.613 244.861L430.088 193.722L481.226 164.198ZM485.549 148.065L413.956 189.4L455.29 260.993L526.883 219.659L485.549 148.065ZM478.486 206.691L472.581 196.463L462.353 202.368L468.258 212.595L478.486 206.691ZM446.221 198.045L476.904 180.33L494.618 211.013L463.936 228.728L446.221 198.045Z" fill="#202124"/>
<path fill-rule="evenodd" clip-rule="evenodd" d="M578.021 190.134L608.704 172.419L555.56 80.3708L545.332 86.2757L592.571 168.097L582.344 174.002L535.104 92.1807L524.877 98.0856L578.021 190.134ZM681.88 157.445L616.926 44.9416L606.698 50.8466L665.747 153.123L573.699 206.267L514.65 103.991L504.422 109.896L569.376 222.399L681.88 157.445ZM649.616 148.799L618.933 166.514L565.789 74.4655L576.016 68.5606L623.256 150.382L633.483 144.477L586.244 62.6557L596.471 56.7508L649.616 148.799Z" fill="#202124"/>
<path fill-rule="evenodd" clip-rule="evenodd" d="M44.4872 116.338L97.6315 208.387L5.58294 261.531L-47.5613 169.483L44.4872 116.338ZM48.8099 100.206L-63.6938 165.16L1.26024 277.664L113.764 212.71L48.8099 100.206ZM35.8432 148.603L65.3678 199.741L14.2297 229.266L-15.2949 178.128L35.8432 148.603ZM40.1659 132.471L-31.4274 173.805L9.90703 245.398L81.5003 204.064L40.1659 132.471ZM33.1028 191.096L27.1979 180.868L16.9702 186.773L22.8752 197.001L33.1028 191.096ZM0.837704 182.451L31.5206 164.736L49.2353 195.419L18.5525 213.133L0.837704 182.451Z" fill="#202124"/>
<path fill-rule="evenodd" clip-rule="evenodd" d="M236.496 141.85L171.542 29.3466L161.314 35.2516L220.363 137.528L128.315 190.672L69.2657 88.3958L59.0381 94.3007L123.992 206.804L236.496 141.85ZM132.638 174.539L163.321 156.825L110.177 64.776L99.9493 70.6809L147.189 152.502L136.961 158.407L89.7217 76.5858L79.4941 82.4908L132.638 174.539ZM204.232 133.205L173.549 150.92L120.405 58.8713L130.632 52.9664L177.871 134.787L188.099 128.882L140.86 47.0615L151.087 41.1565L204.232 133.205Z" fill="#202124"/>
<path fill-rule="evenodd" clip-rule="evenodd" d="M253.364 -17.8933L282.888 33.2448L252.205 50.9595L222.681 -0.178563L232.908 -6.08348L256.528 34.827L266.756 28.9221L243.136 -11.9884L253.364 -17.8933ZM273.819 -29.703L263.591 -23.798L328.545 88.7057L338.773 82.8008L273.819 -29.703ZM181.77 23.4419L191.998 17.5369L256.952 130.041L246.724 135.946L181.77 23.4419ZM284.047 -35.6077L294.275 -41.5126L359.229 70.9912L349.001 76.8961L284.047 -35.6077ZM202.226 11.6314L212.454 5.72645L277.408 118.23L267.18 124.135L202.226 11.6314ZM318.319 94.6111L288.794 43.473L258.111 61.1878L287.636 112.326L297.863 106.421L274.244 65.5105L284.471 59.6055L308.091 100.516L318.319 94.6111Z" fill="#202124"/>
<path fill-rule="evenodd" clip-rule="evenodd" d="M412.683 -96.2391L465.827 -4.19058L373.779 48.9537L320.634 -43.0949L412.683 -96.2391ZM417.006 -112.372L304.502 -47.4176L369.456 65.0862L481.96 0.132117L417.006 -112.372ZM404.038 -63.9741L433.562 -12.836L382.424 16.6886L352.9 -34.4495L404.038 -63.9741ZM408.361 -80.1066L336.767 -38.7722L378.102 32.8212L449.695 -8.51327L408.361 -80.1066ZM401.297 -21.4813L395.393 -31.7089L385.165 -25.804L391.07 -15.5764L401.297 -21.4813ZM369.032 -30.1267L399.715 -47.8414L417.43 -17.1586L386.747 0.556156L369.032 -30.1267Z" fill="#202124"/>
<path fill-rule="evenodd" clip-rule="evenodd" d="M924.715 412.711L934.942 406.806L999.896 519.31L989.669 525.215L924.715 412.711ZM904.26 424.521L914.488 418.616L979.442 531.12L969.214 537.025L904.26 424.521ZM1006.54 365.472L1016.76 359.567L1081.72 472.071L1071.49 477.976L1006.54 365.472ZM996.308 371.377L986.081 377.282L1051.03 489.786L1061.26 483.881L996.308 371.377ZM975.853 383.187L1005.38 434.325L974.695 452.04L945.17 400.902L955.398 394.997L979.018 435.907L989.245 430.002L965.626 389.092L975.853 383.187ZM1040.81 495.691L1011.28 444.553L980.599 462.267L1010.12 513.405L1020.35 507.5L996.732 466.59L1006.96 460.685L1030.58 501.596L1040.81 495.691Z" fill="#202124"/>
<path fill-rule="evenodd" clip-rule="evenodd" d="M1135.17 304.84L1188.32 396.889L1096.27 450.033L1043.12 357.985L1135.17 304.84ZM1139.49 288.708L1026.99 353.662L1091.95 466.166L1204.45 401.212L1139.49 288.708ZM1126.53 337.105L1156.05 388.243L1104.91 417.768L1075.39 366.63L1126.53 337.105ZM1130.85 320.973L1059.26 362.307L1100.59 433.9L1172.18 392.566L1130.85 320.973ZM1123.79 379.598L1117.88 369.37L1107.65 375.275L1113.56 385.503L1123.79 379.598ZM1091.52 370.953L1122.2 353.238L1139.92 383.921L1109.24 401.635L1091.52 370.953Z" fill="#202124"/>
<path fill-rule="evenodd" clip-rule="evenodd" d="M1223.32 363.042L1254 345.327L1200.86 253.279L1190.63 259.184L1237.87 341.004L1227.64 346.909L1180.4 265.088L1170.18 270.993L1223.32 363.042ZM1327.18 330.353L1262.23 217.849L1252 223.754L1311.05 326.03L1219 379.174L1159.95 276.898L1149.72 282.803L1214.68 395.307L1327.18 330.353ZM1294.91 321.708L1264.23 339.422L1211.09 247.374L1221.31 241.469L1268.55 323.29L1278.78 317.385L1231.54 235.564L1241.77 229.659L1294.91 321.708Z" fill="#202124"/>
<path fill-rule="evenodd" clip-rule="evenodd" d="M958.986 542.929L894.032 430.426L883.804 436.331L942.854 538.607L850.805 591.751L791.756 489.475L781.528 495.38L846.482 607.883L958.986 542.929ZM855.127 575.619L885.81 557.904L832.666 465.855L822.438 471.76L869.678 553.581L859.45 559.486L812.211 477.665L801.983 483.57L855.127 575.619ZM926.721 534.284L896.038 551.999L842.894 459.951L853.121 454.046L900.361 535.867L910.588 529.962L863.349 448.141L873.577 442.236L926.721 534.284Z" fill="#202124"/>
<path fill-rule="evenodd" clip-rule="evenodd" d="M1292.91 200.134L1303.14 194.229L1368.09 306.733L1357.86 312.638L1292.91 200.134ZM1374.73 152.895L1384.96 146.99L1449.91 259.494L1439.68 265.399L1374.73 152.895ZM1272.45 211.944L1282.68 206.039L1347.64 318.543L1337.41 324.448L1272.45 211.944ZM1364.5 158.8L1354.28 164.705L1419.23 277.208L1429.46 271.304L1364.5 158.8ZM1344.05 170.609L1373.57 221.748L1342.89 239.462L1313.36 188.324L1323.59 182.419L1347.21 223.33L1357.44 217.425L1333.82 176.514L1344.05 170.609ZM1409 283.113L1379.48 231.975L1348.79 249.69L1378.32 300.828L1388.55 294.923L1364.93 254.012L1375.15 248.108L1398.77 289.018L1409 283.113Z" fill="#202124"/>
<path fill-rule="evenodd" clip-rule="evenodd" d="M1503.37 92.2634L1556.51 184.312L1464.46 237.456L1411.32 145.408L1503.37 92.2634ZM1507.69 76.1309L1395.18 141.085L1460.14 253.589L1572.64 188.635L1507.69 76.1309ZM1494.72 124.528L1524.25 175.666L1473.11 205.191L1443.58 154.053L1494.72 124.528ZM1499.04 108.396L1427.45 149.73L1468.78 221.323L1540.38 179.989L1499.04 108.396ZM1491.98 167.021L1486.08 156.793L1475.85 162.698L1481.75 172.926L1491.98 167.021ZM1459.72 158.376L1490.4 140.661L1508.11 171.344L1477.43 189.058L1459.72 158.376Z" fill="#202124"/>
<path fill-rule="evenodd" clip-rule="evenodd" d="M1591.52 150.465L1622.2 132.75L1569.05 40.7014L1558.83 46.6064L1606.07 128.427L1595.84 134.332L1548.6 52.5113L1538.37 58.4162L1591.52 150.465ZM1695.37 117.776L1630.42 5.2718L1620.19 11.1767L1679.24 113.453L1587.19 166.597L1528.14 64.321L1517.92 70.2259L1582.87 182.73L1695.37 117.776ZM1663.11 109.13L1632.43 126.845L1579.28 34.7967L1589.51 28.8917L1636.75 110.713L1646.98 104.808L1599.74 22.9868L1609.97 17.0819L1663.11 109.13Z" fill="#202124"/>
<path fill-rule="evenodd" clip-rule="evenodd" d="M1470.06 506.962L1480.29 501.057L1545.24 613.561L1535.01 619.466L1470.06 506.962ZM1551.88 459.723L1562.11 453.818L1627.06 566.322L1616.83 572.227L1551.88 459.723ZM1449.6 518.772L1459.83 512.867L1524.78 625.371L1514.56 631.276L1449.6 518.772ZM1541.65 465.628L1531.42 471.533L1596.38 584.037L1606.61 578.132L1541.65 465.628ZM1521.2 477.438L1550.72 528.576L1520.04 546.291L1490.51 495.153L1500.74 489.248L1524.36 530.158L1534.59 524.253L1510.97 483.343L1521.2 477.438ZM1586.15 589.941L1556.63 538.803L1525.94 556.518L1555.47 607.656L1565.69 601.751L1542.07 560.841L1552.3 554.936L1575.92 595.846L1586.15 589.941Z" fill="#202124"/>
<path fill-rule="evenodd" clip-rule="evenodd" d="M221.635 423.166L274.779 515.215L182.731 568.359L129.587 476.311L221.635 423.166ZM225.958 407.034L113.454 471.988L178.408 584.492L290.912 519.538L225.958 407.034ZM212.991 455.431L242.516 506.569L191.378 536.094L161.853 484.956L212.991 455.431ZM217.314 439.299L145.721 480.633L187.055 552.226L258.648 510.892L217.314 439.299ZM210.251 497.924L204.346 487.696L194.118 493.601L200.023 503.829L210.251 497.924ZM177.986 489.279L208.668 471.564L226.383 502.247L195.7 519.961L177.986 489.279Z" fill="#202124"/>
<path fill-rule="evenodd" clip-rule="evenodd" d="M413.644 448.678L348.69 336.175L338.462 342.08L397.511 444.356L305.463 497.5L246.414 395.224L236.186 401.129L301.14 513.632L413.644 448.678ZM309.786 481.367L340.469 463.653L287.325 371.604L277.097 377.509L324.337 459.33L314.109 465.235L266.87 383.414L256.642 389.319L309.786 481.367ZM381.38 440.033L350.697 457.748L297.552 365.699L307.78 359.794L355.019 441.615L365.247 435.71L318.008 353.89L328.235 347.985L381.38 440.033Z" fill="#202124"/>
<path fill-rule="evenodd" clip-rule="evenodd" d="M747.567 105.883L757.795 99.9777L822.749 212.481L812.521 218.386L747.567 105.883ZM829.388 58.6436L839.616 52.7387L904.57 165.242L894.342 171.147L829.388 58.6436ZM727.112 117.693L737.34 111.788L802.294 224.292L792.067 230.196L727.112 117.693ZM819.161 64.5486L808.933 70.4535L873.888 182.957L884.115 177.052L819.161 64.5486ZM798.706 76.3583L828.23 127.496L797.548 145.211L768.023 94.073L778.251 88.1681L801.87 129.079L812.098 123.174L788.478 82.2632L798.706 76.3583ZM863.66 188.862L834.135 137.724L803.452 155.439L832.977 206.577L843.204 200.672L819.585 159.761L829.812 153.856L853.432 194.767L863.66 188.862Z" fill="#202124"/>
<path fill-rule="evenodd" clip-rule="evenodd" d="M958.025 -1.98836L1011.17 90.0602L919.121 143.204L865.976 51.1559L958.025 -1.98836ZM962.348 -18.1209L849.844 46.8332L914.798 159.337L1027.3 94.3829L962.348 -18.1209ZM949.38 30.2766L978.904 81.4147L927.766 110.939L898.242 59.8012L949.38 30.2766ZM953.702 14.1441L882.109 55.4785L923.444 127.072L995.037 85.7374L953.702 14.1441ZM946.639 72.7694L940.734 62.5417L930.507 68.4467L936.412 78.6743L946.639 72.7694ZM914.374 64.124L945.057 46.4092L962.772 77.0921L932.089 94.8068L914.374 64.124Z" fill="#202124"/>
<path fill-rule="evenodd" clip-rule="evenodd" d="M1046.17 56.2136L1076.86 38.4988L1023.71 -53.5497L1013.49 -47.6448L1060.72 34.1761L1050.5 40.081L1003.26 -41.7399L993.03 -35.835L1046.17 56.2136ZM1150.03 23.5245L1085.08 -88.9792L1074.85 -83.0743L1133.9 19.2018L1041.85 72.3461L982.803 -29.9301L972.575 -24.0251L1037.53 88.4786L1150.03 23.5245ZM1117.77 14.8794L1087.08 32.5941L1033.94 -59.4544L1044.17 -65.3593L1091.41 16.4616L1101.64 10.5567L1054.4 -71.2643L1064.62 -77.1692L1117.77 14.8794Z" fill="#202124"/>
<path fill-rule="evenodd" clip-rule="evenodd" d="M430.511 288.935L460.035 340.073L429.352 357.788L399.828 306.65L410.055 300.745L433.675 341.655L443.903 335.75L420.283 294.84L430.511 288.935ZM450.966 277.125L440.738 283.03L505.692 395.534L515.92 389.629L450.966 277.125ZM358.917 330.27L369.145 324.365L434.099 436.869L423.871 442.774L358.917 330.27ZM461.194 271.22L471.422 265.316L536.376 377.819L526.148 383.724L461.194 271.22ZM379.373 318.46L389.601 312.555L454.555 425.058L444.327 430.963L379.373 318.46ZM495.465 401.439L465.941 350.301L435.258 368.015L464.782 419.154L475.01 413.249L451.39 372.338L461.618 366.433L485.238 407.344L495.465 401.439Z" fill="#202124"/>
<path fill-rule="evenodd" clip-rule="evenodd" d="M589.83 210.589L642.974 302.638L550.925 355.782L497.781 263.733L589.83 210.589ZM594.152 194.456L481.648 259.411L546.603 371.914L659.106 306.96L594.152 194.456ZM581.184 242.854L610.709 293.992L559.571 323.517L530.046 272.379L581.184 242.854ZM585.507 226.721L513.914 268.056L555.248 339.649L626.841 298.315L585.507 226.721ZM578.444 285.347L572.539 275.119L562.311 281.024L568.216 291.252L578.444 285.347ZM546.179 276.701L576.862 258.987L594.576 289.67L563.894 307.384L546.179 276.701Z" fill="#202124"/>
<path fill-rule="evenodd" clip-rule="evenodd" d="M677.98 268.79L708.663 251.075L655.519 159.027L645.291 164.932L692.53 246.753L682.303 252.658L635.063 170.837L624.836 176.742L677.98 268.79ZM781.839 236.101L716.885 123.597L706.657 129.502L765.706 231.778L673.658 284.923L614.609 182.646L604.381 188.551L669.335 301.055L781.839 236.101ZM749.573 227.456L718.89 245.171L665.746 153.122L675.974 147.217L723.213 229.038L733.441 223.133L686.201 141.312L696.429 135.407L749.573 227.456Z" fill="#202124"/>
<path fill-rule="evenodd" clip-rule="evenodd" d="M1115.76 -106.695L1125.99 -112.6L1190.94 -0.0957885L1180.72 5.80913L1115.76 -106.695ZM1197.58 -153.934L1207.81 -159.839L1272.76 -47.3348L1262.54 -41.4299L1197.58 -153.934ZM1095.31 -94.8845L1105.53 -100.789L1170.49 11.7143L1160.26 17.6193L1095.31 -94.8845ZM1187.36 -148.029L1177.13 -142.124L1242.08 -29.62L1252.31 -35.5249L1187.36 -148.029ZM1166.9 -136.219L1196.42 -85.081L1165.74 -67.3662L1136.22 -118.504L1146.44 -124.409L1170.06 -83.4988L1180.29 -89.4037L1156.67 -130.314L1166.9 -136.219ZM1231.85 -23.7153L1202.33 -74.8534L1171.65 -57.1387L1201.17 -6.0006L1211.4 -11.9055L1187.78 -52.816L1198.01 -58.7209L1221.63 -17.8104L1231.85 -23.7153Z" fill="#202124"/>
</g>
</g>
<defs>
<clipPath id="clip0_242_123519">
<rect width="1568" height="457.127" fill="white"/>
</clipPath>
<clipPath id="clip1_242_123519">
<rect width="3294.94" height="1428.99" fill="white" transform="translate(-1000 433) rotate(-30)"/>
</clipPath>
</defs>
</svg>
