<svg width="944" height="657" viewBox="0 0 944 657" fill="none" xmlns="http://www.w3.org/2000/svg">
<g clip-path="url(#clip0_305_5135)">
<rect width="944" height="657" fill="#59AAF3"/>
<g clip-path="url(#clip1_305_5135)">
<path fill-rule="evenodd" clip-rule="evenodd" d="M-36.0573 -92.261L-44.9038 -87.1534L11.2793 10.1585L20.1258 5.05098L-36.0573 -92.261ZM-27.2105 -97.3686L-18.3639 -102.476L37.8192 -5.16415L28.9726 -0.0565937L-27.2105 -97.3686ZM-115.676 -46.2931L-106.829 -51.4007L-50.6461 45.9113L-59.4926 51.0189L-115.676 -46.2931ZM-97.981 -56.5082L-89.1344 -61.6157L-32.9514 35.6963L-41.7979 40.8038L-97.981 -56.5082ZM-53.7494 -82.046L-28.2117 -37.8133L-54.7513 -22.4906L-80.2891 -66.7234L-71.4425 -71.8309L-51.0123 -36.4447L-42.1658 -41.5523L-62.596 -76.9385L-53.7494 -82.046ZM2.43283 15.2659L-23.1049 -28.9668L-49.6446 -13.6442L-24.1068 30.5886L-15.2603 25.481L-35.6905 -9.90517L-26.8439 -15.0127L-6.41371 20.3734L2.43283 15.2659Z" fill="#202124"/>
<path fill-rule="evenodd" clip-rule="evenodd" d="M-48.0756 622.404L-56.9222 627.511L-0.739101 724.823L8.10744 719.716L-48.0756 622.404ZM-127.694 668.372L-118.848 663.264L-62.6646 760.576L-71.5111 765.684L-127.694 668.372ZM-39.2275 617.296L-30.3809 612.188L25.8022 709.5L16.9556 714.608L-39.2275 617.296ZM-109.999 658.157L-101.153 653.049L-44.9697 750.361L-53.8163 755.469L-109.999 658.157ZM-65.7678 632.619L-40.2301 676.852L-66.7697 692.174L-92.3074 647.942L-83.4609 642.834L-63.0307 678.22L-54.1841 673.113L-74.6144 637.727L-65.7678 632.619ZM-9.58556 729.931L-35.1233 685.698L-61.663 701.021L-36.1252 745.253L-27.2786 740.146L-47.7089 704.76L-38.8623 699.652L-18.4321 735.038L-9.58556 729.931Z" fill="#202124"/>
<path fill-rule="evenodd" clip-rule="evenodd" d="M72.0349 564.852L118.003 644.471L38.384 690.439L-7.58399 610.82L72.0349 564.852ZM75.7739 550.898L-21.5381 607.081L34.645 704.393L131.957 648.21L75.7739 550.898ZM64.5561 592.76L90.0939 636.993L45.8612 662.531L20.3234 618.298L64.5561 592.76ZM68.2951 578.806L6.36928 614.559L42.1222 676.485L104.048 640.732L68.2951 578.806ZM62.1847 629.515L57.0771 620.668L48.2306 625.776L53.3382 634.622L62.1847 629.515ZM34.2765 622.037L60.8161 606.714L76.1388 633.254L49.5992 648.577L34.2765 622.037Z" fill="#202124"/>
<path fill-rule="evenodd" clip-rule="evenodd" d="M210.207 579.442L183.667 594.764L137.699 515.145L146.546 510.038L187.406 580.81L196.252 575.703L155.392 504.93L164.239 499.823L210.207 579.442ZM148.282 615.194L174.821 599.872L128.853 520.253L120.007 525.36L160.867 596.133L152.021 601.24L111.16 530.468L102.314 535.575L148.282 615.194ZM238.115 586.92L181.932 489.608L173.086 494.715L224.161 583.181L144.542 629.149L93.4669 540.683L84.6204 545.791L140.803 643.103L238.115 586.92Z" fill="#202124"/>
<path fill-rule="evenodd" clip-rule="evenodd" d="M571.177 264.875L596.715 309.108L570.175 324.431L544.638 280.198L553.484 275.09L573.914 310.477L582.761 305.369L562.331 269.983L571.177 264.875ZM526.946 290.413L535.792 285.306L591.975 382.618L583.129 387.725L526.946 290.413ZM588.872 254.66L580.026 259.768L636.209 357.079L645.055 351.972L588.872 254.66ZM509.252 300.629L518.099 295.521L574.282 392.833L565.435 397.941L509.252 300.629ZM597.72 249.552L606.567 244.445L662.75 341.757L653.903 346.864L597.72 249.552ZM627.361 362.187L601.823 317.954L575.284 333.277L600.821 377.51L609.668 372.402L589.238 337.016L598.084 331.909L618.514 367.295L627.361 362.187Z" fill="#202124"/>
<path fill-rule="evenodd" clip-rule="evenodd" d="M708.984 197.108L754.952 276.727L675.333 322.695L629.365 243.076L708.984 197.108ZM712.723 183.154L615.411 239.337L671.594 336.649L768.906 280.466L712.723 183.154ZM701.507 225.017L727.044 269.249L682.812 294.787L657.274 250.554L701.507 225.017ZM705.246 211.062L643.32 246.815L679.073 308.741L740.998 272.988L705.246 211.062ZM699.135 261.771L694.028 252.925L685.181 258.032L690.289 266.879L699.135 261.771ZM671.227 254.293L697.767 238.971L713.089 265.51L686.55 280.833L671.227 254.293Z" fill="#202124"/>
<path fill-rule="evenodd" clip-rule="evenodd" d="M785.232 247.451L811.772 232.128L765.804 152.509L756.958 157.617L797.818 228.389L788.971 233.496L748.111 162.724L739.264 167.832L785.232 247.451ZM875.066 219.176L818.883 121.864L810.037 126.971L861.112 215.437L781.493 261.405L730.418 172.939L721.571 178.047L777.754 275.359L875.066 219.176ZM847.159 211.698L820.619 227.021L774.651 147.402L783.498 142.294L824.358 213.066L833.205 207.959L792.344 137.187L801.191 132.079L847.159 211.698Z" fill="#202124"/>
<path fill-rule="evenodd" clip-rule="evenodd" d="M270.399 438.532L261.553 443.639L317.736 540.951L326.582 535.844L270.399 438.532ZM279.246 433.424L288.092 428.317L344.276 525.629L335.429 530.736L279.246 433.424ZM190.78 484.5L199.627 479.393L255.81 576.705L246.964 581.812L190.78 484.5ZM208.475 474.285L217.322 469.177L273.505 566.489L264.658 571.597L208.475 474.285ZM252.707 448.747L278.245 492.98L251.705 508.302L226.167 464.07L235.014 458.962L255.444 494.348L264.291 489.241L243.86 453.854L252.707 448.747ZM308.889 546.059L283.351 501.826L256.812 517.149L282.35 561.382L291.196 556.274L270.766 520.888L279.612 515.78L300.043 551.166L308.889 546.059Z" fill="#202124"/>
<path fill-rule="evenodd" clip-rule="evenodd" d="M390.511 380.98L436.479 460.599L356.861 506.567L310.893 426.948L390.511 380.98ZM394.25 367.026L296.938 423.209L353.122 520.521L450.434 464.338L394.25 367.026ZM383.034 408.889L408.572 453.122L364.339 478.659L338.801 434.427L383.034 408.889ZM386.773 394.935L324.847 430.688L360.6 492.614L422.526 456.861L386.773 394.935ZM380.663 445.644L375.555 436.797L366.708 441.905L371.816 450.751L380.663 445.644ZM352.754 438.166L379.294 422.843L394.617 449.383L368.077 464.705L352.754 438.166Z" fill="#202124"/>
<path fill-rule="evenodd" clip-rule="evenodd" d="M528.685 395.569L502.145 410.892L456.177 331.273L465.024 326.165L505.884 396.938L514.731 391.83L473.87 321.058L482.717 315.95L528.685 395.569ZM556.594 403.047L500.411 305.735L491.564 310.843L542.64 399.308L463.021 445.276L411.945 356.811L403.099 361.918L459.282 459.23L556.594 403.047ZM466.76 431.322L493.3 416L447.332 336.381L438.485 341.488L479.346 412.261L470.499 417.368L429.639 346.596L420.792 351.703L466.76 431.322Z" fill="#202124"/>
<path fill-rule="evenodd" clip-rule="evenodd" d="M889.653 81.0034L915.191 125.236L888.651 140.559L863.113 96.326L871.96 91.2185L892.39 126.605L901.236 121.497L880.806 86.1109L889.653 81.0034ZM827.728 116.756L836.574 111.649L892.757 208.961L883.911 214.068L827.728 116.756ZM916.193 65.681L925.04 60.5734L981.223 157.885L972.376 162.993L916.193 65.681ZM907.348 70.7884L898.501 75.8959L954.684 173.208L963.531 168.1L907.348 70.7884ZM845.421 106.541L854.268 101.434L910.451 198.746L901.604 203.853L845.421 106.541ZM945.836 178.315L920.299 134.083L893.759 149.405L919.297 193.638L928.143 188.531L907.713 153.144L916.56 148.037L936.99 183.423L945.836 178.315Z" fill="#202124"/>
<path fill-rule="evenodd" clip-rule="evenodd" d="M1027.46 13.2367L1073.43 92.8556L993.808 138.824L947.84 59.2047L1027.46 13.2367ZM1031.2 -0.717392L933.886 55.4657L990.069 152.778L1087.38 96.5946L1031.2 -0.717392ZM1019.98 41.1451L1045.52 85.3779L1001.29 110.916L975.748 66.6829L1019.98 41.1451ZM1023.72 27.191L961.794 62.9439L997.547 124.87L1059.47 89.1168L1023.72 27.191ZM1017.61 77.8999L1012.5 69.0534L1003.66 74.1609L1008.76 83.0075L1017.61 77.8999ZM989.701 70.4219L1016.24 55.0993L1031.56 81.6389L1005.02 96.9616L989.701 70.4219Z" fill="#202124"/>
<path fill-rule="evenodd" clip-rule="evenodd" d="M724.406 530.271L749.943 574.503L723.404 589.826L697.866 545.593L706.713 540.486L727.143 575.872L735.989 570.764L715.559 535.378L724.406 530.271ZM662.481 566.024L671.327 560.916L727.51 658.228L718.664 663.336L662.481 566.024ZM750.947 514.948L759.794 509.84L815.977 607.152L807.131 612.26L750.947 514.948ZM742.102 520.055L733.256 525.163L789.439 622.475L798.285 617.367L742.102 520.055ZM680.176 555.809L689.022 550.701L745.205 648.013L736.359 653.121L680.176 555.809ZM780.589 627.583L755.052 583.35L728.512 598.673L754.05 642.905L762.896 637.798L742.466 602.412L751.313 597.304L771.743 632.69L780.589 627.583Z" fill="#202124"/>
<path fill-rule="evenodd" clip-rule="evenodd" d="M862.212 462.504L908.18 542.122L828.561 588.09L782.593 508.472L862.212 462.504ZM865.951 448.549L768.639 504.733L824.822 602.045L922.134 545.861L865.951 448.549ZM854.734 490.412L880.272 534.645L836.039 560.183L810.501 515.95L854.734 490.412ZM858.473 476.458L796.547 512.211L832.3 574.137L894.226 538.384L858.473 476.458ZM852.363 527.167L847.255 518.32L838.409 523.428L843.516 532.274L852.363 527.167ZM824.455 519.689L850.994 504.366L866.317 530.906L839.777 546.228L824.455 519.689Z" fill="#202124"/>
<path fill-rule="evenodd" clip-rule="evenodd" d="M1028.29 484.571L972.109 387.259L963.262 392.367L1014.34 480.832L934.719 526.8L883.643 438.335L874.797 443.442L930.98 540.754L1028.29 484.571ZM938.458 512.846L964.998 497.523L919.03 417.904L910.183 423.012L951.044 493.784L942.197 498.892L901.337 428.12L892.49 433.227L938.458 512.846ZM1000.38 477.093L973.845 492.416L927.877 412.797L936.723 407.69L977.584 478.462L986.43 473.354L945.57 402.582L954.416 397.474L1000.38 477.093Z" fill="#202124"/>
<path fill-rule="evenodd" clip-rule="evenodd" d="M543.736 646.376L589.704 725.995L510.085 771.963L464.117 692.344L543.736 646.376ZM547.475 632.422L450.163 688.605L506.346 785.917L603.658 729.734L547.475 632.422ZM536.259 674.284L561.796 718.517L517.564 744.055L492.026 699.822L536.259 674.284ZM539.998 660.33L478.072 696.083L513.825 758.009L575.75 722.256L539.998 660.33ZM533.887 711.039L528.78 702.193L519.933 707.3L525.041 716.147L533.887 711.039ZM505.979 703.561L532.519 688.239L547.841 714.778L521.302 730.101L505.979 703.561Z" fill="#202124"/>
<path fill-rule="evenodd" clip-rule="evenodd" d="M619.983 696.717L646.522 681.395L600.554 601.776L591.708 606.883L632.568 677.656L623.722 682.763L582.861 611.991L574.015 617.098L619.983 696.717ZM709.816 668.443L653.633 571.131L644.787 576.238L695.862 664.704L616.243 710.672L565.168 622.206L556.321 627.314L612.504 724.626L709.816 668.443ZM681.909 660.965L655.369 676.287L609.401 596.668L618.248 591.561L659.108 662.333L667.955 657.226L627.094 586.453L635.941 581.346L681.909 660.965Z" fill="#202124"/>
<path fill-rule="evenodd" clip-rule="evenodd" d="M56.982 314.045L30.4423 329.368L-15.5256 249.749L-6.6791 244.642L34.1813 315.414L43.0279 310.306L2.16745 239.534L11.014 234.427L56.982 314.045ZM-4.94291 349.798L21.5967 334.475L-24.3713 254.857L-33.2178 259.964L7.64262 330.737L-1.20392 335.844L-42.0644 265.072L-50.9109 270.179L-4.94291 349.798ZM84.8908 321.524L28.7077 224.212L19.8612 229.319L70.9367 317.785L-8.68215 363.753L-59.7577 275.287L-68.6042 280.395L-12.4211 377.707L84.8908 321.524Z" fill="#202124"/>
<path fill-rule="evenodd" clip-rule="evenodd" d="M417.954 -0.521046L443.491 43.7117L416.952 59.0343L391.414 14.8016L400.261 9.69406L420.691 45.0802L429.537 39.9727L409.107 4.58651L417.954 -0.521046ZM356.029 35.2322L364.875 30.1246L421.058 127.437L412.212 132.544L356.029 35.2322ZM444.497 -15.8441L453.343 -20.9517L509.526 76.3603L500.68 81.4679L444.497 -15.8441ZM435.65 -10.7364L426.803 -5.62889L482.987 91.6831L491.833 86.5755L435.65 -10.7364ZM373.724 25.0167L382.57 19.9092L438.753 117.221L429.907 122.329L373.724 25.0167ZM474.137 96.7908L448.6 52.5581L422.06 67.8807L447.598 112.113L456.444 107.006L436.014 71.6197L444.861 66.5122L465.291 101.898L474.137 96.7908Z" fill="#202124"/>
<path fill-rule="evenodd" clip-rule="evenodd" d="M555.761 -68.2884L601.729 11.3304L522.111 57.2984L476.143 -22.3205L555.761 -68.2884ZM559.5 -82.2425L462.188 -26.0594L518.372 71.2525L615.684 15.0694L559.5 -82.2425ZM548.284 -40.3799L573.822 3.8528L529.589 29.3906L504.051 -14.8421L548.284 -40.3799ZM552.023 -54.334L490.097 -18.5811L525.85 43.3447L587.776 7.59179L552.023 -54.334ZM545.914 -3.62513L540.807 -12.4717L531.96 -7.36411L537.068 1.48243L545.914 -3.62513ZM518.006 -11.1031L544.546 -26.4258L559.868 0.113868L533.329 15.4365L518.006 -11.1031Z" fill="#202124"/>
<path fill-rule="evenodd" clip-rule="evenodd" d="M632.007 -17.9461L658.547 -33.2687L612.579 -112.888L603.732 -107.78L644.593 -37.0077L635.746 -31.9002L594.886 -102.673L586.039 -97.565L632.007 -17.9461ZM721.841 -46.2207L665.658 -143.533L656.811 -138.425L707.887 -49.9597L628.268 -3.9917L577.192 -92.4571L568.346 -87.3496L624.529 9.9624L721.841 -46.2207ZM693.933 -53.6988L667.394 -38.3761L621.426 -117.995L630.272 -123.103L671.133 -52.3302L679.979 -57.4378L639.119 -128.21L647.965 -133.318L693.933 -53.6988Z" fill="#202124"/>
<path fill-rule="evenodd" clip-rule="evenodd" d="M126.017 168.028L134.864 162.92L191.047 260.232L182.2 265.339L126.017 168.028ZM37.5519 219.103L46.3984 213.996L102.582 311.308L93.735 316.415L37.5519 219.103ZM117.172 173.135L108.325 178.243L164.508 275.555L173.355 270.447L117.172 173.135ZM55.2467 208.888L64.0933 203.78L120.276 301.092L111.43 306.2L55.2467 208.888ZM99.4783 183.35L125.016 227.583L98.4764 242.906L72.9386 198.673L81.7852 193.565L102.215 228.951L111.062 223.844L90.6317 188.458L99.4783 183.35ZM155.661 280.662L130.123 236.429L103.583 251.752L129.121 295.985L137.967 290.877L117.537 255.491L126.384 250.383L146.814 285.77L155.661 280.662Z" fill="#202124"/>
<path fill-rule="evenodd" clip-rule="evenodd" d="M237.283 115.584L283.251 195.202L203.632 241.17L157.664 161.552L237.283 115.584ZM241.022 101.629L143.71 157.813L199.893 255.125L297.205 198.941L241.022 101.629ZM229.805 143.492L255.343 187.725L211.11 213.263L185.573 169.03L229.805 143.492ZM233.544 129.538L171.619 165.291L207.371 227.217L269.297 191.464L233.544 129.538ZM227.435 180.247L222.328 171.4L213.481 176.508L218.589 185.355L227.435 180.247ZM199.527 172.769L226.067 157.446L241.39 183.986L214.85 199.309L199.527 172.769Z" fill="#202124"/>
<path fill-rule="evenodd" clip-rule="evenodd" d="M403.365 137.65L347.182 40.3385L338.336 45.446L389.411 133.911L309.792 179.879L258.717 91.414L249.87 96.5215L306.053 193.834L403.365 137.65ZM313.532 165.925L340.071 150.602L294.103 70.9836L285.257 76.0911L326.117 146.863L317.271 151.971L276.41 81.1987L267.564 86.3062L313.532 165.925ZM375.458 130.172L348.918 145.495L302.95 65.8762L311.797 60.7687L352.657 131.541L361.504 126.433L320.644 55.6611L329.49 50.5536L375.458 130.172Z" fill="#202124"/>
<path fill-rule="evenodd" clip-rule="evenodd" d="M56.982 314.045L30.4423 329.368L-15.5256 249.749L-6.6791 244.642L34.1813 315.414L43.0279 310.306L2.16745 239.534L11.014 234.427L56.982 314.045ZM-4.94291 349.798L21.5967 334.475L-24.3713 254.857L-33.2178 259.964L7.64262 330.737L-1.20392 335.844L-42.0644 265.072L-50.9109 270.179L-4.94291 349.798ZM84.8908 321.524L28.7077 224.212L19.8612 229.319L70.9367 317.785L-8.68215 363.753L-59.7577 275.287L-68.6042 280.395L-12.4211 377.707L84.8908 321.524Z" fill="#202124"/>
<path fill-rule="evenodd" clip-rule="evenodd" d="M417.954 -0.521046L443.491 43.7117L416.952 59.0343L391.414 14.8016L400.261 9.69406L420.691 45.0802L429.537 39.9727L409.107 4.58651L417.954 -0.521046ZM356.029 35.2322L364.875 30.1246L421.058 127.437L412.212 132.544L356.029 35.2322ZM444.497 -15.8441L453.343 -20.9517L509.526 76.3603L500.68 81.4679L444.497 -15.8441ZM435.65 -10.7364L426.803 -5.62889L482.987 91.6831L491.833 86.5755L435.65 -10.7364ZM373.724 25.0167L382.57 19.9092L438.753 117.221L429.907 122.329L373.724 25.0167ZM474.137 96.7908L448.6 52.5581L422.06 67.8807L447.598 112.113L456.444 107.006L436.014 71.6197L444.861 66.5122L465.291 101.898L474.137 96.7908Z" fill="#202124"/>
<path fill-rule="evenodd" clip-rule="evenodd" d="M555.761 -68.2884L601.729 11.3304L522.111 57.2984L476.143 -22.3205L555.761 -68.2884ZM559.5 -82.2425L462.188 -26.0594L518.372 71.2525L615.684 15.0694L559.5 -82.2425ZM548.284 -40.3799L573.822 3.8528L529.589 29.3906L504.051 -14.8421L548.284 -40.3799ZM552.023 -54.334L490.097 -18.5811L525.85 43.3447L587.776 7.59179L552.023 -54.334ZM545.914 -3.62513L540.807 -12.4717L531.96 -7.36411L537.068 1.48243L545.914 -3.62513ZM518.006 -11.1031L544.546 -26.4258L559.868 0.113868L533.329 15.4365L518.006 -11.1031Z" fill="#202124"/>
<path fill-rule="evenodd" clip-rule="evenodd" d="M632.007 -17.9461L658.547 -33.2687L612.579 -112.888L603.732 -107.78L644.593 -37.0077L635.746 -31.9002L594.886 -102.673L586.039 -97.565L632.007 -17.9461ZM721.841 -46.2207L665.658 -143.533L656.811 -138.425L707.887 -49.9597L628.268 -3.9917L577.192 -92.4571L568.346 -87.3496L624.529 9.9624L721.841 -46.2207ZM693.933 -53.6988L667.394 -38.3761L621.426 -117.995L630.272 -123.103L671.133 -52.3302L679.979 -57.4378L639.119 -128.21L647.965 -133.318L693.933 -53.6988Z" fill="#202124"/>
<path fill-rule="evenodd" clip-rule="evenodd" d="M126.017 168.028L134.864 162.92L191.047 260.232L182.2 265.339L126.017 168.028ZM37.5519 219.103L46.3984 213.996L102.582 311.308L93.735 316.415L37.5519 219.103ZM117.172 173.135L108.325 178.243L164.508 275.555L173.355 270.447L117.172 173.135ZM55.2467 208.888L64.0933 203.78L120.276 301.092L111.43 306.2L55.2467 208.888ZM99.4783 183.35L125.016 227.583L98.4764 242.906L72.9386 198.673L81.7852 193.565L102.215 228.951L111.062 223.844L90.6317 188.458L99.4783 183.35ZM155.661 280.662L130.123 236.429L103.583 251.752L129.121 295.985L137.967 290.877L117.537 255.491L126.384 250.383L146.814 285.77L155.661 280.662Z" fill="#202124"/>
<path fill-rule="evenodd" clip-rule="evenodd" d="M237.283 115.584L283.251 195.202L203.632 241.17L157.664 161.552L237.283 115.584ZM241.022 101.629L143.71 157.813L199.893 255.125L297.205 198.941L241.022 101.629ZM229.805 143.492L255.343 187.725L211.11 213.263L185.573 169.03L229.805 143.492ZM233.544 129.538L171.619 165.291L207.371 227.217L269.297 191.464L233.544 129.538ZM227.435 180.247L222.328 171.4L213.481 176.508L218.589 185.355L227.435 180.247ZM199.527 172.769L226.067 157.446L241.39 183.986L214.85 199.309L199.527 172.769Z" fill="#202124"/>
<path fill-rule="evenodd" clip-rule="evenodd" d="M403.365 137.65L347.182 40.3385L338.336 45.446L389.411 133.911L309.792 179.879L258.717 91.414L249.87 96.5215L306.053 193.834L403.365 137.65ZM313.532 165.925L340.071 150.602L294.103 70.9836L285.257 76.0911L326.117 146.863L317.271 151.971L276.41 81.1987L267.564 86.3062L313.532 165.925ZM375.458 130.172L348.918 145.495L302.95 65.8762L311.797 60.7687L352.657 131.541L361.504 126.433L320.644 55.6611L329.49 50.5536L375.458 130.172Z" fill="#202124"/>
<path fill-rule="evenodd" clip-rule="evenodd" d="M-73.446 47.2806L-47.9082 91.5133L-74.4478 106.836L-99.9856 62.6033L-91.1391 57.4957L-70.7088 92.8819L-61.8623 87.7743L-82.2925 52.3881L-73.446 47.2806ZM-135.371 83.0335L-126.524 77.9259L-70.3412 175.238L-79.1878 180.345L-135.371 83.0335ZM-46.9042 31.9576L-38.0576 26.8501L18.1254 124.162L9.2789 129.27L-46.9042 31.9576ZM-55.7496 37.0652L-64.5961 42.1727L-8.41303 139.485L0.433514 134.377L-55.7496 37.0652ZM-117.676 72.8184L-108.83 67.7108L-52.6465 165.023L-61.493 170.13L-117.676 72.8184ZM-17.2623 144.592L-42.8001 100.36L-69.3397 115.682L-43.8019 159.915L-34.9554 154.808L-55.3856 119.421L-46.5391 114.314L-26.1088 149.7L-17.2623 144.592Z" fill="#202124"/>
<path fill-rule="evenodd" clip-rule="evenodd" d="M64.363 -20.4867L110.331 59.1322L30.7121 105.1L-15.2559 25.4813L64.363 -20.4867ZM68.102 -34.4408L-29.21 21.7423L26.9731 119.054L124.285 62.8712L68.102 -34.4408ZM56.8855 7.42182L82.4233 51.6545L38.1905 77.1923L12.6528 32.9596L56.8855 7.42182ZM60.6245 -6.53228L-1.30133 29.2206L34.4515 91.1464L96.3774 55.3935L60.6245 -6.53228ZM54.5141 44.1766L49.4065 35.3301L40.56 40.4376L45.6675 49.2842L54.5141 44.1766ZM26.6059 36.6986L53.1455 21.376L68.4682 47.9156L41.9286 63.2383L26.6059 36.6986Z" fill="#202124"/>
<path fill-rule="evenodd" clip-rule="evenodd" d="M230.443 1.5809L174.26 -95.7311L165.414 -90.6235L216.489 -2.15809L136.87 43.8099L85.7948 -44.6555L76.9482 -39.548L133.131 57.764L230.443 1.5809ZM140.61 29.8558L167.149 14.5331L121.181 -65.0858L112.335 -59.9782L153.195 10.7941L144.349 15.9017L103.488 -54.8707L94.6416 -49.7631L140.61 29.8558ZM202.536 -5.89747L175.996 9.42519L130.028 -70.1937L138.875 -75.3013L179.735 -4.52891L188.582 -9.63646L147.721 -80.4088L156.568 -85.5164L202.536 -5.89747Z" fill="#202124"/>
<path fill-rule="evenodd" clip-rule="evenodd" d="M128.586 744.52L155.126 729.197L109.158 649.578L100.311 654.686L141.172 725.458L132.325 730.566L91.4647 659.794L82.6182 664.901L128.586 744.52ZM218.42 716.245L162.237 618.933L153.39 624.041L204.466 712.506L124.847 758.474L73.7714 670.009L64.9248 675.116L121.108 772.428L218.42 716.245ZM190.512 708.767L163.973 724.09L118.005 644.471L126.851 639.363L167.712 710.136L176.558 705.028L135.698 634.256L144.544 629.148L190.512 708.767Z" fill="#202124"/>
<path fill-rule="evenodd" clip-rule="evenodd" d="M578.024 378.878L586.871 373.771L643.054 471.083L634.207 476.19L578.024 378.878ZM489.559 429.954L498.405 424.847L554.588 522.159L545.742 527.266L489.559 429.954ZM569.179 383.986L560.332 389.093L616.515 486.405L625.362 481.298L569.179 383.986ZM507.254 419.739L516.1 414.631L572.283 511.943L563.437 517.051L507.254 419.739ZM551.487 394.201L577.024 438.434L550.485 453.756L524.947 409.524L533.793 404.416L554.224 439.802L563.07 434.695L542.64 399.309L551.487 394.201ZM607.67 491.513L582.132 447.28L555.593 462.603L581.131 506.836L589.977 501.728L569.547 466.342L578.393 461.235L598.824 496.621L607.67 491.513Z" fill="#202124"/>
<path fill-rule="evenodd" clip-rule="evenodd" d="M689.291 326.434L735.259 406.053L655.64 452.021L609.672 372.402L689.291 326.434ZM693.03 312.48L595.718 368.663L651.901 465.975L749.213 409.792L693.03 312.48ZM681.813 354.343L707.351 398.575L663.118 424.113L637.581 379.881L681.813 354.343ZM685.552 340.389L623.626 376.142L659.379 438.067L721.305 402.314L685.552 340.389ZM679.442 391.097L674.334 382.25L665.488 387.358L670.595 396.204L679.442 391.097ZM651.534 383.619L678.073 368.296L693.396 394.836L666.856 410.158L651.534 383.619Z" fill="#202124"/>
<path fill-rule="evenodd" clip-rule="evenodd" d="M855.37 348.502L799.187 251.19L790.34 256.297L841.416 344.763L761.797 390.731L710.722 302.265L701.875 307.373L758.058 404.685L855.37 348.502ZM765.538 376.777L792.077 361.454L746.109 281.835L737.263 286.943L778.123 357.715L769.277 362.823L728.416 292.05L719.57 297.158L765.538 376.777ZM827.463 341.024L800.923 356.346L754.955 276.727L763.802 271.62L804.662 342.392L813.509 337.285L772.648 266.512L781.495 261.405L827.463 341.024Z" fill="#202124"/>
<path fill-rule="evenodd" clip-rule="evenodd" d="M233.007 578.073L258.545 622.306L232.005 637.628L206.468 593.396L215.314 588.288L235.744 623.674L244.591 618.567L224.161 583.181L233.007 578.073ZM171.082 613.826L179.929 608.718L236.112 706.03L227.265 711.138L171.082 613.826ZM259.55 562.75L268.397 557.643L324.58 654.954L315.733 660.062L259.55 562.75ZM250.704 567.858L241.857 572.965L298.04 670.277L306.887 665.17L250.704 567.858ZM188.777 603.611L197.624 598.503L253.807 695.815L244.96 700.923L188.777 603.611ZM289.191 675.385L263.653 631.152L237.113 646.475L262.651 690.708L271.498 685.6L251.068 650.214L259.914 645.106L280.344 680.493L289.191 675.385Z" fill="#202124"/>
<path fill-rule="evenodd" clip-rule="evenodd" d="M370.817 510.306L416.785 589.925L337.166 635.893L291.198 556.274L370.817 510.306ZM374.556 496.352L277.244 552.535L333.427 649.847L430.739 593.664L374.556 496.352ZM363.34 538.214L388.877 582.447L344.645 607.985L319.107 563.752L363.34 538.214ZM367.079 524.26L305.153 560.013L340.906 621.939L402.831 586.186L367.079 524.26ZM360.968 574.969L355.861 566.123L347.014 571.23L352.122 580.077L360.968 574.969ZM333.06 567.491L359.6 552.169L374.922 578.708L348.383 594.031L333.06 567.491Z" fill="#202124"/>
<path fill-rule="evenodd" clip-rule="evenodd" d="M447.06 560.648L473.6 545.325L427.632 465.707L418.785 470.814L459.645 541.587L450.799 546.694L409.938 475.922L401.092 481.029L447.06 560.648ZM536.894 532.374L480.711 435.062L471.864 440.169L522.94 528.635L443.321 574.603L392.245 486.137L383.399 491.245L439.582 588.557L536.894 532.374ZM508.986 524.895L482.447 540.218L436.479 460.599L445.325 455.491L486.186 526.264L495.032 521.156L454.172 450.384L463.018 445.276L508.986 524.895Z" fill="#202124"/>
<path fill-rule="evenodd" clip-rule="evenodd" d="M896.501 195.006L905.347 189.899L961.53 287.211L952.684 292.318L896.501 195.006ZM808.035 246.082L816.882 240.974L873.065 338.286L864.218 343.394L808.035 246.082ZM887.655 200.114L878.809 205.221L934.992 302.533L943.838 297.426L887.655 200.114ZM825.729 235.867L834.575 230.759L890.758 328.071L881.912 333.179L825.729 235.867ZM869.962 210.329L895.499 254.561L868.96 269.884L843.422 225.651L852.269 220.544L872.699 255.93L881.545 250.822L861.115 215.436L869.962 210.329ZM926.145 307.641L900.608 263.408L874.068 278.731L899.606 322.964L908.452 317.856L888.022 282.47L896.869 277.362L917.299 312.748L926.145 307.641Z" fill="#202124"/>
<path fill-rule="evenodd" clip-rule="evenodd" d="M1007.77 142.562L1053.73 222.181L974.114 268.149L928.146 188.53L1007.77 142.562ZM1011.5 128.608L914.192 184.791L970.375 282.103L1067.69 225.92L1011.5 128.608ZM1000.29 170.471L1025.83 214.703L981.593 240.241L956.055 196.008L1000.29 170.471ZM1004.03 156.516L942.101 192.269L977.854 254.195L1039.78 218.442L1004.03 156.516ZM997.916 207.225L992.809 198.379L983.962 203.486L989.07 212.333L997.916 207.225ZM970.008 199.747L996.548 184.425L1011.87 210.964L985.331 226.287L970.008 199.747Z" fill="#202124"/>
<path fill-rule="evenodd" clip-rule="evenodd" d="M731.25 644.274L740.096 639.167L796.279 736.479L787.433 741.586L731.25 644.274ZM642.784 695.35L651.631 690.242L707.814 787.554L698.967 792.662L642.784 695.35ZM722.404 649.382L713.558 654.489L769.741 751.801L778.587 746.694L722.404 649.382ZM660.479 685.135L669.326 680.027L725.509 777.339L716.662 782.446L660.479 685.135ZM704.711 659.597L730.248 703.83L703.709 719.152L678.171 674.92L687.018 669.812L707.448 705.198L716.294 700.091L695.864 664.704L704.711 659.597ZM760.894 756.909L735.357 712.676L708.817 727.999L734.355 772.232L743.201 767.124L722.771 731.738L731.618 726.63L752.048 762.016L760.894 756.909Z" fill="#202124"/>
<path fill-rule="evenodd" clip-rule="evenodd" d="M842.514 591.831L888.482 671.45L808.863 717.418L762.896 637.799L842.514 591.831ZM846.253 577.877L748.941 634.06L805.124 731.372L902.436 675.189L846.253 577.877ZM835.037 619.739L860.575 663.972L816.342 689.509L790.804 645.277L835.037 619.739ZM838.776 605.785L776.85 641.538L812.603 703.464L874.529 667.711L838.776 605.785ZM832.665 656.493L827.558 647.647L818.711 652.754L823.819 661.601L832.665 656.493ZM804.757 649.015L831.297 633.693L846.62 660.232L820.08 675.555L804.757 649.015Z" fill="#202124"/>
<path fill-rule="evenodd" clip-rule="evenodd" d="M980.691 606.42L954.151 621.742L908.183 542.123L917.03 537.016L957.89 607.788L966.737 602.681L925.876 531.908L934.723 526.801L980.691 606.42ZM1008.6 613.898L952.415 516.586L943.569 521.694L994.644 610.159L915.026 656.127L863.95 567.662L855.104 572.769L911.287 670.081L1008.6 613.898ZM918.766 642.173L945.306 626.85L899.338 547.231L890.491 552.339L931.352 623.111L922.505 628.219L881.645 557.446L872.798 562.554L918.766 642.173Z" fill="#202124"/>
<path fill-rule="evenodd" clip-rule="evenodd" d="M37.2845 443.371L10.7449 458.694L-35.2231 379.075L-26.3766 373.967L14.4838 444.74L23.3304 439.632L-17.53 368.86L-8.6835 363.752L37.2845 443.371ZM65.1933 450.849L9.01024 353.537L0.163699 358.644L51.2392 447.11L-28.3796 493.078L-79.4552 404.612L-88.3017 409.72L-32.1186 507.032L65.1933 450.849ZM-24.6404 479.124L1.89922 463.801L-44.0688 384.182L-52.9153 389.29L-12.0549 460.062L-20.9014 465.169L-61.7618 394.397L-70.6084 399.505L-24.6404 479.124Z" fill="#202124"/>
<path fill-rule="evenodd" clip-rule="evenodd" d="M424.796 113.482L433.643 108.375L489.826 205.686L480.98 210.794L424.796 113.482ZM336.331 164.558L345.178 159.45L401.361 256.762L392.514 261.87L336.331 164.558ZM415.951 118.59L407.105 123.697L463.288 221.009L472.134 215.902L415.951 118.59ZM354.025 154.342L362.871 149.235L419.054 246.547L410.208 251.654L354.025 154.342ZM398.257 128.805L423.795 173.037L397.256 188.36L371.718 144.127L380.564 139.02L400.995 174.406L409.841 169.298L389.411 133.912L398.257 128.805ZM454.441 226.117L428.903 181.884L402.364 197.207L427.902 241.439L436.748 236.332L416.318 200.946L425.164 195.838L445.595 231.224L454.441 226.117Z" fill="#202124"/>
<path fill-rule="evenodd" clip-rule="evenodd" d="M536.063 61.0382L582.031 140.657L502.412 186.625L456.444 107.006L536.063 61.0382ZM539.802 47.0841L442.49 103.267L498.673 200.579L595.985 144.396L539.802 47.0841ZM528.586 88.9467L554.124 133.179L509.891 158.717L484.353 114.484L528.586 88.9467ZM532.325 74.9926L470.399 110.745L506.152 172.671L568.078 136.918L532.325 74.9926ZM526.215 125.701L521.107 116.854L512.26 121.962L517.368 130.808L526.215 125.701ZM498.306 118.223L524.846 102.9L540.169 129.44L513.629 144.762L498.306 118.223Z" fill="#202124"/>
<path fill-rule="evenodd" clip-rule="evenodd" d="M674.234 75.6274L647.694 90.9501L601.726 11.3312L610.573 6.22364L651.433 76.996L660.28 71.8884L619.419 1.11608L628.266 -3.99147L674.234 75.6274ZM702.143 83.1055L645.96 -14.2064L637.113 -9.09889L688.189 79.3665L608.57 125.335L557.494 36.8691L548.648 41.9766L604.831 139.289L702.143 83.1055ZM612.31 111.38L638.85 96.0577L592.882 16.4389L584.036 21.5464L624.896 92.3188L616.049 97.4263L575.189 26.654L566.342 31.7615L612.31 111.38Z" fill="#202124"/>
<path fill-rule="evenodd" clip-rule="evenodd" d="M79.7797 312.677L105.317 356.91L78.7778 372.232L53.2401 328L62.0866 322.892L82.5168 358.278L91.3634 353.171L70.9332 317.785L79.7797 312.677ZM35.5481 338.215L44.3947 333.107L100.578 430.419L91.7312 435.527L35.5481 338.215ZM97.4747 302.462L88.6281 307.569L144.811 404.881L153.658 399.774L97.4747 302.462ZM17.8548 348.43L26.7014 343.323L82.8844 440.635L74.0379 445.742L17.8548 348.43ZM106.321 297.354L115.168 292.246L171.351 389.558L162.505 394.666L106.321 297.354ZM135.963 409.989L110.426 365.756L83.886 381.079L109.424 425.312L118.27 420.204L97.8401 384.818L106.687 379.71L127.117 415.096L135.963 409.989Z" fill="#202124"/>
<path fill-rule="evenodd" clip-rule="evenodd" d="M217.587 244.91L263.555 324.529L183.936 370.497L137.968 290.878L217.587 244.91ZM221.326 230.956L124.014 287.139L180.197 384.451L277.509 328.268L221.326 230.956ZM210.109 272.818L235.647 317.051L191.414 342.589L165.876 298.356L210.109 272.818ZM213.848 258.864L151.922 294.617L187.675 356.543L249.601 320.79L213.848 258.864ZM207.738 309.573L202.63 300.726L193.784 305.834L198.891 314.68L207.738 309.573ZM179.83 302.095L206.369 286.772L221.692 313.312L195.152 328.634L179.83 302.095Z" fill="#202124"/>
<path fill-rule="evenodd" clip-rule="evenodd" d="M355.76 259.499L329.221 274.822L283.253 195.203L292.099 190.095L332.96 260.868L341.806 255.76L300.946 184.988L309.792 179.88L355.76 259.499ZM293.834 295.252L320.374 279.93L274.406 200.311L265.559 205.418L306.42 276.191L297.573 281.298L256.713 210.526L247.866 215.633L293.834 295.252ZM383.668 266.977L327.485 169.666L318.638 174.773L369.714 263.239L290.095 309.206L239.019 220.741L230.173 225.849L286.356 323.161L383.668 266.977Z" fill="#202124"/>
<path fill-rule="evenodd" clip-rule="evenodd" d="M672.501 -29.5288L681.347 -34.6364L737.53 62.6756L728.684 67.7831L672.501 -29.5288ZM734.427 -65.2821L725.581 -60.1746L781.764 37.1374L790.61 32.0299L734.427 -65.2821ZM743.274 -70.3897L752.121 -75.4972L808.304 21.8147L799.457 26.9223L743.274 -70.3897ZM654.809 -19.3141L663.655 -24.4217L719.838 72.8903L710.992 77.9978L654.809 -19.3141ZM716.735 -55.0671L742.273 -10.8344L715.733 4.48823L690.195 -39.7445L699.042 -44.852L719.472 -9.46587L728.319 -14.5734L707.888 -49.9596L716.735 -55.0671ZM772.919 42.2449L747.381 -1.98776L720.841 13.3349L746.379 57.5676L755.226 52.4601L734.795 17.0739L743.642 11.9663L764.072 47.3525L772.919 42.2449Z" fill="#202124"/>
<path fill-rule="evenodd" clip-rule="evenodd" d="M854.54 -122.834L900.508 -43.2148L820.889 2.75319L774.921 -76.8657L854.54 -122.834ZM858.279 -136.788L760.967 -80.6047L817.15 16.7073L914.462 -39.4758L858.279 -136.788ZM847.062 -94.9253L872.6 -50.6926L828.367 -25.1548L802.829 -69.3875L847.062 -94.9253ZM850.801 -108.879L788.875 -73.1265L824.628 -11.2007L886.554 -46.9536L850.801 -108.879ZM844.691 -58.1705L839.583 -67.0171L830.737 -61.9095L835.844 -53.063L844.691 -58.1705ZM816.783 -65.6485L843.322 -80.9712L858.645 -54.4315L832.105 -39.1089L816.783 -65.6485Z" fill="#202124"/>
<path fill-rule="evenodd" clip-rule="evenodd" d="M269.568 -32.8035L278.415 -37.911L334.598 59.4009L325.751 64.5085L269.568 -32.8035ZM358.034 -83.8787L366.88 -88.9862L423.063 8.32572L414.217 13.4333L358.034 -83.8787ZM349.188 -78.7711L340.342 -73.6636L396.525 23.6484L405.371 18.5408L349.188 -78.7711ZM287.262 -43.0185L296.108 -48.1261L352.291 49.1859L343.445 54.2934L287.262 -43.0185ZM331.495 -68.5562L357.032 -24.3234L330.493 -9.00078L304.955 -53.2335L313.802 -58.341L334.232 -22.9549L343.078 -28.0624L322.648 -63.4486L331.495 -68.5562ZM387.677 28.7557L362.139 -15.477L335.6 -0.154378L361.137 44.0783L369.984 38.9708L349.554 3.58461L358.4 -1.52294L378.83 33.8632L387.677 28.7557Z" fill="#202124"/>
<path fill-rule="evenodd" clip-rule="evenodd" d="M469.301 -136.323L515.269 -56.7045L435.651 -10.7365L389.683 -90.3554L469.301 -136.323ZM473.04 -150.277L375.729 -94.0944L431.912 3.2176L529.224 -52.9655L473.04 -150.277ZM461.824 -108.415L487.362 -64.1825L443.129 -38.6447L417.591 -82.8774L461.824 -108.415ZM465.563 -122.369L403.637 -86.6164L439.39 -24.6906L501.316 -60.4435L465.563 -122.369ZM459.452 -71.6604L454.345 -80.5069L445.498 -75.3994L450.606 -66.5528L459.452 -71.6604ZM431.544 -79.1384L458.084 -94.461L473.406 -67.9214L446.867 -52.5987L431.544 -79.1384Z" fill="#202124"/>
<path fill-rule="evenodd" clip-rule="evenodd" d="M13.019 115.315L38.5568 159.548L12.0171 174.871L-13.5206 130.638L-4.67411 125.53L15.7561 160.917L24.6027 155.809L4.17243 120.423L13.019 115.315ZM30.7126 105.1L21.866 110.208L78.0491 207.52L86.8956 202.412L30.7126 105.1ZM-48.907 151.069L-40.0605 145.961L16.1226 243.273L7.27607 248.381L-48.907 151.069ZM39.5593 99.993L48.4059 94.8855L104.589 192.197L95.7424 197.305L39.5593 99.993ZM-31.2126 140.853L-22.366 135.746L33.8171 233.058L24.9705 238.165L-31.2126 140.853ZM69.2026 212.628L43.6649 168.395L17.1252 183.718L42.663 227.951L51.5096 222.843L31.0793 187.457L39.9259 182.349L60.3561 217.736L69.2026 212.628Z" fill="#202124"/>
<path fill-rule="evenodd" clip-rule="evenodd" d="M150.825 47.5488L196.793 127.168L117.174 173.136L71.206 93.5168L150.825 47.5488ZM154.564 33.5947L57.252 89.7778L113.435 187.09L210.747 130.907L154.564 33.5947ZM143.348 75.4569L168.885 119.69L124.653 145.227L99.1149 100.995L143.348 75.4569ZM147.087 61.5028L85.1608 97.2557L120.914 159.181L182.839 123.429L147.087 61.5028ZM140.976 112.212L135.869 103.365L127.022 108.473L132.13 117.319L140.976 112.212ZM113.068 104.734L139.608 89.4111L154.93 115.951L128.391 131.273L113.068 104.734Z" fill="#202124"/>
<path fill-rule="evenodd" clip-rule="evenodd" d="M316.905 69.6157L260.722 -27.6963L251.876 -22.5887L302.951 65.8767L223.332 111.845L172.257 23.3793L163.41 28.4868L219.593 125.799L316.905 69.6157ZM227.071 97.8908L253.611 82.5682L207.643 2.94929L198.797 8.05685L239.657 78.8292L230.81 83.9367L189.95 13.1644L181.103 18.272L227.071 97.8908ZM288.996 62.1381L262.457 77.4608L216.489 -2.15812L225.335 -7.26567L266.196 63.5067L275.042 58.3991L234.182 -12.3732L243.028 -17.4808L288.996 62.1381Z" fill="#202124"/>
<path fill-rule="evenodd" clip-rule="evenodd" d="M593.712 487.773L602.558 482.666L658.741 579.978L649.895 585.085L593.712 487.773ZM664.485 446.913L673.332 441.805L729.515 539.117L720.668 544.225L664.485 446.913ZM576.02 497.988L584.866 492.881L641.049 590.193L632.203 595.3L576.02 497.988ZM655.638 452.021L646.792 457.128L702.975 554.44L711.821 549.333L655.638 452.021ZM637.945 462.236L663.482 506.468L636.943 521.791L611.405 477.558L620.252 472.451L640.682 507.837L649.528 502.729L629.098 467.343L637.945 462.236ZM694.128 559.548L668.591 515.315L642.051 530.637L667.589 574.87L676.435 569.763L656.005 534.376L664.852 529.269L685.282 564.655L694.128 559.548Z" fill="#202124"/>
<path fill-rule="evenodd" clip-rule="evenodd" d="M775.752 394.469L821.72 474.087L742.101 520.055L696.133 440.436L775.752 394.469ZM779.491 380.514L682.179 436.698L738.362 534.009L835.674 477.826L779.491 380.514ZM768.274 422.376L793.812 466.609L749.579 492.147L724.042 447.914L768.274 422.376ZM772.013 408.422L710.088 444.175L745.84 506.101L807.766 470.348L772.013 408.422ZM765.903 459.131L760.795 450.285L751.949 455.392L757.056 464.239L765.903 459.131ZM737.995 451.653L764.534 436.331L779.857 462.87L753.317 478.193L737.995 451.653Z" fill="#202124"/>
<path fill-rule="evenodd" clip-rule="evenodd" d="M913.922 409.058L887.383 424.381L841.415 344.762L850.261 339.655L891.122 410.427L899.968 405.319L859.108 334.547L867.954 329.439L913.922 409.058ZM941.831 416.536L885.648 319.224L876.801 324.332L927.877 412.797L848.258 458.765L797.183 370.3L788.336 375.407L844.519 472.719L941.831 416.536ZM851.997 444.811L878.537 429.488L832.569 349.87L823.722 354.977L864.583 425.749L855.736 430.857L814.876 360.085L806.029 365.192L851.997 444.811Z" fill="#202124"/>
<path fill-rule="evenodd" clip-rule="evenodd" d="M337.162 635.892L328.315 641L384.498 738.312L393.345 733.204L337.162 635.892ZM257.543 681.861L266.39 676.753L322.573 774.065L313.726 779.173L257.543 681.861ZM346.01 630.785L354.856 625.677L411.04 722.989L402.193 728.097L346.01 630.785ZM275.238 671.645L284.085 666.538L340.268 763.85L331.421 768.957L275.238 671.645ZM319.47 646.107L345.007 690.34L318.468 705.663L292.93 661.43L301.776 656.323L322.207 691.709L331.053 686.601L310.623 651.215L319.47 646.107ZM375.653 743.42L350.115 699.187L323.576 714.51L349.114 758.742L357.96 753.635L337.53 718.249L346.376 713.141L366.807 748.527L375.653 743.42Z" fill="#202124"/>
<path fill-rule="evenodd" clip-rule="evenodd" d="M457.278 578.341L503.246 657.96L423.627 703.928L377.659 624.309L457.278 578.341ZM461.017 564.387L363.705 620.57L419.888 717.882L517.2 661.699L461.017 564.387ZM449.801 606.249L475.338 650.482L431.106 676.019L405.568 631.787L449.801 606.249ZM453.54 592.295L391.614 628.048L427.367 689.973L489.292 654.221L453.54 592.295ZM447.429 643.004L442.322 634.157L433.475 639.265L438.583 648.111L447.429 643.004ZM419.521 635.526L446.061 620.203L461.383 646.743L434.844 662.065L419.521 635.526Z" fill="#202124"/>
<path fill-rule="evenodd" clip-rule="evenodd" d="M623.357 600.408L567.174 503.096L558.328 508.203L609.403 596.669L529.784 642.637L478.709 554.171L469.862 559.279L526.045 656.591L623.357 600.408ZM533.524 628.683L560.063 613.36L514.095 533.741L505.249 538.849L546.109 609.621L537.263 614.729L496.402 543.956L487.556 549.064L533.524 628.683ZM595.45 592.93L568.91 608.253L522.942 528.634L531.789 523.526L572.649 594.299L581.496 589.191L540.635 518.419L549.482 513.311L595.45 592.93Z" fill="#202124"/>
<path fill-rule="evenodd" clip-rule="evenodd" d="M912.19 303.901L921.037 298.794L977.22 396.105L968.373 401.213L912.19 303.901ZM974.117 268.149L965.27 273.256L1021.45 370.568L1030.3 365.46L974.117 268.149ZM894.498 314.116L903.345 309.009L959.528 406.321L950.681 411.428L894.498 314.116ZM982.964 263.041L991.81 257.933L1047.99 355.245L1039.15 360.353L982.964 263.041ZM956.425 278.363L981.962 322.596L955.423 337.919L929.885 293.686L938.732 288.579L959.162 323.965L968.008 318.857L947.578 283.471L956.425 278.363ZM1012.61 375.675L987.069 331.443L960.53 346.765L986.067 390.998L994.914 385.89L974.484 350.504L983.33 345.397L1003.76 380.783L1012.61 375.675Z" fill="#202124"/>
<path fill-rule="evenodd" clip-rule="evenodd" d="M928.98 659.865L974.948 739.484L895.329 785.452L849.361 705.833L928.98 659.865ZM932.719 645.911L835.407 702.094L891.59 799.406L988.902 743.223L932.719 645.911ZM921.503 687.773L947.041 732.006L902.808 757.544L877.27 713.311L921.503 687.773ZM925.242 673.819L863.316 709.572L899.069 771.498L960.995 735.745L925.242 673.819ZM919.131 724.528L914.024 715.681L905.177 720.789L910.285 729.635L919.131 724.528ZM891.223 717.05L917.763 701.727L933.086 728.267L906.546 743.589L891.223 717.05Z" fill="#202124"/>
<path fill-rule="evenodd" clip-rule="evenodd" d="M1005.22 710.208L1031.76 694.885L985.796 615.266L976.95 620.374L1017.81 691.146L1008.96 696.254L968.103 625.481L959.257 630.589L1005.22 710.208ZM1095.06 681.933L1038.88 584.621L1030.03 589.728L1081.11 678.194L1001.49 724.162L950.411 635.696L941.565 640.804L997.748 738.116L1095.06 681.933ZM1067.15 674.455L1040.61 689.778L994.645 610.159L1003.49 605.051L1044.35 675.824L1053.2 670.716L1012.34 599.944L1021.18 594.836L1067.15 674.455Z" fill="#202124"/>
<path fill-rule="evenodd" clip-rule="evenodd" d="M-14.4261 496.817L31.5419 576.436L-48.0769 622.404L-94.0449 542.785L-14.4261 496.817ZM-10.6871 482.863L-107.999 539.046L-51.8159 636.358L45.496 580.175L-10.6871 482.863ZM-21.901 524.725L3.63675 568.958L-40.596 594.496L-66.1337 550.263L-21.901 524.725ZM-18.162 510.771L-80.0878 546.524L-44.335 608.45L17.5908 572.697L-18.162 510.771ZM-24.2724 561.48L-29.38 552.634L-38.2265 557.741L-33.119 566.588L-24.2724 561.48ZM-52.1806 554.002L-25.641 538.679L-10.3183 565.219L-36.8579 580.542L-52.1806 554.002Z" fill="#202124"/>
<path fill-rule="evenodd" clip-rule="evenodd" d="M151.655 518.884L95.4721 421.572L86.6256 426.68L137.701 515.145L58.0822 561.113L7.0067 472.648L-1.83984 477.755L54.3432 575.067L151.655 518.884ZM61.823 547.159L88.3626 531.837L42.3946 452.218L33.5481 457.325L74.4085 528.098L65.562 533.205L24.7016 462.433L15.855 467.54L61.823 547.159ZM123.748 511.407L97.2083 526.729L51.2403 447.11L60.0868 442.003L100.947 512.775L109.794 507.668L68.9334 436.895L77.7799 431.788L123.748 511.407Z" fill="#202124"/>
<path fill-rule="evenodd" clip-rule="evenodd" d="M422.796 232.592L431.642 227.484L487.826 324.796L478.979 329.904L422.796 232.592ZM511.263 181.517L520.109 176.409L576.292 273.721L567.446 278.829L511.263 181.517ZM502.416 186.624L493.569 191.732L549.752 289.044L558.599 283.936L502.416 186.624ZM440.489 222.377L449.336 217.269L505.519 314.581L496.672 319.689L440.489 222.377ZM484.722 196.839L510.26 241.072L483.72 256.395L458.183 212.162L467.029 207.055L487.459 242.441L496.306 237.333L475.876 201.947L484.722 196.839ZM540.906 294.151L515.368 249.919L488.829 265.241L514.366 309.474L523.213 304.366L502.783 268.98L511.629 263.873L532.059 299.259L540.906 294.151Z" fill="#202124"/>
<path fill-rule="evenodd" clip-rule="evenodd" d="M622.526 129.072L668.494 208.691L588.875 254.659L542.907 175.04L622.526 129.072ZM626.265 115.118L528.953 171.301L585.136 268.613L682.448 212.43L626.265 115.118ZM615.049 156.98L640.586 201.213L596.354 226.751L570.816 182.518L615.049 156.98ZM618.788 143.026L556.862 178.779L592.615 240.705L654.541 204.952L618.788 143.026ZM612.677 193.735L607.57 184.889L598.723 189.996L603.831 198.843L612.677 193.735ZM584.769 186.257L611.309 170.934L626.631 197.474L600.092 212.797L584.769 186.257Z" fill="#202124"/>
<path fill-rule="evenodd" clip-rule="evenodd" d="M760.701 143.662L734.162 158.985L688.194 79.366L697.04 74.2584L737.901 145.031L746.747 139.923L705.887 69.1509L714.733 64.0433L760.701 143.662ZM788.61 151.14L732.427 53.8279L723.581 58.9355L774.656 147.401L695.037 193.369L643.962 104.903L635.115 110.011L691.298 207.323L788.61 151.14ZM698.777 179.415L725.316 164.092L679.348 84.4734L670.502 89.5809L711.362 160.353L702.516 165.461L661.655 94.6885L652.809 99.796L698.777 179.415Z" fill="#202124"/>
<path fill-rule="evenodd" clip-rule="evenodd" d="M166.244 380.711L191.782 424.944L165.242 440.267L139.704 396.034L148.551 390.926L168.981 426.312L177.827 421.205L157.397 385.819L166.244 380.711ZM104.318 416.465L113.164 411.357L169.347 508.669L160.501 513.777L104.318 416.465ZM192.784 365.389L201.631 360.281L257.814 457.593L248.967 462.701L192.784 365.389ZM183.937 370.496L175.091 375.604L231.274 472.916L240.12 467.808L183.937 370.496ZM122.012 406.249L130.859 401.141L187.042 498.453L178.195 503.561L122.012 406.249ZM222.427 478.023L196.89 433.791L170.35 449.113L195.888 493.346L204.734 488.238L184.304 452.852L193.151 447.745L213.581 483.131L222.427 478.023Z" fill="#202124"/>
<path fill-rule="evenodd" clip-rule="evenodd" d="M304.05 312.945L350.018 392.564L270.399 438.532L224.431 358.913L304.05 312.945ZM307.789 298.991L210.477 355.174L266.66 452.486L363.972 396.303L307.789 298.991ZM296.572 340.853L322.11 385.086L277.877 410.623L252.339 366.391L296.572 340.853ZM300.311 326.899L238.385 362.652L274.138 424.578L336.064 388.825L300.311 326.899ZM294.201 377.608L289.093 368.761L280.247 373.869L285.354 382.715L294.201 377.608ZM266.292 370.13L292.832 354.807L308.155 381.347L281.615 396.669L266.292 370.13Z" fill="#202124"/>
<path fill-rule="evenodd" clip-rule="evenodd" d="M442.222 327.534L415.683 342.856L369.715 263.237L378.561 258.13L419.422 328.902L428.268 323.795L387.408 253.022L396.254 247.915L442.222 327.534ZM470.131 335.011L413.948 237.7L405.101 242.807L456.177 331.272L376.558 377.24L325.482 288.775L316.636 293.883L372.819 391.195L470.131 335.011ZM380.297 363.286L406.837 347.964L360.869 268.345L352.022 273.452L392.883 344.225L384.036 349.332L343.176 278.56L334.329 283.668L380.297 363.286Z" fill="#202124"/>
<path fill-rule="evenodd" clip-rule="evenodd" d="M758.962 38.505L767.808 33.3975L823.991 130.709L815.145 135.817L758.962 38.505ZM820.888 2.75243L812.042 7.85999L868.225 105.172L877.071 100.064L820.888 2.75243ZM829.735 -2.35513L838.582 -7.46269L894.765 89.8493L885.918 94.9568L829.735 -2.35513ZM741.27 48.7203L750.116 43.6128L806.3 140.925L797.453 146.032L741.27 48.7203ZM803.196 12.9674L828.734 57.2001L802.194 72.5228L776.657 28.2901L785.503 23.1825L805.933 58.5687L814.78 53.4611L794.35 18.075L803.196 12.9674ZM859.378 110.279L833.841 66.0466L807.301 81.3693L832.839 125.602L841.685 120.494L821.255 85.1083L830.102 80.0007L850.532 115.387L859.378 110.279Z" fill="#202124"/>
<path fill-rule="evenodd" clip-rule="evenodd" d="M941.002 -54.7992L986.97 24.8196L907.351 70.7876L861.383 -8.83126L941.002 -54.7992ZM944.741 -68.7533L847.429 -12.5703L903.612 84.7417L1000.92 28.5586L944.741 -68.7533ZM933.524 -26.8912L959.062 17.3415L914.829 42.8793L889.292 -1.3534L933.524 -26.8912ZM937.263 -40.8453L875.338 -5.09239L911.09 56.8334L973.016 21.0805L937.263 -40.8453ZM931.153 9.86371L926.045 1.01716L917.199 6.12471L922.306 14.9713L931.153 9.86371ZM903.245 2.38573L929.784 -12.9369L945.107 13.6027L918.567 28.9254L903.245 2.38573Z" fill="#202124"/>
</g>
</g>
<defs>
<clipPath id="clip0_305_5135">
<rect width="944" height="657" fill="white"/>
</clipPath>
<clipPath id="clip1_305_5135">
<rect width="2850.02" height="1236.03" fill="white" transform="translate(-1071.1 505.323) rotate(-30)"/>
</clipPath>
</defs>
</svg>
