<svg width="350" height="512" viewBox="0 0 350 512" fill="none" xmlns="http://www.w3.org/2000/svg">
<g clip-path="url(#clip0_305_3426)">
<rect width="350" height="512" fill="#59AAF3"/>
<g clip-path="url(#clip1_305_3426)">
<path fill-rule="evenodd" clip-rule="evenodd" d="M-7.2216 430.026L-25.6945 440.692L-57.6905 385.273L-51.5328 381.718L-23.092 430.979L-16.9343 427.424L-45.3752 378.163L-39.2176 374.608L-7.2216 430.026ZM-50.3245 454.912L-31.8516 444.247L-63.8476 388.828L-70.0052 392.383L-41.5643 441.644L-47.722 445.199L-76.1628 395.938L-82.3205 399.494L-50.3245 454.912ZM12.2047 435.232L-26.9015 367.498L-33.0592 371.053L2.49193 432.629L-52.9267 464.625L-88.4778 403.049L-94.6354 406.604L-55.5293 474.338L12.2047 435.232Z" fill="#202124"/>
<path fill-rule="evenodd" clip-rule="evenodd" d="M244.033 211.073L261.808 241.861L243.335 252.526L225.56 221.738L231.718 218.183L245.938 242.813L252.096 239.258L237.875 214.628L244.033 211.073ZM256.349 203.962L250.191 207.517L289.297 275.251L295.455 271.696L256.349 203.962ZM200.93 235.959L207.088 232.404L246.194 300.137L240.036 303.693L200.93 235.959ZM262.507 200.407L268.665 196.852L307.771 264.586L301.614 268.141L262.507 200.407ZM213.245 228.848L219.403 225.293L258.509 293.027L252.351 296.582L213.245 228.848ZM283.139 278.807L265.364 248.018L246.891 258.684L264.666 289.472L270.824 285.917L256.604 261.286L262.761 257.731L276.982 282.362L283.139 278.807Z" fill="#202124"/>
<path fill-rule="evenodd" clip-rule="evenodd" d="M339.953 163.903L371.949 219.322L316.53 251.318L284.534 195.899L339.953 163.903ZM342.555 154.191L274.821 193.297L313.927 261.031L381.661 221.925L342.555 154.191ZM334.748 183.329L352.524 214.117L321.736 231.893L303.96 201.105L334.748 183.329ZM337.351 173.616L294.247 198.502L319.133 241.605L362.237 216.72L337.351 173.616ZM333.098 208.912L329.543 202.755L323.385 206.31L326.94 212.467L333.098 208.912ZM313.672 203.707L332.145 193.042L342.81 211.515L324.338 222.18L313.672 203.707Z" fill="#202124"/>
<path fill-rule="evenodd" clip-rule="evenodd" d="M393.025 198.944L411.498 188.279L379.502 132.86L373.344 136.415L401.785 185.676L395.628 189.232L367.187 139.971L361.029 143.526L393.025 198.944ZM455.554 179.264L416.448 111.53L410.29 115.085L445.841 176.661L390.423 208.657L354.872 147.081L348.714 150.636L387.82 218.37L455.554 179.264ZM436.129 174.059L417.656 184.724L385.66 129.305L391.818 125.75L420.259 175.011L426.416 171.456L397.976 122.195L404.133 118.64L436.129 174.059Z" fill="#202124"/>
<path fill-rule="evenodd" clip-rule="evenodd" d="M40.8331 328.391L46.9907 324.836L86.0969 392.57L79.9393 396.125L40.8331 328.391ZM-20.7431 363.942L-14.5854 360.387L24.5208 428.121L18.3631 431.676L-20.7431 363.942ZM34.6757 331.946L28.5181 335.501L67.6243 403.235L73.7819 399.68L34.6757 331.946ZM-8.4269 356.832L-2.26928 353.277L36.8369 421.011L30.6793 424.566L-8.4269 356.832ZM22.361 339.056L40.1365 369.844L21.6636 380.51L3.88809 349.722L10.0457 346.167L24.2662 370.797L30.4238 367.242L16.2034 342.611L22.361 339.056ZM61.4662 406.79L43.6906 376.002L25.2177 386.667L42.9933 417.456L49.1509 413.9L34.9305 389.27L41.0881 385.715L55.3085 410.345L61.4662 406.79Z" fill="#202124"/>
<path fill-rule="evenodd" clip-rule="evenodd" d="M118.279 291.887L150.275 347.306L94.8562 379.302L62.8602 323.883L118.279 291.887ZM120.881 282.175L53.1475 321.281L92.2537 389.015L159.988 349.909L120.881 282.175ZM113.074 311.313L130.85 342.101L100.062 359.877L82.2863 329.089L113.074 311.313ZM115.677 301.6L72.5736 326.486L97.4593 369.59L140.563 344.704L115.677 301.6ZM111.424 336.896L107.869 330.739L101.711 334.294L105.266 340.451L111.424 336.896ZM91.9984 331.691L110.471 321.026L121.137 339.499L102.664 350.164L91.9984 331.691Z" fill="#202124"/>
<path fill-rule="evenodd" clip-rule="evenodd" d="M214.455 302.042L195.982 312.707L163.986 257.289L170.144 253.734L198.585 302.995L204.742 299.44L176.301 250.179L182.459 246.623L214.455 302.042ZM171.352 326.928L189.825 316.263L157.829 260.844L151.671 264.399L180.112 313.66L173.955 317.215L145.514 267.954L139.356 271.509L171.352 326.928ZM233.881 307.247L194.775 239.513L188.618 243.068L224.169 304.645L168.75 336.641L133.199 275.064L127.041 278.619L166.147 346.353L233.881 307.247Z" fill="#202124"/>
<path fill-rule="evenodd" clip-rule="evenodd" d="M350.688 395.801L368.463 426.589L349.991 437.255L332.215 406.467L338.373 402.911L352.593 427.542L358.751 423.987L344.53 399.356L350.688 395.801ZM307.585 420.687L313.743 417.132L352.849 484.866L346.691 488.421L307.585 420.687ZM369.162 385.136L375.32 381.581L414.426 449.314L408.269 452.87L369.162 385.136ZM363.005 388.691L356.847 392.246L395.954 459.98L402.111 456.425L363.005 388.691ZM319.901 413.577L326.059 410.022L365.165 477.756L359.007 481.311L319.901 413.577ZM389.794 463.535L372.019 432.747L353.546 443.412L371.321 474.2L377.479 470.645L363.259 446.015L369.416 442.46L383.637 467.09L389.794 463.535Z" fill="#202124"/>
<path fill-rule="evenodd" clip-rule="evenodd" d="M147.485 513.12L153.643 509.565L192.749 577.299L186.591 580.854L147.485 513.12ZM85.9093 548.671L92.0669 545.116L131.173 612.85L125.016 616.405L85.9093 548.671ZM141.328 516.675L135.17 520.23L174.276 587.964L180.434 584.409L141.328 516.675ZM98.2252 541.561L104.383 538.005L143.489 605.739L137.331 609.295L98.2252 541.561ZM129.013 523.785L146.789 554.573L128.316 565.238L110.54 534.45L116.698 530.895L130.918 555.526L137.076 551.971L122.855 527.34L129.013 523.785ZM168.118 591.519L150.343 560.731L131.87 571.396L149.645 602.184L155.803 598.629L141.583 573.999L147.74 570.443L161.961 595.074L168.118 591.519Z" fill="#202124"/>
<path fill-rule="evenodd" clip-rule="evenodd" d="M224.932 476.616L256.928 532.034L201.509 564.03L169.514 508.612L224.932 476.616ZM227.535 466.903L159.801 506.009L198.907 573.743L266.641 534.637L227.535 466.903ZM219.728 496.042L237.503 526.83L206.715 544.605L188.94 513.817L219.728 496.042ZM222.33 486.329L179.227 511.215L204.113 554.318L247.216 529.432L222.33 486.329ZM218.077 521.625L214.522 515.467L208.364 519.022L211.92 525.18L218.077 521.625ZM198.652 516.42L217.125 505.754L227.79 524.227L209.317 534.893L198.652 516.42Z" fill="#202124"/>
<path fill-rule="evenodd" clip-rule="evenodd" d="M278.004 511.656L296.476 500.991L264.48 445.572L258.323 449.127L286.764 498.388L280.606 501.943L252.165 452.682L246.008 456.237L278.004 511.656ZM340.533 491.976L301.426 424.242L295.269 427.797L330.82 489.373L275.401 521.369L239.85 459.793L233.693 463.348L272.799 531.082L340.533 491.976ZM321.108 486.771L302.635 497.436L270.639 442.017L276.796 438.462L305.237 487.723L311.395 484.168L282.954 434.907L289.112 431.352L321.108 486.771Z" fill="#202124"/>
<path fill-rule="evenodd" clip-rule="evenodd" d="M137.382 26.3437L155.157 57.1319L136.684 67.7972L118.909 37.0091L125.066 33.4539L139.287 58.0845L145.444 54.5294L131.224 29.8988L137.382 26.3437ZM94.2785 51.2296L100.436 47.6745L139.542 115.408L133.385 118.964L94.2785 51.2296ZM155.856 15.6782L162.014 12.1231L201.12 79.857L194.962 83.4121L155.856 15.6782ZM149.699 19.2333L143.541 22.7884L182.647 90.5223L188.805 86.9672L149.699 19.2333ZM106.595 44.1193L112.752 40.5642L151.859 108.298L145.701 111.853L106.595 44.1193ZM176.488 94.0776L158.712 63.2894L140.239 73.9548L158.015 104.743L164.173 101.188L149.952 76.5573L156.11 73.0022L170.33 97.6327L176.488 94.0776Z" fill="#202124"/>
<path fill-rule="evenodd" clip-rule="evenodd" d="M233.302 -20.8256L265.298 34.593L209.88 66.589L177.884 11.1704L233.302 -20.8256ZM235.905 -30.5384L168.171 8.56784L207.277 76.3018L275.011 37.1956L235.905 -30.5384ZM228.098 -1.39994L245.874 29.3882L215.085 47.1638L197.31 16.3756L228.098 -1.39994ZM230.701 -11.1127L187.597 13.7731L212.483 56.8765L255.586 31.9907L230.701 -11.1127ZM226.447 24.1832L222.892 18.0256L216.735 21.5807L220.29 27.7383L226.447 24.1832ZM207.022 18.9782L225.495 8.31283L236.16 26.7857L217.687 37.451L207.022 18.9782Z" fill="#202124"/>
<path fill-rule="evenodd" clip-rule="evenodd" d="M286.373 14.2152L304.846 3.54983L272.85 -51.8688L266.692 -48.3137L295.133 0.947313L288.975 4.50242L260.534 -44.7586L254.377 -41.2035L286.373 14.2152ZM348.902 -5.46537L309.796 -73.1993L303.638 -69.6442L339.189 -8.06789L283.77 23.9281L248.219 -37.6482L242.062 -34.0931L281.168 33.6408L348.902 -5.46537ZM329.477 -10.6705L311.004 -0.00516684L279.008 -55.4238L285.166 -58.9789L313.606 -9.71791L319.764 -13.273L291.323 -62.5341L297.481 -66.0892L329.477 -10.6705Z" fill="#202124"/>
<path fill-rule="evenodd" clip-rule="evenodd" d="M11.6265 107.158L43.6225 162.577L-11.7962 194.573L-43.7921 139.154L11.6265 107.158ZM14.229 97.4456L-53.5049 136.552L-14.3987 204.286L53.3352 165.18L14.229 97.4456ZM6.42222 126.584L24.1978 157.372L-6.59038 175.148L-24.3659 144.36L6.42222 126.584ZM9.02474 116.871L-34.0787 141.757L-9.1929 184.861L33.9105 159.975L9.02474 116.871ZM4.77169 152.167L1.21658 146.01L-4.94105 149.565L-1.38594 155.722L4.77169 152.167ZM-14.6538 146.962L3.8191 136.297L14.4844 154.77L-3.98847 165.435L-14.6538 146.962Z" fill="#202124"/>
<path fill-rule="evenodd" clip-rule="evenodd" d="M64.6987 142.199L83.1716 131.534L51.1756 76.1148L45.018 79.67L73.4589 128.931L67.3012 132.486L38.8604 83.2251L32.7027 86.7802L64.6987 142.199ZM127.228 122.518L88.1218 54.7844L81.9642 58.3395L117.515 119.916L62.0966 151.912L26.5455 90.3355L20.3879 93.8906L59.4941 161.625L127.228 122.518ZM107.803 117.313L89.3299 127.979L57.3339 72.5598L63.4916 69.0047L91.9324 118.266L98.0901 114.711L69.6492 65.4496L75.8068 61.8945L107.803 117.313Z" fill="#202124"/>
<path fill-rule="evenodd" clip-rule="evenodd" d="M137.382 26.3437L155.157 57.1319L136.684 67.7972L118.909 37.0091L125.066 33.4539L139.287 58.0845L145.444 54.5294L131.224 29.8988L137.382 26.3437ZM94.2785 51.2296L100.436 47.6745L139.542 115.408L133.385 118.964L94.2785 51.2296ZM155.856 15.6782L162.014 12.1231L201.12 79.857L194.962 83.4121L155.856 15.6782ZM149.699 19.2333L143.541 22.7884L182.647 90.5223L188.805 86.9672L149.699 19.2333ZM106.595 44.1193L112.752 40.5642L151.859 108.298L145.701 111.853L106.595 44.1193ZM176.488 94.0776L158.712 63.2894L140.239 73.9548L158.015 104.743L164.173 101.188L149.952 76.5573L156.11 73.0022L170.33 97.6327L176.488 94.0776Z" fill="#202124"/>
<path fill-rule="evenodd" clip-rule="evenodd" d="M233.302 -20.8256L265.298 34.593L209.88 66.589L177.884 11.1704L233.302 -20.8256ZM235.905 -30.5384L168.171 8.56784L207.277 76.3018L275.011 37.1956L235.905 -30.5384ZM228.098 -1.39994L245.874 29.3882L215.085 47.1638L197.31 16.3756L228.098 -1.39994ZM230.701 -11.1127L187.597 13.7731L212.483 56.8765L255.586 31.9907L230.701 -11.1127ZM226.447 24.1832L222.892 18.0256L216.735 21.5807L220.29 27.7383L226.447 24.1832ZM207.022 18.9782L225.495 8.31283L236.16 26.7857L217.687 37.451L207.022 18.9782Z" fill="#202124"/>
<path fill-rule="evenodd" clip-rule="evenodd" d="M286.373 14.2152L304.846 3.54983L272.85 -51.8688L266.692 -48.3137L295.133 0.947313L288.975 4.50242L260.534 -44.7586L254.377 -41.2035L286.373 14.2152ZM348.902 -5.46537L309.796 -73.1993L303.638 -69.6442L339.189 -8.06789L283.77 23.9281L248.219 -37.6482L242.062 -34.0931L281.168 33.6408L348.902 -5.46537ZM329.477 -10.6705L311.004 -0.00516684L279.008 -55.4238L285.166 -58.9789L313.606 -9.71791L319.764 -13.273L291.323 -62.5341L297.481 -66.0892L329.477 -10.6705Z" fill="#202124"/>
<path fill-rule="evenodd" clip-rule="evenodd" d="M11.6265 107.158L43.6225 162.577L-11.7962 194.573L-43.7921 139.154L11.6265 107.158ZM14.229 97.4456L-53.5049 136.552L-14.3987 204.286L53.3352 165.18L14.229 97.4456ZM6.42222 126.584L24.1978 157.372L-6.59038 175.148L-24.3659 144.36L6.42222 126.584ZM9.02474 116.871L-34.0787 141.757L-9.1929 184.861L33.9105 159.975L9.02474 116.871ZM4.77169 152.167L1.21658 146.01L-4.94105 149.565L-1.38594 155.722L4.77169 152.167ZM-14.6538 146.962L3.8191 136.297L14.4844 154.77L-3.98847 165.435L-14.6538 146.962Z" fill="#202124"/>
<path fill-rule="evenodd" clip-rule="evenodd" d="M64.6987 142.199L83.1716 131.534L51.1756 76.1148L45.018 79.67L73.4589 128.931L67.3012 132.486L38.8604 83.2251L32.7027 86.7802L64.6987 142.199ZM127.228 122.518L88.1218 54.7844L81.9642 58.3395L117.515 119.916L62.0966 151.912L26.5455 90.3355L20.3879 93.8906L59.4941 161.625L127.228 122.518ZM107.803 117.313L89.3299 127.979L57.3339 72.5598L63.4916 69.0047L91.9324 118.266L98.0901 114.711L69.6492 65.4496L75.8068 61.8945L107.803 117.313Z" fill="#202124"/>
<path fill-rule="evenodd" clip-rule="evenodd" d="M35.4914 -79.0335L41.6491 -82.5886L80.7553 -14.8547L74.5976 -11.2996L35.4914 -79.0335ZM-26.0848 -43.482L-19.9271 -47.0371L19.1791 20.6968L13.0214 24.252L-26.0848 -43.482ZM29.3341 -75.4783L23.1765 -71.9232L62.2827 -4.18931L68.4403 -7.74442L29.3341 -75.4783ZM-13.7685 -50.5926L-7.6109 -54.1478L31.4953 13.5862L25.3377 17.1413L-13.7685 -50.5926ZM17.0194 -68.3682L34.7949 -37.5801L16.322 -26.9148L-1.45354 -57.7029L4.70409 -61.258L18.9245 -36.6275L25.0822 -40.1826L10.8617 -64.8131L17.0194 -68.3682ZM56.1257 -0.634217L38.3502 -31.4224L19.8773 -20.757L37.6529 10.0311L43.8105 6.476L29.5901 -18.1545L35.7477 -21.7096L49.9681 2.92089L56.1257 -0.634217Z" fill="#202124"/>
<path fill-rule="evenodd" clip-rule="evenodd" d="M-55.6645 47.4875L-37.1916 36.8222L-69.1876 -18.5965L-75.3452 -15.0414L-46.9044 34.2197L-53.062 37.7748L-81.5029 -11.4863L-87.6605 -7.93116L-55.6645 47.4875ZM6.86461 27.8068L-32.2416 -39.9271L-38.3992 -36.372L-2.84813 25.2043L-58.2668 57.2003L-93.8179 -4.37601L-99.9755 -0.820901L-60.8693 66.913L6.86461 27.8068ZM-12.5604 22.6015L-31.0333 33.2668L-63.0293 -22.1518L-56.8717 -25.7069L-28.4308 23.5541L-22.2732 19.999L-50.714 -29.262L-44.5564 -32.8172L-12.5604 22.6015Z" fill="#202124"/>
<path fill-rule="evenodd" clip-rule="evenodd" d="M248.798 290.424L254.956 286.869L294.062 354.603L287.904 358.158L248.798 290.424ZM187.222 325.976L193.379 322.42L232.486 390.154L226.328 393.709L187.222 325.976ZM242.641 293.979L236.483 297.534L275.589 365.268L281.747 361.713L242.641 293.979ZM199.538 318.865L205.696 315.31L244.802 383.044L238.644 386.599L199.538 318.865ZM230.326 301.09L248.102 331.878L229.629 342.543L211.853 311.755L218.011 308.2L232.231 332.83L238.389 329.275L224.169 304.645L230.326 301.09ZM269.433 368.824L251.657 338.035L233.184 348.701L250.96 379.489L257.117 375.934L242.897 351.303L249.054 347.748L263.275 372.379L269.433 368.824Z" fill="#202124"/>
<path fill-rule="evenodd" clip-rule="evenodd" d="M326.245 253.921L358.241 309.339L302.822 341.335L270.826 285.917L326.245 253.921ZM328.847 244.208L261.113 283.314L300.219 351.048L367.953 311.942L328.847 244.208ZM321.04 273.346L338.816 304.135L308.028 321.91L290.252 291.122L321.04 273.346ZM323.643 263.634L280.539 288.519L305.425 331.623L348.528 306.737L323.643 263.634ZM319.39 298.929L315.835 292.771L309.677 296.327L313.232 302.484L319.39 298.929ZM299.964 293.724L318.437 283.059L329.102 301.532L310.63 312.197L299.964 293.724Z" fill="#202124"/>
<path fill-rule="evenodd" clip-rule="evenodd" d="M441.844 269.281L402.738 201.547L396.58 205.102L432.131 266.678L376.713 298.674L341.162 237.098L335.004 240.653L374.11 308.387L441.844 269.281ZM379.316 288.961L397.789 278.296L365.793 222.877L359.635 226.433L388.076 275.694L381.919 279.249L353.478 229.988L347.32 233.543L379.316 288.961ZM422.419 264.076L403.946 274.741L371.95 219.322L378.108 215.767L406.549 265.028L412.706 261.473L384.265 212.212L390.423 208.657L422.419 264.076Z" fill="#202124"/>
<path fill-rule="evenodd" clip-rule="evenodd" d="M8.65011 429.074L26.4257 459.862L7.95276 470.527L-9.82278 439.739L-3.66515 436.184L10.5553 460.814L16.7129 457.259L2.49247 432.629L8.65011 429.074ZM-34.4531 453.959L-28.2954 450.404L10.8108 518.138L4.65314 521.693L-34.4531 453.959ZM27.1246 418.408L33.2823 414.853L72.3885 482.587L66.2308 486.142L27.1246 418.408ZM20.9673 421.963L14.8096 425.518L53.9158 493.252L60.0735 489.697L20.9673 421.963ZM-22.1366 446.849L-15.9789 443.294L23.1273 511.028L16.9696 514.583L-22.1366 446.849ZM47.7565 496.807L29.981 466.019L11.5081 476.685L29.2836 507.473L35.4412 503.918L21.2208 479.287L27.3784 475.732L41.5989 500.363L47.7565 496.807Z" fill="#202124"/>
<path fill-rule="evenodd" clip-rule="evenodd" d="M104.573 381.904L136.569 437.323L81.1501 469.319L49.1541 413.9L104.573 381.904ZM107.175 372.192L39.4414 411.298L78.5476 479.032L146.282 439.925L107.175 372.192ZM99.3684 401.33L117.144 432.118L86.3558 449.894L68.5802 419.105L99.3684 401.33ZM101.971 391.617L58.8675 416.503L83.7533 459.606L126.857 434.721L101.971 391.617ZM97.7179 426.913L94.1627 420.756L88.0051 424.311L91.5602 430.468L97.7179 426.913ZM78.2924 421.708L96.7653 411.043L107.431 429.516L88.9577 440.181L78.2924 421.708Z" fill="#202124"/>
<path fill-rule="evenodd" clip-rule="evenodd" d="M157.641 416.945L176.114 406.28L144.118 350.861L137.961 354.416L166.401 403.677L160.244 407.232L131.803 357.971L125.645 361.526L157.641 416.945ZM220.17 397.265L181.064 329.531L174.907 333.086L210.458 394.662L155.039 426.658L119.488 365.082L113.33 368.637L152.436 436.371L220.17 397.265ZM200.745 392.059L182.272 402.724L150.276 347.306L156.434 343.751L184.875 393.012L191.033 389.457L162.592 340.196L168.749 336.64L200.745 392.059Z" fill="#202124"/>
<path fill-rule="evenodd" clip-rule="evenodd" d="M355.45 475.153L361.608 471.598L400.714 539.332L394.557 542.887L355.45 475.153ZM293.874 510.704L300.032 507.149L339.138 574.883L332.98 578.438L293.874 510.704ZM349.293 478.708L343.135 482.263L382.242 549.997L388.399 546.442L349.293 478.708ZM306.19 503.594L312.348 500.039L351.454 567.773L345.297 571.328L306.19 503.594ZM336.978 485.818L354.754 516.607L336.281 527.272L318.505 496.484L324.663 492.929L338.883 517.559L345.041 514.004L330.821 489.374L336.978 485.818ZM376.085 553.552L358.309 522.764L339.836 533.43L357.612 564.218L363.769 560.663L349.549 536.032L355.707 532.477L369.927 557.108L376.085 553.552Z" fill="#202124"/>
<path fill-rule="evenodd" clip-rule="evenodd" d="M92.8834 134.136L99.0411 130.581L138.147 198.315L131.99 201.87L92.8834 134.136ZM142.145 105.695L148.302 102.14L187.408 169.874L181.251 173.429L142.145 105.695ZM80.5685 141.247L86.7262 137.692L125.832 205.425L119.675 208.981L80.5685 141.247ZM135.987 109.251L129.83 112.806L168.936 180.54L175.093 176.984L135.987 109.251ZM123.673 116.361L141.448 147.149L122.975 157.814L105.2 127.026L111.357 123.471L125.578 148.101L131.735 144.546L117.515 119.916L123.673 116.361ZM162.779 184.095L145.003 153.307L126.53 163.972L144.306 194.76L150.464 191.205L136.243 166.574L142.401 163.019L156.621 187.65L162.779 184.095Z" fill="#202124"/>
<path fill-rule="evenodd" clip-rule="evenodd" d="M219.591 69.1919L251.587 124.611L196.169 156.607L164.173 101.188L219.591 69.1919ZM222.194 59.4792L154.46 98.5854L193.566 166.319L261.3 127.213L222.194 59.4792ZM214.387 88.6176L232.162 119.406L201.374 137.181L183.599 106.393L214.387 88.6176ZM216.989 78.9048L173.886 103.791L198.772 146.894L241.875 122.008L216.989 78.9048ZM212.736 114.2L209.181 108.043L203.024 111.598L206.579 117.755L212.736 114.2ZM193.311 108.995L211.784 98.3299L222.449 116.803L203.976 127.468L193.311 108.995Z" fill="#202124"/>
<path fill-rule="evenodd" clip-rule="evenodd" d="M315.766 79.3467L297.293 90.012L265.297 34.5933L271.455 31.0382L299.895 80.2993L306.053 76.7442L277.612 27.4831L283.77 23.928L315.766 79.3467ZM335.192 84.5518L296.086 16.8179L289.928 20.373L325.479 81.9493L270.06 113.945L234.509 52.369L228.352 55.9241L267.458 123.658L335.192 84.5518ZM272.664 104.233L291.137 93.5672L259.141 38.1485L252.983 41.7036L281.424 90.9647L275.267 94.5198L246.826 45.2588L240.668 48.8139L272.664 104.233Z" fill="#202124"/>
<path fill-rule="evenodd" clip-rule="evenodd" d="M-2.08344 197.176L29.9125 252.594L-25.5061 284.59L-57.5021 229.171L-2.08344 197.176ZM0.519075 187.463L-67.2148 226.569L-28.1086 294.303L39.6253 255.197L0.519075 187.463ZM-7.28786 216.601L10.4877 247.389L-20.3005 265.165L-38.076 234.377L-7.28786 216.601ZM-4.68534 206.888L-47.7887 231.774L-22.903 274.878L20.2004 249.992L-4.68534 206.888ZM-8.9384 242.184L-12.4935 236.027L-18.6511 239.582L-15.096 245.739L-8.9384 242.184ZM-28.3639 236.979L-9.89099 226.314L0.774339 244.787L-17.6985 255.452L-28.3639 236.979Z" fill="#202124"/>
<path fill-rule="evenodd" clip-rule="evenodd" d="M50.9879 232.216L69.4607 221.551L37.4648 166.132L31.3071 169.688L59.748 218.949L53.5904 222.504L25.1495 173.243L18.9919 176.798L50.9879 232.216ZM113.517 212.536L74.4108 144.802L68.2532 148.357L103.804 209.933L48.3856 241.929L12.8345 180.353L6.6769 183.908L45.7831 251.642L113.517 212.536ZM94.092 207.33L75.6191 217.996L43.6231 162.577L49.7807 159.022L78.2216 208.283L84.3792 204.728L55.9383 155.467L62.096 151.912L94.092 207.33Z" fill="#202124"/>
<path fill-rule="evenodd" clip-rule="evenodd" d="M363.82 -22.2883L369.978 -25.8434L409.084 41.8905L402.926 45.4456L363.82 -22.2883ZM302.244 13.2628L308.402 9.70765L347.508 77.4416L341.35 80.9967L302.244 13.2628ZM357.663 -18.7331L351.505 -15.178L390.611 52.5559L396.769 49.0008L357.663 -18.7331ZM314.559 6.15285L320.717 2.59774L359.823 70.3317L353.665 73.8868L314.559 6.15285ZM345.348 -11.623L363.124 19.1651L344.651 29.8304L326.875 -0.957711L333.033 -4.51282L347.253 20.1177L353.411 16.5626L339.191 -8.06793L345.348 -11.623ZM384.455 56.111L366.679 25.3228L348.206 35.9882L365.982 66.7763L372.139 63.2212L357.919 38.5907L364.076 35.0356L378.297 59.6661L384.455 56.111Z" fill="#202124"/>
<path fill-rule="evenodd" clip-rule="evenodd" d="M46.4128 -3.23658L52.5704 -6.79169L91.6766 60.9422L85.519 64.4973L46.4128 -3.23658ZM34.0977 3.87367L40.2553 0.318558L79.3615 68.0525L73.2039 71.6076L34.0977 3.87367ZM95.674 -31.6773L101.832 -35.2324L140.938 32.5015L134.78 36.0567L95.674 -31.6773ZM89.5166 -28.1221L83.359 -24.567L122.465 43.1669L128.623 39.6118L89.5166 -28.1221ZM77.2019 -21.012L94.9774 9.77614L76.5045 20.4415L58.729 -10.3467L64.8866 -13.9018L79.1071 10.7287L85.2647 7.17362L71.0443 -17.4569L77.2019 -21.012ZM116.307 46.7218L98.5315 15.9337L80.0586 26.599L97.8342 57.3871L103.992 53.832L89.7714 29.2015L95.929 25.6464L110.149 50.2769L116.307 46.7218Z" fill="#202124"/>
<path fill-rule="evenodd" clip-rule="evenodd" d="M173.122 -68.1814L205.118 -12.7627L149.699 19.2333L117.703 -36.1854L173.122 -68.1814ZM175.724 -77.8941L107.99 -38.7879L147.096 28.946L214.83 -10.1602L175.724 -77.8941ZM167.917 -48.7559L185.693 -17.9678L154.905 -0.192233L137.129 -30.9804L167.917 -48.7559ZM170.52 -58.4687L127.416 -33.5829L152.302 9.52051L195.405 -15.3653L170.52 -58.4687ZM166.267 -23.1728L162.712 -29.3304L156.554 -25.7753L160.109 -19.6177L166.267 -23.1728ZM146.841 -28.3778L165.314 -39.0431L175.979 -20.5703L157.506 -9.90493L146.841 -28.3778Z" fill="#202124"/>
<path fill-rule="evenodd" clip-rule="evenodd" d="M47.62 69.9577L29.1471 80.623L-2.84887 25.2043L3.30876 21.6492L31.7496 70.9103L37.9073 67.3551L9.46639 18.0941L15.624 14.539L47.62 69.9577ZM4.51712 94.8433L22.99 84.178L-9.00598 28.7593L-15.1636 32.3144L13.2773 81.5755L7.11964 85.1306L-21.3212 35.8695L-27.4789 39.4247L4.51712 94.8433ZM67.0463 75.1624L27.9401 7.42853L21.7824 10.9836L57.3335 72.5599L1.91486 104.556L-33.6362 42.9796L-39.7939 46.5347L-0.687665 114.269L67.0463 75.1624Z" fill="#202124"/>
<path fill-rule="evenodd" clip-rule="evenodd" d="M58.677 572.604L19.5708 504.87L13.4132 508.425L48.9643 570.001L-6.45437 601.997L-42.0055 540.421L-48.1631 543.976L-9.05689 611.71L58.677 572.604ZM-3.85093 592.285L14.622 581.619L-17.374 526.201L-23.5317 529.756L4.90922 579.017L-1.24841 582.572L-29.6893 533.311L-35.8469 536.866L-3.85093 592.285ZM39.2519 567.399L20.7791 578.064L-11.2169 522.646L-5.0593 519.091L23.3816 568.352L29.5392 564.797L1.09833 515.535L7.25596 511.98L39.2519 567.399Z" fill="#202124"/>
<path fill-rule="evenodd" clip-rule="evenodd" d="M290.506 348.446L308.282 379.234L289.809 389.899L272.033 359.111L278.191 355.556L292.411 380.186L298.569 376.631L284.348 352.001L290.506 348.446ZM259.718 366.221L265.876 362.666L304.982 430.4L298.824 433.955L259.718 366.221ZM308.979 337.78L315.137 334.225L354.243 401.959L348.086 405.514L308.979 337.78ZM247.404 373.331L253.561 369.776L292.667 437.51L286.51 441.065L247.404 373.331ZM302.822 341.335L296.664 344.891L335.771 412.624L341.928 409.069L302.822 341.335ZM329.613 416.179L311.837 385.391L293.364 396.057L311.14 426.845L317.297 423.29L303.077 398.659L309.234 395.104L323.455 419.735L329.613 416.179Z" fill="#202124"/>
<path fill-rule="evenodd" clip-rule="evenodd" d="M386.426 301.276L418.422 356.695L363.004 388.691L331.008 333.272L386.426 301.276ZM389.029 291.563L321.295 330.67L360.401 398.403L428.135 359.297L389.029 291.563ZM381.222 320.701L398.997 351.49L368.209 369.265L350.434 338.477L381.222 320.701ZM383.824 310.989L340.721 335.874L365.607 378.978L408.71 354.092L383.824 310.989ZM379.571 346.285L376.016 340.127L369.859 343.682L373.414 349.84L379.571 346.285ZM360.146 341.08L378.619 330.414L389.284 348.887L370.811 359.552L360.146 341.08Z" fill="#202124"/>
<path fill-rule="evenodd" clip-rule="evenodd" d="M25.7275 501.315L31.8852 497.76L70.9914 565.494L64.8337 569.049L25.7275 501.315ZM87.305 465.764L93.4626 462.209L132.569 529.943L126.411 533.498L87.305 465.764ZM81.1464 469.319L74.9887 472.874L114.095 540.608L120.253 537.053L81.1464 469.319ZM38.0438 494.204L44.2014 490.649L83.3076 558.383L77.15 561.938L38.0438 494.204ZM68.8316 476.429L86.6072 507.217L68.1343 517.882L50.3588 487.094L56.5164 483.539L70.7368 508.17L76.8944 504.615L62.674 479.984L68.8316 476.429ZM107.938 544.163L90.1625 513.375L71.6896 524.04L89.4652 554.828L95.6228 551.273L81.4023 526.643L87.56 523.088L101.78 547.718L107.938 544.163Z" fill="#202124"/>
<path fill-rule="evenodd" clip-rule="evenodd" d="M164.752 429.26L196.748 484.679L141.33 516.675L109.334 461.256L164.752 429.26ZM167.355 419.547L99.6211 458.654L138.727 526.387L206.461 487.281L167.355 419.547ZM159.548 448.686L177.324 479.474L146.535 497.249L128.76 466.461L159.548 448.686ZM162.151 438.973L119.047 463.859L143.933 506.962L187.036 482.076L162.151 438.973ZM157.898 474.269L154.342 468.111L148.185 471.666L151.74 477.824L157.898 474.269ZM138.472 469.064L156.945 458.398L167.61 476.871L149.137 487.536L138.472 469.064Z" fill="#202124"/>
<path fill-rule="evenodd" clip-rule="evenodd" d="M217.823 464.301L236.296 453.635L204.3 398.217L198.142 401.772L226.583 451.033L220.425 454.588L191.984 405.327L185.827 408.882L217.823 464.301ZM280.352 444.62L241.246 376.886L235.088 380.441L270.639 442.017L215.22 474.013L179.669 412.437L173.512 415.992L212.618 483.726L280.352 444.62ZM260.927 439.415L242.454 450.08L210.458 394.662L216.616 391.106L245.056 440.368L251.214 436.812L222.773 387.551L228.931 383.996L260.927 439.415Z" fill="#202124"/>
<path fill-rule="evenodd" clip-rule="evenodd" d="M153.066 181.492L159.224 177.937L198.33 245.671L192.172 249.226L153.066 181.492ZM140.751 188.602L146.909 185.047L186.015 252.781L179.857 256.336L140.751 188.602ZM202.329 153.051L208.486 149.496L247.592 217.23L241.435 220.785L202.329 153.051ZM196.17 156.606L190.012 160.162L229.118 227.896L235.276 224.34L196.17 156.606ZM183.855 163.717L201.631 194.505L183.158 205.17L165.382 174.382L171.54 170.827L185.76 195.457L191.918 191.902L177.698 167.272L183.855 163.717ZM222.962 231.45L205.186 200.662L186.713 211.328L204.489 242.116L210.646 238.561L196.426 213.93L202.584 210.375L216.804 235.006L222.962 231.45Z" fill="#202124"/>
<path fill-rule="evenodd" clip-rule="evenodd" d="M279.773 116.547L311.769 171.966L256.35 203.962L224.354 148.543L279.773 116.547ZM282.376 106.835L214.642 145.941L253.748 213.675L321.482 174.568L282.376 106.835ZM274.569 135.973L292.344 166.761L261.556 184.536L243.78 153.748L274.569 135.973ZM277.171 126.26L234.068 151.146L258.953 194.249L302.057 169.363L277.171 126.26ZM272.918 161.556L269.363 155.398L263.205 158.953L266.76 165.111L272.918 161.556ZM253.493 156.351L271.965 145.685L282.631 164.158L264.158 174.824L253.493 156.351Z" fill="#202124"/>
<path fill-rule="evenodd" clip-rule="evenodd" d="M375.949 126.703L357.476 137.368L325.48 81.9492L331.638 78.3941L360.079 127.655L366.236 124.1L337.796 74.839L343.953 71.2839L375.949 126.703ZM332.846 151.588L351.319 140.923L319.323 85.5042L313.166 89.0594L341.606 138.32L335.449 141.876L307.008 92.6145L300.85 96.1696L332.846 151.588ZM395.375 131.907L356.269 64.1735L350.112 67.7286L385.663 129.305L330.244 161.301L294.693 99.7246L288.535 103.28L327.641 171.014L395.375 131.907Z" fill="#202124"/>
<path fill-rule="evenodd" clip-rule="evenodd" d="M-25.5068 284.59L-31.6645 288.145L7.44175 355.879L13.5994 352.324L-25.5068 284.59ZM-80.9257 316.587L-74.768 313.031L-35.6618 380.765L-41.8195 384.32L-80.9257 316.587ZM-19.3482 281.035L-13.1906 277.48L25.9156 345.214L19.758 348.769L-19.3482 281.035ZM-68.6094 309.476L-62.4518 305.921L-23.3456 373.655L-29.5032 377.21L-68.6094 309.476ZM-37.8216 291.7L-20.046 322.488L-38.5189 333.154L-56.2944 302.366L-50.1368 298.811L-35.9164 323.441L-29.7587 319.886L-43.9792 295.255L-37.8216 291.7ZM1.28484 359.434L-16.4907 328.646L-34.9636 339.312L-17.188 370.1L-11.0304 366.545L-25.2509 341.914L-19.0932 338.359L-4.87278 362.989L1.28484 359.434Z" fill="#202124"/>
<path fill-rule="evenodd" clip-rule="evenodd" d="M58.0972 244.531L90.0932 299.95L34.6745 331.946L2.67856 276.527L58.0972 244.531ZM60.6997 234.819L-7.03418 273.925L32.072 341.659L99.8059 302.553L60.6997 234.819ZM52.8928 263.957L70.6683 294.745L39.8802 312.521L22.1047 281.732L52.8928 263.957ZM55.4953 254.244L12.3919 279.13L37.2777 322.233L80.3811 297.348L55.4953 254.244ZM51.2423 289.54L47.6872 283.382L41.5295 286.938L45.0846 293.095L51.2423 289.54ZM31.8168 284.335L50.2897 273.67L60.955 292.143L42.4821 302.808L31.8168 284.335Z" fill="#202124"/>
<path fill-rule="evenodd" clip-rule="evenodd" d="M154.273 254.686L135.8 265.352L103.804 209.933L109.961 206.378L138.402 255.639L144.56 252.084L116.119 202.823L122.277 199.268L154.273 254.686ZM173.699 259.891L134.592 192.157L128.435 195.712L163.986 257.289L108.567 289.285L73.0161 227.708L66.8585 231.263L105.965 298.997L173.699 259.891ZM111.17 279.572L129.643 268.907L97.6465 213.488L91.4889 217.043L119.93 266.304L113.772 269.859L85.3313 220.598L79.1737 224.153L111.17 279.572Z" fill="#202124"/>
</g>
</g>
<defs>
<clipPath id="clip0_305_3426">
<rect width="350" height="512" fill="white"/>
</clipPath>
<clipPath id="clip1_305_3426">
<rect width="1983.75" height="860.336" fill="white" transform="translate(-899.073 378.436) rotate(-30)"/>
</clipPath>
</defs>
</svg>
