<?xml version="1.0" encoding="utf-8"?>
<!-- Generator: Adobe Illustrator 26.0.1, SVG Export Plug-In . SVG Version: 6.00 Build 0)  -->
<svg version="1.1" id="Слой_1" xmlns="http://www.w3.org/2000/svg" xmlns:xlink="http://www.w3.org/1999/xlink" x="0px" y="0px"
	 viewBox="0 0 848 765" style="enable-background:new 0 0 848 765;" xml:space="preserve">
<style type="text/css">
	.st0{clip-path:url(#SVGID_00000004513147499666319350000016213332800766155686_);}
	.st1{clip-path:url(#SVGID_00000056429123738907580430000011114259570706597802_);}
	.st2{fill-rule:evenodd;clip-rule:evenodd;fill:#202124;}
</style>
<g>
	<defs>
		<rect id="SVGID_1_" y="0" width="848" height="765"/>
	</defs>
	<clipPath id="SVGID_00000162314151992087519350000006267530855169975740_">
		<use xlink:href="#SVGID_1_"  style="overflow:visible;"/>
	</clipPath>
	<g style="clip-path:url(#SVGID_00000162314151992087519350000006267530855169975740_);">
		<g>
			<defs>
				
					<rect id="SVGID_00000069365085366217611240000011714161236742124193_" x="-1223.5" y="-332.5" transform="matrix(0.866 -0.5 0.5 0.866 -134.2129 263.1823)" width="3294.9" height="1429"/>
			</defs>
			<clipPath id="SVGID_00000130627379821482254510000016286141084395377303_">
				<use xlink:href="#SVGID_00000069365085366217611240000011714161236742124193_"  style="overflow:visible;"/>
			</clipPath>
			<g style="clip-path:url(#SVGID_00000130627379821482254510000016286141084395377303_);">
				<path class="st2" d="M-38.4,655.8l53.1,92l-92,53.1l-53.1-92L-38.4,655.8z M-34.1,639.7l-112.5,65l65,112.5l112.5-65
					L-34.1,639.7z M-47,688.1l29.5,51.1l-51.1,29.5l-29.5-51.1L-47,688.1z M-42.7,672l-71.6,41.3l41.3,71.6l71.6-41.3L-42.7,672z
					 M-49.8,730.6l-5.9-10.2l-10.2,5.9l5.9,10.2L-49.8,730.6z M-82.1,721.9l30.7-17.7l17.7,30.7l-30.7,17.7L-82.1,721.9z"/>
				<path class="st2" d="M49.7,714l30.7-17.7l-53.1-92l-10.2,5.9L64.3,692l-10.2,5.9L6.8,616.1L-3.4,622L49.7,714z M153.6,681.3
					l-65-112.5l-10.2,5.9l59,102.3l-92,53.1l-59-102.3l-10.2,5.9l65,112.5L153.6,681.3z M121.3,672.7l-30.7,17.7l-53.1-92l10.2-5.9
					L95,674.3l10.2-5.9L58,586.5l10.2-5.9L121.3,672.7z"/>
				<path class="st2" d="M569.3,291.3l10.2-5.9l65,112.5l-10.2,5.9L569.3,291.3z M467.1,350.4l10.2-5.9l65,112.5l-10.2,5.9
					L467.1,350.4z M559.1,297.2l-10.2,5.9l65,112.5l10.2-5.9L559.1,297.2z M487.5,338.5l10.2-5.9l65,112.5l-10.2,5.9L487.5,338.5z
					 M538.7,309l29.5,51.1l-30.7,17.7L508,326.7l10.2-5.9l23.6,40.9l10.2-5.9l-23.6-40.9L538.7,309z M603.6,421.5l-29.5-51.1
					l-30.7,17.7l29.5,51.1l10.2-5.9l-23.6-40.9l10.2-5.9l23.6,40.9L603.6,421.5z"/>
				<path class="st2" d="M698,230.7l53.1,92l-92,53.1l-53.1-92L698,230.7z M702.3,214.5l-112.5,65l65,112.5l112.5-65L702.3,214.5z
					 M689.3,262.9l29.5,51.1l-51.1,29.5l-29.5-51.1L689.3,262.9z M693.7,246.8l-71.6,41.3l41.3,71.6l71.6-41.3L693.7,246.8z
					 M686.6,305.4l-5.9-10.2l-10.2,5.9l5.9,10.2L686.6,305.4z M654.3,296.8l30.7-17.7l17.7,30.7L672,327.5L654.3,296.8z"/>
				<path class="st2" d="M786.1,288.9l30.7-17.7l-53.1-92l-10.2,5.9l47.2,81.8l-10.2,5.9l-47.2-81.8l-10.2,5.9L786.1,288.9z
					 M890,256.2l-65-112.5l-10.2,5.9l59,102.3l-92,53.1l-59-102.3l-10.2,5.9l65,112.5L890,256.2z M857.7,247.5L827,265.3l-53.1-92
					l10.2-5.9l47.2,81.8l10.2-5.9l-47.2-81.8l10.2-5.9L857.7,247.5z"/>
				<path class="st2" d="M201.2,503.9l10.2-5.9l65,112.5l-10.2,5.9L201.2,503.9z M98.9,562.9l10.2-5.9l65,112.5l-10.2,5.9
					L98.9,562.9z M190.9,509.8l-10.2,5.9l65,112.5l10.2-5.9L190.9,509.8z M119.3,551.1l10.2-5.9l65,112.5l-10.2,5.9L119.3,551.1z
					 M170.5,521.6l29.5,51.1l-30.7,17.7l-29.5-51.1l10.2-5.9l23.6,40.9l10.2-5.9l-23.6-40.9L170.5,521.6z M235.4,634.1L205.9,583
					l-30.7,17.7l29.5,51.1l10.2-5.9L191.3,605l10.2-5.9l23.6,40.9L235.4,634.1z"/>
				<path class="st2" d="M329.8,443.2l53.1,92l-92,53.1l-53.1-92L329.8,443.2z M334.1,427.1l-112.5,65l65,112.5l112.5-65
					L334.1,427.1z M321.1,475.5l29.5,51.1l-51.1,29.5L270,505L321.1,475.5z M325.5,459.4l-71.6,41.3l41.3,71.6l71.6-41.3
					L325.5,459.4z M318.4,518l-5.9-10.2l-10.2,5.9l5.9,10.2L318.4,518z M286.1,509.4l30.7-17.7l17.7,30.7L303.9,540L286.1,509.4z"/>
				<path class="st2" d="M417.9,501.4l30.7-17.7l-53.1-92l-10.2,5.9l47.2,81.8l-10.2,5.9L375,403.5l-10.2,5.9L417.9,501.4z
					 M521.8,468.8l-65-112.5l-10.2,5.9l59,102.3l-92,53.1l-59-102.3l-10.2,5.9l65,112.5L521.8,468.8z M489.5,460.1l-30.7,17.7
					l-53.1-92l10.2-5.9l47.2,81.8l10.2-5.9L426.2,374l10.2-5.9L489.5,460.1z"/>
				<path class="st2" d="M906.9,96.4l29.5,51.1l-30.7,17.7l-29.5-51.1l10.2-5.9l23.6,40.9l10.2-5.9l-23.6-40.9L906.9,96.4z
					 M927.3,84.6l-10.2,5.9L982,203l10.2-5.9L927.3,84.6z M835.3,137.8l10.2-5.9l65,112.5l-10.2,5.9L835.3,137.8z M937.5,78.7
					l10.2-5.9l65,112.5l-10.2,5.9L937.5,78.7z M855.7,126l10.2-5.9l65,112.5l-10.2,5.9L855.7,126z M971.8,208.9l-29.5-51.1
					l-30.7,17.7l29.5,51.1l10.2-5.9l-23.6-40.9l10.2-5.9l23.6,40.9L971.8,208.9z"/>
				<path class="st2" d="M715.8,615.8l29.5,51.1l-30.7,17.7l-29.5-51.1l10.2-5.9l23.6,40.9l10.2-5.9l-23.6-40.9L715.8,615.8z
					 M644.2,657.2l10.2-5.9l65,112.5l-10.2,5.9L644.2,657.2z M746.5,598.1l10.2-5.9l65,112.5l-10.2,5.9L746.5,598.1z M736.3,604
					l-10.2,5.9l65,112.5l10.2-5.9L736.3,604z M664.7,645.4l10.2-5.9l65,112.5l-10.2,5.9L664.7,645.4z M780.8,728.3l-29.5-51.1
					l-30.7,17.7l29.5,51.1l10.2-5.9l-23.6-40.9l10.2-5.9l23.6,40.9L780.8,728.3z"/>
				<path class="st2" d="M875.1,537.5l53.1,92l-92,53.1l-53.1-92L875.1,537.5z M879.5,521.4l-112.5,65l65,112.5l112.5-65
					L879.5,521.4z M866.5,569.8l29.5,51.1l-51.1,29.5l-29.5-51.1L866.5,569.8z M870.8,553.6L799.2,595l41.3,71.6l71.6-41.3
					L870.8,553.6z M863.7,612.3l-5.9-10.2l-10.2,5.9l5.9,10.2L863.7,612.3z M831.5,603.6l30.7-17.7l17.7,30.7l-30.7,17.7
					L831.5,603.6z"/>
				<path class="st2" d="M506.9,750.1l53.1,92l-92,53.1l-53.1-92L506.9,750.1z M511.3,733.9l-112.5,65l65,112.5l112.5-65
					L511.3,733.9z M498.3,782.3l29.5,51.1L476.7,863l-29.5-51.1L498.3,782.3z M502.6,766.2L431,807.5l41.3,71.6l71.6-41.3
					L502.6,766.2z M495.6,824.8l-5.9-10.2l-10.2,5.9l5.9,10.2L495.6,824.8z M463.3,816.2l30.7-17.7l17.7,30.7L481,846.9L463.3,816.2
					z"/>
				<path class="st2" d="M595.1,808.3l30.7-17.7l-53.1-92l-10.2,5.9l47.2,81.8l-10.2,5.9l-47.2-81.8l-10.2,5.9L595.1,808.3z
					 M698.9,775.6l-65-112.5l-10.2,5.9l59,102.3l-92,53.1l-59-102.3l-10.2,5.9l65,112.5L698.9,775.6z M666.7,766.9L636,784.7
					l-53.1-92l10.2-5.9l47.2,81.8l10.2-5.9l-47.2-81.8l10.2-5.9L666.7,766.9z"/>
				<path class="st2" d="M361.5,2.2L391,53.3L360.4,71l-29.5-51.1l10.2-5.9l23.6,40.9l10.2-5.9L351.3,8.1L361.5,2.2z M289.9,43.5
					l10.2-5.9l65,112.5l-10.2,5.9L289.9,43.5z M392.2-15.5l10.2-5.9l65,112.5L457.2,97L392.2-15.5z M382-9.6l-10.2,5.9l65,112.5
					l10.2-5.9L382-9.6z M310.4,31.7l10.2-5.9l65,112.5l-10.2,5.9L310.4,31.7z M426.5,114.7l-29.5-51.1l-30.7,17.7l29.5,51.1
					l10.2-5.9l-23.6-40.9l10.2-5.9l23.6,40.9L426.5,114.7z"/>
				<path class="st2" d="M520.8-76.2l53.1,92l-92,53.1l-53.1-92L520.8-76.2z M525.2-92.3l-112.5,65l65,112.5l112.5-65L525.2-92.3z
					 M512.2-43.9l29.5,51.1l-51.1,29.5l-29.5-51.1L512.2-43.9z M516.5-60l-71.6,41.3l41.3,71.6l71.6-41.3L516.5-60z M509.5-1.4
					l-5.9-10.2l-10.2,5.9l5.9,10.2L509.5-1.4z M477.2-10l30.7-17.7l17.7,30.7l-30.7,17.7L477.2-10z"/>
				<path class="st2" d="M609-18l30.7-17.7l-53.1-92l-10.2,5.9L623.5-40l-10.2,5.9l-47.2-81.8l-10.2,5.9L609-18z M712.8-50.6
					l-65-112.5l-10.2,5.9l59,102.3l-92,53.1l-59-102.3l-10.2,5.9l65,112.5L712.8-50.6z M680.6-59.3l-30.7,17.7l-53.1-92l10.2-5.9
					l47.2,81.8l10.2-5.9l-47.2-81.8l10.2-5.9L680.6-59.3z"/>
				<path class="st2" d="M24,197l10.2-5.9l65,112.5L89,309.6L24,197z M-78.3,256.1l10.2-5.9l65,112.5l-10.2,5.9L-78.3,256.1z
					 M13.8,203l-10.2,5.9l65,112.5l10.2-5.9L13.8,203z M-57.8,244.3l10.2-5.9l65,112.5l-10.2,5.9L-57.8,244.3z M-6.7,214.8
					l29.5,51.1l-30.7,17.7l-29.5-51.1l10.2-5.9l23.6,40.9l10.2-5.9l-23.6-40.9L-6.7,214.8z M58.3,327.3l-29.5-51.1l-30.7,17.7
					L27.6,345l10.2-5.9l-23.6-40.9l10.2-5.9l23.6,40.9L58.3,327.3z"/>
				<path class="st2" d="M152.6,136.4l53.1,92l-92,53.1l-53.1-92L152.6,136.4z M157,120.3l-112.5,65l65,112.5l112.5-65L157,120.3z
					 M144,168.7l29.5,51.1l-51.1,29.5l-29.5-51.1L144,168.7z M148.3,152.6l-71.6,41.3l41.3,71.6l71.6-41.3L148.3,152.6z
					 M141.3,211.2l-5.9-10.2l-10.2,5.9l5.9,10.2L141.3,211.2z M109,202.5l30.7-17.7l17.7,30.7l-30.7,17.7L109,202.5z"/>
				<path class="st2" d="M240.8,194.6l30.7-17.7l-53.1-92l-10.2,5.9l47.2,81.8l-10.2,5.9l-47.2-81.8l-10.2,5.9L240.8,194.6z
					 M344.7,161.9l-65-112.5l-10.2,5.9l59,102.3l-92,53.1l-59-102.3l-10.2,5.9l65,112.5L344.7,161.9z M312.4,153.3L281.7,171
					l-53.1-92l10.2-5.9l47.2,81.8l10.2-5.9L249,67.1l10.2-5.9L312.4,153.3z"/>
				<path class="st2" d="M361.5,2.2L391,53.3L360.4,71l-29.5-51.1l10.2-5.9l23.6,40.9l10.2-5.9L351.3,8.1L361.5,2.2z M289.9,43.5
					l10.2-5.9l65,112.5l-10.2,5.9L289.9,43.5z M392.2-15.5l10.2-5.9l65,112.5L457.2,97L392.2-15.5z M382-9.6l-10.2,5.9l65,112.5
					l10.2-5.9L382-9.6z M310.4,31.7l10.2-5.9l65,112.5l-10.2,5.9L310.4,31.7z M426.5,114.7l-29.5-51.1l-30.7,17.7l29.5,51.1
					l10.2-5.9l-23.6-40.9l10.2-5.9l23.6,40.9L426.5,114.7z"/>
				<path class="st2" d="M520.8-76.2l53.1,92l-92,53.1l-53.1-92L520.8-76.2z M525.2-92.3l-112.5,65l65,112.5l112.5-65L525.2-92.3z
					 M512.2-43.9l29.5,51.1l-51.1,29.5l-29.5-51.1L512.2-43.9z M516.5-60l-71.6,41.3l41.3,71.6l71.6-41.3L516.5-60z M509.5-1.4
					l-5.9-10.2l-10.2,5.9l5.9,10.2L509.5-1.4z M477.2-10l30.7-17.7l17.7,30.7l-30.7,17.7L477.2-10z"/>
				<path class="st2" d="M609-18l30.7-17.7l-53.1-92l-10.2,5.9L623.5-40l-10.2,5.9l-47.2-81.8l-10.2,5.9L609-18z M712.8-50.6
					l-65-112.5l-10.2,5.9l59,102.3l-92,53.1l-59-102.3l-10.2,5.9l65,112.5L712.8-50.6z M680.6-59.3l-30.7,17.7l-53.1-92l10.2-5.9
					l47.2,81.8l10.2-5.9l-47.2-81.8l10.2-5.9L680.6-59.3z"/>
				<path class="st2" d="M24,197l10.2-5.9l65,112.5L89,309.6L24,197z M-78.3,256.1l10.2-5.9l65,112.5l-10.2,5.9L-78.3,256.1z
					 M13.8,203l-10.2,5.9l65,112.5l10.2-5.9L13.8,203z M-57.8,244.3l10.2-5.9l65,112.5l-10.2,5.9L-57.8,244.3z M-6.7,214.8
					l29.5,51.1l-30.7,17.7l-29.5-51.1l10.2-5.9l23.6,40.9l10.2-5.9l-23.6-40.9L-6.7,214.8z M58.3,327.3l-29.5-51.1l-30.7,17.7
					L27.6,345l10.2-5.9l-23.6-40.9l10.2-5.9l23.6,40.9L58.3,327.3z"/>
				<path class="st2" d="M152.6,136.4l53.1,92l-92,53.1l-53.1-92L152.6,136.4z M157,120.3l-112.5,65l65,112.5l112.5-65L157,120.3z
					 M144,168.7l29.5,51.1l-51.1,29.5l-29.5-51.1L144,168.7z M148.3,152.6l-71.6,41.3l41.3,71.6l71.6-41.3L148.3,152.6z
					 M141.3,211.2l-5.9-10.2l-10.2,5.9l5.9,10.2L141.3,211.2z M109,202.5l30.7-17.7l17.7,30.7l-30.7,17.7L109,202.5z"/>
				<path class="st2" d="M240.8,194.6l30.7-17.7l-53.1-92l-10.2,5.9l47.2,81.8l-10.2,5.9l-47.2-81.8l-10.2,5.9L240.8,194.6z
					 M344.7,161.9l-65-112.5l-10.2,5.9l59,102.3l-92,53.1l-59-102.3l-10.2,5.9l65,112.5L344.7,161.9z M312.4,153.3L281.7,171
					l-53.1-92l10.2-5.9l47.2,81.8l10.2-5.9L249,67.1l10.2-5.9L312.4,153.3z"/>
				<path class="st2" d="M-47.3-20.9l53.1,92l-92,53.1l-53.1-92L-47.3-20.9z M-43-37l-112.5,65l65,112.5L22,75.5L-43-37z
					 M-55.9,11.4l29.5,51.1L-77.5,92l-29.5-51.1L-55.9,11.4z M-51.6-4.8l-71.6,41.3l41.3,71.6l71.6-41.3L-51.6-4.8z M-58.7,53.9
					l-5.9-10.2l-10.2,5.9l5.9,10.2L-58.7,53.9z M-90.9,45.2l30.7-17.7l17.7,30.7l-30.7,17.7L-90.9,45.2z"/>
				<path class="st2" d="M40.9,37.3l30.7-17.7l-53.1-92L8.2-66.6l47.2,81.8l-10.2,5.9L-2-60.6l-10.2,5.9L40.9,37.3z M144.7,4.6
					l-65-112.5L69.6-102l59,102.3l-92,53.1l-59-102.3l-10.2,5.9l65,112.5L144.7,4.6z M112.5-4L81.8,13.7l-53.1-92l10.2-5.9L86.1-2.4
					l10.2-5.9L49.1-90.2l10.2-5.9L112.5-4z"/>
				<path class="st2" d="M27,863.5l30.7-17.7l-53.1-92l-10.2,5.9l47.2,81.8l-10.2,5.9l-47.2-81.8l-10.2,5.9L27,863.5z M130.8,830.8
					l-65-112.5l-10.2,5.9l59,102.3l-92,53.1l-59-102.3l-10.2,5.9l65,112.5L130.8,830.8z M98.6,822.2l-30.7,17.7l-53.1-92L25,742
					l47.2,81.8l10.2-5.9l-47.2-81.8l10.2-5.9L98.6,822.2z"/>
				<path class="st2" d="M546.6,440.8l10.2-5.9l65,112.5l-10.2,5.9L546.6,440.8z M444.3,499.9l10.2-5.9l65,112.5l-10.2,5.9
					L444.3,499.9z M536.3,446.7l-10.2,5.9l65,112.5l10.2-5.9L536.3,446.7z M464.8,488.1l10.2-5.9l65,112.5l-10.2,5.9L464.8,488.1z
					 M515.9,458.5l29.5,51.1l-30.7,17.7l-29.5-51.1l10.2-5.9l23.6,40.9l10.2-5.9l-23.6-40.9L515.9,458.5z M580.8,571l-29.5-51.1
					l-30.7,17.7l29.5,51.1l10.2-5.9l-23.6-40.9L547,536l23.6,40.9L580.8,571z"/>
				<path class="st2" d="M675.2,380.2l53.1,92l-92,53.1l-53.1-92L675.2,380.2z M679.5,364.1L567,429l65,112.5l112.5-65L679.5,364.1z
					 M666.6,412.5l29.5,51.1L645,493.1L615.4,442L666.6,412.5z M670.9,396.3l-71.6,41.3l41.3,71.6l71.6-41.3L670.9,396.3z
					 M663.8,454.9l-5.9-10.2l-10.2,5.9l5.9,10.2L663.8,454.9z M631.6,446.3l30.7-17.7l17.7,30.7L649.3,477L631.6,446.3z"/>
				<path class="st2" d="M835,397.1l-30.7,17.7l-53.1-92l10.2-5.9l47.2,81.8l10.2-5.9l-47.2-81.8l10.2-5.9L835,397.1z M867.2,405.7
					l-65-112.5l-10.2,5.9l59,102.3l-92,53.1l-59-102.3l-10.2,5.9l65,112.5L867.2,405.7z M763.4,438.4l30.7-17.7l-53.1-92l-10.2,5.9
					l47.2,81.8l-10.2,5.9l-47.2-81.8l-10.2,5.9L763.4,438.4z"/>
				<path class="st2" d="M147.7,671.1l29.5,51.1L146.5,740L117,688.8l10.2-5.9l23.6,40.9l10.2-5.9L137.5,677L147.7,671.1z
					 M76.1,712.4l10.2-5.9l65,112.5l-10.2,5.9L76.1,712.4z M178.4,653.4l10.2-5.9l65,112.5l-10.2,5.9L178.4,653.4z M168.2,659.3
					l-10.2,5.9l65,112.5l10.2-5.9L168.2,659.3z M96.6,700.6l10.2-5.9l65,112.5l-10.2,5.9L96.6,700.6z M212.7,783.6l-29.5-51.1
					l-30.7,17.7l29.5,51.1l10.2-5.9l-23.6-40.9l10.2-5.9l23.6,40.9L212.7,783.6z"/>
				<path class="st2" d="M307,592.8l53.1,92l-92,53.1l-53.1-92L307,592.8z M311.3,576.6l-112.5,65l65,112.5l112.5-65L311.3,576.6z
					 M298.4,625l29.5,51.1l-51.1,29.5l-29.5-51.1L298.4,625z M302.7,608.9l-71.6,41.3l41.3,71.6l71.6-41.3L302.7,608.9z
					 M295.6,667.5l-5.9-10.2l-10.2,5.9l5.9,10.2L295.6,667.5z M263.4,658.9l30.7-17.7l17.7,30.7l-30.7,17.7L263.4,658.9z"/>
				<path class="st2" d="M395.2,651l30.7-17.7l-53.1-92l-10.2,5.9l47.2,81.8l-10.2,5.9L352.3,553l-10.2,5.9L395.2,651z M499,618.3
					l-65-112.5l-10.2,5.9l59,102.3l-92,53.1l-59-102.3l-10.2,5.9l65,112.5L499,618.3z M466.8,609.6l-30.7,17.7l-53.1-92l10.2-5.9
					l47.2,81.8l10.2-5.9l-47.2-81.8l10.2-5.9L466.8,609.6z"/>
				<path class="st2" d="M914.8,228.2l10.2-5.9l65,112.5l-10.2,5.9L914.8,228.2z M812.5,287.3l10.2-5.9l65,112.5l-10.2,5.9
					L812.5,287.3z M904.5,234.1l-10.2,5.9l65,112.5l10.2-5.9L904.5,234.1z M832.9,275.5l10.2-5.9l65,112.5l-10.2,5.9L832.9,275.5z
					 M884.1,246l29.5,51.1l-30.7,17.7l-29.5-51.1l10.2-5.9l23.6,40.9l10.2-5.9l-23.6-40.9L884.1,246z M949,358.5l-29.5-51.1
					L888.8,325l29.5,51.1l10.2-5.9L905,329.4l10.2-5.9l23.6,40.9L949,358.5z"/>
				<path class="st2" d="M723.7,747.6l10.2-5.9l65,112.5l-10.2,5.9L723.7,747.6z M621.4,806.7l10.2-5.9l65,112.5l-10.2,5.9
					L621.4,806.7z M713.5,753.5l-10.2,5.9l65,112.5l10.2-5.9L713.5,753.5z M641.9,794.9l10.2-5.9l65,112.5l-10.2,5.9L641.9,794.9z
					 M693,765.4l29.5,51.1l-30.7,17.7l-29.5-51.1l10.2-5.9l23.6,40.9l10.2-5.9l-23.6-40.9L693,765.4z M758,877.9l-29.5-51.1
					l-30.7,17.7l29.5,51.1l10.2-5.9l-23.6-40.9l10.2-5.9l23.6,40.9L758,877.9z"/>
				<path class="st2" d="M852.4,687l53.1,92l-92,53.1l-53.1-92L852.4,687z M856.7,670.9l-112.5,65l65,112.5l112.5-65L856.7,670.9z
					 M843.7,719.3l29.5,51.1l-51.1,29.5l-29.5-51.1L843.7,719.3z M848,703.1l-71.6,41.3l41.3,71.6l71.6-41.3L848,703.1z M841,761.8
					l-5.9-10.2l-10.2,5.9l5.9,10.2L841,761.8z M808.7,753.1l30.7-17.7l17.7,30.7l-30.7,17.7L808.7,753.1z"/>
				<path class="st2" d="M369.4,134l10.2-5.9l65,112.5l-10.2,5.9L369.4,134z M267.2,193l10.2-5.9l65,112.5l-10.2,5.9L267.2,193z
					 M359.2,139.9l-10.2,5.9l65,112.5l10.2-5.9L359.2,139.9z M287.6,181.2l10.2-5.9l65,112.5l-10.2,5.9L287.6,181.2z M338.7,151.7
					l29.5,51.1l-30.7,17.7l-29.5-51.1l10.2-5.9l23.6,40.9l10.2-5.9l-23.6-40.9L338.7,151.7z M403.7,264.2l-29.5-51.1l-30.7,17.7
					l29.5,51.1l10.2-5.9l-23.6-40.9l10.2-5.9l23.6,40.9L403.7,264.2z"/>
				<path class="st2" d="M498.1,73.4l53.1,92l-92,53.1l-53.1-92L498.1,73.4z M502.4,57.2l-112.5,65l65,112.5l112.5-65L502.4,57.2z
					 M489.4,105.6l29.5,51.1l-51.1,29.5l-29.5-51.1L489.4,105.6z M493.7,89.5l-71.6,41.3l41.3,71.6l71.6-41.3L493.7,89.5z
					 M486.7,148.1l-5.9-10.2l-10.2,5.9l5.9,10.2L486.7,148.1z M454.4,139.5l30.7-17.7l17.7,30.7l-30.7,17.7L454.4,139.5z"/>
				<path class="st2" d="M657.8,90.2l-30.7,17.7l-53.1-92l10.2-5.9l47.2,81.8l10.2-5.9L594.4,4.1l10.2-5.9L657.8,90.2z M690.1,98.9
					l-65-112.5l-10.2,5.9l59,102.3l-92,53.1l-59-102.3l-10.2,5.9l65,112.5L690.1,98.9z M586.2,131.6l30.7-17.7l-53.1-92l-10.2,5.9
					l47.2,81.8l-10.2,5.9l-47.2-81.8l-10.2,5.9L586.2,131.6z"/>
				<path class="st2" d="M-101,405.6l10.2-5.9l65,112.5l-10.2,5.9L-101,405.6z M1.2,346.6l10.2-5.9l65,112.5l-10.2,5.9L1.2,346.6z
					 M-9,352.5l-10.2,5.9l65,112.5L56,465L-9,352.5z M-80.6,393.8l10.2-5.9l65,112.5l-10.2,5.9L-80.6,393.8z M-29.4,364.3l29.5,51.1
					l-30.7,17.7L-60.1,382l10.2-5.9l23.6,40.9l10.2-5.9l-23.6-40.9L-29.4,364.3z M35.5,476.8L6,425.6l-30.7,17.7l29.5,51.1l10.2-5.9
					l-23.6-40.9l10.2-5.9l23.6,40.9L35.5,476.8z"/>
				<path class="st2" d="M129.9,285.9l53.1,92l-92,53.1l-53.1-92L129.9,285.9z M134.2,269.8l-112.5,65l65,112.5l112.5-65
					L134.2,269.8z M121.2,318.2l29.5,51.1l-51.1,29.5l-29.5-51.1L121.2,318.2z M125.5,302.1L54,343.4L95.3,415l71.6-41.3
					L125.5,302.1z M118.5,360.7l-5.9-10.2l-10.2,5.9l5.9,10.2L118.5,360.7z M86.2,352l30.7-17.7l17.7,30.7l-30.7,17.7L86.2,352z"/>
				<path class="st2" d="M218,344.1l30.7-17.7l-53.1-92l-10.2,5.9l47.2,81.8l-10.2,5.9l-47.2-81.8l-10.2,5.9L218,344.1z
					 M321.9,311.4l-65-112.5l-10.2,5.9l59,102.3l-92,53.1l-59-102.3l-10.2,5.9l65,112.5L321.9,311.4z M289.6,302.8l-30.7,17.7
					l-53.1-92l10.2-5.9l47.2,81.8l10.2-5.9l-47.2-81.8l10.2-5.9L289.6,302.8z"/>
				<path class="st2" d="M737.6-78.6l10.2-5.9l65,112.5l-10.2,5.9L737.6-78.6z M635.3-19.5l10.2-5.9l65,112.5L700.3,93L635.3-19.5z
					 M727.4-72.7l-10.2,5.9l65,112.5l10.2-5.9L727.4-72.7z M655.8-31.4l10.2-5.9l65,112.5l-10.2,5.9L655.8-31.4z M706.9-60.9
					l29.5,51.1L705.8,8l-29.5-51.1l10.2-5.9l23.6,40.9l10.2-5.9L696.7-55L706.9-60.9z M771.9,51.6L742.4,0.5l-30.7,17.7l29.5,51.1
					l10.2-5.9l-23.6-40.9l10.2-5.9l23.6,40.9L771.9,51.6z"/>
				<path class="st2" d="M866.3-139.2l53.1,92L827.4,6l-53.1-92L866.3-139.2z M870.6-155.4l-112.5,65l65,112.5l112.5-65L870.6-155.4
					z M857.6-107l29.5,51.1L836-26.3l-29.5-51.1L857.6-107z M861.9-123.1l-71.6,41.3l41.3,71.6l71.6-41.3L861.9-123.1z M854.9-64.5
					L849-74.7l-10.2,5.9l5.9,10.2L854.9-64.5z M822.6-73.1l30.7-17.7L871-60.1l-30.7,17.7L822.6-73.1z"/>
				<path class="st2" d="M210.4-46.9l10.2-5.9l65,112.5l-10.2,5.9L210.4-46.9z M292.2-94.2l10.2-5.9l65,112.5l-10.2,5.9L292.2-94.2z
					 M190-35.1l10.2-5.9l65,112.5l-10.2,5.9L190-35.1z M282-88.3l-10.2,5.9l65,112.5l10.2-5.9L282-88.3z M261.6-76.5l29.5,51.1
					L260.4-7.6l-29.5-51.1l10.2-5.9l23.6,40.9l10.2-5.9l-23.6-40.9L261.6-76.5z M326.5,36L297-15.1L266.3,2.6l29.5,51.1l10.2-5.9
					L282.4,6.9L292.7,1l23.6,40.9L326.5,36z"/>
				<path class="st2" d="M420.9-154.8l53.1,92L382-9.6l-53.1-92L420.9-154.8z M425.2-170.9l-112.5,65l65,112.5l112.5-65L425.2-170.9
					z M412.2-122.6l29.5,51.1l-51.1,29.5L361.1-93L412.2-122.6z M416.6-138.7L345-97.3l41.3,71.6l71.6-41.3L416.6-138.7z
					 M409.5-80.1l-5.9-10.2l-10.2,5.9l5.9,10.2L409.5-80.1z M377.2-88.7l30.7-17.7l17.7,30.7L394.9-58L377.2-88.7z"/>
				<path class="st2" d="M52.7,57.8l53.1,92l-92,53.1l-53.1-92L52.7,57.8z M57,41.6l-112.5,65l65,112.5l112.5-65L57,41.6z M44,90
					l29.5,51.1l-51.1,29.5l-29.5-51.1L44,90z M48.4,73.9l-71.6,41.3l41.3,71.6l71.6-41.3L48.4,73.9z M41.3,132.5l-5.9-10.2
					l-10.2,5.9l5.9,10.2L41.3,132.5z M9,123.9l30.7-17.7l17.7,30.7l-30.7,17.7L9,123.9z"/>
				<path class="st2" d="M244.7,83.3l-65-112.5l-10.2,5.9l59,102.3l-92,53.1l-59-102.3l-10.2,5.9l65,112.5L244.7,83.3z M140.8,116
					l30.7-17.7l-53.1-92l-10.2,5.9l47.2,81.8l-10.2,5.9L97.9,18l-10.2,5.9L140.8,116z M212.4,74.6l-30.7,17.7l-53.1-92l10.2-5.9
					l47.2,81.8l10.2-5.9l-47.2-81.8l10.2-5.9L212.4,74.6z"/>
				<path class="st2" d="M564.7,566.7l10.2-5.9l65,112.5l-10.2,5.9L564.7,566.7z M544.3,578.5l10.2-5.9l65,112.5l-10.2,5.9
					L544.3,578.5z M646.5,519.5l10.2-5.9l65,112.5l-10.2,5.9L646.5,519.5z M636.3,525.4l-10.2,5.9l65,112.5l10.2-5.9L636.3,525.4z
					 M615.9,537.2l29.5,51.1L614.7,606l-29.5-51.1l10.2-5.9l23.6,40.9l10.2-5.9l-23.6-40.9L615.9,537.2z M680.8,649.7l-29.5-51.1
					l-30.7,17.7l29.5,51.1l10.2-5.9l-23.6-40.9l10.2-5.9l23.6,40.9L680.8,649.7z"/>
				<path class="st2" d="M775.2,458.8l53.1,92l-92,53.1l-53.1-92L775.2,458.8z M779.5,442.7l-112.5,65l65,112.5l112.5-65
					L779.5,442.7z M766.5,491.1l29.5,51.1l-51.1,29.5l-29.5-51.1L766.5,491.1z M770.8,475l-71.6,41.3l41.3,71.6l71.6-41.3L770.8,475
					z M763.8,533.6l-5.9-10.2l-10.2,5.9l5.9,10.2L763.8,533.6z M731.5,525l30.7-17.7l17.7,30.7l-30.7,17.7L731.5,525z"/>
				<path class="st2" d="M863.3,517l30.7-17.7l-53.1-92l-10.2,5.9l47.2,81.8l-10.2,5.9l-47.2-81.8l-10.2,5.9L863.3,517z
					 M967.2,484.4l-65-112.5l-10.2,5.9L951,480l-92,53.1l-59-102.3l-10.2,5.9l65,112.5L967.2,484.4z M934.9,475.7l-30.7,17.7
					l-53.1-92l10.2-5.9l47.2,81.8l10.2-5.9l-47.2-81.8l10.2-5.9L934.9,475.7z"/>
				<path class="st2" d="M247.7,749.8l29.5,51.1l-30.7,17.7L217,767.5l10.2-5.9l23.6,40.9l10.2-5.9l-23.6-40.9L247.7,749.8z
					 M268.1,738l-10.2,5.9l65,112.5l10.2-5.9L268.1,738z M176.1,791.1l10.2-5.9l65,112.5l-10.2,5.9L176.1,791.1z M278.3,732
					l10.2-5.9l65,112.5l-10.2,5.9L278.3,732z M196.5,779.3l10.2-5.9l65,112.5l-10.2,5.9L196.5,779.3z M312.6,862.3l-29.5-51.1
					l-30.7,17.7l29.5,51.1l10.2-5.9l-23.6-40.9l10.2-5.9l23.6,40.9L312.6,862.3z"/>
				<path class="st2" d="M407,671.4l53.1,92l-92,53.1l-53.1-92L407,671.4z M411.3,655.3l-112.5,65l65,112.5l112.5-65L411.3,655.3z
					 M398.3,703.7l29.5,51.1l-51.1,29.5l-29.5-51.1L398.3,703.7z M402.7,687.5l-71.6,41.3l41.3,71.6l71.6-41.3L402.7,687.5z
					 M395.6,746.2l-5.9-10.2l-10.2,5.9l5.9,10.2L395.6,746.2z M363.3,737.5l30.7-17.7l17.7,30.7L381,768.2L363.3,737.5z"/>
				<path class="st2" d="M599,696.9l-65-112.5l-10.2,5.9l59,102.3l-92,53.1l-59-102.3l-10.2,5.9l65,112.5L599,696.9z M495.1,729.6
					l30.7-17.7l-53.1-92l-10.2,5.9l47.2,81.8l-10.2,5.9l-47.2-81.8l-10.2,5.9L495.1,729.6z M566.7,688.3L536,706l-53.1-92l10.2-5.9
					l47.2,81.8l10.2-5.9l-47.2-81.8l10.2-5.9L566.7,688.3z"/>
				<path class="st2" d="M952.3,765.7l53.1,92l-92,53.1l-53.1-92L952.3,765.7z M956.6,749.5l-112.5,65l65,112.5l112.5-65
					L956.6,749.5z M943.7,797.9l29.5,51.1l-51.1,29.5l-29.5-51.1L943.7,797.9z M948,781.8l-71.6,41.3l41.3,71.6l71.6-41.3L948,781.8
					z M940.9,840.4l-5.9-10.2l-10.2,5.9l5.9,10.2L940.9,840.4z M908.7,831.8l30.7-17.7l17.7,30.7l-30.7,17.7L908.7,831.8z"/>
				<path class="st2" d="M53.6,602.7l-65-112.5l-10.2,5.9l59,102.3l-92,53.1l-59-102.3l-10.2,5.9l65,112.5L53.6,602.7z M-50.2,635.4
					l30.7-17.7l-53.1-92l-10.2,5.9l47.2,81.8l-10.2,5.9l-47.2-81.8l-10.2,5.9L-50.2,635.4z M21.4,594l-30.7,17.7l-53.1-92l10.2-5.9
					L-5,595.6l10.2-5.9L-42,507.9l10.2-5.9L21.4,594z"/>
				<path class="st2" d="M387.6,259.9l10.2-5.9l65,112.5l-10.2,5.9L387.6,259.9z M469.4,212.6l10.2-5.9l65,112.5l-10.2,5.9
					L469.4,212.6z M367.1,271.7l10.2-5.9l65,112.5l-10.2,5.9L367.1,271.7z M459.2,218.5l-10.2,5.9l65,112.5l10.2-5.9L459.2,218.5z
					 M438.7,230.4l29.5,51.1l-30.7,17.7L408,248.1l10.2-5.9l23.6,40.9l10.2-5.9l-23.6-40.9L438.7,230.4z M503.7,342.9l-29.5-51.1
					l-30.7,17.7l29.5,51.1l10.2-5.9l-23.6-40.9l10.2-5.9l23.6,40.9L503.7,342.9z"/>
				<path class="st2" d="M598,152l53.1,92l-92,53.1l-53.1-92L598,152z M602.3,135.9l-112.5,65l65,112.5l112.5-65L602.3,135.9z
					 M589.4,184.3l29.5,51.1l-51.1,29.5l-29.5-51.1L589.4,184.3z M593.7,168.1l-71.6,41.3l41.3,71.6l71.6-41.3L593.7,168.1z
					 M586.6,226.8l-5.9-10.2l-10.2,5.9l5.9,10.2L586.6,226.8z M554.4,218.1l30.7-17.7l17.7,30.7l-30.7,17.7L554.4,218.1z"/>
				<path class="st2" d="M686.2,210.2l30.7-17.7l-53.1-92l-10.2,5.9l47.2,81.8l-10.2,5.9l-47.2-81.8l-10.2,5.9L686.2,210.2z
					 M790,177.5L725.1,65l-10.2,5.9l59,102.3l-92,53.1l-59-102.3l-10.2,5.9l65,112.5L790,177.5z M757.8,168.9l-30.7,17.7l-53.1-92
					l10.2-5.9l47.2,81.8l10.2-5.9l-47.2-81.8l10.2-5.9L757.8,168.9z"/>
				<path class="st2" d="M70.5,442.9l29.5,51.1l-30.7,17.7l-29.5-51.1l10.2-5.9l23.6,40.9l10.2-5.9l-23.6-40.9L70.5,442.9z
					 M91,431.1L80.7,437l65,112.5l10.2-5.9L91,431.1z M-1.1,484.3l10.2-5.9l65,112.5l-10.2,5.9L-1.1,484.3z M101.2,425.2l10.2-5.9
					l65,112.5l-10.2,5.9L101.2,425.2z M19.4,472.5l10.2-5.9l65,112.5L84.3,585L19.4,472.5z M135.5,555.4l-29.5-51.1L75.3,522
					l29.5,51.1l10.2-5.9l-23.6-40.9l10.2-5.9l23.6,40.9L135.5,555.4z"/>
				<path class="st2" d="M229.8,364.6l53.1,92l-92,53.1l-53.1-92L229.8,364.6z M234.2,348.5l-112.5,65l65,112.5l112.5-65
					L234.2,348.5z M221.2,396.9l29.5,51.1l-51.1,29.5L170,426.4L221.2,396.9z M225.5,380.7l-71.6,41.3l41.3,71.6l71.6-41.3
					L225.5,380.7z M218.4,439.3l-5.9-10.2l-10.2,5.9l5.9,10.2L218.4,439.3z M186.2,430.7l30.7-17.7l17.7,30.7l-30.7,17.7
					L186.2,430.7z"/>
				<path class="st2" d="M318,422.8l30.7-17.7l-53.1-92l-10.2,5.9l47.2,81.8l-10.2,5.9l-47.2-81.8l-10.2,5.9L318,422.8z
					 M421.8,390.1l-65-112.5l-10.2,5.9l59,102.3l-92,53.1l-59-102.3l-10.2,5.9l65,112.5L421.8,390.1z M389.6,381.5l-30.7,17.7
					l-53.1-92l10.2-5.9l47.2,81.8l10.2-5.9l-47.2-81.8l10.2-5.9L389.6,381.5z"/>
				<path class="st2" d="M755.8,47.3l10.2-5.9l65,112.5l-10.2,5.9L755.8,47.3z M837.6,0.1l10.2-5.9l65,112.5l-10.2,5.9L837.6,0.1z
					 M735.3,59.1l10.2-5.9l65,112.5l-10.2,5.9L735.3,59.1z M827.4,6l-10.2,5.9l65,112.5l10.2-5.9L827.4,6z M806.9,17.8l29.5,51.1
					l-30.7,17.7l-29.5-51.1l10.2-5.9l23.6,40.9l10.2-5.9l-23.6-40.9L806.9,17.8z M871.9,130.3l-29.5-51.1l-30.7,17.7l29.5,51.1
					l10.2-5.9l-23.6-40.9l10.2-5.9l23.6,40.9L871.9,130.3z"/>
			</g>
		</g>
	</g>
</g>
</svg>
