<svg width="501" height="234" viewBox="0 0 501 234" fill="none" xmlns="http://www.w3.org/2000/svg">
<path d="M-11 11V39H21V43H-11V47H25V35H-7V15H33V11H-11Z" fill="#F7693A"/>
<path d="M1 23H33V19H-3V31H29V51H-11V55H33V27H1V23Z" fill="#F7693A"/>
<path d="M-11 -29V-1H21V3H-11V7H25V-5H-7V-25H33V-29H-11Z" fill="#F7693A"/>
<path d="M1 -17H33V-21H-3V-9H29V11H-11V15H33V-13H1V-17Z" fill="#F7693A"/>
<path d="M-11 107V135H21V139H-11V143H25V131H-7V111H33V107H-11Z" fill="#F7693A"/>
<path d="M1 119H33V115H-3V127H29V147H-11V151H33V123H1V119Z" fill="#F7693A"/>
<path d="M109 11V39H141V43H109V47H145V35H113V15H153V11H109Z" fill="#F7693A"/>
<path d="M121 23H153V19H117V31H149V51H109V55H153V27H121V23Z" fill="#F7693A"/>
<path d="M109 -29V-1H141V3H109V7H145V-5H113V-25H153V-29H109Z" fill="#F7693A"/>
<path d="M121 -17H153V-21H117V-9H149V11H109V15H153V-13H121V-17Z" fill="#F7693A"/>
<path d="M109 107V135H141V139H109V143H145V131H113V111H153V107H109Z" fill="#F7693A"/>
<path d="M121 119H153V115H117V127H149V147H109V151H153V123H121V119Z" fill="#F7693A"/>
<path d="M69 91V119H101V123H69V127H105V115H73V95H113V91H69Z" fill="#F7693A"/>
<path d="M81 103H113V99H77V111H109V131H69V135H113V107H81V103Z" fill="#F7693A"/>
<path d="M189 91V119H221V123H189V127H225V115H193V95H233V91H189Z" fill="#F7693A"/>
<path d="M201 103H233V99H197V111H229V131H189V135H233V107H201V103Z" fill="#F7693A"/>
<path d="M29 27V55H61V59H29V63H65V51H33V31H73V27H29Z" fill="#F7693A"/>
<path d="M41 39H73V35H37V47H69V67H29V71H73V43H41V39Z" fill="#F7693A"/>
<path d="M29 -13V15H61V19H29V23H65V11H33V-9H73V-13H29Z" fill="#F7693A"/>
<path d="M41 -1H73V-5H37V7H69V27H29V31H73V3H41V-1Z" fill="#F7693A"/>
<path d="M29 123V151H61V155H29V159H65V147H33V127H73V123H29Z" fill="#F7693A"/>
<path d="M41 135H73V131H37V143H69V163H29V167H73V139H41V135Z" fill="#F7693A"/>
<path d="M149 27V55H181V59H149V63H185V51H153V31H193V27H149Z" fill="#F7693A"/>
<path d="M161 39H193V35H157V47H189V67H149V71H193V43H161V39Z" fill="#F7693A"/>
<path d="M149 -13V15H181V19H149V23H185V11H153V-9H193V-13H149Z" fill="#F7693A"/>
<path d="M161 -1H193V-5H157V7H189V27H149V31H193V3H161V-1Z" fill="#F7693A"/>
<path d="M149 123V151H181V155H149V159H185V147H153V127H193V123H149Z" fill="#F7693A"/>
<path d="M161 135H193V131H157V143H189V163H149V167H193V139H161V135Z" fill="#F7693A"/>
<path d="M-11 59V87H21V91H-11V95H25V83H-7V63H33V59H-11Z" fill="#F7693A"/>
<path d="M1 71H33V67H-3V79H29V99H-11V103H33V75H1V71Z" fill="#F7693A"/>
<path d="M-11 155V183H21V187H-11V191H25V179H-7V159H33V155H-11Z" fill="#F7693A"/>
<path d="M1 167H33V163H-3V175H29V195H-11V199H33V171H1V167Z" fill="#F7693A"/>
<path d="M-11 203V231H21V235H-11V239H25V227H-7V207H33V203H-11Z" fill="#F7693A"/>
<path d="M1 215H33V211H-3V223H29V243H-11V247H33V219H1V215Z" fill="#F7693A"/>
<path d="M109 59V87H141V91H109V95H145V83H113V63H153V59H109Z" fill="#F7693A"/>
<path d="M121 71H153V67H117V79H149V99H109V103H153V75H121V71Z" fill="#F7693A"/>
<path d="M109 155V183H141V187H109V191H145V179H113V159H153V155H109Z" fill="#F7693A"/>
<path d="M121 167H153V163H117V175H149V195H109V199H153V171H121V167Z" fill="#F7693A"/>
<path d="M109 203V231H141V235H109V239H145V227H113V207H153V203H109Z" fill="#F7693A"/>
<path d="M121 215H153V211H117V223H149V243H109V247H153V219H121V215Z" fill="#F7693A"/>
<path d="M69 43V71H101V75H69V79H105V67H73V47H113V43H69Z" fill="#F7693A"/>
<path d="M81 55H113V51H77V63H109V83H69V87H113V59H81V55Z" fill="#F7693A"/>
<path d="M69 3V31H101V35H69V39H105V27H73V7H113V3H69Z" fill="#F7693A"/>
<path d="M81 15H113V11H77V23H109V43H69V47H113V19H81V15Z" fill="#F7693A"/>
<path d="M69 139V167H101V171H69V175H105V163H73V143H113V139H69Z" fill="#F7693A"/>
<path d="M81 151H113V147H77V159H109V179H69V183H113V155H81V151Z" fill="#F7693A"/>
<path d="M69 187V215H101V219H69V223H105V211H73V191H113V187H69Z" fill="#F7693A"/>
<path d="M81 199H113V195H77V207H109V227H69V231H113V203H81V199Z" fill="#F7693A"/>
<path d="M189 43V71H221V75H189V79H225V67H193V47H233V43H189Z" fill="#F7693A"/>
<path d="M201 55H233V51H197V63H229V83H189V87H233V59H201V55Z" fill="#F7693A"/>
<path d="M189 3V31H221V35H189V39H225V27H193V7H233V3H189Z" fill="#F7693A"/>
<path d="M201 15H233V11H197V23H229V43H189V47H233V19H201V15Z" fill="#F7693A"/>
<path d="M189 139V167H221V171H189V175H225V163H193V143H233V139H189Z" fill="#F7693A"/>
<path d="M201 151H233V147H197V159H229V179H189V183H233V155H201V151Z" fill="#F7693A"/>
<path d="M189 187V215H221V219H189V223H225V211H193V191H233V187H189Z" fill="#F7693A"/>
<path d="M201 199H233V195H197V207H229V227H189V231H233V203H201V199Z" fill="#F7693A"/>
<path d="M29 75V103H61V107H29V111H65V99H33V79H73V75H29Z" fill="#F7693A"/>
<path d="M41 87H73V83H37V95H69V115H29V119H73V91H41V87Z" fill="#F7693A"/>
<path d="M29 171V199H61V203H29V207H65V195H33V175H73V171H29Z" fill="#F7693A"/>
<path d="M41 183H73V179H37V191H69V211H29V215H73V187H41V183Z" fill="#F7693A"/>
<path d="M29 219V247H61V251H29V255H65V243H33V223H73V219H29Z" fill="#F7693A"/>
<path d="M41 231H73V227H37V239H69V259H29V263H73V235H41V231Z" fill="#F7693A"/>
<path d="M149 75V103H181V107H149V111H185V99H153V79H193V75H149Z" fill="#F7693A"/>
<path d="M161 87H193V83H157V95H189V115H149V119H193V91H161V87Z" fill="#F7693A"/>
<path d="M149 171V199H181V203H149V207H185V195H153V175H193V171H149Z" fill="#F7693A"/>
<path d="M161 183H193V179H157V191H189V211H149V215H193V187H161V183Z" fill="#F7693A"/>
<path d="M149 219V247H181V251H149V255H185V243H153V223H193V219H149Z" fill="#F7693A"/>
<path d="M161 231H193V227H157V239H189V259H149V263H193V235H161V231Z" fill="#F7693A"/>
<path d="M229 11V39H261V43H229V47H265V35H233V15H273V11H229Z" fill="#F7693A"/>
<path d="M241 23H273V19H237V31H269V51H229V55H273V27H241V23Z" fill="#F7693A"/>
<path d="M229 -29V-1H261V3H229V7H265V-5H233V-25H273V-29H229Z" fill="#F7693A"/>
<path d="M241 -17H273V-21H237V-9H269V11H229V15H273V-13H241V-17Z" fill="#F7693A"/>
<path d="M229 107V135H261V139H229V143H265V131H233V111H273V107H229Z" fill="#F7693A"/>
<path d="M241 119H273V115H237V127H269V147H229V151H273V123H241V119Z" fill="#F7693A"/>
<path d="M349 11V39H381V43H349V47H385V35H353V15H393V11H349Z" fill="#F7693A"/>
<path d="M361 23H393V19H357V31H389V51H349V55H393V27H361V23Z" fill="#F7693A"/>
<path d="M349 -29V-1H381V3H349V7H385V-5H353V-25H393V-29H349Z" fill="#F7693A"/>
<path d="M361 -17H393V-21H357V-9H389V11H349V15H393V-13H361V-17Z" fill="#F7693A"/>
<path d="M469 11V39H501V43H469V47H505V35H473V15H513V11H469Z" fill="#F7693A"/>
<path d="M481 23H513V19H477V31H509V51H469V55H513V27H481V23Z" fill="#F7693A"/>
<path d="M469 -29V-1H501V3H469V7H505V-5H473V-25H513V-29H469Z" fill="#F7693A"/>
<path d="M481 -17H513V-21H477V-9H509V11H469V15H513V-13H481V-17Z" fill="#F7693A"/>
<path d="M349 107V135H381V139H349V143H385V131H353V111H393V107H349Z" fill="#F7693A"/>
<path d="M361 119H393V115H357V127H389V147H349V151H393V123H361V119Z" fill="#F7693A"/>
<path d="M469 107V135H501V139H469V143H505V131H473V111H513V107H469Z" fill="#F7693A"/>
<path d="M481 119H513V115H477V127H509V147H469V151H513V123H481V119Z" fill="#F7693A"/>
<path d="M309 91V119H341V123H309V127H345V115H313V95H353V91H309Z" fill="#F7693A"/>
<path d="M321 103H353V99H317V111H349V131H309V135H353V107H321V103Z" fill="#F7693A"/>
<path d="M429 91V119H461V123H429V127H465V115H433V95H473V91H429Z" fill="#F7693A"/>
<path d="M441 103H473V99H437V111H469V131H429V135H473V107H441V103Z" fill="#F7693A"/>
<path d="M269 27V55H301V59H269V63H305V51H273V31H313V27H269Z" fill="#F7693A"/>
<path d="M281 39H313V35H277V47H309V67H269V71H313V43H281V39Z" fill="#F7693A"/>
<path d="M269 -13V15H301V19H269V23H305V11H273V-9H313V-13H269Z" fill="#F7693A"/>
<path d="M281 -1H313V-5H277V7H309V27H269V31H313V3H281V-1Z" fill="#F7693A"/>
<path d="M389 27V55H421V59H389V63H425V51H393V31H433V27H389Z" fill="#F7693A"/>
<path d="M401 39H433V35H397V47H429V67H389V71H433V43H401V39Z" fill="#F7693A"/>
<path d="M389 -13V15H421V19H389V23H425V11H393V-9H433V-13H389Z" fill="#F7693A"/>
<path d="M401 -1H433V-5H397V7H429V27H389V31H433V3H401V-1Z" fill="#F7693A"/>
<path d="M269 123V151H301V155H269V159H305V147H273V127H313V123H269Z" fill="#F7693A"/>
<path d="M281 135H313V131H277V143H309V163H269V167H313V139H281V135Z" fill="#F7693A"/>
<path d="M389 123V151H421V155H389V159H425V147H393V127H433V123H389Z" fill="#F7693A"/>
<path d="M401 135H433V131H397V143H429V163H389V167H433V139H401V135Z" fill="#F7693A"/>
<path d="M229 59V87H261V91H229V95H265V83H233V63H273V59H229Z" fill="#F7693A"/>
<path d="M241 71H273V67H237V79H269V99H229V103H273V75H241V71Z" fill="#F7693A"/>
<path d="M229 155V183H261V187H229V191H265V179H233V159H273V155H229Z" fill="#F7693A"/>
<path d="M241 167H273V163H237V175H269V195H229V199H273V171H241V167Z" fill="#F7693A"/>
<path d="M229 203V231H261V235H229V239H265V227H233V207H273V203H229Z" fill="#F7693A"/>
<path d="M241 215H273V211H237V223H269V243H229V247H273V219H241V215Z" fill="#F7693A"/>
<path d="M349 59V87H381V91H349V95H385V83H353V63H393V59H349Z" fill="#F7693A"/>
<path d="M361 71H393V67H357V79H389V99H349V103H393V75H361V71Z" fill="#F7693A"/>
<path d="M469 59V87H501V91H469V95H505V83H473V63H513V59H469Z" fill="#F7693A"/>
<path d="M481 71H513V67H477V79H509V99H469V103H513V75H481V71Z" fill="#F7693A"/>
<path d="M349 155V183H381V187H349V191H385V179H353V159H393V155H349Z" fill="#F7693A"/>
<path d="M361 167H393V163H357V175H389V195H349V199H393V171H361V167Z" fill="#F7693A"/>
<path d="M349 203V231H381V235H349V239H385V227H353V207H393V203H349Z" fill="#F7693A"/>
<path d="M361 215H393V211H357V223H389V243H349V247H393V219H361V215Z" fill="#F7693A"/>
<path d="M469 155V183H501V187H469V191H505V179H473V159H513V155H469Z" fill="#F7693A"/>
<path d="M481 167H513V163H477V175H509V195H469V199H513V171H481V167Z" fill="#F7693A"/>
<path d="M469 203V231H501V235H469V239H505V227H473V207H513V203H469Z" fill="#F7693A"/>
<path d="M481 215H513V211H477V223H509V243H469V247H513V219H481V215Z" fill="#F7693A"/>
<path d="M309 43V71H341V75H309V79H345V67H313V47H353V43H309Z" fill="#F7693A"/>
<path d="M321 55H353V51H317V63H349V83H309V87H353V59H321V55Z" fill="#F7693A"/>
<path d="M309 3V31H341V35H309V39H345V27H313V7H353V3H309Z" fill="#F7693A"/>
<path d="M321 15H353V11H317V23H349V43H309V47H353V19H321V15Z" fill="#F7693A"/>
<path d="M429 43V71H461V75H429V79H465V67H433V47H473V43H429Z" fill="#F7693A"/>
<path d="M441 55H473V51H437V63H469V83H429V87H473V59H441V55Z" fill="#F7693A"/>
<path d="M429 3V31H461V35H429V39H465V27H433V7H473V3H429Z" fill="#F7693A"/>
<path d="M441 15H473V11H437V23H469V43H429V47H473V19H441V15Z" fill="#F7693A"/>
<path d="M309 139V167H341V171H309V175H345V163H313V143H353V139H309Z" fill="#F7693A"/>
<path d="M321 151H353V147H317V159H349V179H309V183H353V155H321V151Z" fill="#F7693A"/>
<path d="M309 187V215H341V219H309V223H345V211H313V191H353V187H309Z" fill="#F7693A"/>
<path d="M321 199H353V195H317V207H349V227H309V231H353V203H321V199Z" fill="#F7693A"/>
<path d="M429 139V167H461V171H429V175H465V163H433V143H473V139H429Z" fill="#F7693A"/>
<path d="M441 151H473V147H437V159H469V179H429V183H473V155H441V151Z" fill="#F7693A"/>
<path d="M429 187V215H461V219H429V223H465V211H433V191H473V187H429Z" fill="#F7693A"/>
<path d="M441 199H473V195H437V207H469V227H429V231H473V203H441V199Z" fill="#F7693A"/>
<path d="M269 75V103H301V107H269V111H305V99H273V79H313V75H269Z" fill="#F7693A"/>
<path d="M281 87H313V83H277V95H309V115H269V119H313V91H281V87Z" fill="#F7693A"/>
<path d="M389 75V103H421V107H389V111H425V99H393V79H433V75H389Z" fill="#F7693A"/>
<path d="M401 87H433V83H397V95H429V115H389V119H433V91H401V87Z" fill="#F7693A"/>
<path d="M269 171V199H301V203H269V207H305V195H273V175H313V171H269Z" fill="#F7693A"/>
<path d="M281 183H313V179H277V191H309V211H269V215H313V187H281V183Z" fill="#F7693A"/>
<path d="M269 219V247H301V251H269V255H305V243H273V223H313V219H269Z" fill="#F7693A"/>
<path d="M281 231H313V227H277V239H309V259H269V263H313V235H281V231Z" fill="#F7693A"/>
<path d="M389 171V199H421V203H389V207H425V195H393V175H433V171H389Z" fill="#F7693A"/>
<path d="M401 183H433V179H397V191H429V211H389V215H433V187H401V183Z" fill="#F7693A"/>
<path d="M389 219V247H421V251H389V255H425V243H393V223H433V219H389Z" fill="#F7693A"/>
<path d="M401 231H433V227H397V239H429V259H389V263H433V235H401V231Z" fill="#F7693A"/>
</svg>
