<svg width="501" height="234" viewBox="0 0 501 234" fill="none" xmlns="http://www.w3.org/2000/svg">
<path d="M140 29H136V73H140V29Z" fill="#F7693A"/>
<path d="M180 29H176V73H180V29Z" fill="#F7693A"/>
<path d="M172 29H168V73H172V29Z" fill="#F7693A"/>
<path d="M148 29H144V73H148V29Z" fill="#F7693A"/>
<path d="M164 29V49H152V29H156V45H160V29H164Z" fill="#F7693A"/>
<path d="M164 53V73H160V57H156V73H152V53H164Z" fill="#F7693A"/>
<path d="M324 29H320V73H324V29Z" fill="#F7693A"/>
<path d="M364 29H360V73H364V29Z" fill="#F7693A"/>
<path d="M356 29H352V73H356V29Z" fill="#F7693A"/>
<path d="M332 29H328V73H332V29Z" fill="#F7693A"/>
<path d="M348 29V49H336V29H340V45H344V29H348Z" fill="#F7693A"/>
<path d="M348 53V73H344V57H340V73H336V53H348Z" fill="#F7693A"/>
<path d="M420 29H416V73H420V29Z" fill="#F7693A"/>
<path d="M460 29H456V73H460V29Z" fill="#F7693A"/>
<path d="M452 29H448V73H452V29Z" fill="#F7693A"/>
<path d="M428 29H424V73H428V29Z" fill="#F7693A"/>
<path d="M444 29V49H432V29H436V45H440V29H444Z" fill="#F7693A"/>
<path d="M444 53V73H440V57H436V73H432V53H444Z" fill="#F7693A"/>
<path d="M468 29H464V73H468V29Z" fill="#F7693A"/>
<path d="M500 29H496V73H500V29Z" fill="#F7693A"/>
<path d="M476 29H472V73H476V29Z" fill="#F7693A"/>
<path d="M492 29V49H480V29H484V45H488V29H492Z" fill="#F7693A"/>
<path d="M492 53V73H488V57H484V73H480V53H492Z" fill="#F7693A"/>
<path d="M68 -15H64V29H68V-15Z" fill="#F7693A"/>
<path d="M108 -15H104V29H108V-15Z" fill="#F7693A"/>
<path d="M100 -15H96V29H100V-15Z" fill="#F7693A"/>
<path d="M76 -15H72V29H76V-15Z" fill="#F7693A"/>
<path d="M92 -15V5H80V-15H84V1H88V-15H92Z" fill="#F7693A"/>
<path d="M92 9V29H88V13H84V29H80V9H92Z" fill="#F7693A"/>
<path d="M252 -15H248V29H252V-15Z" fill="#F7693A"/>
<path d="M292 -15H288V29H292V-15Z" fill="#F7693A"/>
<path d="M284 -15H280V29H284V-15Z" fill="#F7693A"/>
<path d="M260 -15H256V29H260V-15Z" fill="#F7693A"/>
<path d="M276 -15V5H264V-15H268V1H272V-15H276Z" fill="#F7693A"/>
<path d="M276 9V29H272V13H268V29H264V9H276Z" fill="#F7693A"/>
<path d="M92 29H88V73H92V29Z" fill="#F7693A"/>
<path d="M132 29H128V73H132V29Z" fill="#F7693A"/>
<path d="M124 29H120V73H124V29Z" fill="#F7693A"/>
<path d="M100 29H96V73H100V29Z" fill="#F7693A"/>
<path d="M116 29V49H104V29H108V45H112V29H116Z" fill="#F7693A"/>
<path d="M116 53V73H112V57H108V73H104V53H116Z" fill="#F7693A"/>
<path d="M276 29H272V73H276V29Z" fill="#F7693A"/>
<path d="M316 29H312V73H316V29Z" fill="#F7693A"/>
<path d="M308 29H304V73H308V29Z" fill="#F7693A"/>
<path d="M284 29H280V73H284V29Z" fill="#F7693A"/>
<path d="M300 29V49H288V29H292V45H296V29H300Z" fill="#F7693A"/>
<path d="M300 53V73H296V57H292V73H288V53H300Z" fill="#F7693A"/>
<path d="M372 29H368V73H372V29Z" fill="#F7693A"/>
<path d="M412 29H408V73H412V29Z" fill="#F7693A"/>
<path d="M404 29H400V73H404V29Z" fill="#F7693A"/>
<path d="M380 29H376V73H380V29Z" fill="#F7693A"/>
<path d="M396 29V49H384V29H388V45H392V29H396Z" fill="#F7693A"/>
<path d="M396 53V73H392V57H388V73H384V53H396Z" fill="#F7693A"/>
<path d="M20 -15H16V29H20V-15Z" fill="#F7693A"/>
<path d="M60 -15H56V29H60V-15Z" fill="#F7693A"/>
<path d="M52 -15H48V29H52V-15Z" fill="#F7693A"/>
<path d="M28 -15H24V29H28V-15Z" fill="#F7693A"/>
<path d="M44 -15V5H32V-15H36V1H40V-15H44Z" fill="#F7693A"/>
<path d="M44 9V29H40V13H36V29H32V9H44Z" fill="#F7693A"/>
<path d="M20 -15H16V29H20V-15Z" fill="#F7693A"/>
<path d="M12 -15H8V29H12V-15Z" fill="#F7693A"/>
<path d="M4 -15V5H-8V-15H-4V1H0V-15H4Z" fill="#F7693A"/>
<path d="M4 9V29H0V13H-4V29H-8V9H4Z" fill="#F7693A"/>
<path d="M20 73H16V117H20V73Z" fill="#F7693A"/>
<path d="M12 73H8V117H12V73Z" fill="#F7693A"/>
<path d="M4 73V93H-8V73H-4V89H0V73H4Z" fill="#F7693A"/>
<path d="M4 97V117H0V101H-4V117H-8V97H4Z" fill="#F7693A"/>
<path d="M20 161H16V205H20V161Z" fill="#F7693A"/>
<path d="M12 161H8V205H12V161Z" fill="#F7693A"/>
<path d="M4 161V181H-8V161H-4V177H0V161H4Z" fill="#F7693A"/>
<path d="M4 185V205H0V189H-4V205H-8V185H4Z" fill="#F7693A"/>
<path d="M204 -15H200V29H204V-15Z" fill="#F7693A"/>
<path d="M244 -15H240V29H244V-15Z" fill="#F7693A"/>
<path d="M236 -15H232V29H236V-15Z" fill="#F7693A"/>
<path d="M212 -15H208V29H212V-15Z" fill="#F7693A"/>
<path d="M228 -15V5H216V-15H220V1H224V-15H228Z" fill="#F7693A"/>
<path d="M228 9V29H224V13H220V29H216V9H228Z" fill="#F7693A"/>
<path d="M36 29H32V73H36V29Z" fill="#F7693A"/>
<path d="M28 29H24V73H28V29Z" fill="#F7693A"/>
<path d="M4 29H0V73H4V29Z" fill="#F7693A"/>
<path d="M20 29V49H8V29H12V45H16V29H20Z" fill="#F7693A"/>
<path d="M20 53V73H16V57H12V73H8V53H20Z" fill="#F7693A"/>
<path d="M180 29H176V73H180V29Z" fill="#F7693A"/>
<path d="M220 29H216V73H220V29Z" fill="#F7693A"/>
<path d="M212 29H208V73H212V29Z" fill="#F7693A"/>
<path d="M188 29H184V73H188V29Z" fill="#F7693A"/>
<path d="M204 29V49H192V29H196V45H200V29H204Z" fill="#F7693A"/>
<path d="M204 53V73H200V57H196V73H192V53H204Z" fill="#F7693A"/>
<path d="M44 29H40V73H44V29Z" fill="#F7693A"/>
<path d="M84 29H80V73H84V29Z" fill="#F7693A"/>
<path d="M76 29H72V73H76V29Z" fill="#F7693A"/>
<path d="M52 29H48V73H52V29Z" fill="#F7693A"/>
<path d="M68 29V49H56V29H60V45H64V29H68Z" fill="#F7693A"/>
<path d="M68 53V73H64V57H60V73H56V53H68Z" fill="#F7693A"/>
<path d="M228 29H224V73H228V29Z" fill="#F7693A"/>
<path d="M268 29H264V73H268V29Z" fill="#F7693A"/>
<path d="M260 29H256V73H260V29Z" fill="#F7693A"/>
<path d="M236 29H232V73H236V29Z" fill="#F7693A"/>
<path d="M252 29V49H240V29H244V45H248V29H252Z" fill="#F7693A"/>
<path d="M252 53V73H248V57H244V73H240V53H252Z" fill="#F7693A"/>
<path d="M156 -15H152V29H156V-15Z" fill="#F7693A"/>
<path d="M196 -15H192V29H196V-15Z" fill="#F7693A"/>
<path d="M188 -15H184V29H188V-15Z" fill="#F7693A"/>
<path d="M164 -15H160V29H164V-15Z" fill="#F7693A"/>
<path d="M180 -15V5H168V-15H172V1H176V-15H180Z" fill="#F7693A"/>
<path d="M180 9V29H176V13H172V29H168V9H180Z" fill="#F7693A"/>
<path d="M436 -15H432V29H436V-15Z" fill="#F7693A"/>
<path d="M476 -15H472V29H476V-15Z" fill="#F7693A"/>
<path d="M468 -15H464V29H468V-15Z" fill="#F7693A"/>
<path d="M444 -15H440V29H444V-15Z" fill="#F7693A"/>
<path d="M460 -15V5H448V-15H452V1H456V-15H460Z" fill="#F7693A"/>
<path d="M460 9V29H456V13H452V29H448V9H460Z" fill="#F7693A"/>
<path d="M340 -15H336V29H340V-15Z" fill="#F7693A"/>
<path d="M380 -15H376V29H380V-15Z" fill="#F7693A"/>
<path d="M372 -15H368V29H372V-15Z" fill="#F7693A"/>
<path d="M348 -15H344V29H348V-15Z" fill="#F7693A"/>
<path d="M364 -15V5H352V-15H356V1H360V-15H364Z" fill="#F7693A"/>
<path d="M364 9V29H360V13H356V29H352V9H364Z" fill="#F7693A"/>
<path d="M484 -15H480V29H484V-15Z" fill="#F7693A"/>
<path d="M492 -15H488V29H492V-15Z" fill="#F7693A"/>
<path d="M508 -15V5H496V-15H500V1H504V-15H508Z" fill="#F7693A"/>
<path d="M508 9V29H504V13H500V29H496V9H508Z" fill="#F7693A"/>
<path d="M108 -15H104V29H108V-15Z" fill="#F7693A"/>
<path d="M148 -15H144V29H148V-15Z" fill="#F7693A"/>
<path d="M140 -15H136V29H140V-15Z" fill="#F7693A"/>
<path d="M116 -15H112V29H116V-15Z" fill="#F7693A"/>
<path d="M132 -15V5H120V-15H124V1H128V-15H132Z" fill="#F7693A"/>
<path d="M132 9V29H128V13H124V29H120V9H132Z" fill="#F7693A"/>
<path d="M292 -15H288V29H292V-15Z" fill="#F7693A"/>
<path d="M332 -15H328V29H332V-15Z" fill="#F7693A"/>
<path d="M324 -15H320V29H324V-15Z" fill="#F7693A"/>
<path d="M300 -15H296V29H300V-15Z" fill="#F7693A"/>
<path d="M316 -15V5H304V-15H308V1H312V-15H316Z" fill="#F7693A"/>
<path d="M316 9V29H312V13H308V29H304V9H316Z" fill="#F7693A"/>
<path d="M388 -15H384V29H388V-15Z" fill="#F7693A"/>
<path d="M428 -15H424V29H428V-15Z" fill="#F7693A"/>
<path d="M420 -15H416V29H420V-15Z" fill="#F7693A"/>
<path d="M396 -15H392V29H396V-15Z" fill="#F7693A"/>
<path d="M412 -15V5H400V-15H404V1H408V-15H412Z" fill="#F7693A"/>
<path d="M412 9V29H408V13H404V29H400V9H412Z" fill="#F7693A"/>
<path d="M420 117H416V161H420V117Z" fill="#F7693A"/>
<path d="M460 117H456V161H460V117Z" fill="#F7693A"/>
<path d="M452 117H448V161H452V117Z" fill="#F7693A"/>
<path d="M428 117H424V161H428V117Z" fill="#F7693A"/>
<path d="M444 117V137H432V117H436V133H440V117H444Z" fill="#F7693A"/>
<path d="M444 141V161H440V145H436V161H432V141H444Z" fill="#F7693A"/>
<path d="M140 117H136V161H140V117Z" fill="#F7693A"/>
<path d="M180 117H176V161H180V117Z" fill="#F7693A"/>
<path d="M172 117H168V161H172V117Z" fill="#F7693A"/>
<path d="M148 117H144V161H148V117Z" fill="#F7693A"/>
<path d="M164 117V137H152V117H156V133H160V117H164Z" fill="#F7693A"/>
<path d="M164 141V161H160V145H156V161H152V141H164Z" fill="#F7693A"/>
<path d="M324 117H320V161H324V117Z" fill="#F7693A"/>
<path d="M364 117H360V161H364V117Z" fill="#F7693A"/>
<path d="M356 117H352V161H356V117Z" fill="#F7693A"/>
<path d="M332 117H328V161H332V117Z" fill="#F7693A"/>
<path d="M348 117V137H336V117H340V133H344V117H348Z" fill="#F7693A"/>
<path d="M348 141V161H344V145H340V161H336V141H348Z" fill="#F7693A"/>
<path d="M468 117H464V161H468V117Z" fill="#F7693A"/>
<path d="M500 117H496V161H500V117Z" fill="#F7693A"/>
<path d="M476 117H472V161H476V117Z" fill="#F7693A"/>
<path d="M492 117V137H480V117H484V133H488V117H492Z" fill="#F7693A"/>
<path d="M492 141V161H488V145H484V161H480V141H492Z" fill="#F7693A"/>
<path d="M68 73H64V117H68V73Z" fill="#F7693A"/>
<path d="M108 73H104V117H108V73Z" fill="#F7693A"/>
<path d="M100 73H96V117H100V73Z" fill="#F7693A"/>
<path d="M76 73H72V117H76V73Z" fill="#F7693A"/>
<path d="M92 73V93H80V73H84V89H88V73H92Z" fill="#F7693A"/>
<path d="M92 97V117H88V101H84V117H80V97H92Z" fill="#F7693A"/>
<path d="M68 161H64V205H68V161Z" fill="#F7693A"/>
<path d="M108 161H104V205H108V161Z" fill="#F7693A"/>
<path d="M100 161H96V205H100V161Z" fill="#F7693A"/>
<path d="M76 161H72V205H76V161Z" fill="#F7693A"/>
<path d="M92 161V181H80V161H84V177H88V161H92Z" fill="#F7693A"/>
<path d="M92 185V205H88V189H84V205H80V185H92Z" fill="#F7693A"/>
<path d="M252 73H248V117H252V73Z" fill="#F7693A"/>
<path d="M292 73H288V117H292V73Z" fill="#F7693A"/>
<path d="M284 73H280V117H284V73Z" fill="#F7693A"/>
<path d="M260 73H256V117H260V73Z" fill="#F7693A"/>
<path d="M276 73V93H264V73H268V89H272V73H276Z" fill="#F7693A"/>
<path d="M276 97V117H272V101H268V117H264V97H276Z" fill="#F7693A"/>
<path d="M252 161H248V205H252V161Z" fill="#F7693A"/>
<path d="M292 161H288V205H292V161Z" fill="#F7693A"/>
<path d="M284 161H280V205H284V161Z" fill="#F7693A"/>
<path d="M260 161H256V205H260V161Z" fill="#F7693A"/>
<path d="M276 161V181H264V161H268V177H272V161H276Z" fill="#F7693A"/>
<path d="M276 185V205H272V189H268V205H264V185H276Z" fill="#F7693A"/>
<path d="M92 117H88V161H92V117Z" fill="#F7693A"/>
<path d="M132 117H128V161H132V117Z" fill="#F7693A"/>
<path d="M124 117H120V161H124V117Z" fill="#F7693A"/>
<path d="M100 117H96V161H100V117Z" fill="#F7693A"/>
<path d="M116 117V137H104V117H108V133H112V117H116Z" fill="#F7693A"/>
<path d="M116 141V161H112V145H108V161H104V141H116Z" fill="#F7693A"/>
<path d="M276 117H272V161H276V117Z" fill="#F7693A"/>
<path d="M316 117H312V161H316V117Z" fill="#F7693A"/>
<path d="M308 117H304V161H308V117Z" fill="#F7693A"/>
<path d="M284 117H280V161H284V117Z" fill="#F7693A"/>
<path d="M300 117V137H288V117H292V133H296V117H300Z" fill="#F7693A"/>
<path d="M300 141V161H296V145H292V161H288V141H300Z" fill="#F7693A"/>
<path d="M372 117H368V161H372V117Z" fill="#F7693A"/>
<path d="M412 117H408V161H412V117Z" fill="#F7693A"/>
<path d="M404 117H400V161H404V117Z" fill="#F7693A"/>
<path d="M380 117H376V161H380V117Z" fill="#F7693A"/>
<path d="M396 117V137H384V117H388V133H392V117H396Z" fill="#F7693A"/>
<path d="M396 141V161H392V145H388V161H384V141H396Z" fill="#F7693A"/>
<path d="M20 73H16V117H20V73Z" fill="#F7693A"/>
<path d="M60 73H56V117H60V73Z" fill="#F7693A"/>
<path d="M52 73H48V117H52V73Z" fill="#F7693A"/>
<path d="M28 73H24V117H28V73Z" fill="#F7693A"/>
<path d="M44 73V93H32V73H36V89H40V73H44Z" fill="#F7693A"/>
<path d="M44 97V117H40V101H36V117H32V97H44Z" fill="#F7693A"/>
<path d="M20 161H16V205H20V161Z" fill="#F7693A"/>
<path d="M60 161H56V205H60V161Z" fill="#F7693A"/>
<path d="M52 161H48V205H52V161Z" fill="#F7693A"/>
<path d="M28 161H24V205H28V161Z" fill="#F7693A"/>
<path d="M44 161V181H32V161H36V177H40V161H44Z" fill="#F7693A"/>
<path d="M44 185V205H40V189H36V205H32V185H44Z" fill="#F7693A"/>
<path d="M204 73H200V117H204V73Z" fill="#F7693A"/>
<path d="M244 73H240V117H244V73Z" fill="#F7693A"/>
<path d="M236 73H232V117H236V73Z" fill="#F7693A"/>
<path d="M212 73H208V117H212V73Z" fill="#F7693A"/>
<path d="M228 73V93H216V73H220V89H224V73H228Z" fill="#F7693A"/>
<path d="M228 97V117H224V101H220V117H216V97H228Z" fill="#F7693A"/>
<path d="M204 161H200V205H204V161Z" fill="#F7693A"/>
<path d="M244 161H240V205H244V161Z" fill="#F7693A"/>
<path d="M236 161H232V205H236V161Z" fill="#F7693A"/>
<path d="M212 161H208V205H212V161Z" fill="#F7693A"/>
<path d="M228 161V181H216V161H220V177H224V161H228Z" fill="#F7693A"/>
<path d="M228 185V205H224V189H220V205H216V185H228Z" fill="#F7693A"/>
<path d="M36 117H32V161H36V117Z" fill="#F7693A"/>
<path d="M28 117H24V161H28V117Z" fill="#F7693A"/>
<path d="M4 117H0V161H4V117Z" fill="#F7693A"/>
<path d="M20 117V137H8V117H12V133H16V117H20Z" fill="#F7693A"/>
<path d="M20 141V161H16V145H12V161H8V141H20Z" fill="#F7693A"/>
<path d="M180 117H176V161H180V117Z" fill="#F7693A"/>
<path d="M220 117H216V161H220V117Z" fill="#F7693A"/>
<path d="M212 117H208V161H212V117Z" fill="#F7693A"/>
<path d="M188 117H184V161H188V117Z" fill="#F7693A"/>
<path d="M204 117V137H192V117H196V133H200V117H204Z" fill="#F7693A"/>
<path d="M204 141V161H200V145H196V161H192V141H204Z" fill="#F7693A"/>
<path d="M44 117H40V161H44V117Z" fill="#F7693A"/>
<path d="M84 117H80V161H84V117Z" fill="#F7693A"/>
<path d="M76 117H72V161H76V117Z" fill="#F7693A"/>
<path d="M52 117H48V161H52V117Z" fill="#F7693A"/>
<path d="M68 117V137H56V117H60V133H64V117H68Z" fill="#F7693A"/>
<path d="M68 141V161H64V145H60V161H56V141H68Z" fill="#F7693A"/>
<path d="M228 117H224V161H228V117Z" fill="#F7693A"/>
<path d="M268 117H264V161H268V117Z" fill="#F7693A"/>
<path d="M260 117H256V161H260V117Z" fill="#F7693A"/>
<path d="M236 117H232V161H236V117Z" fill="#F7693A"/>
<path d="M252 117V137H240V117H244V133H248V117H252Z" fill="#F7693A"/>
<path d="M252 141V161H248V145H244V161H240V141H252Z" fill="#F7693A"/>
<path d="M436 73H432V117H436V73Z" fill="#F7693A"/>
<path d="M476 73H472V117H476V73Z" fill="#F7693A"/>
<path d="M468 73H464V117H468V73Z" fill="#F7693A"/>
<path d="M444 73H440V117H444V73Z" fill="#F7693A"/>
<path d="M460 73V93H448V73H452V89H456V73H460Z" fill="#F7693A"/>
<path d="M460 97V117H456V101H452V117H448V97H460Z" fill="#F7693A"/>
<path d="M156 73H152V117H156V73Z" fill="#F7693A"/>
<path d="M196 73H192V117H196V73Z" fill="#F7693A"/>
<path d="M188 73H184V117H188V73Z" fill="#F7693A"/>
<path d="M164 73H160V117H164V73Z" fill="#F7693A"/>
<path d="M180 73V93H168V73H172V89H176V73H180Z" fill="#F7693A"/>
<path d="M180 97V117H176V101H172V117H168V97H180Z" fill="#F7693A"/>
<path d="M436 161H432V205H436V161Z" fill="#F7693A"/>
<path d="M476 161H472V205H476V161Z" fill="#F7693A"/>
<path d="M468 161H464V205H468V161Z" fill="#F7693A"/>
<path d="M444 161H440V205H444V161Z" fill="#F7693A"/>
<path d="M460 161V181H448V161H452V177H456V161H460Z" fill="#F7693A"/>
<path d="M460 185V205H456V189H452V205H448V185H460Z" fill="#F7693A"/>
<path d="M156 161H152V205H156V161Z" fill="#F7693A"/>
<path d="M196 161H192V205H196V161Z" fill="#F7693A"/>
<path d="M188 161H184V205H188V161Z" fill="#F7693A"/>
<path d="M164 161H160V205H164V161Z" fill="#F7693A"/>
<path d="M180 161V181H168V161H172V177H176V161H180Z" fill="#F7693A"/>
<path d="M180 185V205H176V189H172V205H168V185H180Z" fill="#F7693A"/>
<path d="M340 73H336V117H340V73Z" fill="#F7693A"/>
<path d="M380 73H376V117H380V73Z" fill="#F7693A"/>
<path d="M372 73H368V117H372V73Z" fill="#F7693A"/>
<path d="M348 73H344V117H348V73Z" fill="#F7693A"/>
<path d="M364 73V93H352V73H356V89H360V73H364Z" fill="#F7693A"/>
<path d="M364 97V117H360V101H356V117H352V97H364Z" fill="#F7693A"/>
<path d="M484 73H480V117H484V73Z" fill="#F7693A"/>
<path d="M492 73H488V117H492V73Z" fill="#F7693A"/>
<path d="M508 73V93H496V73H500V89H504V73H508Z" fill="#F7693A"/>
<path d="M508 97V117H504V101H500V117H496V97H508Z" fill="#F7693A"/>
<path d="M340 161H336V205H340V161Z" fill="#F7693A"/>
<path d="M380 161H376V205H380V161Z" fill="#F7693A"/>
<path d="M372 161H368V205H372V161Z" fill="#F7693A"/>
<path d="M348 161H344V205H348V161Z" fill="#F7693A"/>
<path d="M364 161V181H352V161H356V177H360V161H364Z" fill="#F7693A"/>
<path d="M364 185V205H360V189H356V205H352V185H364Z" fill="#F7693A"/>
<path d="M484 161H480V205H484V161Z" fill="#F7693A"/>
<path d="M492 161H488V205H492V161Z" fill="#F7693A"/>
<path d="M508 161V181H496V161H500V177H504V161H508Z" fill="#F7693A"/>
<path d="M508 185V205H504V189H500V205H496V185H508Z" fill="#F7693A"/>
<path d="M108 73H104V117H108V73Z" fill="#F7693A"/>
<path d="M148 73H144V117H148V73Z" fill="#F7693A"/>
<path d="M140 73H136V117H140V73Z" fill="#F7693A"/>
<path d="M116 73H112V117H116V73Z" fill="#F7693A"/>
<path d="M132 73V93H120V73H124V89H128V73H132Z" fill="#F7693A"/>
<path d="M132 97V117H128V101H124V117H120V97H132Z" fill="#F7693A"/>
<path d="M108 161H104V205H108V161Z" fill="#F7693A"/>
<path d="M148 161H144V205H148V161Z" fill="#F7693A"/>
<path d="M140 161H136V205H140V161Z" fill="#F7693A"/>
<path d="M116 161H112V205H116V161Z" fill="#F7693A"/>
<path d="M132 161V181H120V161H124V177H128V161H132Z" fill="#F7693A"/>
<path d="M132 185V205H128V189H124V205H120V185H132Z" fill="#F7693A"/>
<path d="M292 73H288V117H292V73Z" fill="#F7693A"/>
<path d="M332 73H328V117H332V73Z" fill="#F7693A"/>
<path d="M324 73H320V117H324V73Z" fill="#F7693A"/>
<path d="M300 73H296V117H300V73Z" fill="#F7693A"/>
<path d="M316 73V93H304V73H308V89H312V73H316Z" fill="#F7693A"/>
<path d="M316 97V117H312V101H308V117H304V97H316Z" fill="#F7693A"/>
<path d="M388 73H384V117H388V73Z" fill="#F7693A"/>
<path d="M428 73H424V117H428V73Z" fill="#F7693A"/>
<path d="M420 73H416V117H420V73Z" fill="#F7693A"/>
<path d="M396 73H392V117H396V73Z" fill="#F7693A"/>
<path d="M412 73V93H400V73H404V89H408V73H412Z" fill="#F7693A"/>
<path d="M412 97V117H408V101H404V117H400V97H412Z" fill="#F7693A"/>
<path d="M292 161H288V205H292V161Z" fill="#F7693A"/>
<path d="M332 161H328V205H332V161Z" fill="#F7693A"/>
<path d="M324 161H320V205H324V161Z" fill="#F7693A"/>
<path d="M300 161H296V205H300V161Z" fill="#F7693A"/>
<path d="M316 161V181H304V161H308V177H312V161H316Z" fill="#F7693A"/>
<path d="M316 185V205H312V189H308V205H304V185H316Z" fill="#F7693A"/>
<path d="M388 161H384V205H388V161Z" fill="#F7693A"/>
<path d="M428 161H424V205H428V161Z" fill="#F7693A"/>
<path d="M420 161H416V205H420V161Z" fill="#F7693A"/>
<path d="M396 161H392V205H396V161Z" fill="#F7693A"/>
<path d="M412 161V181H400V161H404V177H408V161H412Z" fill="#F7693A"/>
<path d="M412 185V205H408V189H404V205H400V185H412Z" fill="#F7693A"/>
<path d="M140 205H136V249H140V205Z" fill="#F7693A"/>
<path d="M180 205H176V249H180V205Z" fill="#F7693A"/>
<path d="M172 205H168V249H172V205Z" fill="#F7693A"/>
<path d="M148 205H144V249H148V205Z" fill="#F7693A"/>
<path d="M164 205V225H152V205H156V221H160V205H164Z" fill="#F7693A"/>
<path d="M164 229V249H160V233H156V249H152V229H164Z" fill="#F7693A"/>
<path d="M324 205H320V249H324V205Z" fill="#F7693A"/>
<path d="M364 205H360V249H364V205Z" fill="#F7693A"/>
<path d="M356 205H352V249H356V205Z" fill="#F7693A"/>
<path d="M332 205H328V249H332V205Z" fill="#F7693A"/>
<path d="M348 205V225H336V205H340V221H344V205H348Z" fill="#F7693A"/>
<path d="M348 229V249H344V233H340V249H336V229H348Z" fill="#F7693A"/>
<path d="M420 205H416V249H420V205Z" fill="#F7693A"/>
<path d="M460 205H456V249H460V205Z" fill="#F7693A"/>
<path d="M452 205H448V249H452V205Z" fill="#F7693A"/>
<path d="M428 205H424V249H428V205Z" fill="#F7693A"/>
<path d="M444 205V225H432V205H436V221H440V205H444Z" fill="#F7693A"/>
<path d="M444 229V249H440V233H436V249H432V229H444Z" fill="#F7693A"/>
<path d="M468 205H464V249H468V205Z" fill="#F7693A"/>
<path d="M500 205H496V249H500V205Z" fill="#F7693A"/>
<path d="M476 205H472V249H476V205Z" fill="#F7693A"/>
<path d="M492 205V225H480V205H484V221H488V205H492Z" fill="#F7693A"/>
<path d="M492 229V249H488V233H484V249H480V229H492Z" fill="#F7693A"/>
<path d="M92 205H88V249H92V205Z" fill="#F7693A"/>
<path d="M132 205H128V249H132V205Z" fill="#F7693A"/>
<path d="M124 205H120V249H124V205Z" fill="#F7693A"/>
<path d="M100 205H96V249H100V205Z" fill="#F7693A"/>
<path d="M116 205V225H104V205H108V221H112V205H116Z" fill="#F7693A"/>
<path d="M116 229V249H112V233H108V249H104V229H116Z" fill="#F7693A"/>
<path d="M276 205H272V249H276V205Z" fill="#F7693A"/>
<path d="M316 205H312V249H316V205Z" fill="#F7693A"/>
<path d="M308 205H304V249H308V205Z" fill="#F7693A"/>
<path d="M284 205H280V249H284V205Z" fill="#F7693A"/>
<path d="M300 205V225H288V205H292V221H296V205H300Z" fill="#F7693A"/>
<path d="M300 229V249H296V233H292V249H288V229H300Z" fill="#F7693A"/>
<path d="M372 205H368V249H372V205Z" fill="#F7693A"/>
<path d="M412 205H408V249H412V205Z" fill="#F7693A"/>
<path d="M404 205H400V249H404V205Z" fill="#F7693A"/>
<path d="M380 205H376V249H380V205Z" fill="#F7693A"/>
<path d="M396 205V225H384V205H388V221H392V205H396Z" fill="#F7693A"/>
<path d="M396 229V249H392V233H388V249H384V229H396Z" fill="#F7693A"/>
<path d="M36 205H32V249H36V205Z" fill="#F7693A"/>
<path d="M28 205H24V249H28V205Z" fill="#F7693A"/>
<path d="M4 205H0V249H4V205Z" fill="#F7693A"/>
<path d="M20 205V225H8V205H12V221H16V205H20Z" fill="#F7693A"/>
<path d="M20 229V249H16V233H12V249H8V229H20Z" fill="#F7693A"/>
<path d="M188 205H184V249H188V205Z" fill="#F7693A"/>
<path d="M228 205H224V249H228V205Z" fill="#F7693A"/>
<path d="M220 205H216V249H220V205Z" fill="#F7693A"/>
<path d="M196 205H192V249H196V205Z" fill="#F7693A"/>
<path d="M212 205V225H200V205H204V221H208V205H212Z" fill="#F7693A"/>
<path d="M212 229V249H208V233H204V249H200V229H212Z" fill="#F7693A"/>
<path d="M44 205H40V249H44V205Z" fill="#F7693A"/>
<path d="M84 205H80V249H84V205Z" fill="#F7693A"/>
<path d="M76 205H72V249H76V205Z" fill="#F7693A"/>
<path d="M52 205H48V249H52V205Z" fill="#F7693A"/>
<path d="M68 205V225H56V205H60V221H64V205H68Z" fill="#F7693A"/>
<path d="M68 229V249H64V233H60V249H56V229H68Z" fill="#F7693A"/>
<path d="M228 205H224V249H228V205Z" fill="#F7693A"/>
<path d="M268 205H264V249H268V205Z" fill="#F7693A"/>
<path d="M260 205H256V249H260V205Z" fill="#F7693A"/>
<path d="M236 205H232V249H236V205Z" fill="#F7693A"/>
<path d="M252 205V225H240V205H244V221H248V205H252Z" fill="#F7693A"/>
<path d="M252 229V249H248V233H244V249H240V229H252Z" fill="#F7693A"/>
</svg>
