<?xml version="1.0" encoding="utf-8"?>
<!-- Generator: Adobe Illustrator 26.0.1, SVG Export Plug-In . SVG Version: 6.00 Build 0)  -->
<svg version="1.1" id="Слой_1" xmlns="http://www.w3.org/2000/svg" xmlns:xlink="http://www.w3.org/1999/xlink" x="0px" y="0px"
	 viewBox="0 0 350 512" style="enable-background:new 0 0 350 512;" xml:space="preserve">
<style type="text/css">
	.st0{clip-path:url(#SVGID_00000045588612324489146840000003083017633001929906_);fill:#59AAF3;}
	.st1{clip-path:url(#SVGID_00000045588612324489146840000003083017633001929906_);}
	.st2{clip-path:url(#SVGID_00000147907141643453480350000017054243572472841135_);}
	.st3{fill:#59AAF3;}
	.st4{clip-path:url(#SVGID_00000142876367645003731110000013536716565659733391_);}
	.st5{fill-rule:evenodd;clip-rule:evenodd;fill:#202124;}
	.st6{clip-path:url(#SVGID_00000147930353247304205840000011373908381989074080_);}
	.st7{fill:#FFDA48;}
	.st8{fill:#FF6C3C;}
	
		.st9{clip-path:url(#SVGID_00000147930353247304205840000011373908381989074080_);fill:none;stroke:#FFDA48;stroke-width:21;stroke-miterlimit:10;}
	.st10{clip-path:url(#SVGID_00000045588612324489146840000003083017633001929906_);fill:#F4ECE0;}
</style>
<g>
	<defs>
		<rect id="SVGID_1_" x="-11.7" y="-26.9" width="369" height="555.8"/>
	</defs>
	<clipPath id="SVGID_00000183963603339010602810000007468125053331826320_">
		<use xlink:href="#SVGID_1_"  style="overflow:visible;"/>
	</clipPath>
	
		<rect x="-40.5" y="-118.9" style="clip-path:url(#SVGID_00000183963603339010602810000007468125053331826320_);fill:#59AAF3;" width="648" height="648"/>
	<g style="clip-path:url(#SVGID_00000183963603339010602810000007468125053331826320_);">
		<defs>
			<rect id="SVGID_00000056408601307613891110000016515166094999912869_" x="-30" y="-43.9" width="410" height="599.8"/>
		</defs>
		<clipPath id="SVGID_00000173877672702777612460000004471614322368785552_">
			<use xlink:href="#SVGID_00000056408601307613891110000016515166094999912869_"  style="overflow:visible;"/>
		</clipPath>
		<g style="clip-path:url(#SVGID_00000173877672702777612460000004471614322368785552_);">
			<rect x="-30" y="-43.9" class="st3" width="410" height="599.8"/>
			<g>
				<defs>
					
						<rect id="SVGID_00000004520621115079910540000007348761979741227184_" x="-986.9" y="-249" transform="matrix(0.866 -0.5 0.5 0.866 -103.9892 121.646)" width="2323.8" height="1007.8"/>
				</defs>
				<clipPath id="SVGID_00000026126032184724030560000005033788063393099938_">
					<use xlink:href="#SVGID_00000004520621115079910540000007348761979741227184_"  style="overflow:visible;"/>
				</clipPath>
				<g style="clip-path:url(#SVGID_00000026126032184724030560000005033788063393099938_);">
					<path class="st5" d="M-38.5,459.9l-21.6,12.5l-37.5-64.9l7.2-4.2l33.3,57.7l7.2-4.2l-33.3-57.7l7.2-4.2L-38.5,459.9z M-89,489
						l21.6-12.5l-37.5-64.9l-7.2,4.2l33.3,57.7l-7.2,4.2l-33.3-57.7l-7.2,4.2L-89,489z M-15.7,466l-45.8-79.3l-7.2,4.2l41.6,72.1
						L-92,500.4l-41.6-72.1l-7.2,4.2l45.8,79.3L-15.7,466z"/>
					<path class="st5" d="M255.9,203.4l20.8,36.1L255,251.9l-20.8-36.1l7.2-4.2l16.7,28.9l7.2-4.2l-16.7-28.9L255.9,203.4z
						 M270.3,195l-7.2,4.2l45.8,79.3l7.2-4.2L270.3,195z M205.4,232.5l7.2-4.2l45.8,79.3l-7.2,4.2L205.4,232.5z M277.5,190.9
						l7.2-4.2l45.8,79.3l-7.2,4.2L277.5,190.9z M219.8,224.2l7.2-4.2l45.8,79.3l-7.2,4.2L219.8,224.2z M301.7,282.7l-20.8-36.1
						l-21.6,12.5l20.8,36.1l7.2-4.2l-16.7-28.9l7.2-4.2l16.7,28.9L301.7,282.7z"/>
					<path class="st5" d="M368.2,148.1l37.5,64.9l-64.9,37.5l-37.5-64.9L368.2,148.1z M371.3,136.7l-79.3,45.8l45.8,79.3l79.3-45.8
						L371.3,136.7z M362.1,170.9l20.8,36.1l-36.1,20.8l-20.8-36.1L362.1,170.9z M365.2,159.5l-50.5,29.2l29.2,50.5l50.5-29.2
						L365.2,159.5z M360.2,200.8l-4.2-7.2l-7.2,4.2l4.2,7.2L360.2,200.8z M337.4,194.7l21.6-12.5l12.5,21.6l-21.6,12.5L337.4,194.7z
						"/>
					<path class="st5" d="M430.4,189.2l21.6-12.5l-37.5-64.9l-7.2,4.2l33.3,57.7l-7.2,4.2l-33.3-57.7l-7.2,4.2L430.4,189.2z
						 M503.6,166.1l-45.8-79.3l-7.2,4.2l41.6,72.1l-64.9,37.5l-41.6-72.1l-7.2,4.2l45.8,79.3L503.6,166.1z M480.9,160l-21.6,12.5
						l-37.5-64.9l7.2-4.2l33.3,57.7l7.2-4.2l-33.3-57.7l7.2-4.2L480.9,160z"/>
					<path class="st5" d="M17.8,340.8l7.2-4.2L70.9,416l-7.2,4.2L17.8,340.8z M-54.3,382.4l7.2-4.2l45.8,79.3l-7.2,4.2L-54.3,382.4z
						 M10.6,345l-7.2,4.2l45.8,79.3l7.2-4.2L10.6,345z M-39.9,374.1l7.2-4.2l45.8,79.3l-7.2,4.2L-39.9,374.1z M-3.8,353.3L17,389.4
						l-21.6,12.5l-20.8-36.1l7.2-4.2l16.7,28.9l7.2-4.2L-11,357.5L-3.8,353.3z M42,432.6l-20.8-36.1l-21.6,12.5l20.8,36.1l7.2-4.2
						l-16.7-28.9l7.2-4.2l16.7,28.9L42,432.6z"/>
					<path class="st5" d="M108.6,298L146,363l-64.9,37.5l-37.5-64.9L108.6,298z M111.6,286.7l-79.3,45.8l45.8,79.3l79.3-45.8
						L111.6,286.7z M102.5,320.8l20.8,36.1l-36.1,20.8l-20.8-36.1L102.5,320.8z M105.5,309.4L55,338.6l29.2,50.5l50.5-29.2
						L105.5,309.4z M100.5,350.8l-4.2-7.2l-7.2,4.2l4.2,7.2L100.5,350.8z M77.8,344.7l21.6-12.5l12.5,21.6l-21.6,12.5L77.8,344.7z"
						/>
					<path class="st5" d="M221.2,309.9l-21.6,12.5l-37.5-64.9l7.2-4.2l33.3,57.7l7.2-4.2l-33.3-57.7l7.2-4.2L221.2,309.9z
						 M170.7,339.1l21.6-12.5l-37.5-64.9l-7.2,4.2l33.3,57.7l-7.2,4.2L140.5,270l-7.2,4.2L170.7,339.1z M244,316l-45.8-79.3
						l-7.2,4.2l41.6,72.1l-64.9,37.5L126,278.3l-7.2,4.2l45.8,79.3L244,316z"/>
					<path class="st5" d="M380.8,419.8l20.8,36.1L380,468.3l-20.8-36.1l7.2-4.2l16.7,28.9l7.2-4.2l-16.7-28.9L380.8,419.8z
						 M330.3,448.9l7.2-4.2l45.8,79.3l-7.2,4.2L330.3,448.9z M402.4,407.3l7.2-4.2l45.8,79.3l-7.2,4.2L402.4,407.3z M395.2,411.4
						l-7.2,4.2l45.8,79.3l7.2-4.2L395.2,411.4z M344.7,440.6l7.2-4.2l45.8,79.3l-7.2,4.2L344.7,440.6z M426.6,499.1L405.8,463
						l-21.6,12.5l20.8,36.1l7.2-4.2l-16.7-28.9l7.2-4.2l16.7,28.9L426.6,499.1z"/>
					<path class="st5" d="M142.8,557.2l7.2-4.2l45.8,79.3l-7.2,4.2L142.8,557.2z M70.6,598.8l7.2-4.2l45.8,79.3l-7.2,4.2L70.6,598.8
						z M135.6,561.4l-7.2,4.2l45.8,79.3l7.2-4.2L135.6,561.4z M85.1,590.5l7.2-4.2l45.8,79.3l-7.2,4.2L85.1,590.5z M121.1,569.7
						l20.8,36.1l-21.6,12.5l-20.8-36.1l7.2-4.2l16.7,28.9l7.2-4.2l-16.7-28.9L121.1,569.7z M166.9,649L146.1,613l-21.6,12.5
						l20.8,36.1l7.2-4.2l-16.7-28.9l7.2-4.2l16.7,28.9L166.9,649z"/>
					<path class="st5" d="M233.5,514.4l37.5,64.9l-64.9,37.5l-37.5-64.9L233.5,514.4z M236.5,503.1l-79.3,45.8l45.8,79.3l79.3-45.8
						L236.5,503.1z M227.4,537.2l20.8,36.1l-36.1,20.8L191.3,558L227.4,537.2z M230.4,525.8L180,555l29.2,50.5l50.5-29.2
						L230.4,525.8z M225.5,567.2l-4.2-7.2l-7.2,4.2l4.2,7.2L225.5,567.2z M202.7,561.1l21.6-12.5l12.5,21.6l-21.6,12.5L202.7,561.1z
						"/>
					<path class="st5" d="M295.7,555.5l21.6-12.5l-37.5-64.9l-7.2,4.2l33.3,57.7l-7.2,4.2l-33.3-57.7l-7.2,4.2L295.7,555.5z
						 M368.9,532.4l-45.8-79.3l-7.2,4.2l41.6,72.1l-64.9,37.5L251,494.7l-7.2,4.2l45.8,79.3L368.9,532.4z M346.2,526.3l-21.6,12.5
						L287,473.9l7.2-4.2l33.3,57.7l7.2-4.2l-33.3-57.7l7.2-4.2L346.2,526.3z"/>
					<path class="st5" d="M130.9-13L151.8,23l-21.6,12.5L109.3-0.5l7.2-4.2l16.7,28.9l7.2-4.2L123.7-8.9L130.9-13z M80.4,16.1
						l7.2-4.2l45.8,79.3l-7.2,4.2L80.4,16.1z M152.6-25.5l7.2-4.2l45.8,79.3l-7.2,4.2L152.6-25.5z M145.4-21.4l-7.2,4.2L184,62.2
						l7.2-4.2L145.4-21.4z M94.9,7.8l7.2-4.2L147.9,83l-7.2,4.2L94.9,7.8z M176.7,66.3l-20.8-36.1l-21.6,12.5l20.8,36.1l7.2-4.2
						l-16.7-28.9l7.2-4.2l16.7,28.9L176.7,66.3z"/>
					<path class="st5" d="M243.3-68.3l37.5,64.9l-64.9,37.5l-37.5-64.9L243.3-68.3z M246.3-79.7L167-33.8l45.8,79.3l79.3-45.8
						L246.3-79.7z M237.2-45.5L258-9.5L222,11.4l-20.8-36.1L237.2-45.5z M240.2-56.9l-50.5,29.2l29.2,50.5l50.5-29.2L240.2-56.9z
						 M235.3-15.6l-4.2-7.2l-7.2,4.2l4.2,7.2L235.3-15.6z M212.5-21.7l21.6-12.5l12.5,21.6L225,0L212.5-21.7z"/>
					<path class="st5" d="M305.5-27.2l21.6-12.5l-37.5-64.9l-7.2,4.2l33.3,57.7l-7.2,4.2l-33.3-57.7l-7.2,4.2L305.5-27.2z
						 M378.7-50.3l-45.8-79.3l-7.2,4.2l41.6,72.1l-64.9,37.5L260.8-88l-7.2,4.2l45.8,79.3L378.7-50.3z M356-56.4l-21.6,12.5
						l-37.5-64.9l7.2-4.2l33.3,57.7l7.2-4.2l-33.3-57.7l7.2-4.2L356-56.4z"/>
					<path class="st5" d="M-16.4,81.6l37.5,64.9L-43.8,184l-37.5-64.9L-16.4,81.6z M-13.3,70.3l-79.3,45.8l45.8,79.3l79.3-45.8
						L-13.3,70.3z M-22.5,104.4l20.8,36.1l-36.1,20.8l-20.8-36.1L-22.5,104.4z M-19.4,93l-50.5,29.2l29.2,50.5l50.5-29.2L-19.4,93z
						 M-24.4,134.4l-4.2-7.2l-7.2,4.2l4.2,7.2L-24.4,134.4z M-47.2,128.3l21.6-12.5l12.5,21.6l-21.6,12.5L-47.2,128.3z"/>
					<path class="st5" d="M45.8,122.7l21.6-12.5L29.9,45.3l-7.2,4.2l33.3,57.7l-7.2,4.2L15.5,53.6l-7.2,4.2L45.8,122.7z M119,99.6
						L73.2,20.3L66,24.5l41.6,72.1l-64.9,37.5L1.1,61.9l-7.2,4.2l45.8,79.3L119,99.6z M96.3,93.5L74.6,106L37.2,41.1l7.2-4.2
						l33.3,57.7l7.2-4.2L51.6,32.8l7.2-4.2L96.3,93.5z"/>
					<path class="st5" d="M130.9-13L151.8,23l-21.6,12.5L109.3-0.5l7.2-4.2l16.7,28.9l7.2-4.2L123.7-8.9L130.9-13z M80.4,16.1
						l7.2-4.2l45.8,79.3l-7.2,4.2L80.4,16.1z M152.6-25.5l7.2-4.2l45.8,79.3l-7.2,4.2L152.6-25.5z M145.4-21.4l-7.2,4.2L184,62.2
						l7.2-4.2L145.4-21.4z M94.9,7.8l7.2-4.2L147.9,83l-7.2,4.2L94.9,7.8z M176.7,66.3l-20.8-36.1l-21.6,12.5l20.8,36.1l7.2-4.2
						l-16.7-28.9l7.2-4.2l16.7,28.9L176.7,66.3z"/>
					<path class="st5" d="M243.3-68.3l37.5,64.9l-64.9,37.5l-37.5-64.9L243.3-68.3z M246.3-79.7L167-33.8l45.8,79.3l79.3-45.8
						L246.3-79.7z M237.2-45.5L258-9.5L222,11.4l-20.8-36.1L237.2-45.5z M240.2-56.9l-50.5,29.2l29.2,50.5l50.5-29.2L240.2-56.9z
						 M235.3-15.6l-4.2-7.2l-7.2,4.2l4.2,7.2L235.3-15.6z M212.5-21.7l21.6-12.5l12.5,21.6L225,0L212.5-21.7z"/>
					<path class="st5" d="M305.5-27.2l21.6-12.5l-37.5-64.9l-7.2,4.2l33.3,57.7l-7.2,4.2l-33.3-57.7l-7.2,4.2L305.5-27.2z
						 M378.7-50.3l-45.8-79.3l-7.2,4.2l41.6,72.1l-64.9,37.5L260.8-88l-7.2,4.2l45.8,79.3L378.7-50.3z M356-56.4l-21.6,12.5
						l-37.5-64.9l7.2-4.2l33.3,57.7l7.2-4.2l-33.3-57.7l7.2-4.2L356-56.4z"/>
					<path class="st5" d="M-16.4,81.6l37.5,64.9L-43.8,184l-37.5-64.9L-16.4,81.6z M-13.3,70.3l-79.3,45.8l45.8,79.3l79.3-45.8
						L-13.3,70.3z M-22.5,104.4l20.8,36.1l-36.1,20.8l-20.8-36.1L-22.5,104.4z M-19.4,93l-50.5,29.2l29.2,50.5l50.5-29.2L-19.4,93z
						 M-24.4,134.4l-4.2-7.2l-7.2,4.2l4.2,7.2L-24.4,134.4z M-47.2,128.3l21.6-12.5l12.5,21.6l-21.6,12.5L-47.2,128.3z"/>
					<path class="st5" d="M45.8,122.7l21.6-12.5L29.9,45.3l-7.2,4.2l33.3,57.7l-7.2,4.2L15.5,53.6l-7.2,4.2L45.8,122.7z M119,99.6
						L73.2,20.3L66,24.5l41.6,72.1l-64.9,37.5L1.1,61.9l-7.2,4.2l45.8,79.3L119,99.6z M96.3,93.5L74.6,106L37.2,41.1l7.2-4.2
						l33.3,57.7l7.2-4.2L51.6,32.8l7.2-4.2L96.3,93.5z"/>
					<path class="st5" d="M11.6-136.5l7.2-4.2l45.8,79.3l-7.2,4.2L11.6-136.5z M-60.6-94.8l7.2-4.2l45.8,79.3l-7.2,4.2L-60.6-94.8z
						 M4.4-132.3l-7.2,4.2L43-48.8l7.2-4.2L4.4-132.3z M-46.1-103.2l7.2-4.2L6.9-28l-7.2,4.2L-46.1-103.2z M-10.1-124l20.8,36.1
						l-21.6,12.5l-20.8-36.1l7.2-4.2l16.7,28.9l7.2-4.2l-16.7-28.9L-10.1-124z M35.7-44.6L14.9-80.7L-6.7-68.2l20.8,36.1l7.2-4.2
						L4.7-65.2l7.2-4.2l16.7,28.9L35.7-44.6z"/>
					<path class="st5" d="M-95.2,11.7l21.6-12.5L-111-65.7l-7.2,4.2l33.3,57.7l-7.2,4.2l-33.3-57.7l-7.2,4.2L-95.2,11.7z M-22-11.3
						l-45.8-79.3l-7.2,4.2l41.6,72.1l-64.9,37.5L-139.9-49l-7.2,4.2l45.8,79.3L-22-11.3z M-44.7-17.4L-66.4-4.9l-37.5-64.9l7.2-4.2
						l33.3,57.7l7.2-4.2l-33.3-57.7l7.2-4.2L-44.7-17.4z"/>
					<path class="st5" d="M261.4,296.3l7.2-4.2l45.8,79.3l-7.2,4.2L261.4,296.3z M189.3,338l7.2-4.2l45.8,79.3l-7.2,4.2L189.3,338z
						 M254.2,300.5l-7.2,4.2l45.8,79.3l7.2-4.2L254.2,300.5z M203.7,329.6l7.2-4.2l45.8,79.3l-7.2,4.2L203.7,329.6z M239.8,308.8
						l20.8,36.1L239,357.4l-20.8-36.1l7.2-4.2L242,346l7.2-4.2L232.6,313L239.8,308.8z M285.6,388.2l-20.8-36.1l-21.6,12.5
						l20.8,36.1l7.2-4.2l-16.7-28.9l7.2-4.2l16.7,28.9L285.6,388.2z"/>
					<path class="st5" d="M352.2,253.6l37.5,64.9L324.7,356L287.3,291L352.2,253.6z M355.2,242.2L275.9,288l45.8,79.3l79.3-45.8
						L355.2,242.2z M346.1,276.3l20.8,36.1l-36.1,20.8L310,297.1L346.1,276.3z M349.1,264.9l-50.5,29.2l29.2,50.5l50.5-29.2
						L349.1,264.9z M344.1,306.3l-4.2-7.2l-7.2,4.2l4.2,7.2L344.1,306.3z M321.4,300.2l21.6-12.5l12.5,21.6l-21.6,12.5L321.4,300.2z
						"/>
					<path class="st5" d="M487.6,271.6l-45.8-79.3l-7.2,4.2l41.6,72.1L411.3,306l-41.6-72.1l-7.2,4.2l45.8,79.3L487.6,271.6z
						 M414.3,294.6l21.6-12.5l-37.5-64.9l-7.2,4.2l33.3,57.7l-7.2,4.2l-33.3-57.7l-7.2,4.2L414.3,294.6z M464.8,265.5L443.2,278
						L405.7,213l7.2-4.2l33.3,57.7l7.2-4.2l-33.3-57.7l7.2-4.2L464.8,265.5z"/>
					<path class="st5" d="M-19.9,458.7L1,494.8l-21.6,12.5l-20.8-36.1l7.2-4.2l16.7,28.9l7.2-4.2l-16.7-28.9L-19.9,458.7z
						 M-70.4,487.9l7.2-4.2l45.8,79.3l-7.2,4.2L-70.4,487.9z M1.8,446.2l7.2-4.2l45.8,79.3l-7.2,4.2L1.8,446.2z M-5.4,450.4
						l-7.2,4.2l45.8,79.3l7.2-4.2L-5.4,450.4z M-55.9,479.6l7.2-4.2l45.8,79.3l-7.2,4.2L-55.9,479.6z M25.9,538.1L5.1,502
						l-21.6,12.5l20.8,36.1l7.2-4.2l-16.7-28.9l7.2-4.2l16.7,28.9L25.9,538.1z"/>
					<path class="st5" d="M92.5,403.5l37.5,64.9l-64.9,37.5L27.6,441L92.5,403.5z M95.5,392.1l-79.3,45.8L62,517.3l79.3-45.8
						L95.5,392.1z M86.4,426.2l20.8,36.1l-36.1,20.8l-20.8-36.1L86.4,426.2z M89.5,414.9L39,444l29.2,50.5l50.5-29.2L89.5,414.9z
						 M84.5,456.2l-4.2-7.2l-7.2,4.2l4.2,7.2L84.5,456.2z M61.7,450.1l21.6-12.5l12.5,21.6l-21.6,12.5L61.7,450.1z"/>
					<path class="st5" d="M154.7,444.5l21.6-12.5l-37.5-64.9l-7.2,4.2l33.3,57.7l-7.2,4.2l-33.3-57.7l-7.2,4.2L154.7,444.5z
						 M227.9,421.5l-45.8-79.3l-7.2,4.2l41.6,72.1l-64.9,37.5L110,383.8l-7.2,4.2l45.8,79.3L227.9,421.5z M205.2,415.4l-21.6,12.5
						L146,363l7.2-4.2l33.3,57.7l7.2-4.2l-33.3-57.7l7.2-4.2L205.2,415.4z"/>
					<path class="st5" d="M386.4,512.7l7.2-4.2l45.8,79.3l-7.2,4.2L386.4,512.7z M314.3,554.4l7.2-4.2l45.8,79.3l-7.2,4.2
						L314.3,554.4z M379.2,516.9l-7.2,4.2l45.8,79.3l7.2-4.2L379.2,516.9z M328.7,546l7.2-4.2l45.8,79.3l-7.2,4.2L328.7,546z
						 M364.7,525.2l20.8,36.1l-21.6,12.5l-20.8-36.1l7.2-4.2l16.7,28.9l7.2-4.2l-16.7-28.9L364.7,525.2z M410.6,604.6l-20.8-36.1
						L368.1,581l20.8,36.1l7.2-4.2L379.5,584l7.2-4.2l16.7,28.9L410.6,604.6z"/>
					<path class="st5" d="M78.8,113.2l7.2-4.2l45.8,79.3l-7.2,4.2L78.8,113.2z M136.5,79.9l7.2-4.2l45.8,79.3l-7.2,4.2L136.5,79.9z
						 M64.4,121.6l7.2-4.2l45.8,79.3l-7.2,4.2L64.4,121.6z M129.3,84.1l-7.2,4.2l45.8,79.3l7.2-4.2L129.3,84.1z M114.9,92.4
						l20.8,36.1L114.1,141l-20.8-36.1l7.2-4.2l16.7,28.9l7.2-4.2l-16.7-28.9L114.9,92.4z M160.7,171.8l-20.8-36.1l-21.6,12.5
						l20.8,36.1l7.2-4.2l-16.7-28.9l7.2-4.2l16.7,28.9L160.7,171.8z"/>
					<path class="st5" d="M227.2,37.2l37.5,64.9l-64.9,37.5l-37.5-64.9L227.2,37.2z M230.3,25.8l-79.3,45.8l45.8,79.3l79.3-45.8
						L230.3,25.8z M221.1,59.9L242,96l-36.1,20.8l-20.8-36.1L221.1,59.9z M224.2,48.5l-50.5,29.2l29.2,50.5L253.3,99L224.2,48.5z
						 M219.2,89.9l-4.2-7.2l-7.2,4.2l4.2,7.2L219.2,89.9z M196.5,83.8l21.6-12.5l12.5,21.6l-21.6,12.5L196.5,83.8z"/>
					<path class="st5" d="M339.9,49.1l-21.6,12.5L280.8-3.4l7.2-4.2l33.3,57.7l7.2-4.2l-33.3-57.7l7.2-4.2L339.9,49.1z M362.7,55.2
						l-45.8-79.3l-7.2,4.2l41.6,72.1l-64.9,37.5l-41.6-72.1l-7.2,4.2l45.8,79.3L362.7,55.2z M289.4,78.2L311,65.7L273.6,0.8L266.4,5
						l33.3,57.7l-7.2,4.2L259.1,9.1l-7.2,4.2L289.4,78.2z"/>
					<path class="st5" d="M-32.4,187.1L5,252l-64.9,37.5l-37.5-64.9L-32.4,187.1z M-29.4,175.7l-79.3,45.8l45.8,79.3l79.3-45.8
						L-29.4,175.7z M-38.5,209.8l20.8,36.1l-36.1,20.8l-20.8-36.1L-38.5,209.8z M-35.5,198.5L-86,227.6l29.2,50.5L-6.3,249
						L-35.5,198.5z M-40.5,239.8l-4.2-7.2l-7.2,4.2l4.2,7.2L-40.5,239.8z M-63.2,233.7l21.6-12.5l12.5,21.6l-21.6,12.5L-63.2,233.7z
						"/>
					<path class="st5" d="M29.7,228.1l21.6-12.5l-37.5-64.9l-7.2,4.2L40,212.6l-7.2,4.2l-33.3-57.7l-7.2,4.2L29.7,228.1z M103,205.1
						l-45.8-79.3l-7.2,4.2L91.6,202l-64.9,37.5L-15,167.4l-7.2,4.2l45.8,79.3L103,205.1z M80.2,199l-21.6,12.5l-37.5-64.9l7.2-4.2
						l33.3,57.7l7.2-4.2l-33.3-57.7l7.2-4.2L80.2,199z"/>
					<path class="st5" d="M396.2-70l7.2-4.2l45.8,79.3L442,9.4L396.2-70z M324.1-28.3l7.2-4.2l45.8,79.3l-7.2,4.2L324.1-28.3z
						 M389-65.8l-7.2,4.2l45.8,79.3l7.2-4.2L389-65.8z M338.5-36.7l7.2-4.2l45.8,79.3l-7.2,4.2L338.5-36.7z M374.6-57.5l20.8,36.1
						L373.7-8.9L352.9-45l7.2-4.2l16.7,28.9l7.2-4.2l-16.7-28.9L374.6-57.5z M420.4,21.8l-20.8-36.1L377.9-1.7l20.8,36.1l7.2-4.2
						L389.3,1.3l7.2-4.2L413.1,26L420.4,21.8z"/>
					<path class="st5" d="M24.4-47.7l7.2-4.2l45.8,79.3l-7.2,4.2L24.4-47.7z M9.9-39.3l7.2-4.2L63,35.8L55.8,40L9.9-39.3z M82.1-81
						l7.2-4.2l45.8,79.3l-7.2,4.2L82.1-81z M74.9-76.8l-7.2,4.2l45.8,79.3l7.2-4.2L74.9-76.8z M60.4-68.5l20.8,36.1L59.6-19.9
						L38.8-56l7.2-4.2l16.7,28.9l7.2-4.2L53.2-64.3L60.4-68.5z M106.2,10.8L85.4-25.2L63.8-12.7l20.8,36.1l7.2-4.2L75.2-9.7l7.2-4.2
						L99,15L106.2,10.8z"/>
					<path class="st5" d="M172.8-123.8l37.5,64.9l-64.9,37.5l-37.5-64.9L172.8-123.8z M175.8-135.1L96.5-89.3L142.3-10l79.3-45.8
						L175.8-135.1z M166.7-101l20.8,36.1l-36.1,20.8l-20.8-36.1L166.7-101z M169.8-112.4l-50.5,29.2l29.2,50.5l50.5-29.2
						L169.8-112.4z M164.8-71l-4.2-7.2l-7.2,4.2l4.2,7.2L164.8-71z M142-77.1l21.6-12.5L176.1-68l-21.6,12.5L142-77.1z"/>
					<path class="st5" d="M25.8,38.1L4.1,50.6l-37.5-64.9l7.2-4.2L7.2,39.2l7.2-4.2l-33.3-57.7l7.2-4.2L25.8,38.1z M-24.7,67.2
						l21.6-12.5l-37.5-64.9L-47.8-6l33.3,57.7l-7.2,4.2L-55-1.9l-7.2,4.2L-24.7,67.2z M48.5,44.2L2.7-35.2L-4.5-31l41.6,72.1
						l-64.9,37.5L-69.4,6.5l-7.2,4.2L-30.8,90L48.5,44.2z"/>
					<path class="st5" d="M38.7,626.9l-45.8-79.3l-7.2,4.2l41.6,72.1l-64.9,37.5l-41.6-72.1l-7.2,4.2l45.8,79.3L38.7,626.9z
						 M-34.5,649.9l21.6-12.5l-37.5-64.9l-7.2,4.2l33.3,57.7l-7.2,4.2l-33.3-57.7L-72,585L-34.5,649.9z M16,620.8l-21.6,12.5
						l-37.5-64.9l7.2-4.2l33.3,57.7l7.2-4.2L-28.7,560l7.2-4.2L16,620.8z"/>
					<path class="st5" d="M310.3,364.3l20.8,36.1l-21.6,12.5l-20.8-36.1l7.2-4.2l16.7,28.9l7.2-4.2l-16.7-28.9L310.3,364.3z
						 M274.2,385.1l7.2-4.2l45.8,79.3l-7.2,4.2L274.2,385.1z M331.9,351.8l7.2-4.2L385,427l-7.2,4.2L331.9,351.8z M259.8,393.4
						l7.2-4.2l45.8,79.3l-7.2,4.2L259.8,393.4z M324.7,356l-7.2,4.2l45.8,79.3l7.2-4.2L324.7,356z M356.1,443.6l-20.8-36.1
						l-21.6,12.5l20.8,36.1l7.2-4.2L325,423.1l7.2-4.2l16.7,28.9L356.1,443.6z"/>
					<path class="st5" d="M422.7,309l37.5,64.9l-64.9,37.5l-37.5-64.9L422.7,309z M425.7,297.7l-79.3,45.8l45.8,79.3l79.3-45.8
						L425.7,297.7z M416.6,331.8l20.8,36.1l-36.1,20.8l-20.8-36.1L416.6,331.8z M419.6,320.4l-50.5,29.2l29.2,50.5l50.5-29.2
						L419.6,320.4z M414.6,361.8l-4.2-7.2l-7.2,4.2l4.2,7.2L414.6,361.8z M391.9,355.7l21.6-12.5l12.5,21.6l-21.6,12.5L391.9,355.7z
						"/>
					<path class="st5" d="M0.1,543.4l7.2-4.2l45.8,79.3l-7.2,4.2L0.1,543.4z M72.3,501.7l7.2-4.2l45.8,79.3l-7.2,4.2L72.3,501.7z
						 M65.1,505.9l-7.2,4.2l45.8,79.3l7.2-4.2L65.1,505.9z M14.6,535l7.2-4.2l45.8,79.3l-7.2,4.2L14.6,535z M50.6,514.2l20.8,36.1
						l-21.6,12.5L29,526.7l7.2-4.2l16.7,28.9l7.2-4.2l-16.7-28.9L50.6,514.2z M96.4,593.6l-20.8-36.1L54,570l20.8,36.1l7.2-4.2
						L65.4,573l7.2-4.2l16.7,28.9L96.4,593.6z"/>
					<path class="st5" d="M163,459l37.5,64.9l-64.9,37.5l-37.5-64.9L163,459z M166,447.6l-79.3,45.8l45.8,79.3l79.3-45.8L166,447.6z
						 M156.9,481.7l20.8,36.1l-36.1,20.8l-20.8-36.1L156.9,481.7z M159.9,470.3l-50.5,29.2l29.2,50.5l50.5-29.2L159.9,470.3z
						 M155,511.7l-4.2-7.2l-7.2,4.2l4.2,7.2L155,511.7z M132.2,505.6l21.6-12.5l12.5,21.6l-21.6,12.5L132.2,505.6z"/>
					<path class="st5" d="M225.2,500l21.6-12.5l-37.5-64.9l-7.2,4.2l33.3,57.7l-7.2,4.2l-33.3-57.7l-7.2,4.2L225.2,500z M298.4,477
						l-45.8-79.3l-7.2,4.2l41.6,72.1l-64.9,37.5l-41.6-72.1l-7.2,4.2l45.8,79.3L298.4,477z M275.7,470.9L254,483.4l-37.5-64.9
						l7.2-4.2l33.3,57.7l7.2-4.2L231,410.1l7.2-4.2L275.7,470.9z"/>
					<path class="st5" d="M149.3,168.7l7.2-4.2l45.8,79.3l-7.2,4.2L149.3,168.7z M134.9,177l7.2-4.2l45.8,79.3l-7.2,4.2L134.9,177z
						 M207,135.4l7.2-4.2l45.8,79.3l-7.2,4.2L207,135.4z M199.8,139.6l-7.2,4.2l45.8,79.3l7.2-4.2L199.8,139.6z M185.4,147.9
						l20.8,36.1l-21.6,12.5l-20.8-36.1l7.2-4.2l16.7,28.9l7.2-4.2l-16.7-28.9L185.4,147.9z M231.2,227.2l-20.8-36.1l-21.6,12.5
						l20.8,36.1l7.2-4.2l-16.7-28.9l7.2-4.2l16.7,28.9L231.2,227.2z"/>
					<path class="st5" d="M297.7,92.6l37.5,64.9L270.3,195l-37.5-64.9L297.7,92.6z M300.8,81.3l-79.3,45.8l45.8,79.3l79.3-45.8
						L300.8,81.3z M291.6,115.4l20.8,36.1l-36.1,20.8l-20.8-36.1L291.6,115.4z M294.7,104l-50.5,29.2l29.2,50.5l50.5-29.2L294.7,104
						z M289.7,145.4l-4.2-7.2l-7.2,4.2l4.2,7.2L289.7,145.4z M266.9,139.3l21.6-12.5l12.5,21.6l-21.6,12.5L266.9,139.3z"/>
					<path class="st5" d="M410.4,104.5L388.8,117l-37.5-64.9l7.2-4.2l33.3,57.7l7.2-4.2l-33.3-57.7l7.2-4.2L410.4,104.5z
						 M359.9,133.7l21.6-12.5l-37.5-64.9l-7.2,4.2l33.3,57.7l-7.2,4.2l-33.3-57.7l-7.2,4.2L359.9,133.7z M433.2,110.6l-45.8-79.3
						l-7.2,4.2l41.6,72.1l-64.9,37.5l-41.6-72.1l-7.2,4.2l45.8,79.3L433.2,110.6z"/>
					<path class="st5" d="M-59.9,289.5l-7.2,4.2l45.8,79.3l7.2-4.2L-59.9,289.5z M-124.8,327l7.2-4.2l45.8,79.3l-7.2,4.2L-124.8,327
						z M-52.7,285.3l7.2-4.2l45.8,79.3l-7.2,4.2L-52.7,285.3z M-110.4,318.6l7.2-4.2l45.8,79.3l-7.2,4.2L-110.4,318.6z M-74.3,297.8
						l20.8,36.1l-21.6,12.5l-20.8-36.1l7.2-4.2l16.7,28.9l7.2-4.2L-81.5,302L-74.3,297.8z M-28.5,377.2l-20.8-36.1L-71,353.6
						l20.8,36.1l7.2-4.2l-16.7-28.9l7.2-4.2l16.7,28.9L-28.5,377.2z"/>
					<path class="st5" d="M38.1,242.6l37.5,64.9L10.6,345L-26.9,280L38.1,242.6z M41.1,231.2L-38.2,277l45.8,79.3l79.3-45.8
						L41.1,231.2z M32,265.3l20.8,36.1l-36.1,20.8l-20.8-36.1L32,265.3z M35,253.9l-50.5,29.2l29.2,50.5l50.5-29.2L35,253.9z
						 M30,295.3l-4.2-7.2l-7.2,4.2l4.2,7.2L30,295.3z M7.3,289.2l21.6-12.5l12.5,21.6l-21.6,12.5L7.3,289.2z"/>
					<path class="st5" d="M150.7,254.5L129.1,267L91.6,202l7.2-4.2l33.3,57.7l7.2-4.2L106,193.7l7.2-4.2L150.7,254.5z M173.5,260.6
						l-45.8-79.3l-7.2,4.2l41.6,72.1L97.2,295l-41.6-72.1l-7.2,4.2l45.8,79.3L173.5,260.6z M100.2,283.6l21.6-12.5l-37.5-64.9
						l-7.2,4.2l33.3,57.7l-7.2,4.2L70,214.5l-7.2,4.2L100.2,283.6z"/>
				</g>
			</g>
		</g>
	</g>
	<g style="clip-path:url(#SVGID_00000183963603339010602810000007468125053331826320_);">
		<defs>
			<rect id="SVGID_00000034053508627851750920000014225132370826112147_" x="-40.5" y="-118.9" width="648" height="648"/>
		</defs>
		<clipPath id="SVGID_00000039093652636902207570000004872890817075947654_">
			<use xlink:href="#SVGID_00000034053508627851750920000014225132370826112147_"  style="overflow:visible;"/>
		</clipPath>
		<g style="clip-path:url(#SVGID_00000039093652636902207570000004872890817075947654_);">
			<polygon class="st7" points="-42.6,529.8 174.9,312.3 392.4,529.8 			"/>
			<polygon class="st8" points="-42.6,529.8 174.9,312.3 222.2,529.8 			"/>
		</g>
		<g style="clip-path:url(#SVGID_00000039093652636902207570000004872890817075947654_);">
			<g>
				<path class="st7" d="M-23.5,356.1c-81.4,1.4-163.7,1.5-245.1,0C-187.1,354.7-104.8,354.7-23.5,356.1L-23.5,356.1z"/>
			</g>
			<g>
				<path class="st7" d="M-9.4,363.8c-81.4,1.4-163.7,1.5-245.1,0C-173.1,362.4-90.8,362.4-9.4,363.8L-9.4,363.8z"/>
			</g>
			<g>
				<path class="st7" d="M4.6,371.5c-81.4,1.4-163.7,1.5-245.1,0C-159.1,370.1-76.8,370.1,4.6,371.5L4.6,371.5z"/>
			</g>
			<g>
				<path class="st7" d="M18.6,379.2c-81.4,1.4-163.7,1.5-245.1,0C-145.1,377.8-62.8,377.8,18.6,379.2L18.6,379.2z"/>
			</g>
			<g>
				<path class="st7" d="M32.6,386.9c-81.4,1.4-163.7,1.5-245.1,0C-131.1,385.5-48.8,385.5,32.6,386.9L32.6,386.9z"/>
			</g>
			<g>
				<path class="st7" d="M46.6,394.6c-81.4,1.4-163.7,1.5-245.1,0C-117.1,393.2-34.8,393.2,46.6,394.6L46.6,394.6z"/>
			</g>
			<g>
				<path class="st7" d="M60.6,402.3c-81.4,1.4-163.7,1.5-245.1,0C-103.1,400.9-20.8,400.9,60.6,402.3L60.6,402.3z"/>
			</g>
			<g>
				<path class="st7" d="M74.6,410c-81.4,1.4-163.7,1.5-245.1,0C-89.1,408.6-6.8,408.6,74.6,410L74.6,410z"/>
			</g>
			<g>
				<path class="st7" d="M88.6,417.7c-81.4,1.4-163.7,1.5-245.1,0C-75,416.3,7.2,416.3,88.6,417.7L88.6,417.7z"/>
			</g>
			<g>
				<path class="st7" d="M102.6,425.5c-81.4,1.4-163.7,1.5-245.1,0C-61,424,21.3,424,102.6,425.5L102.6,425.5z"/>
			</g>
			<g>
				<path class="st7" d="M116.6,433.2c-81.4,1.4-163.7,1.5-245.1,0C-47,431.7,35.3,431.7,116.6,433.2L116.6,433.2z"/>
			</g>
			<g>
				<path class="st7" d="M130.7,440.9c-81.4,1.4-163.7,1.5-245.1,0C-33,439.4,49.3,439.4,130.7,440.9L130.7,440.9z"/>
			</g>
			<g>
				<path class="st7" d="M144.7,448.6c-81.4,1.4-163.7,1.5-245.1,0C-19,447.1,63.3,447.1,144.7,448.6L144.7,448.6z"/>
			</g>
			<g>
				<path class="st7" d="M158.7,456.3c-81.4,1.4-163.7,1.5-245.1,0C-5,454.8,77.3,454.8,158.7,456.3L158.7,456.3z"/>
			</g>
			<g>
				<path class="st7" d="M172.7,464c-81.4,1.4-163.7,1.5-245.1,0C9,462.5,91.3,462.5,172.7,464L172.7,464z"/>
			</g>
			<g>
				<path class="st7" d="M186.7,471.7c-81.4,1.4-163.7,1.5-245.1,0C23,470.2,105.3,470.2,186.7,471.7L186.7,471.7z"/>
			</g>
			<g>
				<path class="st7" d="M200.7,479.4c-81.4,1.4-163.7,1.5-245.1,0C37,477.9,119.3,477.9,200.7,479.4L200.7,479.4z"/>
			</g>
			<g>
				<path class="st7" d="M214.6,487c-81.4,1.4-163.7,1.5-245.1,0C50.9,485.5,133.2,485.6,214.6,487L214.6,487z"/>
			</g>
			<g>
				<path class="st7" d="M228.5,494.6c-81.4,1.4-163.7,1.5-245.1,0C64.9,493.2,147.2,493.2,228.5,494.6L228.5,494.6z"/>
			</g>
			<g>
				<path class="st7" d="M242.5,502.2c-81.4,1.4-163.7,1.5-245.1,0C78.8,500.8,161.1,500.8,242.5,502.2L242.5,502.2z"/>
			</g>
			<g>
				<path class="st7" d="M256.4,509.8c-81.4,1.4-163.7,1.5-245.1,0C92.7,508.4,175,508.4,256.4,509.8L256.4,509.8z"/>
			</g>
			<g>
				<path class="st7" d="M270.3,517.5c-81.4,1.4-163.7,1.5-245.1,0C106.6,516,188.9,516,270.3,517.5L270.3,517.5z"/>
			</g>
			<g>
				<path class="st7" d="M284.2,525.1c-81.4,1.4-163.7,1.5-245.1,0C120.5,523.6,202.8,523.6,284.2,525.1L284.2,525.1z"/>
			</g>
		</g>
		
			<path style="clip-path:url(#SVGID_00000039093652636902207570000004872890817075947654_);fill:none;stroke:#FFDA48;stroke-width:21;stroke-miterlimit:10;" d="
			M707.9-95.5c-60.4,387.6-423.5,652.9-811.1,592.5"/>
	</g>
	<polygon style="clip-path:url(#SVGID_00000183963603339010602810000007468125053331826320_);fill:#F4ECE0;" points="609.5,343.9 
		175.7,528.9 -38.5,357.9 -38.5,528.9 609.5,528.9 	"/>
</g>
</svg>
