<?xml version="1.0" encoding="utf-8"?>
<!-- Generator: Adobe Illustrator 26.0.1, SVG Export Plug-In . SVG Version: 6.00 Build 0)  -->
<svg version="1.1" id="Слой_1" xmlns="http://www.w3.org/2000/svg" xmlns:xlink="http://www.w3.org/1999/xlink" x="0px" y="0px"
	 viewBox="0 0 1568 695.4" style="enable-background:new 0 0 1568 695.4;" xml:space="preserve">
<style type="text/css">
	.st0{fill:#59AAF3;}
	.st1{clip-path:url(#SVGID_00000120545026276149388960000017340461558536814988_);}
	.st2{clip-path:url(#SVGID_00000150807597698339885580000015023641734135329189_);}
	.st3{fill-rule:evenodd;clip-rule:evenodd;fill:#202124;}
	.st4{clip-path:url(#SVGID_00000152238528010278890250000009888586742982876851_);}
	.st5{fill:#FFDA48;}
	.st6{fill:#FF6C3C;}
	
		.st7{clip-path:url(#SVGID_00000152238528010278890250000009888586742982876851_);fill:none;stroke:#FFDA48;stroke-width:21;stroke-miterlimit:10;}
	.st8{fill:#F4ECE0;}
</style>
<rect x="-21" y="-915.1" class="st0" width="1610" height="1610"/>
<g>
	<defs>
		<rect id="SVGID_1_" x="-156" y="-22.1" width="1880" height="548.1"/>
	</defs>
	<clipPath id="SVGID_00000067947804730543622030000002813704940030763931_">
		<use xlink:href="#SVGID_1_"  style="overflow:visible;"/>
	</clipPath>
	<g style="clip-path:url(#SVGID_00000067947804730543622030000002813704940030763931_);">
		<rect x="-156" y="-22.1" class="st0" width="1880" height="548.1"/>
		<g>
			<defs>
				
					<rect id="SVGID_00000161599810898750966380000002826526213461656216_" x="-1191.3" y="-605.4" transform="matrix(0.866 -0.5 0.5 0.866 -20.6004 425.6631)" width="3950.6" height="1713.3"/>
			</defs>
			<clipPath id="SVGID_00000111169211312676594200000015609380741718319270_">
				<use xlink:href="#SVGID_00000161599810898750966380000002826526213461656216_"  style="overflow:visible;"/>
			</clipPath>
			<g style="clip-path:url(#SVGID_00000111169211312676594200000015609380741718319270_);">
				<path class="st3" d="M-195.2-156.2l63.7,110.4l-110.4,63.7l-63.7-110.4L-195.2-156.2z M-190-175.6l-134.9,77.9L-247,37.2
					l134.9-77.9L-190-175.6z M-205.6-117.5l35.4,61.3l-61.3,35.4l-35.4-61.3L-205.6-117.5z M-200.4-136.9l-85.8,49.6l49.6,85.8
					l85.8-49.6L-200.4-136.9z M-208.9-66.6l-7.1-12.3l-12.3,7.1l7.1,12.3L-208.9-66.6z M-247.5-77l36.8-21.2l21.2,36.8l-36.8,21.2
					L-247.5-77z"/>
				<path class="st3" d="M335.3,649.3l36.8-21.2l-63.7-110.4l-12.3,7.1l56.6,98.1l-12.3,7.1l-56.6-98.1l-12.3,7.1L335.3,649.3z
					 M459.8,610.1l-77.9-134.9l-12.3,7.1l70.8,122.6l-110.4,63.7L259.3,546l-12.3,7.1L324.9,688L459.8,610.1z M421.1,599.8
					L384.3,621l-63.7-110.4l12.3-7.1l56.6,98.1l12.3-7.1l-56.6-98.1l12.3-7.1L421.1,599.8z"/>
				<path class="st3" d="M958.3,142.5l12.3-7.1l77.9,134.9l-12.3,7.1L958.3,142.5z M835.6,213.3l12.3-7.1l77.9,134.9l-12.3,7.1
					L835.6,213.3z M946,149.6l-12.3,7.1l77.9,134.9l12.3-7.1L946,149.6z M860.2,199.1l12.3-7.1l77.9,134.9L938,334L860.2,199.1z
					 M921.5,163.7l35.4,61.3l-36.8,21.2L884.7,185l12.3-7.1l28.3,49.1l12.3-7.1l-28.3-49.1L921.5,163.7z M999.4,298.6L964,237.3
					l-36.8,21.2l35.4,61.3l12.3-7.1l-28.3-49.1l12.3-7.1l28.3,49.1L999.4,298.6z"/>
				<path class="st3" d="M1112.5,69.8l63.7,110.4l-110.4,63.7l-63.7-110.4L1112.5,69.8z M1117.7,50.4l-134.9,77.9l77.9,134.9
					l134.9-77.9L1117.7,50.4z M1102.1,108.5l35.4,61.3l-61.3,35.4l-35.4-61.3L1102.1,108.5z M1107.3,89.1l-85.8,49.6l49.6,85.8
					l85.8-49.6L1107.3,89.1z M1098.9,159.4l-7.1-12.3l-12.3,7.1l7.1,12.3L1098.9,159.4z M1060.2,149.1l36.8-21.2l21.2,36.8
					l-36.8,21.2L1060.2,149.1z"/>
				<path class="st3" d="M1218.2,139.6l36.8-21.2L1191.3,8L1179,15l56.6,98.1l-12.3,7.1l-56.6-98.1l-12.3,7.1L1218.2,139.6z
					 M1342.7,100.4l-77.9-134.9l-12.3,7.1l70.8,122.6L1213,158.9l-70.8-122.6l-12.3,7.1l77.9,134.9L1342.7,100.4z M1304,90
					l-36.8,21.2L1203.5,0.9l12.3-7.1l56.6,98.1l12.3-7.1L1228-13.3l12.3-7.1L1304,90z"/>
				<path class="st3" d="M516.8,397.4l12.3-7.1L607,525.2l-12.3,7.1L516.8,397.4z M394.2,468.2l12.3-7.1L484.3,596l-12.3,7.1
					L394.2,468.2z M504.6,404.4l-12.3,7.1l77.9,134.9l12.3-7.1L504.6,404.4z M418.7,454l12.3-7.1l77.9,134.9l-12.3,7.1L418.7,454z
					 M480,418.6l35.4,61.3l-36.8,21.2l-35.4-61.3l12.3-7.1l28.3,49.1l12.3-7.1l-28.3-49.1L480,418.6z M557.9,553.5l-35.4-61.3
					l-36.8,21.2l35.4,61.3l12.3-7.1l-28.3-49.1l12.3-7.1l28.3,49.1L557.9,553.5z"/>
				<path class="st3" d="M671,324.7L734.8,435l-110.4,63.7l-63.7-110.4L671,324.7z M676.2,305.3l-134.9,77.9l77.9,134.9l134.9-77.9
					L676.2,305.3z M660.7,363.3l35.4,61.3l-61.3,35.4l-35.4-61.3L660.7,363.3z M665.9,344L580,393.6l49.6,85.8l85.8-49.6L665.9,344z
					 M657.4,414.3l-7.1-12.3l-12.3,7.1l7.1,12.3L657.4,414.3z M618.7,403.9l36.8-21.2l21.2,36.8l-36.8,21.2L618.7,403.9z"/>
				<path class="st3" d="M776.7,394.4l36.8-21.2l-63.7-110.4l-12.3,7.1l56.6,98.1l-12.3,7.1L725.3,277l-12.3,7.1L776.7,394.4z
					 M901.3,355.3l-77.9-134.9l-12.3,7.1l70.8,122.6l-110.4,63.7l-70.8-122.6l-12.3,7.1l77.9,134.9L901.3,355.3z M862.6,344.9
					l-36.8,21.2l-63.7-110.4l12.3-7.1l56.6,98.1l12.3-7.1l-56.6-98.1l12.3-7.1L862.6,344.9z"/>
				<path class="st3" d="M1362.9-91.2l35.4,61.3l-36.8,21.2l-35.4-61.3l12.3-7.1l28.3,49.1L1379-35l-28.3-49.1L1362.9-91.2z
					 M1387.5-105.3l-12.3,7.1l77.9,134.9l12.3-7.1L1387.5-105.3z M1277.1-41.6l12.3-7.1l77.9,134.9l-12.3,7.1L1277.1-41.6z
					 M1399.7-112.4l12.3-7.1l77.9,134.9l-12.3,7.1L1399.7-112.4z M1301.6-55.8l12.3-7.1l77.9,134.9l-12.3,7.1L1301.6-55.8z
					 M1440.8,43.7l-35.4-61.3l-36.8,21.2L1404,65l12.3-7.1L1388,8.8l12.3-7.1l28.3,49.1L1440.8,43.7z"/>
				<path class="st3" d="M1554-185.1l63.7,110.4L1507.3-11l-63.7-110.4L1554-185.1z M1559.1-204.4l-134.9,77.9l77.9,134.9L1637-69.5
					L1559.1-204.4z M1543.6-146.4l35.4,61.3l-61.3,35.4l-35.4-61.3L1543.6-146.4z M1548.8-165.7l-85.8,49.6l49.6,85.8l85.8-49.6
					L1548.8-165.7z M1540.3-95.5l-7.1-12.3l-12.3,7.1l7.1,12.3L1540.3-95.5z M1501.6-105.8l36.8-21.2l21.2,36.8L1522.9-69
					L1501.6-105.8z"/>
				<path class="st3" d="M1133.9,531.6l35.4,61.3l-36.8,21.2l-35.4-61.3l12.3-7.1l28.3,49.1l12.3-7.1l-28.3-49.1L1133.9,531.6z
					 M1048,581.2l12.3-7.1l77.9,134.9l-12.3,7.1L1048,581.2z M1170.7,510.4l12.3-7.1l77.9,134.9l-12.3,7.1L1170.7,510.4z
					 M1158.4,517.4l-12.3,7.1l77.9,134.9l12.3-7.1L1158.4,517.4z M1072.6,567l12.3-7.1l77.9,134.9l-12.3,7.1L1072.6,567z
					 M1211.8,666.5l-35.4-61.3l-36.8,21.2l35.4,61.3l12.3-7.1l-28.3-49.1l12.3-7.1l28.3,49.1L1211.8,666.5z"/>
				<path class="st3" d="M1324.9,437.7l63.7,110.4l-110.4,63.7l-63.7-110.4L1324.9,437.7z M1330.1,418.3l-134.9,77.9l77.9,134.9
					l134.9-77.9L1330.1,418.3z M1314.5,476.4l35.4,61.3l-61.3,35.4l-35.4-61.3L1314.5,476.4z M1319.7,457l-85.8,49.6l49.6,85.8
					l85.8-49.6L1319.7,457z M1311.3,527.3l-7.1-12.3l-12.3,7.1l7.1,12.3L1311.3,527.3z M1272.6,516.9l36.8-21.2l21.2,36.8
					l-36.8,21.2L1272.6,516.9z"/>
				<path class="st3" d="M1430.6,507.4l36.8-21.2l-63.7-110.4l-12.3,7.1L1448,481l-12.3,7.1l-56.6-98.1l-12.3,7.1L1430.6,507.4z
					 M1555.1,468.3l-77.9-134.9l-12.3,7.1l70.8,122.6l-110.4,63.7l-70.8-122.6l-12.3,7.1l77.9,134.9L1555.1,468.3z M1516.4,457.9
					l-36.8,21.2l-63.7-110.4l12.3-7.1l56.6,98.1l12.3-7.1l-56.6-98.1l12.3-7.1L1516.4,457.9z"/>
				<path class="st3" d="M1575.3,276.7l35.4,61.3l-36.8,21.2l-35.4-61.3l12.3-7.1l28.3,49.1l12.3-7.1l-28.3-49.1L1575.3,276.7z
					 M1599.9,262.6l-12.3,7.1l77.9,134.9l12.3-7.1L1599.9,262.6z M1489.5,326.3l12.3-7.1l77.9,134.9l-12.3,7.1L1489.5,326.3z
					 M1612.1,255.5l12.3-7.1l77.9,134.9l-12.3,7.1L1612.1,255.5z M1514,312.1l12.3-7.1l77.9,134.9l-12.3,7.1L1514,312.1z
					 M1653.2,411.6l-35.4-61.3l-36.8,21.2l35.4,61.3l12.3-7.1l-28.3-49.1l12.3-7.1l28.3,49.1L1653.2,411.6z"/>
				<path class="st3" d="M1766.4,182.8l63.7,110.4l-110.4,63.7L1656,246.5L1766.4,182.8z M1771.5,163.4l-134.9,77.9l77.9,134.9
					l134.9-77.9L1771.5,163.4z M1756,221.5l35.4,61.3l-61.3,35.4l-35.4-61.3L1756,221.5z M1761.2,202.1l-85.8,49.6l49.6,85.8
					l85.8-49.6L1761.2,202.1z M1752.7,272.4l-7.1-12.3l-12.3,7.1l7.1,12.3L1752.7,272.4z M1714,262.1l36.8-21.2l21.2,36.8
					l-36.8,21.2L1714,262.1z"/>
				<path class="st3" d="M-259.7,355.2l12.3-7.1l77.9,134.9l-12.3,7.1L-259.7,355.2z M-137,284.4l12.3-7.1l77.9,134.9l-12.3,7.1
					L-137,284.4z M-149.3,291.4l-12.3,7.1l77.9,134.9l12.3-7.1L-149.3,291.4z M-235.1,341l12.3-7.1l77.9,134.9l-12.3,7.1L-235.1,341
					z M-173.8,305.6l35.4,61.3l-36.8,21.2l-35.4-61.3l12.3-7.1l28.3,49.1l12.3-7.1l-28.3-49.1L-173.8,305.6z M-96,440.5l-35.4-61.3
					l-36.8,21.2l35.4,61.3l12.3-7.1l-28.3-49.1l12.3-7.1l28.3,49.1L-96,440.5z"/>
				<path class="st3" d="M17.2,211.7L80.9,322l-110.4,63.7l-63.7-110.4L17.2,211.7z M22.4,192.3l-134.9,77.9l77.9,134.9l134.9-77.9
					L22.4,192.3z M6.8,250.3l35.4,61.3l-61.3,35.4l-35.4-61.3L6.8,250.3z M12,231l-85.8,49.6l49.6,85.8l85.8-49.6L12,231z
					 M3.5,301.3L-3.5,289l-12.3,7.1l7.1,12.3L3.5,301.3z M-35.1,290.9l36.8-21.2l21.2,36.8l-36.8,21.2L-35.1,290.9z"/>
				<path class="st3" d="M122.9,281.4l36.8-21.2L95.9,149.8l-12.3,7.1l56.6,98.1l-12.3,7.1L71.4,164l-12.3,7.1L122.9,281.4z
					 M247.4,242.2l-77.9-134.9l-12.3,7.1l70.8,122.6l-110.4,63.7L46.9,178.2l-12.3,7.1l77.9,134.9L247.4,242.2z M208.7,231.9
					l-36.8,21.2l-63.7-110.4l12.3-7.1l56.6,98.1l12.3-7.1l-56.6-98.1l12.3-7.1L208.7,231.9z"/>
				<path class="st3" d="M709.1-204.2l35.4,61.3l-36.8,21.2l-35.4-61.3l12.3-7.1l28.3,49.1l12.3-7.1l-28.3-49.1L709.1-204.2z
					 M623.2-154.6l12.3-7.1l77.9,134.9l-12.3,7.1L623.2-154.6z M745.9-225.4l12.3-7.1L836-97.6l-12.3,7.1L745.9-225.4z M733.6-218.3
					l-12.3,7.1l77.9,134.9l12.3-7.1L733.6-218.3z M647.8-168.8l12.3-7.1l77.9,134.9l-12.3,7.1L647.8-168.8z M787-69.3l-35.4-61.3
					l-36.8,21.2L750.2-48l12.3-7.1l-28.3-49.1l12.3-7.1l28.3,49.1L787-69.3z"/>
				<path class="st3" d="M304.4,29.5l12.3-7.1l77.9,134.9l-12.3,7.1L304.4,29.5z M181.8,100.3l12.3-7.1l77.9,134.9l-12.3,7.1
					L181.8,100.3z M292.2,36.6l-12.3,7.1l77.9,134.9l12.3-7.1L292.2,36.6z M206.3,86.1l12.3-7.1l77.9,134.9l-12.3,7.1L206.3,86.1z
					 M267.6,50.7L303,112l-36.8,21.2L230.8,72l12.3-7.1l28.3,49.1l12.3-7.1l-28.3-49.1L267.6,50.7z M345.5,185.6l-35.4-61.3
					l-36.8,21.2l35.4,61.3l12.3-7.1l-28.3-49.1l12.3-7.1l28.3,49.1L345.5,185.6z"/>
				<path class="st3" d="M458.6-43.2l63.7,110.4L412,130.9L348.3,20.5L458.6-43.2z M463.8-62.6L328.9,15.3l77.9,134.9l134.9-77.9
					L463.8-62.6z M448.3-4.5l35.4,61.3l-61.3,35.4L387,30.9L448.3-4.5z M453.5-23.9l-85.8,49.6l49.6,85.8L503,62L453.5-23.9z
					 M445,46.4l-7.1-12.3l-12.3,7.1l7.1,12.3L445,46.4z M406.3,36l36.8-21.2l21.2,36.8l-36.8,21.2L406.3,36z"/>
				<path class="st3" d="M564.3,26.6l36.8-21.2L537.4-105L525.1-98l56.6,98.1l-12.3,7.1l-56.6-98.1l-12.3,7.1L564.3,26.6z
					 M688.9-12.6L611-147.5l-12.3,7.1l70.8,122.6L559.2,45.9L488.4-76.7l-12.3,7.1L554,65.2L688.9-12.6z M650.2-23L613.4-1.8
					l-63.7-110.4l12.3-7.1l56.6,98.1l12.3-7.1l-56.6-98.1l12.3-7.1L650.2-23z"/>
				<path class="st3" d="M-259.7,355.2l12.3-7.1l77.9,134.9l-12.3,7.1L-259.7,355.2z M-137,284.4l12.3-7.1l77.9,134.9l-12.3,7.1
					L-137,284.4z M-149.3,291.4l-12.3,7.1l77.9,134.9l12.3-7.1L-149.3,291.4z M-235.1,341l12.3-7.1l77.9,134.9l-12.3,7.1L-235.1,341
					z M-173.8,305.6l35.4,61.3l-36.8,21.2l-35.4-61.3l12.3-7.1l28.3,49.1l12.3-7.1l-28.3-49.1L-173.8,305.6z M-96,440.5l-35.4-61.3
					l-36.8,21.2l35.4,61.3l12.3-7.1l-28.3-49.1l12.3-7.1l28.3,49.1L-96,440.5z"/>
				<path class="st3" d="M17.2,211.7L80.9,322l-110.4,63.7l-63.7-110.4L17.2,211.7z M22.4,192.3l-134.9,77.9l77.9,134.9l134.9-77.9
					L22.4,192.3z M6.8,250.3l35.4,61.3l-61.3,35.4l-35.4-61.3L6.8,250.3z M12,231l-85.8,49.6l49.6,85.8l85.8-49.6L12,231z
					 M3.5,301.3L-3.5,289l-12.3,7.1l7.1,12.3L3.5,301.3z M-35.1,290.9l36.8-21.2l21.2,36.8l-36.8,21.2L-35.1,290.9z"/>
				<path class="st3" d="M122.9,281.4l36.8-21.2L95.9,149.8l-12.3,7.1l56.6,98.1l-12.3,7.1L71.4,164l-12.3,7.1L122.9,281.4z
					 M247.4,242.2l-77.9-134.9l-12.3,7.1l70.8,122.6l-110.4,63.7L46.9,178.2l-12.3,7.1l77.9,134.9L247.4,242.2z M208.7,231.9
					l-36.8,21.2l-63.7-110.4l12.3-7.1l56.6,98.1l12.3-7.1l-56.6-98.1l12.3-7.1L208.7,231.9z"/>
				<path class="st3" d="M709.1-204.2l35.4,61.3l-36.8,21.2l-35.4-61.3l12.3-7.1l28.3,49.1l12.3-7.1l-28.3-49.1L709.1-204.2z
					 M623.2-154.6l12.3-7.1l77.9,134.9l-12.3,7.1L623.2-154.6z M745.9-225.4l12.3-7.1L836-97.6l-12.3,7.1L745.9-225.4z M733.6-218.3
					l-12.3,7.1l77.9,134.9l12.3-7.1L733.6-218.3z M647.8-168.8l12.3-7.1l77.9,134.9l-12.3,7.1L647.8-168.8z M787-69.3l-35.4-61.3
					l-36.8,21.2L750.2-48l12.3-7.1l-28.3-49.1l12.3-7.1l28.3,49.1L787-69.3z"/>
				<path class="st3" d="M304.4,29.5l12.3-7.1l77.9,134.9l-12.3,7.1L304.4,29.5z M181.8,100.3l12.3-7.1l77.9,134.9l-12.3,7.1
					L181.8,100.3z M292.2,36.6l-12.3,7.1l77.9,134.9l12.3-7.1L292.2,36.6z M206.3,86.1l12.3-7.1l77.9,134.9l-12.3,7.1L206.3,86.1z
					 M267.6,50.7L303,112l-36.8,21.2L230.8,72l12.3-7.1l28.3,49.1l12.3-7.1l-28.3-49.1L267.6,50.7z M345.5,185.6l-35.4-61.3
					l-36.8,21.2l35.4,61.3l12.3-7.1l-28.3-49.1l12.3-7.1l28.3,49.1L345.5,185.6z"/>
				<path class="st3" d="M458.6-43.2l63.7,110.4L412,130.9L348.3,20.5L458.6-43.2z M463.8-62.6L328.9,15.3l77.9,134.9l134.9-77.9
					L463.8-62.6z M448.3-4.5l35.4,61.3l-61.3,35.4L387,30.9L448.3-4.5z M453.5-23.9l-85.8,49.6l49.6,85.8L503,62L453.5-23.9z
					 M445,46.4l-7.1-12.3l-12.3,7.1l7.1,12.3L445,46.4z M406.3,36l36.8-21.2l21.2,36.8l-36.8,21.2L406.3,36z"/>
				<path class="st3" d="M564.3,26.6l36.8-21.2L537.4-105L525.1-98l56.6,98.1l-12.3,7.1l-56.6-98.1l-12.3,7.1L564.3,26.6z
					 M688.9-12.6L611-147.5l-12.3,7.1l70.8,122.6L559.2,45.9L488.4-76.7l-12.3,7.1L554,65.2L688.9-12.6z M650.2-23L613.4-1.8
					l-63.7-110.4l12.3-7.1l56.6,98.1l12.3-7.1l-56.6-98.1l12.3-7.1L650.2-23z"/>
				<path class="st3" d="M-222.5,23l63.7,110.4l-110.4,63.7l-63.7-110.4L-222.5,23z M-217.3,3.7l-134.9,77.9l77.9,134.9l134.9-77.9
					L-217.3,3.7z M-232.9,61.7l35.4,61.3l-61.3,35.4l-35.4-61.3L-232.9,61.7z M-227.7,42.4l-85.8,49.6l49.6,85.8l85.8-49.6
					L-227.7,42.4z M-236.2,112.7l-7.1-12.3l-12.3,7.1l7.1,12.3L-236.2,112.7z M-274.8,102.3l36.8-21.2l21.2,36.8l-36.8,21.2
					L-274.8,102.3z"/>
				<path class="st3" d="M-116.8,92.8L-80,71.6l-63.7-110.4l-12.3,7.1l56.6,98.1l-12.3,7.1l-56.6-98.1l-12.3,7.1L-116.8,92.8z
					 M7.7,53.6L-70.2-81.3l-12.3,7.1l70.8,122.6L-122,112.2l-70.8-122.6l-12.3,7.1l77.9,134.9L7.7,53.6z M-31,43.3l-36.8,21.2
					l-63.7-110.4l12.3-7.1l56.6,98.1l12.3-7.1L-107-60l12.3-7.1L-31,43.3z"/>
				<path class="st3" d="M27.9-137.9l35.4,61.3L26.5-55.3l-35.4-61.3l12.3-7.1l28.3,49.1L44-81.8l-28.3-49.1L27.9-137.9z
					 M-57.9-88.3l12.3-7.1L32.2,39.5L20,46.6L-57.9-88.3z M64.7-159.1l12.3-7.1l77.9,134.9l-12.3,7.1L64.7-159.1z M52.5-152.1
					L40.2-145l77.9,134.9l12.3-7.1L52.5-152.1z M-33.4-102.5l12.3-7.1L56.8,25.3l-12.3,7.1L-33.4-102.5z M105.8-3L70.4-64.3
					L33.6-43.1L69,18.2l12.3-7.1L53-37.9L65.2-45L93.5,4.1L105.8-3z"/>
				<path class="st3" d="M931,321.7l12.3-7.1l77.9,134.9l-12.3,7.1L931,321.7z M808.3,392.5l12.3-7.1l77.9,134.9l-12.3,7.1
					L808.3,392.5z M918.7,328.8l-12.3,7.1l77.9,134.9l12.3-7.1L918.7,328.8z M832.9,378.4l12.3-7.1L923,506.2l-12.3,7.1L832.9,378.4
					z M894.2,343l35.4,61.3l-36.8,21.2l-35.4-61.3l12.3-7.1l28.3,49.1l12.3-7.1l-28.3-49.1L894.2,343z M972.1,477.9l-35.4-61.3
					l-36.8,21.2l35.4,61.3l12.3-7.1L919.2,443l12.3-7.1l28.3,49.1L972.1,477.9z"/>
				<path class="st3" d="M1085.2,249.1l63.7,110.4l-110.4,63.7l-63.7-110.4L1085.2,249.1z M1090.4,229.7l-134.9,77.9l77.9,134.9
					l134.9-77.9L1090.4,229.7z M1074.8,287.7l35.4,61.3l-61.3,35.4l-35.4-61.3L1074.8,287.7z M1080,268.4L994.2,318l49.6,85.8
					l85.8-49.6L1080,268.4z M1071.6,338.7l-7.1-12.3l-12.3,7.1l7.1,12.3L1071.6,338.7z M1032.9,328.3l36.8-21.2l21.2,36.8
					l-36.8,21.2L1032.9,328.3z"/>
				<path class="st3" d="M1276.7,269.3l-36.8,21.2l-63.7-110.4l12.3-7.1l56.6,98.1l12.3-7.1l-56.6-98.1l12.3-7.1L1276.7,269.3z
					 M1315.4,279.6l-77.9-134.9l-12.3,7.1l70.8,122.6l-110.4,63.7l-70.8-122.6l-12.3,7.1l77.9,134.9L1315.4,279.6z M1190.9,318.8
					l36.8-21.2L1164,187.2l-12.3,7.1l56.6,98.1l-12.3,7.1l-56.6-98.1l-12.3,7.1L1190.9,318.8z"/>
				<path class="st3" d="M1801.6-180.9l-12.3,7.1L1867.2-39l12.3-7.1L1801.6-180.9z M1691.3-117.2l12.3-7.1l77.9,134.9l-12.3,7.1
					L1691.3-117.2z M1813.9-188l12.3-7.1L1904-60.2l-12.3,7.1L1813.9-188z M1715.8-131.4l12.3-7.1l77.9,134.9l-12.3,7.1
					L1715.8-131.4z M1777.1-166.8l35.4,61.3l-36.8,21.2l-35.4-61.3l12.3-7.1l28.3,49.1l12.3-7.1l-28.3-49.1L1777.1-166.8z
					 M1855-31.9l-35.4-61.3l-36.8,21.2l35.4,61.3l12.3-7.1l-28.3-49.1l12.3-7.1l28.3,49.1L1855-31.9z"/>
				<path class="st3" d="M643.7,503.9l63.7,110.4L597.1,678l-63.7-110.4L643.7,503.9z M648.9,484.6L514,562.5l77.9,134.9l134.9-77.9
					L648.9,484.6z M633.4,542.6l35.4,61.3l-61.3,35.4L572.1,578L633.4,542.6z M638.6,523.3l-85.8,49.6l49.6,85.8l85.8-49.6
					L638.6,523.3z M630.1,593.6l-7.1-12.3l-12.3,7.1l7.1,12.3L630.1,593.6z M591.4,583.2l36.8-21.2l21.2,36.8L612.6,620L591.4,583.2
					z"/>
				<path class="st3" d="M749.4,573.7l36.8-21.2l-63.7-110.4l-12.3,7.1l56.6,98.1l-12.3,7.1L698,456.3l-12.3,7.1L749.4,573.7z
					 M874,534.5l-77.9-134.9l-12.3,7.1l70.8,122.6l-110.4,63.7l-70.8-122.6l-12.3,7.1l77.9,134.9L874,534.5z M835.3,524.1
					l-36.8,21.2L734.8,435l12.3-7.1l56.6,98.1l12.3-7.1l-56.6-98.1l12.3-7.1L835.3,524.1z"/>
				<path class="st3" d="M1372.4,66.9l12.3-7.1l77.9,134.9l-12.3,7.1L1372.4,66.9z M1249.8,137.7l12.3-7.1l77.9,134.9l-12.3,7.1
					L1249.8,137.7z M1360.2,74l-12.3,7.1l77.9,134.9l12.3-7.1L1360.2,74z M1274.3,123.5l12.3-7.1l77.9,134.9l-12.3,7.1L1274.3,123.5
					z M1335.6,88.1l35.4,61.3l-36.8,21.2l-35.4-61.3l12.3-7.1l28.3,49.1l12.3-7.1l-28.3-49.1L1335.6,88.1z M1413.5,223l-35.4-61.3
					l-36.8,21.2l35.4,61.3l12.3-7.1l-28.3-49.1l12.3-7.1l28.3,49.1L1413.5,223z"/>
				<path class="st3" d="M1526.7-5.8l63.7,110.4L1480,168.3l-63.7-110.4L1526.7-5.8z M1531.8-25.2L1397,52.7l77.9,134.9l134.9-77.9
					L1531.8-25.2z M1516.3,32.9l35.4,61.3l-61.3,35.4L1455,68.3L1516.3,32.9z M1521.5,13.5l-85.8,49.6l49.6,85.8l85.8-49.6
					L1521.5,13.5z M1513,83.8l-7.1-12.3l-12.3,7.1l7.1,12.3L1513,83.8z M1474.3,73.4l36.8-21.2l21.2,36.8l-36.8,21.2L1474.3,73.4z"
					/>
				<path class="st3" d="M1632.4,64l36.8-21.2l-63.7-110.4l-12.3,7.1l56.6,98.1l-12.3,7.1l-56.6-98.1l-12.3,7.1L1632.4,64z
					 M1756.9,24.8L1679-110.1l-12.3,7.1l70.8,122.6l-110.4,63.7l-70.8-122.6l-12.3,7.1l77.9,134.9L1756.9,24.8z M1718.2,14.4
					l-36.8,21.2l-63.7-110.4l12.3-7.1l56.6,98.1l12.3-7.1l-56.6-98.1l12.3-7.1L1718.2,14.4z"/>
				<path class="st3" d="M1489.1,637.2l-36.8,21.2L1388.6,548l12.3-7.1l56.6,98.1l12.3-7.1l-56.6-98.1l12.3-7.1L1489.1,637.2z
					 M1527.8,647.5l-77.9-134.9l-12.3,7.1l70.8,122.6l-110.4,63.7l-70.8-122.6l-12.3,7.1l77.9,134.9L1527.8,647.5z M1403.3,686.7
					l36.8-21.2l-63.7-110.4l-12.3,7.1l56.6,98.1l-12.3,7.1l-56.6-98.1l-12.3,7.1L1403.3,686.7z"/>
				<path class="st3" d="M1584.8,434.8l12.3-7.1l77.9,134.9l-12.3,7.1L1584.8,434.8z M1462.2,505.6l12.3-7.1l77.9,134.9l-12.3,7.1
					L1462.2,505.6z M1572.6,441.8l-12.3,7.1l77.9,134.9l12.3-7.1L1572.6,441.8z M1486.7,491.4l12.3-7.1l77.9,134.9l-12.3,7.1
					L1486.7,491.4z M1548,456l35.4,61.3l-36.8,21.2l-35.4-61.3l12.3-7.1l28.3,49.1l12.3-7.1l-28.3-49.1L1548,456z M1625.9,590.9
					l-35.4-61.3l-36.8,21.2l35.4,61.3l12.3-7.1l-28.3-49.1l12.3-7.1l28.3,49.1L1625.9,590.9z"/>
				<path class="st3" d="M1739,362.1l63.7,110.4l-110.4,63.7l-63.7-110.4L1739,362.1z M1744.2,342.7l-134.9,77.9l77.9,134.9
					l134.9-77.9L1744.2,342.7z M1728.7,400.7l35.4,61.3l-61.3,35.4l-35.4-61.3L1728.7,400.7z M1733.9,381.4L1648,431l49.6,85.8
					l85.8-49.6L1733.9,381.4z M1725.4,451.7l-7.1-12.3l-12.3,7.1l7.1,12.3L1725.4,451.7z M1686.7,441.3l36.8-21.2l21.2,36.8
					l-36.8,21.2L1686.7,441.3z"/>
				<path class="st3" d="M-164.3,463.6l12.3-7.1l77.9,134.9l-12.3,7.1L-164.3,463.6z M-287,534.4l12.3-7.1l77.9,134.9l-12.3,7.1
					L-287,534.4z M-176.6,470.7l-12.3,7.1l77.9,134.9l12.3-7.1L-176.6,470.7z M-262.4,520.3l12.3-7.1l77.9,134.9l-12.3,7.1
					L-262.4,520.3z M-201.1,484.9l35.4,61.3l-36.8,21.2l-35.4-61.3l12.3-7.1l28.3,49.1l12.3-7.1l-28.3-49.1L-201.1,484.9z
					 M-123.3,619.7l-35.4-61.3l-36.8,21.2L-160,641l12.3-7.1l-28.3-49.1l12.3-7.1l28.3,49.1L-123.3,619.7z"/>
				<path class="st3" d="M-10.1,390.9l63.7,110.4L-56.8,565l-63.7-110.4L-10.1,390.9z M-4.9,371.6l-134.9,77.9l77.9,134.9
					l134.9-77.9L-4.9,371.6z M-20.5,429.6l35.4,61.3l-61.3,35.4L-81.8,465L-20.5,429.6z M-15.3,410.3l-85.8,49.6l49.6,85.8
					l85.8-49.6L-15.3,410.3z M-23.8,480.6l-7.1-12.3l-12.3,7.1l7.1,12.3L-23.8,480.6z M-62.4,470.2l36.8-21.2l21.2,36.8L-41.2,507
					L-62.4,470.2z"/>
				<path class="st3" d="M95.6,460.7l36.8-21.2L68.6,329.1l-12.3,7.1l56.6,98.1l-12.3,7.1l-56.6-98.1l-12.3,7.1L95.6,460.7z
					 M220.1,421.5l-77.9-134.9l-12.3,7.1l70.8,122.6L90.4,480L19.6,357.4l-12.3,7.1l77.9,134.9L220.1,421.5z M181.4,411.1
					l-36.8,21.2L80.9,322l12.3-7.1l56.6,98.1l12.3-7.1l-56.6-98.1l12.3-7.1L181.4,411.1z"/>
				<path class="st3" d="M718.6-46.1l12.3-7.1l77.9,134.9l-12.3,7.1L718.6-46.1z M595.9,24.7l12.3-7.1l77.9,134.9l-12.3,7.1
					L595.9,24.7z M706.3-39.1L694-32l77.9,134.9l12.3-7.1L706.3-39.1z M620.5,10.5l12.3-7.1l77.9,134.9l-12.3,7.1L620.5,10.5z
					 M681.8-24.9l35.4,61.3l-36.8,21.2L645-3.7l12.3-7.1l28.3,49.1l12.3-7.1l-28.3-49.1L681.8-24.9z M759.7,110l-35.4-61.3
					l-36.8,21.2l35.4,61.3l12.3-7.1l-28.3-49.1l12.3-7.1l28.3,49.1L759.7,110z"/>
				<path class="st3" d="M872.8-118.8L936.5-8.5L826.2,55.3L762.4-55.1L872.8-118.8z M878-138.2L743.1-60.3L821,74.6L955.9-3.3
					L878-138.2z M862.4-80.1l35.4,61.3l-61.3,35.4l-35.4-61.3L862.4-80.1z M867.6-99.5l-85.8,49.6l49.6,85.8l85.8-49.6L867.6-99.5z
					 M859.1-29.2l-7.1-12.3l-12.3,7.1l7.1,12.3L859.1-29.2z M820.5-39.6l36.8-21.2L878.5-24L841.7-2.8L820.5-39.6z"/>
				<path class="st3" d="M1064.3-98.6l-36.8,21.2l-63.7-110.4l12.3-7.1l56.6,98.1l12.3-7.1l-56.6-98.1l12.3-7.1L1064.3-98.6z
					 M1103-88.2l-77.9-134.9l-12.3,7.1l70.8,122.6L973.3-29.7l-70.8-122.6l-12.3,7.1l77.9,134.9L1103-88.2z M978.5-49l36.8-21.2
					l-63.7-110.4l-12.3,7.1l56.6,98.1l-12.3,7.1L927-166.5l-12.3,7.1L978.5-49z"/>
				<path class="st3" d="M154.5,279.5l12.3-7.1l77.9,134.9l-12.3,7.1L154.5,279.5z M277.1,208.7l12.3-7.1l77.9,134.9l-12.3,7.1
					L277.1,208.7z M264.9,215.8l-12.3,7.1l77.9,134.9l12.3-7.1L264.9,215.8z M179,265.4l12.3-7.1l77.9,134.9l-12.3,7.1L179,265.4z
					 M240.3,230l35.4,61.3l-36.8,21.2l-35.4-61.3l12.3-7.1l28.3,49.1l12.3-7.1l-28.3-49.1L240.3,230z M318.2,364.9l-35.4-61.3
					L246,324.8l35.4,61.3l12.3-7.1L265.4,330l12.3-7.1l28.3,49.1L318.2,364.9z"/>
				<path class="st3" d="M431.3,136l63.7,110.4l-110.4,63.7L321,199.8L431.3,136z M436.5,116.7l-134.9,77.9l77.9,134.9l134.9-77.9
					L436.5,116.7z M421,174.7l35.4,61.3l-61.3,35.4l-35.4-61.3L421,174.7z M426.2,155.4l-85.8,49.6l49.6,85.8l85.8-49.6L426.2,155.4
					z M417.7,225.7l-7.1-12.3l-12.3,7.1l7.1,12.3L417.7,225.7z M379,215.3l36.8-21.2l21.2,36.8l-36.8,21.2L379,215.3z"/>
				<path class="st3" d="M537,205.8l36.8-21.2L510.1,74.2l-12.3,7.1l56.6,98.1l-12.3,7.1l-56.6-98.1l-12.3,7.1L537,205.8z
					 M661.6,166.6L583.7,31.7l-12.3,7.1l70.8,122.6l-110.4,63.7l-70.8-122.6l-12.3,7.1l77.9,134.9L661.6,166.6z M622.9,156.3
					l-36.8,21.2L522.4,67.1l12.3-7.1l56.6,98.1l12.3-7.1L546.9,53l12.3-7.1L622.9,156.3z"/>
				<path class="st3" d="M-102.7,117.3l63.7,110.4l-110.4,63.7L-213,181.1L-102.7,117.3z M-97.5,98l-134.9,77.9l77.9,134.9
					l134.9-77.9L-97.5,98z M-113,156l35.4,61.3l-61.3,35.4l-35.4-61.3L-113,156z M-107.8,136.7l-85.8,49.6l49.6,85.8l85.8-49.6
					L-107.8,136.7z M-116.3,207l-7.1-12.3l-12.3,7.1l7.1,12.3L-116.3,207z M-155,196.6l36.8-21.2l21.2,36.8l-36.8,21.2L-155,196.6z"
					/>
				<path class="st3" d="M127.6,147.9L49.7,13l-12.3,7.1l70.8,122.6L-2.2,206.5L-73,83.8l-12.3,7.1l77.9,134.9L127.6,147.9z
					 M3,187.1l36.8-21.2L-23.9,55.5l-12.3,7.1l56.6,98.1l-12.3,7.1l-56.6-98.1l-12.3,7.1L3,187.1z M88.9,137.6l-36.8,21.2
					L-11.6,48.4l12.3-7.1l56.6,98.1l12.3-7.1L12.9,34.3l12.3-7.1L88.9,137.6z"/>
				<path class="st3" d="M147.8-43.6l35.4,61.3L146.4,39L111-22.4l12.3-7.1l28.3,49.1l12.3-7.1l-28.3-49.1L147.8-43.6z M172.3-57.8
					L160-50.7l77.9,134.9l12.3-7.1L172.3-57.8z M61.9,6l12.3-7.1l77.9,134.9l-12.3,7.1L61.9,6z M184.6-64.8l12.3-7.1L274.7,63
					l-12.3,7.1L184.6-64.8z M86.5-8.2l12.3-7.1l77.9,134.9l-12.3,7.1L86.5-8.2z M225.7,91.3L190.3,30l-36.8,21.2l35.4,61.3l12.3-7.1
					l-28.3-49.1l12.3-7.1l28.3,49.1L225.7,91.3z"/>
				<path class="st3" d="M338.8-137.5l63.7,110.4L292.2,36.6L228.4-73.8L338.8-137.5z M344-156.9L209.1-79L287,55.9L421.9-22
					L344-156.9z M328.4-98.8l35.4,61.3L302.5-2.1l-35.4-61.3L328.4-98.8z M333.6-118.2l-85.8,49.6l49.6,85.8l85.8-49.6L333.6-118.2z
					 M325.1-47.9l-7.1-12.3l-12.3,7.1l7.1,12.3L325.1-47.9z M286.5-58.3l36.8-21.2l21.2,36.8l-36.8,21.2L286.5-58.3z"/>
				<path class="st3" d="M952.7,472.7l12.3-7.1l77.9,134.9l-12.3,7.1L952.7,472.7z M928.2,486.9l12.3-7.1l77.9,134.9l-12.3,7.1
					L928.2,486.9z M1050.8,416.1l12.3-7.1l77.9,134.9l-12.3,7.1L1050.8,416.1z M1038.6,423.1l-12.3,7.1l77.9,134.9l12.3-7.1
					L1038.6,423.1z M1014,437.3l35.4,61.3l-36.8,21.2l-35.4-61.3l12.3-7.1l28.3,49.1l12.3-7.1l-28.3-49.1L1014,437.3z M1091.9,572.2
					l-35.4-61.3l-36.8,21.2l35.4,61.3l12.3-7.1l-28.3-49.1l12.3-7.1l28.3,49.1L1091.9,572.2z"/>
				<path class="st3" d="M1205,343.4l63.7,110.4l-110.4,63.7l-63.7-110.4L1205,343.4z M1210.2,324l-134.9,77.9l77.9,134.9
					l134.9-77.9L1210.2,324z M1194.7,382l35.4,61.3l-61.3,35.4l-35.4-61.3L1194.7,382z M1199.9,362.7l-85.8,49.6l49.6,85.8
					l85.8-49.6L1199.9,362.7z M1191.4,433l-7.1-12.3l-12.3,7.1l7.1,12.3L1191.4,433z M1152.7,422.6l36.8-21.2l21.2,36.8l-36.8,21.2
					L1152.7,422.6z"/>
				<path class="st3" d="M1310.7,413.1l36.8-21.2l-63.7-110.4l-12.3,7.1l56.6,98.1l-12.3,7.1l-56.6-98.1l-12.3,7.1L1310.7,413.1z
					 M1435.3,373.9l-77.9-134.9l-12.3,7.1l70.8,122.6l-110.4,63.7l-70.8-122.6l-12.3,7.1l77.9,134.9L1435.3,373.9z M1396.6,363.6
					l-36.8,21.2l-63.7-110.4l12.3-7.1l56.6,98.1l12.3-7.1l-56.6-98.1l12.3-7.1L1396.6,363.6z"/>
				<path class="st3" d="M993.8,628.8l-77.9-134.9l-12.3,7.1l70.8,122.6l-110.4,63.7l-70.8-122.6l-12.3,7.1l77.9,134.9L993.8,628.8z
					 M869.3,668l36.8-21.2l-63.7-110.4l-12.3,7.1l56.6,98.1l-12.3,7.1l-56.6-98.1l-12.3,7.1L869.3,668z M955.1,618.5l-36.8,21.2
					l-63.7-110.4l12.3-7.1l56.6,98.1l12.3-7.1l-56.6-98.1l12.3-7.1L955.1,618.5z"/>
				<path class="st3" d="M1394.2,217.8l12.3-7.1l77.9,134.9l-12.3,7.1L1394.2,217.8z M1492.3,161.2l12.3-7.1l77.9,134.9l-12.3,7.1
					L1492.3,161.2z M1369.6,232l12.3-7.1l77.9,134.9l-12.3,7.1L1369.6,232z M1480,168.3l-12.3,7.1l77.9,134.9l12.3-7.1L1480,168.3z
					 M1455.5,182.4l35.4,61.3l-36.8,21.2l-35.4-61.3l12.3-7.1l28.3,49.1l12.3-7.1l-28.3-49.1L1455.5,182.4z M1533.4,317.3L1498,256
					l-36.8,21.2l35.4,61.3l12.3-7.1l-28.3-49.1l12.3-7.1l28.3,49.1L1533.4,317.3z"/>
				<path class="st3" d="M1646.5,88.5l63.7,110.4l-110.4,63.7l-63.7-110.4L1646.5,88.5z M1651.7,69.1L1516.8,147l77.9,134.9
					l134.9-77.9L1651.7,69.1z M1636.1,127.2l35.4,61.3l-61.3,35.4l-35.4-61.3L1636.1,127.2z M1641.3,107.8l-85.8,49.6l49.6,85.8
					l85.8-49.6L1641.3,107.8z M1632.9,178.1l-7.1-12.3l-12.3,7.1l7.1,12.3L1632.9,178.1z M1594.2,167.8l36.8-21.2l21.2,36.8
					l-36.8,21.2L1594.2,167.8z"/>
				<path class="st3" d="M1752.2,158.3L1789,137l-63.7-110.4l-12.3,7.1l56.6,98.1l-12.3,7.1l-56.6-98.1l-12.3,7.1L1752.2,158.3z
					 M1876.7,119.1l-77.9-134.9l-12.3,7.1l70.8,122.6L1747,177.6L1676.2,55l-12.3,7.1l77.9,134.9L1876.7,119.1z M1838,108.7
					l-36.8,21.2l-63.7-110.4l12.3-7.1l56.6,98.1l12.3-7.1l-56.6-98.1l12.3-7.1L1838,108.7z"/>
				<path class="st3" d="M1606.6,585.7l12.3-7.1l77.9,134.9l-12.3,7.1L1606.6,585.7z M1704.7,529.1l12.3-7.1l77.9,134.9l-12.3,7.1
					L1704.7,529.1z M1582,599.9l12.3-7.1l77.9,134.9l-12.3,7.1L1582,599.9z M1692.4,536.1l-12.3,7.1l77.9,134.9l12.3-7.1
					L1692.4,536.1z M1667.9,550.3l35.4,61.3l-36.8,21.2l-35.4-61.3l12.3-7.1l28.3,49.1l12.3-7.1l-28.3-49.1L1667.9,550.3z
					 M1745.8,685.2l-35.4-61.3l-36.8,21.2l35.4,61.3l12.3-7.1l-28.3-49.1l12.3-7.1l28.3,49.1L1745.8,685.2z"/>
				<path class="st3" d="M109.7,485.2l63.7,110.4L63.1,659.3L-0.6,548.9L109.7,485.2z M114.9,465.9L-20,543.8l77.9,134.9l134.9-77.9
					L114.9,465.9z M99.4,523.9l35.4,61.3l-61.3,35.4l-35.4-61.3L99.4,523.9z M104.6,504.6l-85.8,49.6L68.3,640l85.8-49.6
					L104.6,504.6z M96.1,574.9L89,562.6l-12.3,7.1l7.1,12.3L96.1,574.9z M57.4,564.5l36.8-21.2l21.2,36.8l-36.8,21.2L57.4,564.5z"/>
				<path class="st3" d="M340,515.8l-77.9-134.9l-12.3,7.1l70.8,122.6l-110.4,63.7l-70.8-122.6l-12.3,7.1l77.9,134.9L340,515.8z
					 M215.4,555l36.8-21.2l-63.7-110.4l-12.3,7.1l56.6,98.1l-12.3,7.1L164,437.6l-12.3,7.1L215.4,555z M301.3,505.5l-36.8,21.2
					l-63.7-110.4l12.3-7.1l56.6,98.1l12.3-7.1l-56.6-98.1l12.3-7.1L301.3,505.5z"/>
				<path class="st3" d="M740.3,104.8l12.3-7.1l77.9,134.9l-12.3,7.1L740.3,104.8z M838.4,48.2l12.3-7.1L928.6,176l-12.3,7.1
					L838.4,48.2z M715.8,119l12.3-7.1l77.9,134.9l-12.3,7.1L715.8,119z M826.2,55.3l-12.3,7.1l77.9,134.9l12.3-7.1L826.2,55.3z
					 M801.6,69.4l35.4,61.3L800.2,152l-35.4-61.3l12.3-7.1l28.3,49.1l12.3-7.1l-28.3-49.1L801.6,69.4z M879.5,204.3L844.1,143
					l-36.8,21.2l35.4,61.3l12.3-7.1l-28.3-49.1l12.3-7.1l28.3,49.1L879.5,204.3z"/>
				<path class="st3" d="M992.7-24.5l63.7,110.4L946,149.6L882.3,39.2L992.7-24.5z M997.8-43.9L862.9,34l77.9,134.9L1075.7,91
					L997.8-43.9z M982.3,14.2l35.4,61.3l-61.3,35.4L921,49.6L982.3,14.2z M987.5-5.2l-85.8,49.6l49.6,85.8l85.8-49.6L987.5-5.2z
					 M979,65.1l-7.1-12.3l-12.3,7.1l7.1,12.3L979,65.1z M940.3,54.7l36.8-21.2l21.2,36.8l-36.8,21.2L940.3,54.7z"/>
				<path class="st3" d="M1098.3,45.3l36.8-21.2l-63.7-110.4l-12.3,7.1l56.6,98.1l-12.3,7.1l-56.6-98.1l-12.3,7.1L1098.3,45.3z
					 M1222.9,6.1L1145-128.8l-12.3,7.1l70.8,122.6l-110.4,63.7L1022.4-58l-12.3,7.1L1088,83.9L1222.9,6.1z M1184.2-4.3l-36.8,21.2
					l-63.7-110.4l12.3-7.1l56.6,98.1l12.3-7.1l-56.6-98.1l12.3-7.1L1184.2-4.3z"/>
				<path class="st3" d="M360.2,324.3l35.4,61.3l-36.8,21.2l-35.4-61.3l12.3-7.1l28.3,49.1l12.3-7.1l-28.3-49.1L360.2,324.3z
					 M384.7,310.1l-12.3,7.1l77.9,134.9l12.3-7.1L384.7,310.1z M274.3,373.8l12.3-7.1l77.9,134.9l-12.3,7.1L274.3,373.8z M397,303
					l12.3-7.1l77.9,134.9l-12.3,7.1L397,303z M298.9,359.7l12.3-7.1L389,487.5l-12.3,7.1L298.9,359.7z M438.1,459.2l-35.4-61.3
					l-36.8,21.2l35.4,61.3l12.3-7.1l-28.3-49.1l12.3-7.1l28.3,49.1L438.1,459.2z"/>
				<path class="st3" d="M551.2,230.4l63.7,110.4l-110.4,63.7l-63.7-110.4L551.2,230.4z M556.4,211l-134.9,77.9l77.9,134.9
					l134.9-77.9L556.4,211z M540.8,269l35.4,61.3l-61.3,35.4l-35.4-61.3L540.8,269z M546,249.7l-85.8,49.6l49.6,85.8l85.8-49.6
					L546,249.7z M537.5,320l-7.1-12.3l-12.3,7.1l7.1,12.3L537.5,320z M498.9,309.6l36.8-21.2l21.2,36.8l-36.8,21.2L498.9,309.6z"/>
				<path class="st3" d="M656.9,300.1l36.8-21.2L630,168.5l-12.3,7.1l56.6,98.1l-12.3,7.1l-56.6-98.1l-12.3,7.1L656.9,300.1z
					 M781.4,260.9l-77.9-134.9l-12.3,7.1l70.8,122.6l-110.4,63.7l-70.8-122.6l-12.3,7.1l77.9,134.9L781.4,260.9z M742.7,250.6
					l-36.8,21.2l-63.7-110.4l12.3-7.1l56.6,98.1l12.3-7.1l-56.6-98.1l12.3-7.1L742.7,250.6z"/>
				<path class="st3" d="M1181.8-150.1l12.3-7.1l77.9,134.9l-12.3,7.1L1181.8-150.1z M1279.9-206.7l12.3-7.1L1370-78.9l-12.3,7.1
					L1279.9-206.7z M1157.3-135.9l12.3-7.1l77.9,134.9L1235.1-1L1157.3-135.9z M1267.6-199.6l-12.3,7.1l77.9,134.9l12.3-7.1
					L1267.6-199.6z M1243.1-185.5l35.4,61.3l-36.8,21.2l-35.4-61.3l12.3-7.1l28.3,49.1l12.3-7.1l-28.3-49.1L1243.1-185.5z
					 M1321-50.6l-35.4-61.3l-36.8,21.2l35.4,61.3l12.3-7.1l-28.3-49.1l12.3-7.1l28.3,49.1L1321-50.6z"/>
			</g>
		</g>
	</g>
</g>
<g>
	<defs>
		<rect id="SVGID_00000078747254370109725650000010077156186160886173_" x="-21" y="-915.1" width="1610" height="1610"/>
	</defs>
	<clipPath id="SVGID_00000026879989472247450560000003847064412859642515_">
		<use xlink:href="#SVGID_00000078747254370109725650000010077156186160886173_"  style="overflow:visible;"/>
	</clipPath>
	<g style="clip-path:url(#SVGID_00000026879989472247450560000003847064412859642515_);">
		<polygon class="st5" points="-26,696.8 514.4,156.4 1054.8,696.8 		"/>
		<polygon class="st6" points="-26,696.8 514.4,156.4 631.9,696.8 		"/>
	</g>
	<g style="clip-path:url(#SVGID_00000026879989472247450560000003847064412859642515_);">
		<g>
			<path class="st5" d="M21.5,265.2c-195,1.4-413.9,1.4-608.9,0C-392.4,263.8-173.6,263.8,21.5,265.2L21.5,265.2z"/>
		</g>
		<g>
			<path class="st5" d="M56.3,284.3c-195,1.4-413.9,1.4-608.9,0C-357.6,282.9-138.8,282.9,56.3,284.3L56.3,284.3z"/>
		</g>
		<g>
			<path class="st5" d="M91.1,303.5c-195,1.4-413.9,1.4-608.9,0C-322.8,302.1-103.9,302.1,91.1,303.5L91.1,303.5z"/>
		</g>
		<g>
			<path class="st5" d="M125.9,322.6c-195,1.4-413.9,1.4-608.9,0C-287.9,321.2-69.1,321.2,125.9,322.6L125.9,322.6z"/>
		</g>
		<g>
			<path class="st5" d="M160.7,341.8c-195,1.4-413.9,1.4-608.9,0C-253.1,340.3-34.3,340.3,160.7,341.8L160.7,341.8z"/>
		</g>
		<g>
			<path class="st5" d="M195.5,360.9c-195,1.4-413.9,1.4-608.9,0C-218.3,359.5,0.5,359.5,195.5,360.9L195.5,360.9z"/>
		</g>
		<g>
			<path class="st5" d="M230.3,380c-195,1.4-413.9,1.4-608.9,0C-183.5,378.6,35.3,378.6,230.3,380L230.3,380z"/>
		</g>
		<g>
			<path class="st5" d="M265.2,399.2c-195,1.4-413.9,1.4-608.9,0C-148.7,397.8,70.1,397.8,265.2,399.2L265.2,399.2z"/>
		</g>
		<g>
			<path class="st5" d="M300,418.3c-195,1.4-413.9,1.4-608.9,0C-113.9,416.9,104.9,416.9,300,418.3L300,418.3z"/>
		</g>
		<g>
			<path class="st5" d="M334.8,437.5c-195,1.4-413.9,1.4-608.9,0C-79.1,436.1,139.7,436.1,334.8,437.5L334.8,437.5z"/>
		</g>
		<g>
			<path class="st5" d="M369.6,456.6c-195,1.4-413.9,1.4-608.9,0C-44.3,455.2,174.5,455.2,369.6,456.6L369.6,456.6z"/>
		</g>
		<g>
			<path class="st5" d="M404.4,475.8c-195,1.4-413.9,1.4-608.9,0C-9.5,474.3,209.3,474.4,404.4,475.8L404.4,475.8z"/>
		</g>
		<g>
			<path class="st5" d="M439.2,494.9c-195,1.4-413.9,1.4-608.9,0C25.4,493.5,244.2,493.5,439.2,494.9L439.2,494.9z"/>
		</g>
		<g>
			<path class="st5" d="M474,514c-195,1.4-413.9,1.4-608.9,0C60.2,512.6,279,512.6,474,514L474,514z"/>
		</g>
		<g>
			<path class="st5" d="M508.8,533.2c-195,1.4-413.9,1.4-608.9,0C95,531.8,313.8,531.8,508.8,533.2L508.8,533.2z"/>
		</g>
		<g>
			<path class="st5" d="M543.6,552.3c-195,1.4-413.9,1.4-608.9,0C129.8,550.9,348.6,550.9,543.6,552.3L543.6,552.3z"/>
		</g>
		<g>
			<path class="st5" d="M578.4,571.5c-195,1.4-413.9,1.4-608.9,0C164.6,570.1,383.4,570.1,578.4,571.5L578.4,571.5z"/>
		</g>
		<g>
			<path class="st5" d="M613,590.4c-195,1.4-413.9,1.4-608.9,0C199.2,589,418,589,613,590.4L613,590.4z"/>
		</g>
		<g>
			<path class="st5" d="M647.6,609.3c-195,1.4-413.9,1.4-608.9,0C233.7,607.9,452.5,607.9,647.6,609.3L647.6,609.3z"/>
		</g>
		<g>
			<path class="st5" d="M682.2,628.2c-195,1.4-413.9,1.4-608.9,0C268.3,626.8,487.1,626.8,682.2,628.2L682.2,628.2z"/>
		</g>
		<g>
			<path class="st5" d="M716.7,647.2c-195,1.4-413.9,1.4-608.9,0C302.9,645.7,521.7,645.8,716.7,647.2L716.7,647.2z"/>
		</g>
		<g>
			<path class="st5" d="M751.3,666.1c-195,1.4-413.9,1.4-608.9,0C337.5,664.7,556.3,664.7,751.3,666.1L751.3,666.1z"/>
		</g>
		<g>
			<path class="st5" d="M785.9,685c-195,1.4-413.9,1.4-608.9,0C372,683.6,590.8,683.6,785.9,685L785.9,685z"/>
		</g>
	</g>
	
		<path style="clip-path:url(#SVGID_00000026879989472247450560000003847064412859642515_);fill:none;stroke:#FFDA48;stroke-width:21;stroke-miterlimit:10;" d="
		M1838.7-856.8C1688.7,106.2,786.4,765.4-176.7,615.4"/>
</g>
<polygon class="st8" points="1594,234.9 516.3,694.5 -16,269.7 -16,694.5 1594,694.5 "/>
</svg>
