<?xml version="1.0" encoding="utf-8"?>
<!-- Generator: Adobe Illustrator 26.0.1, SVG Export Plug-In . SVG Version: 6.00 Build 0)  -->
<svg version="1.1" id="Слой_1" xmlns="http://www.w3.org/2000/svg" xmlns:xlink="http://www.w3.org/1999/xlink" x="0px" y="0px"
	 viewBox="0 0 944 657" style="enable-background:new 0 0 944 657;" xml:space="preserve">
<style type="text/css">
	.st0{fill:#59AAF3;}
	.st1{clip-path:url(#SVGID_00000075865452081444370270000013036982257343966398_);}
	.st2{clip-path:url(#SVGID_00000016067287565362651290000002358016830067221949_);}
	.st3{fill-rule:evenodd;clip-rule:evenodd;fill:#202124;}
	.st4{clip-path:url(#SVGID_00000067223411758585807680000010414448072831470467_);}
	.st5{fill:#FFDA48;}
	.st6{fill:#FF6C3C;}
	
		.st7{clip-path:url(#SVGID_00000067223411758585807680000010414448072831470467_);fill:none;stroke:#FFDA48;stroke-width:21;stroke-miterlimit:10;}
	.st8{fill:#F4ECE0;}
</style>
<g>
	<rect x="-9.5" y="-560.9" class="st0" width="1236.1" height="1236.1"/>
	<g>
		<defs>
			<rect id="SVGID_1_" x="-3" y="-79.7" width="950" height="661.2"/>
		</defs>
		<clipPath id="SVGID_00000165222535149705670590000006884486571269122977_">
			<use xlink:href="#SVGID_1_"  style="overflow:visible;"/>
		</clipPath>
		<g style="clip-path:url(#SVGID_00000165222535149705670590000006884486571269122977_);">
			<rect x="-3" y="-79.7" class="st0" width="950" height="661.2"/>
			<g>
				<defs>
					
						<rect id="SVGID_00000136397617760946599440000005301713953195338635_" x="-962.1" y="-371.5" transform="matrix(0.866 -0.5 0.5 0.866 -61.9813 269.5532)" width="2868.1" height="1243.9"/>
				</defs>
				<clipPath id="SVGID_00000096059718852668160670000009718018023096591270_">
					<use xlink:href="#SVGID_00000136397617760946599440000005301713953195338635_"  style="overflow:visible;"/>
				</clipPath>
				<g style="clip-path:url(#SVGID_00000096059718852668160670000009718018023096591270_);">
					<path class="st3" d="M-39.3-172.5l-8.9,5.1L8.4-69.5l8.9-5.1L-39.3-172.5z M-30.4-177.7l8.9-5.1l56.5,97.9l-8.9,5.1
						L-30.4-177.7z M-119.4-126.3l8.9-5.1L-54-33.5l-8.9,5.1L-119.4-126.3z M-101.6-136.6l8.9-5.1l56.5,97.9l-8.9,5.1L-101.6-136.6z
						 M-57.1-162.3l25.7,44.5l-26.7,15.4l-25.7-44.5l8.9-5.1l20.6,35.6l8.9-5.1L-66-157.1L-57.1-162.3z M-0.6-64.3l-25.7-44.5
						L-53-93.4l25.7,44.5l8.9-5.1l-20.6-35.6l8.9-5.1l20.6,35.6L-0.6-64.3z"/>
					<path class="st3" d="M-51.4,546.7l-8.9,5.1l56.5,97.9l8.9-5.1L-51.4,546.7z M-131.5,592.9l8.9-5.1l56.5,97.9l-8.9,5.1
						L-131.5,592.9z M-42.5,541.5l8.9-5.1L23,634.3l-8.9,5.1L-42.5,541.5z M-113.7,582.7l8.9-5.1l56.5,97.9l-8.9,5.1L-113.7,582.7z
						 M-69.2,557l25.7,44.5l-26.7,15.4l-25.7-44.5l8.9-5.1l20.6,35.6l8.9-5.1l-20.6-35.6L-69.2,557z M-12.6,654.9l-25.7-44.5
						l-26.7,15.4l25.7,44.5l8.9-5.1L-51,629.6l8.9-5.1l20.6,35.6L-12.6,654.9z"/>
					<path class="st3" d="M69.5,488.8l46.3,80.1l-80.1,46.3L-10.6,535L69.5,488.8z M73.3,474.7l-97.9,56.5l56.5,97.9l97.9-56.5
						L73.3,474.7z M62,516.8l25.7,44.5l-44.5,25.7l-25.7-44.5L62,516.8z M65.7,502.8l-62.3,36l36,62.3l62.3-36L65.7,502.8z
						 M59.6,553.8l-5.1-8.9l-8.9,5.1l5.1,8.9L59.6,553.8z M31.5,546.3l26.7-15.4l15.4,26.7L46.9,573L31.5,546.3z"/>
					<path class="st3" d="M208.5,503.4l-26.7,15.4l-46.3-80.1l8.9-5.1l41.1,71.2l8.9-5.1l-41.1-71.2l8.9-5.1L208.5,503.4z
						 M146.2,539.4l26.7-15.4l-46.3-80.1l-8.9,5.1l41.1,71.2l-8.9,5.1l-41.1-71.2l-8.9,5.1L146.2,539.4z M236.6,511L180.1,413
						l-8.9,5.1l51.4,89l-80.1,46.3l-51.4-89l-8.9,5.1l56.5,97.9L236.6,511z"/>
					<path class="st3" d="M571.8,186.9l25.7,44.5l-26.7,15.4l-25.7-44.5l8.9-5.1l20.6,35.6l8.9-5.1L562.9,192L571.8,186.9z
						 M527.3,212.6l8.9-5.1l56.5,97.9l-8.9,5.1L527.3,212.6z M589.6,176.6l-8.9,5.1l56.5,97.9l8.9-5.1L589.6,176.6z M509.5,222.9
						l8.9-5.1l56.5,97.9l-8.9,5.1L509.5,222.9z M598.5,171.5l8.9-5.1l56.5,97.9l-8.9,5.1L598.5,171.5z M628.3,284.8l-25.7-44.5
						l-26.7,15.4l25.7,44.5l8.9-5.1L590,259.5l8.9-5.1l20.6,35.6L628.3,284.8z"/>
					<path class="st3" d="M710.5,118.7l46.3,80.1l-80.1,46.3l-46.3-80.1L710.5,118.7z M714.3,104.6l-97.9,56.5l56.5,97.9l97.9-56.5
						L714.3,104.6z M703,146.8l25.7,44.5L684.2,217l-25.7-44.5L703,146.8z M706.7,132.7l-62.3,36l36,62.3l62.3-36L706.7,132.7z
						 M700.6,183.8l-5.1-8.9l-8.9,5.1l5.1,8.9L700.6,183.8z M672.5,176.2l26.7-15.4l15.4,26.7l-26.7,15.4L672.5,176.2z"/>
					<path class="st3" d="M787.2,169.3l26.7-15.4l-46.3-80.1l-8.9,5.1l41.1,71.2l-8.9,5.1l-41.1-71.2l-8.9,5.1L787.2,169.3z
						 M877.6,140.9L821.1,43l-8.9,5.1l51.4,89l-80.1,46.3l-51.4-89l-8.9,5.1l56.5,97.9L877.6,140.9z M849.5,133.4l-26.7,15.4
						l-46.3-80.1l8.9-5.1l41.1,71.2l8.9-5.1l-41.1-71.2l8.9-5.1L849.5,133.4z"/>
					<path class="st3" d="M269.1,361.6l-8.9,5.1l56.5,97.9l8.9-5.1L269.1,361.6z M278,356.5l8.9-5.1l56.5,97.9l-8.9,5.1L278,356.5z
						 M189,407.9l8.9-5.1l56.5,97.9l-8.9,5.1L189,407.9z M206.8,397.6l8.9-5.1l56.5,97.9l-8.9,5.1L206.8,397.6z M251.3,371.9
						l25.7,44.5l-26.7,15.4l-25.7-44.5l8.9-5.1l20.6,35.6l8.9-5.1l-20.6-35.6L251.3,371.9z M307.9,469.8l-25.7-44.5l-26.7,15.4
						l25.7,44.5l8.9-5.1l-20.6-35.6l8.9-5.1l20.6,35.6L307.9,469.8z"/>
					<path class="st3" d="M390,303.7l46.3,80.1l-80.1,46.3L309.9,350L390,303.7z M393.8,289.7l-97.9,56.5l56.5,97.9l97.9-56.5
						L393.8,289.7z M382.5,331.8l25.7,44.5L363.7,402L338,357.5L382.5,331.8z M386.2,317.8l-62.3,36l36,62.3l62.3-36L386.2,317.8z
						 M380.1,368.8l-5.1-8.9L366,365l5.1,8.9L380.1,368.8z M352,361.3l26.7-15.4l15.4,26.7L367.4,388L352,361.3z"/>
					<path class="st3" d="M529,318.4l-26.7,15.4l-46.3-80.1l8.9-5.1l41.1,71.2l8.9-5.1l-41.1-71.2l8.9-5.1L529,318.4z M557.1,325.9
						L500.6,228l-8.9,5.1l51.4,89L463,368.4l-51.4-89l-8.9,5.1l56.5,97.9L557.1,325.9z M466.7,354.4l26.7-15.4l-46.3-80.1l-8.9,5.1
						l41.1,71.2l-8.9,5.1l-41.1-71.2l-8.9,5.1L466.7,354.4z"/>
					<path class="st3" d="M892.3,1.8L918,46.3l-26.7,15.4l-25.7-44.5l8.9-5.1l20.6,35.6l8.9-5.1L883.4,7L892.3,1.8z M830,37.8
						l8.9-5.1l56.5,97.9l-8.9,5.1L830,37.8z M919-13.6l8.9-5.1l56.5,97.9l-8.9,5.1L919-13.6z M910.1-8.4l-8.9,5.1l56.5,97.9l8.9-5.1
						L910.1-8.4z M847.8,27.5l8.9-5.1l56.5,97.9l-8.9,5.1L847.8,27.5z M948.8,99.8l-25.7-44.5l-26.7,15.4l25.7,44.5l8.9-5.1
						l-20.6-35.6l8.9-5.1l20.6,35.6L948.8,99.8z"/>
					<path class="st3" d="M1031-66.4l46.3,80.1L997.1,60l-46.3-80.1L1031-66.4z M1034.8-80.4l-97.9,56.5l56.5,97.9l97.9-56.5
						L1034.8-80.4z M1023.5-38.3l25.7,44.5l-44.5,25.7l-25.7-44.5L1023.5-38.3z M1027.2-52.3l-62.3,36l36,62.3l62.3-36L1027.2-52.3z
						 M1021.1-1.3l-5.1-8.9l-8.9,5.1l5.1,8.9L1021.1-1.3z M993-8.8l26.7-15.4l15.4,26.7l-26.7,15.4L993-8.8z"/>
					<path class="st3" d="M726,454l25.7,44.5L725,513.9l-25.7-44.5l8.9-5.1l20.6,35.6l8.9-5.1l-20.6-35.6L726,454z M663.7,489.9
						l8.9-5.1l56.5,97.9l-8.9,5.1L663.7,489.9z M752.7,438.5l8.9-5.1l56.5,97.9l-8.9,5.1L752.7,438.5z M743.8,443.7l-8.9,5.1
						l56.5,97.9l8.9-5.1L743.8,443.7z M681.5,479.7l8.9-5.1l56.5,97.9l-8.9,5.1L681.5,479.7z M782.6,551.9l-25.7-44.5l-26.7,15.4
						l25.7,44.5l8.9-5.1l-20.6-35.6l8.9-5.1l20.6,35.6L782.6,551.9z"/>
					<path class="st3" d="M864.7,385.8l46.3,80.1l-80.1,46.3L784.6,432L864.7,385.8z M868.5,371.7l-97.9,56.5l56.5,97.9l97.9-56.5
						L868.5,371.7z M857.2,413.8l25.7,44.5l-44.5,25.7l-25.7-44.5L857.2,413.8z M860.9,399.8l-62.3,36l36,62.3l62.3-36L860.9,399.8z
						 M854.8,450.8l-5.1-8.9l-8.9,5.1l5.1,8.9L854.8,450.8z M826.7,443.3l26.7-15.4l15.4,26.7L842.1,470L826.7,443.3z"/>
					<path class="st3" d="M1031.8,408L975.3,310l-8.9,5.1l51.4,89l-80.1,46.3l-51.4-89l-8.9,5.1l56.5,97.9L1031.8,408z M941.4,436.4
						l26.7-15.4l-46.3-80.1L913,346l41.1,71.2l-8.9,5.1l-41.1-71.2l-8.9,5.1L941.4,436.4z M1003.7,400.4L977,415.9l-46.3-80.1
						l8.9-5.1l41.1,71.2l8.9-5.1l-41.1-71.2l8.9-5.1L1003.7,400.4z"/>
					<path class="st3" d="M544.2,570.8l46.3,80.1l-80.1,46.3l-46.3-80.1L544.2,570.8z M548,556.8L450,613.3l56.5,97.9l97.9-56.5
						L548,556.8z M536.7,598.9l25.7,44.5l-44.5,25.7l-25.7-44.5L536.7,598.9z M540.4,584.8l-62.3,36l36,62.3l62.3-36L540.4,584.8z
						 M534.3,635.9l-5.1-8.9l-8.9,5.1l5.1,8.9L534.3,635.9z M506.2,628.3l26.7-15.4l15.4,26.7l-26.7,15.4L506.2,628.3z"/>
					<path class="st3" d="M620.9,621.5l26.7-15.4l-46.3-80.1l-8.9,5.1l41.1,71.2l-8.9,5.1l-41.1-71.2l-8.9,5.1L620.9,621.5z
						 M711.3,593l-56.5-97.9l-8.9,5.1l51.4,89l-80.1,46.3l-51.4-89l-8.9,5.1l56.5,97.9L711.3,593z M683.2,585.5l-26.7,15.4
						l-46.3-80.1l8.9-5.1l41.1,71.2l8.9-5.1l-41.1-71.2l8.9-5.1L683.2,585.5z"/>
					<path class="st3" d="M54.3,236.4l-26.7,15.4l-46.3-80.1l8.9-5.1l41.1,71.2l8.9-5.1l-41.1-71.2l8.9-5.1L54.3,236.4z M-8,272.3
						l26.7-15.4l-46.3-80.1l-8.9,5.1l41.1,71.2l-8.9,5.1l-41.1-71.2l-8.9,5.1L-8,272.3z M82.4,243.9L25.9,146l-8.9,5.1l51.4,89
						l-80.1,46.3l-51.4-89l-8.9,5.1l56.5,97.9L82.4,243.9z"/>
					<path class="st3" d="M417.6-80.2l25.7,44.5l-26.7,15.4l-25.7-44.5l8.9-5.1l20.6,35.6l8.9-5.1l-20.6-35.6L417.6-80.2z
						 M355.3-44.2l8.9-5.1l56.5,97.9l-8.9,5.1L355.3-44.2z M444.3-95.6l8.9-5.1l56.5,97.9l-8.9,5.1L444.3-95.6z M435.4-90.5
						l-8.9,5.1l56.5,97.9l8.9-5.1L435.4-90.5z M373.1-54.5l8.9-5.1l56.5,97.9l-8.9,5.1L373.1-54.5z M474.2,17.7l-25.7-44.5
						l-26.7,15.4l25.7,44.5l8.9-5.1L435.8-7.6l8.9-5.1l20.6,35.6L474.2,17.7z"/>
					<path class="st3" d="M556.3-148.4l46.3,80.1L522.4-22l-46.3-80.1L556.3-148.4z M560.1-162.4l-97.9,56.5L518.7-8l97.9-56.5
						L560.1-162.4z M548.8-120.3l25.7,44.5L530-50.1l-25.7-44.5L548.8-120.3z M552.5-134.4l-62.3,36l36,62.3l62.3-36L552.5-134.4z
						 M546.4-83.3l-5.1-8.9l-8.9,5.1l5.1,8.9L546.4-83.3z M518.3-90.9l26.7-15.4l15.4,26.7l-26.7,15.4L518.3-90.9z"/>
					<path class="st3" d="M633-97.7l26.7-15.4l-46.3-80.1l-8.9,5.1l41.1,71.2l-8.9,5.1L595.7-183l-8.9,5.1L633-97.7z M723.4-126.2
						l-56.5-97.9L658-219l51.4,89l-80.1,46.3l-51.4-89l-8.9,5.1l56.5,97.9L723.4-126.2z M695.3-133.7l-26.7,15.4l-46.3-80.1l8.9-5.1
						l41.1,71.2l8.9-5.1l-41.1-71.2l8.9-5.1L695.3-133.7z"/>
					<path class="st3" d="M123.8,89.4l8.9-5.1l56.5,97.9l-8.9,5.1L123.8,89.4z M34.8,140.8l8.9-5.1l56.5,97.9l-8.9,5.1L34.8,140.8z
						 M114.9,94.6l-8.9,5.1l56.5,97.9l8.9-5.1L114.9,94.6z M52.6,130.5l8.9-5.1l56.5,97.9l-8.9,5.1L52.6,130.5z M97.1,104.8
						l25.7,44.5l-26.7,15.4l-25.7-44.5l8.9-5.1l20.6,35.6l8.9-5.1L88.2,110L97.1,104.8z M153.7,202.8l-25.7-44.5l-26.7,15.4
						l25.7,44.5l8.9-5.1l-20.6-35.6l8.9-5.1l20.6,35.6L153.7,202.8z"/>
					<path class="st3" d="M235.8,36.6l46.3,80.1L201.9,163l-46.3-80.1L235.8,36.6z M239.6,22.6l-97.9,56.5l56.5,97.9l97.9-56.5
						L239.6,22.6z M228.3,64.7l25.7,44.5l-44.5,25.7l-25.7-44.5L228.3,64.7z M232,50.7l-62.3,36l36,62.3l62.3-36L232,50.7z
						 M225.9,101.7l-5.1-8.9l-8.9,5.1l5.1,8.9L225.9,101.7z M197.8,94.2l26.7-15.4l15.4,26.7l-26.7,15.4L197.8,94.2z"/>
					<path class="st3" d="M402.9,58.8l-56.5-97.9l-8.9,5.1l51.4,89l-80.1,46.3l-51.4-89l-8.9,5.1l56.5,97.9L402.9,58.8z M312.5,87.3
						l26.7-15.4L293-8.2l-8.9,5.1l41.1,71.2l-8.9,5.1L275.2,2l-8.9,5.1L312.5,87.3z M374.8,51.3l-26.7,15.4l-46.3-80.1l8.9-5.1
						l41.1,71.2l8.9-5.1l-41.1-71.2l8.9-5.1L374.8,51.3z"/>
					<path class="st3" d="M54.3,236.4l-26.7,15.4l-46.3-80.1l8.9-5.1l41.1,71.2l8.9-5.1l-41.1-71.2l8.9-5.1L54.3,236.4z M-8,272.3
						l26.7-15.4l-46.3-80.1l-8.9,5.1l41.1,71.2l-8.9,5.1l-41.1-71.2l-8.9,5.1L-8,272.3z M82.4,243.9L25.9,146l-8.9,5.1l51.4,89
						l-80.1,46.3l-51.4-89l-8.9,5.1l56.5,97.9L82.4,243.9z"/>
					<path class="st3" d="M417.6-80.2l25.7,44.5l-26.7,15.4l-25.7-44.5l8.9-5.1l20.6,35.6l8.9-5.1l-20.6-35.6L417.6-80.2z
						 M355.3-44.2l8.9-5.1l56.5,97.9l-8.9,5.1L355.3-44.2z M444.3-95.6l8.9-5.1l56.5,97.9l-8.9,5.1L444.3-95.6z M435.4-90.5
						l-8.9,5.1l56.5,97.9l8.9-5.1L435.4-90.5z M373.1-54.5l8.9-5.1l56.5,97.9l-8.9,5.1L373.1-54.5z M474.2,17.7l-25.7-44.5
						l-26.7,15.4l25.7,44.5l8.9-5.1L435.8-7.6l8.9-5.1l20.6,35.6L474.2,17.7z"/>
					<path class="st3" d="M556.3-148.4l46.3,80.1L522.4-22l-46.3-80.1L556.3-148.4z M560.1-162.4l-97.9,56.5L518.7-8l97.9-56.5
						L560.1-162.4z M548.8-120.3l25.7,44.5L530-50.1l-25.7-44.5L548.8-120.3z M552.5-134.4l-62.3,36l36,62.3l62.3-36L552.5-134.4z
						 M546.4-83.3l-5.1-8.9l-8.9,5.1l5.1,8.9L546.4-83.3z M518.3-90.9l26.7-15.4l15.4,26.7l-26.7,15.4L518.3-90.9z"/>
					<path class="st3" d="M633-97.7l26.7-15.4l-46.3-80.1l-8.9,5.1l41.1,71.2l-8.9,5.1L595.7-183l-8.9,5.1L633-97.7z M723.4-126.2
						l-56.5-97.9L658-219l51.4,89l-80.1,46.3l-51.4-89l-8.9,5.1l56.5,97.9L723.4-126.2z M695.3-133.7l-26.7,15.4l-46.3-80.1l8.9-5.1
						l41.1,71.2l8.9-5.1l-41.1-71.2l8.9-5.1L695.3-133.7z"/>
					<path class="st3" d="M123.8,89.4l8.9-5.1l56.5,97.9l-8.9,5.1L123.8,89.4z M34.8,140.8l8.9-5.1l56.5,97.9l-8.9,5.1L34.8,140.8z
						 M114.9,94.6l-8.9,5.1l56.5,97.9l8.9-5.1L114.9,94.6z M52.6,130.5l8.9-5.1l56.5,97.9l-8.9,5.1L52.6,130.5z M97.1,104.8
						l25.7,44.5l-26.7,15.4l-25.7-44.5l8.9-5.1l20.6,35.6l8.9-5.1L88.2,110L97.1,104.8z M153.7,202.8l-25.7-44.5l-26.7,15.4
						l25.7,44.5l8.9-5.1l-20.6-35.6l8.9-5.1l20.6,35.6L153.7,202.8z"/>
					<path class="st3" d="M235.8,36.6l46.3,80.1L201.9,163l-46.3-80.1L235.8,36.6z M239.6,22.6l-97.9,56.5l56.5,97.9l97.9-56.5
						L239.6,22.6z M228.3,64.7l25.7,44.5l-44.5,25.7l-25.7-44.5L228.3,64.7z M232,50.7l-62.3,36l36,62.3l62.3-36L232,50.7z
						 M225.9,101.7l-5.1-8.9l-8.9,5.1l5.1,8.9L225.9,101.7z M197.8,94.2l26.7-15.4l15.4,26.7l-26.7,15.4L197.8,94.2z"/>
					<path class="st3" d="M402.9,58.8l-56.5-97.9l-8.9,5.1l51.4,89l-80.1,46.3l-51.4-89l-8.9,5.1l56.5,97.9L402.9,58.8z M312.5,87.3
						l26.7-15.4L293-8.2l-8.9,5.1l41.1,71.2l-8.9,5.1L275.2,2l-8.9,5.1L312.5,87.3z M374.8,51.3l-26.7,15.4l-46.3-80.1l8.9-5.1
						l41.1,71.2l8.9-5.1l-41.1-71.2l8.9-5.1L374.8,51.3z"/>
					<path class="st3" d="M-76.9-32.1l25.7,44.5l-26.7,15.4l-25.7-44.5l8.9-5.1l20.6,35.6l8.9-5.1L-85.8-27L-76.9-32.1z M-139.2,3.9
						l8.9-5.1l56.5,97.9l-8.9,5.1L-139.2,3.9z M-50.2-47.5l8.9-5.1l56.5,97.9l-8.9,5.1L-50.2-47.5z M-59.1-42.4l-8.9,5.1l56.5,97.9
						l8.9-5.1L-59.1-42.4z M-121.4-6.4l8.9-5.1L-56,86.4l-8.9,5.1L-121.4-6.4z M-20.4,65.8l-25.7-44.5l-26.7,15.4l25.7,44.5l8.9-5.1
						l-20.6-35.6l8.9-5.1L-29.3,71L-20.4,65.8z"/>
					<path class="st3" d="M61.8-100.3L108-20.2L27.9,26.1L-18.4-54L61.8-100.3z M65.5-114.3l-97.9,56.5l56.5,97.9l97.9-56.5
						L65.5-114.3z M54.2-72.2l25.7,44.5L35.4-2L9.7-46.5L54.2-72.2z M58-86.3l-62.3,36l36,62.3l62.3-36L58-86.3z M51.9-35.2
						l-5.1-8.9L37.8-39l5.1,8.9L51.9-35.2z M23.8-42.8l26.7-15.4l15.4,26.7L39.2-16L23.8-42.8z"/>
					<path class="st3" d="M228.9-78.1L172.4-176l-8.9,5.1l51.4,89l-80.1,46.3l-51.4-89l-8.9,5.1L131-21.6L228.9-78.1z M138.5-49.6
						l26.7-15.4L119-145.2L110-140l41.1,71.2l-8.9,5.1l-41.1-71.2l-8.9,5.1L138.5-49.6z M200.8-85.6l-26.7,15.4l-46.3-80.1l8.9-5.1
						l41.1,71.2l8.9-5.1l-41.1-71.2l8.9-5.1L200.8-85.6z"/>
					<path class="st3" d="M126.4,669.6l26.7-15.4L106.9,574l-8.9,5.1l41.1,71.2l-8.9,5.1L89,584.3l-8.9,5.1L126.4,669.6z
						 M216.8,641.1l-56.5-97.9l-8.9,5.1l51.4,89l-80.1,46.3l-51.4-89l-8.9,5.1l56.5,97.9L216.8,641.1z M188.7,633.6L162,649
						l-46.3-80.1l8.9-5.1l41.1,71.2l8.9-5.1l-41.1-71.2l8.9-5.1L188.7,633.6z"/>
					<path class="st3" d="M578.7,301.6l8.9-5.1l56.5,97.9l-8.9,5.1L578.7,301.6z M489.7,353l8.9-5.1l56.5,97.9l-8.9,5.1L489.7,353z
						 M569.8,306.7l-8.9,5.1l56.5,97.9l8.9-5.1L569.8,306.7z M507.5,342.7l8.9-5.1l56.5,97.9l-8.9,5.1L507.5,342.7z M552,317
						l25.7,44.5L551,377l-25.7-44.5l8.9-5.1l20.6,35.6l8.9-5.1l-20.6-35.6L552,317z M608.5,415l-25.7-44.5l-26.7,15.4l25.7,44.5
						l8.9-5.1l-20.6-35.6l8.9-5.1l20.6,35.6L608.5,415z"/>
					<path class="st3" d="M690.7,248.8l46.3,80.1l-80.1,46.3l-46.3-80.1L690.7,248.8z M694.4,234.8l-97.9,56.5l56.5,97.9l97.9-56.5
						L694.4,234.8z M683.1,276.9l25.7,44.5l-44.5,25.7l-25.7-44.5L683.1,276.9z M686.9,262.9l-62.3,36l36,62.3l62.3-36L686.9,262.9z
						 M680.8,313.9l-5.1-8.9l-8.9,5.1l5.1,8.9L680.8,313.9z M652.7,306.4l26.7-15.4l15.4,26.7l-26.7,15.4L652.7,306.4z"/>
					<path class="st3" d="M857.8,271l-56.5-97.9l-8.9,5.1l51.4,89l-80.1,46.3l-51.4-89l-8.9,5.1l56.5,97.9L857.8,271z M767.4,299.5
						l26.7-15.4l-46.3-80.1l-8.9,5.1l41.1,71.2l-8.9,5.1L730,214.2l-8.9,5.1L767.4,299.5z M829.7,263.5L803,278.9l-46.3-80.1
						l8.9-5.1l41.1,71.2l8.9-5.1l-41.1-71.2l8.9-5.1L829.7,263.5z"/>
					<path class="st3" d="M231.5,502.1l25.7,44.5L230.5,562l-25.7-44.5l8.9-5.1l20.6,35.6l8.9-5.1l-20.6-35.6L231.5,502.1z
						 M169.2,538l8.9-5.1l56.5,97.9l-8.9,5.1L169.2,538z M258.2,486.6l8.9-5.1l56.5,97.9l-8.9,5.1L258.2,486.6z M249.3,491.8
						l-8.9,5.1l56.5,97.9l8.9-5.1L249.3,491.8z M187,527.8l8.9-5.1l56.5,97.9l-8.9,5.1L187,527.8z M288,600l-25.7-44.5l-26.7,15.4
						l25.7,44.5l8.9-5.1l-20.6-35.6l8.9-5.1l20.6,35.6L288,600z"/>
					<path class="st3" d="M370.2,433.9l46.3,80.1l-80.1,46.3L290,480.1L370.2,433.9z M373.9,419.8L276,476.4l56.5,97.9l97.9-56.5
						L373.9,419.8z M362.6,462l25.7,44.5l-44.5,25.7l-25.7-44.5L362.6,462z M366.4,447.9l-62.3,36l36,62.3l62.3-36L366.4,447.9z
						 M360.3,498.9l-5.1-8.9l-8.9,5.1l5.1,8.9L360.3,498.9z M332.2,491.4l26.7-15.4l15.4,26.7l-26.7,15.4L332.2,491.4z"/>
					<path class="st3" d="M446.9,484.5l26.7-15.4L427.3,389l-8.9,5.1l41.1,71.2l-8.9,5.1l-41.1-71.2l-8.9,5.1L446.9,484.5z
						 M537.3,456.1l-56.5-97.9l-8.9,5.1l51.4,89l-80.1,46.3l-51.4-89l-8.9,5.1l56.5,97.9L537.3,456.1z M509.2,448.5L482.5,464
						l-46.3-80.1l8.9-5.1l41.1,71.2l8.9-5.1l-41.1-71.2l8.9-5.1L509.2,448.5z"/>
					<path class="st3" d="M899.2,116.6l8.9-5.1l56.5,97.9l-8.9,5.1L899.2,116.6z M810.2,168l8.9-5.1l56.5,97.9l-8.9,5.1L810.2,168z
						 M890.3,121.7l-8.9,5.1l56.5,97.9l8.9-5.1L890.3,121.7z M828,157.7l8.9-5.1l56.5,97.9l-8.9,5.1L828,157.7z M872.5,132
						l25.7,44.5l-26.7,15.4l-25.7-44.5l8.9-5.1l20.6,35.6l8.9-5.1l-20.6-35.6L872.5,132z M929,229.9l-25.7-44.5l-26.7,15.4
						l25.7,44.5l8.9-5.1l-20.6-35.6l8.9-5.1l20.6,35.6L929,229.9z"/>
					<path class="st3" d="M1011.2,63.8l46.3,80.1l-80.1,46.3L931,110L1011.2,63.8z M1014.9,49.7L917,106.3l56.5,97.9l97.9-56.5
						L1014.9,49.7z M1003.6,91.9l25.7,44.5l-44.5,25.7l-25.7-44.5L1003.6,91.9z M1007.4,77.8l-62.3,36l36,62.3l62.3-36L1007.4,77.8z
						 M1001.3,128.9l-5.1-8.9l-8.9,5.1l5.1,8.9L1001.3,128.9z M973.2,121.3l26.7-15.4l15.4,26.7L988.6,148L973.2,121.3z"/>
					<path class="st3" d="M732.9,568.7l8.9-5.1l56.5,97.9l-8.9,5.1L732.9,568.7z M643.9,620.1l8.9-5.1l56.5,97.9l-8.9,5.1
						L643.9,620.1z M724,573.8l-8.9,5.1l56.5,97.9l8.9-5.1L724,573.8z M661.7,609.8l8.9-5.1l56.5,97.9l-8.9,5.1L661.7,609.8z
						 M706.2,584.1l25.7,44.5L705.2,644l-25.7-44.5l8.9-5.1l20.6,35.6l8.9-5.1l-20.6-35.6L706.2,584.1z M762.7,682L737,637.5
						l-26.7,15.4l25.7,44.5l8.9-5.1l-20.6-35.6l8.9-5.1l20.6,35.6L762.7,682z"/>
					<path class="st3" d="M844.9,515.9l46.3,80.1L811,642.3l-46.3-80.1L844.9,515.9z M848.6,501.9l-97.9,56.5l56.5,97.9l97.9-56.5
						L848.6,501.9z M837.3,544l25.7,44.5l-44.5,25.7l-25.7-44.5L837.3,544z M841.1,530l-62.3,36l36,62.3l62.3-36L841.1,530z
						 M835,581l-5.1-8.9l-8.9,5.1l5.1,8.9L835,581z M806.9,573.5l26.7-15.4l15.4,26.7l-26.7,15.4L806.9,573.5z"/>
					<path class="st3" d="M983.9,530.6L957.2,546L911,465.9l8.9-5.1L961,532l8.9-5.1l-41.1-71.2l8.9-5.1L983.9,530.6z M1012,538.1
						l-56.5-97.9l-8.9,5.1l51.4,89l-80.1,46.3l-51.4-89l-8.9,5.1l56.5,97.9L1012,538.1z M921.6,566.6l26.7-15.4L902.1,471l-8.9,5.1
						l41.1,71.2l-8.9,5.1l-41.1-71.2l-8.9,5.1L921.6,566.6z"/>
					<path class="st3" d="M34.5,366.5L7.8,381.9l-46.3-80.1l8.9-5.1l41.1,71.2l8.9-5.1l-41.1-71.2l8.9-5.1L34.5,366.5z M62.6,374
						L6.1,276.1l-8.9,5.1l51.4,89l-80.1,46.3l-51.4-89l-8.9,5.1l56.5,97.9L62.6,374z M-27.8,402.5l26.7-15.4l-46.3-80.1l-8.9,5.1
						l41.1,71.2l-8.9,5.1l-41.1-71.2l-8.9,5.1L-27.8,402.5z"/>
					<path class="st3" d="M424.5,34.5l8.9-5.1l56.5,97.9l-8.9,5.1L424.5,34.5z M335.5,85.9l8.9-5.1l56.5,97.9l-8.9,5.1L335.5,85.9z
						 M415.6,39.7l-8.9,5.1l56.5,97.9l8.9-5.1L415.6,39.7z M353.3,75.6l8.9-5.1l56.5,97.9l-8.9,5.1L353.3,75.6z M397.8,49.9
						l25.7,44.5l-26.7,15.4l-25.7-44.5l8.9-5.1l20.6,35.6l8.9-5.1l-20.6-35.6L397.8,49.9z M454.3,147.9l-25.7-44.5l-26.7,15.4
						l25.7,44.5l8.9-5.1L416,122.5l8.9-5.1l20.6,35.6L454.3,147.9z"/>
					<path class="st3" d="M536.5-18.3l46.3,80.1l-80.1,46.3L456.3,28L536.5-18.3z M540.2-32.3l-97.9,56.5l56.5,97.9l97.9-56.5
						L540.2-32.3z M528.9,9.8l25.7,44.5L510.1,80l-25.7-44.5L528.9,9.8z M532.7-4.2l-62.3,36l36,62.3l62.3-36L532.7-4.2z
						 M526.6,46.8l-5.1-8.9l-8.9,5.1l5.1,8.9L526.6,46.8z M498.5,39.3l26.7-15.4l15.4,26.7L513.9,66L498.5,39.3z"/>
					<path class="st3" d="M675.5-3.6l-26.7,15.4l-46.3-80.1l8.9-5.1l41.1,71.2l8.9-5.1l-41.1-71.2l8.9-5.1L675.5-3.6z M703.6,3.9
						L647.1-94l-8.9,5.1l51.4,89l-80.1,46.3l-51.4-89l-8.9,5.1l56.5,97.9L703.6,3.9z M613.2,32.4L639.9,17l-46.3-80.1l-8.9,5.1
						l41.1,71.2l-8.9,5.1l-41.1-71.2l-8.9,5.1L613.2,32.4z"/>
					<path class="st3" d="M77.3,235l25.7,44.5l-26.7,15.4l-25.7-44.5l8.9-5.1L80,280.9l8.9-5.1l-20.6-35.6L77.3,235z M32.8,260.7
						l8.9-5.1l56.5,97.9l-8.9,5.1L32.8,260.7z M95.1,224.7l-8.9,5.1l56.5,97.9l8.9-5.1L95.1,224.7z M15,271l8.9-5.1l56.5,97.9
						l-8.9,5.1L15,271z M104,219.6l8.9-5.1l56.5,97.9l-8.9,5.1L104,219.6z M133.8,332.9l-25.7-44.5l-26.7,15.4l25.7,44.5l8.9-5.1
						l-20.6-35.6l8.9-5.1l20.6,35.6L133.8,332.9z"/>
					<path class="st3" d="M216,166.8l46.3,80.1l-80.1,46.3L135.8,213L216,166.8z M219.7,152.7l-97.9,56.5l56.5,97.9l97.9-56.5
						L219.7,152.7z M208.4,194.9l25.7,44.5l-44.5,25.7l-25.7-44.5L208.4,194.9z M212.2,180.8l-62.3,36l36,62.3l62.3-36L212.2,180.8z
						 M206.1,231.9l-5.1-8.9l-8.9,5.1l5.1,8.9L206.1,231.9z M178,224.3l26.7-15.4l15.4,26.7L193.4,251L178,224.3z"/>
					<path class="st3" d="M355,181.5l-26.7,15.4l-46.3-80.1l8.9-5.1l41.1,71.2l8.9-5.1l-41.1-71.2l8.9-5.1L355,181.5z M292.7,217.4
						l26.7-15.4l-46.3-80.1l-8.9,5.1l41.1,71.2l-8.9,5.1l-41.1-71.2l-8.9,5.1L292.7,217.4z M383.1,189l-56.5-97.9l-8.9,5.1l51.4,89
						l-80.1,46.3l-51.4-89l-8.9,5.1l56.5,97.9L383.1,189z"/>
					<path class="st3" d="M673.8-109.4l8.9-5.1l56.5,97.9l-8.9,5.1L673.8-109.4z M736.1-145.4l-8.9,5.1l56.5,97.9l8.9-5.1
						L736.1-145.4z M745-150.5l8.9-5.1l56.5,97.9l-8.9,5.1L745-150.5z M656-99.1l8.9-5.1l56.5,97.9l-8.9,5.1L656-99.1z M718.3-135.1
						L744-90.6l-26.7,15.4l-25.7-44.5l8.9-5.1L721-89.2l8.9-5.1L709.4-130L718.3-135.1z M774.8-37.2l-25.7-44.5l-26.7,15.4
						l25.7,44.5l8.9-5.1l-20.6-35.6l8.9-5.1L765.9-32L774.8-37.2z"/>
					<path class="st3" d="M857-203.3l46.3,80.1l-80.1,46.3L776.8-157L857-203.3z M860.7-217.3l-97.9,56.5l56.5,97.9l97.9-56.5
						L860.7-217.3z M849.4-175.2l25.7,44.5L830.6-105l-25.7-44.5L849.4-175.2z M853.2-189.3l-62.3,36l36,62.3l62.3-36L853.2-189.3z
						 M847.1-138.2l-5.1-8.9L833-142l5.1,8.9L847.1-138.2z M819-145.8l26.7-15.4l15.4,26.7L834.4-119L819-145.8z"/>
					<path class="st3" d="M268.3-112.7l8.9-5.1l56.5,97.9l-8.9,5.1L268.3-112.7z M357.3-164.1l8.9-5.1l56.5,97.9l-8.9,5.1
						L357.3-164.1z M348.4-159l-8.9,5.1L396-55.9l8.9-5.1L348.4-159z M286.1-123l8.9-5.1l56.5,97.9l-8.9,5.1L286.1-123z
						 M330.6-148.7l25.7,44.5l-26.7,15.4l-25.7-44.5l8.9-5.1l20.6,35.6l8.9-5.1l-20.6-35.6L330.6-148.7z M387.1-50.7l-25.7-44.5
						l-26.7,15.4l25.7,44.5l8.9-5.1l-20.6-35.6l8.9-5.1l20.6,35.6L387.1-50.7z"/>
					<path class="st3" d="M469.3-216.9l46.3,80.1l-80.1,46.3l-46.3-80.1L469.3-216.9z M473-230.9l-97.9,56.5l56.5,97.9l97.9-56.5
						L473-230.9z M461.8-188.8l25.7,44.5l-44.5,25.7l-25.7-44.5L461.8-188.8z M465.5-202.8l-62.3,36l36,62.3l62.3-36L465.5-202.8z
						 M459.4-151.8l-5.1-8.9l-8.9,5.1l5.1,8.9L459.4-151.8z M431.3-159.3l26.7-15.4l15.4,26.7l-26.7,15.4L431.3-159.3z"/>
					<path class="st3" d="M10.1,36.4l25.7,44.5L9.1,96.3l-25.7-44.5l8.9-5.1l20.6,35.6l8.9-5.1L1.2,41.5L10.1,36.4z M27.9,26.1
						L19,31.2l56.5,97.9l8.9-5.1L27.9,26.1z M-52.2,72.3l8.9-5.1l56.5,97.9l-8.9,5.1L-52.2,72.3z M36.8,20.9l8.9-5.1l56.5,97.9
						l-8.9,5.1L36.8,20.9z M-34.4,62.1l8.9-5.1L31,154.9l-8.9,5.1L-34.4,62.1z M66.6,134.3L40.9,89.8l-26.7,15.4l25.7,44.5l8.9-5.1
						L28.3,109l8.9-5.1l20.6,35.6L66.6,134.3z"/>
					<path class="st3" d="M148.8-31.8L195,48.3l-80.1,46.3L68.7,14.4L148.8-31.8z M152.5-45.9L54.6,10.7l56.5,97.9l97.9-56.5
						L152.5-45.9z M141.3-3.7L167,40.8l-44.5,25.7L96.7,22L141.3-3.7z M145-17.8l-62.3,36l36,62.3l62.3-36L145-17.8z M138.9,33.2
						l-5.1-8.9l-8.9,5.1l5.1,8.9L138.9,33.2z M110.8,25.7l26.7-15.4L152.9,37l-26.7,15.4L110.8,25.7z"/>
					<path class="st3" d="M315.9-9.6l-56.5-97.9l-8.9,5.1l51.4,89l-80.1,46.3l-51.4-89l-8.9,5.1L218,46.9L315.9-9.6z M225.5,18.8
						l26.7-15.4L206-76.7l-8.9,5.1l41.1,71.2l-8.9,5.1l-41.1-71.2l-8.9,5.1L225.5,18.8z M287.8-17.2L261.1-1.7l-46.3-80.1l8.9-5.1
						l41.1,71.2l8.9-5.1l-41.1-71.2l8.9-5.1L287.8-17.2z"/>
					<path class="st3" d="M594.5,411.2l8.9-5.1l56.5,97.9l-8.9,5.1L594.5,411.2z M665.7,370.1l8.9-5.1l56.5,97.9l-8.9,5.1
						L665.7,370.1z M576.7,421.5l8.9-5.1l56.5,97.9l-8.9,5.1L576.7,421.5z M656.8,375.2l-8.9,5.1l56.5,97.9l8.9-5.1L656.8,375.2z
						 M639,385.5l25.7,44.5L638,445.4l-25.7-44.5l8.9-5.1l20.6,35.6l8.9-5.1l-20.6-35.6L639,385.5z M695.5,483.4l-25.7-44.5
						l-26.7,15.4l25.7,44.5l8.9-5.1l-20.6-35.6l8.9-5.1l20.6,35.6L695.5,483.4z"/>
					<path class="st3" d="M777.7,317.3l46.3,80.1l-80.1,46.3l-46.3-80.1L777.7,317.3z M781.4,303.2l-97.9,56.5l56.5,97.9l97.9-56.5
						L781.4,303.2z M770.2,345.4l25.7,44.5l-44.5,25.7l-25.7-44.5L770.2,345.4z M773.9,331.3l-62.3,36l36,62.3l62.3-36L773.9,331.3z
						 M767.8,382.4l-5.1-8.9l-8.9,5.1l5.1,8.9L767.8,382.4z M739.7,374.8l26.7-15.4l15.4,26.7l-26.7,15.4L739.7,374.8z"/>
					<path class="st3" d="M916.7,332L890,347.4l-46.3-80.1l8.9-5.1l41.1,71.2l8.9-5.1L861.6,257l8.9-5.1L916.7,332z M944.8,339.5
						l-56.5-97.9l-8.9,5.1l51.4,89L850.6,382l-51.4-89l-8.9,5.1l56.5,97.9L944.8,339.5z M854.4,368l26.7-15.4l-46.3-80.1l-8.9,5.1
						l41.1,71.2l-8.9,5.1l-41.1-71.2l-8.9,5.1L854.4,368z"/>
					<path class="st3" d="M336.3,560.2l-8.9,5.1l56.5,97.9l8.9-5.1L336.3,560.2z M256.2,606.5l8.9-5.1l56.5,97.9l-8.9,5.1
						L256.2,606.5z M345.2,555.1l8.9-5.1l56.5,97.9l-8.9,5.1L345.2,555.1z M274,596.2l8.9-5.1l56.5,97.9l-8.9,5.1L274,596.2z
						 M318.5,570.5l25.7,44.5l-26.7,15.4l-25.7-44.5l8.9-5.1l20.6,35.6l8.9-5.1l-20.6-35.6L318.5,570.5z M375,668.5l-25.7-44.5
						l-26.7,15.4l25.7,44.5l8.9-5.1l-20.6-35.6l8.9-5.1l20.6,35.6L375,668.5z"/>
					<path class="st3" d="M457.2,502.3l46.3,80.1l-80.1,46.3l-46.3-80.1L457.2,502.3z M460.9,488.3L363,544.8l56.5,97.9l97.9-56.5
						L460.9,488.3z M449.7,530.4l25.7,44.5l-44.5,25.7l-25.7-44.5L449.7,530.4z M453.4,516.4l-62.3,36l36,62.3l62.3-36L453.4,516.4z
						 M447.3,567.4l-5.1-8.9l-8.9,5.1l5.1,8.9L447.3,567.4z M419.2,559.9l26.7-15.4l15.4,26.7l-26.7,15.4L419.2,559.9z"/>
					<path class="st3" d="M624.3,524.5l-56.5-97.9l-8.9,5.1l51.4,89L530.2,567l-51.4-89l-8.9,5.1l56.5,97.9L624.3,524.5z M533.9,553
						l26.7-15.4l-46.3-80.1l-8.9,5.1l41.1,71.2l-8.9,5.1l-41.1-71.2l-8.9,5.1L533.9,553z M596.2,517l-26.7,15.4l-46.3-80.1l8.9-5.1
						l41.1,71.2l8.9-5.1L541.1,442l8.9-5.1L596.2,517z"/>
					<path class="st3" d="M915,226.1l8.9-5.1l56.5,97.9l-8.9,5.1L915,226.1z M977.3,190.2l-8.9,5.1l56.5,97.9l8.9-5.1L977.3,190.2z
						 M897.2,236.4l8.9-5.1l56.5,97.9l-8.9,5.1L897.2,236.4z M986.2,185l8.9-5.1l56.5,97.9l-8.9,5.1L986.2,185z M959.5,200.4
						l25.7,44.5l-26.7,15.4l-25.7-44.5l8.9-5.1l20.6,35.6l8.9-5.1l-20.6-35.6L959.5,200.4z M1016,298.4l-25.7-44.5l-26.7,15.4
						l25.7,44.5l8.9-5.1L977.7,273l8.9-5.1l20.6,35.6L1016,298.4z"/>
					<path class="st3" d="M931.9,584.4l46.3,80.1L898,710.8l-46.3-80.1L931.9,584.4z M935.6,570.3l-97.9,56.5l56.5,97.9l97.9-56.5
						L935.6,570.3z M924.4,612.5l25.7,44.5l-44.5,25.7l-25.7-44.5L924.4,612.5z M928.1,598.4l-62.3,36l36,62.3l62.3-36L928.1,598.4z
						 M922,649.4l-5.1-8.9l-8.9,5.1l5.1,8.9L922,649.4z M893.9,641.9l26.7-15.4l15.4,26.7l-26.7,15.4L893.9,641.9z"/>
					<path class="st3" d="M1008.6,635l26.7-15.4l-46.3-80.1l-8.9,5.1l41.1,71.2l-8.9,5.1l-41.1-71.2l-8.9,5.1L1008.6,635z
						 M1099,606.6l-56.5-97.9l-8.9,5.1l51.4,89l-80.1,46.3l-51.4-89l-8.9,5.1l56.5,97.9L1099,606.6z M1070.9,599.1l-26.7,15.4
						L998,534.4l8.9-5.1l41.1,71.2l8.9-5.1l-41.1-71.2l8.9-5.1L1070.9,599.1z"/>
					<path class="st3" d="M-17.5,420.3l46.3,80.1l-80.1,46.3l-46.3-80.1L-17.5,420.3z M-13.8,406.2l-97.9,56.5l56.5,97.9l97.9-56.5
						L-13.8,406.2z M-25,448.4l25.7,44.5l-44.5,25.7l-25.7-44.5L-25,448.4z M-21.3,434.3l-62.3,36l36,62.3l62.3-36L-21.3,434.3z
						 M-27.4,485.4l-5.1-8.9l-8.9,5.1l5.1,8.9L-27.4,485.4z M-55.5,477.8l26.7-15.4l15.4,26.7l-26.7,15.4L-55.5,477.8z"/>
					<path class="st3" d="M149.6,442.5l-56.5-97.9l-8.9,5.1l51.4,89L55.5,485L4.1,396l-8.9,5.1L51.7,499L149.6,442.5z M59.2,471
						l26.7-15.4l-46.3-80.1l-8.9,5.1l41.1,71.2l-8.9,5.1l-41.1-71.2l-8.9,5.1L59.2,471z M121.5,435l-26.7,15.4l-46.3-80.1l8.9-5.1
						l41.1,71.2l8.9-5.1L66.4,360l8.9-5.1L121.5,435z"/>
					<path class="st3" d="M422.5,154.4l8.9-5.1l56.5,97.9l-8.9,5.1L422.5,154.4z M511.5,103l8.9-5.1l56.5,97.9l-8.9,5.1L511.5,103z
						 M502.6,108.1l-8.9,5.1l56.5,97.9l8.9-5.1L502.6,108.1z M440.3,144.1l8.9-5.1l56.5,97.9l-8.9,5.1L440.3,144.1z M484.8,118.4
						l25.7,44.5l-26.7,15.4l-25.7-44.5l8.9-5.1l20.6,35.6l8.9-5.1l-20.6-35.6L484.8,118.4z M541.3,216.3l-25.7-44.5l-26.7,15.4
						l25.7,44.5l8.9-5.1L503,191l8.9-5.1l20.6,35.6L541.3,216.3z"/>
					<path class="st3" d="M623.5,50.2l46.3,80.1l-80.1,46.3l-46.3-80.1L623.5,50.2z M627.2,36.2l-97.9,56.5l56.5,97.9l97.9-56.5
						L627.2,36.2z M616,78.3l25.7,44.5l-44.5,25.7L571.4,104L616,78.3z M619.7,64.3l-62.3,36l36,62.3l62.3-36L619.7,64.3z
						 M613.6,115.3l-5.1-8.9l-8.9,5.1l5.1,8.9L613.6,115.3z M585.5,107.8l26.7-15.4l15.4,26.7l-26.7,15.4L585.5,107.8z"/>
					<path class="st3" d="M762.5,64.9l-26.7,15.4L689.6,0.2l8.9-5.1l41.1,71.2l8.9-5.1l-41.1-71.2l8.9-5.1L762.5,64.9z M790.6,72.4
						l-56.5-97.9l-8.9,5.1l51.4,89l-80.1,46.3l-51.4-89l-8.9,5.1l56.5,97.9L790.6,72.4z M700.2,100.9l26.7-15.4L680.7,5.3l-8.9,5.1
						l41.1,71.2l-8.9,5.1l-41.1-71.2l-8.9,5.1L700.2,100.9z"/>
					<path class="st3" d="M164.3,303.4L190,348l-26.7,15.4l-25.7-44.5l8.9-5.1l20.6,35.6l8.9-5.1l-20.6-35.6L164.3,303.4z
						 M102,339.4l8.9-5.1l56.5,97.9l-8.9,5.1L102,339.4z M191,288l8.9-5.1l56.5,97.9l-8.9,5.1L191,288z M182.1,293.2l-8.9,5.1
						l56.5,97.9l8.9-5.1L182.1,293.2z M119.8,329.1l8.9-5.1l56.5,97.9l-8.9,5.1L119.8,329.1z M220.8,401.4l-25.7-44.5l-26.7,15.4
						l25.7,44.5l8.9-5.1L182.5,376l8.9-5.1l20.6,35.6L220.8,401.4z"/>
					<path class="st3" d="M303,235.2l46.3,80.1l-80.1,46.3l-46.3-80.1L303,235.2z M306.7,221.2l-97.9,56.5l56.5,97.9l97.9-56.5
						L306.7,221.2z M295.5,263.3l25.7,44.5l-44.5,25.7L250.9,289L295.5,263.3z M299.2,249.3l-62.3,36l36,62.3l62.3-36L299.2,249.3z
						 M293.1,300.3l-5.1-8.9l-8.9,5.1l5.1,8.9L293.1,300.3z M265,292.8l26.7-15.4l15.4,26.7l-26.7,15.4L265,292.8z"/>
					<path class="st3" d="M442,249.9l-26.7,15.4l-46.3-80.1l8.9-5.1l41.1,71.2l8.9-5.1l-41.1-71.2l8.9-5.1L442,249.9z M470.1,257.5
						l-56.5-97.9l-8.9,5.1l51.4,89L376,300l-51.4-89l-8.9,5.1l56.5,97.9L470.1,257.5z M379.7,285.9l26.7-15.4l-46.3-80.1l-8.9,5.1
						l41.1,71.2l-8.9,5.1l-41.1-71.2l-8.9,5.1L379.7,285.9z"/>
					<path class="st3" d="M760.8-40.9l8.9-5.1l56.5,97.9l-8.9,5.1L760.8-40.9z M823.1-76.9l-8.9,5.1l56.5,97.9l8.9-5.1L823.1-76.9z
						 M832-82.1l8.9-5.1l56.5,97.9l-8.9,5.1L832-82.1z M743-30.7l8.9-5.1l56.5,97.9l-8.9,5.1L743-30.7z M805.3-66.6L831-22.1
						L804.3-6.7l-25.7-44.5l8.9-5.1l20.6,35.6l8.9-5.1l-20.6-35.6L805.3-66.6z M861.8,31.3l-25.7-44.5L809.4,2.2l25.7,44.5l8.9-5.1
						L823.5,6l8.9-5.1l20.6,35.6L861.8,31.3z"/>
					<path class="st3" d="M944-134.8l46.3,80.1L910.1-8.4l-46.3-80.1L944-134.8z M947.7-148.9l-97.9,56.5l56.5,97.9l97.9-56.5
						L947.7-148.9z M936.5-106.7l25.7,44.5l-44.5,25.7L891.9-81L936.5-106.7z M940.2-120.8l-62.3,36l36,62.3l62.3-36L940.2-120.8z
						 M934.1-69.8l-5.1-8.9l-8.9,5.1l5.1,8.9L934.1-69.8z M906-77.3l26.7-15.4L948.1-66l-26.7,15.4L906-77.3z"/>
				</g>
			</g>
		</g>
	</g>
	<g>
		<defs>
			<rect id="SVGID_00000068637209906552605960000005919119519689620106_" x="-9.5" y="-560.9" width="1236.1" height="1236.1"/>
		</defs>
		<clipPath id="SVGID_00000132783472252478916590000006023532368703058614_">
			<use xlink:href="#SVGID_00000068637209906552605960000005919119519689620106_"  style="overflow:visible;"/>
		</clipPath>
		<g style="clip-path:url(#SVGID_00000132783472252478916590000006023532368703058614_);">
			<polygon class="st5" points="-13.4,676.7 401.5,261.7 816.5,676.7 			"/>
			<polygon class="st6" points="-13.4,676.7 401.5,261.7 491.8,676.7 			"/>
		</g>
		<g style="clip-path:url(#SVGID_00000132783472252478916590000006023532368703058614_);">
			<g>
				<path class="st5" d="M23.1,345.3c-149.8,1.4-317.8,1.4-467.5,0C-294.6,343.9-126.6,343.9,23.1,345.3L23.1,345.3z"/>
			</g>
			<g>
				<path class="st5" d="M49.8,360c-149.8,1.4-317.8,1.4-467.5,0C-267.9,358.6-99.9,358.6,49.8,360L49.8,360z"/>
			</g>
			<g>
				<path class="st5" d="M76.6,374.7c-149.8,1.4-317.8,1.4-467.5,0C-241.2,373.3-73.2,373.3,76.6,374.7L76.6,374.7z"/>
			</g>
			<g>
				<path class="st5" d="M103.3,389.4c-149.8,1.4-317.8,1.4-467.5,0C-214.5,388-46.5,388,103.3,389.4L103.3,389.4z"/>
			</g>
			<g>
				<path class="st5" d="M130,404.1c-149.8,1.4-317.8,1.4-467.5,0C-187.7,402.7-19.7,402.7,130,404.1L130,404.1z"/>
			</g>
			<g>
				<path class="st5" d="M156.8,418.8c-149.8,1.4-317.8,1.4-467.5,0C-161,417.4,7,417.4,156.8,418.8L156.8,418.8z"/>
			</g>
			<g>
				<path class="st5" d="M183.5,433.5c-149.8,1.4-317.8,1.4-467.5,0C-134.3,432.1,33.7,432.1,183.5,433.5L183.5,433.5z"/>
			</g>
			<g>
				<path class="st5" d="M210.2,448.2c-149.8,1.4-317.8,1.4-467.5,0C-107.5,446.8,60.5,446.8,210.2,448.2L210.2,448.2z"/>
			</g>
			<g>
				<path class="st5" d="M236.9,462.9c-149.8,1.4-317.8,1.4-467.5,0C-80.8,461.5,87.2,461.5,236.9,462.9L236.9,462.9z"/>
			</g>
			<g>
				<path class="st5" d="M263.7,477.6c-149.8,1.4-317.8,1.4-467.5,0C-54.1,476.1,113.9,476.2,263.7,477.6L263.7,477.6z"/>
			</g>
			<g>
				<path class="st5" d="M290.4,492.3c-149.8,1.4-317.8,1.4-467.5,0C-27.4,490.8,140.6,490.9,290.4,492.3L290.4,492.3z"/>
			</g>
			<g>
				<path class="st5" d="M317.1,507c-149.8,1.4-317.8,1.4-467.5,0C-0.6,505.5,167.4,505.6,317.1,507L317.1,507z"/>
			</g>
			<g>
				<path class="st5" d="M343.8,521.7c-149.8,1.4-317.8,1.4-467.5,0C26.1,520.2,194.1,520.3,343.8,521.7L343.8,521.7z"/>
			</g>
			<g>
				<path class="st5" d="M370.6,536.4c-149.8,1.4-317.8,1.4-467.5,0C52.8,534.9,220.8,535,370.6,536.4L370.6,536.4z"/>
			</g>
			<g>
				<path class="st5" d="M397.3,551.1c-149.8,1.4-317.8,1.4-467.5,0C79.5,549.6,247.5,549.7,397.3,551.1L397.3,551.1z"/>
			</g>
			<g>
				<path class="st5" d="M424,565.8c-149.8,1.4-317.8,1.4-467.5,0C106.3,564.3,274.3,564.3,424,565.8L424,565.8z"/>
			</g>
			<g>
				<path class="st5" d="M450.7,580.5c-149.8,1.4-317.8,1.4-467.5,0C133,579,301,579,450.7,580.5L450.7,580.5z"/>
			</g>
			<g>
				<path class="st5" d="M477.3,595c-149.8,1.4-317.8,1.4-467.5,0C159.5,593.6,327.5,593.6,477.3,595L477.3,595z"/>
			</g>
			<g>
				<path class="st5" d="M503.8,609.5c-149.8,1.4-317.8,1.4-467.5,0C186.1,608.1,354.1,608.1,503.8,609.5L503.8,609.5z"/>
			</g>
			<g>
				<path class="st5" d="M530.4,624c-149.8,1.4-317.8,1.4-467.5,0C212.6,622.6,380.6,622.6,530.4,624L530.4,624z"/>
			</g>
			<g>
				<path class="st5" d="M556.9,638.6c-149.8,1.4-317.8,1.4-467.5,0C239.2,637.1,407.2,637.2,556.9,638.6L556.9,638.6z"/>
			</g>
			<g>
				<path class="st5" d="M583.5,653.1c-149.8,1.4-317.8,1.4-467.5,0C265.7,651.7,433.7,651.7,583.5,653.1L583.5,653.1z"/>
			</g>
			<g>
				<path class="st5" d="M610,667.6c-149.8,1.4-317.8,1.4-467.5,0C292.3,666.2,460.3,666.2,610,667.6L610,667.6z"/>
			</g>
		</g>
		
			<path style="clip-path:url(#SVGID_00000132783472252478916590000006023532368703058614_);fill:none;stroke:#FFDA48;stroke-width:21;stroke-miterlimit:10;" d="
			M1418.3-516.2C1303.2,223.3,610.4,729.3-129,614.2"/>
	</g>
	<polygon class="st8" points="1230.5,322 403,674.9 -5.6,348.7 -5.6,674.9 1230.5,674.9 	"/>
</g>
</svg>
