<svg width="40" height="40" viewBox="0 0 40 40" fill="none" xmlns="http://www.w3.org/2000/svg">
<path d="M24.0261 35.773L26.564 33.2351L26.564 26.1615H33.6376L36.1755 23.6236H24.0261V35.773Z" fill="#FFDA48"/>
<path d="M18.9324 1.26878C18.9324 4.94059 18.9324 15.0201 18.9324 18.5299C15.4766 18.5299 5.2711 18.5299 1.67128 18.5299L0.402344 19.7988L1.67128 21.0678L18.9324 21.0678C18.9324 22.3997 18.9324 36.601 18.9324 38.3289L20.2013 39.5978L21.4703 38.3289L21.4703 21.0678L38.7314 21.0678L40.0003 19.7988L38.7314 18.5299C36.9315 18.5299 22.8562 18.5299 21.4703 18.5299L21.4703 1.26878L20.2013 -0.00016122L18.9324 1.26878Z" fill="#FFDA48"/>
<path d="M4.22715 23.6236L6.76502 26.1615L13.8387 26.1615L13.8387 33.2351L16.3765 35.773V23.6236L4.22715 23.6236Z" fill="#FFDA48"/>
<path d="M16.3765 15.974L16.3765 3.82464L13.8387 6.36251L13.8387 13.4362L6.76502 13.4362L4.22715 15.974L16.3765 15.974Z" fill="#FFDA48"/>
<path d="M24.0261 15.974H36.1755L33.6376 13.4362H26.564L26.564 6.36251L24.0261 3.82464L24.0261 15.974Z" fill="#FFDA48"/>
</svg>
