<?xml version="1.0" encoding="utf-8"?>
<!-- Generator: Adobe Illustrator 26.0.1, SVG Export Plug-In . SVG Version: 6.00 Build 0)  -->
<svg version="1.1" id="Слой_1" xmlns="http://www.w3.org/2000/svg" xmlns:xlink="http://www.w3.org/1999/xlink" x="0px" y="0px"
	 viewBox="0 0 395.1 100" style="enable-background:new 0 0 395.1 100;" xml:space="preserve">
<style type="text/css">
	.st0{fill:#FFDA49;}
</style>
<g>
	<path class="st0" d="M102.5,92.4c-0.1-0.2-0.2-0.3-0.3-0.5C90.8,73.9,79.5,56,68.2,38c-0.1-0.2-0.2-0.4-0.4-0.8c0.7,0,1.3,0,1.9,0
		c1.2-0.1,1.7-0.9,1.2-2c-0.1-0.2-0.2-0.4-0.3-0.6c-6-9.4-11.9-18.7-17.9-28.1c-0.8-1.2-1.5-1.2-2.3,0c-4.5,7.3-9.1,14.6-13.6,21.9
		c-1.4,2.2-2.7,4.4-4,6.6c-0.8,1.3-0.3,2.1,1.2,2.1c0.5,0,1,0,1.7,0c-0.2,0.4-0.3,0.6-0.5,0.9c-9.4,15.5-18.9,31-28.3,46.5
		c-1.6,2.6-3.2,5.2-4.7,7.8c-0.7,1.2-0.2,1.9,1.1,2c0.2,0,0.3,0,0.5,0h86.9c3.6,0,7.2,0,10.8,0C102.6,94.4,103.1,93.5,102.5,92.4z
		 M58,69.2c0.5-0.5,1.2-0.3,1.7,0.3C59.2,68.8,58.5,68.7,58,69.2z"/>
	<path d="M35.6,37.2c-0.7,0-1.2,0-1.7,0c-1.5,0-2-0.9-1.2-2.1c1.3-2.2,2.7-4.4,4-6.6c4.5-7.3,9.1-14.6,13.6-21.9
		c0.8-1.2,1.5-1.2,2.3,0c6,9.4,11.9,18.7,17.9,28.1c0.1,0.2,0.2,0.4,0.3,0.6c0.5,1.1,0.1,1.9-1.2,2c-0.6,0-1.2,0-1.9,0
		c0.2,0.4,0.3,0.6,0.4,0.8C79.5,56,90.8,73.9,102.1,91.9c0.1,0.2,0.2,0.3,0.3,0.5c0.6,1.1,0.1,2-1.1,2c-3.6,0-7.2,0-10.8,0H3.7
		c-0.2,0-0.3,0-0.5,0c-1.4,0-1.8-0.8-1.1-2c1.6-2.6,3.2-5.2,4.7-7.8c9.4-15.5,18.9-31,28.3-46.5C35.3,37.9,35.4,37.6,35.6,37.2z
		 M51.9,77.8c3.9,0,8-1,11.7-3.3c1.5-0.9,2.7-2.2,3.5-3.7c1-1.9,1.2-3.8,0.1-5.7c-0.5-0.8-0.4-1.5,0.1-2.3c0.9-1.3,1.6-2.6,2.3-4
		c0.9-1.8,1.2-3.9,0.7-5.9c-1.1-4.7-5.8-7.8-10.8-7.1c-2.7,0.4-5.1,1.6-7.1,3.4c-0.9,0.8-0.9,0.8-1.7,0c-1.8-1.6-3.9-2.8-6.3-3.2
		c-4-0.8-7.4,0.2-10,3.5c-2.5,3.2-2.4,6.7-0.6,10.2c0.6,1.2,1.3,2.3,2.1,3.5c0.4,0.6,0.4,1.1,0,1.7c-0.8,1.3-0.9,2.7-0.6,4.2
		c0.6,2.5,2.2,4.2,4.3,5.6C43.2,76.8,47.2,77.7,51.9,77.8z M33.9,69.5c-1.4,0.7-3,0.8-4.4,0C28,68.8,27,67.6,26.8,66
		c-0.5-3.3,1.4-5.3,5.7-5.8c-0.1-0.3-0.2-0.6-0.4-1c-0.8-2.1-1.2-4.2-0.7-6.5c1.2-5.5,6.5-9.2,12.3-8.5c0.5,0.1,1,0,1.5-0.1
		c4.2-1.3,8.6-1.3,12.8,0c0.3,0.1,0.7,0.2,1.1,0.1c2-0.3,4-0.1,5.9,0.5c4.7,1.5,7.7,6.3,7,11.2c-0.2,1.4-0.7,2.7-1.1,4.1
		c4.5,0.2,5.7,2.4,5.6,5.4c0,1.5-0.9,2.6-2.1,3.4c-1.7,1.3-3.4,1.2-5.2,0.4c-0.4,0.9-0.7,1.7-1,2.5h18.2c-0.6-0.9-1.2-1.7-1.7-2.6
		c-0.2-0.5-0.8-0.8-1.3-0.7c-1.7,0-3.4,0-5.1,0c-0.2,0-0.3,0-0.5,0c-0.2-0.1-0.4-0.2-0.6-0.4c0.2-0.1,0.4-0.3,0.6-0.4
		c0.1,0,0.2,0,0.3,0c2.1,0,4.1,0,6.2,0c0.3,0,0.6,0,1-0.1c-0.9-1.4-1.6-2.6-2.5-3.9c-0.1-0.2-0.5-0.3-0.8-0.3c-1,0-1.9,0-2.9,0
		c-0.3,0-0.6-0.1-0.9-0.2c0-0.1,0-0.2,0-0.2c1.2-0.5,2.6-0.1,3.9-0.3c-0.2-0.3-0.3-0.6-0.5-0.9c-0.8-1.3-1.7-2.5-2.4-3.9
		c-0.8-1.5-1.7-2.4-3.5-2c-0.4,0.1-0.8-0.1-1.3-0.2l0-0.4l2.9-0.2c-0.1-0.2-0.2-0.3-0.2-0.5c-2.5-4-5-7.9-7.4-11.9
		c-0.3-0.5-0.7-0.6-1.3-0.6c-3.3,0-6.6,0-9.9,0c-0.4,0-0.8-0.1-1.2-0.1l0-0.4c0.4-0.1,0.8-0.2,1.2-0.2c2.6,0,5.2,0,7.7,0h1
		c-0.2-0.4-0.3-0.6-0.4-0.8c-0.6-1-1.3-2-1.9-3c-0.3-0.5-0.8-0.8-1.3-0.7c-2.5,0-4.9,0-7.4,0c-5.9,0-11.8,0-17.7,0
		c-0.4,0-0.9,0.1-1.1,0.3c-0.9,1.3-1.7,2.6-2.6,4c0.2,0.1,0.4,0.1,0.5,0.1c3.1,0,6.3,0,9.4,0c0.4,0,0.7,0.2,1.1,0.3l0,0.3
		c-0.3,0.1-0.6,0.2-0.9,0.2c-3.2,0-6.4,0-9.5-0.1c-0.7,0-1.1,0.3-1.5,0.8c-2.3,3.8-4.6,7.7-7,11.5c-0.1,0.2-0.2,0.4-0.3,0.7l2.2,0.3
		l0,0.4c-0.6,0-1.3,0.1-1.9,0.1s-1,0.2-1.3,0.7c-0.9,1.5-1.8,2.9-2.6,4.3c-0.3,0.6-0.7,1.1-1,1.7c1.1,0.3,2.2-0.2,3.1,0.5
		c-0.4,0.2-0.7,0.3-1.1,0.3c-1.9-0.3-3.1,0.4-3.9,2.2c-0.3,0.7-0.8,1.3-1.3,2.1h5.6c0.3,0,0.6,0,0.9,0c0.2,0,0.3,0.2,0.4,0.3
		c-0.1,0.1-0.3,0.2-0.4,0.3c-0.1,0-0.2,0-0.3,0c-1.7,0-3.4,0-5.1,0c-0.7,0-1.4,0-1.8,0.6c-0.6,0.9-1.1,1.8-1.6,2.8h18.6
		C34.6,71.1,34.2,70.4,33.9,69.5L33.9,69.5z M91.9,78.4c-1.2-1.9-2.2-3.5-3.3-5.2c-0.2-0.2-0.5-0.4-0.9-0.4c-6.5,0-13,0-19.5,0
		c-0.4,0-0.8,0.2-1,0.4c-0.6,0.5-1.1,1-1.6,1.5c-0.4,0.3-0.4,0.6-0.1,0.9c0.5,0.6,0.9,1.2,1.3,1.8c0.4,0.7,0.9,1,1.7,1
		c3.3,0,6.5,0,9.8,0c0.2,0,0.3,0,0.5,0c0.2,0.1,0.3,0.2,0.4,0.3c-0.1,0.1-0.2,0.3-0.4,0.3c-0.2,0-0.4,0-0.6,0l-9.5,0
		c-0.3,0-0.6,0-0.9,0c0.7,2.4,0.7,2.4,3,2.4h0.1c3,0,6,0,8.9,0c0.6,0,1.1,0.1,1.7,0.2v0.4c-0.5,0.1-1.1,0.1-1.6,0.2
		c-3.2,0-6.3,0-9.5,0c-1.4,0-1.4,0-1.3,1.3c0,1.1,0,1.1,1.1,1.1c8.3,0,16.7,0,25,0c0.2,0,0.4,0,0.6-0.1c-0.8-1.3-1.7-2.5-2.4-3.8
		c-0.7-1.4-1.6-2.1-3.2-1.8c-0.7,0.1-1.4,0-2.1,0c-0.2,0-0.3-0.2-0.5-0.4c0.1-0.1,0.3-0.2,0.5-0.3c0.2,0,0.5,0,0.7,0L91.9,78.4z
		 M9.8,82.7l0.1,0.1c0.8-0.5,1.6-1.1,2.4-1.6c0.5-0.4,1-0.5,1.5,0c1.4,1,2.9,2,4.4,3.1c0.6,0.5,1.4,0.7,2.2,0.7c4,0,7.9,0,11.9,0
		c1.5,0,1.5,0,1.7-1.5c0.1-1,0.1-1-0.9-1c-3.4,0-6.7,0-10.1,0c-0.6,0-1.1,0-1.7-0.1c-0.2,0-0.3-0.1-0.5-0.2v-0.3
		c0.5-0.1,1-0.2,1.5-0.2c3.6,0,7.2,0,10.8,0c0.4,0,0.9-0.1,1.1-0.3c0.4-0.6,0.7-1.3,1-2.1H34c-3.2,0-6.3,0-9.5,0
		c-0.4,0-0.8-0.1-1.2-0.2v-0.4c0.4-0.1,0.9-0.1,1.4-0.2c3.4,0,6.8,0,10.2,0c0.5,0,0.8-0.1,1.1-0.5c0.5-0.8,1-1.6,1.6-2.4
		c0.3-0.4,0.3-0.6-0.1-0.9c-0.5-0.4-0.9-0.9-1.4-1.3c-0.3-0.3-0.8-0.5-1.2-0.5c-6.1,0-12.2,0-18.3,0c-0.5,0-1,0.2-1.2,0.7
		c-0.8,1.4-1.7,2.8-2.5,4.2c-0.1,0.2-0.2,0.4-0.3,0.7c1.3,0.3,2.6-0.2,3.7,0.5c-0.3,0.2-0.7,0.3-1.1,0.3c-0.9,0-1.8,0-2.7,0
		c-0.3,0-0.6,0.1-0.7,0.3C11,80.5,10.4,81.6,9.8,82.7z M16,85.6c0,1.5-1,2.3-1.8,3.2c-0.7,0.8-1.5,1.5-2.2,2.3
		c-0.3,0.3-0.5,0.6-0.7,0.9c-0.3,0.5-0.1,0.9,0.5,1c0.7,0,1.4,0.1,1.9-0.1c0.3-0.1,0.4-0.8,0.6-1.2c0-0.1,0.1-0.2,0.1-0.2
		c0.9-1.2,1.7-2.5,2.7-3.7c0.2-0.3,0.6-0.4,1-0.4c4.5,0,8.9,0,13.4,0c0.4,0,0.8,0.3,1,0.6c0.7,1.3,1.3,2.7,1.9,4.1
		c0.3,0.8,0.7,1,1.5,1c10.3,0,20.6,0,30.9,0c0.8,0,1.1-0.3,1.3-1.1c0.7-3,2.6-5,5.6-5.8c4.2-1.1,8.3,1.4,9.4,5.7
		c0.3,1.1,0.3,1.1,1.4,1.1h15.4h1c-1-1.6-1.9-3.1-2.8-4.6c-0.3-0.4-0.6-0.2-0.8,0c-1.2,1.1-2.5,2.2-3.7,3.3
		c-0.4,0.3-0.8,0.5-1.3,0.5c-1.8,0.1-3.6,0-5.3,0c-0.7,0-1.2-0.3-1.5-0.9c-1-1.7-2-3.3-3-5c-0.3-0.6-0.8-0.8-1.5-0.8
		c-3.6,0-7.1,0-10.7,0c-1.3,0-1.3,0-1.8,1.2c-1.3,3.1-4.1,4.4-7.3,3.5c-0.5-0.1-1.1-0.2-1.6-0.1c-4.6,0.7-9.2,0.9-13.8,0.4
		c-1.8-0.2-3.6-0.8-5.4,0c-0.1,0-0.2,0-0.3,0c-2.6,0.1-5-1.5-5.9-4.1c-0.2-0.7-0.6-1-1.3-1c-4.8,0-9.6,0-14.4,0L16,85.6z M60,78.1
		c-2.6,0.4-4.9,0.9-7.3,1.1c-3,0.2-6.1-0.2-9-1.1c-0.7-0.2-1-0.1-1.1,0.6c-0.1,0.5-0.2,1.1-0.4,1.6c-0.2,0.8,0,1.2,0.8,1.6
		c1.7,0.9,2.6,2.4,2.7,4.3c0.1,0.5-0.2,1-0.7,1.3c-0.5,0.3-0.8,0.8-1.2,1.2l0.1,0.2c4.9,0.7,9.8,0.6,14.9-0.1
		c-0.4-0.5-0.7-0.9-1-1.2c-0.9-0.7-1.1-1-0.8-2.1c0.4-1.7,1.4-3,2.9-3.8c0.3-0.1,0.6-0.5,0.6-0.8C60.5,79.9,60.2,78.9,60,78.1z
		 M51.5,7.6c-0.1,0.1-0.3,0.3-0.4,0.4c-2.9,4.7-5.9,9.4-8.8,14.2c-0.3,0.5-0.2,0.8,0.2,1.2c1.9,2,3.8,4,5.8,6c1,1,2.1,1.9,3.1,2.8
		l9.3-10.1C57.7,17.3,54.6,12.5,51.5,7.6L51.5,7.6z M37.6,33.7c0.2-0.4,0.3-0.6,0.4-0.8c0.9-1.4,1.7-2.8,2.6-4.2
		c0.9-1.4,0.9-1.4-0.6-2.2c-0.1,0-0.2,0-0.3,0L34,35.7h35.4c-0.2-0.3-0.3-0.5-0.4-0.8c-1.7-2.8-3.5-5.5-5.2-8.3
		c-0.9-1.4-0.9-1.4-2.3-0.5c-0.1,0-0.1,0.1-0.2,0.3l4.6,7.1H37.6z M39.4,82.4l-0.1-0.2c0.2-0.2,0.3-0.5,0.6-0.6c1-0.2,1-1,1.1-1.7
		c0-0.1,0.1-0.3,0.1-0.4c0.2-0.7,0.7-1.6,0.4-2.2c-0.3-0.6-1.3-0.8-1.9-1.2c-0.1,0-0.1-0.1-0.2-0.1c-0.2,0-0.6,0-0.7,0.2
		c-1.3,1.9-2.6,3.9-3.3,6.2c-0.5,1.7-0.3,3.3,0.7,4.8c1,1.5,2.4,2.3,4.2,2.1c0.9-0.1,1.1-0.4,0.6-1.1c-0.4-0.5-0.8-0.9-1.2-1.3
		c-0.1-0.2-0.3-0.3-0.5-0.5c1.9-0.5,2.5,1.2,3.8,2c0.6-2-0.9-2.9-1.9-4.1c0.3-0.1,0.5-0.2,0.7-0.1c1.4,0.2,1.9,1.4,2.7,2.6
		c0.2-1-0.1-1.7-0.5-2.3C42.9,82.7,41.3,82.1,39.4,82.4z M64,76c-0.8,0.4-1.5,0.8-2.2,1.1c-0.5,0.2-0.6,0.5-0.4,0.9
		c0.3,0.9,0.4,1.8,0.7,2.7c0.1,0.2,0.3,0.5,0.6,0.6c0.3,0.3,0.7,0.5,1.1,0.7c-2.8,0.4-3.1,0.5-3.8,1c-1.2,0.9-1.9,2.5-1.5,3.3
		c0.4-0.6,0.8-1.2,1.3-1.7c0.7-0.7,1.3-0.8,1.9-0.4c-0.4,0.4-0.8,0.7-1.1,1.1c-0.4,0.6-0.7,1.3-1,2c-0.1,0.2,0.2,0.5,0.3,0.7
		c0.2-0.1,0.4-0.2,0.6-0.3c0.5-0.4,0.9-0.9,1.4-1.3c0.5-0.4,1.1-0.5,1.7-0.1c-0.3,0.3-0.6,0.5-0.9,0.8c-0.3,0.3-0.5,0.5-0.7,0.8
		c-0.6,0.9-0.5,1.2,0.6,1.3c2.6,0.2,4.9-2,5-4.9C67.8,81,65.6,78.6,64,76z M81.7,93c0-0.1,0.1-0.2,0.1-0.4c-0.3-2.4-2.6-4.8-4.9-5.1
		c-0.5-0.1-1.1,0.1-1.5,0.4c-0.7,0.4-1,1.2-1,2c0,0.3-0.2,0.5-0.3,0.7c-0.2-0.3-0.5-0.5-0.4-0.8c0.1-0.8,0.4-1.6,0.6-2.4
		c-0.2,0-0.5,0.1-0.7,0.1c-2.1,0.8-3.5,2.3-4.1,4.5c-0.2,0.6-0.1,0.9,0.7,0.9c1.2,0,2.3,0,3.5,0L81.7,93z M15,85.7
		c-0.1,0-0.2-0.1-0.3-0.1c-2.1,0-4.2,0-6.4,0c-0.3,0-0.6,0.3-0.8,0.6c-1.2,1.9-2.3,3.8-3.5,5.7c-0.2,0.3-0.3,0.6-0.6,1h6.8
		c-0.1-1.1,0.5-1.8,1.1-2.5c1-1,2-2,3-3.1C14.8,86.8,15.2,86.4,15,85.7L15,85.7z M27.5,92.9c0-0.8-0.1-1.5,0-2.2
		c0.1-0.7,0.5-1.3,0.8-2h-7.2c-3.4,0-3.4,0-5.2,2.9c-0.1,0.2-0.2,0.3-0.3,0.5c-0.1,0.3-0.1,0.6-0.2,0.9L27.5,92.9z M84.3,85.7
		c0.8,1.3,1.5,2.6,2.3,3.7c0.3,0.4,0.8,0.7,1.3,0.8c0.9,0.1,1.8,0.1,2.7,0c1,0,1.7-0.5,2.4-1.1c1-1,2.1-1.9,3.1-2.9
		c0.1-0.1,0.2-0.3,0.4-0.5L84.3,85.7z M60.4,26.9c-2.8,2-5.5,3.9-8.3,5.9h12.2L60.4,26.9z M39,32.8h11l0-0.1l-7.8-4.9
		C41.1,29.5,40.1,31.1,39,32.8z M71.6,68.5c1.5,0.1,2.9-0.8,3.3-2.4c0.5-1.6-0.1-3.4-1.6-4.2c-1.4-0.8-3.2-0.5-4.1,0.6
		c-0.4,0.4-0.3,0.8,0,1.2c2.7-1.6,4.1-1.6,4.7,0c-0.8-0.1-1.6-0.2-2.4-0.2c-1,0-1.5,0.4-1.8,1.3C71.7,65.1,72.6,66.4,71.6,68.5z
		 M29.4,63.7l-0.2-0.2c0.3-0.3,0.6-0.7,0.9-0.8c1.4-0.6,2.6,0.3,3.8,0.9c0.2-0.9-0.2-1.4-0.9-1.7c-1.3-0.7-2.6-0.5-3.7,0.4
		s-1.6,2.1-1.3,3.5c0.3,1.4,1.2,2.4,2.7,2.8c0.2,0.1,0.5,0,0.9,0c-0.6-0.9-0.7-1.6-0.3-2.5c0.4-0.9,1.3-1,2.2-1.2
		C32.5,63,30.9,63.5,29.4,63.7z M33.3,92.9c-0.5-1.2-1-2.3-1.4-3.4c-0.3-0.7-0.8-0.9-1.5-1c-0.7,0-1.1,0.3-1.3,1
		c-0.1,0.4-0.4,0.7-0.5,1.1c-0.1,0.6-0.1,1.2,0,1.7c0,0.2,0.4,0.5,0.7,0.5C30.5,93,31.8,92.9,33.3,92.9L33.3,92.9z M17.3,84.8
		c-0.1-0.2-0.1-0.2-0.2-0.2c-0.9-0.7-1.9-1.3-2.8-2c-1.6-1.1-1.1-1.1-2.6,0c-1,0.7-2,1.4-3,2.1l0.1,0.1H17.3z M55.8,45.1
		c-2.8-0.6-5.8-0.6-8.6,0l4.4,2.7L55.8,45.1z M83.1,85.4c0,0.3,0,0.4,0,0.5c1,1.7,2,3.4,3.1,5c0.2,0.3,0.6,0.5,1,0.5
		c1.5,0.1,3.1,0.1,4.6,0c0.4,0,0.9-0.2,1.2-0.5c1.3-1.1,2.6-2.3,3.9-3.4c0.1-0.1,0.3-0.3,0.4-0.5l-0.1-0.2c-0.2,0.1-0.5,0.2-0.7,0.4
		c-1.2,1.1-2.4,2.1-3.6,3.2c-0.4,0.5-1.1,0.7-1.7,0.7c-1.3,0-2.5,0-3.8,0c-0.6,0-1-0.2-1.3-0.8c-0.8-1.4-1.7-2.7-2.5-4.1
		C83.5,86,83.4,85.8,83.1,85.4z M65.4,37.4c0.9,1.4,1.8,2.8,2.7,4.1c0.1,0.1,0.3,0.1,0.6,0.2C67.5,39.6,66,37.5,65.4,37.4z
		 M68.9,67.1c0.5,0.4,0.8,0.8,1.1,0.8c0.4-0.1,0.6-0.5,0.7-0.8c0-0.4-0.2-0.7-0.6-0.7c-0.1,0-0.2,0-0.3,0
		C69.6,66.4,69.3,66.7,68.9,67.1L68.9,67.1z M33.9,66.8c-0.3-0.2-0.5-0.5-0.8-0.5c-0.4,0-0.7,0.2-0.7,0.6c0,0.1,0,0.2,0,0.3
		c0.1,0.3,0.4,0.6,0.7,0.7C33.7,67.9,33.8,67.5,33.9,66.8L33.9,66.8z M87.4,72.2l0.2-0.1c-0.2-0.9-1.7-3.2-2.5-3.4L87.4,72.2z"/>
	<path d="M66.5,58c-1.4-0.4-2.3,0.6-3.3,1.2c-1.7,1.1-3.5,1-5.3,0c-1.3-0.8-1.9-2.1-1.8-3.7c0-0.2,0-0.4,0.1-0.8L54.9,55
		c1.7-1.8,3.6-2.4,5.8-2.1C63,53.2,66,55.7,66.5,58z M58.8,56.1c0-0.4-0.1-0.7-0.2-1.1c-0.1-0.2-0.4-0.5-0.6-0.5
		c-0.3,0-0.5,0.2-0.6,0.4c-0.2,0.4-0.2,0.8-0.2,1.2c0,0.8,0.5,1.5,0.9,1.4C58.8,57.4,58.7,56.7,58.8,56.1L58.8,56.1z M63.8,56.5
		c-0.5-0.4-0.7-0.7-1.1-0.7c-0.4-0.1-0.8,0.2-0.7,0.7c0.1,0.3,0.4,0.7,0.7,0.8S63.2,56.9,63.8,56.5L63.8,56.5z"/>
	<path d="M47.9,54.9l-1.1-0.2c0,0.1,0,0.3,0,0.4c0.8,2.6-1.8,4.8-4.1,4.8c-1.3,0-2.6-0.5-3.6-1.3c-0.6-0.5-1.5-0.6-2.4-1
		c1.1-2.1,2.7-3.9,5.2-4.6C44.2,52.4,46.3,52.9,47.9,54.9z M44.2,56c0,1,0.3,1.7,0.8,1.6c0.8-0.2,0.8-0.9,0.8-1.5
		c0.1-0.9-0.4-1.7-0.9-1.6C44.5,54.5,44.1,55,44.2,56L44.2,56z M40.5,55.6l-0.3,0c-0.2,0.3-0.6,0.6-0.6,0.9c0,0.3,0.4,0.5,0.7,0.8
		c0.2-0.2,0.7-0.5,0.7-0.7C41,56.3,40.7,56,40.5,55.6L40.5,55.6z"/>
	<path d="M42.8,70.5c0-0.9,0.4-1.2,0.9-1.5c0.4-0.3,1-0.2,1.3,0.2c1.8,2.1,4.3,2.5,6.9,2.5c2.3,0,4.4-0.5,6-2.4
		c0.7-0.8,1.8-0.3,2.3,0.9c0,0-0.1,0.1-0.1,0.1c-1-0.3-1.6,0.1-2.2,0.8c-0.3,0.4-0.7,0.7-1.2,0.9c-3.8,1.7-7.5,1.8-11.2-0.5
		c-0.3-0.1-0.5-0.3-0.7-0.5C44.3,70.3,43.8,69.8,42.8,70.5z"/>
	<path d="M55.1,63.6c0.1,0.3,0.3,0.5,0.4,0.7c0.7,0.9,0.6,1.4-0.4,1.8c-0.1,0-0.1,0-0.2,0.1c-3.4,1.5-3.9,1.5-7.3,0
		c-0.9-0.4-1.1-1-0.4-1.8c0.2-0.3,0.4-0.5,0.7-0.8c0.1,0.2,0.1,0.2,0.1,0.3c-0.2,1.2-0.2,1.2,1.1,1.6c0.1,0,0.1,0,0.2,0.1
		c1.8,1,3.5,0.4,5.2-0.3c0.5-0.2,0.7-0.4,0.5-0.9c-0.1-0.2-0.1-0.4-0.1-0.6L55.1,63.6z"/>
	<path d="M57.2,51.4c0.6-1.4,1.6-1.9,2.7-2c2.2-0.2,3.9,0.8,5.2,2.6C62.6,50.9,60,50.4,57.2,51.4z"/>
	<path d="M38.1,52.1c0.7-1.6,2.9-2.8,4.8-2.7c1.3,0.1,2.4,0.8,2.7,1.9C43,50.4,40.5,50.8,38.1,52.1z"/>
	<path d="M63.8,71c0,1-0.4,1.4-1,1.7c-0.6,0.2-1.2,0.1-1.6-0.4c-0.1-0.1-0.1-0.5-0.1-0.8c0.2,0,0.5,0,0.7,0c0,0,0.1,0.1,0.1,0.1
		c0.2,0,0.5,0,0.7,0c-0.1-0.2-0.2-0.5-0.2-0.7s-0.2-0.5-0.3-0.7c0.3-0.1,0.7-0.3,0.9-0.2C63.4,70.3,63.6,70.8,63.8,71z"/>
	<path d="M62.1,73.3c-0.5,0.3-0.7,0.6-1,0.6c-0.2,0-0.6-0.4-0.6-0.6c0-0.2,0.4-0.6,0.6-0.6S61.6,73,62.1,73.3z"/>
	<path d="M83.4,75.7c-0.3,0.1-0.7,0.2-1,0.2c-4.3,0-8.6,0-13,0c-0.4,0-0.7-0.1-1.1-0.2c0-0.1,0-0.2,0-0.2c0.3-0.1,0.5-0.2,0.8-0.2
		c4.6,0,9.1,0,13.7,0c0.2,0,0.5,0.1,0.7,0.2L83.4,75.7z"/>
	<path d="M27.2,75.2h6.4c0.2,0,0.4,0,0.6,0c0.1,0,0.2,0.1,0.3,0.3c0,0.1-0.1,0.2-0.2,0.3c-0.2,0.1-0.5,0.1-0.8,0.1
		c-4.2,0-8.5,0-12.7,0c-0.3,0-0.6-0.2-1-0.3c0.3-0.1,0.7-0.3,1-0.4C23,75.2,25.1,75.2,27.2,75.2L27.2,75.2z"/>
	<path d="M51.5,11.6c0.2,0.3,0.4,0.5,0.5,0.7c1.9,2.9,3.8,5.8,5.8,8.7c0.3,0.5,0.4,0.8-0.1,1.3c-2,2.1-3.9,4.2-5.9,6.4
		c-0.5,0.5-0.8,0.6-1.3,0.1c-1.8-1.9-3.6-3.8-5.5-5.7c-0.4-0.4-0.5-0.8-0.1-1.4c2.1-3.2,4.1-6.4,6.1-9.7
		C51.2,11.9,51.3,11.7,51.5,11.6z M51.5,13c-1.9,3.1-3.8,6-5.6,8.9c-0.3,0.4,0,0.7,0.3,1.1c1.5,1.6,3,3.1,4.5,4.8
		c0.4,0.5,0.7,0.5,1.2,0c1.6-1.8,3.3-3.6,4.9-5.4c0.4-0.5,0.4-0.8,0.1-1.3c-1.2-1.7-2.3-3.4-3.4-5.2C52.7,14.9,52.1,14,51.5,13
		L51.5,13z"/>
</g>
<g>
	<g>
		<path d="M103,11.8l2.5-1.4v2.9v2.8l-2.5-1.5l-2.4-1.4L103,11.8z M103,18.3l-2.4,1.5v-2.8V14l2.4,1.4l2.5,1.5L103,18.3z M103,18.8
			l2.5-1.4v2.9v2.8l-2.5-1.5l-2.4-1.4L103,18.8z M103,25.3l-2.4,1.5v-2.8V21l2.4,1.4l2.5,1.5L103,25.3z M103,26l2.5-1.4v2.9v2.8
			l-2.5-1.5l-2.4-1.4L103,26z M103,32.3l-2.4,1.5V31v-2.9l2.4,1.4l2.5,1.5L103,32.3z M103,33l2.5-1.4v2.9v2.8l-2.5-1.5l-2.4-1.4
			L103,33z M103,39.4l-2.4,1.5V38v-2.9l2.4,1.4l2.5,1.5L103,39.4z M108.6,8.3l2.5-1.4v2.9v2.8l-2.5-1.5l-2.4-1.4L108.6,8.3z
			 M108.6,14.8l-2.4,1.5v-2.8v-2.9l2.4,1.4l2.5,1.5L108.6,14.8z M108.6,22.4l2.5-1.4v2.9v2.8l-2.5-1.5l-2.4-1.4L108.6,22.4z
			 M114.3,11.2l-2.4,1.5V9.9V7l2.4,1.4l2.5,1.5L114.3,11.2z M114.3,18.8l2.5-1.4v2.9v2.8l-2.5-1.5l-2.4-1.4L114.3,18.8z M114.3,25.3
			l-2.4,1.5v-2.8V21l2.4,1.4l2.5,1.5L114.3,25.3z M120,14.8l-2.4,1.5v-2.8v-2.9l2.4,1.4l2.5,1.5L120,14.8z M120,15.3l2.5-1.4v2.9
			v2.8l-2.5-1.5l-2.4-1.4L120,15.3z M120,21.8l-2.4,1.5v-2.8v-2.9l2.4,1.4l2.5,1.5L120,21.8z"/>
		<path d="M127.1,11.7l2.5-1.4v2.8v2.9l-2.5-1.5l-2.4-1.4L127.1,11.7z M127.1,18.2l-2.4,1.5v-2.9V14l2.4,1.4l2.5,1.5L127.1,18.2z
			 M127.1,18.8l2.5-1.4v2.8v2.9l-2.5-1.5l-2.4-1.4L127.1,18.8z M132.8,21.7l-2.4,1.5v-2.9v-2.8l2.4,1.4l2.5,1.5L132.8,21.7z
			 M132.8,22.4l2.5-1.4v2.8v2.9l-2.5-1.5l-2.4-1.4L132.8,22.4z M132.8,28.7l-2.4,1.5v-2.9v-2.8l2.4,1.4l2.5,1.5L132.8,28.7z
			 M132.8,29.4l2.5-1.4v2.8v2.9l-2.5-1.5l-2.4-1.4L132.8,29.4z M132.8,35.7l-2.4,1.5v-2.9v-2.8l2.4,1.4l2.5,1.5L132.8,35.7z
			 M132.8,36.5l2.5-1.4v2.8v2.9l-2.5-1.5l-2.4-1.4L132.8,36.5z M138.4,18.8l2.5-1.4v2.8v2.9l-2.5-1.5l-2.4-1.4L138.4,18.8z
			 M138.4,25.2l-2.4,1.5v-2.9V21l2.4,1.4l2.5,1.5L138.4,25.2z M144.1,8.3l2.5-1.4v2.8v2.9l-2.5-1.5l-2.4-1.4L144.1,8.3z M144.1,14.6
			l-2.4,1.5v-2.9v-2.8l2.4,1.4l2.5,1.5L144.1,14.6z M144.1,15.3l2.5-1.4v2.8v2.9l-2.5-1.5l-2.4-1.4L144.1,15.3z M144.1,21.7
			l-2.4,1.5v-2.9v-2.8l2.4,1.4l2.5,1.5L144.1,21.7z"/>
		<path d="M151.4,11.8l2.5-1.4v2.9v2.8l-2.5-1.5l-2.4-1.4L151.4,11.8z M151.4,18.3l-2.4,1.5v-2.8V14l2.4,1.4l2.5,1.5L151.4,18.3z
			 M151.4,18.8l2.5-1.4v2.9v2.8l-2.5-1.5l-2.4-1.4L151.4,18.8z M151.4,25.3l-2.4,1.5v-2.8V21l2.4,1.4l2.5,1.5L151.4,25.3z M151.4,26
			l2.5-1.4v2.9v2.8l-2.5-1.5l-2.4-1.4L151.4,26z M151.4,32.3l-2.4,1.5V31v-2.9l2.4,1.4l2.5,1.5L151.4,32.3z M151.4,33l2.5-1.4v2.9
			v2.8l-2.5-1.5l-2.4-1.4L151.4,33z M151.4,39.4l-2.4,1.5V38v-2.9l2.4,1.4l2.5,1.5L151.4,39.4z M157,8.3l2.5-1.4v2.9v2.8l-2.5-1.5
			l-2.4-1.4L157,8.3z M157,14.8l-2.4,1.5v-2.8v-2.9l2.4,1.4l2.5,1.5L157,14.8z M157,22.4l2.5-1.4v2.9v2.8l-2.5-1.5l-2.4-1.4
			L157,22.4z M157,28.9l-2.4,1.5v-2.8v-2.9L157,26l2.5,1.5L157,28.9z M162.7,11.2l-2.4,1.5V9.9V7l2.4,1.4l2.5,1.5L162.7,11.2z
			 M162.7,18.8l2.5-1.4v2.9v2.8l-2.5-1.5l-2.4-1.4L162.7,18.8z M162.7,25.3l-2.4,1.5v-2.8V21l2.4,1.4l2.5,1.5L162.7,25.3z M162.7,26
			l2.5-1.4v2.9v2.8l-2.5-1.5l-2.4-1.4L162.7,26z M168.3,14.8l-2.4,1.5v-2.8v-2.9l2.4,1.4l2.5,1.5L168.3,14.8z M168.3,15.3l2.5-1.4
			v2.9v2.8l-2.5-1.5l-2.4-1.4L168.3,15.3z M168.3,21.8l-2.4,1.5v-2.8v-2.9l2.4,1.4l2.5,1.5L168.3,21.8z M168.3,28.9l-2.4,1.5v-2.8
			v-2.9l2.4,1.4l2.5,1.5L168.3,28.9z M168.3,29.4l2.5-1.4V31v2.8l-2.5-1.5l-2.4-1.4L168.3,29.4z M168.3,35.9l-2.4,1.5v-2.8v-2.9
			l2.4,1.4l2.5,1.5L168.3,35.9z"/>
		<path d="M175.6,11.8l2.5-1.4v2.9v2.8l-2.5-1.5l-2.4-1.4L175.6,11.8z M175.6,18.3l-2.4,1.5v-2.8V14l2.4,1.4l2.5,1.5L175.6,18.3z
			 M175.6,18.8l2.5-1.4v2.9v2.8l-2.5-1.5l-2.4-1.4L175.6,18.8z M175.6,25.3l-2.4,1.5v-2.8V21l2.4,1.4l2.5,1.5L175.6,25.3z M175.6,26
			l2.5-1.4v2.9v2.8l-2.5-1.5l-2.4-1.4L175.6,26z M175.6,32.3l-2.4,1.5V31v-2.9l2.4,1.4L178,31L175.6,32.3z M175.6,33l2.5-1.4v2.9
			v2.8l-2.5-1.5l-2.4-1.4L175.6,33z M175.6,39.4l-2.4,1.5V38v-2.9l2.4,1.4L178,38L175.6,39.4z M181.2,8.3l2.5-1.4v2.9v2.8l-2.5-1.5
			l-2.4-1.4L181.2,8.3z M181.2,14.8l-2.4,1.5v-2.8v-2.9l2.4,1.4l2.5,1.5L181.2,14.8z M181.2,29.4l2.5-1.4V31v2.8l-2.5-1.5l-2.4-1.4
			L181.2,29.4z M186.8,11.2l-2.4,1.5V9.9V7l2.4,1.4l2.5,1.5L186.8,11.2z M186.8,26l2.5-1.4v2.9v2.8l-2.5-1.5l-2.4-1.4L186.8,26z
			 M186.8,32.3l-2.4,1.5V31v-2.9l2.4,1.4l2.5,1.5L186.8,32.3z M192.5,14.8l-2.4,1.5v-2.8v-2.9l2.4,1.4l2.5,1.5L192.5,14.8z
			 M192.5,15.3l2.5-1.4v2.9v2.8l-2.5-1.5l-2.4-1.4L192.5,15.3z M192.5,21.8l-2.4,1.5v-2.8v-2.9l2.4,1.4l2.5,1.5L192.5,21.8z
			 M192.5,22.4L195,21v2.9v2.8l-2.5-1.5l-2.4-1.4L192.5,22.4z M192.5,28.9l-2.4,1.5v-2.8v-2.9l2.4,1.4l2.5,1.5L192.5,28.9z
			 M192.5,29.4l2.5-1.4V31v2.8l-2.5-1.5l-2.4-1.4L192.5,29.4z M192.5,35.9l-2.4,1.5v-2.8v-2.9l2.4,1.4l2.5,1.5L192.5,35.9z"/>
		<path d="M199.7,11.8l2.5-1.4v2.9v2.8l-2.5-1.5l-2.4-1.4L199.7,11.8z M199.7,18.3l-2.4,1.5v-2.8V14l2.4,1.4l2.5,1.5L199.7,18.3z
			 M199.7,18.8l2.5-1.4v2.9v2.8l-2.5-1.5l-2.4-1.4L199.7,18.8z M199.7,25.3l-2.4,1.5v-2.8V21l2.4,1.4l2.5,1.5L199.7,25.3z M199.7,26
			l2.5-1.4v2.9v2.8l-2.5-1.5l-2.4-1.4L199.7,26z M199.7,32.3l-2.4,1.5V31v-2.9l2.4,1.4l2.5,1.5L199.7,32.3z M199.7,33l2.5-1.4v2.9
			v2.8l-2.5-1.5l-2.4-1.4L199.7,33z M199.7,39.4l-2.4,1.5V38v-2.9l2.4,1.4l2.5,1.5L199.7,39.4z M205.4,14.8l-2.4,1.5v-2.8v-2.9
			l2.4,1.4l2.5,1.5L205.4,14.8z M205.4,15.3l2.5-1.4v2.9v2.8l-2.5-1.5l-2.4-1.4L205.4,15.3z M211,11.8l2.5-1.4v2.9v2.8l-2.5-1.5
			l-2.4-1.4L211,11.8z M211,18.3l-2.4,1.5v-2.8V14l2.4,1.4l2.5,1.5L211,18.3z M216.6,8.3l2.5-1.4v2.9v2.8l-2.5-1.5l-2.4-1.4
			L216.6,8.3z M216.6,14.8l-2.4,1.5v-2.8v-2.9l2.4,1.4l2.5,1.5L216.6,14.8z M216.6,15.3l2.5-1.4v2.9v2.8l-2.5-1.5l-2.4-1.4
			L216.6,15.3z M216.6,21.8l-2.4,1.5v-2.8v-2.9l2.4,1.4l2.5,1.5L216.6,21.8z M216.6,22.4l2.5-1.4v2.9v2.8l-2.5-1.5l-2.4-1.4
			L216.6,22.4z M216.6,28.9l-2.4,1.5v-2.8v-2.9l2.4,1.4l2.5,1.5L216.6,28.9z M216.6,29.4l2.5-1.4V31v2.8l-2.5-1.5l-2.4-1.4
			L216.6,29.4z M216.6,35.9l-2.4,1.5v-2.8v-2.9l2.4,1.4l2.5,1.5L216.6,35.9z"/>
		<path d="M224,8.3l2.5-1.4v2.9v2.8l-2.5-1.5l-2.4-1.4L224,8.3z M224,14.8l-2.4,1.5v-2.8v-2.9l2.4,1.4l2.5,1.5L224,14.8z M224,15.3
			l2.5-1.4v2.9v2.8l-2.5-1.5l-2.4-1.4L224,15.3z M224,21.8l-2.4,1.5v-2.8v-2.9l2.4,1.4l2.5,1.5L224,21.8z M224,22.4l2.5-1.4v2.9v2.8
			l-2.5-1.5l-2.4-1.4L224,22.4z M224,28.9l-2.4,1.5v-2.8v-2.9L224,26l2.5,1.5L224,28.9z M224,29.4l2.5-1.4V31v2.8l-2.5-1.5l-2.4-1.4
			L224,29.4z M224,35.9l-2.4,1.5v-2.8v-2.9L224,33l2.5,1.5L224,35.9z"/>
		<path d="M231.2,11.8l2.5-1.4v2.9v2.8l-2.5-1.5l-2.4-1.4L231.2,11.8z M231.2,18.3l-2.4,1.5v-2.8V14l2.4,1.4l2.5,1.5L231.2,18.3z
			 M231.2,18.8l2.5-1.4v2.9v2.8l-2.5-1.5l-2.4-1.4L231.2,18.8z M231.2,25.3l-2.4,1.5v-2.8V21l2.4,1.4l2.5,1.5L231.2,25.3z M231.2,26
			l2.5-1.4v2.9v2.8l-2.5-1.5l-2.4-1.4L231.2,26z M231.2,32.3l-2.4,1.5V31v-2.9l2.4,1.4l2.5,1.5L231.2,32.3z M231.2,33l2.5-1.4v2.9
			v2.8l-2.5-1.5l-2.4-1.4L231.2,33z M236.8,8.3l2.5-1.4v2.9v2.8l-2.5-1.5l-2.4-1.4L236.8,8.3z M236.8,14.8l-2.4,1.5v-2.8v-2.9
			l2.4,1.4l2.5,1.5L236.8,14.8z M236.8,21.8l-2.4,1.5v-2.8v-2.9l2.4,1.4l2.5,1.5L236.8,21.8z M236.8,22.4l2.5-1.4v2.9v2.8l-2.5-1.5
			l-2.4-1.4L236.8,22.4z M236.8,28.9l-2.4,1.5v-2.8v-2.9l2.4,1.4l2.5,1.5L236.8,28.9z M236.8,36.5l2.5-1.4V38v2.8l-2.5-1.5l-2.4-1.4
			L236.8,36.5z M242.5,11.2l-2.4,1.5V9.9V7l2.4,1.4l2.5,1.5L242.5,11.2z M242.5,33l2.5-1.4v2.9v2.8l-2.5-1.5l-2.4-1.4L242.5,33z
			 M242.5,39.4l-2.4,1.5V38v-2.9l2.4,1.4l2.5,1.5L242.5,39.4z M248.1,14.8l-2.4,1.5v-2.8v-2.9l2.4,1.4l2.5,1.5L248.1,14.8z
			 M248.1,15.3l2.5-1.4v2.9v2.8l-2.5-1.5l-2.4-1.4L248.1,15.3z M248.1,21.8l-2.4,1.5v-2.8v-2.9l2.4,1.4l2.5,1.5L248.1,21.8z
			 M248.1,22.4l2.5-1.4v2.9v2.8l-2.5-1.5l-2.4-1.4L248.1,22.4z M248.1,28.9l-2.4,1.5v-2.8v-2.9l2.4,1.4l2.5,1.5L248.1,28.9z
			 M248.1,29.4l2.5-1.4V31v2.8l-2.5-1.5l-2.4-1.4L248.1,29.4z M248.1,35.9l-2.4,1.5v-2.8v-2.9l2.4,1.4l2.5,1.5L248.1,35.9z"/>
	</g>
	<g>
		<path d="M103.8,48l3.8-2.3v4.4v4.3l-3.8-2.2l-3.7-2.1L103.8,48z M107.7,55.6l-3.8,2.1l-3.7,2.2v-4.3v-4.4l3.7,2.3L107.7,55.6z
			 M103.8,58.8l3.8-2.3v4.4v4.3l-3.8-2.2l-3.7-2.1L103.8,58.8z M115.4,82.6l-3.8,2.1l-3.7,2.2v-4.3v-4.4l3.7,2.3L115.4,82.6z
			 M108.8,44.7l3.7-2.1l3.8-2.3v4.4V49l-3.8-2.2L108.8,44.7z M112.5,52.3l-3.7,2.2v-4.3v-4.4l3.7,2.3l3.8,2.1L112.5,52.3z
			 M112.5,63.1l-3.7,2.2V61v-4.4l3.7,2.3l3.8,2.1L112.5,63.1z M108.8,66.4l3.7-2.1l3.8-2.3v4.4v4.3l-3.8-2.2L108.8,66.4z M108.8,88
			l3.7-2.1l3.8-2.3V88v4.3l-3.8-2.2L108.8,88z M124.9,44.7l-3.8,2.1l-3.7,2.2v-4.3v-4.4l3.7,2.3L124.9,44.7z M121.1,48l3.8-2.3v4.4
			v4.3l-3.8-2.2l-3.7-2.1L121.1,48z M124.9,66.4l-3.8,2.1l-3.7,2.2v-4.3v-4.4l3.7,2.3L124.9,66.4z M121.1,69.6l3.8-2.3v4.4V76
			l-3.8-2.2l-3.7-2.1L121.1,69.6z M121.1,80.5l3.8-2.3v4.4v4.3l-3.8-2.2l-3.7-2.1L121.1,80.5z M124.9,88l-3.8,2.1l-3.7,2.2V88v-4.4
			l3.7,2.3L124.9,88z M129.8,52.3l-3.7,2.2v-4.3v-4.4l3.7,2.3l3.8,2.1L129.8,52.3z M129.8,73.9l-3.7,2.2v-4.3v-4.4l3.7,2.3l3.8,2.1
			L129.8,73.9z M126,77.3l3.7-2.1l3.8-2.3v4.4v4.3l-3.8-2.2L126,77.3z M129.8,84.7l-3.7,2.2v-4.3v-4.4l3.7,2.3l3.8,2.1L129.8,84.7z"
			/>
		<path d="M140.8,47.8l3.8-2.1v4.4v4.3l-3.8-2.2l-3.7-2.1L140.8,47.8z M140.8,57.8l-3.7,2.2v-4.3v-4.4l3.7,2.1l3.8,2.3L140.8,57.8z
			 M149.5,42.4l3.8-2.1v4.4v4.3l-3.8-2.2l-3.7-2.1L149.5,42.4z M149.5,52.3l-3.7,2.2v-4.3v-4.4l3.7,2.1l3.8,2.3L149.5,52.3z
			 M149.5,53.2l3.8-2.1v4.4v4.3l-3.8-2.2l-3.7-2.1L149.5,53.2z M149.5,63.1l-3.7,2.2V61v-4.4l3.7,2.1l3.8,2.3L149.5,63.1z
			 M149.5,64.1l3.8-2.1v4.4v4.3l-3.8-2.2l-3.7-2.1L149.5,64.1z M149.5,73.9l-3.7,2.2v-4.3v-4.4l3.7,2.1l3.8,2.3L149.5,73.9z
			 M149.5,74.9l3.8-2.1v4.4v4.3l-3.8-2.2l-3.7-2.1L149.5,74.9z M149.5,84.7l-3.7,2.2v-4.3v-4.4l3.7,2.1l3.8,2.3L149.5,84.7z
			 M149.5,85.7l3.8-2.1V88v4.3l-3.8-2.2l-3.7-2.1L149.5,85.7z M158.2,47l-3.7,2.2v-4.4v-4.4l3.7,2.1l3.8,2.3L158.2,47z M158.2,47.8
			l3.8-2.1v4.4v4.3l-3.8-2.2l-3.7-2.1L158.2,47.8z M166.9,52.3l-3.7,2.2v-4.3v-4.4l3.7,2.1l3.8,2.3L166.9,52.3z"/>
		<path d="M178.1,47.8l3.8-2.1v4.4v4.3l-3.8-2.2l-3.7-2.1L178.1,47.8z M178.1,57.8l-3.7,2.2v-4.3v-4.4l3.7,2.1l3.8,2.3L178.1,57.8z
			 M178.1,58.7l3.8-2.1V61v4.3l-3.8-2.2l-3.7-2.1L178.1,58.7z M178.1,68.6l-3.7,2.2v-4.3V62l3.7,2.1l3.8,2.3L178.1,68.6z
			 M178.1,69.5l3.8-2.1v4.4v4.3l-3.8-2.2l-3.7-2.1L178.1,69.5z M178.1,79.4l-3.7,2.2v-4.3v-4.4l3.7,2.1l3.8,2.3L178.1,79.4z
			 M178.1,80.3l3.8-2.1v4.4v4.3l-3.8-2.2l-3.7-2.1L178.1,80.3z M186.7,42.4l3.8-2.1v4.4v4.3l-3.8-2.2l-3.8-2.1L186.7,42.4z
			 M186.7,52.3l-3.7,2.2v-4.3v-4.4l3.7,2.1l3.8,2.3L186.7,52.3z M186.7,85.7l3.8-2.1V88v4.3l-3.8-2.2L183,88L186.7,85.7z M195.3,47
			l-3.7,2.2v-4.4v-4.4l3.7,2.1l3.8,2.3L195.3,47z M195.3,80.3l3.8-2.1v4.4v4.3l-3.8-2.2l-3.7-2.1L195.3,80.3z M195.3,90.2l-3.7,2.2
			V88v-4.4l3.7,2.1l3.8,2.3L195.3,90.2z M203.9,52.3l-3.7,2.2v-4.3v-4.4l3.7,2.1l3.8,2.3L203.9,52.3z M203.9,53.2l3.8-2.1v4.4v4.3
			l-3.8-2.2l-3.7-2.1L203.9,53.2z M203.9,63.1l-3.7,2.2V61v-4.4l3.7,2.1l3.8,2.3L203.9,63.1z M203.9,64.1l3.8-2.1v4.4v4.3l-3.8-2.2
			l-3.7-2.1L203.9,64.1z M203.9,73.9l-3.7,2.2v-4.3v-4.4l3.7,2.1l3.8,2.3L203.9,73.9z M203.9,74.9l3.8-2.1v4.4v4.3l-3.8-2.2
			l-3.7-2.1L203.9,74.9z M203.9,84.7l-3.7,2.2v-4.3v-4.4l3.7,2.1l3.8,2.3L203.9,84.7z"/>
		<path d="M215.1,47.8l3.8-2.1v4.4v4.3l-3.8-2.2l-3.7-2.1L215.1,47.8z M215.1,57.8l-3.7,2.2v-4.3v-4.4l3.7,2.1l3.8,2.3L215.1,57.8z
			 M215.1,58.7l3.8-2.1V61v4.3l-3.8-2.2l-3.7-2.1L215.1,58.7z M215.1,68.6l-3.7,2.2v-4.3V62l3.7,2.1l3.8,2.3L215.1,68.6z
			 M215.1,69.5l3.8-2.1v4.4v4.3l-3.8-2.2l-3.7-2.1L215.1,69.5z M215.1,79.4l-3.7,2.2v-4.3v-4.4l3.7,2.1l3.8,2.3L215.1,79.4z
			 M215.1,80.3l3.8-2.1v4.4v4.3l-3.8-2.2l-3.7-2.1L215.1,80.3z M215.1,90.2l-3.7,2.2V88v-4.4l3.7,2.1l3.8,2.3L215.1,90.2z
			 M223.7,42.4l3.8-2.1v4.4v4.3l-3.8-2.2l-3.7-2.1L223.7,42.4z M223.7,52.3l-3.7,2.2v-4.3v-4.4l3.7,2.1l3.8,2.3L223.7,52.3z
			 M223.7,64.1l3.8-2.1v4.4v4.3l-3.8-2.2l-3.7-2.1L223.7,64.1z M223.7,73.9l-3.7,2.2v-4.3v-4.4l3.7,2.1l3.8,2.3L223.7,73.9z
			 M232.4,47l-3.7,2.2v-4.4v-4.4l3.7,2.1l3.8,2.3L232.4,47z M232.4,58.7l3.8-2.1V61v4.3l-3.8-2.2l-3.7-2.1L232.4,58.7z M232.4,68.6
			l-3.7,2.2v-4.3V62l3.7,2.1l3.8,2.3L232.4,68.6z M232.4,69.5l3.8-2.1v4.4v4.3l-3.8-2.2l-3.7-2.1L232.4,69.5z M241,52.3l-3.7,2.2
			v-4.3v-4.4l3.7,2.1l3.8,2.3L241,52.3z M241,53.2l3.8-2.1v4.4v4.3l-3.8-2.2l-3.7-2.1L241,53.2z M241,63.1l-3.7,2.2V61v-4.4l3.7,2.1
			l3.8,2.3L241,63.1z M241,73.9l-3.7,2.2v-4.3v-4.4l3.7,2.1l3.8,2.3L241,73.9z M241,74.9l3.8-2.1v4.4v4.3l-3.8-2.2l-3.7-2.1
			L241,74.9z M241,84.7l-3.7,2.2v-4.3v-4.4l3.7,2.1l3.8,2.3L241,84.7z"/>
		<path d="M252.2,42.4l3.8-2.1v4.4v4.3l-3.8-2.2l-3.7-2.1L252.2,42.4z M252.2,52.3l-3.7,2.2v-4.3v-4.4l3.7,2.1l3.8,2.3L252.2,52.3z
			 M252.2,53.2l3.8-2.1v4.4v4.3l-3.8-2.2l-3.7-2.1L252.2,53.2z M252.2,63.1l-3.7,2.2V61v-4.4l3.7,2.1l3.8,2.3L252.2,63.1z
			 M252.2,64.1l3.8-2.1v4.4v4.3l-3.8-2.2l-3.7-2.1L252.2,64.1z M252.2,73.9l-3.7,2.2v-4.3v-4.4l3.7,2.1l3.8,2.3L252.2,73.9z
			 M252.2,74.9l3.8-2.1v4.4v4.3l-3.8-2.2l-3.7-2.1L252.2,74.9z M252.2,84.7l-3.7,2.2v-4.3v-4.4l3.7,2.1l3.8,2.3L252.2,84.7z"/>
		<path d="M263.3,47.8l3.8-2.1v4.4v4.3l-3.8-2.2l-3.7-2.1L263.3,47.8z M263.3,57.8l-3.7,2.2v-4.3v-4.4l3.7,2.1l3.8,2.3L263.3,57.8z
			 M263.3,58.7l3.8-2.1V61v4.3l-3.8-2.2l-3.7-2.1L263.3,58.7z M263.3,69.5l3.8-2.1v4.4v4.3l-3.8-2.2l-3.7-2.1L263.3,69.5z
			 M263.3,79.4l-3.7,2.2v-4.3v-4.4l3.7,2.1l3.8,2.3L263.3,79.4z M263.3,80.3l3.8-2.1v4.4v4.3l-3.8-2.2l-3.7-2.1L263.3,80.3z
			 M272,42.4l3.8-2.1v4.4v4.3l-3.8-2.2l-3.7-2.1L272,42.4z M272,52.3l-3.7,2.2v-4.3v-4.4l3.7,2.1l3.8,2.3L272,52.3z M272,63.1
			l-3.7,2.2V61v-4.4l3.7,2.1l3.8,2.3L272,63.1z M272,73.9l-3.7,2.2v-4.3v-4.4l3.7,2.1l3.8,2.3L272,73.9z M272,85.7l3.8-2.1V88v4.3
			l-3.8-2.2l-3.7-2.1L272,85.7z M280.6,47l-3.7,2.2v-4.4v-4.4l3.7,2.1l3.8,2.3L280.6,47z M280.6,47.8l3.8-2.1v4.4v4.3l-3.8-2.2
			l-3.7-2.1L280.6,47.8z M280.6,80.3l3.8-2.1v4.4v4.3l-3.8-2.2l-3.7-2.1L280.6,80.3z M280.6,90.2l-3.7,2.2V88v-4.4l3.7,2.1l3.8,2.3
			L280.6,90.2z M289.3,52.3l-3.7,2.2v-4.3v-4.4l3.7,2.1l3.8,2.3L289.3,52.3z M289.3,84.7l-3.7,2.2v-4.3v-4.4l3.7,2.1l3.8,2.3
			L289.3,84.7z"/>
		<path d="M300.4,48l3.8-2.3v4.4v4.3l-3.8-2.2l-3.7-2.1L300.4,48z M304.3,55.6l-3.8,2.1l-3.7,2.2v-4.3v-4.4l3.7,2.3L304.3,55.6z
			 M300.4,58.8l3.8-2.3v4.4v4.3l-3.8-2.2l-3.7-2.1L300.4,58.8z M304.3,77.3l-3.8,2.1l-3.7,2.2v-4.3v-4.4l3.7,2.3L304.3,77.3z
			 M300.4,80.5l3.8-2.3v4.4v4.3l-3.8-2.2l-3.7-2.1L300.4,80.5z M305.3,44.7l3.7-2.1l3.8-2.3v4.4V49l-3.8-2.2L305.3,44.7z M309,52.3
			l-3.7,2.2v-4.3v-4.4l3.7,2.3l3.8,2.1L309,52.3z M309,63.1l-3.7,2.2V61v-4.4l3.7,2.3l3.8,2.1L309,63.1z M305.3,66.4l3.7-2.1
			l3.8-2.3v4.4v4.3l-3.8-2.2L305.3,66.4z M305.3,88l3.7-2.1l3.8-2.3V88v4.3l-3.8-2.2L305.3,88z M321.5,44.7l-3.8,2.1L314,49v-4.3
			v-4.4l3.7,2.3L321.5,44.7z M317.7,48l3.8-2.3v4.4v4.3l-3.8-2.2l-3.7-2.1L317.7,48z M321.5,66.4l-3.8,2.1l-3.7,2.2v-4.3v-4.4
			l3.7,2.3L321.5,66.4z M317.7,69.6l3.8-2.3v4.4V76l-3.8-2.2l-3.7-2.1L317.7,69.6z M317.7,80.5l3.8-2.3v4.4v4.3l-3.8-2.2l-3.7-2.1
			L317.7,80.5z M321.5,88l-3.8,2.1l-3.7,2.2V88v-4.4l3.7,2.3L321.5,88z M326.3,52.3l-3.7,2.2v-4.3v-4.4l3.7,2.3l3.8,2.1L326.3,52.3z
			 M326.3,73.9l-3.7,2.2v-4.3v-4.4l3.7,2.3l3.8,2.1L326.3,73.9z M322.6,77.3l3.7-2.1l3.8-2.3v4.4v4.3l-3.8-2.2L322.6,77.3z
			 M326.3,84.7l-3.7,2.2v-4.3v-4.4l3.7,2.3l3.8,2.1L326.3,84.7z"/>
	</g>
</g>
</svg>
