<?xml version="1.0" encoding="utf-8"?>
<!-- Generator: Adobe Illustrator 26.0.1, SVG Export Plug-In . SVG Version: 6.00 Build 0)  -->
<svg version="1.1" id="Слой_1" xmlns="http://www.w3.org/2000/svg" xmlns:xlink="http://www.w3.org/1999/xlink" x="0px" y="0px"
	 viewBox="0 0 2147.7 1929.2" style="enable-background:new 0 0 2147.7 1929.2;" xml:space="preserve">
<style type="text/css">
	.st0{clip-path:url(#SVGID_00000163756122212905341170000012083948570985362066_);}
	.st1{fill:#FFDA48;}
	.st2{fill:#FF6C3C;}
	
		.st3{clip-path:url(#SVGID_00000163756122212905341170000012083948570985362066_);fill:none;stroke:#FFDA48;stroke-width:21;stroke-miterlimit:10;}
</style>
<g>
	<g>
		<defs>
			<rect id="SVGID_1_" x="17.3" y="-447" width="1709.4" height="2500.6"/>
		</defs>
		<clipPath id="SVGID_00000084491370746833217990000013792734523896406951_">
			<use xlink:href="#SVGID_1_"  style="overflow:visible;"/>
		</clipPath>
	</g>
	<g>
		<defs>
			<rect id="SVGID_00000036948797784557920040000008540289028105628310_" x="-26.7" y="-759.7" width="2701.5" height="2701.5"/>
		</defs>
		<clipPath id="SVGID_00000124123543936596099270000012254995553820935869_">
			<use xlink:href="#SVGID_00000036948797784557920040000008540289028105628310_"  style="overflow:visible;"/>
		</clipPath>
		<g style="clip-path:url(#SVGID_00000124123543936596099270000012254995553820935869_);">
			<polygon class="st1" points="-35.1,1944.9 871.7,1038.1 1778.5,1944.9 			"/>
			<polygon class="st2" points="-35.1,1944.9 871.7,1038.1 1068.9,1944.9 			"/>
		</g>
		<g style="clip-path:url(#SVGID_00000124123543936596099270000012254995553820935869_);">
			<g>
				<path class="st1" d="M44.6,1220.7c-327.3,1.4-694.4,1.4-1021.7,0C-649.8,1219.3-282.7,1219.3,44.6,1220.7L44.6,1220.7z"/>
			</g>
			<g>
				<path class="st1" d="M103,1252.8c-327.3,1.4-694.4,1.4-1021.7,0C-591.4,1251.4-224.3,1251.4,103,1252.8L103,1252.8z"/>
			</g>
			<g>
				<path class="st1" d="M161.4,1285c-327.3,1.4-694.4,1.4-1021.7,0C-533,1283.5-165.9,1283.6,161.4,1285L161.4,1285z"/>
			</g>
			<g>
				<path class="st1" d="M219.8,1317.1c-327.3,1.4-694.4,1.4-1021.7,0C-474.6,1315.7-107.4,1315.7,219.8,1317.1L219.8,1317.1z"/>
			</g>
			<g>
				<path class="st1" d="M278.3,1349.2c-327.3,1.4-694.4,1.4-1021.7,0C-416.2,1347.8-49,1347.8,278.3,1349.2L278.3,1349.2z"/>
			</g>
			<g>
				<path class="st1" d="M336.7,1381.3c-327.3,1.4-694.4,1.4-1021.7,0C-357.8,1379.9,9.4,1379.9,336.7,1381.3L336.7,1381.3z"/>
			</g>
			<g>
				<path class="st1" d="M395.1,1413.5c-327.3,1.4-694.4,1.4-1021.7,0C-299.4,1412,67.8,1412,395.1,1413.5L395.1,1413.5z"/>
			</g>
			<g>
				<path class="st1" d="M453.5,1445.6c-327.3,1.4-694.4,1.4-1021.7,0C-240.9,1444.2,126.2,1444.2,453.5,1445.6L453.5,1445.6z"/>
			</g>
			<g>
				<path class="st1" d="M511.9,1477.7c-327.3,1.4-694.4,1.4-1021.7,0C-182.5,1476.3,184.6,1476.3,511.9,1477.7L511.9,1477.7z"/>
			</g>
			<g>
				<path class="st1" d="M570.3,1509.8c-327.3,1.4-694.4,1.4-1021.7,0C-124.1,1508.4,243,1508.4,570.3,1509.8L570.3,1509.8z"/>
			</g>
			<g>
				<path class="st1" d="M628.7,1541.9c-327.3,1.4-694.4,1.4-1021.7,0C-65.7,1540.5,301.4,1540.5,628.7,1541.9L628.7,1541.9z"/>
			</g>
			<g>
				<path class="st1" d="M687.1,1574.1c-327.3,1.4-694.4,1.4-1021.7,0C-7.3,1572.6,359.8,1572.7,687.1,1574.1L687.1,1574.1z"/>
			</g>
			<g>
				<path class="st1" d="M745.5,1606.2c-327.3,1.4-694.4,1.4-1021.7,0C51.1,1604.8,418.3,1604.8,745.5,1606.2L745.5,1606.2z"/>
			</g>
			<g>
				<path class="st1" d="M804,1638.3c-327.3,1.4-694.4,1.4-1021.7,0C109.5,1636.9,476.7,1636.9,804,1638.3L804,1638.3z"/>
			</g>
			<g>
				<path class="st1" d="M862.4,1670.4c-327.3,1.4-694.4,1.4-1021.7,0C167.9,1669,535.1,1669,862.4,1670.4L862.4,1670.4z"/>
			</g>
			<g>
				<path class="st1" d="M920.8,1702.6c-327.3,1.4-694.4,1.4-1021.7,0C226.3,1701.1,593.5,1701.1,920.8,1702.6L920.8,1702.6z"/>
			</g>
			<g>
				<path class="st1" d="M979.2,1734.7c-327.3,1.4-694.4,1.4-1021.7,0C284.8,1733.3,651.9,1733.3,979.2,1734.7L979.2,1734.7z"/>
			</g>
			<g>
				<path class="st1" d="M1037.2,1766.4c-327.3,1.4-694.4,1.4-1021.7,0C342.8,1765,709.9,1765,1037.2,1766.4L1037.2,1766.4z"/>
			</g>
			<g>
				<path class="st1" d="M1095.2,1798.2c-327.3,1.4-694.4,1.4-1021.7,0C400.8,1796.8,767.9,1796.8,1095.2,1798.2L1095.2,1798.2z"/>
			</g>
			<g>
				<path class="st1" d="M1153.2,1829.9c-327.3,1.4-694.4,1.4-1021.7,0C458.8,1828.5,825.9,1828.5,1153.2,1829.9L1153.2,1829.9z"/>
			</g>
			<g>
				<path class="st1" d="M1211.2,1861.7c-327.3,1.4-694.4,1.4-1021.7,0C516.8,1860.3,883.9,1860.3,1211.2,1861.7L1211.2,1861.7z"/>
			</g>
			<g>
				<path class="st1" d="M1269.2,1893.4c-327.3,1.4-694.4,1.4-1021.7,0C574.8,1892,942,1892,1269.2,1893.4L1269.2,1893.4z"/>
			</g>
			<g>
				<path class="st1" d="M1327.2,1925.2c-327.3,1.4-694.4,1.4-1021.7,0C632.8,1923.7,1000,1923.8,1327.2,1925.2L1327.2,1925.2z"/>
			</g>
		</g>
		
			<path style="clip-path:url(#SVGID_00000124123543936596099270000012254995553820935869_);fill:none;stroke:#FFDA48;stroke-width:21;stroke-miterlimit:10;" d="
			M3093.9-662C2842.2,954,1328.1,2060-287.9,1808.4"/>
	</g>
	<polygon points="2683.3,1169.9 874.8,1941.2 -18.2,1228.3 -18.2,1941.2 2683.3,1941.2 	"/>
</g>
</svg>
