<svg id="Слой_1" data-name="Слой 1" xmlns="http://www.w3.org/2000/svg" viewBox="0 0 566.93 566.93"><path d="M200.47,219.71c-3.46,0-6,.06-8.61,0-7.51-.21-9.88-4.29-6-10.69q9.94-16.57,20.17-33,33.93-54.79,67.92-109.54c3.87-6.23,7.58-6.23,11.55,0q44.7,70.09,89.36,140.22a33.69,33.69,0,0,1,1.72,3c2.73,5.54.3,9.71-5.9,10-2.95.13-5.9,0-9.62,0,1.05,1.91,1.59,3,2.24,4Q448,358.2,532.83,492.66c.53.85,1.09,1.68,1.58,2.56,3.06,5.51.72,9.81-5.55,9.84-17.92.08-35.83,0-53.74,0H40.94c-.86,0-1.72,0-2.58,0-6.78-.23-9-4.15-5.56-10,7.82-13,15.75-25.95,23.66-38.91q70.8-116.09,141.62-232.16C198.8,222.88,199.42,221.64,200.47,219.71Zm81.29,202.43c19.61-.21,40-4.84,58.46-16.58a48.8,48.8,0,0,0,17.52-18.5c4.93-9.35,5.82-18.86.59-28.32-2.33-4.22-1.79-7.61.74-11.52a186.68,186.68,0,0,0,11.63-20,44,44,0,0,0,3.51-29.7c-5.46-23.46-29.23-38.94-54-35.44-13.66,1.93-25.3,7.81-35.54,16.83-4.35,3.84-4.4,3.81-8.69.14-9.17-7.86-19.39-13.76-31.38-16-19.92-3.77-37.2,1.21-49.93,17.35-12.56,15.93-11.95,33.39-3.09,50.86A184.59,184.59,0,0,0,202,348.48c2,3,2.22,5.5.22,8.65-4.13,6.5-4.7,13.68-3.06,21.1,2.78,12.6,10.83,21.19,21.34,27.84C238.56,417.53,258.6,421.91,281.76,422.14Zm-90-41.38a23.27,23.27,0,0,1-22,.22c-7.41-3.62-12.17-9.59-13.51-17.76-2.74-16.65,7.18-26.74,28.29-28.81-.62-1.65-1.18-3.24-1.81-4.8-4.24-10.45-6-21.22-3.63-32.38,5.89-27.71,32.36-45.85,61.51-42.39a19.4,19.4,0,0,0,7.55-.59,107.29,107.29,0,0,1,63.9.2,12.84,12.84,0,0,0,5.43.65,63.54,63.54,0,0,1,29.26,2.74c23.41,7.64,38.64,31.72,35,56.07-1.05,7-3.52,13.74-5.32,20.53,22.42,1.12,28.59,11.94,28.1,27.12-.23,7.27-4.66,12.74-10.32,17.14-8.25,6.42-17.16,5.89-26.07,2.13L363,393.38h91.15c-3-4.62-5.88-8.7-8.39-13a6.49,6.49,0,0,0-6.53-3.64c-8.45.2-16.91,0-25.36,0a7.79,7.79,0,0,1-2.56-.06,17.47,17.47,0,0,1-3-1.76c.94-.61,1.86-1.27,2.86-1.8.33-.18.84,0,1.27,0q15.48,0,30.95,0c1.38,0,2.75-.2,4.85-.36-4.31-6.87-8.13-13.21-12.26-19.34-.66-1-2.72-1.36-4.15-1.42-4.86-.19-9.74,0-14.61-.17a24.54,24.54,0,0,1-4.58-.95c0-.41.07-.82.11-1.23,6.16-2.74,13-.29,19.73-1.67-1-1.61-1.72-2.94-2.52-4.25-4-6.45-8.42-12.68-11.9-19.4-3.84-7.43-8.68-11.86-17.65-10.08-2,.39-4.23-.71-6.35-1.13l.19-1.79,14.46-1c-.51-1-.77-1.68-1.13-2.26q-18.6-29.67-37.17-59.36c-1.61-2.59-3.67-3.18-6.47-3.17q-24.72.09-49.44,0a55.49,55.49,0,0,1-6-.63l-.12-1.79c2-.4,4.06-1.15,6.1-1.16,12.9-.08,25.8,0,38.69.05h4.79c-1-1.76-1.49-2.88-2.14-3.91-3.15-5-6.46-9.82-9.47-14.86-1.59-2.66-3.58-3.65-6.66-3.62-12.32.14-24.65.05-37,.05-29.52,0-59.05-.05-88.57,0-1.84,0-4.53.41-5.37,1.62-4.44,6.44-8.41,13.19-12.76,20.18a12.67,12.67,0,0,0,2.71.66c15.62-.06,31.24-.22,46.85-.22,1.75,0,3.5.84,5.25,1.3,0,.48-.07,1-.11,1.45-1.57.4-3.15,1.15-4.72,1.15-15.9,0-31.8-.13-47.7-.37-3.44-.06-5.53,1.27-7.28,4.16-11.51,19.15-23.15,38.22-34.74,57.32-.62,1-1.08,2.15-1.64,3.26l10.94,1.38-.06,2a72.29,72.29,0,0,1-9.39.52c-3.18-.21-5,1-6.55,3.65-4.26,7.3-8.75,14.46-13.13,21.69-1.68,2.77-3.29,5.58-5,8.54,5.34,1.44,10.75-1,15.46,2.44a8.59,8.59,0,0,1-5.32,1.39c-9.5-1.64-15.7,2-19.28,10.93-1.38,3.44-3.85,6.46-6.3,10.46H144a23.45,23.45,0,0,1,4.28.09c.77.15,1.41,1,2.11,1.57a14.84,14.84,0,0,1-2.09,1.74,3.64,3.64,0,0,1-1.7.14c-8.45-.06-16.9-.09-25.35-.2-3.37,0-7-.09-9,2.89-3,4.26-5.3,8.93-8.11,13.77H197C195.23,389,193.59,385.12,191.75,380.76Zm289.71,44.8c-5.83-9.26-11-17.66-16.47-25.89a5.85,5.85,0,0,0-4.26-2q-48.8-.19-97.59,0a9.26,9.26,0,0,0-5.24,2.23c-2.88,2.33-5.33,5.18-8.16,7.58-1.83,1.56-1.95,2.86-.57,4.72a75.07,75.07,0,0,1,6.31,9.21c1.95,3.69,4.66,4.81,8.69,4.76,16.33-.19,32.67-.12,49-.14a7.71,7.71,0,0,1,2.55.08,9,9,0,0,1,2.17,1.6c-.66.6-1.23,1.47-2,1.74a9.88,9.88,0,0,1-3,.1l-47.29.12c-1.48,0-3,.14-4.57.22,3.48,11.93,3.48,11.93,14.82,11.85h.43c14.9,0,29.8-.13,44.71-.09a82.34,82.34,0,0,1,8.38.86l0,2a73.68,73.68,0,0,1-8.07.87c-15.76,0-31.53,0-47.29-.11-6.78,0-6.78-.05-6.57,6.72.17,5.48.2,5.56,5.53,5.56q62.57,0,125.11,0a24.27,24.27,0,0,0,3.18-.48c-4.18-6.57-8.65-12.45-11.84-18.95-3.5-7.13-8.22-10.26-16.16-8.93-3.34.55-6.87.13-10.29-.12-.8-.06-1.52-1.23-2.28-1.89a8.93,8.93,0,0,1,2.31-1.44,15,15,0,0,1,3.43-.13ZM71.3,446.61l.59.57c4-2.71,8-5.28,11.8-8.17,2.66-2,4.83-2.26,7.67-.2,7.18,5.21,14.65,10,21.85,15.23A17.32,17.32,0,0,0,124,457.5c19.77-.1,39.54,0,59.31,0,7.43,0,7.43,0,8.32-7.45.58-4.79.57-4.79-4.57-4.78q-25.14,0-50.29.06c-2.86,0-5.73-.15-8.58-.39a8,8,0,0,1-2.36-1l0-1.42a59.44,59.44,0,0,1,7.58-.94c18.05-.07,36.1,0,54.15-.05,1.88,0,4.6-.26,5.47-1.45,2.07-2.88,3.27-6.39,5.21-10.44H192.5c-15.76,0-31.52,0-47.28-.1a47.2,47.2,0,0,1-6.21-.83l0-1.87a59.78,59.78,0,0,1,6.76-.77q25.37-.07,50.72,0c2.26,0,4.05-.29,5.39-2.54,2.49-4.18,5.23-8.21,8-12.18,1.37-1.91,1.27-3.14-.57-4.67-2.42-2-4.4-4.53-6.89-6.41-1.69-1.28-3.93-2.6-5.93-2.61-30.51-.17-61-.1-91.54-.17a6.12,6.12,0,0,0-5.91,3.35c-4.15,7-8.47,13.95-12.69,20.93-.56.93-1,2-1.57,3.26,6.33,1.27,12.78-.79,18.5,2.45A10.31,10.31,0,0,1,98.09,429c-4.44.13-8.89,0-13.32.19-1.28.06-3.09.52-3.69,1.44C77.66,435.87,74.53,441.27,71.3,446.61Zm31.43,14.51c.19,7.53-4.78,11.66-9.2,16.14-3.72,3.78-7.43,7.57-11.06,11.43a21.42,21.42,0,0,0-3.36,4.42c-1.5,2.74-.62,4.57,2.42,4.77,3.26.21,6.79.61,9.73-.43,1.54-.54,2-4,3-6.13a7.17,7.17,0,0,1,.58-1.14c4.41-6.17,8.71-12.42,13.33-18.41a6.83,6.83,0,0,1,4.76-2.25q33.54-.28,67.07-.09a6.76,6.76,0,0,1,5,3,177.08,177.08,0,0,1,9.36,20.7c1.45,4,3.38,5.06,7.4,5.05q77.17-.19,154.35,0c4.22,0,5.57-1.42,6.43-5.33,3.38-15.21,12.84-25.22,27.82-29.1,21.16-5.49,41.23,7,47.17,28.69,1.54,5.61,1.54,5.61,7.23,5.61l77,0H527c-5.08-8.2-9.58-15.48-14.12-22.74-1.4-2.24-2.8-1.14-4.19.11-6.19,5.55-12.28,11.21-18.66,16.53a11.43,11.43,0,0,1-6.48,2.55c-8.88.28-17.77,0-26.65.19-3.66.1-5.74-1.3-7.51-4.38-4.84-8.45-10.06-16.68-14.91-25.12-1.72-3-3.83-4.11-7.26-4.08-17.77.16-35.54.11-53.32.13-6.53,0-6.53,0-9.06,6.05-6.41,15.26-20.51,22-36.43,17.58a19.5,19.5,0,0,0-8-.47c-22.91,3.65-45.86,4.69-69,2-9-1.05-18-3.92-27-.1a3.83,3.83,0,0,1-1.28.11C210,487,198.14,479,193.63,465.85c-1.24-3.62-3-4.85-6.74-4.83-23.93.16-47.87.09-71.8.1Zm219.7-37.39c-12.94,2-24.58,4.4-36.33,5.41a111.81,111.81,0,0,1-44.89-5.69c-3.31-1.1-4.76-.31-5.4,3-.53,2.66-1.21,5.3-2,7.9-1.18,3.91,0,6.21,3.75,8.21,8.47,4.46,13,11.78,13.62,21.43a6.62,6.62,0,0,1-3.25,6.46c-2.33,1.59-4,4.09-6,6.19l.65,1.23c24.44,3.66,48.88,2.91,74.55-.41-2.11-2.56-3.31-4.7-5.1-6.05-4.43-3.35-5.29-5.08-4.09-10.6a27.38,27.38,0,0,1,14.6-19.14c1.36-.73,3.16-2.71,3-3.86C324.79,432.76,323.39,427.84,322.43,423.73ZM279.88,71.65a22.19,22.19,0,0,0-1.9,2.17q-22,35.36-44,70.69c-1.61,2.58-.78,4.07,1,5.91,9.7,9.94,19.2,20.07,29,29.89,4.94,4.94,10.4,9.35,15.66,14L326,143.79ZM210.51,201.91c1-1.91,1.52-3.07,2.18-4.15,4.33-7.08,8.64-14.17,13.05-21.21s4.44-7-2.86-11a7.2,7.2,0,0,0-1.57-.18c-9.37,15.21-18.9,30.69-28.81,46.76H369.22c-.94-1.62-1.54-2.71-2.2-3.77q-13.08-20.68-26.19-41.36c-4.52-7.15-4.52-7.16-11.43-2.29-.32.23-.46.7-.95,1.47,7.42,11.54,14.94,23.23,23,35.68Zm8.66,243.17-.46-.94c.93-1,1.71-2.62,2.8-2.87,4.83-1.08,4.85-4.88,5.34-8.51.09-.71.32-1.39.47-2.09.82-3.68,3.29-8.17,2-10.82-1.37-2.82-6.32-3.91-9.71-5.75-.25-.13-.53-.41-.75-.37-1.21.23-3,.12-3.52.87-6.65,9.67-13.21,19.43-16.33,31-2.27,8.42-1.52,16.57,3.45,23.85s12,11.31,21.2,10.52c4.67-.4,5.44-1.88,2.87-5.66a68.25,68.25,0,0,0-5.91-6.73c-.67-.76-1.37-1.48-2.41-2.6,9.47-2.49,12.68,5.94,19,9.84,3.15-10.14-4.37-14.45-9.62-20.53,1.64-.31,2.69-.8,3.65-.65,6.89,1.07,9.4,7.16,13.58,12.94,1.23-5-.43-8.25-2.31-11.25C237.13,446.72,229.14,443.63,219.17,445.08Zm123.17-31.95c-4,2-7.33,4-10.86,5.44-2.42,1-2.76,2.26-2.08,4.63,1.28,4.53,2.07,9.19,3.38,13.71.35,1.23,1.68,2.29,2.78,3.16,1.71,1.36,3.6,2.49,5.42,3.73-14,2-15.23,2.26-19,5.07-6.11,4.6-9.62,12.27-7.42,16.5,2.14-2.89,4-5.95,6.4-8.51,3.5-3.73,6.61-4.18,9.56-1.86-1.85,1.77-4.09,3.27-5.43,5.34a50.48,50.48,0,0,0-4.75,9.88c-.33.9,1.05,2.43,1.64,3.67a15.22,15.22,0,0,0,3.11-1.69c2.36-2.07,4.38-4.58,6.9-6.39s5.3-2.58,8.68-.48c-1.6,1.42-3,2.55-4.28,3.83a33.82,33.82,0,0,0-3.64,4.21c-3.22,4.62-2.46,6.15,3.1,6.58,13.18,1,24.7-10,25-24.39C361.31,438.53,350.54,426.45,342.34,413.13ZM430.81,498a7.38,7.38,0,0,0,.44-1.78c-1.47-11.75-12.81-23.76-24.66-25.53-2.36-.35-5.31.69-7.45,2-3.52,2.12-4.85,5.75-5,9.9,0,1.25-1,2.47-1.61,3.71-.77-1.29-2.34-2.72-2.15-3.85.65-4,1.9-7.86,2.95-11.88a17.82,17.82,0,0,0-3.38.7c-10.62,4-17.52,11.43-20.56,22.45-.88,3.16-.26,4.48,3.29,4.36,5.85-.21,11.72-.05,17.59-.05ZM97.53,461.69a4.85,4.85,0,0,0-1.3-.42c-10.6,0-21.2-.15-31.79.09-1.41,0-3.23,1.65-4.09,3-6,9.44-11.74,19-17.56,28.52-.85,1.4-1.67,2.83-2.82,4.79H73.79c-.68-5.59,2.29-9.22,5.68-12.67,5-5.11,10-10.22,15-15.4C96.52,467.43,98.45,465.1,97.53,461.69Zm62.55,36.09c0-4-.54-7.61.15-11s2.62-6.44,4.24-10.2h-36c-16.76,0-16.77,0-25.77,14.28a14.1,14.1,0,0,0-1.48,2.61c-.44,1.26-.63,2.6-1,4.3Zm283.83-36.22c3.89,6.51,7.3,12.81,11.36,18.66a10.68,10.68,0,0,0,6.64,3.95,75.26,75.26,0,0,0,13.68.12c4.78-.22,8.73-2.48,12.19-5.7,5.13-4.79,10.3-9.53,15.43-14.32a31.1,31.1,0,0,0,2.24-2.71ZM324.58,168.23,283,197.73h60.67Zm-107,29.51H272.4l.16-.74-39.15-24.74ZM380.38,375.87c7.3.7,14.24-4.22,16.7-11.85a17.66,17.66,0,0,0-8.1-21c-6.78-3.83-15.81-2.61-20.54,2.74-1.81,2-1.61,4-.21,6.11,13.67-7.94,20.73-8,23.43-.08-4-.27-7.92-.84-11.84-.75-5.09.13-7.57,2.25-8.95,6.74C380.63,359,385.35,365.56,380.38,375.87ZM169.28,352l-.82-.9c1.49-1.39,2.75-3.3,4.51-4.07,7.24-3.16,13,1.58,19.12,4.41.95-4.37-.89-6.9-4.34-8.65-6.59-3.33-12.82-2.49-18.53,1.88s-8,10.47-6.34,17.53a17.56,17.56,0,0,0,13.29,13.77c1.22.33,2.6.05,4.53.05-2.88-4.36-3.47-8.23-1.48-12.41,2.14-4.46,6.55-4.89,10.91-6C184.78,348.38,176.84,350.89,169.28,352ZM188.82,498c-2.67-6.23-5-11.54-7.21-16.9-1.38-3.37-3.8-4.73-7.34-4.75s-5.54,1.55-6.57,4.89c-.59,1.89-2.19,3.53-2.5,5.41a28.32,28.32,0,0,0-.1,8.67c.15,1,2.11,2.51,3.3,2.56C174.81,498.14,181.23,498,188.82,498Zm-79.7-40.84c-.49-.8-.57-1.09-.76-1.22-4.7-3.27-9.39-6.54-14.11-9.76-7.9-5.38-5.42-5.3-13.13-.17C76,449.43,71,453,65.88,456.47l.39.7ZM301.47,259a109.16,109.16,0,0,0-43.14-.14c7.63,4.71,14.88,9.18,22,13.59ZM437.71,460.32c0,1.64-.15,2.12,0,2.4,5.11,8.44,10.15,16.93,15.52,25.2.86,1.32,3.23,2.27,4.93,2.33,7.72.25,15.46.28,23.18,0a10.67,10.67,0,0,0,6.06-2.36c6.58-5.5,12.92-11.3,19.32-17a24.66,24.66,0,0,0,2.1-2.34l-.69-1.05a17.94,17.94,0,0,0-3.33,1.86c-6,5.27-12.08,10.53-17.93,16a11.21,11.21,0,0,1-8.43,3.39c-6.29-.16-12.6-.17-18.89,0-3.13.09-5-1.13-6.56-3.77-4-6.92-8.26-13.72-12.44-20.56C439.89,463.32,439.08,462.29,437.71,460.32ZM349.17,220.46c4.42,6.87,8.81,13.76,13.31,20.58.37.56,1.52.61,2.84,1.09C359.85,231.62,352.54,221.16,349.17,220.46Zm17.56,148.31c2.38,1.88,4.09,4.19,5.28,3.94a5.94,5.94,0,0,0,3.7-4.18,3.29,3.29,0,0,0-4.22-3.52C370.08,365.32,369,366.94,366.73,368.77Zm-174.64-1.19c-1.28-.89-2.53-2.44-3.86-2.52a3.26,3.26,0,0,0-3.51,4.19,5.29,5.29,0,0,0,3.41,3.33C191,373.07,191.47,370.69,192.09,367.58Zm267.34,26.57.84-.55c-.86-4.5-8.45-15.82-12.38-17.08Z"/><path d="M354.78,323.16c-7.08-1.81-11.51,2.76-16.66,6.08-8.63,5.55-17.7,5.22-26.35,0-6.7-4.07-9.65-10.32-8.75-18.23.12-1.1.2-2.21.34-3.76l-6.58,1c8.31-8.9,17.78-11.91,28.74-10.33C337.46,299.54,352.19,312.15,354.78,323.16Zm-38.57-9.43a24.77,24.77,0,0,0-1.11-5.33c-.46-1.11-1.92-2.44-3-2.47a4.24,4.24,0,0,0-3.17,2.23,16.28,16.28,0,0,0-1.22,6.17c0,4,2.45,7.72,4.58,7.19C316.12,320.56,315.76,317.15,316.21,313.73Zm24.93,2.39c-2.47-1.81-3.73-3.38-5.25-3.7-2.22-.48-4.15,1.1-3.69,3.36.3,1.51,2.07,3.56,3.45,3.8S338.52,317.88,341.14,316.12Z"/><path d="M262,307.82l-5.7-.86a6.58,6.58,0,0,0-.12,2.11c4.12,13-9,24.09-20.57,23.92a28.39,28.39,0,0,1-18.13-6.51c-3.06-2.48-7.51-3.23-12.05-5.05,5.48-10.58,13.52-19.35,26.08-22.89C243.3,295.21,253.67,298.16,262,307.82Zm-18.81,5.8c0,4.95,1.67,8.24,4.14,7.76,4-.8,3.94-4.48,4.23-7.49.41-4.34-1.89-8.32-4.35-8.23S243.12,308.66,243.15,313.62Zm-18.17-2-1.58-.1c-1.05,1.43-3,2.94-2.9,4.28s2.2,2.67,3.43,4c1.21-1.17,3.29-2.27,3.39-3.53C227.44,314.82,225.84,313.2,225,311.65Z"/><path d="M236.37,385.78c-.16-4.26,1.95-6,4.57-7.32a4.76,4.76,0,0,1,6.25,1.1c9.07,10.74,21.43,12.62,34.31,12.41,11.41-.19,22.08-2.65,30-12.16,3.44-4.11,9-1.71,11.3,4.42-.2.19-.47.57-.59.53-4.82-1.7-7.91.62-10.83,4.17a16.46,16.46,0,0,1-5.77,4.38c-18.93,8.62-37.6,8.77-55.76-2.25a10.92,10.92,0,0,1-3.29-2.72C244,384.76,241.24,382.25,236.37,385.78Z"/><path d="M297.88,351.16a28.8,28.8,0,0,0,2.21,3.67c3.5,4.33,2.91,6.91-2.24,9.2-.26.12-.53.22-.79.33-17,7.31-19.71,7.3-36.62-.21-4.51-2-5.26-4.82-2.24-8.78,1-1.31,2.24-2.44,3.59-3.88.34.83.65,1.2.61,1.53-.75,6-.76,6,5.32,8a4.28,4.28,0,0,1,.81.27c8.91,5,17.37,2,25.85-1.34,2.27-.88,3.26-2.13,2.33-4.58a13.53,13.53,0,0,1-.44-2.87Z"/><path d="M308.24,290.39c3-6.94,7.86-9.35,13.65-9.85,11.08-1,19.49,3.94,25.93,13.06C335.29,287.81,322.5,285.44,308.24,290.39Z"/><path d="M213.08,293.9c3.46-8.22,14.35-14.06,24.08-13.47,6.73.41,11.82,3.8,13.69,9.46C237.57,285.65,225.09,287.43,213.08,293.9Z"/><path d="M341.19,388.14c-.18,4.8-1.85,7.1-5,8.25a7.26,7.26,0,0,1-8.23-1.84c-.68-.71-.26-2.47-.35-3.75,1.24-.08,2.49-.18,3.73-.21.2,0,.41.5.63.52,1.21.1,2.42.12,3.64.16-.41-1.15-.79-2.31-1.25-3.45s-1-2.28-1.49-3.42c1.5-.36,3.6-1.51,4.38-.92C339.15,384.88,340.39,387.11,341.19,388.14Z"/><path d="M332.78,400.07c-2.34,1.59-3.67,3.19-4.76,3.05s-3-1.94-3-3,1.77-2.93,3-3.11S330.4,398.46,332.78,400.07Z"/><path d="M439,412a29.21,29.21,0,0,1-5.16.95q-32.4.1-64.79,0a30.33,30.33,0,0,1-5.26-1c-.05-.42-.11-.84-.16-1.25,1.29-.4,2.57-1.15,3.86-1.15q34.11-.14,68.21-.07a14.42,14.42,0,0,1,3.38.84C439.08,410.92,439.05,411.47,439,412Z"/><path d="M158.64,409.5H190.8a11.79,11.79,0,0,1,3,.16,2,2,0,0,1,1.31,1.34,2,2,0,0,1-1.06,1.56,15.13,15.13,0,0,1-3.81.39c-21.16,0-42.32.05-63.48,0-1.61,0-3.21-1-4.81-1.57,1.65-.62,3.3-1.74,5-1.77,10.57-.16,21.15-.08,31.74-.08Z"/><path d="M279.63,91.55c1.05,1.39,1.95,2.46,2.71,3.61,9.65,14.56,19.23,29.18,29,43.68,1.7,2.53,1.93,4.2-.35,6.61q-14.9,15.78-29.41,31.92c-2.3,2.54-4,3.06-6.55.29q-13.51-14.43-27.36-28.54c-2.2-2.25-2.4-4.13-.71-6.77,10.25-16,20.38-32.18,30.57-48.26A26,26,0,0,1,279.63,91.55Zm0,7-28.05,44.33c-1.41,2.23-.19,3.72,1.27,5.26,7.52,7.87,15.08,15.71,22.46,23.7,2.21,2.4,3.67,2.39,5.82,0,8.1-9.09,16.26-18.12,24.6-27,2.15-2.29,2-3.88.34-6.25-5.79-8.53-11.39-17.18-17.07-25.79Z"/></svg>