<svg id="Слой_1" data-name="Слой 1" xmlns="http://www.w3.org/2000/svg" viewBox="0 0 566.93 566.93"><defs><style>.cls-1{fill:#ffda49;}</style></defs><path class="cls-1" d="M488.62,412.37c-12.8-34.6-25.87-69.09-38.63-103.69a71.93,71.93,0,0,1-3.61-15.22c-2.16-15.84-7.08-30.57-15.78-44.11-5.51-8.57-10.5-17.5-15.43-26.43-9.57-17.37-18.38-35.18-28.5-52.22-25.58-43-52.74-85.09-84-124.32A102.19,102.19,0,0,0,290.94,34c-5.48-4.91-10.12-4.69-15.45.45a93.32,93.32,0,0,0-9.69,10.69c-9.88,13-19.94,25.92-29.21,39.37C203.45,132.64,172,181.74,146.73,234.6a31,31,0,0,1-3.59,5.46A109.08,109.08,0,0,0,121.7,289.3c-1,5.84-1.8,11.84-3.82,17.36-13.31,36.27-27,72.41-40.43,108.62-2.25,6.06-.43,8.34,6.2,8.37,8.46.05,16.93,0,25.4,0v-.06c8.76,0,17.52.06,26.28,0,2.92,0,4.09.59,3.73,4a91.46,91.46,0,0,0-.18,15.7c.2,3-.42,4.09-3.49,4.5-20.93,2.78-35.1,16.57-37.46,37.3-2.59,22.71,9.56,41.15,33.84,41.25,9.78,0,19.57,0,29.34.22,1.6,0,3.83.92,4.62,2.15,3.45,5.33,8.39,7.93,14.4,7.61,16-.84,32-1.91,48-3.35,7-.63,10-4.25,10.43-11.31.24-4.09,1.66-5.57,5.82-5.55q39.41.2,78.81,0c3.95,0,5.67,1.14,6,5.36.69,7.78,4.15,11,11.93,12.1,2.6.37,5.23.54,7.85.7,13.11.76,26.21,1.61,39.32,2.16,5.18.21,10.07-1.39,12.79-6.15,1.84-3.23,4.26-3.84,7.55-3.83,9.63,0,19.29.23,28.89-.36,19.49-1.19,31.37-13.72,32.28-33.41,1.06-23.13-14.56-41.81-37.73-44.92-2.91-.39-3.92-1.21-3.61-4.39a78.81,78.81,0,0,0,.11-14.81c-.38-4,.72-5.13,4.64-5.08,15.77.2,31.54.13,47.31.14C490.81,423.62,492.18,422,488.62,412.37ZM339,366.8c1,.44,2.14.72,3.07,1.23-.93-.51-2.08-.79-3.07-1.23ZM206,401.67h0c8.31.88,16.63,2,25,2.57C222.61,403.7,214.31,402.55,206,401.67Zm-.1-.06h0l.19-.12Zm196.79,1a29.34,29.34,0,0,1,4.57,3.46,28.68,28.68,0,0,0-4.57-3.45c-.14.15-.35.28-.47.44C402.33,402.9,402.54,402.77,402.68,402.61Zm-81.5,102.87a9.34,9.34,0,0,0,1.47-.28A9.34,9.34,0,0,1,321.18,505.48Zm2.13-.5a6,6,0,0,0,2.87-2.24A6,6,0,0,1,323.31,505Z"/><path d="M109.05,423.67c-8.47,0-16.94,0-25.4,0-6.63,0-8.45-2.31-6.2-8.37,13.45-36.21,27.12-72.35,40.43-108.62,2-5.52,2.83-11.52,3.82-17.36a109.08,109.08,0,0,1,21.44-49.24,31,31,0,0,0,3.59-5.46c25.22-52.86,56.72-102,89.86-150,9.27-13.45,19.33-26.35,29.21-39.37a93.32,93.32,0,0,1,9.69-10.69c5.33-5.14,10-5.36,15.45-.45a102.19,102.19,0,0,1,11.74,12.34c31.25,39.23,58.41,81.27,84,124.32,10.12,17,18.93,34.85,28.5,52.22,4.93,8.93,9.92,17.86,15.43,26.43,8.7,13.54,13.62,28.27,15.78,44.11A71.93,71.93,0,0,0,450,308.68c12.76,34.6,25.83,69.09,38.63,103.69,3.56,9.61,2.19,11.25-8.05,11.24-15.77,0-31.54.06-47.31-.14-3.92-.05-5,1.11-4.64,5.08a78.81,78.81,0,0,1-.11,14.81c-.31,3.18.7,4,3.61,4.39,23.17,3.11,38.79,21.79,37.73,44.92-.91,19.69-12.79,32.22-32.28,33.41-9.6.59-19.26.38-28.89.36-3.29,0-5.71.6-7.55,3.83-2.72,4.76-7.61,6.36-12.79,6.15-13.11-.55-26.21-1.4-39.32-2.16-2.62-.16-5.25-.33-7.85-.7-7.78-1.11-11.24-4.32-11.93-12.1-.37-4.22-2.09-5.37-6-5.36q-39.4.2-78.81,0c-4.16,0-5.58,1.46-5.82,5.55-.41,7.06-3.48,10.68-10.43,11.31-16,1.45-32,2.51-48,3.35-6,.32-10.95-2.28-14.4-7.61-.79-1.23-3-2.11-4.62-2.15-9.77-.23-19.56-.17-29.34-.22-24.28-.1-36.43-18.54-33.84-41.25,2.36-20.73,16.53-34.52,37.46-37.3,3.07-.41,3.69-1.49,3.49-4.5a91.46,91.46,0,0,1,.18-15.7c.36-3.43-.81-4.05-3.73-4-8.76.09-17.52,0-26.28,0Zm96.79-22,.24-.15-.2.11c.48.31,1,.66,1.46.93,24.94,13.41,51.93,17.79,79.84,18.13,6.92.08,6.92,0,7.68-7,.67-6.25.65-6-5.79-6.27Q260,406,231,404.23C222.55,403.7,214.19,402.53,205.84,401.64ZM339,366.79c1.32.6,2.95.89,3.92,1.85q10.63,10.42,21,21.08c1.74,1.79,3.32,2.93,6.08,2,11.31-3.65,22.14-8.22,31.69-15.45,1.22-.92,2.32-2,3.68-3.18L385.62,350l1-.86c3,2.71,6.15,5.35,9.1,8.14,2.09,2,3.91,2.07,6.06.08s4.59-3.81,6.9-5.7a4.94,4.94,0,0,1-1.28,3.22c-6.57,8-6.58,8,1.17,14.73a1.94,1.94,0,0,0,.51.18,3.37,3.37,0,0,0,1.09-.47c13-12.18,20.83-27.19,24.29-44.57.49-2.47-.89-3-3-3-6.13,0-12.26,0-18.39-.05a9.81,9.81,0,0,0-8.77,4.84,23.46,23.46,0,0,1-2.71,3.41c-17.91,18.55-43.79,24-67.61,14.14-18.59-7.68-31.14-21.73-40.34-39.07-3.6-6.79-6.6-13.91-10-21.16-.74,1.78-1.29,3.43-2.08,4.95-4.86,9.45-9,19.38-14.81,28.2-19.42,29.38-56.25,40.62-85.82,24.6-1-.53-2.87-.81-3.54-.26-3.27,2.75-6.27,5.82-9.72,9.11l45.68,33.83-.78,1.12c-3.54-2.18-7-4.5-10.68-6.45-1.13-.61-3.53-.85-4.09-.19-2.78,3.25-5.14,6.87-7.72,10.45,29.1,13.44,145.87,16.16,171.19,4l-22.3-26.44Zm-55.19-103c.89,2.4,1.55,4.26,2.27,6.1,3.13,8,5.94,16.16,9.48,24,6.37,14.09,14.47,27,27.25,36.36,28.27,20.68,64.81,13.91,81.71-14.88,16.46-28,4.36-81-47.88-81.53q-72.9-.76-145.82-.13c-42.73.4-59.48,38.26-53.22,66,8.67,38.41,51.77,54.77,85,32.28,14.86-10,23.84-24.59,30.68-40.64C277,282.57,280.14,273.47,283.8,263.84Zm-89.87-95.26c3.34-.18,5.5-.27,7.65-.42,7.13-.48,14.26-1.18,21.4-1.4,3.26-.1,5-1.28,6.25-4.23a62.31,62.31,0,0,1,5.33-9.53c14-21.24,34.4-33.55,58.22-40.89,10.92-3.37,14.36-2.29,20.34,7.55,8.63,14.21,17,28.57,25.35,43,1.55,2.67,3.28,4,6.49,4.18,8.16.33,16.31,1.05,24.46,1.53a13.88,13.88,0,0,0,3.27-.54c-.28-1.17-.26-2.54-.88-3.5Q349.46,129.48,327,94.77a9.32,9.32,0,0,0-8.39-4.59q-34.38,0-68.76-.09A10,10,0,0,0,240.67,95q-22.09,34.44-44.24,68.85C195.68,165,195.13,166.26,193.93,168.58ZM175.85,395.16l-1,.88a48.24,48.24,0,0,0,.74,6.5c2.9,11.57,5.82,23.14,9.06,34.62.38,1.36,2.9,3.28,4.12,3.08,25.73-4.34,49.81,15.56,49.88,43a6.06,6.06,0,0,0,3,4.43c27.92,13,55.95,13.83,84.1.56,2.48-1.17,3.5-2.54,3.53-5.27a45.52,45.52,0,0,1,1-9.54c4.83-21.35,23.43-34.89,46-33.26,4,.29,5.89-.84,7-4.56,1.72-6,4.09-11.88,5.57-17.95,1.72-7.06,2.76-14.28,4.1-21.43l-1.72-.9c-5.6,6.23-11.6,12.17-16.61,18.85-1.78,2.38-2.06,6.71-1.5,9.87,1.31,7.39,1.2,8.44-5.45,11.66a241.32,241.32,0,0,1-55.75,19.06c-12.41,2.61-24.84,5.09-37.72,3.27-26.1-3.7-50.71-12.12-74.71-22.63-6.93-3-7.89-4.76-5-11.74,2-5,1.31-9.38-2.13-13C187,405.24,181.33,400.3,175.85,395.16Zm-11.31-174.7c1.8-.85,2.44-1.09,3-1.43,16.28-9.7,34.15-14.93,52.59-18.34a356.21,356.21,0,0,1,114.17-2.31c23.95,3.32,47.37,8.67,68.07,22.17.11.07.43-.17.93-.38-1.68-3.23-3.76-6.29-4.93-9.67-3.08-9-9.52-12.89-18.43-15.3-41.43-11.22-83.5-14.76-126.2-11.51a346.17,346.17,0,0,0-70.91,12.77c-4.66,1.36-8.12,3.41-10.18,8C170.39,209.46,167.69,214.31,164.54,220.46Zm42.73,279.68c12,1.49,17.19-1.42,20.44-13.41a17,17,0,0,0,.37-3.92c.36-15.66-11.74-29.94-27.24-32.18-16.36-2.37-32.42,8-36.66,23.76-2,7.4-1.37,14.47,2.83,21,3,4.63,6.63,5.4,11.14,2.33a24.17,24.17,0,0,0,10.51-15.05c.33-1.45.65-2.91,1-4.37l1.1.11c0,3.66.57,7.45-.16,11-.77,3.71-2.78,7.16-4.27,10.75,13.24,1.57,19.5-3.56,25.8-21.47C214.86,487,211.55,493.51,207.27,500.14ZM376.85,478.9c2.1,4.36,3.73,9.1,6.48,13.06,2.85,4.13,6.6,8.87,12.37,7.33,5.95-1.58,7.49-7.58,8.23-12.88,1.89-13.55-3.65-23.94-15.06-31.08-12.21-7.65-24.37-6.63-36.08,1.32a30.2,30.2,0,0,0-12.36,31.48c2,9.58,9.08,14,19,11.67-1.45-3.48-3.05-6.87-4.28-10.4-1.65-4.75-1.36-7.36.63-10.4,7.39,18.4,14.26,24,25.77,20.65C377.47,493.15,374.17,486.48,376.85,478.9ZM88.2,413.64a14.53,14.53,0,0,0,2.51.63c16.18,0,32.37.13,48.54-.11,1.71,0,4.05-1.73,4.95-3.31a55.91,55.91,0,0,1,16.69-18.79c2.52-1.75,3-3.08.27-5.25-4.67-3.71-8.95-7.91-13.63-11.61A10.55,10.55,0,0,0,141.7,373c-11.22-.22-22.45,0-33.68-.16-3.79,0-5.89,1.61-7.09,5.13-2,5.92-4.35,11.74-6.46,17.63S90.39,407.31,88.2,413.64Zm316.08-24.2a47.12,47.12,0,0,1,4.91,4.29c4.63,5.37,9.43,10.63,13.51,16.39,2,2.82,3.77,4.27,7.29,4.23,14.57-.18,29.15-.1,43.72-.13,1.54,0,3.07-.18,5-.29a30,30,0,0,0-.72-3.36c-3.82-10.85-7.75-21.65-11.49-32.53-1.28-3.75-3.64-5.26-7.52-5.2-8.74.14-17.51.52-26.22,0-6.78-.42-12,1.25-16.58,6.4C412.8,383,408.53,385.83,404.28,389.44Zm-41.28,27c-12.81,4.37-24.91,9.11-37.37,12.6C305.88,434.6,286,441,265.11,434.8Q237.06,426.48,209,418c-2.45-.75-4.68-2.91-6.42,1-2.91,6.5-2.86,8.38,1.28,10.13,8.47,3.55,16.9,7.27,25.57,10.25,26.44,9.07,53.06,15.74,81.4,8.46,17.72-4.56,35.15-9.66,51.54-17.86,1.58-.8,3.61-3.06,3.48-4.45C365.6,422.5,364.05,419.55,363,416.47ZM278.36,163h49.43a6.67,6.67,0,0,0-.36-1.57q-11.71-19.5-23.46-39c-1.6-2.63-4-3.31-6.8-2.21-6.38,2.47-12.93,4.61-19.09,7.55-14.73,7-27.39,16.65-36.08,30.82-.78,1.26-1.32,2.67-2.3,4.7,7.91,0,14.91-.23,21.89.08,5,.22,8.93-1.07,12.44-4.87,5.52-6,12.64-8.32,20.87-7.3C288.32,153.27,282.43,156.21,278.36,163ZM428.62,498.79c2.29,6.11,0,10.79-2.52,15.5,5.15.87,9.66,0,13.1-3.17,2.28-2.13,4.53-5.18,4.92-8.07.2-1.52-3.63-3.58-5.65-5.4a7.49,7.49,0,0,1,8.59,1.26c5.09,4.72,2,9.6-1,14.79,5.19-2.18,9-5.16,9.88-9.69.51-2.75-1.78-6-2.91-9.32l5.78.44c2.79-16.88-7.6-32.84-23.79-36.75-8.75-2.11-9.33-1.46-13.3,6.38-3.89,7.67-7.7,15-7.76,24.05,0,6.94-4.11,12.88-8.47,18.35-1.12,1.4-2.11,4-1.52,5.34s3.22,2.39,5,2.48c7.37.35,12.88-3,16.46-9.43C426.57,503.59,427.38,501.48,428.62,498.79Zm-290-.07c1,2.07,1.86,3.52,2.51,5,3.28,7.79,9,11.64,17.52,10.82,1.7-.16,4.46-.81,4.71-1.76.41-1.58-.58-3.71-1.42-5.39-2.65-5.29-7.4-10.32-7.88-15.75-.94-10.79-4.57-20.19-9.75-29.31a3.35,3.35,0,0,1-.35-.8c-.91-3.26-3.19-4.34-6.35-3.95a50.72,50.72,0,0,0-5.61.88c-16,3.84-27.49,21.76-23.25,36.26l6.55-.34c-6.44,8.86-4.23,15.68,5.64,18.6-2.53-4.55-6-9-1.41-13.91,2.33-2.5,5.79-2.63,9.2-.7-6,2.12-7.39,4-5.64,7.6,2.85,5.78,11.11,9.55,18.06,8C138.41,509.5,136.36,504.83,138.67,498.72ZM318.11,83.65a17,17,0,0,0-1.27-2.79c-9.78-12.52-19.47-25.11-29.45-37.47-3.16-3.91-4.44-3.87-7.55.08-9.74,12.37-19.23,24.92-28.79,37.43a14,14,0,0,0-1.15,2.75ZM267.34,227.77h0c11,0,21.9-.09,32.85.05,3.47,0,5.2-.93,4.89-4.74-.27-3.19-.05-6.42-.06-9.63,0-6.33-.25-7-6.62-6.78q-30.58,1.16-61.15,3c-8.75.54-8.72.94-7.64,9.41a20.43,20.43,0,0,1,.26,3.49c-.16,3.88,1.47,5.39,5.5,5.3C246,227.62,256.68,227.77,267.34,227.77Zm-86.69-37.58c69.44-18.61,137.6-18.72,206.75.23-2.95-4.94-5.09-9.21-7.92-13-1.12-1.49-3.69-2.45-5.69-2.62-9.89-.81-19.8-1.67-29.71-1.78-26-.29-52-.47-78-.19-23.63.26-47.27,1.12-70.89,1.91-2.26.07-5.24.9-6.54,2.48C185.8,180.8,183.76,185,180.65,190.19ZM141.16,264.8a44.72,44.72,0,0,1,6,0c5.13.8,7.86-1.42,10.09-6.06,4.24-8.8,10.86-15.75,18.91-21.37,11.84-8.26,25.19-10,39.15-9.79,12.16.2,12.16,0,10.91-12,0-.29-.05-.58-.07-.87-.14-2.69-1.39-3.51-4.05-2.83-3.53.91-7.14,1.44-10.7,2.24-20.08,4.5-38.64,12.07-53.53,26.9A78.38,78.38,0,0,0,141.16,264.8Zm198.51-37.07v.43c8.89,0,17.79-.24,26.67.11,4.13.16,5.24-1.78,5.91-5.19s-1.2-4.79-4.05-5.47c-8.21-2-16.36-4.3-24.67-5.74-10.18-1.77-20.49-2.77-30.74-4.1-2.81-.37-4.44.42-4.4,3.68.05,3.93-.14,7.86-.43,11.78-.25,3.46,1.22,4.6,4.59,4.55C321.59,227.63,330.63,227.73,339.67,227.73ZM150.35,361l25.07-21.8c-5.19-5.68-9.94-10.93-14.77-16.13a3.59,3.59,0,0,0-2.21-1.2c-8.25-.09-16.49-.05-25.25-.05A75.8,75.8,0,0,0,150.35,361Zm252.33,41.63c-.19.21-.49.38-.56.61-3.53,12.87-7.1,25.72-10.44,38.63-.25,1,.82,2.69,1.74,3.57,4.19,4,8.64,7.7,12.8,11.72,1.67,1.61,2.83,3.76,4.33,5.81C424.06,441.46,420.23,413.34,402.68,402.61ZM156.73,463.8a45.91,45.91,0,0,1,17.58-18.39c2.6-1.48,1.64-3.26.84-5.21-4.68-11.38-8.23-23.06-9.33-35.39A6.42,6.42,0,0,0,165,403C148.39,407.66,143.49,442.68,156.73,463.8Zm208.64,42.83v0c-6.85,0-13.7.1-20.54,0-3.94-.08-5.65,1.68-5.47,5.52.06,1.3,0,2.62.05,3.93.17,5.81.73,6.5,6.5,6.94,11.33.85,22.67,1.61,34,2.38,12.36.83,13.76-.68,12.59-13-.37-3.88-2.18-5.78-6.15-5.74C379.36,506.68,372.36,506.63,365.37,506.63Zm-163.15-.06v0H186c-10.56.05-11,.5-10.76,11.14.15,6.91,1.37,8.14,8.38,7.73,11.79-.69,23.56-1.56,35.34-2.34,9.51-.64,10.33-1.6,9.5-11.23a3.25,3.25,0,0,1,0-.44c-.13-3.37-1.77-5-5.25-4.93C216.22,506.63,209.22,506.57,202.22,506.57ZM122,324.26a11.38,11.38,0,0,0-1.31,1.83q-7,18.35-14,36.69c-1.33,3.51,1,4.06,3.57,4.08,7.72.07,15.44.06,23.16.09h7.53A95.78,95.78,0,0,1,122,324.26Zm74.3,51.15L174.44,360c-10.52-7.38-10.48-7.33-19.32,2.22-1.72,1.86-1.55,3.05.09,4.73a90.18,90.18,0,0,0,26.92,19.16c1.06.5,3.1.49,3.84-.19C189.46,382.74,192.66,379.2,196.32,375.41Zm250-50.44A108,108,0,0,1,427.8,366.9c10.8,0,20.64.05,30.48,0,2.93,0,3.27-1.85,2.44-4.2-1.42-4-2.76-8-4.27-11.9C453.12,342.16,449.71,333.57,446.34,325Zm-20.89-60.9c0-.27.16-.6.05-.81-9.93-20-25.88-33.36-46.26-41.77a3.4,3.4,0,0,0-3,.58c-3.24,3.35-2.22,7.36,2.18,9a56.9,56.9,0,0,1,31.48,26.91C414,265.38,416.76,266.47,425.45,264.07ZM362.13,401.43a5.31,5.31,0,0,0-1.18-.33c-19.43,1.91-38.84,3.88-58.28,5.69-3.15.3-4.46,1.6-4.33,4.67a18.4,18.4,0,0,1-.16,3.93c-.69,3.84,1,5.11,4.58,4.41,10-1.92,20.1-3.46,30-5.88A93.85,93.85,0,0,0,362.13,401.43ZM155.67,315.79c-1.72-6.18-3.11-11.81-4.94-17.29a5.09,5.09,0,0,0-3.63-2.75,58.4,58.4,0,0,0-11.75,0c-1.32.15-3.39,2-3.49,3.18a92.18,92.18,0,0,0,0,13.5c.08,1.15,1.33,3.17,2.09,3.2C141.19,315.89,148.39,315.79,155.67,315.79Zm256.61,0c7,0,14,.1,20.93-.12a3.8,3.8,0,0,0,2.67-2.56,84.92,84.92,0,0,0,.13-13.9c-.12-1.3-2.4-3.24-3.87-3.42a53,53,0,0,0-11.74,0,5.12,5.12,0,0,0-3.48,2.94C415.21,304.11,413.93,309.6,412.28,315.81Zm-279.52-25.6c2.9,0,4.74,0,6.58,0,9.78,0,9.78,0,10.77-9.72.06-.58.14-1.15.23-1.73,1.71-10.19,1.86-8.79-7.65-8.67-1.63,0-4.25,1.13-4.7,2.36C136,277.85,134.67,283.48,132.76,290.21Zm283.29-20.14c.59,6.4,1,12,1.75,17.57a4,4,0,0,0,2.74,2.65c4.42.29,8.87.12,14.37.12-2.07-6.8-3.73-12.61-5.69-18.3a4.09,4.09,0,0,0-3.06-1.94C422.88,269.91,419.56,270.07,416.05,270.07ZM306.5,505.12l.08.49c4.59,0,9.2.18,13.78-.06s6.66-2.55,7.42-7.25Zm-46.65-.29-20.18-6.7C241.86,505.82,244,506.54,259.85,504.83Z"/><path d="M283.73,363.68a20.42,20.42,0,0,1-4.06-1.87c-4.81-3.53-9.49-7.24-14.25-10.84-3.11-2.35-2.88-4.59-.18-7.17,10.39-9.89,27.47-9.81,37.64.22,1.86,1.83,3.2,3.87.7,5.88-5.55,4.46-11.29,8.69-17,12.94A10,10,0,0,1,283.73,363.68Zm-4-22.68h7.5c-2.55-1.54-5.09-2.52-7.5,0l-.38.05.27.31Z"/><path d="M303.29,383.9c-13.13,8.68-30.71,8.31-39.83-.91A92,92,0,0,0,303.29,383.9Z"/><polygon points="338.93 366.7 339.07 366.62 338.99 366.79 338.93 366.7"/><path d="M208.24,325.48c-22.87-.05-42-19.32-41.91-42.25.09-24.34,18.9-43.31,42.81-43.19a42.93,42.93,0,0,1,42.51,43.22C251.65,306.65,232.24,325.53,208.24,325.48Zm27.11-43.21a10.47,10.47,0,0,0-10.48-10.54A10.59,10.59,0,0,0,214,282.37,10.9,10.9,0,0,0,224.57,293,10.6,10.6,0,0,0,235.35,282.27Z"/><path d="M358.3,325.51c-22.63.08-41.67-19.22-41.81-42.38-.15-23.93,18.39-43,41.82-43.11,24.1-.08,43.15,19.12,43.11,43.45C401.39,306.67,382.15,325.43,358.3,325.51Zm14.91-53.89a10.73,10.73,0,1,0-.32,21.46,10.73,10.73,0,0,0,.32-21.46Z"/></svg>