<svg id="Слой_1" data-name="Слой 1" xmlns="http://www.w3.org/2000/svg" viewBox="0 0 566.93 566.93"><path d="M123.38,412.14c-7.77,0-15.54,0-23.31,0-6.08,0-7.75-2.12-5.68-7.68,12.34-33.24,24.88-66.41,37.1-99.7,1.86-5.06,2.59-10.57,3.51-15.93a100,100,0,0,1,19.68-45.19,28.36,28.36,0,0,0,3.29-5C181.11,190.1,210,145,240.45,100.9c8.5-12.34,17.73-24.19,26.8-36.14a85.94,85.94,0,0,1,8.89-9.8c4.9-4.72,9.15-4.93,14.18-.42A93.75,93.75,0,0,1,301.1,65.86c28.68,36,53.61,74.59,77.08,114.11,9.29,15.64,17.38,32,26.17,47.93,4.52,8.19,9.1,16.38,14.16,24.26A98,98,0,0,1,433,292.64a66.47,66.47,0,0,0,3.31,14C448,338.36,460,370,471.76,401.77c3.26,8.83,2,10.33-7.39,10.32-14.48,0-28.95.06-43.42-.12-3.6-.05-4.61,1-4.26,4.65a72.59,72.59,0,0,1-.1,13.59c-.29,2.93.64,3.68,3.31,4,21.26,2.85,35.61,20,34.63,41.23-.83,18.06-11.73,29.57-29.63,30.66-8.81.54-17.67.34-26.51.33-3,0-5.24.55-6.94,3.51-2.49,4.37-7,5.84-11.73,5.65-12-.51-24.06-1.29-36.09-2-2.4-.14-4.82-.3-7.2-.64-7.15-1-10.32-4-10.95-11.1-.35-3.87-1.92-4.93-5.55-4.92q-36.17.16-72.33,0c-3.82,0-5.12,1.35-5.34,5.1-.38,6.48-3.19,9.81-9.57,10.38-14.66,1.33-29.36,2.31-44.07,3.08-5.51.29-10.05-2.1-13.21-7a5.82,5.82,0,0,0-4.24-2c-9-.21-17.95-.16-26.93-.2-22.29-.1-33.43-17-31.06-37.86,2.16-19,15.17-31.68,34.38-34.24,2.82-.37,3.39-1.36,3.2-4.13a83.54,83.54,0,0,1,.17-14.41c.33-3.15-.74-3.72-3.43-3.69-8,.09-16.08,0-24.12,0Zm88.84-20.21.22-.14-.18.1c.44.29.87.6,1.33.85,22.89,12.31,47.67,16.33,73.28,16.64,6.36.08,6.36,0,7.05-6.42.62-5.74.6-5.48-5.31-5.76-17.79-.83-35.57-1.76-53.34-2.89C227.56,393.82,219.88,392.75,212.22,391.93Zm122.2-32c1.22.55,2.71.82,3.61,1.7q9.75,9.56,19.28,19.35c1.61,1.64,3.06,2.69,5.58,1.87,10.38-3.35,20.33-7.55,29.09-14.18,1.12-.85,2.14-1.84,3.38-2.92l-18.14-21.27.89-.79c2.79,2.48,5.64,4.91,8.35,7.47,1.92,1.82,3.59,1.9,5.56.07s4.21-3.5,6.33-5.23a4.43,4.43,0,0,1-1.18,2.95c-6,7.31-6,7.31,1.08,13.52a1.37,1.37,0,0,0,.47.17,3.36,3.36,0,0,0,1-.43c11.93-11.18,19.12-25,22.3-40.91.45-2.26-.83-2.78-2.76-2.77-5.63,0-11.25,0-16.88,0a9,9,0,0,0-8.05,4.43,20.33,20.33,0,0,1-2.49,3.14c-16.43,17-40.19,22-62,13-17.06-7.05-28.58-19.94-37-35.85-3.31-6.24-6.06-12.78-9.18-19.43-.68,1.64-1.19,3.15-1.91,4.55-4.46,8.67-8.25,17.79-13.6,25.88-17.82,27-51.62,37.28-78.76,22.58-.9-.49-2.63-.75-3.24-.24-3,2.52-5.76,5.34-8.93,8.35l41.93,31.06-.72,1c-3.25-2-6.44-4.13-9.8-5.92-1-.56-3.24-.79-3.76-.18-2.55,3-4.71,6.31-7.08,9.59,26.7,12.34,133.88,14.83,157.12,3.66l-20.47-24.26Zm-50.65-94.49c.82,2.2,1.43,3.91,2.09,5.6,2.87,7.35,5.45,14.83,8.7,22,5.84,12.93,13.28,24.79,25,33.37,25.94,19,59.48,12.77,75-13.65,15.11-25.73,4-74.33-43.95-74.84q-66.9-.69-133.83-.12c-39.22.38-54.59,35.12-48.84,60.58,7.95,35.25,47.51,50.27,78,29.63,13.64-9.23,21.88-22.57,28.16-37.3C277.54,282.64,280.41,274.3,283.77,265.45ZM201.29,178c3.06-.17,5-.25,7-.38,6.55-.45,13.08-1.09,19.64-1.29,3-.09,4.56-1.18,5.74-3.88a57.78,57.78,0,0,1,4.89-8.75c12.89-19.49,31.57-30.79,53.44-37.53,10-3.09,13.18-2.1,18.66,6.93,7.92,13,15.62,26.22,23.27,39.42,1.43,2.45,3,3.72,5.95,3.84,7.49.3,15,1,22.46,1.41a13.16,13.16,0,0,0,3-.5c-.26-1.08-.24-2.33-.81-3.21q-20.52-31.94-41.14-63.8a8.56,8.56,0,0,0-7.71-4.21q-31.54,0-63.1-.09a9.2,9.2,0,0,0-8.41,4.46q-20.28,31.62-40.61,63.19C202.89,174.7,202.39,175.89,201.29,178ZM184.7,386l-1,.81a43.48,43.48,0,0,0,.68,6c2.66,10.62,5.35,21.24,8.31,31.78.36,1.25,2.67,3,3.79,2.82,23.61-4,45.71,14.29,45.78,39.44a5.57,5.57,0,0,0,2.73,4.07c25.62,12,51.36,12.69,77.19.51,2.28-1.07,3.22-2.33,3.24-4.83a42.17,42.17,0,0,1,.93-8.76c4.43-19.59,21.5-32,42.21-30.53,3.66.27,5.41-.77,6.39-4.19,1.59-5.52,3.76-10.89,5.12-16.47,1.57-6.48,2.53-13.1,3.76-19.67l-1.58-.82c-5.14,5.72-10.64,11.17-15.24,17.3-1.64,2.19-1.9,6.16-1.38,9.06,1.2,6.78,1.1,7.74-5,10.7a221.82,221.82,0,0,1-51.17,17.5c-11.39,2.39-22.8,4.67-34.62,3-24-3.39-46.54-11.12-68.57-20.77-6.36-2.78-7.24-4.37-4.63-10.77,1.86-4.58,1.21-8.61-1.95-11.91C195,395.23,189.72,390.7,184.7,386ZM174.32,225.64c1.65-.78,2.24-1,2.77-1.31,14.94-8.91,31.34-13.7,48.27-16.83a326.06,326.06,0,0,1,104.78-2.12c22,3,43.47,8,62.47,20.34.1.07.4-.15.86-.35-1.54-3-3.45-5.77-4.52-8.88-2.84-8.22-8.74-11.82-16.92-14A340.77,340.77,0,0,0,256.2,191.89a317.29,317.29,0,0,0-65.08,11.72c-4.27,1.25-7.46,3.13-9.34,7.31C179.69,215.55,177.2,220,174.32,225.64Zm39.22,256.69c11.06,1.37,15.77-1.3,18.75-12.31a14.83,14.83,0,0,0,.34-3.59,29.75,29.75,0,0,0-25-29.54c-15-2.18-29.75,7.38-33.65,21.8-1.84,6.8-1.25,13.29,2.61,19.29,2.73,4.25,6.08,4.95,10.21,2.14a22.22,22.22,0,0,0,9.66-13.81c.3-1.34.59-2.68.89-4l1,.1c0,3.37.53,6.85-.14,10.07-.71,3.41-2.56,6.57-3.92,9.87,12.15,1.44,17.89-3.27,23.67-19.7C220.5,470.3,217.46,476.25,213.54,482.33Zm155.64-19.49c1.92,4,3.42,8.35,5.94,12s6.06,8.13,11.35,6.72c5.47-1.45,6.88-7,7.56-11.82,1.74-12.43-3.35-22-13.82-28.53-11.21-7-22.37-6.08-33.12,1.22a27.72,27.72,0,0,0-11.34,28.89c1.84,8.79,8.33,12.85,17.43,10.71-1.33-3.19-2.8-6.31-3.93-9.54-1.52-4.36-1.25-6.76.58-9.55,6.78,16.89,13.08,22,23.65,18.95C369.75,475.91,366.71,469.8,369.18,462.84Zm-264.93-59.9a13.23,13.23,0,0,0,2.31.58c14.85,0,29.7.12,44.55-.1,1.56,0,3.71-1.59,4.53-3A51.34,51.34,0,0,1,171,383.13c2.31-1.6,2.76-2.82.24-4.82-4.28-3.4-8.21-7.25-12.51-10.65a9.69,9.69,0,0,0-5.35-2.06c-10.3-.19-20.6,0-30.91-.14-3.48,0-5.4,1.47-6.51,4.7-1.85,5.44-4,10.78-5.93,16.19S106.26,397.13,104.25,402.94Zm290.1-22.21a44.5,44.5,0,0,1,4.51,3.94c4.24,4.92,8.65,9.75,12.4,15,1.84,2.59,3.46,3.92,6.69,3.88,13.37-.16,26.75-.09,40.12-.12,1.41,0,2.82-.16,4.54-.27a26.11,26.11,0,0,0-.65-3.08c-3.51-9.95-7.12-19.87-10.55-29.85-1.18-3.44-3.34-4.83-6.9-4.78-8,.13-16.07.48-24.07,0-6.22-.38-11,1.15-15.22,5.88C402.17,374.77,398.25,377.42,394.35,380.73Zm-37.89,24.81c-11.75,4-22.86,8.36-34.29,11.56-18.13,5.08-36.34,11-55.55,5.26q-25.74-7.65-51.46-15.38c-2.25-.69-4.29-2.67-5.9.91-2.67,6-2.62,7.7,1.18,9.3,7.77,3.27,15.51,6.67,23.47,9.41,24.27,8.33,48.7,14.45,74.71,7.76,16.26-4.18,32.26-8.86,47.3-16.39,1.45-.73,3.32-2.8,3.2-4.08C358.85,411.07,357.43,408.36,356.46,405.54ZM278.78,172.87h45.37a6.57,6.57,0,0,0-.33-1.45q-10.76-17.89-21.54-35.77c-1.46-2.42-3.63-3-6.23-2-5.86,2.27-11.87,4.23-17.53,6.93C265,147,253.38,155.83,245.41,168.83c-.71,1.17-1.21,2.46-2.11,4.32,7.26,0,13.68-.22,20.09.07,4.61.21,8.2-1,11.42-4.47,5.06-5.49,11.59-7.63,19.15-6.7C287.92,164,282.51,166.67,278.78,172.87ZM416.69,481.1c2.1,5.6,0,9.89-2.31,14.22,4.72.79,8.86,0,12-2.91,2.09-2,4.16-4.75,4.52-7.41.18-1.39-3.34-3.28-5.19-5a6.87,6.87,0,0,1,7.88,1.16c4.67,4.33,1.82,8.81-.88,13.58,4.76-2,8.3-4.74,9.07-8.9.47-2.52-1.64-5.52-2.67-8.55l5.31.4A29.47,29.47,0,0,0,422.6,444c-8-1.93-8.56-1.33-12.21,5.86-3.56,7-7.07,13.74-7.11,22.07,0,6.37-3.78,11.82-7.78,16.85-1,1.28-1.94,3.69-1.39,4.89s2.95,2.2,4.59,2.28c6.76.32,11.82-2.76,15.11-8.65C414.81,485.5,415.55,483.56,416.69,481.1ZM150.57,481c1,1.89,1.71,3.23,2.3,4.63,3,7.15,8.28,10.69,16.09,9.93,1.55-.15,4.09-.74,4.32-1.62.37-1.45-.53-3.4-1.3-4.94-2.44-4.86-6.8-9.47-7.24-14.45-.86-9.91-4.19-18.53-9-26.9a3.63,3.63,0,0,1-.31-.74c-.84-3-2.94-4-5.83-3.62a44.16,44.16,0,0,0-5.15.81c-14.69,3.51-25.24,20-21.35,33.28l6-.32c-5.91,8.13-3.87,14.4,5.19,17.07-2.32-4.17-5.54-8.23-1.3-12.76,2.14-2.3,5.32-2.42,8.44-.65-5.47,1.94-6.78,3.71-5.17,7,2.61,5.3,10.2,8.76,16.58,7.36C150.33,490.92,148.45,486.63,150.57,481Zm164.69-381a15.74,15.74,0,0,0-1.16-2.56c-9-11.49-17.88-23-27-34.39-2.9-3.59-4.08-3.55-6.93.08-8.94,11.35-17.65,22.87-26.42,34.35a12.32,12.32,0,0,0-1.06,2.52ZM268.67,232.35h0c10,0,20.09-.08,30.14,0,3.19,0,4.78-.85,4.49-4.35-.24-2.92-.05-5.89-.05-8.83,0-5.81-.23-6.44-6.08-6.22q-28.08,1.05-56.12,2.74c-8,.49-8,.86-7,8.63a19.17,19.17,0,0,1,.25,3.2c-.15,3.57,1.34,4.95,5,4.87C249.1,232.21,258.88,232.35,268.67,232.35Zm-79.57-34.5c63.73-17.08,126.29-17.17,189.76.22-2.71-4.54-4.68-8.45-7.27-11.9-1-1.37-3.39-2.25-5.22-2.4-9.08-.74-18.18-1.54-27.28-1.64-23.84-.27-47.7-.43-71.54-.17-21.7.24-43.38,1-65.07,1.75-2.07.07-4.81.83-6,2.28C193.83,189.24,192,193.12,189.1,197.85Zm-36.25,68.48a40.76,40.76,0,0,1,5.51,0c4.72.74,7.22-1.31,9.26-5.56,3.9-8.08,10-14.46,17.36-19.62,10.87-7.58,23.12-9.19,35.93-9,11.16.18,11.16,0,10-11,0-.27,0-.54-.06-.81-.13-2.46-1.27-3.21-3.72-2.59-3.23.84-6.55,1.32-9.81,2.05-18.44,4.14-35.47,11.09-49.14,24.7A72.23,72.23,0,0,0,152.85,266.33Zm182.2-34v.4c8.16,0,16.33-.22,24.48.1,3.79.14,4.81-1.64,5.43-4.77s-1.1-4.4-3.73-5c-7.53-1.8-15-4-22.64-5.27-9.34-1.62-18.8-2.54-28.21-3.76-2.58-.34-4.07.39-4,3.38,0,3.6-.14,7.21-.4,10.81-.24,3.17,1.12,4.23,4.21,4.18C318.45,232.22,326.75,232.31,335.05,232.31ZM161.29,354.61l23-20c-4.76-5.22-9.13-10-13.55-14.8a3.36,3.36,0,0,0-2-1.11c-7.57-.07-15.14,0-23.18,0A69.61,69.61,0,0,0,161.29,354.61Zm231.59,38.21c-.17.19-.45.34-.51.56-3.24,11.81-6.51,23.6-9.58,35.46-.24.91.75,2.46,1.59,3.27,3.85,3.66,7.93,7.07,11.75,10.75a41.19,41.19,0,0,1,4,5.34C412.5,428.48,409,402.66,392.88,392.82ZM167.15,449a42,42,0,0,1,16.14-16.88c2.37-1.36,1.5-3,.76-4.78-4.29-10.45-7.55-21.17-8.56-32.48a6.11,6.11,0,0,0-.72-1.69C159.5,397.45,155,429.59,167.15,449Zm191.49,39.31v0c-6.29,0-12.57.09-18.85,0-3.62-.07-5.19,1.55-5,5.07.06,1.2,0,2.4.05,3.61.16,5.33.67,6,6,6.36,10.4.79,20.8,1.48,31.21,2.19,11.34.77,12.63-.62,11.55-11.91-.35-3.56-2-5.31-5.65-5.27C371.48,488.34,365.06,488.29,358.64,488.29Zm-149.74-.06v0H194.05c-9.7.05-10.09.46-9.88,10.23.14,6.33,1.26,7.47,7.7,7.09,10.81-.64,21.62-1.43,32.43-2.15,8.73-.59,9.48-1.47,8.71-10.31,0-.13,0-.27,0-.4-.12-3.1-1.63-4.57-4.82-4.53C221.75,488.29,215.32,488.23,208.9,488.23ZM135.29,320.91a10.41,10.41,0,0,0-1.2,1.68q-6.47,16.83-12.88,33.67c-1.22,3.22.88,3.72,3.28,3.75,7.08.06,14.17.05,21.25.07h6.91A87.87,87.87,0,0,1,135.29,320.91Zm68.19,46.94-20.08-14.1c-9.66-6.77-9.61-6.73-17.73,2-1.58,1.7-1.42,2.79.08,4.34a83,83,0,0,0,24.71,17.58c1,.46,2.84.45,3.52-.18C197.19,374.58,200.13,371.33,203.48,367.85ZM433,321.55a99,99,0,0,1-17,38.49c9.91,0,18.94,0,28,0,2.68,0,3-1.7,2.23-3.85-1.3-3.64-2.53-7.31-3.92-10.92C439.18,337.33,436.05,329.45,433,321.55Zm-19.17-55.88c0-.25.14-.56.05-.75-9.12-18.35-23.76-30.62-42.46-38.33a3.14,3.14,0,0,0-2.77.52c-3,3.08-2,6.76,2,8.23A52.2,52.2,0,0,1,399.5,260C403.23,266.86,405.8,267.87,413.78,265.67ZM355.67,391.73a4.91,4.91,0,0,0-1.09-.3c-17.83,1.75-35.65,3.56-53.48,5.23-2.9.27-4.1,1.47-4,4.28a16.75,16.75,0,0,1-.15,3.61c-.63,3.52.89,4.68,4.2,4.05,9.19-1.77,18.46-3.18,27.53-5.4A85.9,85.9,0,0,0,355.67,391.73Zm-189.5-78.59c-1.57-5.68-2.85-10.84-4.53-15.87a4.68,4.68,0,0,0-3.33-2.53,53.3,53.3,0,0,0-10.79,0c-1.21.14-3.1,1.82-3.2,2.92a84,84,0,0,0,.05,12.39c.07,1.06,1.21,2.91,1.91,2.93C152.88,313.23,159.49,313.14,166.17,313.14Zm235.53,0c6.46,0,12.84.09,19.2-.11a3.49,3.49,0,0,0,2.45-2.35,78.82,78.82,0,0,0,.12-12.76c-.11-1.19-2.2-3-3.55-3.13a47.89,47.89,0,0,0-10.77,0,4.64,4.64,0,0,0-3.19,2.7C404.38,302.41,403.2,307.46,401.7,313.15ZM145.15,289.66h6c9,0,9,0,9.88-8.93.05-.53.13-1.05.21-1.58,1.57-9.35,1.71-8.07-7-8-1.5,0-3.9,1-4.32,2.17C148.13,278.31,146.9,283.48,145.15,289.66Zm260-18.49c.55,5.87.91,11,1.61,16.13a3.65,3.65,0,0,0,2.51,2.42c4.06.27,8.15.12,13.19.12-1.9-6.24-3.42-11.57-5.22-16.8a3.78,3.78,0,0,0-2.81-1.78C411.42,271,408.38,271.17,405.15,271.17ZM304.61,486.9l.07.45c4.22,0,8.44.17,12.65-.05s6.11-2.35,6.81-6.65Zm-42.82-.26-18.52-6.15C245.28,487.54,247.2,488.2,261.79,486.64Z"/><path d="M283.71,357.09a18.26,18.26,0,0,1-3.73-1.72c-4.42-3.24-8.71-6.65-13.08-9.95-2.85-2.16-2.64-4.21-.16-6.58,9.53-9.07,25.21-9,34.55.2,1.7,1.69,2.93,3.56.64,5.4-5.09,4.09-10.36,8-15.61,11.87A9,9,0,0,1,283.71,357.09ZM280,336.27h6.89c-2.34-1.41-4.67-2.31-6.89,0l-.34,0,.25.3Z"/><path d="M301.66,375.65c-12.05,8-28.19,7.62-36.55-.84A84.61,84.61,0,0,0,301.66,375.65Z"/><polygon points="334.37 359.86 334.5 359.78 334.43 359.94 334.37 359.86"/><path d="M214.42,322c-21,0-38.54-17.72-38.46-38.77.08-22.34,17.34-39.75,39.29-39.64a39.41,39.41,0,0,1,39,39.67C254.27,304.74,236.45,322.07,214.42,322Zm24.88-39.65a9.6,9.6,0,0,0-9.61-9.68,9.73,9.73,0,0,0-10,9.77,10,10,0,0,0,9.68,9.77A9.73,9.73,0,0,0,239.3,282.37Z"/><path d="M352.15,322.06c-20.77.07-38.25-17.65-38.38-38.91-.13-21.95,16.88-39.49,38.39-39.56,22.11-.08,39.6,17.55,39.57,39.88C391.7,304.76,374,322,352.15,322.06Zm13.69-49.46a9.85,9.85,0,1,0-.3,19.69,9.85,9.85,0,0,0,.3-19.69Z"/></svg>