<svg id="Слой_1" data-name="Слой 1" xmlns="http://www.w3.org/2000/svg" xmlns:xlink="http://www.w3.org/1999/xlink" viewBox="0 0 40 40"><defs><style>.cls-1{fill:none;}.cls-2{fill:#ddd;}.cls-3{fill:#e4b587;}.cls-4{fill:#c2d77a;}.cls-5{clip-path:url(#clip-path);}</style><clipPath id="clip-path"><path class="cls-1" d="M59.2-51.54h0a20,20,0,0,1,20,20h0a20,20,0,0,1-20,20h0a20,20,0,0,1-20-20h0A20,20,0,0,1,59.2-51.54Z"/></clipPath></defs><path class="cls-2" d="M14.22,44.2l-8-8L5.54,37l7.23,7.23-6.5,6.51L-1,43.48l-.73.72,8,7.95Z"/><path class="cls-2" d="M9.16,46.37l2.17-2.17L4.82,37.7l-.72.72L9.88,44.2l-.72.73L3.37,39.14l-.72.73Z"/><path class="cls-2" d="M5.54,35.53l-7.95-8-.72.72L4.1,35.53-2.41,42-9.64,34.8l-.72.73,8,7.95Z"/><path class="cls-2" d="M.48,37.7l2.17-2.17L-3.86,29l-.72.72L1.2,35.53l-.72.72L-5.3,30.47l-.72.72Z"/><path class="cls-2" d="M21.45,19.62l-8-8-.72.73L20,19.62l-6.51,6.51L6.27,18.9l-.73.72,8,8Z"/><path class="cls-2" d="M13.49,24.68l2.17-2.16L9.16,16l-.73.72,5.79,5.79-.73.72L7.71,17.46,7,18.18Z"/><path class="cls-2" d="M16.39,21.79l2.16-2.17-6.5-6.5-.72.72,5.78,5.78-.72.73L10.6,14.56l-.72.73Z"/><path class="cls-2" d="M47.47,45.65,39.52,37.7l-.72.72L46,45.65l-6.5,6.5-7.23-7.22-.72.72,8,8Z"/><path class="cls-2" d="M42.41,47.82l2.17-2.17-6.51-6.51-.72.73,5.78,5.78-.72.72-5.78-5.78-.73.72Z"/><path class="cls-2" d="M4.82,18.9-3.13,11l-.73.72L3.37,18.9l-6.5,6.51-7.23-7.23-.72.72,8,8Z"/><path class="cls-2" d="M-.24,21.07,1.93,18.9l-6.51-6.5-.72.72L.48,18.9l-.72.72L-6,13.84l-.73.72Z"/><path class="cls-2" d="M30.84,44.93l-7.95-8-.72.73,7.23,7.23-6.51,6.5L15.66,44.2l-.72.73,8,8Z"/><path class="cls-2" d="M25.78,47.09,28,44.93l-6.5-6.51-.73.72,5.79,5.79-.73.72L20,39.87l-.72.72Z"/><path class="cls-2" d="M46,12.4l-8-8-.72.73,7.23,7.23-6.51,6.5-7.23-7.23-.72.73,8,8Z"/><path class="cls-2" d="M38.07,17.46l2.17-2.17L33.73,8.78,33,9.5l5.79,5.79-.73.72-5.78-5.78-.72.72Z"/><path class="cls-2" d="M41,14.56l2.17-2.16-6.5-6.51-.73.72,5.79,5.79-.73.72L35.18,7.34l-.72.72Z"/><path class="cls-2" d="M4.1,2.27l-8-7.95-.72.73L2.65,2.27-3.86,8.78l-7.22-7.23-.73.72,8,8Z"/><path class="cls-2" d="M-1,4.44,1.2,2.27l-6.5-6.5L-6-3.51-.24,2.27-1,3-6.75-2.79l-.72.73Z"/><path class="cls-2" d="M30.12,28.3l-7.95-7.95-.72.72,7.22,7.23-6.5,6.5-7.23-7.22-.72.72,8,8Z"/><path class="cls-2" d="M22.17,33.36l2.17-2.17-6.51-6.51-.72.73,5.78,5.78-.72.72-5.78-5.78-.73.72Z"/><path class="cls-2" d="M25.06,30.47l2.17-2.17-6.51-6.51-.72.73,5.78,5.78-.72.72-5.78-5.78-.73.72Z"/><path class="cls-2" d="M37.35,3.72l-8-8-.73.72L35.9,3.72l-6.5,6.51L22.17,3l-.72.72,8,8Z"/><path class="cls-2" d="M29.4,8.78l2.17-2.17L25.06.11l-.72.72,5.78,5.78-.72.73L23.61,1.55l-.72.72Z"/><path class="cls-2" d="M32.29,5.89l2.17-2.17L28-2.79l-.72.73L33,3.72l-.72.72L26.51-1.34l-.73.72Z"/><path class="cls-2" d="M20.72,3,12.77-4.95l-.72.72L19.28,3,12.77,9.5,5.54,2.27,4.82,3l8,8Z"/><path class="cls-2" d="M12.77,8.06l2.17-2.17L8.43-.62,7.71.11l5.78,5.78-.72.72L7,.83l-.72.72Z"/><path class="cls-2" d="M15.66,5.17,17.83,3l-6.5-6.51-.73.72L16.39,3l-.73.72L9.88-2.06l-.72.72Z"/><path class="cls-2" d="M46.75,29l-8-7.95-.73.72L45.3,29l-6.5,6.51L31.57,28.3l-.73.72,8,8Z"/><path class="cls-2" d="M38.8,34.08,41,31.91l-6.5-6.5-.73.72,5.79,5.78-.72.73L33,26.85l-.72.73Z"/><path class="cls-2" d="M41.69,31.19,43.86,29l-6.51-6.5-.72.72L42.41,29l-.72.72L35.9,24l-.72.72Z"/><path class="cls-2" d="M5.54,19.62l-7.95,8,.72.72,8-7.95Z"/><path class="cls-2" d="M12.77,26.85,4.82,34.8l.72.73,8-8Z"/><path class="cls-2" d="M2.65,25.41l-.72.72L7,31.19l.72-.72Z"/><path class="cls-2" d="M4.1,24l-.73.72,5.06,5.06L9.16,29Z"/><path class="cls-2" d="M4.82,23.24,9.88,28.3l2.17-2.17-.72-.72L9.88,26.85,6.26,23.24l1.45-1.45L7,21.07Z"/><path class="cls-2" d="M1.2,26.85-1,29l.72.72L1.2,28.3l3.62,3.61L3.37,33.36l.73.72,2.17-2.17Z"/><path class="cls-2" d="M11.33-6.4l-8,8,.73.72,8-7.95Z"/><path class="cls-2" d="M-.24-6.4-2.41-4.23l.72.72L-.24-4.95,3.37-1.34,1.93.11l.72.72L4.82-1.34Z"/><path class="cls-2" d="M30.12,12.4l-7.95,8,.72.72,8-8Z"/><path class="cls-2" d="M37.35,19.62l-8,8,.72.72,8-7.95Z"/><path class="cls-2" d="M27.23,18.18l-.72.72L31.57,24l.72-.72Z"/><path class="cls-2" d="M28.67,16.73l-.72.73L33,22.52l.72-.73Z"/><path class="cls-2" d="M29.4,16l5.06,5.06,2.17-2.17-.73-.72-1.44,1.44L30.84,16l1.45-1.45-.72-.72Z"/><path class="cls-2" d="M25.78,19.62l-2.17,2.17.73.73,1.44-1.45,3.62,3.61L28,26.13l.72.72,2.17-2.17Z"/><path class="cls-2" d="M44.58-4.95,36.63,3l.72.72,7.95-8Z"/><path class="cls-2" d="M33-4.95,30.84-2.79l.73.73L33-3.51,36.63.11,35.18,1.55l.72.72L38.07.11Z"/><path class="cls-2" d="M28-5.68,20,2.27l.72.73,8-7.95Z"/><path class="cls-2" d="M16.39-5.68,14.22-3.51l.72.72,1.45-1.44L20-.62,18.55.83l.73.72L21.45-.62Z"/><path class="cls-2" d="M46.75,13.12l-8,8,.72.72,7.95-7.95Z"/><path class="cls-2" d="M14.22,28.3l-8,8L7,37l8-7.95Z"/><path class="cls-2" d="M21.45,35.53l-8,7.95.73.72,8-8Z"/><path class="cls-2" d="M11.33,34.08l-.73.72,5.06,5.07.73-.73Z"/><path class="cls-2" d="M12.77,32.64l-.72.72,5.06,5.06.72-.72Z"/><path class="cls-2" d="M13.49,31.91,18.55,37l2.17-2.17L20,34.08l-1.45,1.45-3.61-3.62,1.45-1.44-.73-.73Z"/><path class="cls-2" d="M9.88,35.53,7.71,37.7l.72.72L9.88,37l3.61,3.62L12.05,42l.72.73,2.17-2.17Z"/><path class="cls-2" d="M21.45,3.72l-8,8,.73.73,8-8Z"/><path class="cls-2" d="M28.67,11l-8,8,.73.72,8-8Z"/><path class="cls-2" d="M18.55,9.5l-.72.73,5.06,5.06.72-.73Z"/><path class="cls-2" d="M20,8.06l-.72.72,5.06,5.06.72-.72Z"/><path class="cls-2" d="M20.72,7.34l5.06,5.06L28,10.23l-.72-.73L25.78,11,22.17,7.34l1.44-1.45-.72-.72Z"/><path class="cls-2" d="M17.11,11l-2.17,2.17.72.72,1.45-1.44L20.72,16l-1.44,1.45.72.72L22.17,16Z"/><path class="cls-2" d="M47.47,29.74l-7.95,8,.72.72,7.95-8Z"/><path class="cls-2" d="M4.82,3l-7.95,8,.72.72,8-7.95Z"/><path class="cls-2" d="M12.05,10.23l-8,8,.72.72,8-7.95Z"/><path class="cls-2" d="M1.93,8.78,1.2,9.5l5.07,5.06L7,13.84Z"/><path class="cls-2" d="M3.37,7.34l-.72.72,5.06,5.06.72-.72Z"/><path class="cls-2" d="M4.1,6.61l5.06,5.06L11.33,9.5l-.73-.72L9.16,10.23,5.54,6.61,7,5.17l-.72-.73Z"/><path class="cls-2" d="M.48,10.23-1.69,12.4l.73.72L.48,11.67,4.1,15.29,2.65,16.73l.72.73,2.17-2.17Z"/><path class="cls-2" d="M30.84,29l-7.95,8,.72.73,8-8Z"/><path class="cls-2" d="M38.07,36.25l-7.95,8,.72.73,8-8Z"/><path class="cls-2" d="M28,34.8l-.72.73,5.06,5.06.72-.72Z"/><path class="cls-2" d="M29.4,33.36l-.73.72,5.06,5.06.73-.72Z"/><path class="cls-2" d="M30.12,32.64l5.06,5.06,2.17-2.17-.72-.73-1.45,1.45-3.61-3.61L33,31.19l-.72-.72Z"/><path class="cls-2" d="M26.51,36.25l-2.17,2.17.72.72,1.45-1.44,3.61,3.61-1.45,1.45.73.72,2.17-2.17Z"/><path class="cls-2" d="M46-3.51l-8,8,.73.73,8-8Z"/><path class="cls-2" d="M41.69,3.72,39.52,5.89l.72.72,1.45-1.44L45.3,8.78l-1.44,1.45.72.72,2.17-2.17Z"/><path class="cls-3" d="M20,11.35,20,11a5.94,5.94,0,0,1-3.94-2.11,3,3,0,0,0,1.78,2.39A6.38,6.38,0,0,0,20,11.35Z"/><path class="cls-3" d="M14.12,21.42a1.83,1.83,0,0,1,2.68.79c.6,1,.95,1,1.65.1a1.74,1.74,0,0,1,2.94,0c.81,1,1.1,1,1.74-.12a1.75,1.75,0,0,1,2.23-.89A1.13,1.13,0,0,0,27,20.83c-.4-.91-1.13-1-2.06-1-3.38.06-6.76,0-10.13,0-.48,0-1.16,0-1.4.32a19.76,19.76,0,0,0-1.53,2.51l.23.13A22.13,22.13,0,0,1,14.12,21.42Z"/><path class="cls-3" d="M20.72,15.34c0-.78.08-1.55.12-2.35H18.67c.78,1.17.12,2.48.46,3.73C20.72,16.88,20.73,16.85,20.72,15.34Z"/><path class="cls-3" d="M19,18.48c.18,0,.32-.27.62-.55H18.17C18.15,18.63,18.62,18.57,19,18.48Z"/><path class="cls-3" d="M27,20.82h0S27,20.82,27,20.82Z"/><path class="cls-3" d="M22.36,25.28a28.79,28.79,0,0,0-5,0,1.68,1.68,0,0,0-1.23.6,2.08,2.08,0,0,0-.25,1.67,2.32,2.32,0,0,0,.31.68c.7,1,2.69.64,6.67.63,1.43,0,1.83,0,2.08-.28S24.08,25.45,22.36,25.28Z"/><path class="cls-3" d="M28.61,31.52c.06-1.23-.08-1.37-1.35-1.37l-15.06,0c-1.09,0-1.2.17-1,1.34Z"/><path class="cls-3" d="M31.11,32.87l-.52-.08a8.86,8.86,0,0,0-1.08,0c-1.26,0-12.6,0-15.41-.06H12c-1.22,0-2.44.14-3.67.15a1.75,1.75,0,0,0-.51.09.6.6,0,0,0-.21.11.56.56,0,0,0-.14.48.65.65,0,0,0,.13.39,1,1,0,0,0,.76.28c.86,0,1.28,0,2,0,1.05,0,1.23.08,2.73,0l.43,0a.14.14,0,0,0,.09-.06.16.16,0,0,0,0-.14c0-.11-.27-.1-.34-.1-.5,0-1-.09-1.5-.07s-1,.05-1.22,0c-.71,0-.61-.06-1.08,0s-.71.07-.76-.06a.24.24,0,0,1,0-.2A.32.32,0,0,1,9,33.44c.21,0,.51,0,.91,0h9.75l9.12,0a9.77,9.77,0,0,1,1.21,0c.6.06,1.13.22,1.38,0a.4.4,0,0,0,.09-.14.31.31,0,0,0-.09-.24A.31.31,0,0,0,31.11,32.87Z"/><path class="cls-4" d="M20.27,9.7h0v0l.51-.18.49-.33L21.48,9a2.14,2.14,0,0,0,.12-2.62,2.07,2.07,0,0,0-2.53-.58A2.2,2.2,0,0,0,17.9,8.35,2.21,2.21,0,0,0,20.27,9.7Zm.88-.87v0h-.36v0Z"/><path d="M31.67,31.58c-.58,0-1.16,0-1.76,0,0-.28,0-.42,0-.56,0-.93-.1-1.78-1.28-2-.12,0-.26-.39-.27-.6,0-1.19-.05-2.39,0-3.58a2.86,2.86,0,0,1,.45-1.27,1.75,1.75,0,0,0,.14-1.85c-.36-.68-.78-1.32-1.17-2a2.1,2.1,0,0,0-2-1.09c-.93,0-1.87,0-2.59,0A9.16,9.16,0,0,0,22.38,17c-.4-.5-.9-2.32-.48-2.79.78-.89.82-2.24,2-2.9.47-.25.74-1,1-1.56.58-1.5-.06-2.29-1.63-2.09-.41-2-1.52-3.08-3.14-3.14s-2.86,1-3.37,3c-.58.14-1.26.11-1.49.42A1.91,1.91,0,0,0,15,9.52a8.12,8.12,0,0,0,1.27,2.08c.41.53,1.31.74,1,1.71,0,.09.08.29.18.37,1,.7.52,1.75.61,2.66a.47.47,0,0,1-.22.4A1.54,1.54,0,0,0,17,18.67H15.74c-3.2,0-2.81-.32-4.62,3a1.7,1.7,0,0,0,.22,2.12,1,1,0,0,1,.29.58c0,1.56,0,3.11,0,4.72-1.78.1-1.63,1.42-1.63,2.57-.66,0-1.2,0-1.73,0a1.92,1.92,0,1,0,0,3.84q11.65,0,23.33,0a1.95,1.95,0,1,0,0-3.88ZM19.07,5.79a2.07,2.07,0,0,1,2.53.58A2.14,2.14,0,0,1,21.48,9l-.19.19-.49.33-.51.18v0h0A2.21,2.21,0,0,1,17.9,8.35,2.2,2.2,0,0,1,19.07,5.79Zm.06,10.93c-.34-1.25.32-2.56-.46-3.73h2.17c0,.8-.12,1.57-.12,2.35C20.73,16.85,20.72,16.88,19.13,16.72Zm.51,1.21c-.3.28-.44.52-.62.55-.4.09-.87.15-.85-.55ZM17.86,11.3a3,3,0,0,1-1.78-2.39A5.94,5.94,0,0,0,20,11l-.06.33A6.38,6.38,0,0,1,17.86,11.3Zm-4.44,8.85c.24-.29.92-.31,1.4-.32,3.37,0,6.75,0,10.13,0,.93,0,1.66.12,2.06,1h0s0,0,0,0h0a1.13,1.13,0,0,1-1.65.42,1.75,1.75,0,0,0-2.23.89c-.64,1.11-.93,1.13-1.74.12a1.74,1.74,0,0,0-2.94,0c-.7.92-1.05.89-1.65-.1a1.83,1.83,0,0,0-2.68-.79,22.13,22.13,0,0,0-2,1.37l-.23-.13A19.76,19.76,0,0,1,13.42,20.15Zm11.52,8.44c-.25.27-.65.27-2.08.28-4,0-6,.39-6.67-.63a2.32,2.32,0,0,1-.31-.68,2.08,2.08,0,0,1,.25-1.67,1.68,1.68,0,0,1,1.23-.6,28.79,28.79,0,0,1,5,0C24.08,25.45,25.21,28.28,24.94,28.59ZM12.2,30.18l15.06,0c1.27,0,1.41.14,1.35,1.37H11.23C11,30.35,11.11,30.19,12.2,30.18Zm19.23,3a.4.4,0,0,1-.09.14c-.25.27-.78.11-1.38,0a9.77,9.77,0,0,0-1.21,0l-9.12,0H9.88c-.4,0-.7,0-.91,0a.32.32,0,0,0-.22.12.24.24,0,0,0,0,.2c0,.13.38.08.76.06s.37,0,1.08,0c.26,0,.58,0,1.22,0s1,.07,1.5.07c.07,0,.29,0,.34.1a.16.16,0,0,1,0,.14.14.14,0,0,1-.09.06l-.43,0c-1.5.05-1.68-.06-2.73,0-.76,0-1.18,0-2,0a1,1,0,0,1-.76-.28.65.65,0,0,1-.13-.39A.56.56,0,0,1,7.57,33a.6.6,0,0,1,.21-.11,1.75,1.75,0,0,1,.51-.09c1.23,0,2.45-.17,3.67-.15H14.1c2.81,0,14.15.08,15.41.06a8.86,8.86,0,0,1,1.08,0l.52.08a.31.31,0,0,1,.23.06A.31.31,0,0,1,31.43,33.17Z"/><path d="M21.15,8.85v0h-.37v0Z"/></svg>