<svg id="Слой_1" data-name="Слой 1" xmlns="http://www.w3.org/2000/svg" viewBox="0 0 40 40"><defs><style>.cls-1{fill:#ddd;}.cls-2{fill:#69c3ca;}.cls-3{fill:#fac5a0;}.cls-4{fill:#c8752e;}</style></defs><path class="cls-1" d="M20.45,34.66l4.78-4.77-5.46-5.46.68-.68,5.46,5.45.68-.68-6.14-6.13-2,2,5.45,5.46L20.45,33.3l-6.81-6.82-.69.68Z"/><path class="cls-1" d="M20.45,30.57,15,25.11l-.68.69,6.13,6.13,2.05-2-5.45-5.46L20.45,21l6.82,6.82.68-.68-7.5-7.5-4.77,4.77,5.46,5.46Z"/><path class="cls-1" d="M0,25.11l4.77-4.77L-.68,14.89,0,14.2l5.45,5.46L6.14,19,0,12.84l-2,2.05,5.46,5.45L0,23.75l-6.82-6.82-.68.68Z"/><path class="cls-1" d="M0,21l-5.45-5.45-.69.68L0,22.39l2.05-2.05-5.46-5.45L0,11.48,6.82,18.3l.68-.69L0,10.11l-4.77,4.78L.68,20.34Z"/><path class="cls-1" d="M32.73,48.3l-5.46-5.46-.68.68,6.14,6.14,2-2-5.45-5.45,3.41-3.41,6.82,6.82.68-.68-7.5-7.5L28,42.16l5.46,5.45Z"/><path class="cls-1" d="M36.82,18.3l4.77-4.78L36.14,8.07l.68-.68,5.45,5.45.68-.68L36.82,6l-2,2.05,5.46,5.45-3.41,3.41L30,10.11l-.68.69Z"/><path class="cls-1" d="M36.82,14.2,31.36,8.75l-.68.68,6.14,6.14,2-2.05L33.41,8.07l3.41-3.41,6.82,6.82.68-.68-7.5-7.5L32.05,8.07l5.45,5.45Z"/><path class="cls-1" d="M16.36,8.75,21.14,4,15.68-1.48l.68-.68L21.82,3.3l.68-.69L16.36-3.52l-2,2L19.77,4,16.36,7.39,9.55.57l-.69.68Z"/><path class="cls-1" d="M16.36,4.66,10.91-.8l-.68.69L16.36,6l2.05-2L13-1.48l3.41-3.41,6.82,6.82.68-.68-7.5-7.5L11.59-1.48,17.05,4Z"/><path class="cls-1" d="M12.27,42.84l4.78-4.77-5.46-5.46.68-.68,5.46,5.46.68-.69-6.14-6.13-2,2,5.45,5.46-3.41,3.41L5.45,34.66l-.68.68Z"/><path class="cls-1" d="M12.27,38.75,6.82,33.3,6.14,34l6.13,6.13,2.05-2L8.86,32.61l3.41-3.41L19.09,36l.68-.68-7.5-7.5L7.5,32.61,13,38.07Z"/><path class="cls-1" d="M45,10.11l4.77-4.77L44.32-.11,45-.8l5.45,5.46L51.14,4,45-2.16,43-.11l5.46,5.45L45,8.75,38.18,1.93l-.68.68Z"/><path class="cls-1" d="M45,6,39.55.57l-.69.68L45,7.39l2-2L41.59-.11,45-3.52,51.82,3.3l.68-.69L45-4.89,40.23-.11l5.45,5.45Z"/><path class="cls-1" d="M4.09,51l4.77-4.77L3.41,40.8l.68-.69,5.46,5.46.68-.68L4.09,38.75l-2,2L7.5,46.25,4.09,49.66l-6.82-6.82-.68.68Z"/><path class="cls-1" d="M4.09,46.93l-5.45-5.45-.69.68L4.09,48.3l2.05-2L.68,40.8l3.41-3.41,6.82,6.81.68-.68L4.09,36-.68,40.8l5.45,5.45Z"/><path class="cls-1" d="M24.55.57,29.32-4.2,23.86-9.66l.69-.68L30-4.89l.68-.68L24.55-11.7l-2.05,2L28-4.2,24.55-.8,17.73-7.61l-.68.68Z"/><path class="cls-1" d="M28.64,26.48l4.77-4.78L28,16.25l.69-.68L34.09,21l.68-.68L28.64,14.2l-2.05,2.05,5.46,5.45-3.41,3.41L21.82,18.3l-.68.68Z"/><path class="cls-1" d="M28.64,22.39l-5.46-5.46-.68.68,6.14,6.14,2-2.05-5.45-5.45,3.41-3.41,6.81,6.82.69-.68-7.5-7.5-4.78,4.77,5.46,5.45Z"/><path class="cls-1" d="M8.18,16.93,13,12.16,7.5,6.7,8.18,6l5.46,5.46.68-.68L8.18,4.66l-2,2,5.45,5.46L8.18,15.57,1.36,8.75l-.68.68Z"/><path class="cls-1" d="M8.18,12.84,2.73,7.39l-.68.68L8.18,14.2l2.05-2L4.77,6.7,8.18,3.3,15,10.11l.68-.68-7.5-7.5L3.41,6.7l5.45,5.46Z"/><path class="cls-1" d="M40.91,44.2l4.77-4.77L40.23,34l.68-.68,5.45,5.45.69-.68-6.14-6.14-2,2,5.46,5.45-3.41,3.41L34.09,36l-.68.68Z"/><path class="cls-1" d="M40.91,40.11l-5.46-5.45-.68.68,6.14,6.14,2-2L37.5,34l3.41-3.41,6.82,6.82.68-.69-7.5-7.5L36.14,34l5.45,5.45Z"/><path class="cls-1" d="M16.56,38.55v7.5h7.5l.49-.48-.49-.48H17.53V38.55l-.48-.48Z"/><path class="cls-1" d="M-2,34.57h4.6l-1-1H-1V30.93l-1-1Z"/><path class="cls-1" d="M-3.89,29v7.5h7.5L4.09,36l-.48-.48H-2.93V29l-.48-.48Z"/><path class="cls-1" d="M-4,37.47-.68,40.8,0,40.11l-1.68-1.68H1.68l1-1Z"/><path class="cls-1" d="M6.22,26.39h4.6l-1-1H7.18V22.75l-1-1Z"/><path class="cls-1" d="M4.29,20.82v7.5h7.5l.48-.48-.48-.48H5.25V20.82l-.48-.48Z"/><path class="cls-1" d="M-2,27.16l-.68.68,7.5,7.5.68-.68Z"/><path class="cls-1" d="M-.68,25.8l-.68.68L6.14,34l.68-.68Z"/><path class="cls-1" d="M3.32,21.79l-1,1v3.36L.68,24.43,0,25.11l3.32,3.33Z"/><path class="cls-1" d="M4.18,29.29,7.5,32.61l.68-.68L6.5,30.25H9.86l1-1Z"/><path class="cls-1" d="M30.68-5.57,30-4.89l7.5,7.5.68-.68Z"/><path class="cls-1" d="M32.05-6.93l-.69.68,7.5,7.5.69-.68Z"/><path class="cls-1" d="M26.68,35.94h4.6l-1-1H27.64V32.3l-1-1Z"/><path class="cls-1" d="M24.75,30.37v7.5h7.5l.48-.48-.48-.48H25.71V30.37l-.48-.48Z"/><path class="cls-1" d="M18.41,36.7l-.68.69,7.5,7.5.68-.69Z"/><path class="cls-1" d="M19.77,35.34l-.68.68,7.5,7.5.68-.68Z"/><path class="cls-1" d="M23.78,31.34l-1,1v3.36L21.14,34l-.69.68L23.78,38Z"/><path class="cls-1" d="M24.63,38.84,28,42.16l.69-.68L27,39.8h3.36l1-1Z"/><path class="cls-1" d="M14.4,18.21H19l-1-1H15.36V14.57l-1-1Z"/><path class="cls-1" d="M12.47,12.64v7.5H20l.48-.48L20,19.18H13.44V12.64L13,12.16Z"/><path class="cls-1" d="M6.14,19l-.69.68,7.5,7.5.69-.68Z"/><path class="cls-1" d="M7.5,17.61l-.68.69,7.5,7.5.68-.69Z"/><path class="cls-1" d="M11.51,13.61l-1,1v3.36L8.86,16.25l-.68.68,3.33,3.33Z"/><path class="cls-1" d="M12.36,21.11l3.32,3.32.68-.68-1.68-1.68H18l1-1Z"/><path class="cls-1" d="M2.13.48h4.6l-1-1H3.09V-3.16l-1-1Z"/><path class="cls-1" d="M.2-5.09v7.5H7.7l.48-.48L7.7,1.45H1.16V-5.09L.68-5.57Z"/><path class="cls-1" d="M-6.14,1.25l-.68.68,7.5,7.5.68-.68Z"/><path class="cls-1" d="M-4.77-.11l-.68.68,7.5,7.5.68-.68Z"/><path class="cls-1" d="M.09,3.38,3.41,6.7,4.09,6,2.41,4.34H5.77l1-1Z"/><path class="cls-1" d="M34.86,27.76h4.6l-1-1H35.82V24.11l-1-1Z"/><path class="cls-1" d="M32.93,22.19v7.5h7.5l.48-.49-.48-.48H33.89V22.19l-.48-.49Z"/><path class="cls-1" d="M26.59,28.52l-.68.68,7.5,7.5.68-.68Z"/><path class="cls-1" d="M28,27.16l-.68.68,7.5,7.5.68-.68Z"/><path class="cls-1" d="M32,23.15l-1,1v3.37L29.32,25.8l-.68.68L32,29.8Z"/><path class="cls-1" d="M32.81,30.65,36.14,34l.68-.68-1.68-1.69H38.5l1-1Z"/><path class="cls-1" d="M22.59,10h4.6l-1-1H23.55V6.39l-1-1Z"/><path class="cls-1" d="M20.66,4.46V12h7.5l.48-.48L28.16,11H21.62V4.46L21.14,4Z"/><path class="cls-1" d="M14.32,10.8l-.68.68,7.5,7.5.68-.68Z"/><path class="cls-1" d="M15.68,9.43l-.68.68,7.5,7.5.68-.68Z"/><path class="cls-1" d="M19.69,5.43l-1,1V9.75L17.05,8.07l-.69.68,3.33,3.32Z"/><path class="cls-1" d="M20.54,12.93l3.32,3.32.69-.68-1.69-1.68h3.37l1-1Z"/><path class="cls-1" d="M2.05-6.93l-.69.68,7.5,7.5L9.55.57Z"/><path class="cls-1" d="M34.77,20.34l-.68.68,7.5,7.5.68-.68Z"/><path class="cls-1" d="M36.14,19l-.69.68,7.5,7.5.69-.68Z"/><path class="cls-1" d="M40.14,15l-1,1v3.36L37.5,17.61l-.68.69,3.32,3.32Z"/><path class="cls-1" d="M30.77,1.85h4.6l-1-1H31.73V-1.79l-1-1Z"/><path class="cls-1" d="M28.84-3.72v7.5h7.5l.48-.48-.48-.49H29.8V-3.72l-.48-.48Z"/><path class="cls-1" d="M22.5,2.61l-.68.69,7.5,7.5.68-.69Z"/><path class="cls-1" d="M23.86,1.25l-.68.68,7.5,7.5.68-.68Z"/><path class="cls-1" d="M27.87-2.76l-1,1V1.57L25.23-.11l-.68.68,3.32,3.32Z"/><path class="cls-1" d="M28.72,4.74l3.33,3.33.68-.68L31.05,5.71h3.36l1-1Z"/><path class="cls-2" d="M20.06,13.16a2.41,2.41,0,1,0,2.42,2.41A2.41,2.41,0,0,0,20.06,13.16Z"/><path class="cls-3" d="M19.42,21.91v6.51h.15V21.91Z"/><path class="cls-3" d="M22.73,11.92h0a2.91,2.91,0,0,0-.37-.33,4.46,4.46,0,0,0-5.92,1.15,4.31,4.31,0,0,0,.56,5.9,4.5,4.5,0,0,0,6.44-.28A4.44,4.44,0,0,0,22.73,11.92Zm-.54,7.32h0l0-.06Zm1-1.2h0l.05,0Zm-3.16,1.15a3.62,3.62,0,1,1,3.62-3.62A3.62,3.62,0,0,1,20.06,19.19Z"/><path class="cls-3" d="M19.3,29.43c0,.92,0,1.86,0,2.79a.75.75,0,0,0,1.23.43,22.66,22.66,0,0,0,.05-2.3C20.56,29.66,20.15,29.25,19.3,29.43Z"/><path d="M20,9.92a5.54,5.54,0,0,0-5.39,4.47c-.55,2.87.93,5.19,4.09,6.46a4.18,4.18,0,0,0-.39,1.23c0,3.38-.05,6.76,0,10.14a1.74,1.74,0,0,0,2.35,1.57A1.69,1.69,0,0,0,21.93,32c0-3.06,0-6.12,0-9.18a13.46,13.46,0,0,0-.3-2c3.09-1.32,4.44-3.53,3.84-6.46A5.51,5.51,0,0,0,20,9.92Zm.52,22.73a.75.75,0,0,1-1.23-.43c-.06-.93,0-1.87,0-2.79.85-.18,1.26.23,1.3.92A22.66,22.66,0,0,1,20.55,32.65Zm-1.13-4.23V21.91h.15v6.52Zm4-10a4.5,4.5,0,0,1-6.44.28,4.31,4.31,0,0,1-.56-5.9,4.46,4.46,0,0,1,5.92-1.15,2.91,2.91,0,0,1,.37.33h0A4.44,4.44,0,0,1,23.45,18.37Z"/><path class="cls-4" d="M27.31,19.93c-.36-.33-.55-.5-.81-.47a.83.83,0,0,0-.55.36,1,1,0,0,0,.07.53,1.31,1.31,0,0,0,.61.57c.3.18.45.28.63.26a.66.66,0,0,0,.57-.54C27.85,20.42,27.67,20.26,27.31,19.93Z"/><polygon points="22.19 19.24 22.2 19.19 22.18 19.25 22.19 19.24"/><polygon points="23.22 18.04 23.25 18.02 23.2 18.04 23.22 18.04"/><path d="M20.06,12a3.62,3.62,0,1,0,3.62,3.62A3.62,3.62,0,0,0,20.06,12Zm0,6a2.41,2.41,0,1,1,2.42-2.41A2.41,2.41,0,0,1,20.06,18Z"/><path class="cls-4" d="M28.05,15.81c-.49-.05-.74-.07-.94.1a.82.82,0,0,0-.22.61.86.86,0,0,0,.36.39,1.3,1.3,0,0,0,.83.1c.35,0,.53,0,.66-.16a.65.65,0,0,0,.15-.77C28.77,15.89,28.53,15.87,28.05,15.81Z"/><path class="cls-4" d="M27.48,13.13a1.4,1.4,0,0,0,.81-.21c.32-.15.48-.22.56-.39a.65.65,0,0,0-.14-.77c-.17-.14-.41-.07-.87.05s-.72.19-.85.43a.79.79,0,0,0,0,.65A.89.89,0,0,0,27.48,13.13Z"/><path class="cls-4" d="M25.08,7.42c-.22,0-.39.15-.72.5s-.52.54-.51.8a.8.8,0,0,0,.35.55,1,1,0,0,0,.53,0c.26-.1.39-.29.59-.59s.29-.44.28-.63A.67.67,0,0,0,25.08,7.42Z"/><path class="cls-4" d="M13.5,19.46c-.26,0-.45.14-.81.47s-.54.49-.52.71a.66.66,0,0,0,.57.54c.18,0,.33-.08.63-.26a1.31,1.31,0,0,0,.61-.57,1,1,0,0,0,.07-.53A.83.83,0,0,0,13.5,19.46Z"/><path class="cls-4" d="M12.75,16.91a.86.86,0,0,0,.36-.39.82.82,0,0,0-.22-.61c-.2-.17-.45-.15-.94-.1s-.72.08-.84.27a.65.65,0,0,0,.15.77c.13.13.31.14.66.16A1.3,1.3,0,0,0,12.75,16.91Z"/><path class="cls-4" d="M11.71,12.92a1.4,1.4,0,0,0,.81.21.89.89,0,0,0,.47-.24.79.79,0,0,0,0-.65c-.13-.24-.37-.3-.85-.43s-.7-.19-.87-.05a.65.65,0,0,0-.14.77C11.23,12.7,11.39,12.77,11.71,12.92Z"/><path class="cls-4" d="M15.27,9.23a1,1,0,0,0,.53,0,.8.8,0,0,0,.35-.55c0-.26-.17-.45-.51-.8s-.5-.52-.72-.5A.67.67,0,0,0,14.4,8c0,.19.08.33.28.63S15,9.13,15.27,9.23Z"/><path class="cls-4" d="M20.18,8.18a1,1,0,0,0,.37-.38A1.31,1.31,0,0,0,20.62,7c0-.35-.05-.53-.18-.66a.69.69,0,0,0-.78-.12c-.18.13-.2.37-.23.85s-.06.74.13.94A.84.84,0,0,0,20.18,8.18Z"/></svg>