<svg id="Слой_1" data-name="Слой 1" xmlns="http://www.w3.org/2000/svg" xmlns:xlink="http://www.w3.org/1999/xlink" viewBox="0 0 40 40"><defs><style>.cls-1{fill:none;}.cls-2{fill:#ddd;}.cls-3{fill:#fac5a0;}.cls-4{clip-path:url(#clip-path);}</style><clipPath id="clip-path"><path class="cls-1" d="M-16.37-51.54h0a20,20,0,0,1,20,20h0a20,20,0,0,1-20,20h0a20,20,0,0,1-20-20h0A20,20,0,0,1-16.37-51.54Z"/></clipPath></defs><path class="cls-2" d="M2.69,47.57l8.46-8.46L2.69,30.65l-8.46,8.46.77.77,7.69-7.7,6.93,6.93L1.92,46.8Z"/><path class="cls-2" d="M1.15,46l6.93-6.92L2.69,33.72l-6.92,6.93.77.77,6.15-6.16,3.85,3.85L.38,45.26Z"/><path class="cls-2" d="M3.46,39.11l-.77-.77L-1.92,43l-.77-.77L2.69,36.8,5,39.11-.38,44.49l-.77-.77Z"/><path class="cls-2" d="M19.62,30.65l8.46-8.47-.77-.76-7.69,7.69-6.93-6.93,7.69-7.69-.76-.77-8.47,8.46Z"/><path class="cls-2" d="M14.23,22.18l2.31,2.31,6.92-6.92-.77-.77L16.54,23l-.77-.77L21.92,16l-.77-.77Z"/><path class="cls-2" d="M17.31,25.26l2.31,2.31,6.92-6.92-.77-.77L19.62,26l-.77-.77L25,19.11l-.77-.77Z"/><path class="cls-2" d="M11.15,22.18,2.69,30.65l.77.77L11.92,23Z"/><path class="cls-2" d="M18.85,29.88l-8.47,8.46.77.77,8.47-8.46Z"/><path class="cls-2" d="M8.08,28.34l-.77.77,5.38,5.38.77-.77Z"/><path class="cls-2" d="M9.62,26.8l-.77.77L14.23,33l.77-.76Z"/><path class="cls-2" d="M10.38,26l5.39,5.39,2.31-2.31-.77-.77-1.54,1.54L11.92,26l1.54-1.54-.77-.77Z"/><path class="cls-2" d="M6.54,29.88,4.23,32.19,5,33l1.54-1.53,3.84,3.84L8.85,36.8l.77.77,2.3-2.31Z"/><path class="cls-2" d="M38.08,49.11l8.46-8.46-.77-.77-7.69,7.69-6.93-6.92,7.7-7.7-.77-.77-8.46,8.47Z"/><path class="cls-2" d="M32.69,40.65,35,43,41.92,36l-.77-.77L35,41.42l-.77-.77,6.15-6.16-.76-.77Z"/><path class="cls-2" d="M35.77,43.72,38.08,46,45,39.11l-.77-.77-6.15,6.15-.77-.77,6.15-6.15-.77-.77Z"/><path class="cls-2" d="M28.08,22.18l8.46-8.46L28.08,5.26l-8.46,8.46.76.77,7.7-7.69L35,13.72l-7.69,7.7Z"/><path class="cls-2" d="M26.54,20.65l6.92-6.93L28.08,8.34l-6.93,6.92.77.77,6.16-6.15,3.84,3.84-6.15,6.16Z"/><path class="cls-2" d="M28.85,13.72,28.08,13l-4.62,4.62-.77-.77,5.39-5.38,2.3,2.3L25,19.11l-.77-.77Z"/><path class="cls-2" d="M45,5.26,53.46-3.2,52.69-4,45,3.72,38.08-3.2l7.69-7.69L45-11.66,36.54-3.2Z"/><path class="cls-2" d="M36.54-3.2,28.08,5.26l.77.77,8.46-8.46Z"/><path class="cls-2" d="M44.23,4.49,35.77,13l.77.77L45,5.26Z"/><path class="cls-2" d="M33.46,3l-.77.77,5.39,5.39.77-.77Z"/><path class="cls-2" d="M35,1.42l-.77.76,5.39,5.39.76-.77Z"/><path class="cls-2" d="M35.77.65,41.15,6l2.31-2.31L42.69,3,41.15,4.49,37.31.65,38.85-.89l-.77-.77Z"/><path class="cls-2" d="M31.92,4.49,29.62,6.8l.76.77L31.92,6l3.85,3.85-1.54,1.54.77.76,2.31-2.3Z"/><path class="cls-2" d="M46.54,40.65,55,32.18l-8.46-8.46-8.46,8.46.77.77,7.69-7.69,6.92,6.92-7.69,7.7Z"/><path class="cls-2" d="M45,39.11l6.92-6.92L46.54,26.8l-6.92,6.92.76.77,6.16-6.15,3.84,3.85-6.15,6.15Z"/><path class="cls-2" d="M11.92,56.8l8.46-8.46-.76-.77-7.7,7.69L5,48.34l7.69-7.69-.77-.77L3.46,48.34Z"/><path class="cls-2" d="M20.38,48.34l8.47-8.46-8.47-8.46-8.46,8.46.77.77L20.38,33l6.93,6.93-7.69,7.69Z"/><path class="cls-2" d="M18.85,46.8l6.92-6.92-5.39-5.39-6.92,6.93.77.76L20.38,36l3.85,3.85L18.08,46Z"/><path class="cls-2" d="M21.15,39.88l-.77-.77-4.61,4.61L15,43l5.38-5.38,2.31,2.31-5.38,5.38-.77-.77Z"/><path class="cls-2" d="M37.31,31.42,45.77,23,45,22.18l-7.69,7.7L30.38,23l7.7-7.69-.77-.77L28.85,23Z"/><path class="cls-2" d="M31.92,23l2.31,2.31,6.92-6.92-.77-.77-6.15,6.15L33.46,23l6.16-6.15L38.85,16Z"/><path class="cls-2" d="M35,26l2.31,2.31,6.92-6.92-.77-.77L37.31,26.8,36.54,26l6.15-6.15-.77-.77Z"/><path class="cls-2" d="M28.85,23l-8.47,8.47.77.76,8.47-8.46Z"/><path class="cls-2" d="M36.54,30.65l-8.46,8.46.77.77,8.46-8.46Z"/><path class="cls-2" d="M25.77,29.11l-.77.77,5.38,5.38.77-.77Z"/><path class="cls-2" d="M27.31,27.57l-.77.77,5.38,5.38.77-.77Z"/><path class="cls-2" d="M28.08,26.8l5.38,5.38,2.31-2.3L35,29.11l-1.54,1.54L29.62,26.8l1.53-1.54-.77-.77Z"/><path class="cls-2" d="M24.23,30.65,21.92,33l.77.77,1.54-1.53L28.08,36l-1.54,1.54.77.77L29.62,36Z"/><path class="cls-2" d="M45.77,23l8.46-8.46L45.77,6l-8.46,8.46.77.77,7.69-7.69,6.92,6.92L45,22.18Z"/><path class="cls-2" d="M44.23,21.42l6.92-6.93L45.77,9.11,38.85,16l.77.77,6.15-6.15,3.85,3.84-6.16,6.16Z"/><path class="cls-2" d="M1.15,12.18,9.62,3.72,8.85,3l-7.7,7.7L-5.77,3.72,1.92-4l-.77-.77L-7.31,3.72Z"/><path class="cls-2" d="M-4.23,3.72-1.92,6,5-.89l-.77-.77L-1.92,4.49l-.77-.77L3.46-2.43,2.69-3.2Z"/><path class="cls-2" d="M-1.15,6.8l2.3,2.31L8.08,2.18l-.77-.76L1.15,7.57.38,6.8,6.54.65,5.77-.12Z"/><path class="cls-2" d="M.38,11.42l-8.46,8.46.77.77,8.46-8.47Z"/><path class="cls-2" d="M9.62,3.72l8.46-8.46L9.62-13.2,1.15-4.74,1.92-4l7.7-7.69,6.92,6.92L8.85,3Z"/><path class="cls-2" d="M8.08,2.18,15-4.74,9.62-10.12,2.69-3.2l.77.77L9.62-8.58l3.84,3.84L7.31,1.42Z"/><path class="cls-2" d="M10.38-4.74l-.76-.77L5-.89l-.77-.77L9.62-7l2.3,2.31L6.54.65,5.77-.12Z"/><path class="cls-2" d="M1.92,29.88l8.46-8.46L1.92,13l-8.46,8.47.77.76,7.69-7.69,6.93,6.93-7.7,7.69Z"/><path class="cls-2" d="M.38,28.34l6.93-6.92L1.92,16-5,23l.77.77,6.15-6.15,3.85,3.85L-.38,27.57Z"/><path class="cls-2" d="M2.69,21.42l-.77-.77-4.61,4.61-.77-.77,5.38-5.38,2.31,2.31L-1.15,26.8-1.92,26Z"/><path class="cls-2" d="M18.85,13l8.46-8.46-.77-.77-7.69,7.7L11.92,4.49l7.7-7.69L18.85-4,10.38,4.49Z"/><path class="cls-2" d="M13.46,4.49,15.77,6.8,22.69-.12l-.77-.77L15.77,5.26,15,4.49l6.15-6.15-.77-.77Z"/><path class="cls-2" d="M16.54,7.57l2.31,2.31L25.77,3,25,2.18,18.85,8.34l-.77-.77,6.15-6.15L23.46.65Z"/><path class="cls-2" d="M10.38,4.49,1.92,13l.77.77,8.46-8.46Z"/><path class="cls-2" d="M18.08,12.18,9.62,20.65l.76.77L18.85,13Z"/><path class="cls-2" d="M7.31,10.65l-.77.77,5.38,5.38.77-.77Z"/><path class="cls-2" d="M8.85,9.11l-.77.77,5.38,5.38.77-.77Z"/><path class="cls-2" d="M9.62,8.34,15,13.72l2.31-2.3-.77-.77L15,12.18,11.15,8.34,12.69,6.8,11.92,6Z"/><path class="cls-2" d="M5.77,12.19l-2.31,2.3.77.77,1.54-1.54,3.85,3.85L8.08,19.11l.77.77,2.3-2.31Z"/><path class="cls-2" d="M27.31,4.49,35.77-4l-8.46-8.46L18.85-4l.77.77,7.69-7.69L34.23-4,26.54,3.72Z"/><path class="cls-2" d="M25.77,3,32.69-4,27.31-9.35,20.38-2.43l.77.77,6.16-6.16L31.15-4,25,2.18Z"/><path class="cls-2" d="M28.08-4l-.77-.77L22.69-.12l-.77-.77,5.39-5.39L29.62-4,24.23,1.42,23.46.65Z"/><path class="cls-2" d="M-6.54,38.34l8.46-8.46-.77-.77L-6.54,36.8l-6.92-6.92,7.69-7.7-.77-.76L-15,29.88Z"/><path class="cls-2" d="M-8.85,33l2.31,2.31L.38,28.34l-.76-.77-6.16,6.15L-7.31,33l6.16-6.15L-1.92,26Z"/><path class="cls-3" d="M20.43,7.8c-.22-.54-.75-.63-.95-.17C19,8.9,18.5,10.21,18,11.55h3.9C21.38,10.2,20.93,9,20.43,7.8Z"/><path class="cls-3" d="M23.7,13.51c-.44-1.11-.44-1.11-1.56-.95a4.51,4.51,0,0,1-.52,0c-1,0-1.95,0-2.92,0-.49,0-1-.22-1.45-.23-.31,0-.83.1-.93.31-.46,1-.82,2.11-1.23,3.21h9.55C24.29,15,24,14.25,23.7,13.51Z"/><path class="cls-3" d="M17.72,21.08c.13,0,.35-.38.36-.58,0-1,0-2.05,0-3.07,0-.46-.23-.57-.6-.56a24.83,24.83,0,0,0-3,.06,1.87,1.87,0,0,0-1.28.74c-.57,1-1,2.17-1.52,3.43C13.85,21.1,15.79,21.11,17.72,21.08Z"/><path class="cls-3" d="M25.51,22.1v4.69h5.32a1.19,1.19,0,0,0,0-.33c-.52-1.35-1-2.7-1.58-4a.6.6,0,0,0-.45-.31C27.71,22.08,26.62,22.1,25.51,22.1Z"/><path class="cls-3" d="M23.93,22.09a30.09,30.09,0,0,0-3.15,0,.75.75,0,0,0-.52.5c-.05,1.37,0,2.74,0,4.22,1.35,0,2.59,0,3.83,0,.14,0,.38-.32.39-.49,0-1.23.07-2.45,0-3.67A.85.85,0,0,0,23.93,22.09Z"/><path class="cls-3" d="M19.06,17.26c0,1.26,0,2.52,0,3.81h9c-.47-1.15-.92-2.18-1.31-3.22a1.37,1.37,0,0,0-1.38-1q-2.88,0-5.76,0C19.39,16.9,19.06,17.13,19.06,17.26Z"/><path class="cls-3" d="M12.84,22.12c-.12,0-.33.24-.33.37,0,1.42,0,2.83,0,4.35,2.21,0,4.27,0,6.34,0,.15,0,.43-.28.43-.42,0-1.42,0-2.83,0-4.31C17.11,22.1,15,22.09,12.84,22.12Z"/><path class="cls-3" d="M33,29.36a2.42,2.42,0,0,0-2.37-1.51c-2.26-.08-4.53,0-6.8,0-.46,0-.68.2-.68.68,0,1.17,0,2.34,0,3.51,0,.54.2.68.71.67,1.64,0,3.29,0,4.93,0h4.86c.88,0,1-.17.55-1S33.31,30.16,33,29.36Z"/><path class="cls-3" d="M11.31,26.79a.59.59,0,0,0,.39-.39c0-1.37,0-2.73,0-4.16a1.53,1.53,0,0,0-1.62,1c-.41.93-.83,1.87-1.23,2.81a5.63,5.63,0,0,0-.2.75C9.62,26.8,10.46,26.82,11.31,26.79Z"/><path class="cls-3" d="M8.63,27.89a2.29,2.29,0,0,0-1.6.93A24.2,24.2,0,0,0,5.54,32c-.19.41,0,.62.41.62,3.37,0,6.74,0,10.1,0,.18,0,.51-.28.51-.43,0-1.44,0-2.88,0-4.36C13.9,27.85,11.26,27.8,8.63,27.89Z"/><path class="cls-3" d="M21.88,27.84c-1.47,0-2.93,0-4.36,0-.06.13-.1.17-.1.21,0,1.28,0,2.55,0,3.82,0,.87.06.91,1.12.68,0-1,0-2.06,0-3.1,0-.86.44-1.23,1.33-1.24s1.4.4,1.41,1.26c0,1,0,2,0,3.07l.23.23c.22-.16.62-.31.63-.48.08-1.34.1-2.69.11-4A.55.55,0,0,0,21.88,27.84Z"/><path d="M34,29.13a3,3,0,0,0-2-2,7.91,7.91,0,0,0-.25-1.27c-.46-1.24-1-2.47-1.47-3.69-.11-.27-.25-.65-.46-.74-.78-.29-.9-1-1.16-1.62-.34-.8-.63-1.63-1-2.41-.22-.43-.53-1-.92-1.11-1-.32-1.18-1.1-1.49-1.88a15.76,15.76,0,0,0-.85-2.07,5.66,5.66,0,0,0-1.07-1.06c-.2-.19-.48-.35-.58-.58-.46-1.08-.89-2.17-1.31-3.27a1.49,1.49,0,0,0-2.88,0c-.39,1.08-.77,2.17-1.2,3.23a1,1,0,0,1-.58.54,1.79,1.79,0,0,0-1.38,1.23c-.37,1-.71,2-1.11,2.94a1.24,1.24,0,0,1-.55.62,2.85,2.85,0,0,0-1.5,1.59c-.31.79-.68,1.56-1,2.35s-.45,1.59-1.33,2c-.27.13-.45.53-.59.84-.42.88-.81,1.77-1.18,2.67-.16.39-.23.81-.37,1.21a1.6,1.6,0,0,1-.32.53A12.14,12.14,0,0,0,6,28.73a20.77,20.77,0,0,0-1.2,2.57c-.67,1.5-.14,2.32,1.49,2.32H33.88c1.45,0,2-.89,1.31-2.18C34.78,30.67,34.34,29.91,34,29.13Zm-5.16-7a.6.6,0,0,1,.45.31c.54,1.34,1.06,2.69,1.58,4a1.19,1.19,0,0,1,0,.33H25.51V22.1C26.62,22.1,27.71,22.08,28.8,22.11ZM25.32,16.9a1.37,1.37,0,0,1,1.38,1c.39,1,.84,2.07,1.31,3.22H19c0-1.29,0-2.55,0-3.81,0-.13.33-.36.5-.36Q22.44,16.86,25.32,16.9Zm-.86,9.42c0,.17-.25.49-.39.49-1.24,0-2.48,0-3.83,0,0-1.48,0-2.85,0-4.22a.75.75,0,0,1,.52-.5,30.09,30.09,0,0,1,3.15,0,.85.85,0,0,1,.56.56C24.53,23.87,24.5,25.09,24.46,26.32Zm-5.2.09c0,.14-.28.41-.43.42-2.07,0-4.13,0-6.34,0,0-1.52,0-2.93,0-4.35,0-.13.21-.37.33-.37,2.13,0,4.27,0,6.44,0C19.28,23.58,19.29,25,19.26,26.41Zm.22-18.78c.2-.46.73-.37.95.17.5,1.19.95,2.4,1.47,3.75H18C18.5,10.21,19,8.9,19.48,7.63Zm-3.16,5c.1-.21.62-.32.93-.31.49,0,1,.21,1.45.23,1,0,1.94,0,2.92,0a4.51,4.51,0,0,0,.52,0c1.12-.16,1.12-.16,1.56.95l.94,2.35H15.09C15.5,14.76,15.86,13.68,16.32,12.65Zm-3.07,5a1.87,1.87,0,0,1,1.28-.74,24.83,24.83,0,0,1,3-.06c.37,0,.61.1.6.56,0,1,0,2,0,3.07,0,.2-.23.57-.36.58-1.93,0-3.87,0-6,0C12.27,19.84,12.68,18.71,13.25,17.67ZM8.86,26.05c.4-.94.82-1.88,1.23-2.81a1.53,1.53,0,0,1,1.62-1c0,1.43,0,2.79,0,4.16a.59.59,0,0,1-.39.39c-.85,0-1.69,0-2.65,0A5.63,5.63,0,0,1,8.86,26.05Zm7.7,6.16c0,.15-.33.43-.51.43-3.36,0-6.73,0-10.1,0-.44,0-.6-.21-.41-.62A24.2,24.2,0,0,1,7,28.82a2.29,2.29,0,0,1,1.6-.93c2.63-.09,5.27,0,7.95,0C16.58,29.33,16.6,30.77,16.56,32.21Zm5.59.06c0,.17-.41.32-.63.48l-.23-.23c0-1,0-2.05,0-3.07,0-.86-.49-1.27-1.41-1.26s-1.32.38-1.33,1.24c0,1,0,2.09,0,3.1-1.06.23-1.12.19-1.12-.68,0-1.27,0-2.54,0-3.82,0,0,0-.08.1-.21,1.43,0,2.89,0,4.36,0a.55.55,0,0,1,.38.39C22.25,29.58,22.23,30.93,22.15,32.27Zm11.49.38H28.78c-1.64,0-3.29,0-4.93,0-.51,0-.73-.13-.71-.67,0-1.17,0-2.34,0-3.51,0-.48.22-.68.68-.68,2.27,0,4.54,0,6.8,0A2.42,2.42,0,0,1,33,29.36c.33.8.8,1.55,1.21,2.32S34.52,32.65,33.64,32.65Z"/></svg>