<svg id="Слой_1" data-name="Слой 1" xmlns="http://www.w3.org/2000/svg" viewBox="0 0 566.93 566.93"><path d="M18.73,452a48,48,0,0,1-5-.2c-5.11-.54-8.11-3.63-8-8.26s3.24-7.79,8.26-8.08c.92-.05,1.9-.07,3.07-.07l2.49,0,1.16,0c-.19-1.31-.39-2.58-.59-3.82a92.8,92.8,0,0,1-1.22-9.9,24,24,0,0,1,7.4-18.5A8.59,8.59,0,0,0,28.92,396a36.53,36.53,0,0,1,.9-8.36c.21-1.08.41-2.2.59-3.36C19.75,380.26,18.46,370.5,18,360c-.05-1.2-.19-2.44-.32-3.64s-.29-2.47-.34-3.73c-.09-2,.21-3.24,1-4a3,3,0,0,1,2.23-.84,8,8,0,0,1,2,.31c2.23.6,4.55,1.09,6.8,1.56,6.24,1.32,12.68,2.68,18.29,6.48,1.37-4.57.17-7.94-4-11.42-12.37-10.37-13.43-14.62-7.56-30.28,2.22-5.94,4.12-10.81,6-15.34.67-1.63,1.81-3.8,3.91-3.8,1.17,0,2.44.68,4,2.16,3.31,3.11,7.63,7.24,11.74,11.58,4.94,5.22,7.33,11.84,7.29,20.24q-.11,19.82-.12,39.63l0,11.76c0,2,0,3.51.33,3.84a1.94,1.94,0,0,0,1.14.2c.6,0,1.38-.06,2.36-.13h.18c.81-.07,1.62-.1,2.4-.1,8.14,0,14.54,3.33,19,9.9a9.49,9.49,0,0,0,.85,1c1.84-1.83,2.76-3.57,2.71-5.19-.06-1.77-1.21-3.54-3.54-5.38l-3.19-2.55c-3-2.44-6.21-5-9.37-7.38A8.93,8.93,0,0,1,78.12,367q.24-15,.45-29.9c.21-15,.44-30.49.72-45.73,0-1.82.87-4.86,2.55-5.62a2.75,2.75,0,0,1,1.11-.22,9.16,9.16,0,0,1,4.77,2c9.25,7.14,16.72,13.07,23.51,18.69,10.27,8.49,12.76,21.59,6.2,32.58A22.82,22.82,0,0,0,114.25,353c.12,1.64.22,3.28.35,5.28l0,.6c.66-.95,1.19-1.72,1.69-2.5Q187.45,245.73,258.55,135.1q4.43-6.89,8.83-13.78L275,109.5l.2-.31a29,29,0,0,1,2.22-3.15c2-2.35,4.2-3.59,6.43-3.59s4.48,1.31,6.34,3.77c2,2.65,3.81,5.51,5.54,8.28.65,1,1.29,2.07,1.95,3.1l54.76,85.17,94.37,146.77a13.78,13.78,0,0,1,2.4,10.23c-.19,1.3.9,3,1.95,4.72.31.5.63,1,.93,1.51,0-1.56,0-3.12,0-4.68.05-4.78.1-9.73-.16-14.56-.13-2.27-1.4-4.69-2.63-6.75-7.07-11.89-5.09-24.69,5.19-33.41,7.29-6.19,15-12.13,22.45-17.86l2.37-1.83a7.35,7.35,0,0,1,4-1.44,2.77,2.77,0,0,1,1.3.28c1.47.76,2.05,3.38,2.09,5q.44,20.27.79,40.54.28,15.5.6,31c.16,7.88-2.75,13.6-8.89,17.49a36.46,36.46,0,0,0-4.53,3.6,42.49,42.49,0,0,1-4.06,3.32c-1.48,1-2.25,2-2.37,2.92a4.21,4.21,0,0,0,1.37,3.09c.58.68,1.1,1.38,1.7,2.2l.25.33.5-.67a28.09,28.09,0,0,1,2.21-2.66,22.94,22.94,0,0,1,16.81-7.24c.83,0,1.69,0,2.54.13s1.6.14,2.15.14a1.86,1.86,0,0,0,1.16-.23c.37-.37.36-2.09.36-3.23l-.05-10c-.05-12.88-.11-26.21-.38-39.3-.22-10.6,3.18-18.87,10.41-25.26,1.87-1.66,3.65-3.5,5.38-5.28,1.27-1.31,2.59-2.67,3.94-4,1.61-1.53,2.82-2.21,3.94-2.21,1.91,0,2.94,1.95,3.62,3.64,3.08,7.7,5.84,14.67,8.35,21.93,2.64,7.63.91,14.58-5,20.09-1.39,1.3-2.77,2.67-4.11,4l-1.46,1.45c-4.13,4.07-4.44,4.38-3.35,10,5.69-4.37,12.32-5.63,18.75-6.84,1.9-.37,3.87-.74,5.77-1.19a13.36,13.36,0,0,1,2.92-.44,3,3,0,0,1,2.29.85c.88,1,1,2.59.78,4.74-.26,3.34-.62,6.73-1,10-.19,1.85-.39,3.7-.58,5.55a17.18,17.18,0,0,1-9.73,14.4c-2.12,1.1-2.54,1.71-1.62,4.25a19.31,19.31,0,0,1,.76,6.48c0,1.12,0,2.27.11,3.35q0,.33.06.69c.1,1.15.21,2.59.75,3.1,9.32,8.82,11.66,19.49,7.15,32.59-.13.38-.23.77-.39,1.34l0,.13,1.87,0,2.79,0c1.33,0,2.43,0,3.45.11,4.87.35,7.88,2.81,8.47,6.91a7.55,7.55,0,0,1-5.8,8.83,32,32,0,0,1-7.54.71l-271.9,0Zm-6-8.09a7.89,7.89,0,0,0,1.94,1.58,2.3,2.3,0,0,0,1,.17l.85,0c.32,0,.63,0,.93,0H547.22l2.25,0a14.38,14.38,0,0,0,3.63-.35,3.08,3.08,0,0,0,1.5-2A3.76,3.76,0,0,0,553,442a6.12,6.12,0,0,0-1.88-.22l-1.14,0-1.19,0H284.58l-.92,0H17.34c-.31,0-.64,0-1-.06s-.55,0-.81,0a1.49,1.49,0,0,0-.62.1,11.54,11.54,0,0,0-2.21,1.74l-.22.21Zm119.64-8.81a44.21,44.21,0,0,0,6.61.79c3.55,0,4.26-1.34,6.61-8.88q.73-2.34,1.44-4.69l3.58-12-1.81,0-2.54,0c-1.26,0-2.29,0-3.24-.12l-.62,0c-1.85,0-2.77.8-3.41,2.94-1.19,4-2.48,8.09-3.74,12q-1.14,3.56-2.25,7.13a22,22,0,0,0-.58,2.45A2.33,2.33,0,0,1,132.33,435.13Zm150.4-63.28c8.53,0,15,4.46,18.61,12.88,4.28,9.89,8.58,20,12.74,29.71l2.15,5c.55,1.29,1.06,2.6,1.57,3.91a62.3,62.3,0,0,0,3.59,8c1.09,1.93,3.23,4.06,4.91,4.29a20.47,20.47,0,0,0,2.82.18,57.07,57.07,0,0,0,5.72-.39q1.4-.15,2.82-.27a2.44,2.44,0,0,0-.06-.46L326.72,409q-8.28-19.63-16.55-39.29c-.8-1.91-2.06-2.62-4.65-2.62-7.78,0-15.5.06-23.22.06-8.07,0-15.29,0-22.06-.09h-.11c-2.91,0-4.36,1-5.52,3.74-6,14.43-12.27,29.06-18.3,43.2q-3.85,9-7.69,18.07c-.32.76-.58,1.53-.94,2.61-.08.25-.17.52-.27.8l2.69-.05c1.16,0,2.27-.05,3.35-.05a39.8,39.8,0,0,1,4.22.19,10.94,10.94,0,0,0,1.12.06c2.75,0,4.34-1.24,5.64-4.44,4-9.67,8.1-19.44,12.1-28.89q3.68-8.65,7.31-17.33c3.58-8.55,10.1-13.07,18.86-13.07ZM506.46,408.4c-6.67,0-12.8,4.77-14.91,11.59-1.33,4.28.37,7.58,2.73,11.44,1.84,3,3.82,4.19,7.07,4.19h0c.34,0,.69,0,1.05,0,1.69-.11,3.51-.17,5.72-.17,1.45,0,2.9,0,4.36,0l3.51,0,.82,0,5,0h5c2.77,0,5.05,0,7.15.08h.23a4.53,4.53,0,0,0,4.63-3.11c3.3-7.55,2.75-15.05-1.62-22.27-1.48-2.45-2.4-3.69-3.28-3.69s-2,.74-3.91,2.1a26.55,26.55,0,0,1-2.9,1.77,15.17,15.17,0,0,1-7.22,2.15,12.27,12.27,0,0,1-6.61-2.09A12.89,12.89,0,0,0,506.46,408.4Zm-358,27.09c.7,0,1.36,0,2,0,.87,0,1.68,0,2.46,0a26.21,26.21,0,0,0,3.34-.18,3.87,3.87,0,0,0,2.53-1.73c1.91-5.51,3.68-11.18,5.38-16.66l1.5-4.79a1.77,1.77,0,0,0,.07-1.25c-.12-.19-.46-.43-1.42-.58a30.58,30.58,0,0,0-4.45-.44c-3.35,0-4.37,1.19-6.08,7.09-.2.67-.39,1.35-.58,2s-.35,1.28-.53,1.92Zm-116-29.25c-.61,0-1.3.49-2.28,1.62-5.64,6.48-6.87,17.55-2.78,25.18a4.22,4.22,0,0,0,4.27,2.51h.19c2.37,0,4.74-.05,7.11-.05h8.85l.89,0H58.3q3,0,6,0h.15c5.57,0,10.84-4.81,11.27-10.29a15.24,15.24,0,0,0-4.24-11.58,16.43,16.43,0,0,0-11.75-5.41,13,13,0,0,0-6.29,1.6,17,17,0,0,1-8.19,2.35c-3.68,0-7.19-1.57-10.73-4.81A3.5,3.5,0,0,0,32.46,406.24Zm133.09,29.08a10.81,10.81,0,0,0,1.56.18l10,0q10.5,0,21,0,8.55,0,17.1,0c5.22,0,7.53-2.24,8-7.84l-.6,0c-1-.08-2.15-.15-3.2-.15H183.25c-4.45,0-6.93-.29-8.11-1.87s-.76-4,.46-8.1q1.56-5.22,3.16-10.43l1-3.33c.41-1.35,1-3.38.73-3.78s-2.48-.4-3.78-.4H127.2q-11.62,0-23.24,0A6.12,6.12,0,0,0,98,402.8c-4.07,6.52-8.28,13.1-12.36,19.46q-3.32,5.17-6.61,10.36a25.41,25.41,0,0,0-1.34,2.5l-.19.37h41.25c6.68,0,8.39-1.49,8.73-8.17l-40.93-1.76,0-3.42h6.82l15.12,0c4.68,0,10.84,0,17.07.1h.23c3.31,0,4.7-1,5.32-3.95a53.76,53.76,0,0,1,1.7-5.84c.39-1.2.8-2.44,1.14-3.66.88-3.13,2.94-4.66,6.29-4.66h2.9l9.16,0c3.06,0,6.11,0,9.17,0l5.93,0c2.05,0,4.08.21,5.09,1.59s.6,3.47,0,5.5c-1.22,4-2.51,8.07-3.75,12-.93,2.93-1.86,5.86-2.77,8.79a25.32,25.32,0,0,0-.63,2.75c0,.18-.08.37-.11.57Zm176.62-7.44c.74,6.84,1.77,7.65,8.09,7.65l46.91-.07c.93,0,1.87-.06,3-.13l.7-.05c-.07-.25-.14-.5-.2-.73-.3-1.09-.56-2-.85-2.91-.77-2.4-1.56-4.79-2.35-7.19-1.45-4.43-2.95-9-4.36-13.54-.56-1.8-1-3.83,0-5.2s3.07-1.57,5-1.59c4.54-.05,9.15-.05,13.61-.05s9.29,0,13.93-.06h.13a6.12,6.12,0,0,1,6.47,4.86c.51,1.75,1.11,3.52,1.68,5.24.37,1.11.74,2.22,1.1,3.33,1.5,4.71,1.5,4.71,6.27,4.71H476.6c1,0,1.93.11,2.86.21.42,0,.84.1,1.26.13l.75.07c-4.13-6.45-8.38-13.11-12.45-19.73-1.49-2.42-3.16-3.32-6.19-3.32-16.7.07-33.62.07-50,.07H389.19c-.93,0-1.89.09-3,.19l-.85.08c0,.25.07.5.1.73a22.12,22.12,0,0,0,.54,2.84c.72,2.5,1.48,5,2.23,7.47s1.52,5,2.24,7.49c.92,3.16,1.29,5.59.1,7.16s-3.63,1.91-6.95,1.92H358.39c-3.92,0-7.85,0-11.78,0a30.45,30.45,0,0,0-3.62.3Zm139.3-2.38-.81.06-1.43.13c-1.05.09-2.12.19-3.2.23l-11.37.37c-7.83.25-15.94.51-23.91.82a3.21,3.21,0,0,0-1.91.66c-.31.62,0,2.22,1.22,4.26s2.91,3.46,3.91,3.46h6.25q17.59,0,35.17-.07h3.38a3.15,3.15,0,0,0,.59-.09l-.15-.32c-.45-.87-.83-1.62-1.28-2.33-2-3.2-4.07-6.39-6.11-9.59-.08-.12-.15-.24-.23-.35ZM401,415.45c2.07,6.23,4,12.12,6.11,17.86a3.88,3.88,0,0,0,2.53,1.94,33.09,33.09,0,0,0,3.89.19l2.71,0,1.91,0q-.78-2.73-1.52-5.35c-1.68-5.93-3.27-11.54-5.09-17a5.26,5.26,0,0,0-3.38-2.68,23.25,23.25,0,0,0-3.83-.26c-.92,0-1.87,0-2.87.06l-2.23.05C399.82,412,400.4,413.72,401,415.45Zm16.27-.2c2.06,6.43,4,12.51,6.05,18.49a3,3,0,0,0,1.92,1.45c1.29.09,2.67.14,4.48.14l2.87,0,2.1,0L433,430.46c-2.26-6.49-4.39-12.62-6.69-18.73a3.72,3.72,0,0,0-2.48-1.38c-1-.1-2.14-.15-3.59-.15l-2.55,0-2,0Q416.48,412.81,417.25,415.25ZM316,435.15l0-.08a9.17,9.17,0,0,0-.41-1.47l-1.81-4.24c-6-14.08-12.24-28.65-18.42-42.95-2.39-5.54-6.48-8.23-12.51-8.23h-.17c-6.19.06-10.4,2.9-12.86,8.69q-9.66,22.68-19.27,45.37c-.33.76-.6,1.57-.91,2.51,0,.14-.08.27-.13.4Zm-136-13a6,6,0,0,0,1.23.23l16.4,0q13,0,25.92.08h0c2.18,0,3.05-1.1,3.9-3.13q4.11-9.78,8.25-19.54,3.15-7.44,6.3-14.89a14.49,14.49,0,0,0,.66-2.14c0-.1.06-.2.08-.3h0a2.3,2.3,0,0,0-.47-.18c-5.2,0-10.4-.06-15.6-.06s-8.07-.32-9.43-2.11-.95-4.49.41-9.52c.25-.91.76-2.79.5-3.14s-2.31-.37-3.28-.37H176.34q-25.51,0-51-.05a6.27,6.27,0,0,0-6,3.22c-3.19,5-6.5,10.09-9.71,15q-2.76,4.22-5.5,8.44a2.7,2.7,0,0,0-.28.81h0a4.26,4.26,0,0,0,1.09.22l37.71-.11,33.37-.1h.25c4.68,0,7.46.34,8.77,2.12s.81,4.62-.72,9.48c-1.17,3.71-2.26,7.41-3.43,11.32-.44,1.5-.89,3-1.35,4.57Zm142.46-39.69a3.52,3.52,0,0,0,.11.69L328,396.23q4.92,11.83,9.82,23.68c.86,2.11,2.36,2.52,4.66,2.52,7.94,0,15.78-.05,23.62-.05l16.76,0c.85,0,2.84,0,3.09-.34s-.36-2.35-.65-3.32q-.76-2.51-1.55-5c-1.17-3.76-2.38-7.66-3.46-11.52-.65-2.36-.56-4.05.29-5.31s2.43-2,4.91-2.27a22,22,0,0,1,2.48-.11h25l46.64,0c1,0,2-.07,3.21-.14l.48,0-.09-.16c-.41-.76-.74-1.35-1.09-1.9-1.5-2.32-3-4.64-4.54-7-3.15-4.82-6.41-9.8-9.52-14.78-1.53-2.47-3.46-3.47-6.65-3.47-21.87.07-43.66.07-64.73.07H352.57c-1.6,0-3.78,0-4.1.42s.24,2.43.64,3.91l.09.35a26.07,26.07,0,0,1,.77,3.36c.31,2.3,0,3.88-.85,5s-2.28,1.68-4.44,1.87c-2,.17-3.93.19-5.43.19H322.43C322.45,382.24,322.46,382.33,322.47,382.41ZM59.78,402.2c8.43,0,15.86,4.74,19.86,12.69.41.81.85,1.61,1.32,2.47l.05.1c3.71-4.77,3.47-6.54-.58-11a16.49,16.49,0,0,0-12.49-5.82H67.7c-3.54,0-7.14.3-10.62.55-2,.14-4.09.29-6.13.4h-.64c-.77,0-1.53-.06-2.27-.13l-1.26-.09-.82,0-.17-2.71.55-.27c4.23-2.09,8.83-2.25,13.28-2.41l2.65-.1c.8-.05,1.6-.07,2.39-.07,10.56,0,18,3.91,22.57,11.93,2.29-2.35,3.36-4.46,3.28-6.44-.09-2.34-1.8-4.75-5.38-7.6a14.41,14.41,0,0,0-9.06-3.24,15.48,15.48,0,0,0-4.13.58,11.15,11.15,0,0,1-3.08.48c-3.18,0-5.12-2-6.74-4.15a17.16,17.16,0,0,0-7.51-5.16,14.89,14.89,0,0,0-5.33-1,13.1,13.1,0,0,0-10,4.28l14.32,7.79-1.21,3.14-.8-.21c-.39-.1-.79-.19-1.19-.27a12.17,12.17,0,0,1-2.82-.85c-2.83-1.38-5.63-2.91-8.35-4.39l-1.13-.61a3.86,3.86,0,0,0-1.6-.57c-.19,0-.64,0-1.13,1.08-1.46,3.23,0,8.73,3.11,11.78,2.46,2.41,4.51,3.48,6.66,3.48a9.12,9.12,0,0,0,4-1.1A23.74,23.74,0,0,1,59.78,402.2Zm441.84-1.44-1.48,0c-7,.21-12.23,3.47-15.42,9.68-1.42,2.75-1.14,4.44,1.29,6.45l.13-.26c.43-.92.87-1.87,1.36-2.78,3.88-7.26,10.81-11.59,18.53-11.59a21.49,21.49,0,0,1,9.33,2.17,11.52,11.52,0,0,0,5,1.29,9.81,9.81,0,0,0,6.22-2.4,11.75,11.75,0,0,0,4.55-11.17c-.26-2.33-1.11-2.33-1.43-2.33a4,4,0,0,0-1.68.52l-2.57,1.34c-2.15,1.13-4.38,2.29-6.61,3.35a13.06,13.06,0,0,1-2.8.85c-.4.08-.79.17-1.18.27l-.77.21-1.31-3,14.48-8,.21-.36-.06,0a21.78,21.78,0,0,1-2-1.17,15.65,15.65,0,0,0-8.73-2.49c-5.29,0-10.11,2.26-12.58,5.9-2.08,3.06-4.19,4.37-7.06,4.37a14.25,14.25,0,0,1-3.48-.5,12.37,12.37,0,0,0-3.05-.37,16.74,16.74,0,0,0-13.83,8.14c-1.07,1.81-1.05,3.16.06,4.67.94,1.27,1.79,2.57,2.78,4.08l.66,1c4.12-7.21,9.92-11.26,17.69-12.36a41.9,41.9,0,0,1,5.64-.35c7,0,15.29,1.42,17.48,4.15l1.21,1.5h-3.77l-1.49,0c-.61,0-1.19,0-1.76,0-1.7-.09-3.39-.22-5.08-.36C507.34,401,504.44,400.76,501.62,400.76Zm-20.54-107.3-.27.08c-2.07,1.63-4.17,3.26-6.28,4.89-5.7,4.42-11.59,9-17.06,13.81a19.14,19.14,0,0,0-5.18,8.94c-2.14,7.65,0,14.44,6.35,20.18.22.2.45.39.69.59,1.11.91,2.36,1.94,2.26,3.41-.08,1.07-.89,2.05-2.48,3a3.89,3.89,0,0,0-.77,2.45c-.24,6.68-.37,12.71-.38,18.45,0,5.09,1.8,9.37,5.81,13.67v-.11c.11-1.15.19-2.06.2-3,0-2.19.08-4.42.15-6.59a98.45,98.45,0,0,0-.32-15.46c-1-8.08,3.77-11.71,8.43-15.23.74-.56,1.48-1.11,2.21-1.7a1.64,1.64,0,0,1,1.06-.33,5.61,5.61,0,0,1,1.07.14,5.07,5.07,0,0,0,.62.11l1,.08-.19,1a4.17,4.17,0,0,0-.05.52,2.59,2.59,0,0,1-.6,1.79l-.14.14a36.06,36.06,0,0,1-4.94,4.27c-2.42,1.64-3.41,3.68-3.32,6.84.14,4.79.13,9.65.12,14.35,0,2.49,0,5,0,7.46a18.87,18.87,0,0,0,.21,2.32v.1c.82-.68,1.62-1.36,2.4-2,2.72-2.3,5.3-4.48,7.93-6.53a5.3,5.3,0,0,0,2.15-4.91c-.19-8.59-.32-17.33-.45-25.79q-.09-6.21-.19-12.43a10.84,10.84,0,0,0-.14-1.32l-2.27,1.68c-2.56,1.89-5,3.68-7.34,5.52a5.39,5.39,0,0,1-3.23,1.37c-1.36,0-2.52-.8-3.53-2.43-1.22-1.95-2.47-3.88-3.71-5.81-1.36-2.1-2.71-4.2-4-6.32a7.73,7.73,0,0,1-.81-2.12c-.07-.28-.15-.57-.24-.85l-.24-.71,2.74-1.6.57.62,6.22,8.39a41.27,41.27,0,0,0,3.32-6.86c1.27-3.12,2.58-6.34,4.9-8.94l.47-.53,3.17,1.56-8.59,20,.13.09c.74-.53,1.48-1.08,2.21-1.62,2.08-1.53,4.22-3.11,6.43-4.54a8,8,0,0,0,4-7.44c-.08-3.81-.1-7.68-.12-11.43v-2.15c0-2.31,0-4.62,0-7Zm61.29,61.26c-1.7.48-3.43.93-5.1,1.37a95.19,95.19,0,0,0-12.75,4c-4.72,2-6.92,8.6-5.94,13.3a3,3,0,0,0,1.19,1.82c3.47,1.58,7.1,3,10.51,4.23a2.31,2.31,0,0,0,.74.11,2.66,2.66,0,0,0,1-.17c3.68-1.51,7.58-3.65,8.52-8.05.8-3.74,1.28-7.63,1.75-11.39.19-1.54.38-3.09.59-4.62ZM84.47,334c0,10.95,0,22.27.06,33.4a3.33,3.33,0,0,0,.86,2.19c3,2.59,6.08,5,9.61,7.9l2.34,1.9c0-1.58,0-3.1-.06-4.59-.07-4.49-.15-8.73.17-12.92.6-8-1.48-12.83-7-16.08a4.19,4.19,0,0,1-1.5-2.31c-.12-.31-.24-.63-.38-.91l-.84-1.63,1.81.3c.31.05.64.06,1,.08a4.27,4.27,0,0,1,2.65.71c1.86,1.59,3.33,2.75,4.52,3.69,4.73,3.75,4.87,4.05,4.79,10.72,0,1.06,0,2.3,0,3.76,0,2.85,0,11.92,0,11.92v6l.11,0c.54-1,1.17-2.07,1.77-3.08,1.63-2.69,3.16-5.22,3.16-7.69a51.37,51.37,0,0,1,.38-5.53c.58-5.65,1.18-11.49-3.77-17l-.76-.85,1-.56c.32-.18.65-.36,1-.53a14.71,14.71,0,0,0,2-1.2,18.31,18.31,0,0,0,7.13-15c-.07-6.6-3.25-13.19-8.1-16.79-4.06-3-8.08-6.22-12-9.31q-3.23-2.58-6.49-5.12c-.69-.54-1.44-1-2.4-1.64a2.9,2.9,0,0,0-.29-.19v3.53c0,7.79,0,15.07,0,22.34a2.21,2.21,0,0,0,.13.87c3.37,2.67,6.89,5.41,10.29,8.05l2,1.56.17-.14-.15-.73a11.39,11.39,0,0,0-.69-2.48c-1-2.11-2-4.24-3.06-6.3-1.13-2.29-2.3-4.65-3.39-7a6.93,6.93,0,0,1-.47-2.68c0-.36,0-.72-.07-1.06l-.09-.8,3-.77,8.65,16.52,7.16-9,2.62,1.68-.26.7c-.13.34-.24.7-.35,1.05a10.13,10.13,0,0,1-1,2.51c-2,3.16-4.29,6.51-6.91,10.25-1.53,2.18-2.75,3.73-4.49,3.73-1.26,0-2.55-.8-4.63-2.36s-4.25-3.21-6.38-4.83l-2.47-1.87-.33.14Zm419.41,44.8,1.2-.47a27.58,27.58,0,0,0,4.8-2.2,5.12,5.12,0,0,0,2.26-3.1,35.25,35.25,0,0,0,0-4.93,34.6,34.6,0,0,1,.11-5.75c1-7.52-2.88-12.2-8.4-17.12ZM61.13,345.46c-2.23,2.47-4.53,5-6.72,7.59a4,4,0,0,0-.27,1.75l0,2.28c-.07,5.3-.14,10.77,0,16.14a3.47,3.47,0,0,0,1.21,2.42,50.6,50.6,0,0,0,5.8,2.51l1.35.53V344Zm-37.62,9c.26,1.81.47,3.57.67,5.27a59.76,59.76,0,0,0,2.33,12.5c1.4,4.08,4.21,6.23,8.13,6.23h0a14.06,14.06,0,0,0,5.66-1.32,17.44,17.44,0,0,1,2.88-.91,17,17,0,0,0,2.56-.79,3.53,3.53,0,0,0,1.8-1.64c1.4-6.17-1.42-12.2-6.71-14.35a93.61,93.61,0,0,0-12.15-3.65C27,355.36,25.3,354.93,23.51,354.44Zm293.16,14.48c.79,1.9,1.48,3.55,2,5.23.7,2.14,1.76,2.94,3.92,2.94h.32c1.84-.06,3.81-.1,6.22-.1,1.53,0,3,0,4.57,0l4.44,0h.58c2.89,0,5.38,0,5.85-.63s-.24-3-1.22-6.21l-.09-.31c-.64-2.11-1.55-2.83-3.6-2.83h-.17q-3.66.06-7.31.06l-5.25,0h-11C316.18,367.73,316.43,368.34,316.67,368.92Zm-78.9-1.84c-2.56,0-5.09,0-7.63,0-6.24,0-7.41,1.08-8.37,7.46a2.77,2.77,0,0,0,.19,2.06,2.29,2.29,0,0,0,1.7.45h.12c1.8,0,3.6,0,5.4,0h9c7.48-.07,9.67-2,10.83-9.94Zm70.36-19c.34.88.69,1.72,1,2.55,1.05,2.59,2,5,2.82,7.53.93,3,2.46,4.1,5.65,4.1,28.28-.07,57-.09,84.78-.11l37.28,0a17,17,0,0,0,2.25-.21l.15,0-1.76-2.76c-1.85-2.91-3.6-5.66-5.22-8.46a5.13,5.13,0,0,0-5.09-2.79h-.12c-4.47,0-9.32.06-15.28.06h-10.3l-10.3,0H392.5c-.84,0-1.68.05-2.75.13l-.67,0c.17.53.34,1,.51,1.52a51.22,51.22,0,0,1,1.55,5.21,6.22,6.22,0,0,1-.23,2.78c-.08.35-.17.69-.22,1l-.29,1.91-1.31-1.43c-.23-.26-.49-.51-.74-.76a9.92,9.92,0,0,1-1.75-2.1,12.6,12.6,0,0,1-1.46-4.17c-.49-3.21-1.95-4.3-5.78-4.3h-.14c-9,.07-18.51.1-30.92.1H331.61l-16.69,0h-3.09c-.9,0-1.81.07-3,.16Zm-86.06,14H234c4,0,9.27,0,14.53-.09,1.54,0,3.19-.61,3.42-1.06,1.57-3.12,2.89-6.42,4.29-9.92.38-1,.77-1.94,1.18-2.94l-.84-.06c-1.21-.09-2.25-.16-3.25-.16l-25.26,0q-15.93,0-31.88-.05h-1.34c-6.64,0-6.64,0-9.21,7.37a15.64,15.64,0,0,1-1.53,3c-.24.4-.48.8-.71,1.21l-.4.74-3.06-1.33,2.69-10.61-.11,0a3.66,3.66,0,0,0-.86-.21l-21.08,0q-12.48,0-25,.05a3.22,3.22,0,0,0-2.12.74c-2.37,3.48-4.66,7.08-7.09,10.89l-1.65,2.59Zm84.69-.4c-.38-.93-.74-1.85-1.1-2.75-1.35-3.4-2.62-6.61-4.1-9.68a4.05,4.05,0,0,0-2.84-1.32c-4.76-.06-9.74-.09-14.79-.09-5.47,0-11.25,0-17.19.11a4,4,0,0,0-2.66,1c-1.52,3.2-2.85,6.52-4.26,10-.35.88-.71,1.78-1.09,2.7Zm210.18-55.63-6.45,6.5c-5,5-7.58,10.65-7.42,16.24s3,11,8.32,15.72a2.88,2.88,0,0,0,1.71.93h0a2.43,2.43,0,0,0,1.53-.88c1.31-1.29,2.64-2.57,4-3.84,2-1.91,4.07-3.88,6-5.9a9.67,9.67,0,0,0,2.49-9.78c-1.61-5.15-3.49-10.26-5.48-15.66-.7-1.92-1.42-3.87-2.15-5.89ZM47,303.19c-.71,2-1.42,3.92-2.11,5.82-2,5.5-3.9,10.7-5.6,15.95a8.86,8.86,0,0,0,2.41,9.31,104.86,104.86,0,0,0,9.57,8.8,3.91,3.91,0,0,0,2.13.53,2.61,2.61,0,0,0,1.35-.28A19.67,19.67,0,0,0,61,318.86c-2.36-4.62-6.07-8.11-10-11.82C49.66,305.8,48.31,304.53,47,303.19Zm90.58,39.21a10.75,10.75,0,0,0,1.33.14l27.7,0q34.24,0,68.49.1c2.33,0,3.41-.81,4.11-3.12.94-3,1.93-6.08,2.9-9,1.25-3.83,2.54-7.79,3.7-11.7s3.39-5.66,7.24-5.66c11.17,0,22.61.08,34,.08q13.43,0,26.84-.05c3.81,0,6,1.67,7,5.42s2.32,7.77,3.5,11.55c.72,2.3,1.44,4.6,2.14,6.9,1.68,5.58,1.68,5.58,7,5.58h.28q46.25,0,92.48,0c.85,0,1.69-.05,2.67-.11l.39,0a1.75,1.75,0,0,0-.18-.46l-3.65-5.65C420.17,328,414.6,319.43,409,311.08a5.74,5.74,0,0,0-4-1.87c-6.72-.09-14-.12-23-.12l-15.41,0h-4.79a12.84,12.84,0,0,0-2.19.27l-.31.05a12.28,12.28,0,0,0,.87,4.47c.8,2.45,1.62,5,0,7.84l-.77,1.38-.82-1.34a25,25,0,0,1-3.47-8.35c-.63-3.29-2.1-4.4-5.82-4.4-19.11.1-37.91.11-55.39.11H216.2c-14.52,0-33.69,0-53.17-.08l-.06-.93v.93c-3.26,0-5.09,1-6.74,3.79-3.07,5.12-6.37,10.22-9.55,15.15q-2.18,3.36-4.34,6.73c-1.16,1.82-2.3,3.66-3.55,5.67Zm116.77,0c2.93,0,5.32.07,7.52.2l.71,0c2.87,0,4.07-1.06,5.15-4.55.61-2,1.08-3.66,1.48-5.05,1.74-6.19,2.15-7.66,7.72-7.66l2.32,0c1.15,0,2.47.05,4,.05h1.48l2.33,0c.87,0,1.64,0,2.31,0,5.36,0,5.76,1.32,7.43,6.88.23.77.49,1.64.8,2.61.41,1.3.72,2.4,1,3.33,1.26,4.34,1.26,4.34,4.49,4.34h1.45l2.29,0H308c1.86,0,3.73,0,5.62,0l8.83,0c-.05-.3-.11-.59-.16-.86a25,25,0,0,0-.65-2.9c-.57-1.89-1.18-3.78-1.79-5.67-1.1-3.4-2.24-6.93-3.15-10.46-.82-3.16-2.24-4.22-5.63-4.22H311c-7.44.07-15.34.11-25.64.11l-13.63,0H255.34c-4,0-4,0-5.25,3.95-.25.8-.55,1.75-.92,2.85-1.33,3.94-2.59,7.94-3.93,12.18q-.78,2.44-1.6,5.05l5.08-.05C250.64,342.41,252.49,342.38,254.32,342.38Zm40.07-.17-.65-2.2c-.85-2.89-1.65-5.62-2.63-8.25a3,3,0,0,0-2-1.15c-1.76-.08-3.53-.11-5.26-.11-2.33,0-4.68.06-7,.2A2.89,2.89,0,0,0,275,332c-.94,2.53-1.72,5.18-2.54,8-.21.73-.43,1.47-.66,2.23Zm109.14-39.46c-1.12-2.47-3.19-2.68-6.08-2.68L171,300.1c-1.54,0-3.07,0-4.49.1a3.09,3.09,0,0,0-3.34,2.55Zm-92.06-39.39c3.68,0,5.77,1.56,6.77,5.05.9,3.15,1.88,6.34,2.83,9.43,1.22,4,2.49,8.13,3.61,12.23.86,3.15,2.2,4.22,5.29,4.22,15-.12,30.24-.13,44.93-.13l20.5,0a16.85,16.85,0,0,0,2.24-.23l.15,0-.24-.42c-.53-.91-1-1.67-1.43-2.4-1.87-2.93-3.74-5.84-5.62-8.76-4.2-6.53-8.54-13.29-12.71-20-1.5-2.42-3.25-3.36-6.26-3.36q-49.38,0-98.72.05-39.19,0-78.38,0a5.77,5.77,0,0,0-5.59,3c-4.2,6.78-8.57,13.62-12.79,20.24-2,3.2-4.08,6.39-6.11,9.6a19.73,19.73,0,0,0-1,1.89l-.12.24.1,0a9.73,9.73,0,0,0,1.56.19h35.27q15.85,0,31.7,0c2.51,0,3.63-.88,4.31-3.38,1-3.62,2.07-7.28,3.1-10.82,1.08-3.7,2.2-7.52,3.23-11.29s3.17-5.37,7-5.37c9.67,0,19.27.07,28.87.07q13.74,0,27.47-.06Zm-26,10.86a3.87,3.87,0,0,1,4.25,5.32c-.27,1.2-.53,2.41-.8,3.61-.57,2.64-1.17,5.37-1.86,8-.32,1.22-.32,2.05,0,2.45s1.1.6,2.34.6h.13c3.56,0,7.13-.05,10.69-.05h18.09a10,10,0,0,0,1.79-.24l.45-.09c-.54-1.78-1.06-3.55-1.58-5.29-1.87-6.28-3.64-12.21-5.68-18.1-.22-.63-2.23-1.66-3.69-1.71-2.87-.1-5.95-.15-10-.15l-5.12,0-5.12,0-7.19,0c-8.25,0-16.79,0-25.18-.12h-.11c-2.65,0-3.81.93-4.46,3.54-.9,3.67-2,7.36-3.07,10.92-.57,1.89-1.14,3.79-1.69,5.7-.36,1.28-.67,2.6-1,4-.08.34-.16.68-.24,1h34.39l-.13-.72c-.21-1.1-.39-2.06-.59-3-.34-1.63-.69-3.26-1.05-4.88q-.6-2.78-1.19-5.57a4.58,4.58,0,0,1,.6-3.94,4.47,4.47,0,0,1,3.66-1.38h3.34Zm85.88-21.42c-1.28-2.82-3.5-3.06-6.61-3.06v-.92l-.05.92-100.93,0-62.59,0A20.74,20.74,0,0,0,198,250a2.7,2.7,0,0,0-2.65,2.81Zm-87.83-9.15c6,0,12,0,17.92.08h0c2.53,0,3.69-.91,4.39-3.34.9-3.18,1.9-6.39,2.87-9.49.41-1.29.81-2.59,1.21-3.89,1.91-6.22,2.85-6.93,9.11-6.93h.5q14,.06,27.95,0c.83,0,1.69,0,2.77-.11l.47,0L320,171.7c-4,2.66-5.28,5.81-4.48,10.67.75,4.56,1.21,9.23,1.66,13.75.32,3.26.65,6.64,1.09,9.94.48,3.53-.65,6-3.74,8.11-6.2,4.29-12.44,8.73-18.48,13l-7.35,5.23c-2.23,1.58-3.65,2.39-5.2,2.39s-3-.84-5.36-2.49l-6.71-4.79c-5.9-4.23-12-8.6-18.09-12.77-3.48-2.38-4.8-5.2-4.26-9.14s.94-7.77,1.33-11.57c.35-3.3.71-6.71,1.14-10.06.64-5,0-9-4.83-12l-30.8,48.15h5.47l13.06,0c3.92,0,9.1,0,14.35-.09H249c4.1,0,6.41,1.77,7.5,5.75.73,2.68,1.61,5.37,2.46,8,.74,2.26,1.5,4.59,2.16,6.91s1.7,3,4,3C271.36,243.68,277.5,243.65,283.48,243.65Zm35.85-17.6c-2.05,0-3.05.8-3.67,3-.71,2.46-1.51,4.92-2.28,7.31-.47,1.48-.95,3-1.41,4.44s-.59,2.32-.42,2.56.66.36,2.55.36c3.07,0,6.14,0,9.22,0h42.33l-2.12-3.38c-2.91-4.63-5.66-9-8.49-13.22a3.58,3.58,0,0,0-2.44-.87c-5.83-.06-11.65-.08-17.48-.09-5.24,0-10.48,0-15.72-.08l-.07-.93Zm-64.1,17.12-1-3.47c-1.15-3.88-2.23-7.55-3.59-11.09a4.83,4.83,0,0,0-3.28-2.38c-5-.1-10.1-.15-15.69-.15-5.27,0-11,0-17.56.14a4.4,4.4,0,0,0-3,1.51c-2.71,4-5.24,8-7.93,12.28-.65,1.05-1.32,2.1-2,3.16Zm.76-35.89a5.42,5.42,0,0,0,1.3,2.41c4.3,3.22,8.75,6.41,13,9.5,3.58,2.56,7.28,5.22,10.88,7.88a3.63,3.63,0,0,0,2.15.87,4.57,4.57,0,0,0,2.6-1.13c5.2-3.81,10.53-7.61,15.69-11.29L308,211c.32-.24.67-.46,1-.68a8.66,8.66,0,0,0,2.05-1.63,3.54,3.54,0,0,0,.77-2.45,4.59,4.59,0,0,0-1.74-.7,14.46,14.46,0,0,0-2.14-.14q-.69,0-1.38,0l-1.26,0c-2.65,0-4-1.43-4.11-4.25-.13-4.41,1.83-7.43,6.17-9.5,1.39-.66,2.53-1.79,2.54-2.17a49.13,49.13,0,0,0-.57-7.18q-.12-.93-.24-1.89l-.73.38a18.19,18.19,0,0,1-3.26,1.48c-3.31,1-5,3-5.85,6.83-1.26,5.78-5.06,10.35-11.94,14.4a7.78,7.78,0,0,1-4,1.14,9.35,9.35,0,0,1-5.49-2c-6.11-4.39-9.63-9.55-10.77-15.77a4.7,4.7,0,0,0-1.89-2.84,43.66,43.66,0,0,0-5.47-2.58l-1.68-.72v.09c-.11.58-.18,1-.23,1.4s-.15,1.1-.24,1.66c-.62,4.14-1.12,7.42,4.24,9a5.23,5.23,0,0,1,3,3,9.68,9.68,0,0,1,.61,7,4,4,0,0,1-4.15,2.57h-.8l-.75,0a4.79,4.79,0,0,0-1,.09,17,17,0,0,0-2.59.9l-.33.13C255.82,206.84,255.9,207.06,256,207.28Zm.47-6,4-1.25-.18-.6a8,8,0,0,0-1.2-2.88,4.93,4.93,0,0,0-2.07-.42,35.35,35.35,0,0,0-.87,3.93l-.15.82Zm54.54-.33.26-.26c-.08-.3-.15-.59-.22-.89a25.64,25.64,0,0,0-1-3.63,5.65,5.65,0,0,0-2.47.78,5.94,5.94,0,0,0-1.08,2.48c0,.15-.09.3-.13.45Zm-37.16-14.39c.7,4.74,4.73,10.31,8.5,11.49a4.17,4.17,0,0,0,1.19.17,3.26,3.26,0,0,0,.72-.07c3.64-.79,8.39-7.21,8.92-11.71l-2.16.15c-2.4.18-4.89.36-7.36.37h-.39c-2.31,0-4.6-.13-7-.27Zm9.82-71.69c-.15.2-.25.34-.35.49l-8.24,12.84c-7.63,11.88-15.51,24.16-23.32,36.21-1.11,1.71-.68,2.64.79,4.19,7.42,7.78,19,12.43,31,12.44h0a42.27,42.27,0,0,0,23.12-6.54,45.82,45.82,0,0,0,5.89-4.83c.61-.56,1.22-1.12,1.84-1.66,1.52-1.35,1.6-2.6.31-4.59-4.6-7-9.18-14.25-13.6-21.23q-2.83-4.44-5.65-8.88c-2.74-4.3-5.49-8.59-8.37-13.08Z"/><path d="M453,367.11c0-6.8.24-13.62-.13-20.4-.14-2.44-1.46-5-2.76-7.17-6.7-11.26-5-23.73,5-32.24,8-6.82,16.44-13.22,24.79-19.66,1.13-.87,3.31-1.6,4.32-1.07s1.56,2.69,1.59,4.16c.53,23.83.9,47.67,1.39,71.51.15,7.12-2.21,12.73-8.45,16.68-3.1,2-5.6,4.85-8.63,6.95s-3.72,4.43-1.17,7.38c.84,1,1.57,2,2.63,3.44a53.32,53.32,0,0,1,3.39-4.2,22.06,22.06,0,0,1,18.61-6.84c4.38.41,4.69.2,4.67-4.24-.09-16.45-.09-32.89-.43-49.33-.2-9.77,2.68-18,10.1-24.55,3.28-2.9,6.17-6.24,9.34-9.26s4.57-2.64,6.07,1.11c2.9,7.24,5.79,14.5,8.34,21.88s1,13.76-4.76,19.11c-1.9,1.78-3.73,3.63-5.59,5.46-4.82,4.76-4.82,4.76-3.31,12.37,7.4-6.43,16.65-6.76,25.34-8.81,4.35-1,5.22-.33,4.86,4.18-.4,5.18-1,10.35-1.55,15.53a16.34,16.34,0,0,1-9.24,13.67c-2.52,1.29-3.15,2.4-2.07,5.38s.51,6.39.82,9.61c.15,1.5.17,3.49,1.1,4.37,9.52,9,11,19.68,6.91,31.62-.21.62-.37,1.27-.78,2.7,3.37,0,6.33-.18,9.26,0,4.55.33,7.11,2.52,7.63,6.12a6.69,6.69,0,0,1-5.11,7.8,30.91,30.91,0,0,1-7.32.69q-264.56,0-529.09,0a44.87,44.87,0,0,1-4.92-.2c-4.7-.49-7.28-3.17-7.22-7.33s2.82-6.9,7.39-7.16c2.67-.16,5.35,0,7.74,0-.74-5.33-1.72-10-2-14.7a22.88,22.88,0,0,1,7.13-17.79,9.5,9.5,0,0,0,2.95-8c-.19-3.81.94-7.68,1.6-12.28C20.57,380,19.37,370.19,19,360c-.1-2.46-.56-4.9-.67-7.36-.14-3.43.86-4.48,4.07-3.63,8.77,2.35,18.15,2.91,25.81,8.62,2.11-5.63.84-9.65-3.87-13.6C32,333.7,31.31,329.91,37,314.75c1.92-5.14,3.9-10.25,6-15.31,1.59-3.85,3.36-4.23,6.43-1.33,4,3.76,7.93,7.57,11.7,11.55,5.18,5.46,7.07,12.18,7,19.6C68,346.38,68,363.51,68,380.64c0,5.26,0,5.2,5,4.83,8.56-.64,15.61,2.11,20.58,9.4a22.11,22.11,0,0,0,1.55,1.81c5-4.49,4.9-8.57-.19-12.62-4.19-3.32-8.34-6.69-12.58-9.93A8,8,0,0,1,79,367c.41-25.21.7-50.42,1.17-75.62,0-1.7.83-4.27,2-4.8s3.58.59,4.94,1.64c7.92,6.11,15.78,12.3,23.49,18.67,9.77,8.07,12.47,20.56,6,31.4a23.74,23.74,0,0,0-3.3,14.69c.17,2.45.32,4.89.56,8.53,1.47-2.15,2.38-3.41,3.22-4.71Q188.23,246.23,259.33,135.6q8.22-12.78,16.41-25.6a33.13,33.13,0,0,1,2.34-3.37c3.66-4.33,7.91-4.39,11.34.14,2.72,3.6,5,7.53,7.45,11.33L446,350a12.85,12.85,0,0,1,2.27,9.59c-.36,2.38,2.24,5.2,3.52,7.83Zm-29.18-43.28.84.87c.27.54.54,1.08.8,1.62l.09.12-.09-.11-.83-1.6-.85-.86Zm10.69,16.44.86.87.78,1.63.08.11-.09-.1-.81-1.6-.86-.86-.09-.13Zm-5.76-9,.1.11-.1-.1Zm-23-35.39.84.87c.27.54.54,1.09.79,1.64l-.82-1.61-.85-.86Zm-125-185.75-.83.82-.79,1.61-.85.86-.15.1.11-.14.85-.86.78-1.61.88-.8.1-.1Zm146.35,218.7-.08-.11.09.1ZM306.2,140.51l.86.82c.26.55.53,1.09.78,1.64l-.82-1.6Zm3.3,5-.09-.11.09.09Zm41.93,65.78-.08-.11.09.1Zm33.71,52.65-.85-.87c-.26-.54-.52-1.09-.79-1.63l-.09-.11.11.1.81,1.6.85.87.79,1.6.85.86.79,1.63.08.1-.1-.09-.81-1.6-.85-.86Zm4.94,8.18.1.1-.12-.1c-.27-.55-.53-1.09-.8-1.63l-.09-.11.1.1ZM136,343.12c1.53.19,2.2.34,2.86.34q48.09.06,96.18.13c2.84,0,4.21-1.18,5-3.76,2.13-6.94,4.54-13.79,6.59-20.75,1-3.38,2.76-5,6.41-5q30.42.14,60.83,0c3.48,0,5.22,1.51,6.14,4.74,1.76,6.19,3.78,12.31,5.64,18.47s1.86,6.24,8.16,6.24l92.48-.05c1.32,0,2.64-.11,4.25-.19a9.13,9.13,0,0,0-.59-1.83c-6.71-10.34-13.35-20.73-20.26-30.93a6.58,6.58,0,0,0-4.74-2.29c-14.39-.17-28.77-.11-43.16-.08a23.34,23.34,0,0,0-3.35.45c-.74,4.57,3.4,8.25.94,12.66a24.48,24.48,0,0,1-3.35-8.05c-.76-4-2.83-5.17-6.83-5.15-29.73.17-59.46.11-89.19.12-32.34,0-64.67,0-97-.08-3.61,0-5.75,1.17-7.59,4.25-4.44,7.39-9.24,14.57-13.87,21.85C139.82,337,138.12,339.76,136,343.12Zm31.39-48.43a28,28,0,0,0,3.06.41c22.32,0,44.64,0,67,0,3,0,4.44-1.28,5.2-4.07,2-7.39,4.31-14.71,6.33-22.11.9-3.28,2.71-4.7,6.16-4.68q28.14.14,56.29,0c3.27,0,5,1.27,5.93,4.39,2.08,7.24,4.45,14.39,6.44,21.65.93,3.42,2.55,4.92,6.29,4.89,21.77-.17,43.55-.11,65.32-.15a37.71,37.71,0,0,0,3.88-.44c-1-1.73-1.66-2.92-2.38-4.05-6.12-9.58-12.33-19.09-18.32-28.75-1.74-2.8-3.87-3.8-7.07-3.8q-88.54.11-177.08,0a6.63,6.63,0,0,0-6.37,3.46c-6.21,10-12.6,19.89-18.9,29.84C168.6,292.23,168.17,293.21,167.41,294.69Zm154,86.54a13.49,13.49,0,0,0,.35,2.22c5.08,12.27,10.21,24.53,15.26,36.81,1.09,2.64,3.09,3.1,5.62,3.09,13.43-.07,26.85,0,40.28-.07,4.48,0,4.69-.37,3.32-4.85-1.68-5.5-3.45-11-5-16.51-1.15-4.13.19-5.95,4.41-6.41a37.54,37.54,0,0,1,4.11-.1l69.88,0c1.56,0,3.12-.15,5.21-.25-.88-1.56-1.35-2.51-1.92-3.4-4.69-7.24-9.48-14.42-14-21.74-1.82-2.91-4.14-3.92-7.49-3.9-29.6.09-59.19.05-88.79.07-5.63,0-5.79.22-4.35,5.49a28,28,0,0,1,.83,3.6c.52,3.82-.62,5.48-4.45,5.81-3.4.29-6.84.15-10.26.16C330.14,381.24,325.93,381.23,321.38,381.23Zm-143,41.42a20.22,20.22,0,0,0,2.87.61c14.1,0,28.21,0,42.32.11,2.69,0,3.83-1.5,4.75-3.7,4.82-11.48,9.72-22.94,14.55-34.42a29.57,29.57,0,0,0,1-3.35,7,7,0,0,0-1.57-.56q-7.8-.06-15.61-.06c-9.8,0-10.66-1.11-8.12-10.46,1.17-4.31.92-4.67-3.68-4.67-29.85,0-59.71,0-89.57-.06a7.16,7.16,0,0,0-6.75,3.66c-5,7.86-10.15,15.61-15.21,23.42a8.9,8.9,0,0,0-.63,2,11.39,11.39,0,0,0,2.22.47q35.53-.08,71.08-.21c9.38,0,10.28,1.3,7.42,10.4C181.73,411.25,180.15,416.73,178.37,422.65Zm105.29,18.22v0H17.34c-1,0-2.09-.3-2.84.1a21.59,21.59,0,0,0-3.36,2.73,15.64,15.64,0,0,0,3.08,2.61c.9.44,2.15.19,3.25.2H36l511.26,0a24.87,24.87,0,0,0,6.12-.36,3.92,3.92,0,0,0,2.18-2.83c.08-.71-1.33-2-2.3-2.31a15.85,15.85,0,0,0-4.48-.2ZM246.37,170.73l-32.18,50.32h5.39c9.73,0,19.46.07,29.18-.08,3.76-.05,5.81,1.44,6.81,5.07,1.37,5,3.19,9.91,4.63,14.91.76,2.67,2.21,3.73,5,3.7q18.07-.15,36.17,0c3,0,4.5-1.26,5.28-4,1.28-4.48,2.71-8.91,4.08-13.36,1.84-5.95,2.34-6.3,8.73-6.28q14,.06,27.95.05c1.32,0,2.64-.11,4.87-.22l-32.07-50.41c-5.05,3.06-6.55,6.77-5.67,12.09,1.29,7.83,1.7,15.8,2.75,23.67.44,3.33-.71,5.39-3.36,7.23-8.67,6-17.23,12.17-25.84,18.27-4.2,3-5.18,3-9.48-.1-8.26-5.88-16.46-11.84-24.82-17.57-3.08-2.1-4.38-4.5-3.87-8.26,1-7.19,1.55-14.43,2.47-21.63C253.11,178.7,252.36,174,246.37,170.73ZM226.12,436.36c4.4,0,8-.28,11.46.08,4.1.42,6.17-1.2,7.71-4.95,6.33-15.46,13-30.8,19.4-46.21,3.37-8,9.35-12.51,18-12.51s14.42,4.57,17.78,12.33c5,11.56,9.93,23.15,14.88,34.74,1.72,4,3.06,8.26,5.21,12.05,1.16,2.05,3.5,4.46,5.58,4.75,4,.55,8.26-.28,12.5-.54a8,8,0,0,0-.22-1.68Q324.74,401.85,311,369.31c-1.08-2.58-3-3.2-5.56-3.19-15.07.06-30.14.1-45.21,0-3.37,0-5.17,1.16-6.49,4.31-8.56,20.46-17.32,40.84-26,61.26C227.25,432.88,226.88,434.16,226.12,436.36ZM402,436.14c-.56-2-.92-3.39-1.37-4.78-2.23-6.91-4.56-13.79-6.71-20.72-1.33-4.28-.4-5.55,4.1-5.6,9.18-.1,18.36,0,27.54-.11,3.1,0,4.85,1.3,5.7,4.2s1.88,5.72,2.79,8.59c1.64,5.16,1.87,5.36,7.15,5.36,11.79,0,23.57,0,35.36,0,1.34,0,2.69.22,4,.33,0,.42,0,.83-.05,1.25-1.53.12-3.06.3-4.59.35-11.76.39-23.53.74-35.29,1.19-.94,0-2.37.49-2.7,1.17-1.22,2.5,3.13,9.05,6,9.06q22.39,0,44.81-.08a13.16,13.16,0,0,0,2-.38c-.77-1.45-1.31-2.66-2-3.78-6.3-9.94-12.74-19.81-18.91-29.85-1.74-2.84-3.83-3.76-7-3.75-24.53.1-49.06.05-73.58.07-1.47,0-2.94.21-4.91.36.31,1.83.43,3.29.82,4.67,1.45,5,3,9.95,4.48,14.95,1.86,6.45.78,7.89-6,7.9-12.33,0-24.66,0-37,0-1.82,0-3.64.34-5.45.51.8,8.2,2,9.4,9.16,9.39q23.43,0,46.86-.07C398.62,436.38,400.06,436.24,402,436.14Zm-84.87-.06a23.6,23.6,0,0,0-.76-2.85Q306.33,409.62,296.19,386c-2.54-5.87-7-8.84-13.54-8.78-6.67.06-11.14,3.22-13.7,9.25q-9.66,22.68-19.27,45.37c-.52,1.21-.88,2.49-1.48,4.2ZM87.49,424.66v-1.61h4c11.37,0,22.75-.07,34.12.08,3.55.05,5.68-1,6.46-4.67.68-3.21,1.94-6.28,2.83-9.45.79-2.8,2.57-4,5.43-4,9,0,18.09-.08,27.13,0,4.67,0,5.58,1.32,4.18,5.9-2.1,7-4.36,13.85-6.51,20.78-.42,1.34-.62,2.74-1,4.36a26.61,26.61,0,0,0,3,.38c16,0,32.06.1,48.09,0,6,0,8.66-2.94,9-9.62-1.59-.09-3.19-.26-4.79-.26q-18.09,0-36.18,0c-8.29,0-9.06-1-6.76-8.78,1.36-4.6,2.77-9.18,4.17-13.77,1.54-5.05,1.37-5.36-3.93-5.37-24.26,0-48.51.07-72.77,0a7.05,7.05,0,0,0-6.72,3.67c-6.22,10-12.64,19.87-19,29.82-.74,1.17-1.3,2.45-2.25,4.28h4.52q19.13,0,38.24,0c7.43,0,9.43-2.06,9.68-10ZM283.71,113.2c-.7,1-.95,1.28-1.17,1.62q-15.77,24.52-31.56,49c-1.46,2.26-.71,3.64.9,5.33,13.46,14.16,38.41,17,55.29,6.05a68.82,68.82,0,0,0,7.84-6.58c1.94-1.73,1.94-3.52.47-5.78-6.51-10-12.84-20.07-19.25-30.11C292.2,126.45,288.15,120.13,283.71,113.2Zm104.12,234c1,3.12,1.89,5.41,2.41,7.78.23,1.07-.29,2.31-.46,3.47a16.69,16.69,0,0,1-2.38-2.69,11.82,11.82,0,0,1-1.34-3.86c-.62-4-2.89-5.11-6.85-5.08-22.46.17-44.92.06-67.38.07-1.44,0-2.88.18-5,.32,1.6,4.14,3.16,7.59,4.28,11.18,1.05,3.4,3,4.77,6.57,4.76,40.67-.12,81.35-.1,122-.15,1.12,0,2.25-.22,4-.4-2.85-4.56-5.42-8.42-7.75-12.43-1.4-2.42-3.21-3.28-6-3.26-12.46.13-24.92,0-37.38,0C391.17,347,389.84,347.1,387.83,347.21Zm-204.12.31a10.86,10.86,0,0,0-2.08-.52c-15.35,0-30.69,0-46,0a3.93,3.93,0,0,0-2.87,1.14c-3.19,4.68-6.18,9.5-9.67,14.93h5.44l92.08-.08c9.31,0,18.63.06,28-.08,1.46,0,3.72-.57,4.22-1.57,2.19-4.35,3.86-8.95,6-14.12-2.28-.13-3.86-.3-5.43-.31q-28.58,0-57.14-.08c-8.65,0-8.62-.06-11.44,8.05a28.81,28.81,0,0,1-2.16,4l-1.57-.68C181.87,354.79,182.74,351.35,183.71,347.52Zm273-30.09,1.46-.85,7,9.42c3.95-5.27,4.71-12.07,8.89-16.77l1.76.87L467.29,330l1.29.88c3-2.18,6-4.49,9.13-6.51a8.89,8.89,0,0,0,4.43-8.24c-.09-4.52-.1-9-.13-13.56,0-3.36,0-6.72,0-10.3-1,.28-1.47.28-1.75.51-7.85,6.19-15.91,12.15-23.4,18.75a20.16,20.16,0,0,0-5.46,9.38c-2.3,8.25.24,15.35,6.62,21.12,1.68,1.52,4.68,3.08.62,5.52-.79.47-1.18,2.1-1.22,3.21-.23,6.16-.37,12.32-.38,18.48s2.47,10.93,7.48,15.74c.18-2.27.37-3.7.38-5.13,0-7.4.76-14.9-.18-22.18-1.13-8.78,5.1-11.91,10.3-16.09.41-.32,1.4.06,2.11.12-.11.62,0,1.46-.38,1.82a37.39,37.39,0,0,1-4.95,4.31c-2.79,1.88-3.83,4.27-3.73,7.63.21,7.26.08,14.53.13,21.79,0,1.13.22,2.27.42,4.22,4.28-3.57,7.86-6.71,11.62-9.63a6.21,6.21,0,0,0,2.5-5.66c-.28-12.74-.43-25.48-.64-38.22,0-.76-.19-1.52-.37-3-4,2.94-7.46,5.47-10.87,8.13-2.19,1.71-3.88,1.64-5.41-.82-2.54-4.06-5.21-8.05-7.74-12.12A13.81,13.81,0,0,1,456.75,317.43ZM321.69,294.61c-2.59-8.55-4.85-16.57-7.58-24.43-.41-1.19-2.94-2.28-4.52-2.33-7.12-.25-14.25-.1-21.38-.12-10.41,0-20.82,0-31.23-.13-3.08,0-4.71,1.13-5.47,4.24-1.38,5.58-3.18,11.05-4.75,16.59-.55,1.92-1,3.88-1.53,6.21H281.9c-.37-1.94-.62-3.4-.93-4.85-.73-3.48-1.51-7-2.24-10.44-.58-2.76.5-4.22,3.4-4.21h3.28c2.87,0,4,1.38,3.37,4.2-.88,3.87-1.65,7.77-2.65,11.61-.8,3.08.14,4.24,3.36,4.2,9.59-.11,19.18,0,28.77,0A28.24,28.24,0,0,0,321.69,294.61ZM98.28,381.28c0-7.18-.37-13.31.09-19.38.54-7.13-.82-13-7.41-16.94-.79-.48-1-1.88-1.53-2.85,1.07.18,2.47,0,3.18.58,10.25,8.74,8.93,4.89,9,17.47q0,6,0,11.92v6.74l1.52.41c1.9-4,5.36-7.91,5.36-11.86,0-7.37,3.25-15.49-3.62-23.14a23.81,23.81,0,0,0,3.09-1.8c11.89-9.27,8.17-26.46-1-33.25-6.26-4.66-12.29-9.63-18.45-14.42-1.11-.86-2.33-1.58-4.18-2.81,0,9.82,0,18.7,0,27.58a2.22,2.22,0,0,0,.42,1.54c4.28,3.41,8.62,6.76,12.94,10.12l1.2-1a21.74,21.74,0,0,0-1-4c-2.08-4.47-4.38-8.84-6.44-13.31a11.79,11.79,0,0,1-.46-3.47l1.48-.39,9,17.14c2.83-3.58,5.18-6.54,7.53-9.49l1.29.83a18.21,18.21,0,0,1-1.32,3.39c-2.22,3.45-4.53,6.85-6.89,10.21-2.93,4.18-3.67,4.27-7.81,1.16-3.1-2.33-6.18-4.68-9.26-7l-1.4.58c0,13.82,0,27.64,0,41.46a4.25,4.25,0,0,0,1.19,2.88C88.91,373.77,93.17,377.13,98.28,381.28Zm144.1-37.88c7.15,0,13.29-.27,19.4.1,4.13.25,5.64-1.42,6.8-5.18,4.42-14.28,1.31-11.83,16.14-12,10.33-.11,8.92-1,12,8.77s1,8.19,11.33,8.3c5,.06,10,0,15.59,0-.44-2.11-.63-3.56-1.05-4.94-1.63-5.37-3.53-10.67-4.94-16.1-1-3.72-2.87-4.95-6.69-4.92-17.53.18-35.06.09-52.59.09-9,0-7.35-.61-10.05,7.42C246.34,330.75,244.55,336.6,242.38,343.4Zm14.94-163.9c-.24,1.36-.38,2-.46,2.68-.59,4.72-2.27,9.6,4.65,11.71,2.73.84,4,6.2,3,8.73-1.2,3-4,1.59-6.08,2.07a33.67,33.67,0,0,0-3.94,1.41c.72,1.47,1.06,3.46,2.22,4.33,7.89,5.91,16,11.52,23.94,17.38,2.22,1.64,3.82,1.23,5.84-.25,7.29-5.35,14.68-10.55,22-15.81a15.33,15.33,0,0,0,3.25-2.48,4.46,4.46,0,0,0,1-3.21c-.13-.64-1.58-1.29-2.52-1.44a32.22,32.22,0,0,0-4.92-.09c-2.26,0-3.11-1.19-3.17-3.35-.13-4.14,1.67-6.76,5.64-8.64,1.26-.6,3-1.95,3.06-3,.08-3.32-.55-6.66-1-10.51a40.7,40.7,0,0,1-5,2.4c-3.81,1.15-5.61,3.54-6.48,7.51-1.4,6.4-6.06,10.6-11.51,13.81-2.89,1.7-5.84,1.12-8.49-.79-5.29-3.8-9.18-8.53-10.4-15.19a5.6,5.6,0,0,0-2.33-3.46A82.8,82.8,0,0,0,257.32,179.5ZM48.71,436.44h0c5.2,0,10.4-.07,15.6,0,6.06.09,11.87-5.09,12.35-11.14,1-12.16-13-22.1-23.65-16.27-7.06,3.86-12.56,2.5-17.85-2.33-2.46-2.24-3.86-1.54-5.68.55-5.94,6.83-7.18,18.21-2.9,26.23a5.22,5.22,0,0,0,5.29,3C37.48,436.37,43.1,436.44,48.71,436.44Zm468.11,0v0c5.74,0,11.48-.11,17.22,0a5.46,5.46,0,0,0,5.72-3.66c3.5-8,2.79-15.74-1.67-23.12-3.1-5.11-3.83-5.17-8.52-1.86a25.73,25.73,0,0,1-2.79,1.71c-4.28,2.26-8.09,3.1-12.91.09-8.65-5.39-20.08,0-23.21,10.11-1.45,4.69.43,8.26,2.83,12.19,2.27,3.73,4.88,4.87,9,4.59C507.24,436.18,512,436.43,516.82,436.43ZM162.08,303.67H404.82c-1.27-4.73-4.78-4.52-8.22-4.52l-225.59,0c-1.51,0-3,0-4.52.1C164,299.37,162.43,300.59,162.08,303.67Zm-109.66,90-.63,1.62A21.35,21.35,0,0,1,48,394.27c-3.19-1.56-6.31-3.28-9.44-5-1.65-.9-3-1.2-4,.94-1.61,3.56-.13,9.47,3.3,12.82,4.08,4,7.41,4.71,11.76,2.55,11.24-5.59,23.62-1.48,29.26,9.7.61,1.22,1.29,2.41,2.05,3.82,4.9-6,4.92-8.14.24-13.26a17.44,17.44,0,0,0-13.43-6.12c-5.6.08-11.19.65-16.78.94a39.75,39.75,0,0,1-4.07-.2l-.08-1.27c4.87-2.41,10.3-2.15,15.56-2.42,10.51-.55,19.46,2.4,24.7,12.45,6.85-6.41,5.24-11.06-1.3-16.28a15.39,15.39,0,0,0-14-2.82c-4.22,1.19-6.34,0-8.83-3.34a18.26,18.26,0,0,0-7.92-5.46c-6.48-2.47-13.84-.36-17.06,4.46ZM528,386.09l.81-1.41c-.94-.53-1.93-1-2.82-1.6-6.77-4.6-18-3.12-22.6,3.65-2.63,3.89-5.15,4.6-9.54,3.49-6.77-1.7-14.35,2.22-17.9,8.2-1.19,2-1.3,3.77.11,5.69s2.57,3.8,4.26,6.32c4-7.68,9.66-12.09,17.74-13.23,7.62-1.08,19.82.42,22.27,3.46-2,0-3.53.06-5,0-5.05-.27-10.11-.94-15.14-.79A17.86,17.86,0,0,0,483.9,410c-1.81,3.5-1.11,5.73,2.46,8.31.65-1.37,1.25-2.73,1.95-4,5.33-10,16.48-13.89,26.65-9,4.56,2.19,8.52,1.75,12.25-1.22a12.65,12.65,0,0,0,4.89-12c-.33-2.86-1.69-3.95-4.46-2.53-3,1.57-6,3.21-9.15,4.67a22,22,0,0,1-3.82,1.07L514,393.8ZM367.33,244.61c-4.19-6.63-7.75-12.4-11.52-18a4.35,4.35,0,0,0-3.2-1.27c-11.07-.12-22.14-.07-33.21-.17-2.66,0-3.93,1.22-4.63,3.64-1.14,3.93-2.47,7.81-3.68,11.73-1.08,3.5-.69,4.1,3,4.12,9.7,0,19.4,0,29.1,0Zm-167.87-.51h57c-1.75-5.69-3.1-10.86-5-15.82a5.62,5.62,0,0,0-4.12-3c-11.09-.23-22.19-.17-33.28,0a5.27,5.27,0,0,0-3.78,1.91C206.61,232.61,203.2,238.19,199.46,244.1Zm173.17,9.62c-1.39-4.69-4.57-4.9-8-4.9l-163.52.07a21,21,0,0,0-3.27.19c-2.59.4-3.57,2-3.43,4.64ZM257.36,362.61h50.76c-2-5-3.67-9.48-5.73-13.75-.48-1-2.39-1.82-3.66-1.84q-16-.19-32,0c-1.2,0-3.06.63-3.48,1.52C261.16,353,259.45,357.52,257.36,362.61Zm262.48-60.8c-3.88,3.92-6.94,7-10,10.09-10.6,10.64-10.2,23.38.94,33.31,1.71,1.53,2.94,1.57,4.51,0,3.31-3.28,6.77-6.4,10-9.76a10.53,10.53,0,0,0,2.7-10.69C525.66,317.37,522.83,310.13,519.84,301.81Zm-473.23-.33c-3,8.29-5.79,15.68-8.23,23.19A9.81,9.81,0,0,0,41,334.92a106.52,106.52,0,0,0,9.66,8.87,4.91,4.91,0,0,0,4.58.29c8-5.51,10.91-17.08,6.53-25.64C58.34,311.71,52.24,307.4,46.61,301.48Zm-24.22,51.7c1.13,7.22,1.27,13.59,3.24,19.33C28,379.3,34,380.9,40.68,378c1.72-.76,3.71-.94,5.43-1.7A4.24,4.24,0,0,0,48.44,374c1.44-6.31-1.36-13-7.26-15.4C35.59,356.31,29.54,355.18,22.39,353.18ZM543.82,355l-1.13-1.37c-6.2,1.81-12.62,3.08-18.53,5.57-5,2.12-7.6,9-6.48,14.34a3.84,3.84,0,0,0,1.71,2.47c3.45,1.57,7,2.93,10.57,4.25a3.6,3.6,0,0,0,2.38-.06c4.16-1.71,8.07-4,9.08-8.72C542.58,366.09,543.05,360.53,543.82,355ZM419.35,436.29c-2.44-8.45-4.47-16.1-7-23.6a6.11,6.11,0,0,0-4.11-3.31c-3.1-.51-6.35-.15-10.36-.15,3,8.93,5.51,16.72,8.29,24.4a4.79,4.79,0,0,0,3.29,2.54A87.81,87.81,0,0,0,419.35,436.29ZM151.81,409.47c-3.39,0-6.09.18-8.76-.05-2.83-.24-4.2.92-5,3.57-1.89,6.41-4,12.75-6,19.13-.37,1.22-.56,2.5-.84,3.77,11.66,1.95,12,1.76,15.2-8.58q.73-2.34,1.44-4.69Zm262.58-.13c2.87,8.94,5.35,16.86,8,24.7a3.86,3.86,0,0,0,2.73,2.07c3.33.25,6.7.09,10.82.09-3.05-8.69-5.79-16.79-8.8-24.8-.36-1-2.09-1.84-3.26-2C421.1,409.15,418.24,409.34,414.39,409.34Zm-99.85-43.17c1.39,3.47,2.48,5.82,3.28,8.27.85,2.6,2.36,3.66,5.15,3.56,5.06-.18,10.13-.05,15.2,0,8.63,0,8.53,0,6-8.34-.77-2.57-2.07-3.54-4.67-3.49-5.89.12-11.77,0-17.66,0ZM147.22,436.4c3.75,0,6.49.24,9.15-.11a4.63,4.63,0,0,0,3.28-2.34c2.46-7.1,4.64-14.3,6.89-21.47.59-1.88-.12-2.73-2.09-3-8-1.2-9.32-.4-11.56,7.3-.38,1.31-.73,2.63-1.11,3.95C150.35,425.65,148.91,430.6,147.22,436.4ZM63.36,343.08l-.71-.7c-3,3.35-6,6.66-8.94,10.07a4,4,0,0,0-.49,2.34c-.08,6.15-.19,12.3-.07,18.45a4.31,4.31,0,0,0,1.69,3.21A86.71,86.71,0,0,0,63.36,380ZM250,366.16c-6.87,0-13.39,0-19.9,0-6.77,0-8.26,1.47-9.28,8.25-.38,2.49.33,3.61,2.93,3.57,4.79-.07,9.58,0,14.36,0C246.3,377.88,248.85,375.52,250,366.16Zm252.91,14c2.77-1.17,5.28-1.92,7.42-3.26a6.06,6.06,0,0,0,2.69-3.8c.36-3.52-.33-7.15.14-10.64,1.19-8.75-4-13.88-10.25-19.29Zm-232.43-37h25.12c-1.29-4.24-2.3-8-3.67-11.7a3.76,3.76,0,0,0-2.83-1.76c-4.1-.17-8.22-.14-12.31.09a3.72,3.72,0,0,0-2.73,1.91C272.78,335.22,271.81,338.89,270.52,343.14Zm2.3-157.6c.24,5.43,4.87,12,9.24,13.35a4.84,4.84,0,0,0,2.39.12c4.27-.93,9.84-8.64,9.69-13.59-3.5.2-7,.56-10.49.58S276.62,185.72,272.82,185.54ZM255,201.19l1.27,1.08,5.37-1.67c-.57-1.59-.82-3.44-1.82-4.68-.6-.74-3.42-.87-3.49-.66A44.72,44.72,0,0,0,255,201.19Zm56.32.74,1-1a33.35,33.35,0,0,0-1.65-5.67c-.11-.24-2.93.17-3.76,1-1,1-1.2,2.8-1.74,4.25Zm-26.52,77.63a4.09,4.09,0,0,0-1.37-.53c-.21,0-.64.71-.58.79a2.91,2.91,0,0,0,1.09.81C284,280.67,284.34,280.12,284.78,279.56Z"/><path d="M91.67,192.15c-.13-.34-.29-.68-.46-1a5.92,5.92,0,0,1-.83-2.79c1.5-37,29.69-68.65,65.58-73.65,2.72-.38,5.48-.61,7.7-.79l2.44-.22h.11c23.2.49,41.76,8.53,56.76,24.6l.5.5a5.35,5.35,0,0,1,1.51,2,6.92,6.92,0,0,1,.24,2.55c0,.31,0,.63,0,.94l0,1.3-1.24-.4c-.27-.08-.56-.14-.85-.2a4.54,4.54,0,0,1-2.26-.93c-1.24-1.13-2.42-2.35-3.56-3.53a63,63,0,0,0-4.94-4.73,70.18,70.18,0,0,0-45.11-16.5c-31.94,0-59.56,21.14-68.73,52.61a71.09,71.09,0,0,0-1.93,10.26c-.31,2.17-.62,4.41-1,6.6A6.22,6.22,0,0,1,94,191.42a9,9,0,0,0-.73.93l-1,1.45Z"/><path d="M166.19,114.6c23,.48,41.3,8.45,56.1,24.31a7.44,7.44,0,0,1,1.82,2.19,11.37,11.37,0,0,1,.18,3.22c-.94-.3-2.11-.33-2.77-.94-2.91-2.68-5.48-5.77-8.53-8.29-40.44-33.42-100.45-14.42-115.32,36.57-1.59,5.46-1.89,11.3-3,16.93-.24,1.17-1.41,2.16-2.15,3.23-.43-1.15-1.28-2.31-1.23-3.44,1.5-37,29.75-67.9,64.79-72.78C159.88,115.08,163.71,114.84,166.19,114.6Z"/><path d="M470.79,174.17q-12.32,0-24.63,0a10.3,10.3,0,0,1-2.73-.5c-.37-.11-.74-.21-1.11-.29l-.72-.17V170l.75-.14q.61-.13,1.23-.3a12.22,12.22,0,0,1,3-.49q13.05,0,26.1,0,14.25,0,28.52.06A6.56,6.56,0,0,1,504,170a10.55,10.55,0,0,0,1,.47l1.84.72-1.73.95a11.76,11.76,0,0,0-1,.67,5.29,5.29,0,0,1-2.89,1.28C491.89,174.14,482,174.17,470.79,174.17Z"/><path d="M442.52,170.79a22.12,22.12,0,0,1,4-.77q27.3-.08,54.6,0c1.17,0,2.32.84,3.49,1.29-1.16.63-2.31,1.82-3.47,1.83-18.34.12-36.68.1-55,.05a17.65,17.65,0,0,1-3.64-.77Z"/><path d="M460.33,160.23c-11.61,0-26-.5-28.47-1.9l-1.73-1,1.87-.68c.61-.22,1.15-.46,1.63-.68a7.39,7.39,0,0,1,2.87-.85q13.28-.06,26.54-.06,12.42,0,24.86,0a8,8,0,0,1,2.73.68,10.88,10.88,0,0,0,1,.38l1.69.52L492,157.8C489.06,160.11,465.1,160.23,460.33,160.23Z"/><path d="M491.4,157.07c-3.66,2.9-54.84,2.89-59.08.46,1.82-.66,3-1.46,4.19-1.46q25.69-.12,51.39,0A13.51,13.51,0,0,1,491.4,157.07Z"/><path d="M122.13,227.89q-20.13,0-40.27,0a11,11,0,0,1-2.62-.45c-.53-.13-1.15-.28-1.9-.43l-2.23-.46L77,225.27c3.24-2.06,37.17-2.11,41-2.11,5.56,0,33.4.08,36.45,1.77l2,1.09-2.16.61c-.64.18-1.21.38-1.72.55a9.23,9.23,0,0,1-2.94.68Z"/><path d="M77.53,226.05c4-2.52,72.35-2.63,76.52-.31-1.91.54-3.16,1.19-4.41,1.2q-33.88.08-67.78,0A28,28,0,0,1,77.53,226.05Z"/><path d="M102.15,242.12q-17.64,0-35.28-.05a13.32,13.32,0,0,1-3-.45c-.41-.09-.83-.19-1.24-.26l-.72-.13-.16-2.89.76-.17c.43-.09.86-.22,1.29-.34a11.63,11.63,0,0,1,3.12-.58q13.72,0,27.44,0c12.82,0,24.69,0,36.27.08a5.24,5.24,0,0,1,2.66,1.07,9,9,0,0,0,.93.55l1.73.87-1.76.8a9.7,9.7,0,0,0-.95.51,5.71,5.71,0,0,1-2.68,1Q116.37,242.13,102.15,242.12Z"/><path d="M62.75,239.07a21,21,0,0,1,4.2-.9q31.86-.07,63.71,0c1.06,0,2.12,1,3.18,1.53-1.09.49-2.17,1.41-3.26,1.42q-31.85.1-63.7,0a23.8,23.8,0,0,1-4.06-.7Z"/><path d="M382.53,205.52a3.61,3.61,0,0,1-1.37-.23,5,5,0,0,1-1.5-1.1c-.15-.14-.3-.29-.45-.42l-.8-.66.76-.72c.14-.13.28-.29.42-.44a3.83,3.83,0,0,1,1.52-1.21,4.37,4.37,0,0,1,1.45-.22l.7,0,.6,0h7.31q18.27,0,36.56.09a15.39,15.39,0,0,1,3,.41q.63.13,1.26.24l.77.13,0,3.18-.76.15c-.36.07-.73.16-1.1.26a12,12,0,0,1-2.7.44q-12.64,0-25.29,0h-19.4l-.46,0Z"/><path d="M431.86,203.86a19.32,19.32,0,0,1-3.63.68q-22.35.08-44.69,0a5.39,5.39,0,0,1-2-.13,7.85,7.85,0,0,1-1.72-1.37c.53-.51,1-1.23,1.62-1.46a7.05,7.05,0,0,1,2.44-.12c14.62,0,29.24,0,43.86.09a27.83,27.83,0,0,1,4.11.64Z"/><path d="M427.3,271.89c-4.94,0-16.74-.09-19.54-.92l-.45-.14-.85-2.38.88-.3a10.09,10.09,0,0,0,1-.4,6.53,6.53,0,0,1,2.61-.73q12.27-.06,24.55,0t24.33,0a8.56,8.56,0,0,1,2.5.51c.41.13.85.27,1.34.39l1.74.44L464,269.51C461.29,271.83,427.64,271.89,427.3,271.89Z"/><path d="M407.64,269c1.1-.37,2.2-1.08,3.29-1.08q24.45-.1,48.88,0a17.3,17.3,0,0,1,3.62.88c-2.62,2.22-50,2.88-55.41,1.27C407.9,269.73,407.77,269.38,407.64,269Z"/><path d="M435.94,191.35q-7.85,0-15.68,0a8.7,8.7,0,0,1-2.39-.47c-.43-.13-.92-.27-1.49-.41l-1.75-.42,1.36-1.17c2.73-2.37,19.69-2.44,21.62-2.44,3.63,0,15.72.14,18.59,1.89l1.67,1-1.85.65c-.54.18-1,.39-1.47.58a7,7,0,0,1-2.7.77Q443.9,191.35,435.94,191.35Z"/><path d="M416.59,189.53c3.15-2.73,35-3,39.13-.47-1.65.58-2.76,1.29-3.87,1.3-10.53.09-21.06.07-31.58,0A19.34,19.34,0,0,1,416.59,189.53Z"/><path d="M139.21,253.57c-2.72,0-11.77-.11-14.15-1.5l-1-.6.83-.85c2-2.06,18.17-2.09,18.85-2.09,3.08,0,10.57.11,13.56,1.14l1.32.46-.94,1C155.58,253.45,141.92,253.57,139.21,253.57Z"/><path d="M157,250.54c-2.24,2.47-27.85,2.84-31.45.73C127.41,249.36,151.64,248.7,157,250.54Z"/><path d="M491.48,244c-.69-.42-1.37-.85-2.05-1.3-2.61-1.75-4.37-2.46-6.05-2.46s-3.39.68-6,2.36a6.91,6.91,0,0,1-2.91.82c-.39,0-.79.1-1.17.18l-1.86.4.84-1.71c.18-.36.33-.76.48-1.15a6.72,6.72,0,0,1,1.59-2.75,14.14,14.14,0,0,1,18.45.19,9,9,0,0,1,1.74,2.66c.19.39.38.78.59,1.14l.43.74-2.59,1.8Z"/><path d="M492.91,243.76c-1-.63-2-1.23-3-1.88-5.24-3.49-7.84-3.44-13.11-.11-1,.66-2.5.6-3.77.88.6-1.23.91-2.78,1.86-3.62a13.23,13.23,0,0,1,17.2.17c1,.92,1.46,2.38,2.17,3.59Z"/><path d="M483.35,263.76c-3.1,0-5.9-.84-7.5-2.24a4.16,4.16,0,0,1-1.08-1.95c-.09-.24-.17-.49-.27-.71l-.43-.95,1-.31a5.06,5.06,0,0,0,.61-.26,4,4,0,0,1,1.48-.44,1.43,1.43,0,0,1,.72.19,9.65,9.65,0,0,0,5.11,1.47h0a16.4,16.4,0,0,0,6.88-1.84l.19-.08.3,0a2.54,2.54,0,0,1,.79.18c.19.07.45.16.79.26l1.06.29-.47,1c-.15.31-.26.63-.38.94a5.14,5.14,0,0,1-1.24,2.19C489.31,262.9,486.49,263.76,483.35,263.76Z"/><path d="M491.69,258c-.48,1-.69,2.2-1.39,2.83-3,2.73-10.77,2.74-13.85,0-.59-.52-.75-1.55-1.11-2.34.7-.22,1.65-.85,2.07-.6,4.39,2.65,8.61,1.63,12.85-.32C490.44,257.48,490.76,257.69,491.69,258Z"/><path d="M377.9,484.38c-3.55,0-6.66-.55-8.3-1.48l-1-.57.79-.85c1.51-1.66,5.59-2.25,8.91-2.25,3.65,0,6.82.64,8.68,1.76l1.24.74-1.19.81C384.55,484.24,379.42,484.38,377.9,484.38Z"/><path d="M386.5,481.78c-3.11,2.14-13.09,2.21-16.44.32C372.22,479.74,382.54,479.41,386.5,481.78Z"/><path d="M186.16,484.28c-3.79,0-7.24-.88-9.23-2.35l-1.58-1.16,1.91-.48a35.93,35.93,0,0,1,8.76-1,76.34,76.34,0,0,1,8.87.66l1.71.19-1.11,1.32C193.72,483.53,189.51,484.28,186.16,484.28Z"/><path d="M177.48,481.19c6.23-1.55,11.48-1,17.3-.37C192.11,484,181.64,484.26,177.48,481.19Z"/><path d="M363.09,87.53a73.63,73.63,0,0,1-9.15-.76l-2.79-.35,1.3-1.33c2.18-2.25,7.6-2.42,9.21-2.42,3.31,0,7.56.62,9.53,2.35l1.32,1.16-1.7.43A30.82,30.82,0,0,1,363.09,87.53Z"/><path d="M353.11,85.74c2.81-2.9,14.29-2.82,17.48,0C364.4,87.29,358.77,86.44,353.11,85.74Z"/><path d="M212.19,87.58c-1.43,0-6.28-.12-8.43-1.63l-.94-.67.85-.77c1.59-1.44,5.64-2,8.9-2,3.68,0,7,.61,8.74,1.63l1.26.72-1.19.84C219,87.45,213.74,87.58,212.19,87.58Z"/><path d="M220.85,85c-3.09,2.19-13.73,2.21-16.56.21C206.62,83.07,217.05,82.82,220.85,85Z"/><path d="M185.83,333.11c-4.42,0-9,0-14.07-.08a3.36,3.36,0,0,1-1.86-.82,6.65,6.65,0,0,0-.62-.41l-1.15-.66,1-.85c2.3-1.93,15.14-2,16.6-2,2.95,0,10.15.12,13.37,1.24l1.69.59-1.46,1a12.19,12.19,0,0,0-1,.77,3.45,3.45,0,0,1-2.09,1.12C192.81,333.1,189.32,333.11,185.83,333.11Z"/><path d="M169.74,331c2.35-2,23.6-2.49,29.07-.59-1.11.79-1.82,1.72-2.53,1.73q-12.25.12-24.51,0C171.12,332.1,170.48,331.42,169.74,331Z"/><path d="M355.19,282.74c-3.82,0-16.52-.13-19.84-1.75l-1.82-.89,1.86-.79c.51-.22.94-.44,1.34-.65a5.33,5.33,0,0,1,2.42-.82l13,0c7.2,0,14.75,0,23.1.08a5,5,0,0,1,2.08.62c.27.13.55.26.85.37l1.38.52-1.07,1C376.12,282.67,357.32,282.74,355.19,282.74Z"/><path d="M377.85,279.75c-2.55,2.42-37,2.9-42.1.41,1.52-.65,2.46-1.4,3.41-1.4q18-.09,36.07.05A8.79,8.79,0,0,1,377.85,279.75Z"/><path d="M226.24,281.37c-2.19,0-4.56,0-7.24-.11a4.19,4.19,0,0,1-2-.79,7,7,0,0,0-.65-.36l-.54-.27.07-2.17.64-.19c.27-.08.55-.18.82-.29a6.89,6.89,0,0,1,2.23-.55c2,0,4.06-.07,6.08-.07s4,0,5.87.09a4.79,4.79,0,0,1,2.26.89c.25.15.5.31.75.43l1.42.69-1.3.9a7.66,7.66,0,0,0-.66.53,3.74,3.74,0,0,1-2.2,1.18C230,281.34,228.2,281.37,226.24,281.37Z"/><path d="M216.76,278.37a11.42,11.42,0,0,1,2.81-.8c4-.1,7.94-.12,11.9,0,.89,0,1.76.8,2.64,1.23-.79.54-1.56,1.52-2.37,1.55-4.23.14-8.48.09-12.72,0-.77,0-1.52-.69-2.28-1.05Z"/><path d="M358.63,413.37a18.55,18.55,0,0,1-12.52-5l-.28-.25a6.11,6.11,0,0,1-1.57-1.84,4.33,4.33,0,0,1-.27-1.92c0-.21,0-.43,0-.63l-.06-1,1,0,.6,0h.61a4.4,4.4,0,0,1,1.21.14,2.56,2.56,0,0,1,1.23.95,2.58,2.58,0,0,0,.32.34,15,15,0,0,0,9.81,4,12.9,12.9,0,0,0,8.3-3.15c5.06-4.23,6.43-12.61,3.06-18.68a29.78,29.78,0,0,1-1.34-2.88c-.18-.43-.36-.86-.55-1.29l-.32-.71,2.57-1.71.53.47.8.65a9.92,9.92,0,0,1,1.84,1.72c5.61,7.27,4.28,19.39-2.83,25.93A17.93,17.93,0,0,1,358.63,413.37Z"/><path d="M370.36,381a17.52,17.52,0,0,1,2.52,2.24c5.32,6.91,4,18.49-2.72,24.69a17.07,17.07,0,0,1-23.43-.18,6.48,6.48,0,0,1-1.63-1.81,6.34,6.34,0,0,1-.2-2.21,9,9,0,0,1,2.21.08c.46.13.78.74,1.19,1.1,6.14,5.36,13.57,5.7,19.31.9,5.43-4.53,6.86-13.37,3.28-19.83-.73-1.3-1.24-2.73-1.85-4.1Z"/><path d="M208.21,413.4a18.42,18.42,0,0,1-9.52-2.67,19.57,19.57,0,0,1-8.33-22.49,22.77,22.77,0,0,1,2.8-5.74,4.59,4.59,0,0,1,2.33-1.44c.31-.12.62-.23.9-.37l1.45-.71-.12,1.61a8.63,8.63,0,0,0,0,.88,7,7,0,0,1-.3,2.3,22.78,22.78,0,0,1-1.09,2.52,18,18,0,0,0-1.24,3.06A14.52,14.52,0,0,0,197.53,403a13.37,13.37,0,0,0,10.65,5.28h.7l.32.6,1.9-1c2.21-1.19,4.5-2.42,6.78-3.58a17.94,17.94,0,0,1,2.63-1l1.14-.38,2-.71-.84,1.94c-.15.37-.28.77-.41,1.16a7,7,0,0,1-1.42,2.8A17.81,17.81,0,0,1,208.21,413.4Z"/><path d="M208.82,410.11c3.15-1.68,6.29-3.41,9.48-5a30.11,30.11,0,0,1,3.66-1.34c-.54,1.24-.77,2.77-1.65,3.67a17.13,17.13,0,0,1-21.14,2.52,18.52,18.52,0,0,1-7.93-21.42,21.43,21.43,0,0,1,2.69-5.5c.53-.78,1.88-1,2.87-1.5a12.29,12.29,0,0,1-.27,2.94c-.68,1.93-1.84,3.7-2.36,5.66-2.57,9.75,4.48,19.17,14.16,19.07Z"/><path d="M153.72,385c-4.41,0-19-.14-21.13-1.88l-.87-.7.86-.72c2.07-1.74,16.61-1.88,21-1.88,3.13,0,18.87.09,21.23,1.84l1,.71-.92.75C172.71,384.87,158.14,385,153.72,385Z"/><path d="M174.28,382.41c-2.75,2.23-38.36,2.23-41.11,0C135.8,380.2,171.29,380.2,174.28,382.41Z"/><path d="M235.08,217.46c-3.77,0-6.25-2.39-6.32-6.08A5.94,5.94,0,0,1,235,205h.11a7,7,0,0,1,5,2,6,6,0,0,1,1.71,4.34c-.06,3.48-2.82,6.06-6.56,6.13Zm0-7.63a3.06,3.06,0,0,0-1.55,1.4,5.29,5.29,0,0,0,1.19,1.87l.55.71.49-.75a4.91,4.91,0,0,0,1-2,3,3,0,0,0-1.68-1.26Z"/><path d="M235,205.93c3.45,0,6,2.25,5.92,5.37s-2.4,5.16-5.65,5.23-5.5-1.94-5.57-5.16A5,5,0,0,1,235,205.93Zm.41,9.55c1.23-2.19,2.4-3.36,2.34-4.45,0-.81-1.72-2.15-2.63-2.12s-2.47,1.51-2.44,2.31C232.71,212.33,234,213.39,235.39,215.48Z"/><path d="M332.37,217.4a6.29,6.29,0,0,1-6.59-5.93,6.14,6.14,0,0,1,1.58-4.47,6.54,6.54,0,0,1,4.56-2.12h.36a6.41,6.41,0,0,1,6.63,6.24,6,6,0,0,1-1.65,4.32,6.61,6.61,0,0,1-4.74,2Zm-1.31-5.92c.43.54,1,1.28,1.36,1.33h0a5.18,5.18,0,0,0,1.78-1c.24-.18.5-.36.78-.55l-.76-.63c-.65-.55-1.38-1.17-1.69-1.17v0c-.34,0-1,.77-1.43,1.27l-.32.37C330.87,211.22,331,211.35,331.06,211.48Z"/><path d="M338,211.13a5.26,5.26,0,0,1-5.48,5.35A5.35,5.35,0,1,1,332,205.8,5.54,5.54,0,0,1,338,211.13Zm-1.4.2c-2-1.43-3.1-2.86-4.12-2.8s-2,1.63-2.94,2.53c.91.95,1.74,2.52,2.77,2.67S334.51,212.56,336.58,211.33Z"/><path d="M268.65,170.49a1.8,1.8,0,0,1-1-.28,83.43,83.43,0,0,1-8.22-6.1c-.61-.5-.89-1.5-.81-3,0-.73.68-1.06,1.24-1.36a5,5,0,0,0,.46-.25l.53-.35,2.27,1.63,2,1.38c1.66,1.17,3.37,2.38,5,3.66a6.64,6.64,0,0,1,1.48,1.79c.16.24.33.49.5.72l.89,1.19-1.46.28a8.43,8.43,0,0,0-1,.26A6.46,6.46,0,0,1,268.65,170.49Z"/><path d="M260.8,160.31l1.75,1.26c2.32,1.66,4.68,3.26,6.92,5a11.47,11.47,0,0,1,1.81,2.35c-1.08.2-2.49.93-3.17.5a84.88,84.88,0,0,1-8.12-6c-.47-.38-.52-1.46-.48-2.2C259.52,160.9,260.29,160.64,260.8,160.31Z"/><path d="M298.23,171.18c-.52-.28-1-.49-1.36-.66-.9-.41-1.56-.7-1.62-1.46a3.43,3.43,0,0,1,1.07-2.8c2.46-1.94,5.17-3.95,8.52-6.32a3.24,3.24,0,0,1,1.7-.45,4.17,4.17,0,0,0,.52-.05l.95-.16.12.95c0,.21.09.44.15.68.2.82.41,1.68-.2,2.25-2.25,2.14-4.59,4.19-6.85,6.17l-2.43,2.14Z"/><path d="M298.66,170.36c-1.47-.78-2.46-1-2.49-1.38a2.6,2.6,0,0,1,.72-2c2.76-2.18,5.61-4.26,8.48-6.28a4.69,4.69,0,0,1,1.85-.35c.09.73.54,1.84.23,2.14C304.55,165.23,301.52,167.83,298.66,170.36Z"/><path d="M54.47,430.12a4.55,4.55,0,0,1-2.34-.57,97.71,97.71,0,0,1-9.77-7.68,4.3,4.3,0,0,1-1.11-2.42,7.7,7.7,0,0,0-.24-.92L40.47,417l1.61.35c.27.06.55.1.84.14a5.06,5.06,0,0,1,2.28.68c1.64,1.13,3.21,2.4,4.73,3.63L51.41,423c1.59,1.27,2.61,2,3.24,2s1.54-.87,3-2.31l1.27-1.3c1.28-1.32,2.61-2.67,4-4a9.56,9.56,0,0,1,1.85-1.25l.76-.45.56-.36,1.69,1.39-.2.59c-.07.23-.12.47-.18.72a4.11,4.11,0,0,1-.84,2l-.83.91a107.15,107.15,0,0,1-8.13,8.25A5.1,5.1,0,0,1,54.47,430.12Z"/><path d="M66.64,417.06c-.27.8-.31,1.8-.83,2.36a117.53,117.53,0,0,1-8.89,9.1,4.54,4.54,0,0,1-4.28.26,93.91,93.91,0,0,1-9.67-7.6c-.69-.61-.74-1.95-1.09-2.95a7.89,7.89,0,0,1,2.79.67c2.14,1.47,4.13,3.16,6.17,4.78,3.82,3,4.09,3,7.42-.35,1.73-1.76,3.43-3.55,5.23-5.23A16,16,0,0,1,66,416.49Z"/><path d="M511.47,430.09a3.68,3.68,0,0,1-2.38-.7c-3.12-2.74-6-5.79-8.86-8.75l-.76-.8a3.28,3.28,0,0,1-.71-1.86,5.51,5.51,0,0,0-.11-.61l-.16-.61,2.26-1.63.55.53,2.38,2.21c1.83,1.67,3.72,3.41,5.44,5.26a4,4,0,0,0,2.68,1.59,4.07,4.07,0,0,0,2.59-1.37,58.28,58.28,0,0,1,6.53-5.13,7.17,7.17,0,0,1,2.44-1c.32-.09.65-.17,1-.28l.71-.23,1.51,2.58-2.68,2.31c-1.58,1.38-3.17,2.75-4.78,4.09-.34.28-.68.58-1,.87a19.9,19.9,0,0,1-4,2.94A6,6,0,0,1,511.47,430.09Z"/><path d="M500.67,416.33c2.6,2.46,5.34,4.81,7.78,7.43,2.24,2.41,4.17,2.52,6.58.26a55.84,55.84,0,0,1,6.42-5,11.89,11.89,0,0,1,3.17-1.11l.74,1.28c-2.28,2-4.55,4-6.86,5.88a26.7,26.7,0,0,1-4.87,3.69c-1.08.54-3.16.65-3.93,0-3.37-3-6.46-6.25-9.57-9.5-.43-.46-.4-1.36-.59-2.06Z"/><path d="M515.05,334.6a4.86,4.86,0,0,1-1.68-.29c-3.46-1.25-8.16-8.75-7.48-13.33l.3-2,6.37,7.34,2.16-10.92,3,.25.22.51c1,2.32.58,4.69.17,7a19.52,19.52,0,0,0-.44,4.33l.27-.14a21.7,21.7,0,0,1,3-1.39,2.34,2.34,0,0,1,.77-.13A6,6,0,0,1,523,326a4.83,4.83,0,0,0,.62.12l1.07.13-.3,1c-.05.19-.08.41-.12.62a2.76,2.76,0,0,1-.86,1.93,60.53,60.53,0,0,1-6.55,4.34A3.63,3.63,0,0,1,515.05,334.6Z"/><path d="M516.92,328.92a42.53,42.53,0,0,1,4.36-2.09c.63-.22,1.45.13,2.19.22-.21.7-.18,1.71-.65,2.06a59.22,59.22,0,0,1-6.46,4.28,3.64,3.64,0,0,1-2.68.06c-3-1.1-7.49-8.16-6.87-12.34l6.29,7.25,2.36-12,1.65.14C518.76,320.34,516.08,324.38,516.92,328.92Z"/><path d="M50.84,333.46a2.65,2.65,0,0,1-1.29-.29c-2-1.13-4-2.45-6.14-3.85l-2.58-1.71-1.1-.72,1.06-.79a5,5,0,0,1,3-1.15,6.24,6.24,0,0,1,3.26,1.2A5.28,5.28,0,0,0,49,327V314.81l3.27-.32L54,325l6.42-5.88v2.09c0,.62,0,1.15.08,1.6a3.11,3.11,0,0,1-.34,2.32,88.35,88.35,0,0,1-6.62,7.38A4.14,4.14,0,0,1,50.84,333.46Z"/><path d="M49.94,327.89V315.65l1.57-.15c.58,3.56,1.17,7.12,1.86,11.34l6.14-5.62c0,1.78.34,2.85-.06,3.34a87.22,87.22,0,0,1-6.55,7.3,3.17,3.17,0,0,1-2.91.51c-2.8-1.55-5.42-3.42-8.65-5.53C45.25,323.92,46.83,328.65,49.94,327.89Z"/><path d="M35.08,371c-2.07-.35-4.13-.7-6.19-1.09a5.38,5.38,0,0,1-1.53-.61l-.52-.26-.88-.39,1.53-3.08,6.15.68-.48-6.69,2.27-1.07.45.62a8.38,8.38,0,0,0,.62.74,4.75,4.75,0,0,1,1.37,2.31c.29,2,.39,4,.49,6,0,.77.07,1.54.12,2.3l.07,1.17Z"/><path d="M28,366.52l6.6.73-.5-7.16,1-.48c.63.88,1.68,1.7,1.83,2.65.4,2.7.42,5.45.6,8.18-2.84-.48-5.68-.94-8.5-1.48a9,9,0,0,1-1.84-.8Z"/><path d="M530.88,372.45a4.24,4.24,0,0,1-1.37-.21,4,4,0,0,1-2.24-2c-1-2.39,1.26-9.11,3.85-11.23l1.51-1.23v8.81l8.08-1.2-.89,1.62A11.66,11.66,0,0,1,530.88,372.45Z"/><path d="M531.7,359.71v7.94l7.31-1.1c-1.76,3.22-6.8,5.62-9.21,4.82a3.15,3.15,0,0,1-1.69-1.52C527.27,367.92,529.39,361.6,531.7,359.71Z"/></svg>