<svg id="Слой_1" data-name="Слой 1" xmlns="http://www.w3.org/2000/svg" viewBox="0 0 566.93 566.93"><defs><style>.cls-1{fill:#ffda49;}</style></defs><path class="cls-1" d="M537.23,497.6c-.49-.89-1.06-1.73-1.6-2.59q-85.74-136-171.46-272c-.66-1-1.2-2.15-2.27-4.08,3.76,0,6.75.11,9.73,0,6.27-.28,8.73-4.49,6-10.1a32,32,0,0,0-1.74-3Q330.69,134.94,285.49,64c-4-6.29-7.76-6.28-11.67,0q-34.37,55.38-68.69,110.77c-6.86,11.08-13.69,22.18-20.4,33.36-3.89,6.47-1.49,10.6,6.1,10.81,2.61.07,5.21,0,8.71,0-1.07,1.94-1.69,3.2-2.42,4.39Q125.52,340.78,53.91,458.16c-8,13.1-16,26.19-23.92,39.35-3.53,5.88-1.24,9.84,5.61,10.07.87,0,1.74,0,2.61,0H477.27c18.12,0,36.23.05,54.34,0C538,507.52,540.33,503.17,537.23,497.6ZM312.52,380.19c2.56-2.3,6-1.57,8.46,1.27C318.48,378.62,315.08,377.89,312.52,380.19Z"/><path d="M199.54,219c-3.5,0-6.1.06-8.71,0-7.59-.21-10-4.34-6.1-10.81,6.71-11.18,13.54-22.28,20.4-33.36q34.31-55.41,68.69-110.77c3.91-6.29,7.66-6.3,11.67,0q45.19,70.89,90.36,141.8a30.8,30.8,0,0,1,1.74,3c2.77,5.61.31,9.82-6,10.1-3,.14-6,0-9.73,0,1.07,1.93,1.61,3,2.27,4.08Q449.9,359,535.63,495c.54.86,1.11,1.7,1.6,2.59,3.1,5.57.73,9.92-5.62,9.95-18.11.09-36.22,0-54.34,0H38.21c-.87,0-1.74,0-2.61,0-6.85-.23-9.14-4.19-5.61-10.07,7.9-13.16,15.92-26.25,23.92-39.35q71.6-117.39,143.21-234.77C197.85,222.2,198.47,220.94,199.54,219Zm82.2,204.7c19.83-.21,40.47-4.89,59.12-16.77a49.38,49.38,0,0,0,17.72-18.71c5-9.45,5.88-19.07.59-28.63-2.36-4.27-1.81-7.7.75-11.66a189.82,189.82,0,0,0,11.76-20.23,44.49,44.49,0,0,0,3.55-30c-5.52-23.71-29.55-39.37-54.65-35.83-13.81,1.95-25.58,7.9-35.93,17-4.41,3.89-4.45,3.86-8.79.14-9.28-7.95-19.61-13.91-31.73-16.2C224,259,206.51,264,193.63,280.34c-12.7,16.11-12.08,33.76-3.13,51.43a188,188,0,0,0,10.55,17.44c2,3,2.24,5.56.22,8.74-4.18,6.58-4.76,13.84-3.1,21.34,2.82,12.74,11,21.43,21.58,28.16C238.06,419,258.32,423.46,281.74,423.7Zm-91-41.85a23.55,23.55,0,0,1-22.22.23c-7.49-3.66-12.3-9.7-13.66-18-2.77-16.83,7.27-27,28.61-29.13-.62-1.67-1.19-3.27-1.83-4.85-4.29-10.57-6.07-21.46-3.67-32.74,6-28,32.72-46.37,62.2-42.87a19.45,19.45,0,0,0,7.63-.6,108.55,108.55,0,0,1,64.62.2,13.15,13.15,0,0,0,5.5.67,64,64,0,0,1,29.58,2.77c23.68,7.71,39.07,32.06,35.37,56.69-1.06,7.06-3.55,13.89-5.37,20.77,22.66,1.13,28.9,12.07,28.41,27.41-.23,7.36-4.72,12.89-10.43,17.34-8.34,6.49-17.35,6-26.37,2.15-1.83,4.46-3.47,8.43-5.24,12.7H456c-3-4.68-5.95-8.8-8.49-13.14a6.57,6.57,0,0,0-6.6-3.67c-8.54.2-17.1,0-25.65,0a8,8,0,0,1-2.59-.06,18.53,18.53,0,0,1-3-1.78c1-.62,1.89-1.29,2.89-1.82.34-.18.85,0,1.29,0q15.64,0,31.3,0c1.39,0,2.78-.2,4.9-.36-4.36-6.95-8.22-13.36-12.4-19.56-.67-1-2.74-1.38-4.19-1.44-4.92-.19-9.85,0-14.78-.17a25.25,25.25,0,0,1-4.63-1c0-.41.07-.83.11-1.24,6.23-2.77,13.12-.3,19.95-1.69-1-1.63-1.73-3-2.55-4.3-4-6.53-8.51-12.83-12-19.62-3.88-7.51-8.77-12-17.85-10.19-2,.39-4.27-.73-6.42-1.15l.2-1.8,14.62-1c-.52-1-.78-1.7-1.15-2.28q-18.81-30-37.58-60c-1.63-2.62-3.72-3.22-6.54-3.21-16.67.07-33.33,0-50,0a59.8,59.8,0,0,1-6.07-.64l-.13-1.81c2.06-.41,4.12-1.17,6.18-1.18,13-.07,26.08,0,39.13.06h4.84c-1-1.79-1.51-2.92-2.17-4-3.19-5-6.53-9.93-9.57-15A6.85,6.85,0,0,0,340.3,219c-12.47.13-24.93.05-37.39,0-29.86,0-59.71-.05-89.57,0-1.86,0-4.58.41-5.43,1.64-4.49,6.5-8.51,13.33-12.9,20.4a13.65,13.65,0,0,0,2.74.67c15.79-.07,31.58-.23,47.38-.22,1.77,0,3.54.85,5.31,1.3l-.12,1.47c-1.59.41-3.18,1.17-4.77,1.17-16.08,0-32.16-.13-48.24-.38-3.48-.06-5.59,1.28-7.35,4.21-11.65,19.36-23.42,38.65-35.14,58-.62,1-1.09,2.17-1.66,3.29l11.07,1.4-.07,2c-3.16.21-6.35.73-9.49.52s-5,1-6.62,3.7c-4.31,7.38-8.86,14.62-13.28,21.93-1.7,2.8-3.33,5.65-5.09,8.64,5.4,1.45,10.88-1,15.64,2.46-1.79,1-3.67,1.7-5.38,1.41-9.61-1.66-15.88,2-19.5,11.05-1.4,3.48-3.89,6.53-6.38,10.58h28.39a24,24,0,0,1,4.33.09c.78.15,1.43,1,2.13,1.59a15.88,15.88,0,0,1-2.11,1.76,3.69,3.69,0,0,1-1.71.14c-8.55-.06-17.1-.09-25.64-.21-3.41,0-7-.09-9.13,2.93-3,4.31-5.36,9-8.2,13.92H196C194.23,390.2,192.58,386.26,190.72,381.85Zm293,45.3C477.78,417.8,472.54,409.3,467,401a5.87,5.87,0,0,0-4.31-2q-49.34-.21-98.68,0a9.44,9.44,0,0,0-5.3,2.26c-2.92,2.35-5.4,5.24-8.26,7.67-1.85,1.57-2,2.88-.57,4.77a75.94,75.94,0,0,1,6.38,9.31c2,3.73,4.71,4.86,8.79,4.81,16.51-.19,33-.11,49.55-.14a8,8,0,0,1,2.59.08,9.26,9.26,0,0,1,2.19,1.62c-.67.61-1.24,1.49-2,1.76a10,10,0,0,1-3,.1l-47.82.12c-1.5,0-3,.14-4.62.23,3.51,12.06,3.51,12.06,15,12h.44c15.07,0,30.14-.14,45.21-.09a84,84,0,0,1,8.48.87l0,2a75.33,75.33,0,0,1-8.16.88c-15.94,0-31.88-.05-47.82-.12-6.86,0-6.86-.05-6.65,6.81.17,5.53.21,5.61,5.6,5.61q63.26,0,126.51,0a23,23,0,0,0,3.21-.48c-4.22-6.65-8.74-12.59-12-19.16-3.53-7.22-8.3-10.38-16.34-9-3.38.57-6.95.14-10.41-.12-.81,0-1.53-1.24-2.3-1.91a9,9,0,0,1,2.34-1.45,14.74,14.74,0,0,1,3.46-.13ZM68.92,448.44l.6.58c4-2.74,8.08-5.34,11.93-8.26,2.69-2.05,4.88-2.28,7.75-.2C96.47,445.83,104,450.7,111.29,456a17.53,17.53,0,0,0,10.88,3.51c20-.1,40,0,60,0,7.51,0,7.51,0,8.42-7.52.58-4.85.58-4.85-4.63-4.84q-25.43,0-50.85.06c-2.89,0-5.79-.16-8.67-.4a8.2,8.2,0,0,1-2.39-1l0-1.44a60.73,60.73,0,0,1,7.66-1c18.26-.06,36.51,0,54.77,0,1.9,0,4.65-.26,5.52-1.47,2.1-2.91,3.31-6.46,5.27-10.56h-5.8c-15.94,0-31.88,0-47.81-.09a50.24,50.24,0,0,1-6.29-.85l0-1.89a61.2,61.2,0,0,1,6.84-.78q25.65-.08,51.29,0c2.29,0,4.1-.3,5.46-2.58,2.51-4.23,5.28-8.3,8.13-12.31,1.38-1.94,1.28-3.18-.59-4.72-2.44-2-4.44-4.59-7-6.49-1.71-1.3-4-2.63-6-2.64-30.86-.17-61.72-.1-92.58-.17a6.2,6.2,0,0,0-6,3.38c-4.2,7.11-8.57,14.12-12.83,21.18-.57.94-1,2-1.6,3.29,6.41,1.28,12.93-.8,18.72,2.48a10.4,10.4,0,0,1-5.33,1.6c-4.49.14-9,0-13.47.2-1.3.06-3.13.53-3.74,1.45C75.35,437.59,72.18,443.05,68.92,448.44Zm31.78,14.68c.19,7.61-4.83,11.79-9.3,16.32-3.77,3.82-7.52,7.65-11.19,11.56a22.28,22.28,0,0,0-3.4,4.47c-1.51,2.77-.62,4.62,2.45,4.82,3.3.21,6.87.62,9.84-.43,1.56-.55,2.08-4,3.07-6.2a6.65,6.65,0,0,1,.59-1.16c4.46-6.24,8.81-12.55,13.48-18.62a6.9,6.9,0,0,1,4.82-2.27q33.9-.28,67.82-.09a6.84,6.84,0,0,1,5.09,3,177.75,177.75,0,0,1,9.47,20.93c1.47,4.08,3.41,5.12,7.48,5.11q78-.19,156.08,0c4.28,0,5.64-1.43,6.51-5.39,3.41-15.38,13-25.5,28.13-29.43,21.4-5.55,41.69,7.11,47.7,29,1.56,5.68,1.56,5.68,7.32,5.68l77.82,0h5.29c-5.14-8.29-9.69-15.66-14.28-23-1.42-2.26-2.83-1.15-4.24.11-6.26,5.62-12.42,11.34-18.87,16.72a11.53,11.53,0,0,1-6.55,2.58c-9,.29-18,0-26.95.2-3.71.1-5.81-1.32-7.6-4.44-4.89-8.54-10.17-16.86-15.07-25.4-1.74-3-3.88-4.15-7.35-4.12-18,.16-35.94.1-53.91.12-6.6,0-6.6,0-9.17,6.13-6.47,15.43-20.73,22.22-36.84,17.78a19.42,19.42,0,0,0-8.06-.48c-23.16,3.69-46.37,4.74-69.72,2-9.09-1.07-18.21-4-27.34-.1a3.91,3.91,0,0,1-1.29.11c-13.32.69-25.35-7.45-29.91-20.72-1.25-3.66-3-4.91-6.82-4.88-24.2.15-48.4.09-72.6.1Zm222.17-37.81c-13.08,2-24.85,4.44-36.75,5.47A113,113,0,0,1,240.74,425c-3.36-1.11-4.82-.31-5.47,3a82.08,82.08,0,0,1-2,8c-1.19,3.95,0,6.28,3.8,8.29,8.56,4.52,13.18,11.92,13.77,21.68a6.72,6.72,0,0,1-3.29,6.53c-2.35,1.61-4.07,4.14-6.07,6.26l.66,1.25c24.72,3.69,49.43,2.94,75.39-.42-2.13-2.58-3.34-4.75-5.16-6.12-4.48-3.39-5.35-5.14-4.13-10.72,1.89-8.75,6.85-15.11,14.76-19.35,1.37-.74,3.19-2.75,3-3.9C325.25,434.43,323.84,429.46,322.87,425.31Zm-43-356a22.54,22.54,0,0,0-1.92,2.19Q255.69,107.22,233.44,143c-1.63,2.61-.8,4.11,1,6,9.8,10.05,19.41,20.3,29.33,30.23,5,5,10.52,9.46,15.83,14.19l46.84-51.11C311,118,295.59,93.93,279.84,69.27ZM209.69,201c1-1.94,1.54-3.11,2.2-4.2,4.38-7.16,8.74-14.34,13.2-21.45s4.5-7.07-2.89-11.07a7.91,7.91,0,0,0-1.59-.19l-29.13,47.29h178.7c-.95-1.64-1.55-2.75-2.22-3.81q-13.23-20.92-26.48-41.83c-4.58-7.23-4.57-7.24-11.56-2.31-.32.23-.47.71-1,1.49L352.18,201Zm8.75,245.9L218,446c.93-1,1.72-2.66,2.83-2.91,4.87-1.09,4.9-4.93,5.39-8.6.1-.72.33-1.41.48-2.12.83-3.72,3.33-8.26,2-10.94-1.39-2.85-6.39-3.95-9.81-5.81-.26-.14-.54-.42-.77-.37-1.22.22-3,.11-3.56.87-6.72,9.78-13.35,19.65-16.5,31.31-2.31,8.52-1.54,16.75,3.48,24.12s12.19,11.44,21.44,10.64c4.72-.41,5.5-1.9,2.9-5.72a69.82,69.82,0,0,0-6-6.82c-.68-.76-1.38-1.49-2.43-2.62,9.57-2.52,12.82,6,19.18,9.95,3.19-10.25-4.41-14.62-9.73-20.76,1.66-.32,2.73-.81,3.69-.66,7,1.08,9.51,7.24,13.73,13.09,1.25-5-.43-8.35-2.33-11.38C236.61,448.55,228.53,445.43,218.44,446.9ZM343,414.59c-4,2.05-7.41,4-11,5.5-2.44,1-2.79,2.28-2.11,4.68,1.3,4.58,2.1,9.3,3.42,13.87.36,1.24,1.71,2.31,2.81,3.19,1.74,1.37,3.65,2.52,5.49,3.77-14.14,2-15.41,2.29-19.19,5.13-6.17,4.65-9.72,12.41-7.5,16.69,2.17-2.93,4.05-6,6.47-8.61,3.54-3.78,6.68-4.23,9.67-1.88-1.87,1.79-4.14,3.3-5.49,5.4a50.2,50.2,0,0,0-4.8,10c-.34.91,1,2.46,1.65,3.71a15.88,15.88,0,0,0,3.15-1.71c2.38-2.1,4.42-4.63,7-6.46s5.37-2.61,8.78-.48c-1.62,1.43-3,2.57-4.32,3.87a32.49,32.49,0,0,0-3.69,4.26c-3.25,4.66-2.49,6.21,3.14,6.65,13.33,1,25-10.14,25.32-24.67C362.18,440.27,351.29,428.06,343,414.59Zm89.47,85.84a7.57,7.57,0,0,0,.44-1.8c-1.49-11.88-13-24-24.94-25.82-2.38-.35-5.36.7-7.53,2-3.56,2.14-4.91,5.81-5,10,0,1.27-1.07,2.5-1.64,3.75-.77-1.31-2.36-2.75-2.17-3.9.65-4,1.92-7.95,3-12a17.72,17.72,0,0,0-3.43.71c-10.74,4.06-17.71,11.56-20.79,22.7-.88,3.19-.26,4.53,3.33,4.41,5.92-.21,11.86-.05,17.79-.05Zm-337-36.73a4.58,4.58,0,0,0-1.32-.43c-10.71,0-21.43-.16-32.14.09-1.43,0-3.27,1.67-4.14,3.05-6,9.54-11.87,19.2-17.75,28.84-.87,1.41-1.69,2.86-2.85,4.84H71.43c-.69-5.65,2.32-9.32,5.75-12.81,5.07-5.17,10.14-10.34,15.14-15.58C94.42,469.5,96.37,467.14,95.44,463.7Zm63.25,36.49c0-4-.55-7.69.16-11.12s2.64-6.51,4.28-10.31H126.75c-17,0-17,0-26.06,14.44a13.88,13.88,0,0,0-1.5,2.64,43.53,43.53,0,0,0-1,4.35Zm287-36.63c3.94,6.59,7.39,13,11.49,18.87a10.74,10.74,0,0,0,6.72,4,76,76,0,0,0,13.83.13c4.83-.22,8.83-2.51,12.32-5.77,5.19-4.84,10.42-9.63,15.61-14.47.66-.63,1.17-1.42,2.27-2.75ZM325,166.93c-14.1,10-27.76,19.68-42.1,29.83H344.3ZM216.81,196.78h55.47l.16-.75-39.59-25C227.45,179.67,222.31,187.94,216.81,196.78ZM381.47,376.91c7.38.71,14.4-4.27,16.89-12a17.9,17.9,0,0,0-8.19-21.27c-6.86-3.87-16-2.63-20.78,2.78-1.83,2.06-1.63,4-.2,6.18,13.82-8,20.95-8.05,23.69-.08-4-.28-8-.86-12-.76-5.15.13-7.65,2.27-9,6.81C381.72,359.81,386.49,366.48,381.47,376.91ZM168,352.73l-.82-.91c1.51-1.4,2.78-3.34,4.56-4.12,7.32-3.19,13.14,1.61,19.33,4.46,1-4.41-.89-7-4.38-8.74-6.67-3.37-13-2.52-18.75,1.9s-8.05,10.59-6.41,17.72S167.75,375,175,377c1.23.34,2.63,0,4.58,0-2.9-4.41-3.51-8.33-1.49-12.55,2.16-4.51,6.62-4.94,11-6.05C183.67,349.11,175.64,351.64,168,352.73Zm19.77,147.69c-2.7-6.3-5.08-11.66-7.3-17.09-1.39-3.41-3.84-4.78-7.42-4.81s-5.6,1.57-6.65,5c-.59,1.9-2.2,3.56-2.52,5.47a28.91,28.91,0,0,0-.1,8.76c.15,1,2.14,2.54,3.34,2.58C173.59,500.55,180.08,500.42,187.76,500.42Zm-80.6-41.3c-.49-.8-.58-1.1-.77-1.23-4.75-3.3-9.49-6.62-14.27-9.87-8-5.44-5.47-5.36-13.28-.18-5.18,3.45-10.27,7.05-15.4,10.58l.39.7ZM301.67,258.73a110.64,110.64,0,0,0-43.62-.14l22.25,13.74ZM439.44,462.31c0,1.66-.15,2.14,0,2.43,5.18,8.53,10.27,17.11,15.7,25.48.87,1.33,3.26,2.3,5,2.35,7.81.26,15.63.29,23.44,0a10.88,10.88,0,0,0,6.13-2.39c6.66-5.57,13.07-11.43,19.54-17.21a26.81,26.81,0,0,0,2.13-2.37l-.71-1.06a17.4,17.4,0,0,0-3.36,1.88c-6.1,5.33-12.22,10.65-18.14,16.18a11.34,11.34,0,0,1-8.52,3.43c-6.36-.17-12.74-.17-19.1,0-3.17.1-5.08-1.14-6.64-3.81-4.08-7-8.35-13.87-12.58-20.78C441.65,465.34,440.83,464.3,439.44,462.31ZM349.91,219.75c4.47,6.95,8.91,13.92,13.46,20.81.38.57,1.54.62,2.87,1.11C360.7,231,353.31,220.46,349.91,219.75Zm17.75,150c2.41,1.91,4.15,4.24,5.35,4a6,6,0,0,0,3.74-4.24,3.33,3.33,0,0,0-4.27-3.56C371.05,366.24,369.91,367.87,367.66,369.72Zm-176.6-1.19c-1.29-.9-2.55-2.47-3.9-2.55a3.3,3.3,0,0,0-3.55,4.24,5.37,5.37,0,0,0,3.45,3.36C190,374.07,190.44,371.67,191.06,368.53ZM461.41,395.4l.84-.57c-.86-4.55-8.54-16-12.52-17.27Z"/><path d="M355.58,323.61c-7.15-1.84-11.64,2.79-16.84,6.14-8.73,5.62-17.9,5.28-26.65,0-6.78-4.12-9.76-10.44-8.85-18.44.12-1.11.2-2.23.34-3.81l-6.65,1c8.41-9,18-12,29.06-10.44C338.07,299.72,353,312.47,355.58,323.61Zm-39-9.54a25.31,25.31,0,0,0-1.12-5.39c-.47-1.12-1.94-2.46-3-2.5a4.28,4.28,0,0,0-3.2,2.25,16.32,16.32,0,0,0-1.24,6.25c0,4,2.48,7.81,4.63,7.26C316.49,321,316.12,317.53,316.58,314.07Zm25.21,2.42c-2.5-1.83-3.77-3.42-5.31-3.75-2.25-.48-4.19,1.12-3.74,3.4.31,1.53,2.1,3.6,3.5,3.84S339.13,318.27,341.79,316.49Z"/><path d="M261.72,308.09l-5.77-.86a7,7,0,0,0-.12,2.13c4.17,13.13-9.06,24.36-20.8,24.19A28.71,28.71,0,0,1,216.7,327c-3.09-2.5-7.59-3.26-12.19-5.1,5.55-10.7,13.68-19.57,26.38-23.15C242.85,295.34,253.34,298.33,261.72,308.09Zm-19,5.87c0,5,1.69,8.34,4.18,7.84,4.08-.81,4-4.53,4.28-7.56.42-4.39-1.91-8.42-4.39-8.33S242.66,308.94,242.7,314Zm-18.37-2-1.61-.1c-1.06,1.45-3,3-2.93,4.33s2.23,2.7,3.47,4c1.22-1.18,3.33-2.29,3.43-3.56C226.81,315.17,225.19,313.54,224.33,312Z"/><path d="M235.84,386.93c-.16-4.31,2-6,4.62-7.4a4.82,4.82,0,0,1,6.33,1.11c9.17,10.86,21.67,12.76,34.68,12.55,11.55-.2,22.33-2.68,30.38-12.3,3.47-4.15,9.06-1.73,11.42,4.48-.2.18-.47.57-.59.52-4.88-1.72-8,.64-10.95,4.23a17,17,0,0,1-5.84,4.43c-19.15,8.71-38,8.87-56.39-2.28a11.3,11.3,0,0,1-3.33-2.75C243.58,385.89,240.77,383.36,235.84,386.93Z"/><path d="M298,351.92a30.64,30.64,0,0,0,2.23,3.71c3.55,4.38,3,7-2.26,9.31-.26.12-.53.22-.8.33-17.22,7.39-19.93,7.38-37-.21-4.56-2-5.32-4.88-2.26-8.88,1-1.33,2.26-2.47,3.62-3.93.35.84.66,1.22.62,1.56-.76,6.1-.77,6.1,5.38,8a3.6,3.6,0,0,1,.82.28c9,5.07,17.57,2,26.14-1.36,2.3-.89,3.3-2.15,2.36-4.64a13.71,13.71,0,0,1-.45-2.9Z"/><path d="M308.52,290.47c3-7,8-9.46,13.81-10,11.2-1,19.71,4,26.22,13.21C335.88,287.86,322.94,285.46,308.52,290.47Z"/><path d="M212.29,294c3.49-8.32,14.51-14.22,24.35-13.62,6.8.41,12,3.83,13.84,9.56C237.05,285.67,224.43,287.47,212.29,294Z"/><path d="M341.84,389.32c-.18,4.85-1.87,7.17-5,8.34a7.35,7.35,0,0,1-8.33-1.86c-.69-.72-.27-2.5-.35-3.79,1.25-.08,2.51-.19,3.77-.22.21,0,.41.51.64.53,1.22.1,2.45.12,3.67.16-.41-1.16-.8-2.34-1.25-3.48s-1-2.31-1.52-3.46c1.52-.37,3.64-1.53,4.44-.93C339.78,386,341,388.28,341.84,389.32Z"/><path d="M333.33,401.38c-2.37,1.61-3.71,3.23-4.81,3.08s-3.07-2-3.06-3,1.79-3,3-3.15S330.93,399.76,333.33,401.38Z"/><path d="M440.77,413.45a28.73,28.73,0,0,1-5.21,1q-32.76.1-65.52,0a29.36,29.36,0,0,1-5.32-1c-.05-.42-.1-.84-.16-1.26,1.3-.41,2.6-1.16,3.9-1.17q34.5-.13,69-.06a14.31,14.31,0,0,1,3.41.85Z"/><path d="M157.23,410.92h32.53a12.13,12.13,0,0,1,3,.17,2,2,0,0,1,1.31,1.36A1.93,1.93,0,0,1,193,414a15,15,0,0,1-3.84.4c-21.4,0-42.8.05-64.2-.06-1.62,0-3.24-1-4.87-1.59,1.68-.62,3.34-1.76,5-1.78,10.69-.17,21.39-.09,32.09-.09Z"/><path d="M279.59,89.39c1.06,1.41,2,2.49,2.74,3.66,9.76,14.72,19.44,29.5,29.29,44.16,1.72,2.56,2,4.25-.35,6.69q-15.06,16-29.74,32.28c-2.33,2.57-4,3.09-6.63.29q-13.65-14.59-27.67-28.86c-2.22-2.27-2.42-4.17-.71-6.85,10.36-16.23,20.61-32.53,30.91-48.8A28.08,28.08,0,0,1,279.59,89.39Zm0,7.12c-9.8,15.5-19.07,30.17-28.36,44.83-1.42,2.25-.19,3.77,1.29,5.32,7.6,8,15.24,15.88,22.71,24,2.23,2.42,3.71,2.41,5.89,0,8.18-9.19,16.44-18.33,24.87-27.3,2.18-2.31,2-3.92.35-6.32-5.86-8.62-11.53-17.37-17.26-26.08C286,106.32,283,101.75,279.56,96.51Z"/></svg>