<svg id="Слой_1" data-name="Слой 1" xmlns="http://www.w3.org/2000/svg" viewBox="0 0 566.93 566.93"><path d="M451.19,512c-17.9,0-35.8.06-53.69,0a14.06,14.06,0,0,0-9.84,3.28c-5.27,4.44-11.35,5.15-17.53,2-2.52-1.29-4.51-1.46-7,0a13.63,13.63,0,0,1-14.84-.17,6,6,0,0,0-6.65-.1c-6.83,3.76-13,2.63-19-2.33a11.56,11.56,0,0,0-6.74-2.52q-31.53-.3-63.09,0a13,13,0,0,0-7.15,2.67c-6.18,4.67-12.43,5.89-19.59,2.32a7.28,7.28,0,0,0-5.63,0c-5.54,2.7-10.75,2.77-16.26-.11a6.6,6.6,0,0,0-5.19.14c-6.77,3.37-13.19,2.83-18.76-2-2.9-2.51-5.75-3.14-9.3-3.14q-53.91.1-107.84,0a53.27,53.27,0,0,1-7.57-.49c-11.68-1.74-17.8-13.35-12.43-23.85,6-11.67,12.24-23.2,18.3-34.83Q121.7,337,182,221.28q41.67-79.87,83.56-159.64A52.84,52.84,0,0,1,269,55.88c7.87-11.15,22.49-11.09,29.8.46,4.53,7.16,8.31,14.81,12.24,22.34q96,183.9,192,367.83,9.93,19,19.9,38c7.48,14.28-.09,27.26-16.25,27.42-18.5.18-37,0-55.49,0ZM150.42,310.87c5.9,0,10.81-.09,15.71,0,5.84.14,5.88.21,5.39-5.46-1.82-20.65,4.7-37.85,21-51.05,16.63-13.48,40.76-14,56.74-1.22,1.08.87,1.56,2.49,2.32,3.76-1.4-.15-3,.1-4.17-.5a43.1,43.1,0,0,0-27.8-4.34c-24.84,4.42-41.39,27.58-38.07,52.92,3.21,24.44,25.21,41.26,50.69,38.58a12.88,12.88,0,0,1,8.4,1.86c28.27,16.42,56.79,17,85.31.67A16.07,16.07,0,0,1,336,343.7c31.88,3.05,55.4-22.17,50.22-53.68-5.05-30.75-38.5-47.64-66.07-33.38a6.48,6.48,0,0,1-2,1,3.45,3.45,0,0,1-2.28-.58c-.27-.21-.06-1.44.31-1.94A11.19,11.19,0,0,1,318.5,253c14.51-11.24,36.36-12.36,51.71-2.34,19.15,12.5,28.08,30.23,26.42,53.17-.16,2.15,0,4.32,0,6.6H417.4c-1-2-1.63-3.44-2.37-4.86-11.91-22.87-23.95-45.68-35.67-68.65-2.67-5.24-6.29-7.42-12-7.32-13,.23-26,.22-38.93.23q-64.46.06-128.9,0c-4.78,0-8.1,1.26-10.45,5.84-12.1,23.61-24.46,47.09-36.71,70.63C151.77,307.47,151.35,308.7,150.42,310.87Zm304.52,71.82a7.33,7.33,0,0,0-.28-1.41Q439,351.64,423.28,322c-1.32-2.5-3.34-3.1-5.92-3.06-5.51.08-11.07.45-16.54,0s-8.52,1.6-11.2,6.49c-9.41,17.17-24,27.55-43.74,28.14a64.11,64.11,0,0,0-39.41,14.85c-13.64,11.06-29.66,10.53-43.71.92a197,197,0,0,0-22.92-13c-3.19-1.6-7.07-2-10.7-2.53-6.14-.93-12.52-.84-18.46-2.44-15.43-4.16-26.13-14.44-33.61-28.23-1.63-3-3.57-4.34-7-4.21-6.25.24-12.53.26-18.78,0-3.81-.17-6,1.24-7.74,4.6-9.69,18.65-19.57,37.2-29.36,55.8-.57,1.07-1,2.23-1.63,3.77,12.76,0,24.83.05,36.91-.07a7.42,7.42,0,0,0,3.08-1.2c-3-7.23-6.53-13.55-8.27-20.32-2.35-9.12-.54-17.81,6.78-24.61,9.77-9.06,25.43-5.3,29.1,7,2.86,9.52-4.78,19.62-14.34,19-3.91-.27-7.18-2.53-7.61-5.74-.2-1.48.05-3.59,1-4.48.76-.74,3.08-.56,4.3,0,3.09,1.53,5.32.59,6.84-2s.75-5.22-1.67-7.12c-3.37-2.68-9-1.89-12.08,1.74a14.26,14.26,0,0,0-3.21,11.28,30.9,30.9,0,0,0,11,20.35c7.83,6.8,17.14,10.7,27,13.36,21.84,5.89,44.17,8.53,66.71,9.42,35.83,1.41,71.56.94,106.84-6.72,12.12-2.63,24.08-5.75,34.65-12.63,7.52-4.89,12.94-11.45,15-20.34,1.27-5.43,1.11-10.71-3-15.13-3.48-3.76-9.2-4.18-12.38-.88-1.81,1.87-2.56,4-1.16,6.48s3.54,2.74,6.16,2.2a25.7,25.7,0,0,1,5.19,0c-.36,2.36,0,5.28-1.23,7-2.39,3.22-6.16,3.92-10.11,2.65-6.9-2.23-11-8.91-10.17-16.46.78-6.78,7.38-13.07,14.48-13.8,10.19-1.06,19.08,5.51,21.66,16,2.74,11.17-.77,20.84-7,29.9a19.24,19.24,0,0,0-1.62,3.83c1.36.43,2.72,1.24,4.08,1.25,11,.12,22.07.1,33.11.09A16.33,16.33,0,0,0,454.94,382.69Zm-261.52,80.5c4.29-.8,7.88-1.71,11.54-2.1,5.89-.63,5.93-.48,6.48-6.43A72.88,72.88,0,0,1,226,416.35a35.65,35.65,0,0,1,3.58-4c1.73-1.68,3.16-1.27,4.18.86,1.79,3.72,1.33,7.12-1.07,10.49-6.91,9.71-10.27,20.71-11.69,32.44-.43,3.47.26,5.53,4.07,6.5,7.56,1.92,13.61,6.32,19,12a19.07,19.07,0,0,0,8.59,5c21.5,5.63,43.1,4.86,64.61,0a12.23,12.23,0,0,0,6.07-4A40.63,40.63,0,0,1,341.48,463c6-2.05,6-2.14,5.13-8.57-1.52-11.26-5.1-21.72-11.76-31-2-2.84-2.82-5.85-1.48-9.26s2.67-3.84,5.08-1.26a62,62,0,0,1,7.13,9.12,73.91,73.91,0,0,1,11.12,34.53c.14,1.95,0,4,2.74,4.36,4.67.62,9.34,1.27,14.35,1.95a12.79,12.79,0,0,0,.68-2.71c.75-18.7-3.49-36-14-51.72-2.18-3.25-4.63-3.87-8.29-3.48-15.1,1.58-30.21,3.45-45.37,4.16-30.72,1.44-61.4.66-91.85-4.24-3.56-.57-5.9.45-7.89,3.46a84.86,84.86,0,0,0-12,27.75A79.42,79.42,0,0,0,193.42,463.19ZM283,174v.06c9.4,0,18.8-.06,28.2,0,3.55,0,6.16-1,8.28-4.13,3.62-5.29,7.54-10.38,11.55-15.38,2.13-2.66,2.47-4.94.78-8.08-14.42-26.77-28.65-53.65-43.08-80.42-1-1.91-3.31-4.62-4.77-4.48-1.95.18-4.32,2.45-5.38,4.43-14.49,27.07-28.76,54.26-43.17,81.37-1.4,2.63-1.13,4.66.65,6.94,4.11,5.3,8.17,10.65,12,16.13a7.81,7.81,0,0,0,7.16,3.57C264.47,173.93,273.72,174,283,174Zm96.71,249a4,4,0,0,0-.22,1.21c.29,1.3.59,2.61,1,3.88,3.77,12.41,5.36,25,3.68,38a7.22,7.22,0,0,0,1.84,5c6.2,6.85,10.52,14.38,10.44,24a4.47,4.47,0,0,0,1.57,3.34c3.54,2.33,13.06-.4,15.24-4.19q19.17-33.32,38.32-66.65c.77-1.35,1.38-2.8,2.24-4.56Zm-266.12,0c.82,1.61,1.35,2.79,2,3.9,8.73,15.08,17.52,30.13,26.22,45.23,3.79,6.58,7.35,13.3,11.12,19.89,3,5.28,7.59,7.74,13.77,7.18,3.21-.3,4.64-1.61,4.63-5.09a30.23,30.23,0,0,1,9.08-21.7,9.21,9.21,0,0,0,2.77-8,91.07,91.07,0,0,1,4.4-38.34A16,16,0,0,0,188,423Zm34.57,75.2a14.69,14.69,0,0,0-.64-1.78c-12.67-21.75-25.21-43.59-38.1-65.21-5.26-8.81-16.47-8.57-21.49.4-7,12.48-13.57,25.18-20,37.93-.8,1.58-.46,4.45.47,6.06,3.88,6.7,8.26,13.11,12.31,19.71,1.43,2.33,3.26,3.09,5.92,3.07,11-.1,22.06,0,33.09-.05a31.68,31.68,0,0,0,3.64-.49c-2.47-4.09-4.5-7.73-6.8-11.19-1.86-2.77-1.31-4.56,1.52-6.12,1.89-1,3.6-2.4,6-4L96,451c-3.88,4-7.12,7.45-10.6,10.69-.84.78-2.47.73-3.74,1.07.21-1.29,0-3,.7-3.8,3.55-4,7.39-7.77,11.08-11.67,1.66-1.76,3.29-1.79,5-.21l29.86,27c2.06,1.86,1.82,3.41-.34,5.08-2.37,1.84-6.13,3.74-6.38,5.94-.28,2.51,2.62,5.39,4.15,8.11a20.91,20.91,0,0,0,1.83,3.07c.64.76,1.57,1.77,2.39,1.8C135.88,498.25,141.77,498.18,148.13,498.18Zm294.72.13c14,0,26.81.08,39.59-.11,1.29,0,3-1.35,3.77-2.55,4.37-6.75,8.66-13.56,12.63-20.55a7,7,0,0,0,.31-5.73c-6.46-12.58-13-25.14-20-37.45-5.34-9.43-15-9.53-21.25-.65-.59.85-1.13,1.75-1.66,2.65q-17.5,30.15-35,60.31c-.62,1.06-1.09,2.22-1.93,4,5.92,0,11.11.15,16.28-.1,1.21-.06,2.61-1.24,3.48-2.27a29.22,29.22,0,0,0,2.69-4.62c3.95-6.9,4-6.95-2.13-11.73-2.21-1.73-2.86-3.32-.54-5.4,10.07-9.09,20.08-18.24,30.27-27.19a4.23,4.23,0,0,1,4.11.06c4.08,3.92,7.93,8.09,11.66,12.34.65.74.33,2.31.46,3.5-1.15-.23-2.65-.08-3.4-.76-2.53-2.3-4.8-4.88-7.16-7.37-3.22-3.4-3.9-3.45-7.26-.39q-10.1,9.18-20.14,18.39c-1.17,1.07-2.19,2.3-3.65,3.85,1.63,1.3,2.82,2.35,4.12,3.25,4.17,2.89,4.18,2.87,1.45,7.36C447.53,490.5,445.49,493.91,442.85,498.31ZM228.49,221.74h112.4c-1.75-3.08-3.41-5.55-4.61-8.22-2.47-5.47-6.7-7.64-12.51-7.52-6.11.13-12.22.08-18.33.08q-30.65,0-61.28,0c-3.25,0-6.4.25-8.32,3.26C233.38,213.19,231.16,217.2,228.49,221.74Zm-1.27,272.78h.17c0,2.24-.15,4.49,0,6.71.25,3.13,1.9,5.35,5.07,6s5.85-.17,7.43-2.84a15.32,15.32,0,0,0,2.1-6.65c.56-10.49-6.39-20.79-16.6-24.73a38.94,38.94,0,0,0-29.65.56c-7,2.88-11.93,8.05-13.66,15.5a31.48,31.48,0,0,0-.4,11,8.89,8.89,0,0,0,9.27,7.4c4.16-.4,5.63-2.6,5.74-8.47.07-3.72-.13-7.5.48-11.14.24-1.41,2.32-3.4,3.65-3.47s3.18,1.63,4.12,3c.74,1.08.53,2.87.57,4.35.09,3.27-.4,6.66.27,9.8.42,2,2.16,4.49,3.93,5.19a7.76,7.76,0,0,0,6.48-1.06c1.47-1.12,2.15-3.82,2.37-5.91.41-3.84.12-7.75.35-11.62.15-2.57,1.63-4.14,4.37-4,2.53.1,3.74,1.68,3.88,4.05C227.31,490.35,227.22,492.44,227.22,494.52Zm144,.55h.18c0,2.09-.16,4.19,0,6.26.5,5.53,6.06,8.35,10.33,4.87a12.64,12.64,0,0,0,4.32-7.35c1.27-10.06-2.42-18.58-11.25-23.52-12.49-7-25.48-6.84-37.74.9-8.17,5.16-12.8,16.56-10.88,24.84a7.84,7.84,0,0,0,8.42,6.4c3.86-.33,5.83-2.72,6-7.48.1-3.43,0-6.86.06-10.29.06-2.67.54-5.29,3.89-5.52,3.61-.25,4.5,2.44,4.73,5.26.28,3.41.22,6.85.34,10.28.17,5.25,2.36,7.84,6.52,7.78s6.37-2.69,6.52-7.93c.1-3.57.05-7.15.12-10.73.06-2.71,1.17-4.71,4.17-4.75s4.06,2.12,4.24,4.73C371.38,490.89,371.27,493,371.27,495.07ZM240.91,199.75h87.51c-2.63-4.67-4.77-8.75-7.17-12.68a10.41,10.41,0,0,0-9.37-5.13q-27.53,0-55.05,0c-3.5,0-6.52,1.29-8.37,4.31C245.92,190.43,243.67,194.79,240.91,199.75ZM436.77,391.54a23.21,23.21,0,0,0-3.71-.73c-9.83,0-19.66-.08-29.48.09a20.83,20.83,0,0,0-6,1.54c-7.88,2.65-15.73,5.39-23.6,8.07-1.88.63-3.8,1.12-5.95,1.75,2.13,3.63,3.68,6.9,5.83,9.7a7.56,7.56,0,0,0,5,2.9q20.1.39,40.2.08c1.79,0,4.31-1.09,5.22-2.5C428.55,405.84,432.39,399,436.77,391.54Zm-237.51,11c-.88-.41-1.5-.77-2.17-1-9.39-3.24-18.78-6.5-28.2-9.66a18.85,18.85,0,0,0-5.62-1.13c-9.07-.12-18.16-.07-27.24,0a43,43,0,0,0-4.69.67c4.68,7.84,8.83,15,13.27,22,.58.92,2.61,1.29,4,1.29q20.32.1,40.64-.08a5.15,5.15,0,0,0,3.72-1.62C195.22,409.73,197.11,406.19,199.26,402.58Zm42.43-220.67c-7.3,0-13.8.14-20.3,0-3.12-.1-4.83,1.08-6.24,3.84-5.55,10.87-11.33,21.63-17,32.44-.58,1.1-1,2.3-1.64,3.94,6.92,0,13.18-.18,19.41.08,3.22.13,4.83-1.25,6.24-3.88,5.71-10.62,11.57-21.16,17.35-31.74C240.2,185.3,240.73,184,241.69,181.91Zm130.09,40.2c-6.72-12.89-12.7-24.81-19.12-36.49-2.09-3.79-6-5.05-10.46-4.17a49.16,49.16,0,0,1-8,.46c-2,.06-3.93,0-5.89,0,0,1.17-.11,1.52,0,1.74,6.68,12.1,13.33,24.22,20.15,36.23a5,5,0,0,0,3.56,2.13C358.27,222.23,364.49,222.11,371.78,222.11ZM96.72,414.24h39.76c-2.63-4.57-4.83-8.43-7.09-12.25a44.35,44.35,0,0,0-3.15-4.86c-5.61-7.16-14.75-7.27-20,.21C102.74,402.41,100.13,408.11,96.72,414.24Zm374.18.26c-3.54-6.39-6.31-12.16-9.8-17.47-4.08-6.23-13.09-7.18-17.74-1.48s-7.82,12.08-12.15,18.95Zm-218.26,84c1.65.07,3.25.2,4.85.2q15.64,0,31.3,0h23.7c1.84,0,3.58.06,3.82-2.56.32-3.51.89-7,1.41-10.89l-22.38,3.42c.05,2.53.51,4.77-.11,6.64-.22.67-3.45,1.2-4.62.55-3.11-1.72-1.91-4.39-.16-6.87h-9.93c-.52,2.58-.62,4.91-1.57,6.82-.31.61-3.35.69-4.33-.05-2.74-2.09-1-4.59.39-6.72l-24.64-3.65C251.14,489.81,251.86,494,252.64,498.51Zm250.73-21.84c-4.66,7.32-8.87,13.93-13.52,21.21,7.12,0,13.19.14,19.24-.06,3.11-.1,4.31-2,2.94-4.83C509.46,487.7,506.53,482.58,503.37,476.67ZM63.64,477c-3,5.81-5.84,10.88-8.39,16.08-1.53,3.11-.76,4.7,2.6,4.85,6.2.26,12.43.07,19.56.07ZM346.72,173.7l-10.53-19.38L321.72,173.7Zm-101.33,0-14-18.78-10.06,18.78Z"/><path d="M337.82,262.35c19.44-.07,36,16.4,36,35.89s-15.73,35.62-35,35.78c-19.62.16-36.08-16.09-36.09-35.64C302.79,278.33,318.26,262.42,337.82,262.35Zm-15.11,49.49c5.38,6.4,17.29,7.3,25.65,3s14.43-13.75,13.14-20.32c-4.52-.78-7.08.92-9.24,5.22-4,8-11.32,11.51-20.06,12.09C329,312,325.76,311.84,322.71,311.84Zm10.05-31.22a8.73,8.73,0,0,0-8.49-9.1c-4.91-.07-9.4,4.55-9.28,9.56a8.83,8.83,0,0,0,9.2,8.43C329.25,289.45,332.74,285.83,332.76,280.62Zm17.79-7.25c-.09,7.12,3.59,11,8.79,10.47,4-.39,5.89-3.56,3.78-6.88A23.22,23.22,0,0,0,357.3,271c-1.23-.89-3.54-1.44-4.78-.87S350.82,272.88,350.55,273.37Z"/><path d="M194.6,298.22a35.87,35.87,0,0,1,35.78-35.85c19.39,0,35.19,16.2,35.13,36a35.94,35.94,0,0,1-36,35.67C210.74,334.09,194.53,317.46,194.6,298.22Zm60.27-4.75c-3.91-.65-6.6-.56-8.38,3.11-5.65,11.71-13.5,16.09-26.56,15.2l-4.41-.32c7.93,6.9,16.56,7.59,25.45,3.26C249.5,310.56,254.26,303.64,254.87,293.47Zm-29.63-12.73a8.91,8.91,0,0,0-8.92-9.16,9.28,9.28,0,0,0-8.82,9,8.74,8.74,0,0,0,9,9A8.57,8.57,0,0,0,225.24,280.74Zm16-7.69c-.18,6.44,3.32,10.51,8,10.5,3.18,0,5.84-2.24,5.88-4.93,0-3.47-6.27-9.75-9.93-9.7C241.76,269,241.28,271.48,241.25,273.05Z"/><path d="M283.58,318.51c4.17,0,8.34,0,12.51,0,3.35,0,4.7,1.78,4.71,5.09,0,8.86-8.26,16.87-17.5,16.73-8.79-.14-17.14-8.61-16.83-17.08.11-3,1.38-4.79,4.61-4.78,4.16,0,8.33,0,12.5,0ZM296,323.64H271.22c.54,7.06,5.72,12,12.19,12.09C290.11,335.8,295.49,330.81,296,323.64Z"/><path d="M363.91,366,376,377.08c4-4,7.62-7.77,11.33-11.4,1.17-1.14,2.52-3.36,4.24-1.09.54.72-.15,3.09-1,4.05-3.79,4.2-7.86,8.14-11.8,12.21-1.79,1.85-3.49,1.9-5.39.11-4.89-4.59-9.84-9.11-14.74-13.67-2-1.83-1.58-3.24.26-5.21a43.07,43.07,0,0,0,6.7-9.14c3.06-5.83,7.79-7.32,13.12-3.37a28.57,28.57,0,0,1,5.13,4.94c.53.65.11,2.09.12,3.16-1-.1-2.33.14-3.08-.38-1.58-1.09-2.76-2.72-4.29-3.89-3.23-2.45-5.71-1.46-7.25,2.22C368,358.91,366,362,363.91,366Z"/><path d="M308.64,373.54c-11.81,17.29-37.25,16.63-49.34-.16l-.07.07c1.29.68,2.65,1.25,3.87,2q22,14.14,43.25-1.2c.59-.43,1.27-.75,1.9-1.12Z"/><path d="M193.7,346.38a3.67,3.67,0,0,1,1.74.32,16.35,16.35,0,0,1,2.21,2.4c-.86.65-1.71,1.84-2.56,1.84-4.14,0-6.24,2-7.18,5.92-.26,1.11-1.67,1.94-2.56,2.9-.5-1.14-1.38-2.26-1.43-3.42A9.81,9.81,0,0,1,193.7,346.38Z"/><path d="M438.07,377.75h-7.46c1.12-2.53,2-4.4,2.8-6.28l1.15-.21Z"/><path d="M139.4,377.82H132c1.17-2.42,2.06-4.28,3-6.13l1.17-.08Z"/><path d="M259.3,373.38l-.3-.12.23.19Z"/><path d="M309.47,372.57l-.07-.08Z"/><path d="M308.25,373.17l1.22-.6-.07-.08-.76,1.05Z"/><path d="M332,439.3c-.15,6.49-2.91,11.64-6.84,16.24-20.53,24.08-61.46,24.27-82.15.37-4.11-4.74-7.28-10-7.5-16.76,11.18,18.15,27.16,27.77,48.47,27.77S321.15,457.68,332,439.3Z"/><path d="M356.79,420.54c5.88,6.88,8.8,14.93,10,23.65a58,58,0,0,1,.52,9.31c0,.81-1.4,1.59-2.15,2.38-.75-.76-2.09-1.46-2.16-2.28C362,442.39,360.93,431.22,356.79,420.54Z"/><path d="M211.38,419.79c-1.74,6.86-3.67,13.69-5.13,20.61-.86,4.05-.85,8.29-1.49,12.41-.17,1.08-1.3,2-2,3-.8-.88-2.31-1.76-2.3-2.63C200.63,440.93,203.66,429.52,211.38,419.79Z"/><path d="M304.15,148.78c-2.18-1.82-3.48-2.78-4.64-3.89-3.85-3.69-4.81-4-9.13-.73s-8.41,4.05-12.86.34c-3.31-2.75-6.45-2.49-9.34.86-.93,1.08-2.25,1.81-4.16,3.32a72.29,72.29,0,0,1-2.68-6.91c-1.14-4.11-3.38-6.47-7.93-6.26-1,0-2-.75-3.06-1.16.51-1,.77-2.25,1.55-2.89,9.86-8.17,19.8-16.23,29.67-24.38,1.8-1.49,3.31-1.53,5.13,0,9.93,8.07,19.93,16.06,29.82,24.18.87.71,1.14,2.14,1.69,3.23a13.43,13.43,0,0,1-3.16,1c-5.08.34-6.73,1.58-8.35,6.44C306,143.9,305.22,145.9,304.15,148.78ZM307,129.49c-6.48-5.25-13.47-11-20.65-16.59a4.38,4.38,0,0,0-4.14-.1c-7.17,5.56-14.15,11.38-20.82,16.83l5,9.22c5.09-3.94,5.92-4.1,9.22-1.91,7.68,5.09,9,5.14,16.33.07,2.55-1.75,4.86-2,7.28.13a25.06,25.06,0,0,0,2.37,1.69C303.39,135.66,305.1,132.74,307,129.49Z"/><path d="M305.12,161.22l3-6.49c3,1.4,4.67,3.79,3.91,6.16-.34,1.08-4,1.09-6.21,1.59Z"/><path d="M278.1,167.05l3.38-7.87,5.28,7.87Z"/><path d="M252,160.32l5-6.36c1.38,1.86,2.75,3.72,4.69,6.36Z"/><path d="M392.49,454.28l3.58-5.16,4.31,5.16-.81.92h-5.86Z"/><path d="M171.28,447.65l2.77,6.57h-7.76c1.22-2.65,2.16-4.71,3.1-6.76Z"/><path d="M95,483.24l-6.6.58a41.49,41.49,0,0,1,2.37-4.88,46.61,46.61,0,0,1,4.06-4.61c1.89,3.65,3.49,6.66,5,9.72a1.61,1.61,0,0,1-.64,1.46,2.3,2.3,0,0,1-2,0A17.05,17.05,0,0,1,95,483.24Z"/><path d="M467.12,483.84a59.7,59.7,0,0,1,4.1-7.42c.39-.54,2.91-.33,3.69.37a19.5,19.5,0,0,1,3.57,5c.33.6-.07,1.62-.14,2.44-.81-.08-1.87.14-2.38-.3-2.27-1.92-3.89-1.49-5.46.89a2.66,2.66,0,0,1-2.17.75C467.91,485.56,467.59,484.56,467.12,483.84Z"/><path d="M311.07,493.47c-1.42.92-2.94,2.68-4.24,2.54a5.25,5.25,0,0,1-3.6-3.35c-.54-2.43,1.38-4.09,3.76-3.67,1.49.26,2.75,1.88,4.11,2.89Z"/><path d="M268.14,492.89c-2.61,1.61-4,3-5.54,3.29-2.25.37-3.62-1.19-3.56-3.54.06-2.51,1.54-4.16,4-3.65C264.51,489.32,265.73,491,268.14,492.89Z"/></svg>