<svg id="Слой_1" data-name="Слой 1" xmlns="http://www.w3.org/2000/svg" viewBox="0 0 566.93 566.93"><defs><style>.cls-1{fill:#61b66c;}</style></defs><path class="cls-1" d="M505.58,516.13c-1.81-3.94-3.83-7.77-5.83-11.61q-49.5-95.17-99.09-190.31c-1.67-3.21-2-5.87-.6-9.4a59.84,59.84,0,0,0,2.82-37.41c-.95-3.92-.25-6.74,2.12-10,9.4-12.76,10.42-25.79,1.67-39.71-10.85-17.26-20.85-35.06-31.38-52.53Q338,103.27,300.48,41.45A26.53,26.53,0,0,0,295.24,35c-8.38-7.16-19.29-4.8-25.77,5.94Q215,131.14,160.67,221.51a29.12,29.12,0,0,0-4.08,16.84c.35,7.27,3.23,13.54,7.53,19.2a10.12,10.12,0,0,1,2,9.32,61.2,61.2,0,0,0,2.44,37.46,9.8,9.8,0,0,1-.51,8.77q-33.66,64.22-67.18,128.5C88.22,465.87,75.44,490.09,63,514.48,56.47,527.28,62.09,536,76.4,536H283.59v0H398.51q47.17,0,94.36,0C504.9,536,510.6,527,505.58,516.13ZM251.09,381.52a5.43,5.43,0,0,1-2.5.78A5.43,5.43,0,0,0,251.09,381.52Z"/><path d="M282.82,536H75.63c-14.31,0-19.93-8.73-13.4-21.53,12.44-24.39,25.22-48.61,37.88-72.88q33.56-64.28,67.18-128.5a9.8,9.8,0,0,0,.51-8.77,61.27,61.27,0,0,1-2.44-37.46,10.12,10.12,0,0,0-2-9.32c-4.3-5.66-7.18-11.93-7.53-19.2a29.12,29.12,0,0,1,4.08-16.84q54.38-90.3,108.8-180.59c6.48-10.74,17.39-13.1,25.77-5.94a26.53,26.53,0,0,1,5.24,6.47q37.49,61.83,74.81,123.75c10.53,17.47,20.53,35.27,31.38,52.53,8.75,13.92,7.73,27-1.67,39.71-2.37,3.22-3.07,6-2.12,10a59.84,59.84,0,0,1-2.82,37.41c-1.43,3.53-1.07,6.19.6,9.4Q449.53,409.33,499,504.52c2,3.84,4,7.67,5.83,11.61,5,10.91-.68,19.87-12.71,19.89q-47.18.08-94.36,0H282.82Zm-22.73-22.65,0-.05C271,525.87,271,525.87,287.15,526a26.2,26.2,0,0,0,3.76-.07,4.58,4.58,0,0,0,2.62-1c3.32-3.51,6.5-7.14,10.28-11.34-4.6.24-8.3.64-12,.58C281.24,514,270.67,513.65,260.09,513.36Zm106.63-46.18a23.84,23.84,0,0,0-2.8.69C354.11,471.4,345,470,336.6,464c-.76-.55-1.58-1-3.41-2.18.57,10.06,1.09,19.23,1.6,28.2,6.6-1,12.46-1.92,18.31-2.89a2.74,2.74,0,0,0,1.75-1c4-6.3,7.87-12.65,11.79-19l.15-.24Zm20.09,49.41,7.38-5.86.69.78c-4,4.52-8,9-12.21,13.8,7.1,1.59,12,0,16.73-5,12.6-13.27,25.8-26,38.79-38.87a30.07,30.07,0,0,1,3.48-2.61l.67.87L400.22,526a43.79,43.79,0,0,1,5.52,0c7,1.05,12-1.63,16.9-6.7,12.81-13.27,26.19-26,39.35-38.92.81-.79,1.76-1.42,2.64-2.13l.87.93-43,46.73c5.28,0,9.3-.16,13.29.06,3.38.18,5.77-1.07,8-3.54,10.28-11.24,20.7-22.35,31.08-33.49,1.57-1.69,3.32-3.43,1.74-5.84-1.85-2.81-2.05-7.11-7.1-7.09-30.47.12-60.94.06-91.41.15a5,5,0,0,0-3.63,1.4c-2.26,3.13-4.14,6.53-6.34,10.12,13.54,5.24,20.42,14.39,18.71,28.92ZM290,360.64a38,38,0,0,0,4.57,0c13.67-1.9,27.52-3,40.94-6,11.91-2.67,23.36-7.42,35-11.34,2.46-.83,4.68-2.14,4.2-5.39-1.21-8.27,1.52-15.45,6.33-21.94,9.92-13.43,13.22-28.33,10.7-44.76-4-26.23-31.09-45.9-57.33-41.82C316.23,232.16,301.25,240.49,289,254c-4.67,5.15-5.9,5.1-10.61-.08a75.49,75.49,0,0,0-41-23.77c-26.58-5.63-53.21,9.63-60.54,34.71-9.59,32.82,10,64.47,43.64,70.41a31.49,31.49,0,0,1,4.35,1.41l-.4,1.77c-11.23,2.25-21.61-1.15-31.74-6.14-2.12,9.24-1.71,10.09,6.45,13.5a205.3,205.3,0,0,0,59.59,14.5c3.63.35,7.32.05,11.09.05-1-4.06-2.08-7.68-2.79-11.36-.63-3.23,1.53-5.9,4.25-5,1.59.53,3.1,2.54,3.81,4.23,1.17,2.8,1.51,5.93,2.52,8.81.36,1,1.62,2.29,2.52,2.33s2.08-1.33,2.43-2.33a65.71,65.71,0,0,0,2.44-8.84c.55-2.69,1.7-4.63,4.67-4.15,3.27.53,3.74,3.05,3.14,5.78C292,353.25,291.07,356.6,290,360.64ZM246.46,219.71c-1.37-8.12-2.81-16.69-4.26-25.26l1-.24c.41,1.1.89,2.18,1.22,3.3,2.1,7.1,4,14.27,6.35,21.27a9.09,9.09,0,0,0,4.26,5,89.28,89.28,0,0,1,26.47,17.41,17.93,17.93,0,0,0,2.24,1.58A8,8,0,0,0,285,242a90,90,0,0,1,30.83-19.78c1.6-.6,3.07-2.8,3.65-4.56,2.12-6.5,3.83-13.13,5.73-19.71.39-1.35.91-2.67,1.38-4l1,.29c-1.21,8.31-2.43,16.62-3.58,24.45h29.68l-15.91-31,1-.57c1.21,1.66,2.51,3.27,3.63,5,5.2,8,10.13,16.09,15.63,23.83a21.39,21.39,0,0,0,8,6.86A62,62,0,0,1,392,244.11c1.31,1.91,2.66,3.8,4.06,5.8,6.24-7.73,6.81-16.71,1.73-25.39-7.76-13.26-15.69-26.42-23.37-39.73-1.92-3.33-4.32-4.57-8.12-4.57q-81.16.14-162.31-.06c-5.75,0-9,1.65-11.82,6.75-7.29,13.2-15.33,26-22.88,39.05-4.7,8.12-3.49,18.27,2.55,23.43a62,62,0,0,1,32.07-27.63c1.64-.63,3-2.43,4.05-4,6-9.26,11.84-18.63,17.75-27.95.78-1.23,1.7-2.37,2.56-3.55l1,.57-15.28,31ZM283.84,474c1.31-1.76,2.07-2.94,3-4q8.63-9.73,17.3-19.4,9.69-10.74,19.47-21.37c2-2.18,4.47-3.49,7.51-2.25s3.19,3.86,3.23,6.65a59.76,59.76,0,0,0,.64,9.18,19.4,19.4,0,0,0,19.24,16,18.59,18.59,0,0,0,18.34-16.34c2.15-14.72-2.1-28.17-8.49-41.17-1.12-2.28-2.58-1.75-4.5-1.28-11.91,2.94-23.9,5.59-35.76,8.7a15.82,15.82,0,0,0-7.29,4.33c-9.72,10.6-19.16,21.47-28.72,32.23-4.22,4.76-4.84,4.75-9,.09-9.91-11-19.78-22.05-29.81-32.94a11.69,11.69,0,0,0-5.49-3.34q-18.48-4.51-37.09-8.48c-1.19-.26-3.45.57-3.94,1.54-6.1,12.19-9.61,25.05-8.24,38.79,1,10.4,8.83,17.67,18.38,17.87,10,.2,18-6.69,19.54-17.08.43-2.88-.16-5.92.39-8.76.41-2.1,1.48-5.13,3-5.69,1.84-.68,4.62.51,6.73,1.47,1.43.64,2.43,2.26,3.56,3.49q11.86,13,23.7,26.05C274,463.24,278.5,468.16,283.84,474Zm-83-301.5h166c-1-1.77-1.57-3-2.26-4.15-4.22-7.07-8.59-14.06-12.61-21.24-1.58-2.81-3.42-3.82-6.64-3.8-20.11.14-40.22.08-60.34.07-20.81,0-41.62-.07-62.43.06-1.86,0-4.58.67-5.42,2C211.61,154.1,206.47,163,200.84,172.5Zm42.84,267c0,3,0,5,0,7.06-.28,15.62-.47,31.25-.94,46.86-.1,3.45,1.37,4.74,4.37,5.4a166.9,166.9,0,0,0,72.72.16c3.5-.77,4.22-2.25,4.08-5.68-.55-14.5-.72-29-1-43.52-.06-3.12,0-6.24,0-10.36-12.37,13.73-23.94,26.6-35.55,39.43-3.44,3.8-4.08,3.8-7.56,0-9.06-9.9-18.06-19.85-27.11-29.75C249.91,446.1,247.06,443.14,243.68,439.54Zm16.77-304.06h42.71c-2.47-5.25-4.7-10-6.93-14.77s-4.53-9.7-6.79-14.56l.89-.51c.85,1.18,1.77,2.31,2.54,3.55,4.24,6.89,8.77,13.63,12.57,20.76,2.49,4.7,5.63,7,10.85,5.87,2.2-.46,5-.54,6.37-1.95a118.91,118.91,0,0,0,10.39-13.11,5,5,0,0,0,.36-4.45c-5.79-10-11.64-20-17.85-29.79-3.83-6-12.42-6.13-16.83-.58-3.91,4.92-7.67,10-11.51,14.92C278.45,112.22,269.67,123.56,260.45,135.48ZM146.9,525.86l-38.07-42.31.88-.9c1.38,1.23,2.81,2.42,4.13,3.72q18.87,18.48,37.72,37c1,.95,2.15,2.28,3.29,2.34,5.19.25,10.41.11,15.94.11a9.34,9.34,0,0,0-.8-1.72c-13.26-15.31-26.5-30.65-39.89-45.86a7.18,7.18,0,0,0-4.71-2c-9.22-.31-18.44-.32-27.66-.5a6.37,6.37,0,0,0-6.57,4.18,29.87,29.87,0,0,1-2,4.17c-1.31,2.12-1,3.73.69,5.59,10.08,11.23,20,22.58,30.12,33.8a6.78,6.78,0,0,0,4.15,2.32C131.41,526,138.65,525.86,146.9,525.86ZM387.29,390.48l.74-.84c1.21,1.05,2.49,2,3.61,3.16,5.41,5.45,10.67,11.07,16.25,16.34a9.64,9.64,0,0,0,5.79,2.41c7.26.28,14.53.13,21.8.09a34.37,34.37,0,0,0,3.51-.44c-9.09-17.56-17.93-34.66-26.82-51.73-.41-.78-1.32-1.83-2-1.84-7-.14-14-.09-21.75-.09,1.28,1.47,1.94,2.18,2.55,2.93,6.27,7.56,6.49,16-.41,23-3.72,3.78-8.73,6.31-13.19,9.34a41.47,41.47,0,0,1-3.64,2c2.14,5.14,4,9.8,6.05,14.37.44,1,1.6,2.29,2.46,2.31,6.89.19,13.79.11,21.67.11ZM161.66,411.66c8.22,0,15.2.13,22.17-.12,1.2-.05,2.77-1.51,3.4-2.71,1.54-3,2.28-6.35,4-9.19,2-3.3,1.1-4.57-2.09-6.3-4.84-2.63-9.91-5.44-13.68-9.33-7.32-7.55-6.7-17.05.6-24.66.42-.44.76-1,1.52-2-6,0-11.27.24-16.53-.08-4-.25-6.12,1.37-7.86,4.76-7.84,15.29-15.88,30.47-23.83,45.69-.55,1.07-1,2.19-1.73,3.84,5.66,0,10.83-.45,15.9.1,8.55.93,15.13-1.68,20.64-8.38,3.06-3.71,7.26-6.49,10.94-9.69l.87.94C171.44,400,166.91,405.39,161.66,411.66Zm221-44.1c-3.67,2.52-6.6,5.57-10.16,6.81-18.34,6.34-37,11.59-56.29,14.28-41.64,5.79-82.13,1.73-121.46-13.3-4.41-1.69-8.49-3.67-10.3-8.52-3.72,3.55-4.07,6.48-.8,9.76a22.09,22.09,0,0,0,6.77,4.81c9.1,3.85,18.11,8.21,27.59,10.83,34.85,9.63,70.25,10.68,105.86,4.89,18.26-3,36.06-7.6,52.47-16.48a23.77,23.77,0,0,0,6.48-5.14C385.41,372.49,384.94,369.9,382.62,367.56ZM293.43,82.2c-12.64,0-24.07-.11-35.5.14-1.53,0-3.55,1.55-4.44,3-6.2,9.78-12.12,19.74-18.23,29.57-1.5,2.39-1.33,4.25.47,6.39,3.14,3.74,6,7.68,9.09,11.49,3.88,4.85,6.27,4.8,10.12-.23q10.83-14.11,21.61-28.26Zm-119,386.59c-13.95-16.12-27.09-31.34-40.28-46.53a10.49,10.49,0,0,0-2.95-2.3c-4.29-2.26-7.73-1.12-10,3.17-2.15,4.07-4.15,8.24-6.52,12.18-1.48,2.47-1.22,4.15.65,6.28,6.63,7.56,13.1,15.26,19.57,23,3.14,3.75,7.07,5.17,11.89,4.79,4.45-.34,8.92-.45,13.39-.54S169.08,468.79,174.48,468.79Zm218-.05c11.88,0,22.6.06,33.31-.09a5.51,5.51,0,0,0,3.39-2c7.41-8.35,14.68-16.83,22.09-25.18,1.69-1.9,1.69-3.5.5-5.62-2.19-3.89-4.12-7.92-6.2-11.86-3.38-6.4-7.94-7-12.8-1.64-3.93,4.36-7.71,8.84-11.55,13.27Zm-207.35,56.8c-4.1-7.32-7.52-14.42-3.89-22.54,3.45-7.71,10.7-11.36,17.62-15.39a77.06,77.06,0,0,1-4.56-7.51c-1.45-3.13-3.65-4.08-7-4-11,.15-22.09.06-33.13.08-1,0-2.1.17-3.15.26l-.83,1.14a36.69,36.69,0,0,1,3.39,2.23c4.94,4.11,9.91,8.2,14.68,12.5,1,.87,1.13,2.64,1.67,4-1.43-.37-3.26-.3-4.21-1.18-4.92-4.56-10.13-9-14.25-14.19-5.23-6.65-11.69-4.49-18.46-4.59a7.47,7.47,0,0,0,.75,1.68q20.84,22.41,41.74,44.77A9,9,0,0,0,185.14,525.54ZM141,419.53c.06.55,0,.9.14,1.06q19.82,23.06,39.69,46c1.82,2.1,4.29,2.94,7.55,1.36-6.08-15.69-7-31.81-4.09-48.46ZM378.7,468.29c3.69,1,5.94.1,8-2.31,12.48-14.5,25.08-28.89,37.63-43.33.77-.89,1.38-1.91,2.24-3.13H382.65C386.28,436.48,384.57,452.51,378.7,468.29ZM286.21,51.48l1.08.75L275.11,74.32h33c-6.55-10.45-12.5-20.37-18.91-30-2.95-4.43-7.25-4.41-10.29.14-6.5,9.7-12.5,19.74-18.78,29.78,5.93,1.48,10,.4,13.18-4.85C277.1,63.12,281.86,57.42,286.21,51.48Zm-85,415.57-1.2,1.32c3.82,5.71,7.62,11.45,11.52,17.11a4.1,4.1,0,0,0,2.41,1.5c5.84,1.06,11.69,2,18.33,3.08V462.5C222.8,470,212.52,472,201.19,467.05Zm55.67-55.7,26.4,29.5L309.58,411c-6.74-1-11.74.49-15.37,6-2,3.11-4.86,5.74-7.38,8.53-3.37,3.74-4,3.73-7.51-.09-2.81-3.09-5.93-6-8.25-9.43C267.63,411,263,410.38,256.86,411.35Zm21.74-39.09v-.09c-2.65,0-5.3,0-8,0s-5.3-.3-7.94-.28c-1,0-2.48.24-2.94.91-2.58,3.85.82,11,5.46,11.23,7.94.36,15.89.57,23.83.41,6.3-.14,7.89-2.36,7.9-8.67,0-2.8-1.06-3.62-3.71-3.54C288.37,372.37,283.48,372.26,278.6,372.26ZM479.37,490,446.68,525c3.08.92,5.7.73,8.29,1,3.64.33,6.24-.86,8.66-3.72,5.15-6.06,10.72-11.76,16.07-17.66S484.94,496.79,479.37,490ZM85.12,492.68c-1.58,2.9-2.68,5.3-4.12,7.46-1.69,2.52-1.46,4.48.63,6.68,5.21,5.46,10.22,11.1,15.4,16.6.91,1,2.18,2.18,3.35,2.25,4.36.27,8.74.11,14.27.11Zm12.42-24.4h33l-20.64-23.71C105.66,452.74,101.74,460.25,97.54,468.28Zm371.29.18c-4.31-8.2-8.29-15.76-12.5-23.78l-20.61,24h30.33C466.73,468.7,467.41,468.59,468.83,468.46Zm-116.4,44.27c0-6.78-4.82-12.33-10.61-12.25-5.64.07-10.27,5.3-10.28,11.61,0,7.07,4.42,12.11,10.61,12C348.11,524.07,352.44,519.27,352.43,512.73ZM303.89,372.18a37.2,37.2,0,0,0-.24,5.28c.31,3.45,2.76,5.86,6.15,5.42,7.58-1,15.15-2.2,22.64-3.74,4.05-.83,6.93-7.5,5.14-11.19a3.09,3.09,0,0,0-2.64-1.17C324.79,368.45,314.66,370.28,303.89,372.18ZM235.2,512.89c.28-6.44-4.21-12-10-12.3s-10.59,4.63-11,11.32,4,12,9.94,12.19S234.91,519.53,235.2,512.89Zm17.57-137.42c.13-2.38,0-4.29-3.17-4.81-8.52-1.39-17-3-25.48-4.71-2.54-.51-3.22.49-3.35,2.76a9.3,9.3,0,0,0,7.5,10.15c5.55,1.33,11.18,2.44,16.82,3.31C250.34,383,252.54,380.86,252.77,375.47ZM407.1,349.93l-15.2-28.82c-6.15,4.9-7.6,13.2-3.62,19.23,1.65,2.5,1.46,4.7-.61,6.76-.85.85-1.82,1.59-3.26,2.83Zm-226,0c-3-2.75-6.86-5.23-3.69-8.66,3.63-3.93,3-8.16,2.71-12.49a10.6,10.6,0,0,0-5.09-8.71L159.6,350Zm193.2,4.73c-9.52,3.22-18.59,6.2-27.59,9.38-2.18.77-2.89,5.3-1.74,8.64,1,3,3.37,2.62,5.51,2,6.65-2,13.25-4.19,19.86-6.34a5.16,5.16,0,0,0,4-5.24ZM485.8,501.25,465.41,526c6.58,0,11.88.06,17.17,0,2.45,0,10.29-8.36,10.22-10.69a2.92,2.92,0,0,0-.41-1.18C490.31,510,488.21,505.94,485.8,501.25ZM191.93,355.36c-.11,1.76-.22,2.85-.24,3.94-.12,7.06.54,8,7,10.45,3.26,1.22,6.51,2.46,9.78,3.65,2.17.79,4.41,1.54,5.57-1.45,1.44-3.7.75-8-1.67-8.93C205.82,360.43,199.16,358.05,191.93,355.36Zm75.22,170.22c-6.68-6.48-10.2-15.41-20.37-14.54-1.52,5-2.95,9.74-4.41,14.54Zm33.22,0h23.8c-1.33-4.85-2.62-9.61-4-14.64C310.08,510.39,306.6,519.06,300.37,525.63ZM208,498.93c-3.66-.31-6.77-.7-9.24,2.16-4.37,5.07-4.52,16.59-.15,21.57,2.25,2.54,4.91,3.82,8.62,2.19C201.43,516,203.37,507.52,208,498.93Zm151.51,26.4c6.58,0,8.79-1.48,10.46-6.56a20.89,20.89,0,0,0-.61-14.67c-1.89-4.76-5.07-6.24-10.51-4.73C364.38,507.69,364.48,516.29,359.5,525.33ZM77.56,506.43c-.83,4.67-6.28,7.09-2.34,12.2,5.13,6.66,10.25,8.84,17.34,6.47ZM223.07,135.32h15.86l-9-11.19Zm106.59,0H345c-2.38-3.89-4.43-7.22-6.76-11C335.16,128.28,332.58,131.58,329.66,135.33ZM290.1,412.18H275.91l7.34,8.19ZM71.64,520.46l-1.27.18c0,1.39-.56,3.39.13,4,1,.93,2.94.89,4.47,1.26l.33-1Zm419.57,5.75c5-1,5.27-1.3,4.31-5Z"/><path d="M338.91,322.09c-20.86,0-38.63-17.51-38.57-37.95.05-21.54,17-39.08,37.74-39.12,21.34,0,39.48,17.29,39.4,37.63C377.39,304.32,360,322.11,338.91,322.09Zm31.27-38.47a31.45,31.45,0,1,0-31.28,31.62A31.56,31.56,0,0,0,370.18,283.62Z"/><path d="M190.18,283.42c0-21.18,17.45-38.74,38.33-38.59,21.08.16,38.47,17.72,38.32,38.69S249.21,322,228.29,322.07,190.16,304.8,190.18,283.42Zm38,31.85c17.34.14,31.72-14.38,31.82-32.14.09-16.86-14.07-31-31.29-31.26S197,266,197,283.07C196.94,300.81,210.81,315.13,228.15,315.27Z"/><path d="M283.18,334.86c-3.52-1-6.87-1.58-9.79-3a9.84,9.84,0,0,1-5.94-9.34c.06-4.35,2.36-7.43,6-9.31,6.67-3.39,13.49-3.34,20,.47,7.49,4.4,7.48,13.6-.12,17.87C290.29,333.25,286.59,333.79,283.18,334.86Zm0-7.67a34.7,34.7,0,0,0,5.92-1.65c3-1.4,3-4.11,0-5.59a14.53,14.53,0,0,0-6-1.36c-3.33-.07-7,.06-8.39,3.86C274,324.6,278.47,326.88,283.18,327.19Z"/><path d="M373.59,203.51c2.57,3.35,5.2,6.66,7.65,10.1.39.54-.05,1.68-.11,2.54-1-.22-2.45-.14-2.79-.72-2.09-3.66-3.92-7.46-5.83-11.22Z"/><path d="M196.48,204.45c-1.58,3.48-3,7-4.83,10.38-.4.75-1.92.9-2.93,1.32-.12-1-.69-2.25-.28-2.87,2.19-3.29,4.63-6.41,7-9.59Z"/><path d="M276.65,208.07c.81.58,1,.67,1,.72-.46,2.31-.94,4.63-1.42,6.94a8.35,8.35,0,0,1-1.36-.58C275.37,212.86,276,210.6,276.65,208.07Z"/><path d="M296,207.28l2.45,8-2,.56q-.94-4.09-1.87-8.21Z"/><path d="M236.42,157.43h94.82c-5.55,3.26-84.6,3.84-94.78,1.07Z"/><path d="M417.87,483.59c.09-.41.15.34-.19.76-4.19,5.19-8.37,10.39-12.72,15.43-.69.79-2.25.83-3.4,1.21.3-1.17.22-2.73,1-3.43C407.71,492.65,413.08,487.91,417.87,483.59Z"/><path d="M410.94,483.58c-4.18,3.92-8.34,7.86-12.61,11.68a2.32,2.32,0,0,1-2.11-.11c-.29-.73-.4-2.13,0-2.47,4.53-3.49,9.18-6.83,13.79-10.21Z"/><path d="M401.82,377c5.13,5.46,10.32,10.88,15.31,16.46.63.7.22,2.33.29,3.52-1.09-.22-2.68-.06-3.18-.73-4.59-6-9-12.25-13.44-18.4Z"/><path d="M165.62,377.47a13.62,13.62,0,0,1-1.21,2.34c-3.93,5-7.81,10.13-11.94,15-.85,1-2.65,1.21-4,1.79.31-1.39.18-3.18,1-4.1,4.89-5.41,10-10.62,15-15.89Z"/><path d="M338.48,303a21.89,21.89,0,0,1-22.2-21.49c-.08-11.8,9.86-21.63,22-21.77,12.54-.15,22.54,9.39,22.57,21.52S351.13,302.9,338.48,303ZM331,280.49c0-.52-.05-1-.07-1.56-1.46-.88-3-2.6-4.33-2.4s-2.35,2.29-3.51,3.55c1.27,1.13,2.49,3.09,3.83,3.17S329.68,281.49,331,280.49Z"/><path d="M228.91,259.72c12.53,0,22.32,9.61,22.23,21.81S241.35,303,228.6,303c-12.07-.06-21.86-9.63-21.82-21.33A21.71,21.71,0,0,1,228.91,259.72Zm-6.63,20.68c-2.31-1.92-3.4-3.54-4.76-3.81-2.26-.46-4.37.88-4,3.39a4.78,4.78,0,0,0,3.24,3.27C218.08,283.39,219.63,281.86,222.28,280.4Z"/></svg>