<svg id="Слой_1" data-name="Слой 1" xmlns="http://www.w3.org/2000/svg" viewBox="0 0 566.93 566.93"><path d="M478.23,389.88q-5.34,5.49-10.67,11c.15.34.29.68.44,1,1.21.08,2.42.24,3.63.23,5.65,0,11.3,0,16.94-.19a6,6,0,0,1,6.15,4c2.13,5,1.82,9.49-1,14.37a35.45,35.45,0,0,1-17.89,15.39c-8.65,3.62-15.63,9.83-22.2,16.4-2.87,2.88-5.93,4.46-10.18,4.36-7.1-.15-11,3.37-12.68,10.35-.4,1.61-1.76,3-2.38,4.55-.52,1.38-1.31,3.29-.77,4.31,1.54,2.91.92,5.25-.67,7.74q-6,9.42-11.92,18.9c-.88,1.4-1.59,2.92-2.36,4.35,3.63,2.38,5.71,1.7,8-2,5.71-9,11.11-18.28,17.4-26.89,12.19-16.68,27.69-30.06,44.9-41.24,6.74-4.38,14.79-6.74,22.26-10,1-.41,2-.64,3.57-1.14-1.37-2.37-2.58-4.37-3.71-6.42-.85-1.56-1.52-3.49.62-4.24.93-.33,2.8.69,3.65,1.64,4.65,5.18,9.32,10.37,13.6,15.85a51.78,51.78,0,0,1,11.16,26.56c1.13,10.32-2.91,19-8.51,27.21a4.82,4.82,0,0,1-2.31,1.63c-13.21,4.55-24.06,12.81-34.3,21.94a13.48,13.48,0,0,1-10.28,3.81c-11.52-.36-23.07-.1-34.61-.1H92.58a54.39,54.39,0,0,1-6.11.16c-2-.23-4.34-.51-5.9-1.63-8.06-5.85-15.93-12-23.84-18-.85-.65-1.49-1.59-2.38-2.16-2-1.3-4.06-3.3-6.22-3.49-4.94-.43-7.88-3-10.16-7C31.57,470,31,458.45,35.61,446.53a64,64,0,0,1,12-19.53c3.11-3.5,6.07-7.16,9.33-10.51,1-1,3.08-2,4-1.56,2.46,1.12.87,3,0,4.49-1.16,2-2.41,3.86-3.81,6.09a18.49,18.49,0,0,0,2.46,1.34c22,7.63,39.89,21.36,55.84,37.88a169.11,169.11,0,0,1,28.23,39.87c1.85,3.55,2,3.6,5.63,2.79a31,31,0,0,0-1.12-3c-11.91-24-27.22-45.32-48.69-61.67-5.68-4.33-12.38-7.29-18.41-11.18A41,41,0,0,1,74,425.25c-1.21-1.27-1.75-3.16-2.86-4.56-3.35-4.23-3.35-8.65-1.67-13.58,1.22-3.58,3.34-4.93,6.92-4.88,6,.08,12,0,18,0H98l.62-1L80.05,382.11c-3.56,3.94-3.41,4.21,0,6.47A81,81,0,0,1,88.29,395c.62.54.6,1.82.88,2.75a10.1,10.1,0,0,1-2.7-.81c-2.71-1.76-5.3-3.7-8-5.49S74,390,72.37,393c-2.09,3.92-4.53,7.65-6.87,11.42a6,6,0,0,1-2.07,2.42,4.15,4.15,0,0,1-3.26,0c-.58-.32-.89-1.92-.67-2.77a14.38,14.38,0,0,1,2-3.82Q145,269.11,228.51,138q25.05-39.37,49.86-78.9c4.75-7.52,5.07-7.52,9.79-.18q92.61,144,185.24,287.92c12.29,19.09,24.74,38.07,37.1,57.12a15.82,15.82,0,0,1,2.26,4.06,3.85,3.85,0,0,1-.83,3.08c-.3.35-2.1,0-2.72-.61a28.39,28.39,0,0,1-3.65-4.43c-2.85-4-5.57-8.13-8.43-12.13-2.15-3-3.46-3.22-6.67-1.31-1.13.68-2.12,1.71-3.33,2.12a17.6,17.6,0,0,1-4.08.44,19.81,19.81,0,0,1,1.92-3.29,14.64,14.64,0,0,1,2.74-2.08l-.6-1c-1.85,1-3.73,2-5.54,3.13-2.47,1.5-3.59.91-3.37-2ZM326.72,452.46l3.24-3-1.21-.93-2,4-.08.08ZM499.09,435.2l14.57-5-.57-1.49c-4.68,2.14-10.43,1.48-14,6.47l-.11.12ZM216.42,394.85l-.06-.07c1.4,4.06,2.6,8.21,4.32,12.14a5.05,5.05,0,0,0,3.75,2.32c5.4.23,10.81.07,16.22,0,3.88,0,4.3-.4,3.72-4.12-3-19.29-12.74-33.92-30.15-43.16a25.16,25.16,0,0,0-3.09-1.13,75.78,75.78,0,0,1-3.28,8.37c-.47.89-2.18,1.13-3.33,1.67-.39-1.11-1.41-2.93-1.09-3.22,2.83-2.46.59-6.14,3-8.92a22.93,22.93,0,0,0-4.32-1.18c-6.55-.35-13.21-1.38-19.66-.68-23.13,2.48-44.45,26-45.32,49.16-.08,2.18.4,3.41,2.9,3.38,5.17-.07,10.34,0,15.5.07,2.3,0,3.33-1,3.87-3.3a31.14,31.14,0,0,1,3.25-9.08c1.81-3,3.32-5.17-.6-7.54-.52-.32-.08-2.21-.08-3.37,1.16.08,2.62-.25,3.4.33,1,.72,1.38,2.19,1.85,3l10.8-6.87a39.7,39.7,0,0,1-2.28-5,2.49,2.49,0,0,1,.9-2.27,3.5,3.5,0,0,1,2.86.31,4.45,4.45,0,0,1,1.22,2.52c.61,2.6,2,3.35,4.7,3,8.57-1.18,16.57.48,23.38,6.05A104.25,104.25,0,0,1,216.42,394.85Zm172.37-29.6.18.15-.24-.09V358c-2.33-.44-5.23-1.14-8.17-1.51-34-4.4-59,20.17-63,48.71-.31,2.21.24,3.63,2.61,4.31a7.1,7.1,0,0,1,5.48,7.21c0,3.11-1,6.21-1.54,9.47,4.11.37,8.71,1.27,10.9-4.47a11.41,11.41,0,0,1,2-2.56c2.84-3.59,2.78-3.58-.37-6.77-.64-.64-.7-1.84-1-2.78a9.58,9.58,0,0,1,2.82-.74,17.74,17.74,0,0,1,3.6.93c.42-1.64.8-3,1.12-4.36,3.61-15.72,15.85-25.36,32-25.13,7.49.11,14,2.92,19.94,7.34a8.66,8.66,0,0,0,2.38.88l.42-1c-.43-.37-.84-.77-1.3-1.1-1.6-1.16-1.85-2.51-.37-3.88s2.79-1,3.84.68a6.07,6.07,0,0,0,1.42,1.61c2.53,1.93,2.73,3.64,0,5.66-.8.59-1.56,2.37-1.24,3.16,1.89,4.66,3.53,9.83,10.51,8.32.68-.14,1.69,1.26,2.55,1.94-.81.86-1.47,2.14-2.45,2.49-1.42.49-3.09.23-4.64.41-5.34.64-5.36.66-7.14-4.34-1.63-4.56-3.77-8.75-8.18-12-2.58,4.17-5.08,8.09-7.4,12.12a3.06,3.06,0,0,0,.32,2.62c2.34,3.51,2.55,7.42,2.52,11.42-.08,8.53-.21,17.06-.15,25.59,0,1.2.92,2.39,1.42,3.58,1.06-.91,2.66-1.63,3.08-2.77,3.66-10.1,7.08-20.28,10.7-30.4a3.5,3.5,0,0,1,2.34-2.11c.8-.05,1.81,1.1,2.49,1.92,1,1.17,1.89,3.68,2.55,3.59,2.21-.31,5.2-.92,6.24-2.5,2.43-3.68,5.47-4.81,9.47-4.37,2.72.3,3.83-.77,3.34-3.49-.19-1.06-.22-2.15-.41-3.21-3.06-17.56-12.53-30.62-27.77-39.64-4.09-2.42-4.13-2.46-6.64,1.38-.87,1.32-1.3,2.93-2.18,4.24-.53.79-1.54,1.76-2.33,1.76a2.91,2.91,0,0,1-2.26-1.73c-.11-.88.76-1.94,1.35-2.82C387.68,365.42,388.33,365.4,388.79,365.25ZM279.15,347.47v-.08H184.7q-39.84,0-79.67,0c-2.24,0-4.1.13-5.49,2.42-4.92,8.11-10,16.13-15.14,24.1-1.18,1.83-1.09,3,.38,4.69C91,385.72,97.07,393,103.36,400.14a6.94,6.94,0,0,0,4.46,2.28c7.32.24,14.66.06,22,.14,2.24,0,3.15-.91,3.62-3.05a69,69,0,0,1,2.88-10c9.66-25,35.31-41.07,60.2-37.76,28.12,3.74,49.49,25.12,53,53.3.4,3.3,1.54,4.19,4.68,4.17q27-.21,54.08-.07c3.26,0,4.36-1.15,4.69-4.29,4-37.35,42.26-62.68,77.86-51.09,21.73,7.08,35.33,22.39,41.16,44.5.61,2.31,1.26,4,4.12,4,7.21-.12,14.42,0,21.63-.16a4.15,4.15,0,0,0,2.81-1.09c7.34-8.24,14.54-16.59,21.88-24.83,1.33-1.49,1.68-2.67.54-4.41-4.59-7-9-14.18-13.71-21.16a5.65,5.65,0,0,0-3.72-2.22c-6-.48-12-.85-18-.86Q363.33,347.42,279.15,347.47ZM230.6,144.68H336.87L283.36,61.15Zm87.11,109.54a6.72,6.72,0,0,0,.25,1.24c8.07,13.08,16.1,26.18,24.31,39.17a5.28,5.28,0,0,0,3.86,1.86c6.36.17,12.73.12,19.09-.05,1.3,0,3.09-.54,3.77-1.48,2.05-2.8,4.72-3.36,7.89-3.35,16.82.06,33.64.05,50.46.06h4.31c-.91-1.57-1.46-2.6-2.09-3.58-6.4-10-12.92-20-19.14-30.08-1.78-2.89-3.68-4.1-7.14-4.08-27.39.16-54.79.11-82.18.14C320.05,254.07,319,254.16,317.71,254.22ZM247,254.07c-1.45-.15-2.15-.29-2.84-.29q-40.18,0-80.38-.09a5.26,5.26,0,0,0-4.92,2.88c-6.07,9.66-12.22,19.26-18.35,28.89l-4,6.32c2,0,3.29,0,4.56,0,13.81,0,27.63-.21,41.45,0,2.43,0,4.86,1.48,7.27,2.35,2,.74,4,2.21,6,2.29,7,.26,13.94-.06,20.9.09a6.22,6.22,0,0,0,6.15-3.34c6.75-11.08,13.66-22,20.51-33.07C244.48,258.27,245.56,256.43,247,254.07ZM140.22,479a7,7,0,0,0,.35,1.29c4.74,8.62,9.44,17.27,14.3,25.82a4.25,4.25,0,0,0,3.07,1.8c6.73.17,13.46.07,20.18.12,2,0,2.84-.73,2.79-2.76-.08-3.24-.09-6.49,0-9.73.16-4.11,2.81-6.92,6.6-7.24s6.81,2,7.36,6.28a88.14,88.14,0,0,1,.43,10.41c0,2.06.65,3.07,2.91,3.05,10.57-.07,21.14,0,31.71-.12a4.53,4.53,0,0,0,3.41-1.86c2.59-5.14,5.07-10.35,7.19-15.7s-2.49-11.69-8.1-11.69q-17.12,0-34.23.06c-1,0-2,.15-3.51.27,3,4.13,5.72,7.75,7.87,10.66,3.11-1.34,5.64-3.31,8.14-3.28s5,2.06,7.87,3.42c.95-1.38,2.25-3.37,3.63-5.29,1-1.33,2-3.33,3.85-1.68.59.53.28,2.89-.38,3.9-3.63,5.52-7.46,10.9-11.29,16.28-2.94,4.12-4.15,4.12-7.2.06-5.84-7.78-11.67-15.56-17.41-23.42-.74-1-.88-2.51-1.3-3.78,1.29-.42,2.57-1.2,3.86-1.2,13.1-.08,26.19,0,39.28,0a5.23,5.23,0,0,0,2.14-.08c.73-.36,1.85-1.35,1.73-1.7a3.57,3.57,0,0,0-1.9-2,9.77,9.77,0,0,0-3.21-.11c-28.95,0-57.91.05-86.86-.07-3.12,0-4.79,1.11-6,4h4.24c13.45,0,26.91-.05,40.36,0,3.87,0,5,1.38,3.25,4.07-5.56,8.56-11.29,17-17,25.46-1.48,2.17-3.32,2.37-5,.15-4.49-6.09-9-12.19-13.28-18.4-.55-.79-.1-2.28-.11-3.45,1.1.36,2.55.39,3.21,1.13a69.31,69.31,0,0,1,4.41,5.88c2.89-1.3,5.4-3.32,7.91-3.32s5,2,7.84,3.26L180.32,479ZM282,315.57v0H203.09c-7.49,0-7.49,0-7.9,7.19q0,.72-.12,1.44c-.23,1.94.55,3,2.57,3,1.32,0,2.64,0,4,0q80.55,0,161.11-.09c6.29,0,6.29,0,6.41-6.27.11-5.25.11-5.26-5.29-5.26ZM452.78,508c8.31,0,15.84-.16,23.37.07a10.25,10.25,0,0,0,8.5-3.57,72.7,72.7,0,0,1,34.63-21,9.27,9.27,0,0,0,4.87-3.68A32.51,32.51,0,0,0,529.36,460c-.25-4.49-.34-4.65-4.52-3.61a117.49,117.49,0,0,0-50.75,26.71A113.33,113.33,0,0,0,452.78,508ZM335.15,310.92a7,7,0,0,0-.41-1.44c-5.64-9.22-11.21-18.49-17.06-27.57a6.57,6.57,0,0,0-4.7-2.57c-20-.23-39.9-.23-59.84-.26a9.67,9.67,0,0,0-8.86,5.15c-4.76,7.93-9.72,15.73-14.58,23.6-.53.86-.92,1.8-1.58,3.11,10,0,19.46-.06,28.94.05a5.94,5.94,0,0,0,5.42-2.71c5.41-7.35,10.94-14.62,16.52-21.85,2.36-3.07,3.4-3,5.8.05,5.1,6.53,10.32,13,15.13,19.73,2.48,3.49,5.18,5.1,9.57,4.85,6.71-.39,13.45-.13,20.18-.14ZM212.37,173.23h143c-2.05-3.21-3.76-5.94-5.52-8.64-2.93-4.51-4-4.81-8.8-2.39-.75.38-1.46.82-2.17,1.27-4.49,2.88-8.66,2.47-13-.6a34.73,34.73,0,0,0-9.81-5.09c-10.34-3.05-19.94-1.24-28.39,5.69-5.1,4.18-9.61,4.52-14.18.19-8.86-8.39-28.55-10.39-38.5-.84a13.21,13.21,0,0,1-12.07,3.31c-5.5-1.08-5.5-1.11-8.46,3.62C213.83,170.75,213.24,171.78,212.37,173.23ZM110.7,508a23.56,23.56,0,0,0-1.64-2.91c-5-6.29-9.6-12.95-15.13-18.72A106,106,0,0,0,41.73,456c-3.64-.89-4-.62-4.24,3a38,38,0,0,0,3.21,17.88c1.61,3.68,3.84,6.16,8.12,6.56a21.6,21.6,0,0,1,5.82,1.78A78.25,78.25,0,0,1,83.73,505.3c1,1.09,2.37,2.52,3.61,2.56C95,508.1,102.6,508,110.7,508Zm210.59-50V474.9h4c6.25,0,12.49,0,18.74,0,5,0,5.7,1.19,3.22,5.45q-7.08,12.13-14.18,24.25c-.56,1-1,2-1.62,3.17H368c-.67-1.4-1.11-2.47-1.66-3.48q-6.74-12.13-13.5-24.24c-2-3.55-1.14-5.13,2.89-5.15,7.93,0,15.86,0,23.79,0h5.84c-.57-3-1-5.4-1.51-7.82-.71-3.26-2.79-4.39-5.71-2.76-1.37.77-2.18,2.5-3.47,3.49-1.51,1.16-3.26,2.82-4.94,2.85-11.29.26-22.59.11-33.89.15-2.35,0-3.58-1-3.74-3.36-.7-10.16,5.83-22.32,17.85-23.21,1.53-.11,3-.28,5-.46-1.21-2.69-2.2-5.1-3.35-7.43-2-4.08-4.57-4.28-7.19-.49-3.34,4.84-6.73,9.67-9.73,14.72S328.22,459.55,321.29,458ZM454.94,339.73c-1.12-.06-1.93-.15-2.73-.15q-170.35-.06-340.7-.09a11.2,11.2,0,0,0-3.58.16,16.85,16.85,0,0,0-3.37,2.13l.53,1h5l276.89,0h63.09C452.06,342.74,454.28,343.09,454.94,339.73Zm-244.83,98L206,435c1.27-.88,2.63-1.65,3.8-2.64,1.57-1.32,3-2.8,4.48-4.21,1-.92,1.94-2.57,2.93-2.58s2.37,1.4,3,2.52c1.58,2.93,2.83,6,4.21,9.08l1.17.11c.22-1.14.81-2.37.58-3.42-.61-2.8-.38-5.26,2.65-6.08A48.05,48.05,0,0,1,239.19,426c9.54-.43,7.67,1,8-8.13.1-2.67-.86-3.62-3.53-3.57-7,.13-13.93.06-20.89.05-5.26,0-5.46-.17-6.49-5.48-1.29-6.65-3.87-12.58-9.15-17.11-1.63-1.39-2.81-1.55-4,.57-1.65,3.06-3.64,5.95-5.12,9.08-.52,1.12-.16,2.8.16,4.14.5,2.05,1.7,4,1.91,6a107.6,107.6,0,0,1,.38,11.5c0,9-.18,18-.3,27,0,1.88.25,3.23,2.66,3.29s2.68-1.33,2.63-3.2c-.08-2.88-.08-5.77-.1-8.65,0-1.83.08-3.48,2.76-2.88C208.73,438.74,209.49,438,210.11,437.75ZM89.38,407.08c-3.36,0-6.73-.07-10.08,0-4.29.11-7,2.68-5.61,6.56,1.78,5.1,3.93,10.53,9.48,12.95,11.84,5.15,21.9,12.8,31.14,21.66a14.19,14.19,0,0,0,2.7,2.35c2.06,1.15,3.84.14,4-2.08,1.12-15.09,1-15.41-8.16-27.67l-3.23-4.32C102.09,406.4,102.09,406.4,89.38,407.08Zm53,20.37a8.39,8.39,0,0,0,0-1.26c-.77-4.62-.62-4.65,4-4.19a6.12,6.12,0,0,0,4.39-1.26c3-2.92,3.22-3,5.5.29.45.66,1,1.25,1.47,1.85,2.83-1.76,2.83-1.76,4.4-6.24,1.12-3.21,3.47-4.92,6.1-4.43,2.87.53,4.69,3.07,4.23,6.53a29.22,29.22,0,0,1-1.8,5.8c-1.53,4.21-3.12,8.4-4.78,12.83,5.28-.21,5.3-.21,5.38,4.56,0,2.88.1,5.77,0,8.64-.06,2,.69,2.76,2.71,2.88,3,.16,3.25-1.46,3.24-3.83-.06-12-.08-24,0-36,.08-8.74,5.25-13.47,13.87-13,.75,0,1.92-.09,2.21-.55,2.48-4,4.81-8.14,7.41-12.63-8.25-2.67-15.65-2.82-22.95.87-8.69,4.4-12.91,11.9-14.49,21.1-.61,3.56-2.44,4.9-5.87,4.79-4.68-.15-9.37-.16-14-.21-8.43-.1-8.43-.1-8.4,8.28C135,428.22,136,429,142.39,427.45Zm302.06,23.19,1.29.68c1.35-1.07,2.78-2.05,4-3.22,7.84-7.33,16.07-14.38,26.2-18,7.59-2.74,10.65-8.93,14.27-14.81,2.58-4.18-.36-8.31-5.3-8.34-6.11,0-12.23,0-18.34-.19a6.76,6.76,0,0,0-6.1,3c-3.93,5.3-7.78,10.67-12.1,15.64a15.49,15.49,0,0,0-4,12.11C444.71,441.85,444.45,446.25,444.45,450.64ZM345.64,310.42a19.49,19.49,0,0,0-.8-1.82Q315.65,261,286.42,213.45c-2.72-4.43-5.25-4.41-8.06.06q-29.91,47.57-59.73,95.19a11.33,11.33,0,0,0-.82,2c3.7,1.32,5.44-.54,7.14-3.3q25.45-41.2,51.1-82.32c4.14-6.67,8.56-6.62,12.72.13q10.38,16.86,20.68,33.78,14.34,23.53,28.63,47.09C339.69,308.73,341.37,311.16,345.64,310.42Zm-236,24.4h349c-.06-3.22-2.33-2.72-4.15-2.72q-47.06-.06-94.11,0L168.25,332c-17.66,0-35.33-.05-53,0C113.23,331.94,110.82,331.48,109.67,334.82ZM195.34,438h-.07c0-7.92,0-15.84,0-23.76a13.69,13.69,0,0,0-.59-4.23,6,6,0,0,0-5.94-4.37,5.58,5.58,0,0,0-5.7,4.11,17.89,17.89,0,0,0-.91,5.63c-.1,14.16-.09,28.32-.12,42.48,0,7.62,0,7.62,7.74,7.8a11.48,11.48,0,0,1,1.44.07c3.12.48,4.3-.76,4.23-4C195.22,453.85,195.34,445.93,195.34,438Zm88.83-23.69v0q-13.16,0-26.31,0c-6.12,0-6.12,0-6.29,6.17q0,.54-.06,1.08c-.26,4-.08,4.23,4.11,4.23q27.39,0,54.78,0a16.11,16.11,0,0,0,2.87-.12c3.16-.57,4.4-3.27,4.16-8.07-.16-3.45-2.44-3.27-4.79-3.27Zm103.05-26.67c-3.82-1-6.85-2-10-2.48-16.39-2.45-31.66,11.69-30.21,28,.1,1.09,1.34,2.81,2.22,2.93,1.19.16,2.64-.81,3.81-1.56a21.1,21.1,0,0,0,2.82-2.55,23,23,0,0,1,2.26,3.3c1.28,2.83,2.37,5.75,3.54,8.63l1-.27c0-3.55-.08-7.11,0-10.65.23-8.44,5.3-12.93,13.7-12.41,1.12.07,2.79-.33,3.34-1.12C382.21,396,384.36,392.25,387.22,387.65Zm-225.5-71.9v-.15H139.39c-7.26,0-7.26,0-7.35,7.08-.06,4.41,0,4.44,4.33,4.43,15.36,0,30.73-.09,46.1-.1,8.07,0,8,0,8.39-7.93.12-2.5-.62-3.41-3.21-3.38C179,315.83,170.36,315.75,161.72,315.75ZM275.13,494.69l-29.93-40-1.45.18c-1.16,4.2-3,8.33-3.34,12.6-1,11.89,6.66,19.41,14.59,26.61a2.77,2.77,0,0,0,1.67.6C262.5,494.71,268.33,494.69,275.13,494.69Zm9.39-.27c5.66,0,10.31.05,15-.05a3.15,3.15,0,0,0,2.15-1.07c4.16-5.23,8.77-10.2,12.19-15.89,4.09-6.81,3-14.17-.18-21.87ZM217.58,301.15c-8.78,0-16.68,0-24.58,0-2.42,0-4.29-.36-5.86-2.61-.88-1.24-2.91-2-4.55-2.29-2.09-.36-4.3,0-6.46,0-2-.05-2.84.8-2.78,2.8.09,3,.16,6,0,9-.1,2.43,1,3.09,3.24,3.08,10.81-.1,21.63-.06,32.44-.19a4.76,4.76,0,0,0,3.43-1.37C214.25,307.21,215.59,304.53,217.58,301.15ZM380.93,428h-.09c0-4.79.07-9.59,0-14.38s-2.56-7.78-6.52-7.86-6.36,2.64-6.53,7.76c-.17,4.78-.15,9.58-.34,14.36a24.63,24.63,0,0,0,4.06,14.64,8.75,8.75,0,0,0,3.38,3.07c3.91,1.84,6.07.34,6.06-3.93ZM346.64,301.38c1.3,2.26,2.08,3.33,2.58,4.52,1.58,3.83,4.29,5,8.45,4.92,11.74-.24,23.48,0,35.23,0h3.57l.33-.95c-6.27-2.08-9.76-5.94-8-13-5,0-9.3,0-13.58,0a2.35,2.35,0,0,0-1.78.92c-1.82,3.56-5,3.6-8.35,3.57C359.25,301.34,353.41,301.38,346.64,301.38Zm-143.28-115,.28,1.2H363.9l.22-1.18a23.23,23.23,0,0,0-4.7-1c-11.29-.09-22.58-.05-33.87-.06q-58.55-.06-117.09-.07C206.76,185.21,205.06,185.94,203.36,186.33Zm76.21,306.09c4.87-6.56,9.42-12.59,13.81-18.73a3.64,3.64,0,0,0,.2-3.21A49.55,49.55,0,0,0,288,462.1a10.9,10.9,0,0,0-16.79.11,60.5,60.5,0,0,0-5.76,8.68,3.21,3.21,0,0,0,.19,2.86C270.1,479.87,274.67,485.88,279.57,492.42Zm142.68-63.79.21-1.12a6.73,6.73,0,0,0-2.12-.88c-5.64-.09-11.28-.07-16.92-.1-2.14,0-2.46,1.33-2.53,3.11a15.87,15.87,0,0,1-.75,4.86c-1.55,4.25-3.46,8.38-5,12.65-.78,2.19-1.81,3.49-4.31,3.45-5.76-.1-11.53.08-17.28-.16-1.48-.06-3.61-.89-4.23-2-3.17-5.88-5.85-12-8.95-18-.78-1.51-2.35-3.5-3.73-3.64a150.63,150.63,0,0,0-16.87-.56c-1,0-2,1.43-3,2.21l.64,1.17,10.63-1.1c3.57-.37,5.7,1.08,7.22,4.48,2.63,5.9,5.79,11.57,8.75,17.31a5.6,5.6,0,0,0,5.56,3.18c7.33-.1,14.65-.08,22,0,2.69,0,4.63-.94,5.78-3.41,2.54-5.43,5.18-10.81,7.58-16.3,1.95-4.44,2.75-5.14,7.49-5.15Zm-79.86,50.55c-3.6,0-6.34.07-9.09,0s-5.5-.49-8.26-.51a11,11,0,0,0-10.19,14.61c1.39,3.83,3,7.59,4.28,11.46,1.07,3.21,3,4.06,6.39,2.73-.86-2.17-2.18-4.2-2.35-6.33s.27-4.85,1.59-6.05,4.08-1,6.23-1.16c.69-.06,1.45.58,2.32,1C336.29,489.74,339.15,484.79,342.39,479.18Zm-33.3-26.95c3.3-2.91,3.2-3,.81-6.36-15.72-22-47.64-18.44-60.64-.63-2.89,4-2.95,4.61,1,7.59C261.85,433,292,427.76,309.09,452.23Zm59.51-257.3.24-1.22a30,30,0,0,0-5.32-1q-52.27-.09-104.56-.06c-18.27,0-36.54-.11-54.8-.13-2,0-4.31-.44-5.48,2.39Zm20.23,30.77c-1.06-3.82-3.74-3.64-6.22-3.65q-41.25,0-82.52,0a10.49,10.49,0,0,0-2,.39c.49,2.91,2.1,3.57,4.65,3.56q41.26-.12,82.52-.07C386.33,225.91,387.37,225.79,388.83,225.7Zm-122-3.67h-3.94l-22.35,0q-27.94,0-55.87-.05c-2.75,0-5,.5-5.33,4.07h81.25C263.23,226,265.74,225.93,266.86,222ZM158.5,434.25c-4.24,9.21-8.11,18.41-6.93,28.89.21,1.85.84,2.57,2.62,2.53,3.12-.08,6.24-.2,9.35-.13,2.19,0,3-.86,2.94-3-.09-5,0-10.07-.06-15.11a3.43,3.43,0,0,0-.18-1.75C163.77,442,161.23,438.26,158.5,434.25Zm59.25-.42-1.05.05c-2,4.91-4.6,9.67-5.67,14.76-1,4.6-.16,9.57-.28,14.37-.05,2.1.89,2.79,2.79,2.76,3,0,6-.09,9-.06,1.86,0,2.54-.84,2.51-2.64-.06-4.45,0-8.89-.06-13.34a4.49,4.49,0,0,0-.93-2.06,25.32,25.32,0,0,1-2.25-3.3C220.36,440.9,219.09,437.35,217.75,433.83ZM208,179.25l.25,1.27h151l.2-1.22a34.61,34.61,0,0,0-5.39-.82q-57.3-.1-114.59-.11c-8.77,0-17.54-.1-26.31,0A30.36,30.36,0,0,0,208,179.25Zm90.16,70.46c-2.47-4-4.5-7.66-6.87-11a4.72,4.72,0,0,0-3.42-1.45c-4.06-.06-8.13.16-12.2.34-.68,0-1.66.16-2,.61-2.47,3.69-4.8,7.46-7.39,11.54Zm4.67,210.89c2.23-2,3-3.74,1.56-6.11-11.11-18.8-38.74-18.67-49.59.23-1.46,2.54-1.14,4.43,1.49,6.42,4.82-9.4,12-15.37,22.82-15.65C290.15,445.2,297.49,451.18,302.81,460.6ZM52.23,429.4l-.3,1.19c1.07.42,2.12.86,3.2,1.25A130.48,130.48,0,0,1,84.92,447a165.39,165.39,0,0,1,51.54,57.84,31.38,31.38,0,0,0,2.39,3.3l.86-.59a12.52,12.52,0,0,0-.65-1.84,164.61,164.61,0,0,0-40-50.94C86.36,444,72.73,434.92,56.62,430.17A37.27,37.27,0,0,0,52.23,429.4ZM156,310.82c-2.75-2.49-4.84-4.12-6.57-6.07-.67-.75-.51-2.23-.73-3.37,1,.22,2.33.12,3.06.72a55.59,55.59,0,0,1,6.8,6.39c2.61,3.05,5.9,2.76,9.24,2.43.57-.06,1.56-1.16,1.47-1.57-.43-1.9-.62-4.36-1.89-5.47-5-4.37-10.12-7.88-17.75-7.25-10.77.89-10.83.22-10.32,11.16,0,.12,0,.24,0,.36-.16,1.84.81,2.66,2.54,2.67C146.29,310.84,150.69,310.82,156,310.82Zm228.05,168.6H357.88l7.93,13.88H376Zm-129-211.88h53.5c-1.25-2.15-2.28-3.89-3.26-5.66-1.16-2.09-2.71-2.21-4.45-.85a26.05,26.05,0,0,0-2.28,2.3c-3.66,3.64-7.27,3.71-11.08.24-4.68-4.28-6.91-4.24-11.55.2-3.08,2.94-6,3-9.23.22-.64-.55-1.23-1.16-1.88-1.68-4-3.17-5.11-3-7.57,1.46C256.68,264.89,256,266,255.1,267.54ZM232.68,431.06l-.63.65c7,6.89,6.59,14.05.65,21.31,6.26.77,6.27.77,8.59-4a40.78,40.78,0,0,1,13.83-15.82c.82-.57,1.58-1.23,2.77-2.16Zm97.74.18H301.14c6.11,4.12,11.27,8.1,14.57,14.06a3.24,3.24,0,0,0,5.51.09C324.36,440.93,327.19,436.26,330.42,431.24ZM484.51,449c-5.39,4.13-10.06,7.62-14.59,11.28a2.88,2.88,0,0,0-.3,2.7c1.7,3.29,3.59,6.48,5.52,9.65.38.62,1.62,1.47,1.76,1.35,2.6-2.14,6.73-4.07,7.27-6.72C485.3,461.81,484.51,455.94,484.51,449Zm-97.38,58.56a6.8,6.8,0,0,0,1.23.35l6.47,0c4.33,0,5.27-1.51,3.13-5.45-1.54-2.83-3.5-5.44-5-8.29-.56-1.06-.95-3.23-.39-3.71,2.79-2.39,1.88-5.53,2.07-8.39.06-.94-.78-2.68-1.43-2.79a5.24,5.24,0,0,0-3.93.86,6.25,6.25,0,0,0-2.06,4C387,492,387.13,499.73,387.13,507.59Zm106-69c-15-1.23-63.81,48.78-68.17,69.42a10.1,10.1,0,0,0,2.9-3.18c14.42-25.24,32.85-46.73,57.95-62C488,441.57,490.13,440.35,493.15,438.59ZM368.67,249.67l.73-1.36c-1-1.23-1.67-2.9-2.92-3.61a53.77,53.77,0,0,0-9.28-4.28,11.31,11.31,0,0,0-6.27-.57,64.77,64.77,0,0,0-11.44,4.55c-1.08.54-1.52,2.52-2,3.92a3.51,3.51,0,0,0,2.1,1.29C349.29,249.7,359,249.67,368.67,249.67Zm-170.83,0c4.31,0,8.62,0,12.93,0,2.57,0,3.24-1.21,1.76-3.33a8.15,8.15,0,0,0-3-2.19c-1.75-.92-3.74-1.45-5.38-2.52a10.72,10.72,0,0,0-10.91-.71,61.47,61.47,0,0,0-7.6,3.45c-1.24.77-1.86,2.55-2.76,3.87,1.17.48,2.32,1.33,3.51,1.39C190.17,249.79,194,249.67,197.84,249.67Zm62.9,218.26,1.24.18c4-7.15,8.23-14,17.51-14.15s13.69,6.72,17.74,13.59c2.88-1.53,2.32-3.44,1.43-5.44-3.18-7.12-11.73-12.51-19.35-12.18-8.75.37-16.71,6.05-19.18,14C259.76,465.06,260.51,466.58,260.74,467.93ZM94.5,459.34l-1.16.81c0,5.48-.23,11,.16,16.43.1,1.41,2.11,3.73,3.35,3.8,2.64.16,6-.12,7.85-1.67,1.6-1.34,2.88-5.75,1.94-7C103.12,467.2,98.63,463.41,94.5,459.34Zm217.63,42.42.09-1.22a28.85,28.85,0,0,0-3.18-.42c-5-.13-10.08-.26-15.12-.28-16.21-.06-32.42-.11-48.62,0-1.43,0-2.85.81-4.28,1.24l.35.73ZM417,310.21a15.17,15.17,0,0,0,1.9.38c9.61.6,10.7-.61,9.87-10.33-.22-2.55-1.2-3.64-3.83-3.43-2.39.19-4.83-.21-7.19.13a8.77,8.77,0,0,0-4.64,2c-3.55,3.36-6.8,7-10.17,10.58l.17.88c1-.3,2.31-.3,2.94-1,2.24-2.33,4.17-5,6.39-7.3.68-.71,1.89-.92,2.85-1.35-.15,1.15,0,2.52-.54,3.39-1.45,2.21-3.25,4.2-4.9,6.28l.75.72a19.31,19.31,0,0,0,2.64-2.37c2.14-2.74,4.08-5.64,6.29-8.32.6-.73,1.9-.88,2.88-1.3,0,1.06.36,2.34-.11,3.13C420.8,304.93,419,307.31,417,310.21ZM525.48,450.42l.35-.92-17.31-11.39-1.14.73c.3,5.46.6,10.91.92,16.71ZM335.23,242.55a10.94,10.94,0,0,0-11.79-2.43c-3.81,1.39-7.46,3.22-11.41,4.95.38,2.86,2.3,4.35,5.77,4.14,2.74-.16,5.49-.11,8.24-.09C332.7,249.17,332.7,249.19,335.23,242.55Zm-119.48-.14c1.16,6.77,1.16,6.77,6.61,6.74,2.64,0,5.29,0,7.93,0h8.36c.62-2.74-.34-3.88-2.33-4.66-1.76-.68-3.32-1.85-5-2.63s-3.79-2.13-5.56-2C222.4,240.22,219.19,241.48,215.75,242.41ZM89,474.51V456.65L71,462ZM397,249.28l.69-1c-1-1.22-1.77-2.86-3.05-3.58-7.52-4.19-15.23-4.71-23.94-.5,1.45,1.94,2.55,4.78,3.81,4.85C382,249.49,389.53,249.28,397,249.28ZM58.37,439.1l-17.8,10.73,19.52,6.55C59.52,450.63,59,445.23,58.37,439.1Zm88.7,13.47c0-4-.14-6.84,0-9.7s-1.08-3.55-3.6-3.52c-4.55.08-9.09,0-13.64-.05-4.08,0-4.19.18-4.17,4.21,0,2.3.77,3.65,3.25,3.75a13.24,13.24,0,0,1,3.16.59c2,.6,3.15.09,3.38-2.23a10.37,10.37,0,0,1,1.32-3,13.2,13.2,0,0,1,2.89,1.81C142,446.81,144.16,449.34,147.07,452.57Zm190.24,14.52c1.54-1.25,2.72-1.88,3.43-2.85,2.35-3.18,4.48-6.53,6.79-9.74,3.37-4.68,4.49-4.67,8-.27,1.68,2.12,3.41,4.18,5.67,6.95.68-2.07,1.75-3.83,1.33-4.33-2.38-2.81-4.72-6.84-7.8-7.65C345.42,446.77,336,456.08,337.31,467.09Zm23.16-236.48c-1.67,5.41-.34,7.65,4.52,9.21,4.2,1.35,7.55-.76,10.84-2.43,1-.52,1.12-3.37,1.05-5.13,0-.58-1.86-1.53-2.89-1.57C369.45,230.51,364.91,230.61,360.47,230.61ZM489.92,464.9l14.44-7.54L489.92,446ZM173.44,234.56a84.18,84.18,0,0,1,8.14,3.65c4.06,2.37,7.58,2.06,10.13-1.78.79-1.19.71-3.19.44-4.72-.09-.55-1.92-1.06-3-1.1-3.11-.14-6.26.2-9.35-.11C176.17,230.15,174.24,231.73,173.44,234.56ZM462.26,488l10.26-11.38c-3-2.19-6.11-4.74-9.49-6.93-2.06-1.34-3.61-.27-3.28,2.15C460.43,476.92,461.31,482,462.26,488ZM230.08,230.55c.12,2-.33,3.91.41,5.1,3.52,5.68,10.58,5.9,14.49.46.74-1,.66-3,.32-4.31-.15-.62-1.86-1.16-2.88-1.19C238.48,230.47,234.54,230.55,230.08,230.55Zm-18.33,0a11,11,0,0,0-2.5,0c-1.67.42-4.31.61-4.73,1.62-.94,2.35-.25,4.8,2.29,6.47,3.68,2.41,9.61,1.19,11.9-2.68,1.74-2.92.36-5.39-3-5.44C214.37,230.51,213.06,230.53,211.75,230.53Zm128,.09a53.9,53.9,0,0,0-6.1.07c-.84.1-2.12.94-2.22,1.59a4.17,4.17,0,0,0,1,3.09c.84.93,2.23,1.34,3.31,2.08,4.09,2.79,7.32,2.68,10.79-.95a7,7,0,0,0,1.38-4.52c0-.45-2.2-1.13-3.45-1.31A30.29,30.29,0,0,0,339.75,230.62Zm-36.73,0c1.33,2.37,2.16,3.87,3,5.36,2.41,4.12,10.24,4.57,13.21.78,1.79-2.3,1.17-6-1.13-6.09C313.47,230.49,308.81,230.61,303,230.61ZM74.25,455c-.33-3.51-.33-5.95-.88-8.25a3.31,3.31,0,0,0-2.62-1.86c-5,.63-6.92,3.4-6.54,8.31.55,7.12.38,6.24,7.42,4.24C72.88,457.12,73.76,455.51,74.25,455Zm89.46-205.81c4.71,0,8.3,0,11.89,0,2.79,0,4.09-1.57,4.64-4.07a3.6,3.6,0,0,0-2-4.46c-3.32-1.73-7.19-1.77-9,.44S165.87,246,163.71,249.22ZM454.4,327c-2.4-3.68-4-7-6.42-9.5-1.27-1.3-4.05-1.44-6.15-1.45-.5,0-1.23,2.56-1.47,4a11.1,11.1,0,0,0,.09,4.63,3.52,3.52,0,0,0,2.31,2.22C446.33,327.18,449.92,327,454.4,327ZM100.59,485.43l10.6,13.14c1.92-5.37,3.52-9.88,5.37-15.06Zm340.66,6.62c2.26,5.06,4.19,9.35,6.34,14.15L457.4,493Zm-11.41-35.29c-11.24-14.16-18.19-9.12-25.79,1l2.66,2.26c2.15-2.32,4-4.35,5.89-6.35,3.75-4,4.79-4,8.75-.05,2,1.95,3.83,4,5.9,6.12C428.21,458.63,429,457.75,429.84,456.76Zm3.79-28.82c2.33-.66,5.4,1.53,5.68-1.93a141.49,141.49,0,0,0,0-17.23c0-.66-2-1.7-3.16-1.72-.83,0-2.41,1.29-2.43,2.05C433.54,415.17,433.63,421.24,433.63,427.94ZM281.73,306.32c7.09-5.61,7.08-10.74,0-16.4-6.71,7-6.71,7-1.32,14.7C280.84,305.21,281.3,305.75,281.73,306.32ZM114.26,327h5.79c7.41,0,7.48,0,7.31-7.45,0-1.3-.57-3.33-1.45-3.72a4,4,0,0,0-5.36,1.47C118.66,320.34,116.67,323.31,114.26,327ZM458.08,488.37c-.75-4.78-1.44-9.22-2.27-14.55-4.35,5.05-8.5,8.91-10.87,14.55ZM388,464.83c.71,2.74,1.34,5.5,2.19,8.19a2.62,2.62,0,0,0,1.76,1.59c3.38.15,6.77.07,10.16.07l.62-1.26c-1.72-1.82-3.6-3.51-5.13-5.48C394.36,463.72,393.84,463.45,388,464.83ZM108.57,406.78l11.28,15.35a64.5,64.5,0,0,0,.61-12.95,3.11,3.11,0,0,0-1.9-2.29C115.51,406.63,112.44,406.78,108.57,406.78ZM120,486.47c-1.74,5.16-3.21,9.49-4.9,14.46l13.58-1.16Zm71.22,14.07h-.08v-4.32c0-2.17-.6-3.91-3.17-3.85s-3.13,1.85-3.17,4c0,2.64,0,5.29-.11,7.93-.13,2.41.33,3.78,3.26,3.85,3.16.08,3.64-1.47,3.44-4C191.32,502.94,191.3,501.74,191.24,500.54Zm205.58-41.19c0-.56,0-1.11,0-1.67-7.7,0-15.41.05-23.12,0-3.51,0-6.41,1.1-8.17,4.18-.63,1.08-.54,2.57-.78,3.88a17.45,17.45,0,0,0,4.37.52,4.22,4.22,0,0,0,2.41-1.94c2.72-4.26,6.63-5.34,11.45-5C387.56,459.59,392.2,459.35,396.82,459.35Zm3.82,38.23a15.89,15.89,0,0,0,.82-2.73c.17-1.67.19-3.35.24-5,.13-4.12,1.3-5.09,5.51-4.23,0-1,0-1.92,0-2.85.09-3.57-2.35-3.46-4.89-3.55s-3.72.8-3.64,3.49a17.45,17.45,0,0,1-.59,6.05C396.92,492.16,397.78,494.8,400.64,497.58Zm11.08-18v9.32c6.82.89,9.1-3.79,11.26-9.32ZM246.91,250.27a54.52,54.52,0,0,0,4.77-3.74,17,17,0,0,0,2.15-3.29c1.44-2.35.66-4.19-2.07-3.85a23.08,23.08,0,0,0-7.51,2.78,3.41,3.41,0,0,0-1.35,5C243.6,248.3,245.14,248.94,246.91,250.27ZM383,491.75l-.91-.17L373,508c3.37,0,5.75.15,8.1-.09a2.76,2.76,0,0,0,1.85-1.9C383.1,501.24,383,496.49,383,491.75ZM124.24,311.07c3.36,0,6.12.09,8.86-.08a2.21,2.21,0,0,0,1.45-1.62c.13-4.24.07-8.48.07-12.71l-1-.32Zm320,0c-3.53-5.27-6-10.26-10.27-14.16a63.91,63.91,0,0,0-.46,12.29c0,.66,1.49,1.69,2.37,1.78C438.32,311.25,440.84,311.1,444.2,311.1ZM406.13,467c4.31-.31,8.18-.55,12.05-.9a2,2,0,0,0,1.3-1c1.5-2.9,0-7.5-3-9.24Zm-92.38,40.83-.06-.58h-68.6v.58ZM121.54,456.13,134,470.46c2.34-4.56.74-7.68-1.3-10.48C130.21,456.5,126.5,455.66,121.54,456.13Zm9.61-28.32c0-4.1.13-7.91-.1-11.7a3.52,3.52,0,0,0-2.1-2.42c-1.65-.52-3.23.1-3.28,2.18-.09,3.91,0,7.82,0,11.94Zm71.34-215.13,1.74-.18c1-2.39,2.3-4.69,2.9-7.18,1.12-4.6-.79-6.47-5.29-5.18-1.06.3-2.59,2.19-2.41,3A85.37,85.37,0,0,0,202.49,212.68Zm60.32.1,1.95,0c1.06-3.16,2.44-6.26,3.05-9.51.33-1.77-.54-3.81-3.32-3.51-2.44.27-5.24.34-4.61,3.78C260.47,206.68,261.81,209.7,262.81,212.78Zm-35.36-.33c2.6-3.2,4.37-6.24,3.78-10.14-.34-2.22-1.71-2.83-3.88-2.65s-3.75.4-3.92,3.05C223.18,206.5,225,209.35,227.45,212.45Zm23.16-.09,1.39-.17c1.71-2.88,4.31-5.38,3.63-9.27-.36-2.08-1.1-3.6-3.73-3.22-2.37.35-5,.6-4.29,3.78S249.58,209.41,250.61,212.36Zm-12.31-.13,1.3-.18c2-2.78,4.37-5.42,3.86-9.25-.25-1.88-.91-3.54-3.45-3.06-2.17.41-5.14.12-4.55,3.51C236,206.32,237.33,209.24,238.3,212.23ZM153.92,424.72l-7.18,1.82,4.18,12.26.91-.05C152.56,434.06,158.3,430.17,153.92,424.72Zm277.61,82.91h12.14l-5.4-11.53ZM214.24,212.31l1.69.11c1.1-2.67,2.67-5.26,3.18-8,.62-3.37-.78-4.77-3.51-4.69-3.88.12-4.71.8-4.06,4.75C212,207.14,213.31,209.69,214.24,212.31Zm86.86.28c2.59-3.16,4.47-6.32,3.52-10.49-.56-2.45-2.26-2.25-4.18-2.07s-3.21.36-3.3,2.73A12.78,12.78,0,0,0,301.1,212.59Zm43.73,253.34H359l-7.44-9.68Zm4.63-253.6c2.71-2.79,4.42-5.76,3.89-9.68-.28-2.07-1.38-2.93-3.43-2.65s-4.25-.3-4.35,2.88C345.46,206.6,347,209.54,349.46,212.33Zm-13.69-.08,1.43-.12c2.35-2.75,4.5-5.55,3.83-9.59-.41-2.45-2-2.61-4-2.45s-4,.12-3.63,2.72C333.93,206,335,209.11,335.77,212.25Zm25.18.14,1.28-.06c1.11-2.46,2.55-4.83,3.19-7.41.34-1.37-.24-3.87-1.24-4.46a5.74,5.74,0,0,0-5.05.09c-.95.58-1.42,3-1.1,4.42C358.62,207.53,359.94,209.93,361,212.39Zm-36.58.46c3.56-3.41,4.7-6.29,4.46-9.93-.21-3.27-2.37-2.58-4.33-2.74-2.27-.17-3.72.85-3.25,3A100.62,100.62,0,0,0,324.37,212.85Zm-61.56,42.72-.27.89c2.58,1.8,5.14,3.65,7.77,5.37a1.78,1.78,0,0,0,1.69-.06c2.12-1.76,4.14-3.64,6.19-5.47l-.6-.73ZM435.58,452.64c.08-.33.15-.66.23-1-3.34-5.39-6.64-10.82-10.08-16.16-.6-.94-1.83-1.47-2.77-2.2l-.71.84c1.62,3.32,3.1,6.72,4.89,9.94a50,50,0,0,0,5,7.36C432.82,452.23,434.41,452.26,435.58,452.64Zm-7.07-26.36,1.41-.38c0-3.25.1-6.5-.08-9.73a2.57,2.57,0,0,0-1.79-1.68c-2.17-.22-4.37-.08-7-.08C422.29,419.91,425.71,422.88,428.51,426.28ZM312.16,212.19l1.55-.08c1-2.48,2.31-4.9,2.83-7.47.27-1.34-.46-3.65-1.48-4.27a5.11,5.11,0,0,0-4.72.21c-1,.73-1.33,3.06-1,4.47C309.89,207.52,311.18,209.82,312.16,212.19Zm-25.41,43.12c.44,3,3.95,6.55,6.28,6.61,1.73.05,6.06-4.32,6.47-6.61Zm3.73-45.48c2.23-2.62,3.35-5.69,1.77-8.61-.59-1.08-3.5-1.08-5.37-1.2-.75,0-2.13.86-2.22,1.48a4.86,4.86,0,0,0,.77,3.47A53.7,53.7,0,0,0,290.48,209.83Zm-5.34,100.49h12.8L291,301.24C289,304.42,287.24,307.08,285.14,310.32Zm-6.22.06-6-9.26-6.76,9.26Zm119.24-70.69c-1.64-2.71-3.09-5.42-4.9-7.88a3.94,3.94,0,0,0-3.14-1c-.56.06-1.28,1.5-1.38,2.38C388.17,238,392.4,241.07,398.16,239.69ZM273.69,209.17a40.44,40.44,0,0,0,5.51-4.28c.69-.73.89-3.2.48-3.44a10.25,10.25,0,0,0-4.75-1.25c-.9,0-2.51.85-2.63,1.52C271.81,204.65,271.82,207.62,273.69,209.17Zm100,3.22c3.93-4.7,3.93-4.7.93-9.33a5,5,0,0,0-1-1.46,5.08,5.08,0,0,0-2.59-1.23c-.43,0-1.16,1.39-1.22,2.19A12.15,12.15,0,0,0,373.69,212.39ZM406.87,490c-1.25,4.51-2.27,7.9-3.11,11.34a8.22,8.22,0,0,0-.17,3.87c.28,1,1.36,1.82,2.08,2.72.83-.91,2.38-1.85,2.35-2.73C407.88,500.44,407.35,495.68,406.87,490ZM126,434.54h19.13C143.41,432.27,129.15,431.75,126,434.54Zm39.65,65.36c4.1-3.77,4.71-6.1,2.34-8.54-1.43-1.46-3-2-4.73-.43C160.83,493.13,161.27,494.89,165.66,499.9Zm45,.68c1.31-1.8,2.9-3.05,3.07-4.47a9.25,9.25,0,0,0-1.38-5.36c-.31-.55-2.81-.49-3.72.14-1.85,1.26-2.21,3.28-.9,5.32C208.54,497.5,209.41,498.76,210.64,500.58Zm203.9-29.17v0a45.41,45.41,0,0,0-5.72.09c-.63.08-1.35,1.07-1.6,1.8-.1.28,1,1.39,1.53,1.41,3.81.13,7.63.15,11.44,0,.56,0,1.07-1.15,1.6-1.76-.63-.52-1.21-1.4-1.89-1.48A45.6,45.6,0,0,0,414.54,471.41Zm88-31.82-8.05,3.94,8.77,7.21C503,446.61,502.79,443.49,502.54,439.59ZM140.8,452.17,135.49,454c3.19,2.34,5.28,7,11,5ZM341,422.63c4.72,0,8.64.05,12.55-.05.57,0,1.13-.8,1.7-1.22-.64-.4-1.24-1.08-1.91-1.16-3.22-.36-6.46-.55-10.31-.86C342.78,419.77,342.11,420.86,341,422.63Zm-53.82-190.9-4.82-7.54c-1.79,2.81-3.13,4.94-4.78,7.54ZM412.52,443.46l.33.9c2.33,0,4.65.09,7-.08.52,0,1.48-1.25,1.36-1.51-.65-1.36-1.34-2.92-2.49-3.71-.59-.41-2.37.41-3.28,1.1A21.37,21.37,0,0,0,412.52,443.46ZM78.4,447.56l-.85.48c.45,2.11.25,5.21,1.54,6.06s4.13-.34,6.29-.65l.16-.92ZM194.18,201.71c-1.3,3.35-6.49,5.61-3.21,10.93C193.79,209,195.67,205.87,194.18,201.71Zm30,16.14.54-1.07L221,210.09l-2.8,6.94Zm-170.75,219c-4.93-2.74-5.87-2.17-9.33,5.39ZM197.51,211.2l-1-.12-2.11,6.24h6.52Zm125.22,6.05c-1.26-2.33-2.28-4.2-3.63-6.68l-3.82,6.68Zm-89.58-6.83c-1.08,2.81-1.85,4.8-2.61,6.79l6.75.48Zm12.32.17-3.73,6.68h7.36Zm122.65,1-1.24-.08L365.15,217l6.16.85C369.89,215.08,369,213.34,368.12,211.6Zm11.82-.65c-1.34,2.43-2.32,4.23-3.41,6.2h7.36ZM261.53,230.71c-2.59,0-5.1-.85-5.84,1.9-.34,1.24.76,2.87,1.21,4.33l1.11-.19C259.11,234.86,260.22,233,261.53,230.71ZM125.67,506.13l-.5-1.2-9.42.67c2.11,3.48,4.7,2.13,6.78,2.13C123.58,507.73,124.62,506.7,125.67,506.13ZM254.1,217.31h7.16l-3.63-6.25C256.34,213.33,255.39,215,254.1,217.31ZM403.55,420.74l.16,1.36c4-.07,8.16.74,11.93-1.36ZM347,217.33c-1.3-2.23-2.3-4-3.74-6.45l-3.4,6.45Zm-117.55,230c3.89-3.57,4-6.32.51-9.75C229.78,441.16,229.61,444.25,229.45,447.35ZM358.1,217.88l.66-.95-3.33-6L352.87,217ZM330.88,211c-1,2.55-1.76,4.3-2.47,6.06l6.29.7C333.24,215.17,332.33,213.55,330.88,211ZM212.69,217.3l-3.3-6.26c-1.28,2.36-2.21,4.08-3.4,6.26Zm197,80.19-.8-.77-9.61,10.09,1.09,1.05Zm-99.41-80.23c-1.16-2.19-2-3.78-3.13-5.91l-3.24,5.91ZM169.43,418.64l-2-2.62c-.85,1.11-2,2.11-2.41,3.35-.21.66.94,1.75,1.48,2.65Zm97.11-201.88.7,1.2c1.28-.63,3.16-1,3.68-2s-.08-2.9-.2-4.4l-1.2,0Zm28.89-4.84-1.5.16c.11,1.56-.14,3.29.48,4.61.37.77,2.12.9,3.24,1.32l.57-.94ZM129,406l-3.24,1.91c1.13.46,2.25,1.26,3.39,1.29s2.18-.76,3.27-1.19ZM383,230.71l-1.26.12c0,1.8-.07,3.6.05,5.39,0,.4.65.91,1.1,1.08.25.09,1-.4,1.05-.67C384.06,234.58,385.09,232.31,383,230.71ZM162.46,425.21c-2.85,2.68-.81,4.29.85,6.08C165.71,427.29,165.68,427,162.46,425.21ZM395.93,304.5l1,1,7.29-7.19-1.38-1.37Zm-225,161a27.78,27.78,0,0,0,4.68-.09c.43-.08,1.12-1.51.92-1.82C175.63,462.16,172.22,463,171,465.48ZM431.6,433l-.09,1h7.34v-1ZM186.67,213l-2.62,4.52h4.85Zm9.68,20.37,2.16,2.49c.42-.86,1.23-1.74,1.16-2.56s-.94-1.79-1.46-2.68ZM141,463.5l-.12,1.68h5.9l.08-1.31Zm94.64,1.68,0-1.56a29.65,29.65,0,0,0-4.06-.59c-.44,0-1.05.74-1.28,1.27-.1.21.58,1.12.93,1.12C232.71,465.46,234.2,465.28,235.68,465.18ZM356,233.49l-2-2.74c-.38.76-1.12,1.56-1.05,2.28a9.2,9.2,0,0,0,1.27,2.82ZM205.41,464.91c.07-.44.15-.88.22-1.32-1.54-.16-3.08-.38-4.62-.41-.22,0-.46.9-.69,1.38,1.4.28,2.8.58,4.22.8C204.8,465.4,205.12,465.07,205.41,464.91ZM435.75,439.2l-.6,1.5,3.41,1.68c.25-.69.5-1.37.74-2.06ZM370.1,501.33l1.83-.11V497.5l-2.2.14C369.85,498.87,370,500.1,370.1,501.33Zm27.27-204.28c-4.61-.21-4.64-.17-3.56,3.91ZM327.68,501.83c2.61-1.63,3.36-3.08-.23-4.76C327.55,499.05,327.61,500.44,327.68,501.83ZM113.63,479l-3-3.3-1.65,3.9ZM225.09,230.9l-1.33.11c.08,1.43.15,2.85.22,4.28l1.11,0ZM164,297l4.76,3.35C169.14,296,167,296.63,164,297Zm162.24-66.14-1.52.11.24,4.27,1.54-.11C326.42,233.74,326.34,232.32,326.25,230.89Zm74.89,13.71c-.18,4-.12,4,2.73,4.07ZM67.28,441.89l-4.22-2c.38,1.6.6,2.54.86,3.66ZM247.6,495.05l.55-1.15-2.7-1.42c-.26.5-.52,1-.77,1.49Zm2.56-259.89,1.18-.08-.24-4-1.24.09ZM516.38,435.88c-.22.38-.43.77-.65,1.16q1.93,1.11,3.85,2.24l.7-1.26ZM230.94,458.13l0,.51h5.19l0-.51Zm-59-.05.05,1,4.34-.22,0-.8Zm29.18.06,0,.49H205l0-.49ZM466,465l-1,.7,2.36,2.25.51-.5ZM130.57,507.07l0,.8,1.91-.2,0-.6Z"/><path d="M445.5,359.42c5.53,0,11.05-.1,16.57.08,1.21,0,3,.87,3.41,1.8s-.38,2.69-1.13,3.73c-4.11,5.74-8.56,11.26-12.51,17.1-1.78,2.64-2.54,5.94-4,8.79-.64,1.22-2,2.84-3,2.88s-2.71-1.54-3.08-2.73a64.42,64.42,0,0,0-15.43-25.7c-.93-1-1.93-3-1.52-3.86s2.47-1.69,3.83-1.74c5.63-.18,11.28-.08,16.92-.08ZM442,368c-1.78-4-5-5-9.67-3.17C434.18,369.59,438.14,368,442,368Zm8.89,0,.49-.26c-.09-.07-.2-.2-.27-.18a2.49,2.49,0,0,0-.48.26Z"/><path d="M120.28,359.72c5.53,0,11.06-.1,16.58.08,1.26,0,3.16.73,3.54,1.63s-.54,2.7-1.4,3.63a73.63,73.63,0,0,0-15.93,25.49c-.4,1.13-1.84,1.89-2.79,2.82-.85-.91-2.11-1.67-2.48-2.73-3.44-9.87-9.35-18.07-16.46-25.56-.88-.93-1.17-2.42-1.73-3.65,1.36-.55,2.71-1.54,4.08-1.59,5.53-.18,11.06-.08,16.59-.08Zm-13,4.77a6,6,0,0,0,5.87,3.81c4.8.07,9.6,0,14.39,0a5.8,5.8,0,0,0,5.64-3.8Zm6.18,8.26c2.69,4.91,6.8,2.54,10,3,1.07.16,2.39-1.38,3.6-2.15l-.54-.86Zm7,12.87c.9-2.17,1.5-3.6,2.21-5.29h-4.55Z"/><path d="M281.7,354c4.43,0,8.86-.08,13.29,0s5.28,1.71,3,5.31q-6.53,10.32-13.22,20.54c-2.49,3.78-4.27,3.79-6.68.09q-6.75-10.39-13.28-20.94c-2-3.21-1.06-4.87,2.86-5C272.35,353.91,277,354,281.7,354Zm-11,5c3.63,5.72,7,11,10.74,16.91l10.8-16.91Z"/><path d="M302.75,379.57a7.46,7.46,0,0,1,7.58-7.44,7.56,7.56,0,1,1,.17,15.11A7.54,7.54,0,0,1,302.75,379.57Zm7.66-4.39c-1.52,2.1-3.14,3.38-3,4.44.15,1.23,1.85,2.27,2.88,3.39,1.1-1.06,2.9-2,3.09-3.2S311.91,377.39,310.41,375.18Z"/><path d="M251.16,387.2a7.48,7.48,0,0,1-7.55-7.52,7.3,7.3,0,0,1,7.49-7.5,7.51,7.51,0,1,1,.06,15Zm-.83-3.52,1.47,0c.9-1.29,2.27-2.48,2.58-3.9.43-2-.83-3.48-3-3.57s-3.88,1.27-3.6,3.45C247.94,381.11,249.43,382.36,250.33,383.68Z"/><path d="M280.6,398c4.6,1.49,9.25,2.87,13.78,4.58.9.34,1.32,1.95,2,3-1.26.08-2.75.65-3.75.17-7.88-3.76-15.7-3.7-23.68-.32-1,.45-2.52-.13-3.79-.23.78-1.12,1.32-2.87,2.37-3.25C271.6,400.4,275.87,399.34,280.6,398Z"/><path d="M296.74,388.84c1.87,2.29,3.64,3.51,3.9,5,.38,2.22-1.31,3.86-3.65,4a3.3,3.3,0,0,1-3.79-3.76C293.38,392.58,295,391.25,296.74,388.84Z"/><path d="M266.17,389.14c1,1.34,2.93,2.77,2.81,4a5.38,5.38,0,0,1-3.36,3.63c-2,.51-3.63-1.08-3.71-3.32S263.15,390,266.17,389.14Z"/><path d="M317,356.52c1,1.25,2.12,2,2.12,2.71s-1,1.55-1.58,2.32c-.79-.69-1.94-1.26-2.25-2.12C315.05,358.88,316.1,357.88,317,356.52Z"/><path d="M246.35,362.42c-1-1.32-2-2.13-1.94-2.86s1.14-1.46,1.77-2.19c.71.66,1.9,1.26,2,2S247.26,361,246.35,362.42Z"/><path d="M306.54,128.63c6.85.42,12.93,2.62,17.9,7.4,1.17,1.12,3.38,2.51,1.3,4.31-.63.54-3.08-.21-4.13-1.07-10.73-8.83-22.67-8.08-32.31,2-.72.75-2.31.67-3.5,1,.18-1.22-.07-2.78.59-3.61A25.27,25.27,0,0,1,306.54,128.63Z"/><path d="M278.59,138.21c-1.56.47-2.68,1.13-3.73,1-.79-.08-1.48-1.13-2.22-1.73a19.55,19.55,0,0,0-25.68.74c-1.19,1.1-2.5,2.52-3.81.68-.46-.66.19-2.69,1-3.53,8-8.81,24.16-8.76,32.41,0C277.08,136,277.5,136.72,278.59,138.21Z"/><path d="M388.64,372.87a52.76,52.76,0,0,1-2.16,6.81c-.23.51-2,.78-2.75.43a3.07,3.07,0,0,1-1.25-2.51,12.83,12.83,0,0,1,1.49-4.73,3.58,3.58,0,0,1,2.72-1.64C387.54,371.3,388.3,372.56,388.64,372.87Z"/><path d="M365.25,374.43c1,1.42,1.75,2.15,1.92,3,.09.46-1.12,1.69-1.33,1.6a4,4,0,0,1-2.18-1.74C363.46,376.82,364.4,375.87,365.25,374.43Z"/><path d="M343.6,395.63c-.74-1.31-1.47-2-1.44-2.73,0-.54,1.12-1.56,1.5-1.46.72.19,1.69,1,1.75,1.62S344.53,394.39,343.6,395.63Z"/><path d="M359,377.14c.94,1.23,1.75,1.86,1.88,2.6.08.45-.89,1.08-1.38,1.63-.63-.58-1.49-1.06-1.79-1.78C357.56,379.18,358.32,378.39,359,377.14Z"/><path d="M406.38,393.58c-1,.75-1.55,1.57-2.14,1.57s-1.19-.81-1.78-1.27c.56-.63,1-1.55,1.71-1.81C404.58,391.93,405.37,392.86,406.38,393.58Z"/><path d="M349.68,387.56c-1.05.72-1.68,1.51-2.24,1.45s-1.15-.89-1.73-1.39c.54-.52,1-1.39,1.61-1.45S348.57,386.86,349.68,387.56Z"/><path d="M343.49,398.19c-.87.69-1.48,1.48-1.82,1.37-.65-.2-1.15-.9-1.71-1.4.43-.43.89-1.25,1.29-1.22C341.9,397,342.5,397.6,343.49,398.19Z"/><path d="M393,380.59c-1.13.69-1.74,1.33-2.38,1.36-.44,0-1.38-1-1.29-1.22.24-.67.84-1.53,1.44-1.65S391.93,379.83,393,380.59Z"/><path d="M353.84,380.14c.76.84,1.47,1.34,1.7,2,.1.3-.92,1.41-1.15,1.33a3.22,3.22,0,0,1-1.73-1.4C352.52,381.79,353.27,381,353.84,380.14Z"/><path d="M377.23,374.89c.65.92,1.32,1.49,1.38,2.11,0,.42-1,1.38-1.22,1.29a2.78,2.78,0,0,1-1.52-1.47C375.75,376.46,376.55,375.82,377.23,374.89Z"/><path d="M339.13,402.7c.61.75,1.32,1.24,1.33,1.74s-.71,1-1.1,1.51c-.55-.51-1.28-.94-1.56-1.57C337.69,404.12,338.53,403.43,339.13,402.7Z"/><path d="M393.76,262.66a30.42,30.42,0,0,1-1.72,2.88c-3.47,4.29-6.92,8.6-10.48,12.81-2.42,2.85-3.66,2.83-6-.05-3.36-4.07-6.67-8.18-9.83-12.4a4.52,4.52,0,0,1-.82-3.48c.23-.7,1.92-1.28,3-1.3,7.2-.17,14.4-.26,21.59-.15C390.8,261,392.15,262,393.76,262.66Zm-8.68,3.61H372l6.55,8.26Z"/><path d="M183.73,260.79c3.37,0,6.74-.15,10.08.08a5.87,5.87,0,0,1,3.59,1.71c.35.38-.42,2.2-1.07,3.06-3.26,4.31-6.58,8.57-10,12.74-2.15,2.62-3.31,2.62-5.44,0-3.51-4.26-6.92-8.61-10.28-13-2-2.62-1.31-4.29,2-4.46,3.71-.19,7.44,0,11.16,0Zm-7.2,4.83c2.59,3.22,4.75,5.93,7.17,8.93l6.77-8.93Z"/><path d="M206.13,373.31a49.15,49.15,0,0,1-2.4,7.37c-.3.59-2.38.68-3.42.33-.5-.17-1-2.47-.6-2.81,1.5-1.35,1.42-2.93,1.68-4.64.12-.74,1.66-1.72,2.56-1.74S205.64,373,206.13,373.31Z"/><path d="M141.67,408.93c-1.46-1.39-3.06-2.19-3.26-3.26-.41-2.11,1.42-2.38,3.09-2.36s3.81-.09,3.47,2.33C144.83,406.68,143.16,407.51,141.67,408.93Z"/><path d="M178.59,370.77c-1.78,1.23-2.86,2.55-3.65,2.4-1.1-.21-2-1.53-3-2.37.9-.92,1.73-2.45,2.72-2.56S176.76,369.5,178.59,370.77Z"/><path d="M153.34,405.58c-2,1.15-3.07,2.23-4,2.14s-1.84-1.33-2.76-2.07c1-.81,1.83-2.09,2.9-2.29C150.3,403.2,151.38,404.38,153.34,405.58Z"/><path d="M159.46,379.68c1.27,1.35,2.76,2.4,2.6,2.88-.38,1.12-1.56,2-2.41,2.92-.8-.74-2.22-1.47-2.23-2.22C157.41,382.27,158.5,381.25,159.46,379.68Z"/><path d="M215.24,384.56c1.19,1.46,2.58,2.55,2.39,3.05a5.4,5.4,0,0,1-2.58,2.67c-.37.19-2.28-1.37-2.18-1.86C213.11,387.25,214.13,386.24,215.24,384.56Z"/><path d="M216.42,394.85c0-.59-.22-1.51.07-1.73a9.55,9.55,0,0,1,3.39-1.72c.31-.06,1.58,2.11,1.4,2.3a7.48,7.48,0,0,1-3,1.89c-.49.17-1.26-.51-1.9-.81Z"/><path d="M172.87,377.82c1.06,1.5,2,2.34,2.18,3.31.08.46-1.4,1.75-2,1.65a2.93,2.93,0,0,1-2-2C171,380.09,172,379.22,172.87,377.82Z"/><path d="M223.93,398.67c-1.23.95-1.92,1.9-2.53,1.85s-1.28-1-1.92-1.59c.57-.61,1.07-1.6,1.74-1.73S222.6,397.9,223.93,398.67Z"/><path d="M171.12,384.36c-1.28.92-1.93,1.74-2.65,1.81-.55.05-1.74-.92-1.68-1.3.11-.74.79-1.82,1.41-1.95S169.69,383.6,171.12,384.36Z"/><path d="M158.09,401.75c-.83-1.14-1.62-1.78-1.71-2.51-.06-.44,1.12-1.53,1.47-1.43a3.18,3.18,0,0,1,1.81,1.66C159.81,399.85,158.9,400.63,158.09,401.75Z"/><path d="M155.79,407.35c-.9-1-1.89-1.69-1.87-2.3s1-1.22,1.61-1.83c.59.6,1.46,1.11,1.69,1.82C157.36,405.48,156.52,406.23,155.79,407.35Z"/><path d="M211.28,383c-1,.78-1.66,1.72-2.09,1.61-.68-.17-1.18-1.05-1.75-1.63.56-.5,1.08-1.34,1.68-1.39S210.3,382.33,211.28,383Z"/><path d="M160.29,391.33c.82.87,1.84,1.56,1.73,1.93-.2.73-1,1.29-1.6,1.92-.55-.53-1.47-1-1.54-1.6S159.62,392.34,160.29,391.33Z"/><path d="M195.79,379.67c-.84-.9-1.84-1.59-1.74-1.94.22-.7,1-1.22,1.61-1.82.51.52,1.36,1,1.44,1.58S196.43,378.67,195.79,379.67Z"/><path d="M225.25,404.93c-1.18.63-2,1.37-2.44,1.21a2.49,2.49,0,0,1-1.19-1.8c-.05-.31,1-1.15,1.46-1.08C223.7,403.36,224.22,404.09,225.25,404.93Z"/><path d="M186.23,375c.7,1.05,1.37,1.63,1.41,2.24s-.86,1.49-1.11,1.42c-.65-.18-1.54-.76-1.63-1.3S185.55,376.09,186.23,375Z"/><path d="M250.74,308a7.65,7.65,0,0,1-7.63-7.89,7.93,7.93,0,0,1,7.76-7.52c4.15.06,7.95,3.83,7.91,7.84A7.88,7.88,0,0,1,250.74,308Zm4.17-6.84,0-1.57c-1.34-.86-2.6-2.23-4-2.46a2.66,2.66,0,0,0-3.16,3.28c.27,1.27,1.9,3.18,2.87,3.14C252,303.49,253.46,302,254.91,301.15Z"/><path d="M320.18,300.21a7.92,7.92,0,0,1-7.75,7.89,7.84,7.84,0,0,1-7.84-7.77,8,8,0,0,1,7.53-7.76A8.14,8.14,0,0,1,320.18,300.21Zm-7.1-3.78-1.5,0c-.87,1.34-2.53,2.78-2.38,4s2.08,2.3,3.23,3.44c1.1-1.18,2.94-2.27,3.09-3.55S314,297.73,313.08,296.43Z"/><path d="M308.48,289.19c-2.93-.68-4.15.16-4.84,2.26-.22.64-1.27,1-1.94,1.49-.41-.79-1.36-1.9-1.12-2.33,1-1.75,2.05-4,3.69-4.72s3.77.15,5.66.54c.39.08.58,1.14.87,1.75Z"/><path d="M256.34,285.09c3,.24,5.27,1.5,6.06,4.37.23.86-.67,2-1,3.06-.66-.52-1.6-.91-1.93-1.59-.94-1.93-2.14-2.68-4.32-2.05-.93.27-2-.14-3.08-.24a24.78,24.78,0,0,1,2.38-3C254.86,285.22,255.74,285.25,256.34,285.09Z"/><path d="M280,476.89a6.71,6.71,0,1,1,.11-13.42,6.71,6.71,0,0,1-.11,13.42Zm3.07-6.38-.08-1.32c-1-.53-2.14-1.65-2.93-1.44-1.09.28-1.91,1.58-2.85,2.44.82.84,1.7,2.43,2.43,2.36C280.82,472.43,281.91,471.24,283.05,470.51Z"/><path d="M165.37,307.58c-.91.2-2.07.82-2.48.49-2.71-2.12-5.28-4.42-7.82-6.75a1.58,1.58,0,0,1-.09-1.54c.45-.36,1.49-.71,1.79-.46,2.76,2.26,5.42,4.65,8.09,7C165,306.48,165,306.77,165.37,307.58Z"/><path d="M143,299.49q2.88,3.93,5.75,7.85l-.67,1c-1-.37-2.34-.46-2.93-1.17C143.43,305.12,141.16,303.1,143,299.49Z"/></svg>