<svg id="Слой_1" data-name="Слой 1" xmlns="http://www.w3.org/2000/svg" viewBox="0 0 566.93 566.93"><path d="M406.49,460.11h4.72l82.74,0c1,0,2,0,3.06.09,2.58.12,4.2,1.47,4.26,4,.06,2.82-1.74,4.2-4.42,4.39-1.75.13-3.5.09-5.25.09-27.29,0-54.58,0-81.86-.08-3.86,0-6.55.69-8.45,4.52-2.11,4.23-5.61,5.22-10.36,4.51a32.77,32.77,0,0,0-6.32.22c-.28,0-.56.23-.84.22-5.86-.23-11.72-.51-17.58-.72a20.92,20.92,0,0,0-4.69.2c-5.35,1.06-8.89,0-11.56-4.69-2-3.43-4.55-4.33-8.25-4.32q-57.78.16-115.56.08c-3.41,0-5.67,1-7.43,4.1-2.8,5-6.21,6-11.84,4.91-2-.39-4.2.07-6.3.19-.58,0-1.14.38-1.7.36-5.35-.18-10.69-.47-16-.6a46,46,0,0,0-6.95.32c-4.25.52-7.73-.83-9.51-4.65s-4.57-4.72-8.43-4.7c-27.72.11-55.45.1-83.17.13-5.66,0-7.62-1.1-7.64-4.24s1.83-4.31,7.55-4.32h81c1.86,0,3.72-.16,5.62-.24-1.21-7.07-2.18-7.94-8.56-7.95l-116-.05c-1.31,0-2.63.07-3.93-.05-4-.37-5.49-2.42-3.66-5.86,5.25-9.91,10.58-19.8,16.32-29.44,2.88-4.83,7.86-7.06,13.48-6.61,4.34.34,5.2-1.48,5.12-5.29-.18-8.9-.37-17.82.12-26.7a35.91,35.91,0,0,1,3.18-13.39c4.44-9.18,9.64-18,14.64-26.88a42.28,42.28,0,0,1,4.45-6.48c6.65-7.87,14.52-8,21.11-.14a85.47,85.47,0,0,1,7.28,10.87c2,3.23,3.61,6.65,5.66,10.49.84-1.15,1.57-1.95,2.09-2.86Q147.8,304.77,173,260c1.15-2,1.83-3.83.14-6-1.93-2.47-.33-4.69,1-6.79,5.8-9.1,11.57-18.22,17.48-27.25,1.59-2.42,2.12-4.53.66-7.26a9.11,9.11,0,0,1,.78-10c3.69-5.25,7.43-10.47,11.42-15.48,1-1.31,3.26-2.7,4.69-2.47,3.63.58,4.86-1.44,6.37-4q23.64-39.65,47.49-79.16A46.71,46.71,0,0,1,271.94,91a18.37,18.37,0,0,1,24.47-.45A42.77,42.77,0,0,1,305.5,101q24.21,39.55,48,79.37c1.67,2.77,2.93,5.15,7,4.07,1.3-.35,3.73,1.07,4.72,2.38,4.1,5.48,7.92,11.18,11.7,16.9a8.2,8.2,0,0,1,.15,9.14c-1.57,2.56-1.08,4.47.41,6.77,6,9.18,11.77,18.44,17.64,27.67,1.55,2.45,2.56,4.85.65,7.71a3.64,3.64,0,0,0,.2,3.09q23.44,42.53,47,85c.11.2.46.26,1,.55,3.08-5.58,5.94-11.28,9.3-16.68a60.13,60.13,0,0,1,8.44-11.06c4.84-4.8,10.64-4.88,15.67-.32a41.12,41.12,0,0,1,7.58,9.47c5.11,8.67,9.73,17.62,14.7,26.37a31,31,0,0,1,3.93,15.91c-.09,12.7,0,25.39-.1,38.08,0,3.3.72,4.79,4.42,4.52,7.54-.56,12.8,3.28,16.27,9.68Q530.76,431.73,537,444c3,5.87,1.73,7.89-5,7.9q-58,0-116,0C409.13,451.88,408.27,452.59,406.49,460.11ZM307.14,230.37a17.35,17.35,0,0,0-2.14-.26q-20.92-.08-41.86-.09a5.82,5.82,0,0,0-1.58.56c5.57,5.59,12,9,19.39,9.81,10.28,1.07,19.56-1.19,26.11-10.12l.21-.07Zm-57.48.36c-1.1.81-1.84,1.26-2.46,1.83-17.06,15.62-37,24.48-60.17,26.07A7.8,7.8,0,0,0,182,262a47.13,47.13,0,0,0-7.85,26.46c.56,29,14.16,50.22,39.64,63.7,18.79,9.94,39.22,13.73,60.25,14.67,24.36,1.09,48.38-.51,71.42-9.49,25.21-9.82,42-27.22,48.63-53.78a54.37,54.37,0,0,0-4.75-39.46,9.73,9.73,0,0,0-8.61-5.69c-22.23-1.48-41.36-10.22-57.92-24.91-1-.93-2.2-1.7-3.56-2.74-8.87,11.89-20,18.81-34.72,18.8S258.84,242.16,249.66,230.73ZM168.91,452.9c1.05,4.63,1.83,8.93,3.09,13.08.46,1.52,2.09,2.68,3.18,4,.81-1.5,2.08-2.94,2.31-4.52.4-2.72,0-5.55.28-8.29.11-1,1.28-1.9,2-2.84.73.92,1.89,1.76,2.11,2.79.59,2.7.65,5.5,1.15,8.22.37,2,.3,5.08,3.33,4.55,1.21-.21,2.49-2.79,2.86-4.48.6-2.67.33-5.53.72-8.26.13-.94,1.11-1.76,1.7-2.64.83.83,2.18,1.54,2.38,2.49.63,3.14.64,6.4,1.31,9.52.28,1.3,1.6,2.37,2.45,3.54,1.06-1.16,2.74-2.17,3.06-3.51.7-2.95.58-6.08,1.11-9.09.18-1.07,1.25-2,1.91-3,.81,1,2.1,2,2.32,3.1.47,2.41.24,4.94.55,7.4.25,2-.44,5.27,2.62,5,1.49-.15,2.92-3,4-4.84,1.65-2.85,2.94-5.9,4.43-8.85.58-1.15,1.34-2.22,1.93-3.37,5.55-10.93,4.75-22.33,2.28-33.77-3.08-14.23-9.26-26.73-21.56-35.34a23.31,23.31,0,0,0-22.47-2.92c-12.19,4.48-19.09,13.34-21.44,26-2.27,12.2,1.28,23.37,6,34.33,2.07,4.77,2.2,4.82,6.51,2.17,7.91-4.87,16.34-8.4,25.6-9.57a27.82,27.82,0,0,1,8.69,0c1.38.27,3.28,2.3,3.33,3.61.05,1.13-2,2.78-3.46,3.41s-3.45.3-5.19.48C187.11,442.43,177.71,447.11,168.91,452.9Zm-48.37-80.35a16.13,16.13,0,0,0-1.8,2.06c-5.32,9.38-10.54,18.82-15.93,28.16-1.74,3-.1,4.09,2.25,5.28,7.71,3.92,13.48,9.65,16.07,18.12.82,2.67,2.34,3.11,5,2.73,5-.74,10.09-1.1,15.15-1.5,2.11-.17,4.25,0,7.1,0-2.37-12.74-1.88-24.52,4.26-35.47s15.35-18.37,27.81-21a3.76,3.76,0,0,0-.14-.83,6.49,6.49,0,0,0-.71-1.08c-10.94-12.09-13.31-25.45-6.3-40.39.67-1.44.29-3.66-.25-5.3-1.43-4.28-3.63-8.32-4.77-12.65-1.51-5.68-2.3-11.54-3.5-17.87-.79,1.24-1.34,2-1.82,2.88-5.66,10-11.16,20.15-17,30-2.17,3.65-2.13,5.95,1.25,8.89,10.3,9,14.11,20.72,13.36,34.12,0,.57-.57,1.11-.87,1.67l-1.08.19c0-14.76-5.18-26.86-17.13-36.22-1.2,2-2.15,3.4-3,4.9-4.55,8.14-9.06,16.3-13.62,24.44-2.9,5.17-3,5.19,1.34,9.07,8.89,8,13,18.1,12.77,30a33.91,33.91,0,0,1-.51,4l-1.27.23C137,392.9,132,381.41,120.54,372.55Zm283.57,73.31c2.3-6.33,4.82-12.32,6.65-18.52,2.52-8.55,2.92-17.27-.17-25.82-4.14-11.46-11.56-19.67-24-21.8-11.67-2-20.25,3.81-27.22,12.43-8.33,10.29-12.26,22.34-13.79,35.36-1,8.55-.92,16.93,2.84,24.85,2.38,5,7.32,8.74,7.38,14.92a.54.54,0,0,0,.21.37c1.13.78,2.27,1.54,3.4,2.31.71-1.1,1.87-2.13,2-3.31.47-3,.38-6.12.8-9.14.15-1.06,1.17-2,1.79-3,.83,1,2.17,1.85,2.38,2.94.59,3,.44,6.14,1.14,9.1.31,1.34,1.92,2.37,2.94,3.55.94-1.27,2.41-2.43,2.72-3.84.68-3.12.64-6.38,1.19-9.53.15-.84,1.38-1.49,2.11-2.23.58.72,1.54,1.39,1.66,2.18.42,2.88.29,5.86.91,8.68.39,1.71,1.55,4.29,2.77,4.55,2.68.59,2.95-2,3.21-4.12a56,56,0,0,1,1-7.35c.38-1.47,1.57-2.74,2.39-4.09.65,1.38,1.66,2.7,1.87,4.15.34,2.28-.1,4.69.26,7,.24,1.5,1.32,2.87,2,4.3,1.21-1.21,3-2.21,3.5-3.66,1.12-3.28,1.25-6.92,2.45-10.16,1-2.73.19-3.91-2-5.23-9.14-5.44-18.64-9.65-29.56-9.54-2.46,0-4.47-.74-4.64-3.5-.18-3,2-3.9,4.54-4.19a20,20,0,0,1,2.19-.05,50.14,50.14,0,0,1,22.72,5.6C395.68,441,399.41,443.25,404.11,445.86Zm-15.74-75.35c27.84,9.44,36,29.58,32.09,56.35,7.77.54,15.33.84,22.82,1.73,2.65.32,3.72-.27,4.47-2.59,2.57-7.91,8-13.36,15-17.47,1.46-.86,2.9-1.77,4.56-2.79-6.28-11.28-12.36-22.17-18.66-33.48-12.36,8.73-17.43,20.51-17.84,34.87a6.34,6.34,0,0,1-1.16-3.33c-.62-12.74,3.64-23.55,13.45-31.77,3.15-2.64,3.27-4.65,1.29-8-4.94-8.42-9.49-17.06-14.22-25.6-.74-1.36-1.62-2.64-2.63-4.28-6.06,4.66-10.82,9.89-13.18,16.56-2.24,6.36-3.3,13.14-5.11,20.66a27.28,27.28,0,0,1-.89-3.5c-1.2-13.45,3.5-24.67,13.46-33.54,3.3-2.94,3.53-5.21,1.36-8.89-5.68-9.67-11-19.57-16.43-29.36a20.52,20.52,0,0,0-1.38-2.12c-2.54,8.73-4.89,17.86-7.94,26.74-1.26,3.67-1.73,6.66-.16,10.37,5.26,12.37,3.22,23.92-4.83,34.52C391.25,367.18,389.89,368.68,388.37,370.51ZM306.56,118.4c-4.51-6.58-8.64-13.48-13.65-19.67-4.74-5.85-10.9-5.79-16.35-.53a35.71,35.71,0,0,0-5.66,7.16c-8.46,14-16.7,28-25.2,42-1.65,2.7-1.55,4.13,1.11,6q17.65,12.48,35.07,25.32c2.31,1.71,3.92,1.46,6.13-.17,11.36-8.41,22.84-16.64,34.26-25,1.12-.82,2.1-1.82,3.22-2.79l-17.2-28.61-13.36,18.07C294.37,135.52,295.26,133.85,306.56,118.4Zm52.86,74.9-.7-1.42c-1.49.31-3,.56-4.48,1a264.11,264.11,0,0,1-67,8.55,293.34,293.34,0,0,1-71.92-8.18,6.86,6.86,0,0,0-5.67,1.51,91.63,91.63,0,0,0-8.08,10.84c-2.15,3.15-1.18,5.81,2.43,7.27a17.31,17.31,0,0,0,3,.78c43.52,8.94,87.28,10.76,131.28,4.17,8.93-1.34,17.76-3.26,26.61-5.06,3.88-.78,5.45-3,4-5.68-1.84-3.35-4.28-6.38-6.42-9.5-13.47,8.76-22,11.86-27,9.45C344.7,204,353.88,201.53,359.42,193.3ZM236.16,393.41a34.74,34.74,0,0,0,11.71,14.44c20.05,14.59,50.79,15.32,71.18,1.13,4.77-3.32,8.39-8.33,12.33-12.76.59-.66,0-2.37,0-3.59a18.74,18.74,0,0,0-3.42,2,8.85,8.85,0,0,0-1.43,2.67c-.85,1.66-1.49,4-4,2.67s-.92-3.14-.06-4.74c3.16-5.88,4.25-12,2.4-18.56-.82-2.93-2.31-3.93-5.41-3.37a185.16,185.16,0,0,1-47,2.4c-7.4-.56-14.77-1.57-22.14-2.41-4.88-.54-6.38.59-7,5.41-.72,5.48-.17,10.75,2.55,15.68a7.17,7.17,0,0,1,1.22,2.76c0,1-.35,2.45-1,2.83a3,3,0,0,1-2.8-.86,21,21,0,0,1-2.36-4.66C239.71,391.88,238.19,391.71,236.16,393.41Zm76.39-206.84-.11-2c9.87-1.19,19.9-1.81,29-7.18-4.49-7.45-8.8-14.6-13.3-22-1.83,1.28-3.14,2.17-4.41,3.1-11.55,8.4-23.15,16.75-34.61,25.27-3.05,2.27-5.54,2.45-8.59.06-5.63-4.39-11.45-8.55-17.23-12.74-7.27-5.29-14.59-10.51-22.26-16l-13.29,22.6c9.31,5.09,19,5.85,28.48,7.73-10.65,2.26-20.68.38-30.61-4.17-1.53,2.42-2.94,4.67-4.7,7.47,42.66,9.38,84.5,10.24,126.49,0-1.68-6.89-2.89-7.33-8.62-5.55a100,100,0,0,1-15.31,3.36C319.93,187,316.21,186.57,312.55,186.57ZM223.69,397.85c1.89-1.11,3.32-1.82,4.6-2.73,3.25-2.3,6.48-4.63,9.62-7.08a3.77,3.77,0,0,0,.86-2.24c.59-3.84,1.28-7.68,1.52-11.54a4.81,4.81,0,0,0-1.92-3.49c-1.09-.8-2.75-.81-4.16-1.18-20.8-5.55-38.91-15.44-52.46-32.65a9.91,9.91,0,0,1-1-2l-1.77.53c-.36,3.63-1.3,7.3-1,10.86,1,11.42,8.33,18.63,17.67,24C207.33,377,217.26,385.26,223.69,397.85Zm113.65,19.8q-53.13,37.71-105.81.11c.41,6.59,1.13,13.54,1.19,20.5,0,3.83,1.14,5,5,5,30.49-.15,61-.1,91.47-.11,1.31,0,2.79.34,3.89-.15s2.78-1.78,2.87-2.83C336.6,432.63,336.92,425.07,337.34,417.65Zm52.2-82.88c-14.15,19.24-33.25,29.38-55,35.29-6.51,1.77-6.52,1.74-5.12,8.32,1.65,7.83,1.63,7.86,7.73,13.22,2.36,2.08,4.86,4,7.31,6a10.57,10.57,0,0,0,1.65-1.6c6.73-11.57,16.5-19.72,28.23-25.93a32.46,32.46,0,0,0,15.27-16.8A22.67,22.67,0,0,0,389.54,334.77ZM454,363.37c13.38-4.28,22.63-.14,22,10a13.28,13.28,0,0,1-3.44-3.41c-3.5-5-9.06-7-13.6-4.67-1.82.91-2.82,2-1.66,4.12,5.23,9.39,10.43,18.8,16,28.79,5.41-8.29,12.75-9.69,21.66-6.31,0-7.4.06-13.8,0-20.19a63.67,63.67,0,0,0-.68-10.44c-.21-1.21-2.14-3-3.32-3-12.94-.21-25.89-.13-39.4-.13C452.47,360.14,453.19,361.65,454,363.37Zm-343.48,8.05c-12.29,0-23.47-.09-34.65.14-1,0-2.88,2.09-2.91,3.24q-.36,15.93-.07,31.89a4.1,4.1,0,0,0,2.64,3,71.54,71.54,0,0,0,11.34.16,4.45,4.45,0,0,0,3-2.07C96.61,396,103.26,384.25,110.54,371.42Zm124.85,43c1.14,1,2.35,2.2,3.72,3.22,11.9,8.91,25.44,13.29,40.15,14.55,19.05,1.62,36-3.77,51.26-15,2.36-1.74,2.77-3.38,1-5.81-2.88-3.86-3.33-4-7.17-1.11-21.78,16.48-56.12,17.15-77.63,1.51-6.08-4.42-6.08-4.42-10.93,1.42C235.58,413.39,235.58,413.73,235.39,414.44Zm-11.57,45.27H344.49c.15-6.68-.89-7.87-6.69-7.86l-106.28.09C225.23,451.94,224.46,452.69,223.82,459.71ZM75.72,366.1c12.73,0,24,.06,35.18,0,3.28,0,5.4-2.58,4-5.12-4.53-8.47-9.18-16.89-14.3-25-2.2-3.49-5-3.33-7.31.36C87.42,345.76,81.93,355.51,75.72,366.1Zm373.36-13.87h41.4c-5.39-9.45-10.24-18.42-15.55-27.11-3.59-5.89-6.46-6.05-10-.39C459.45,333.47,454.59,342.59,449.08,352.23ZM122,433.8c-1.62-2.22-3.25-3.56-3.72-5.23-2.43-8.71-8.44-14-16.15-17.88-2.13-1.08-3.4-.79-4.55,1.39-2.38,4.5-4.9,8.93-7.52,13.3-1.16,1.94-.72,3.1,1,4.35a11.67,11.67,0,0,1,5.16,10.07c-.07,2.82,1.27,3.44,3.75,3.37,5-.13,9.9-.09,14.85-.07,6,0,6,0,6.47-5.71A25.94,25.94,0,0,1,122,433.8Zm324.87-.43c.39,2.62.89,5.88,1.43,9.46h24c-1.05-6.79,2.45-11.28,7.32-15L469.22,409.3c-8.84,4.25-15.6,9.53-18.67,18.65C449.93,429.81,448.3,431.34,446.89,433.37ZM183.51,249.25c11.15,3.83,47.72-10.39,55.41-22.55-4.49.59-8.82-.07-11.51,1.72-10.5,7-21.76,11.87-34.21,13.58C188.29,242.68,185.05,244.6,183.51,249.25Zm202.17,0c-3.29-5.95-3.28-6-9.25-6.95-11.69-1.83-22.71-5.6-32.21-12.66-4.53-3.37-8.66-3-13.48-1.69C340.48,239.76,371.09,251.65,385.68,249.22ZM71.07,442.86,53.51,419.29c-4.47,8.1-8.58,15.57-13,23.57Zm455.73,0L514.32,420l-17.15,22.9Zm-111.51.23c8.09,0,16.23,0,24.38,0,4.4,0,5.68-1.79,4.31-6-1-3.18-3.11-5.28-6.56-5.57-2.75-.22-5.52-.29-8.29-.29-11.25,0-11.25,0-14,11.14A3,3,0,0,0,415.29,443.08Zm-262,0c-1.2-3.58-2-6.65-3.3-9.54a4,4,0,0,0-2.88-2.16,135.75,135.75,0,0,0-16.14.29c-4.46.44-7,4.62-5.91,9a3.65,3.65,0,0,0,2.45,2.32C136,443.16,144.37,443.09,153.33,443.09Zm36.61-204.46a65.58,65.58,0,0,0,33.45-12.89c-7-1.45-13.24-2.84-19.5-3.94a4.49,4.49,0,0,0-3.67,1.32C196.79,227.93,193.65,233,189.94,238.63Zm155.93-12.9c10.43,7.32,20.86,11.57,33.32,12.83-3.63-5.59-6.66-10.53-10-15.21a5.18,5.18,0,0,0-4.24-1.64C358.92,222.74,353,224.18,345.87,225.73ZM487.05,410c7.87-.17,7.87-.17,7.86-8a29,29,0,0,0-.05-3.49,4.83,4.83,0,0,0-.84-2.39c-2.1-2.5-9.32-3-12.82-1.05-3.69,2.08-5.09,5.91-3.7,10.15C478.94,409.69,479.91,410.17,487.05,410Zm23.37,8.87H484.79c3.72,6.76,7.14,13,10.8,19.62Zm-426.85,0H57.88l14.85,19.52Zm149.62-6.78a37,37,0,0,0,4.14-4.95,4.46,4.46,0,0,0,.31-3.86,84.82,84.82,0,0,0-5.81-7.57,53.3,53.3,0,0,0-4.9,3.13c-.64.52-1.36,1.77-1.16,2.38C227.19,405.48,228.26,410,233.19,412.15Zm103.81.79c2.24-4.06,4.37-7.41,5.88-11,.37-.89-1-3.05-2.07-3.87s-3.46-1.61-4.52-1c-5.44,2.93-6.18,9-2,13.44C334.8,411,335.35,411.41,337,412.94ZM86.62,431.38,80.39,443c3.65,0,6.6.32,9.41-.15,1.18-.2,3-2.17,2.92-3.19A9.05,9.05,0,0,0,86.62,431.38ZM487.79,443c-1.94-3.82-3.34-7-5.15-9.86-.4-.63-2.69-.89-3.35-.36a10.24,10.24,0,0,0-3,4.15c-1.74,4.39-.51,6,4.23,6.07C482.71,443.06,484.87,443,487.79,443Z"/><path d="M427.44,492.12c-5.38,0-10.75,0-16.13,0-2.17,0-4.29-.35-4.37-3.08s1.88-3.47,4.1-3.49q16.13-.12,32.24-.08c2.16,0,4.17.66,4.09,3.43s-2.06,3.21-4.25,3.22C437.89,492.14,432.66,492.12,427.44,492.12Z"/><path d="M140.76,492.12c-5.24,0-10.47,0-15.7,0-2.36,0-4.55-.51-4.46-3.49.08-2.77,2.29-3.09,4.39-3.1q15.92-.07,31.83,0c2.15,0,4.22.46,4.2,3.27,0,3.08-2.26,3.3-4.57,3.31H140.76Z"/><path d="M218.31,318.17a27.94,27.94,0,1,1,28.58-27.44A28,28,0,0,1,218.31,318.17Zm-11.44-31.83a6.62,6.62,0,0,0,6.46-6.79,6.51,6.51,0,0,0-7-6.64,6.72,6.72,0,0,0,.52,13.43Z"/><path d="M351.87,318.25a27.86,27.86,0,0,1-27.82-27.78,28.25,28.25,0,0,1,28-28.26c15.13-.11,27.86,12.86,27.83,28.36A28,28,0,0,1,351.87,318.25ZM340.18,273a6.57,6.57,0,0,0-6.68,6.63,6.66,6.66,0,0,0,6.64,6.71,6.67,6.67,0,0,0,0-13.34Z"/><path d="M283.66,340.76c-7.55.55-14.88,0-20.89-5.36-.75-.68-1.89-1.27-2.12-2.1a5.49,5.49,0,0,1,.23-3.78c.25-.46,2.67-.51,3.27.09,9.06,9,20.23,6.39,30.93,5.43,2.74-.25,5.21-2.91,7.94-4.17,1.35-.63,3-.6,4.5-.87-.34,1.63-.14,4.18-1.09,4.73a59.61,59.61,0,0,1-12.8,5.86C290.54,341.48,287,340.76,283.66,340.76Z"/><path d="M297.85,316.52c-4.05-2-7.56-3.3-10.66-5.28-2.08-1.33-3.31-1.06-5.42-.05A55.25,55.25,0,0,1,270,315.06c-.86.19-2.24-1.9-3.38-2.93,1.16-.79,2.32-2.26,3.48-2.25a13.4,13.4,0,0,0,11-5.28c2.33-2.85,4.29-2.84,6.65,0,2.57,3.11,5.71,5.44,10.07,5.27,1.95-.07,4.39-.14,4,2.53C301.63,313.79,299.53,314.87,297.85,316.52Z"/></svg>