<svg id="Слой_1" data-name="Слой 1" xmlns="http://www.w3.org/2000/svg" viewBox="0 0 566.93 566.93"><defs><style>.cls-1{fill:#61b66c;}</style></defs><path class="cls-1" d="M533.63,471.55q-13.25-29-26.61-57.92c-3.41-7.37-6.55-14.91-10.56-21.95-6-10.52-18.52-10.11-24.2.46-1.27,2.36-2.48,4.76-4,7.66l-17.53-32.25h42.09l-6.54-9.37h45.93c-5.68-11.7-12.84-20.63-25.53-23.24a9,9,0,0,1-6.41-4.34c-11.12-17.31-29.29-24.15-49.09-18.5-2.83.81-4.4-.15-6.1-2.14a70.46,70.46,0,0,0-35.84-22.8,11.22,11.22,0,0,1-7.32-5.81q-22.31-39.53-44.8-78.94-33.57-59-67.2-118c-3.22-5.66-4.45-5.67-7.62-.16q-7.74,13.52-15.45,27Q218,197.21,169.11,283.09a9,9,0,0,1-4.6,3.89,77.1,77.1,0,0,0-35.81,23,5.8,5.8,0,0,1-4.73,1.55c-20-4.64-35.86,1.42-47.93,18.07a13.79,13.79,0,0,1-7.46,5.08c-10.71,2.33-18.13,8.58-23.36,17.85-.94,1.67-1.68,3.44-2.86,5.9H88.78c-2.34,3.26-4.21,5.85-6.63,9.2h38.31l-19.95,35.68c-2.27-4.59-4-8.48-6.06-12.13-5-8.7-15.44-9.57-21.81-1.76a37.11,37.11,0,0,0-4.51,7.75Q50.85,434,33.7,470.92C29,481,30.5,483.66,41.56,483.35c34.06-1,68.11,1.34,102.22-1.39,22.25-1.78,44.76-.37,67.16-.24,2,0,3.94,1.19,5.91,1.83,3.15,1,6.27,2.76,9.47,2.93,8.11.41,16.26.36,24.38,0,3-.14,5.86-1.74,8.78-2.68,2.07-.66,4.13-1.86,6.21-1.9,10.88-.18,21.77,0,32.66-.1a14.69,14.69,0,0,1,9.1,2.51,15.19,15.19,0,0,0,7.74,2.21c8,.27,16,.39,24-.05,3.32-.18,6.56-1.92,9.84-2.95,2-.63,3.9-1.63,5.92-1.82a81.33,81.33,0,0,1,10.12-.11c23.05.67,46.08.12,69.17,1.42,30.56,1.71,61.29.42,91.94.42C536,483.41,537.81,480.67,533.63,471.55ZM269.85,408.21c-.3-.12-.6-.25-.88-.39h0C269.25,408,269.55,408.09,269.85,408.21Zm139.68-93.28c-.27.11-.53.24-.8.37l-.79.4.79-.4c.27-.13.53-.26.8-.37ZM287.94,434c-.1-.76-.19-1.47-.29-2.19l-5,2.54,5-2.54C287.75,432.48,287.84,433.19,287.94,434Z"/><path d="M100.51,403.35l19.95-35.68H82.15c2.42-3.35,4.29-5.94,6.63-9.2H42.36c1.18-2.46,1.92-4.23,2.86-5.9,5.23-9.27,12.65-15.52,23.36-17.85A13.79,13.79,0,0,0,76,329.64C88.11,313,103.92,306.93,124,311.57A5.8,5.8,0,0,0,128.7,310a77.1,77.1,0,0,1,35.81-23,9,9,0,0,0,4.6-3.89q49-85.84,97.75-171.79,7.69-13.53,15.45-27c3.17-5.51,4.4-5.5,7.62.16q33.61,59,67.2,118,22.46,39.45,44.8,78.94a11.22,11.22,0,0,0,7.32,5.81A70.46,70.46,0,0,1,445.09,310c1.7,2,3.27,3,6.1,2.14,19.8-5.65,38,1.19,49.09,18.5a9,9,0,0,0,6.41,4.34c12.69,2.61,19.85,11.54,25.53,23.24H486.29l6.54,9.37H450.74l17.53,32.25c1.51-2.9,2.72-5.3,4-7.66,5.68-10.57,18.2-11,24.2-.46,4,7,7.15,14.58,10.56,21.95q13.37,28.94,26.61,57.92c4.18,9.12,2.41,11.86-7.44,11.86-30.65,0-61.38,1.29-91.94-.42-23.09-1.3-46.12-.75-69.17-1.42a81.33,81.33,0,0,0-10.12.11c-2,.19-3.95,1.19-5.92,1.82-3.28,1-6.52,2.77-9.84,2.95-8,.44-16,.32-24,.05a15.19,15.19,0,0,1-7.74-2.21,14.69,14.69,0,0,0-9.1-2.51c-10.89.11-21.78-.08-32.66.1-2.08,0-4.14,1.24-6.21,1.9-2.92.94-5.82,2.54-8.78,2.68-8.12.38-16.27.43-24.38,0-3.2-.17-6.32-1.91-9.47-2.93-2-.64-3.94-1.82-5.91-1.83-22.4-.13-44.91-1.54-67.16.24-34.11,2.73-68.16.44-102.22,1.39C30.5,483.66,29,481,33.7,470.92q17.17-36.87,34.43-73.71a37.11,37.11,0,0,1,4.51-7.75c6.37-7.81,16.79-6.94,21.81,1.76C96.55,394.87,98.24,398.76,100.51,403.35ZM289.22,402c5.39-.31,12.9-.56,20.37-1.2,14.85-1.26,29.55-3.54,43.56-8.89,25.76-9.84,38.44-35.4,30.75-61.66-7.91-27-35.09-42.1-60.75-33.57-11.47,3.82-20.89,11.08-30.13,18.61-2.61,2.12-4,3.95-1.39,7.05a6.37,6.37,0,0,1,1,3.9c-.07,3.74-1.9,6.53-5.49,7.69a8,8,0,0,1-9.15-2.57c-2.52-3.07-2.45-6.47-.56-9.8.92-1.64,2.41-3,0-4.65-8.1-5.6-15.81-11.83-24.28-16.8a42.68,42.68,0,0,0-29-5.42c-28.64,4.72-47.55,34.19-40.21,62.72,5.07,19.75,18.8,30.89,37.54,36.74C242.86,400.84,264.94,401.88,289.22,402Zm78.15-134.14,1.6.73a26.5,26.5,0,0,1-1.25,3.54c-3,5.78-6,11.55-9.09,17.24-1.1,2-.84,3.11,1.24,4.1,8.67,4.11,15.54,10.33,21.27,18a6.84,6.84,0,0,0,4.64,2.33c6.87.23,13.76,0,20.64.08a10.85,10.85,0,0,1,3.11,1c-1.06.43-2.12,1.21-3.18,1.23-7.07.11-14.15.06-21.22.06l-.68,1.32c1.27.91,2.52,2.61,3.8,2.62,9.37.12,18.74-.1,28.11-.24.14,0,.28-.35.51-.66-9.84-17.49-19.63-35.07-29.71-52.48-.87-1.51-3.61-2.67-5.53-2.73-8-.27-16,0-24,0q-82.75,0-165.51-.17c-4.17,0-6.59,1.44-8.6,5.08C174.82,284.7,165.86,300.32,157,316c-.65,1.14-1.2,2.33-2.11,4.14,9,0,17.33.11,25.65-.13,1.15,0,2.24-1.84,3.35-2.83l-.63-1.33h-19l-.08-1.25a17,17,0,0,1,3.17-.66c4.51-.08,9-.24,13.51,0a7.92,7.92,0,0,0,7.57-3.66C195.2,301.06,203.9,294.38,215,291a20.23,20.23,0,0,0,2.49-1.15c-3.1-7.56-8-14.1-10.6-21.66l1.52-.81c3.87,7,7.74,14.08,11.89,21.65,3.41-6.19,6.37-11.68,9.48-17.07.56-1,1.78-1.53,2.7-2.28a12.28,12.28,0,0,1-.7,3.26c-2.68,5.15-5.49,10.24-8.46,15.73a23.2,23.2,0,0,0,2.78.14c9.19-.89,17.89,1,26.33,4.51,10.75,4.54,20,11.43,28.41,19.27,2.8,2.59,4.4,2.36,7.05-.09a134.15,134.15,0,0,1,13.43-10.8c12.93-9.1,26.95-14.77,43.2-12.6,2.91.38,5.8.95,9.29,1.53-3.11-5.82-6-11.07-8.7-16.4-.39-.78-.1-1.9-.13-2.87.76.59,1.8,1,2.24,1.8,2.91,5.15,5.68,10.38,8.76,16.07C360,281.75,363.67,274.82,367.37,267.89ZM223.76,215.17l-.06-1.52a42.51,42.51,0,0,1,4.48-.46q48.78,0,97.55,0c4.61,0,10.19,1.4,13.56-.69s4.79-7.85,7.26-11.86c1.33-2.14,1.05-3.84-.16-5.86-2.82-4.72-5.56-9.49-8.14-14.34a5.7,5.7,0,0,0-5.71-3.3q-46.71.09-93.42,0c-2.68,0-4,1.12-5.25,3.29-7,12.42-14.06,24.78-21.09,37.17-.53.94-.95,1.93-1.62,3.32H361.23c-4-7.11-7.73-13.64-11.77-20.75-2.27,4.38-4.32,8.07-6.11,11.88-1.22,2.61-3,3.64-5.87,3.63q-55.16-.1-110.31-.1A30.4,30.4,0,0,1,223.76,215.17Zm131.66,260.6a14.39,14.39,0,0,0,2.58.56c20.64.08,41.28.21,61.91.06,1.5,0,3.56-1.68,4.36-3.13,1.74-3.15,2.81-6.66,4.17-10,1.86-4.58,4.23-6.34,9.17-6.05,2.68.16,3.78-1.05,4.79-3.17,5.13-10.84,10.36-21.64,15.55-32.46.89-1.86,1.76-3.73,2.74-5.8H422.63l3.42,8.69-1.35.56a29.2,29.2,0,0,1-2.69-4.67c-1.4-3.93-4-5-8.07-5-19.76.16-39.53.05-59.29.06a46.39,46.39,0,0,0-4.63.53C358.44,435.53,358.93,455.3,355.42,475.77Zm-100.22-247c1.14,1.73,1.73,2.49,2.18,3.33,4.18,7.83,8.49,15.59,12.45,23.53,1.73,3.47,3.92,4.87,7.88,4.85,31.65-.16,63.3-.11,95-.12H383c-.81-4.23-3-5.3-6.29-5.28-13.14.1-26.28,0-39.41.17-3.56,0-5.84-1.13-7.42-4.42-2.36-4.9-5.1-9.6-7.93-14.86-3.33,5.92-6.35,11.28-9.38,16.64l-1.44-.72a20.27,20.27,0,0,1,1-3.11c2.43-4.66,4.9-9.29,7.46-13.87a11.64,11.64,0,0,1,2.2-2.24A14.49,14.49,0,0,1,324,235c2.66,4.66,5.35,9.33,7.79,14.11a6.08,6.08,0,0,0,6.18,3.8c12.63-.13,25.27-.07,37.91-.1.92,0,1.84-.23,3.2-.4-4-7.07-8.16-13.5-11.4-20.36-2.65-5.59-6.06-7.36-12.37-7.32-47,.31-94.09.15-141.13,0-4,0-6.44,1.08-8.31,4.8-3.3,6.58-7.17,12.88-10.78,19.31-.57,1-1,2.12-1.8,3.71,1.94.1,3.27.21,4.6.22,13,0,26-.14,39,.13,4.09.08,6.39-1.15,8.14-4.89C248,241.76,251.48,235.73,255.2,228.76ZM209.74,476.51c-.21-11.06-1.24-21.23-.37-31.23S213,425.6,215,415.65c.27.05-.2-.12-.68-.12-16.26,0-32.52-.11-48.79-.06a4.56,4.56,0,0,0-3.22,1.36c-2.44,3.13-4.33,6.6-2.44,10.7s3.93,7.56,9.43,6.18c1.65-.41,3.5.05,5.24-.14,2.5-.27,4,.8,5,3,5.58,11.46,11.24,22.88,16.82,34.34a15.35,15.35,0,0,1,.77,3.21l-1.06.45a33.33,33.33,0,0,1-2.24-3.45q-7.72-15.63-15.33-31.32c-1.14-2.37-2.53-3.72-5.39-3.69-12.51.13-25,0-37.53.2a6.11,6.11,0,0,0-4.35,2.55c-2.32,3.84-4.19,8-6.12,12-2.2,4.63-1.24,6.3,3.81,6.25,4,0,6.33,1.69,7.7,5.27,1.3,3.38,2.92,6.65,4.08,10.07,1,3.07,2.78,4.23,6.09,4.19,14.26-.18,28.52-.11,42.78-.13ZM464.6,405.56a5.93,5.93,0,0,0-.08-1.38c-7.14-12.9-14.23-25.83-21.53-38.63-.63-1.09-2.66-1.94-4-1.95-15.63-.09-31.27-.08-46.89.18a6,6,0,0,0-4.44,3c-6.83,16.25-19.34,26-35.51,31.69-3.35,1.19-6.79,2.14-10.19,3.21,1.06,3.29,3.18,4.06,6.17,4,13.76-.14,27.51-.12,41.27-.1a27.86,27.86,0,0,1,3.91.55l-.08,1.51H346.54c.32,3.67,2.17,4.06,4.53,4.05,15.38,0,30.77-.05,46.14.07,2.69,0,4-1.07,5.15-3.36,5.59-11.44,11.31-22.83,17.06-34.2.36-.72,1.32-1.13,2-1.69.05.94.44,2.06.08,2.8-5.29,10.77-10.69,21.48-16,32.21-.58,1.17-1,2.39-1.78,4.16,4.81,0,8.93.22,13-.13a5.33,5.33,0,0,0,3.45-2.77,5.19,5.19,0,0,1,5.31-3.29c2.13.06,4.26.06,6.38.06Zm-300.5,5.78-21.54-43.87,1.5-.86a32.28,32.28,0,0,1,2.46,3.64q7.86,15.76,15.59,31.59c1,2.13,2.15,3.8,4.93,3.79,17.26-.07,34.52,0,51.77-.06a5.89,5.89,0,0,0,6.09-4.25c-1.21-.42-2.24-.82-3.29-1.12-18.59-5.35-33.16-15.54-40.78-34-1-2.33-2.65-2.61-4.8-2.6-14.13,0-28.26.06-42.39-.07a6.38,6.38,0,0,0-6.3,3.66c-7.3,13.1-14.75,26.11-22.12,39.17-2.63,4.66-2.29,5.27,3,5.27q26.07,0,52.15,0C161.29,411.64,162.26,411.49,164.1,411.34Zm122-322.46c-13.52,23.7-26.72,46.81-39.84,70a3.64,3.64,0,0,0-.24,3.07c1.5,2.54,3.34,4.88,5.25,7.59,2.94-3.52,5.59-6.69,8.57-10.28l10.08,12.6c1.93-2.54,3.56-4.7,5.22-6.83,2.74-3.53,3.36-3.56,6.16-.21,1.65,2,3.21,4,5.06,6.32l8.69-11c1.7,2,2.86,3.26,4,4.59s2.26,2.9,3.69,4.74l3.4-4.46c1.14-1.49,2.31-3,3.4-4.48,1.63-2.29,3.23-2.55,4.94-.11a45.89,45.89,0,0,0,3.73,5.14c.61.65,2.4,1.14,2.94.74,3.93-2.87,4.76-7.84,2.31-12.14q-9.48-16.62-19-33.22C298.42,110.44,292.39,99.94,286.06,88.88ZM523.54,353.45c-5.38-7.68-11.39-12.53-19.68-13.57-3.82-.48-5.82-2.19-7.7-5.38-13.6-23.16-45.09-25.55-62.38-4.94-1.94,2.32-2.39,4.18-.75,7,4.38,7.42,8.5,15,12.57,22.6,1.3,2.44,3,3.27,5.72,3.23,9.38-.13,18.76-.07,28.14-.12a28.85,28.85,0,0,0,2.92-.36l-5.89-7.41.75-1ZM93.3,361.66a5,5,0,0,0,1.28.47c9.12.07,18.24.21,27.36.07a4.9,4.9,0,0,0,3.42-2.24q8.13-13.9,15.86-28a4.51,4.51,0,0,0-.47-4.13c-17-18.23-45.72-16.17-59.61,4.56-3.17,4.72-6.24,7.33-12.08,8-7.58.91-13,5.9-17.55,12.61a16.56,16.56,0,0,0,2.35.4c13.62-.06,27.23-.16,40.85-.18a24.2,24.2,0,0,1,4.41.86Zm423.91,86.93c-1.81,3.17-2.9,6.22-7.13,6.12-10.62-.28-21.26-.1-31.9-.15a23.85,23.85,0,0,1-3.33-.48c0-.4,0-.81,0-1.21a31.31,31.31,0,0,1,4.39-.61c9.88-.06,19.76,0,29.64-.07a6.14,6.14,0,0,0,5.78-8.85,130.84,130.84,0,0,0-5.47-11.91,5.53,5.53,0,0,0-4-2.51c-13.88-.18-27.77-.14-41.66,0-1.19,0-3,.63-3.46,1.51-4.54,9-8.86,18.18-13.22,27.3-.08.17.1.46.23.94H469c-3-7.9-7.9-14.63-9.83-22.63a6.07,6.07,0,0,1,2.77,2.82c2.75,5.33,5.59,10.62,8.07,16.08,1.4,3.07,3.32,4.11,6.67,4.07,13.64-.18,27.27-.08,40.91-.1,1.19,0,2.38-.11,4.2-.2C520.26,455.26,518.93,452.35,517.21,448.59ZM119.58,458.68a14.72,14.72,0,0,0-.49-1.89c-3.94-8.49-7.77-17.05-12-25.41-.67-1.32-3.08-2.46-4.71-2.48-11.5-.21-23,.3-34.5-.24-6.36-.31-10.56,1-12.22,7.63-.48,1.89-2,3.53-2.51,5.42-.39,1.32-.45,3.84.15,4.13,1.44.68,3.37.5,5.08.39.69-.05,1.32-.85,2.06-1.38,2,7.38,2,7.38,10.08,7.38,7.13,0,14.25,0,21.38,0a19.55,19.55,0,0,1,3.73.74c-.59,1.07-1,1.34-1.46,1.34-9.87.09-19.75.29-29.62.08-1.55,0-3.07-1.94-4.6-3a14.86,14.86,0,0,0-2.77-1.85c-2.11-.79-4.31-1.33-6.74-2-1.52,3.27-3.23,7-5,10.71.75.33,1.07.6,1.4.6,15.12,0,30.25.12,45.37,0,1.21,0,2.8-1.45,3.52-2.64,2.14-3.51,3.88-7.27,5.91-10.86.43-.75,1.44-1.19,2.18-1.77l.8.77c-2.38,4.67-4.77,9.33-7.34,14.37Zm397.77,4.57a10.52,10.52,0,0,0-1.88-.57q-39,0-78,0c-1,0-2.51.52-2.87,1.25-2.13,4.32-4,8.76-6.16,13.64a34.75,34.75,0,0,0,3.78.46q36.93,0,73.84,0c1.26,0,3.16-.32,3.68-1.17C512.44,472.54,514.74,468,517.35,463.25ZM438.63,358.71a8.93,8.93,0,0,0-.4-1.6c-5.73-10.25-11.4-20.54-17.34-30.67a6.2,6.2,0,0,0-4.51-2.41c-8.5-.22-17-.09-25.51,0a6,6,0,0,0-1.71.35c.88,7.61,2,14.85,2.41,22.14.18,3.39,1.16,4.28,4.36,4.24,10.88-.14,21.76-.07,32.64,0a15.13,15.13,0,0,1,3.3.76c-.07.43-.13.85-.19,1.28-1.27.1-2.55.28-3.82.29-10.76,0-21.51,0-32.27,0-4.91,0-5.21.36-4.75,5.66ZM300.5,437.89c-5.85,1.39-11.53,3.85-17.18,3.76s-11.45-2.67-17.62-4.28v39h34.8ZM132.9,358.22c.73.41.94.62,1.14.62h42c2.28,0,2.74-1.65,1.78-3a7.47,7.47,0,0,0-4.33-2.77,24.39,24.39,0,0,0-8.22-.05c-9.16,1.63-15-1.66-17.4-10.8a36.11,36.11,0,0,0-2-4.83l1.08-.66a17.32,17.32,0,0,1,2,2.46c1.49,2.74,3,5.51,4.22,8.36a4.59,4.59,0,0,0,4.92,3.1q7.5-.24,15,0c2.66.08,3.55-.67,3.79-3.54.55-6.68,1.72-13.31,2.63-19.95.13-.93.21-1.86.35-3.16h-15c-15.32.05-10.84-2.6-18.77,10.93C141.68,342.59,137.39,350.32,132.9,358.22ZM107.29,477.69c-2.6-4.91-4.81-9.35-7.3-13.62a4.25,4.25,0,0,0-3.17-1.4q-25.32-.12-50.65,0c-1.07,0-2.71.57-3.13,1.37-2.22,4.28-4.13,8.71-6.4,13.65Zm53.12-44.08c-2.86-5.85-5.22-11.09-8-16.06-.66-1.16-2.86-2-4.35-2.06-12.51-.15-25-.07-37.53,0-1.29,0-2.58.22-4.38.39l16.26,35c1.68-3.29,3.09-6,4.51-8.8,4.89-9.48,2.17-8.52,14-8.47C147.12,433.63,153.33,433.61,160.41,433.61Zm70.29-15.74a36.85,36.85,0,0,1,4.58,3.25c.52.5.34,1.71.48,2.6-.78,0-1.72.31-2.32,0a48.46,48.46,0,0,1-7-4.37c-.59-.47-.7-2.54-.18-3.27,1.93-2.72,6.76-3.7,10.28-2.44a10.57,10.57,0,0,1,6.88,9.42c.11,3.85-2.15,8.54-5.41,9-5.37.81-6.29,4.39-7.05,8.64-.37,2.07,0,3.09,2.28,3.07,7.87-.07,15.74,0,23.61-.15a5.25,5.25,0,0,0,3.53-1.61c1.51-1.83.38-8.76-1.49-10.44-7-6.33-11.63-13.92-12.67-23.5-.12-1-1-2.67-1.79-2.86a108.69,108.69,0,0,0-11.79-2,3.26,3.26,0,0,0-2.43,1.38c-3,4.58-5.89,9.24-8.77,13.89-1.06,1.7-.65,3,1.16,4,3.27,1.83,6.36,4,9.72,5.62a6.31,6.31,0,0,0,4.79.06c2.54-1.22,3.15-4.9,1.74-7.59C237.22,417.41,234.43,416.34,230.7,417.87Zm104.32,0-.21-.84a9.94,9.94,0,0,0-2.79-.25c-3,.59-5.13,2.58-5.38,5.49-.17,1.84.66,4.86,1.93,5.46,1.71.8,4.48.25,6.42-.59,2.95-1.27,5.52-3.41,8.37-4.95,2.13-1.15,2.58-2.51,1.38-4.54-1.78-3-3.61-6-5.29-9.07-2.32-4.25-5.42-6.34-10.37-4.37a10.2,10.2,0,0,1-3.7.55c-3.06,0-4.37,1.42-4.75,4.5a31.77,31.77,0,0,1-11.37,21.3,11,11,0,0,0-3.82,10.78,3.55,3.55,0,0,0,2.46,2.35q12.75.3,25.52.06c.8,0,2.37-1.73,2.22-2.29-1-3.8-.52-8.44-6.66-9.12-4.17-.46-6.87-5.58-6.48-9.79a10.56,10.56,0,0,1,8.45-9.35,9,9,0,0,1,10,5.07c-2.65,1.73-5.29,3.57-8.06,5.19-.76.44-1.92.21-2.9.29.25-1,.18-2.32.81-2.94A27.41,27.41,0,0,1,335,417.84Zm-46.75,18.54c13.16-.93,26.72-14,28.35-27.51.23-2-.18-2.9-2.28-2.68a16.73,16.73,0,0,1-3,.25c-5.69-.4-8.55,1.7-10.18,7.74-2.75,10.21-11.5,16-20.31,14.59-8.3-1.33-13.61-7-15.56-14.52-1.65-6.32-4.9-8.15-10.58-7.93a6.37,6.37,0,0,1-.74-.07c-3.75-.33-4.22.2-3.36,3.9,2.58,11.12,9.27,18.89,19.49,23.69,2.41,1.14,5,2,7.17,2.8l1-5.08,4.29,2.74,5-2.54ZM86.43,389.65c-1.38,2.71-2.58,4.7-3.44,6.82-1.3,3.17-3.34,5-6.89,4.39-2.76-.45-4.17.89-5.14,3.25s-2.22,4.76-3.29,7.15c-.94,2.08-1.82,4.19-2.87,6.63a16.65,16.65,0,0,0,3.24.43c3.25-.39,5.28.54,6.54,3.92.54,1.44,3,2.78,4.71,3,10.53,1.57,12.63.54,17.5-9.06a9.61,9.61,0,0,0,.39-7A159,159,0,0,0,89.84,394,34.52,34.52,0,0,0,86.43,389.65Zm400.18,17.57,1.47-.78c1.38,2.56,2.87,5.08,4.12,7.71,2.16,4.54,5.76,5.78,10.35,3.34-1.94-4.42-3.83-8.88-5.83-13.28a5.3,5.3,0,0,0-6.07-3.36c-3.08.55-4.58-.82-5.72-3.44-1.06-2.43-2.49-4.69-4.24-7.91-1.64,2.51-2.82,4.05-3.72,5.75-2,3.74-3.81,7.57-5.79,11.32-3,5.72-.9,14.46,4.53,17.95a6.77,6.77,0,0,0,3.48,1.12,78.35,78.35,0,0,0,9.31-.58,4.34,4.34,0,0,0,3.61-6.34c-1.12-2.63-2.64-5.09-3.91-7.66C487.59,409.83,487.14,408.51,486.61,407.22ZM255.43,233.51c-3.12,5.83-6.08,10.77-8.46,16-1.91,4.17-4.45,6.31-9.23,5.68a62.87,62.87,0,0,0-8.24-.07c-11.39,0-22.77,0-34.16,0-4.15,0-5.51,1.21-5.74,4.82h79.89Zm189.23,80a72.42,72.42,0,0,0-36.9-24l-.72.8,20.86,37Zm-298.8,10.78L165.24,290c-14.85,4.12-25.94,12-35.08,22.95Zm91.94,134.2v0c5.12,0,10.24,0,15.36,0,8,0,7.93.06,7.68-7.92-.07-2.3-1.08-3.09-3.21-3.09q-19.84-.06-39.71-.16c-2.49,0-3.69,1.24-3.58,3.72a22.54,22.54,0,0,1,.18,3.36c-.38,3.25,1.22,4.14,4.16,4.09C225.05,458.4,231.43,458.47,237.8,458.47Zm89.89.09v-.26c6.75,0,13.5.15,20.25-.06,3.74-.11,4.11-1.36,4-7.2-.07-3.22-1.75-3.6-4.35-3.55-6,.1-12,0-18,0-6.75,0-13.51,0-20.26.14-3.69.1-4.24,1.49-4.19,7.14,0,3.06,1.43,3.85,4.18,3.8C315.43,458.48,321.56,458.56,327.69,458.56Zm-225.5,3.91c2.58,4.85,4.76,8.71,6.7,12.69a4.78,4.78,0,0,0,5,3c6.5-.15,13-.06,19.52-.12a33.25,33.25,0,0,0,3.71-.49c-2.07-4.8-3.87-9.15-5.86-13.42a3.14,3.14,0,0,0-2.28-1.57C120.43,462.43,111.85,462.47,102.19,462.47Zm152.71,18c5.42-3.76,5.85-8.43,6-13.46.06-3.51-.91-4.8-4.63-4.72-11.13.24-22.27.09-33.4.08-8.49,0-9.25,1-7.26,9.42a13.39,13.39,0,0,0,.8,2.49c1.52,3.32,3.83,5.65,8,6.32,0-1.74-.32-3.17.07-4.39.87-2.73,1.44-7,3.29-7.7,4.24-1.69,9.18-1.66,13.83-2.3.22,0,.47.2.71.23a14.32,14.32,0,0,0,3.6.32c5.08-.72,8.58,1.86,9,6.95C255,475.64,254.9,477.61,254.9,480.46Zm56.73-.41c-.11-2-.59-3.62-.19-4.94.76-2.52,1.54-6.53,3.16-7,4.74-1.37,9.89-1.33,14.89-1.77.4,0,.83.54,1.3.69a5.89,5.89,0,0,0,2.11.46c6.63-.39,9.55,2.44,9.38,9.15,0,1.24,0,2.49,0,4,6.43-2.53,10.63-10.26,9.05-16.14a3.83,3.83,0,0,0-2.91-2.06c-13.37-.1-26.75,0-40.12.08a3.25,3.25,0,0,0-2.46,1.13C303.36,468,306.34,477.07,311.63,480.05Zm-12.9-71.54c-.35-.42-.71-.83-1.06-1.24-1.21.82-2.67,1.44-3.59,2.52-2.09,2.46-3.64,5.42-5.93,7.66-4.12,4.05-6.1,4-10.06-.15-2.21-2.32-3.75-5.26-5.83-7.71-.75-.89-2.18-1.2-3.29-1.77-.25,1-1,2.25-.67,3.1a29.6,29.6,0,0,0,3.31,7.06c5.39,7.67,12.88,9.06,19.63,3.8C295.59,418.39,297.62,413.68,298.73,408.51ZM166,407.92l-.74,1.32c1.23.78,2.44,2.22,3.67,2.23,15.88.17,31.76.15,47.64.15,2.36,0,3.45-1.11,3-3.7Zm181.88,16.46c-1.55.81-2.11,1.06-2.63,1.37-8.13,4.94-8.13,4.94-5.7,14.1.85,3.19,8.5,5.68,11.07,3.54a2.08,2.08,0,0,0,.63-1.65C350.18,436.15,349.06,430.58,347.84,424.38Zm-129.46.24c-1.1,6.21-2.11,11.63-2.94,17.07a2.38,2.38,0,0,0,1.51,1.79,38.8,38.8,0,0,0,8.2.13c2.27-.3,4.48-12.06,2.57-13.37C225.08,428.43,222.24,426.92,218.38,424.62Zm312.08,53.05c-2.26-4.9-4.12-9.22-6.23-13.42-1.15-2.29-3-2.32-4.28-.15-2.48,4.26-4.7,8.69-7.31,13.57ZM463.54,407.8c-12.86,0-25.58,0-38.29,0-2.24,0-3.29,1.23-2.87,3.79h38.38C463.23,411.61,464,410.35,463.54,407.8Zm-186.68.47-.52,1.06a63.58,63.58,0,0,0,5.12,5.73c.65.59,2.61.77,3.15.26a93,93,0,0,0,6.21-7.05Zm7.91-77.65c2.66-.31,4.16-1.86,4-4.71a4.24,4.24,0,0,0-4.54-4.43,4.62,4.62,0,0,0-4.5,4.95C280.12,329.17,281.84,330.56,284.77,330.62Zm36.91,144.53c-1.16-1.49-2.41-4.31-3.45-4.23-4,.28-2.72,3.9-3.08,6.41-.29,2.11.52,3.3,2.84,3.31C321.78,480.65,320.53,477.82,321.68,475.15Zm1.79.48c1,2,1.42,4.19,2.61,4.81,2.38,1.24,3.7-.33,3.57-4.09-.09-2.45.77-5.86-2.91-6.05C325.78,470.25,324.65,473.62,323.47,475.63Zm160.66-85.71c3.1,8.39,4.9,10.39,9.32,7.76C492.12,392.91,488.75,390,484.13,389.92ZM242,475.41l.9-.63c-1.14-1.58-2.57-4.64-3.39-4.48-3.75.72-2.31,4.23-2.62,6.74-.21,1.75-.25,3.79,2.42,3.53a3.51,3.51,0,0,0,2.58-1.49C242.31,478,242,476.65,242,475.41Zm3.74,5.72c2.21-.66,4.95-1,5-1.58a26.89,26.89,0,0,0-.72-7.82c-.12-.54-1.9-1.09-2.82-1-.58.09-1.33,1.39-1.39,2.2C245.6,475.3,245.72,477.65,245.72,481.13Zm87.38.43c2.28-1.14,4.84-1.77,4.9-2.58.17-2.41,0-5.32-1.25-7.23s-3.31-.73-3.59,1.56A78.83,78.83,0,0,0,333.1,481.56Zm-99.62-5,.91-.58c-1.1-1.6-2.2-4.56-3.31-4.57-3.55,0-2.75,3.37-3.07,5.68-.28,2,.3,3.43,2.68,3.52C233.8,480.73,233.61,478.64,233.48,476.56Zm238.61-51.63-5-9.58-4.57,9.58Zm-377.3,0h9.48L100,415.05C98.09,418.67,96.59,421.49,94.79,424.9Zm399,0h11.81c-.31-3-1.89-4.15-4.46-4.19C498.07,420.61,494.72,420.11,493.81,424.85Zm-421,.21c-.15-4.7-3.2-4.47-6.12-4.52s-4.91,1.09-5,4.52ZM317.77,173.92l1.25-1.06c-2.26-3.09-4.52-6.17-7.09-9.7L304.52,173l1.31,1.09,6.27-6.95ZM290,173.2h10.67l-5.48-7.46c-1.7,2.3-3,4-4.18,5.67C290.65,171.87,290.42,172.4,290,173.2ZM74,398.07c5.15.95,7.5-1.31,9-8.41C78.2,390.5,75.53,393.37,74,398.07Zm179.3-225,1.28,1.28,4.29-6.6,6.36,6.17.73-.81-6.15-8.44C257.49,167.71,255.41,170.38,253.34,173.05Zm70.55.39c5.06-6.06,5.72-7.88,3.85-10.31C322.66,168.26,321.7,170.69,323.89,173.44ZM249.27,173l-5.87-8.82C241.45,168.09,244.89,173.21,249.27,173Zm24.12-.14.58,1.53c2.8-4.42,5.76-3.55,8.78-.34l.24-1.19-4.78-6.09ZM160.57,415.16l-5.4.61,1.29,4.9h1ZM332.09,168.87l-1-.06-2.8,5.24,4.83-1Z"/><path d="M230.31,366.56a28.72,28.72,0,0,1-29-28.3c-.1-16.52,12.61-29.65,28.81-29.76a29,29,0,1,1,.17,58.06Zm-7.5-43.27c-4.25.1-8.87,4.95-8.76,9.17a6.43,6.43,0,0,0,6.46,6.36c4.31-.1,9.22-5.21,9.05-9.4A6.62,6.62,0,0,0,222.81,323.29Zm21.61,7.36c-.24,4.19.67,9.07-1.06,12.7s-6.11,6.06-9.31,9c5.1.58,10.58-4,12.6-10.46C248.21,336.85,247.11,332,244.42,330.65Z"/><path d="M337.42,308.5a29,29,0,1,1-28.62,29.4C308.71,321.46,321.3,308.53,337.42,308.5Zm-7.64,14.91c-4.19.09-9,5-8.9,9.12a6.72,6.72,0,0,0,6.65,6.29c4.16-.1,9.05-5.13,8.91-9.16A6.59,6.59,0,0,0,329.78,323.41Zm21.67,7.06c-.33,4.47.45,9.3-1.29,12.89s-6.05,6.05-9.05,8.84c2.47,1,6.77-1.05,9.76-5.18C354.81,341.58,355.08,334.66,351.45,330.47Z"/><path d="M283.72,374c9.37,0,18.75,0,28.12.05,1.64,0,4.23-1,4.3,1.88,0,.55-2.89,1.56-4.5,1.67-3.61.26-7.27-.17-10.86.2-1.53.16-3.64,1.28-4.27,2.56-2.72,5.55-7,8.42-13,8.47-5.87,0-9.9-3-12.37-8.18a4.8,4.8,0,0,0-5.05-3c-4.12.13-8.25.15-12.36-.06-1.09-.06-2.12-1.15-3.18-1.76,1.07-.61,2.14-1.74,3.22-1.76C263.73,373.91,273.72,374,283.72,374Zm-8.47,3.84c2,4.73,5.27,6.78,9.51,6.15,3.52-.52,6.12-2.21,7.38-6.15Z"/><path d="M283.74,297.63c-4.23-5-13.73-23.87-12.4-26.68,2,3.68,4.06,7.35,6.08,11l6.3,11.57,12-21.08C297,275.25,287.46,293.75,283.74,297.63Z"/><path d="M259.2,183.33c1.88,1.13,3.8,2.2,5.65,3.38,4.84,3.1,9.77,6.07,14.42,9.43,3.05,2.21,5.56,2.45,8.81.34,4.81-3.12,9.92-5.78,14.94-8.56a13.78,13.78,0,0,1,3-.87l.42.89a7.45,7.45,0,0,1-1.38,1.42c-6.37,3.71-12.71,7.46-19.19,10.95a5.17,5.17,0,0,1-4.37,0c-7.24-4.43-14.33-9.11-21.43-13.77a10.62,10.62,0,0,1-1.84-2.13Z"/><path d="M397.87,454.27c5.6-11.13,10.87-21.58,16.13-32l1.91,1-18,36.6-9-17.62-16.83,33.21c-.92-3.76,13.73-34,17.28-37.16Z"/><path d="M282.68,445.22c1.67,1.5,2.35,2,2.95,2.67,7.26,7.56,5.79,4.41-.33,11.8-.3.37-1,.93-1.15.84a46.77,46.77,0,0,1-6.82-5.13c-.63-.62-.37-2.86.26-3.87A61.5,61.5,0,0,1,282.68,445.22Zm3.53,8.29c-1.2-1.7-2.26-3.69-4.34-1.69a3.45,3.45,0,0,0-.1,3.39C283.82,457.28,284.93,455.31,286.21,453.51Z"/><path d="M260,411.79c-1.6,1.12-2.57,2.27-3.61,2.34-.65.05-2.12-1.74-2-2.38a4,4,0,0,1,2.51-2.43C257.5,409.15,258.52,410.57,260,411.79Z"/><path d="M313.26,412.11c-1.67,1-2.7,2.15-3.71,2.13-.73,0-2.15-1.76-2-2.35a4.06,4.06,0,0,1,2.52-2.44C310.73,409.31,311.74,410.77,313.26,412.11Z"/><path d="M254.34,456.77c-1.11-1.35-2.36-2.2-2.32-3s1.25-1.7,1.95-2.54c.92.77,2.23,1.4,2.6,2.38C256.78,454.18,255.42,455.32,254.34,456.77Z"/><path d="M236.31,456.78c-1.21-1.45-2.45-2.29-2.43-3.1a3.05,3.05,0,0,1,2-2.3,3.12,3.12,0,0,1,2.35,2C238.37,454.13,237.27,455.17,236.31,456.78Z"/><path d="M248.29,453.2c-1.4,1.23-2.32,2.61-3,2.51-1-.15-1.78-1.4-2.65-2.18.74-.78,1.41-2.08,2.25-2.21S246.71,452.26,248.29,453.2Z"/><path d="M320.63,450.32c1.08,1.43,2.45,2.54,2.25,3.15a4.07,4.07,0,0,1-2.59,2.28c-.52.12-2-1.48-2-2.32S319.5,451.71,320.63,450.32Z"/><path d="M333.16,453.6c-1.55,1-2.49,2.17-3.33,2.09s-1.66-1.3-2.49-2c.87-.83,1.63-2.09,2.63-2.32C330.65,451.19,331.66,452.48,333.16,453.6Z"/><path d="M338.62,450.55c1.06,1.25,2.37,2.21,2.21,2.73a3.68,3.68,0,0,1-2.3,2.11c-.46.12-1.82-1.24-1.87-2S337.69,451.82,338.62,450.55Z"/></svg>