<svg id="Слой_1" data-name="Слой 1" xmlns="http://www.w3.org/2000/svg" viewBox="0 0 566.93 566.93"><path d="M103.86,365.47l3.79-6.33L277.37,74.49l.86-1.42c3.7-6,6.87-6,10.56.09q48,79.77,96,159.6c25.76,43.07,51.25,86.31,76.86,129.47.42.71.89,1.38,1.65,2.54,1.81-3.46,3.44-6.57,5.06-9.69,4.48-8.58,8.8-17.24,13.5-25.68a33.31,33.31,0,0,1,6.45-8c5.49-5.1,12.32-6.17,18-3.31a16.11,16.11,0,0,1,8.36,17.13c-1.34,7.31-3.62,14.44-5.63,21.62-.75,2.64-1.9,5.16-3,8.12a65,65,0,0,1,7.09-1.34c7.94-.57,12.74,4.87,10.83,12.59-1,4.24-2.94,8.28-4.59,12.83,1.7-.41,3.32-.92,5-1.16,2.16-.32,4.42-.85,6.53-.55,8.41,1.21,11.06,7.55,6,14.35-8.9,12-17.92,23.9-26.87,35.85-1.12,1.5-2.66,2.79-1.24,5.1,1.31,2.15,2.62,3.58,5.46,3.53C525.14,446,536.07,446,547,446c1.1,0,2.54-.3,3.23.27,1.16.93,2.45,2.41,2.52,3.73.06,1-1.45,2.62-2.61,3.1-1.45.59-3.26.35-4.91.35q-101.28,0-202.55,0c-3.43,0-5.37.87-7.14,4.05-7.59,13.68-27.26,13.85-35.2.26-2-3.42-4.12-4.5-7.86-4.34-6.63.27-13.28.16-19.92,0a5.56,5.56,0,0,0-5.62,3.18c-8.48,14.87-27.85,15-36.25.17-1.71-3-3.85-3.38-6.78-3.38q-96.7.1-193.42.1c-3.87,0-7.74,0-11.62,0-2.63,0-4.77-.78-4.69-3.92.07-3,2.25-3.53,4.63-3.54,10.93,0,21.86,0,32.79,0a8.19,8.19,0,0,0,4.29-.93c2.9-2,3.09-4.47.94-7.32q-13.09-17.41-26.18-34.83a29.24,29.24,0,0,1-2.12-3.06c-3-5.26-1.26-9.7,4.44-11.85,4.92-1.86,9.51-.46,14.76,1.56-.59-1.56-1-2.6-1.38-3.66-1.2-3.37-2.87-6.67-3.47-10.15-1.42-8.24,4.48-13.69,12.68-12.1,1.47.28,2.92.71,4.91,1.2-.37-1.31-.64-2.27-.92-3.22-2.44-8.33-5.29-16.59-7.14-25.05a20,20,0,0,1,1.29-10.87c3.43-8.76,12.78-11.63,21-7,5.11,2.92,8.57,7.37,11.24,12.46C91,340.91,96,350.62,101,360.31,101.76,361.77,102.59,363.18,103.86,365.47Zm131.4-23.22a19.84,19.84,0,0,0,2.64-1,15.35,15.35,0,0,1,16,.47c.75.45,1.54.8,2.44,1.27.15-6.13-5.86-10.08-10.77-9.82-5.69.31-9.54,3.59-10.28,9.14l-.15.09ZM152,299.61h5.13l46.88,0c5.44,0,5.41,0,6.28-5.26C213,278.29,217.85,263,226,248.74a43.4,43.4,0,0,1,5.2-7.45c3.34-3.77,6.85-3.9,10.38-.34A34.93,34.93,0,0,1,248,249c5.35,10.27,10.43,20.69,15.37,31.16,1.22,2.6,2.21,3.67,5.23,2.52a43,43,0,0,1,30-.39c2.67.92,3.76.23,4.92-2.4,3.72-8.46,7.51-16.93,11.93-25a76.86,76.86,0,0,1,10-13.66c3.49-4,7.54-3.61,11,.44a42,42,0,0,1,4.21,6.15c8.52,14.66,13.37,30.58,15.71,47.29.49,3.48,1.86,4.7,5.31,4.67,16.59-.14,33.19-.09,49.78-.14a36.25,36.25,0,0,0,3.65-.39,21.37,21.37,0,0,0-.9-2Q397,267.86,379.85,238.53c-2-3.35-4.81-4.1-8.38-4.1q-88,.09-175.91,0c-4.15,0-6.58,1.51-8.6,5-9.13,15.95-18.47,31.79-27.72,47.67C157,291,154.72,295,152,299.61ZM490.86,427.26c-1.07-2-1.72-3.32-2.46-4.6-8-13.72-16.44-27.21-23.91-41.22-4.17-7.84-8.95-11.28-18.41-11.05-30.25.73-60.54.29-90.81.23-2.53,0-4.41.36-5.78,2.91A42.62,42.62,0,0,1,330.9,391.3a30.83,30.83,0,0,0-2.64,1.74c2,4,3.93,7.6,5.61,11.36,1.88,4.21,1.81,4.27,5.93,2.06,15.45-8.28,33.77-.67,38.34,16.16,1,3.52,2.55,4.5,6,4.5,31.1,0,62.21.07,93.31.14Zm-414.54-.41a20.34,20.34,0,0,0,2.29.29q52.31,0,104.59-.08c2.92,0,4.17-1.22,4.78-4a24.74,24.74,0,0,1,7.71-13c8.57-7.9,20.31-9.29,31.22-3.7,4.4,2.25,4.38,2.24,6.58-2.31a64.72,64.72,0,0,1,3.8-7.36c1.87-2.83,1.12-4.29-1.72-5.77-7.25-3.77-13.35-9-17.4-16.15-1.84-3.25-4.07-4.29-7.65-4.27-19.78.15-39.57.11-59.35.1-11.9,0-23.79-.08-35.69-.11-3.62,0-6.87.74-8.89,4.18q-14.46,24.69-28.93,49.36C77.19,424.88,76.85,425.75,76.32,426.85ZM283.54,78.28l-51.37,86.15c6.8,0,12.47.22,18.11-.07,4.69-.25,8.48,1.09,11.19,4.89,5.44,7.6,12.53,9.76,21.95,9.83,10,.07,17.67-2.08,23.52-10.22,2.54-3.55,6.17-4.7,10.54-4.49,5.55.26,11.12.06,17.46.06Zm51,253.34c5.83,14.64,5.17,20.74-2.68,26.78-6.33,4.87-15,5.2-21.08,0a25.41,25.41,0,0,1-6.5-9.31c-2.53-6.11-.22-11.8,3.7-17H259.44c6.13,11.12,5.54,18.91-1.69,25.46C251.59,363.13,242.63,364,236,359a24.63,24.63,0,0,1-6.94-9c-3-6.51-.44-12.55,3.84-18.34-5.2,0-9.61,0-14,0-2.56,0-3.39,1.1-3.08,3.61.6,4.8.89,9.64,1.48,14.45,2.86,22.87,14.22,35.64,36.75,40a158.81,158.81,0,0,0,60.64-.41c13.18-2.55,23.93-9.13,30-21.89,5-10.51,5.85-21.8,6.66-33.13.15-2-.78-2.69-2.68-2.67C344.08,331.66,339.52,331.62,334.57,331.62Zm62.57,31.53c-.93-3.08-1.7-5.43-2.35-7.81-1.69-6.15-.75-7.41,5.71-7.43,13,0,26,0,39,0,1.31,0,2.61-.14,4.07-.22a8.29,8.29,0,0,0-.45-1.5c-7.18-12.3-14.31-24.63-21.68-36.81a6.41,6.41,0,0,0-4.63-2.42c-8.15-.24-16.32-.12-24.48-.08a21.91,21.91,0,0,0-3.25.5c2.39,7.72,4.58,15,7,22.2.33,1,1.5,2.44,2.32,2.46,6.5.17,13,.29,19.49-.09,3.74-.22,2.48-3.6,2.67-5.9.21-2.48-1.21-3-3.36-2.92a41.37,41.37,0,0,1-7.87-.05c-1.33-.2-2.5-1.57-3.74-2.42,1.22-1,2.36-2.88,3.66-3a114.74,114.74,0,0,1,12.85-.08c3,.07,4.45,1.79,4.4,4.83-.06,3.32.05,6.64,0,10-.08,4.56-.77,5.28-5.38,5.34-7.75.1-15.5-.05-23.24.19-4,.13-6.08-1.58-7.11-5.35-1.78-6.53-3.83-13-5.74-19.48-2.13-7.3-1.5-6.19-8.37-6.22-6,0-12.08,0-18.7,0,2,19.29,1.19,37.81-3.31,56.32Zm-185.45-.1a3.13,3.13,0,0,0,.19-.75c-3.28-17.32-5.09-34.72-3.17-52.35.3-2.78-1.24-3.22-3.51-3.19-5.81.08-11.63.22-17.43,0-3.27-.13-4.69,1.24-5.58,4.19-2.3,7.67-4.88,15.27-7.24,22.92-.74,2.37-1.88,3.9-4.6,3.87-8.58-.07-17.15-.08-25.72-.09-2.73,0-4.08-1.3-4.06-4.06,0-3.74.06-7.47,0-11.2-.06-3.34,1.65-4.81,4.82-4.84,3.87,0,7.74-.07,11.61-.06,2,0,4.27.13,4.33,2.72.05,2.9-2.38,2.93-4.51,3-2.35.05-4.7.06-7.05.06-3.51,0-3.39,2.41-3.38,4.88s.25,4.38,3.55,4.11c2.89-.23,5.81-.05,8.71-.05,10.67,0,10.68,0,14-9.95,1.64-4.92,3.22-9.86,5-15.39-9.3,0-17.84.12-26.38-.07-2.92-.07-4.49,1-5.9,3.45-6.67,11.47-13.51,22.84-20.26,34.26a35.66,35.66,0,0,0-1.5,3.41h5c12.72,0,25.44-.06,38.17,0,5.17,0,6.42,1.77,5.09,6.74-.73,2.72-1.59,5.4-2.48,8.42Zm101.86-189-1.53-1q-4.22,4.84-8.43,9.69a9.74,9.74,0,0,1-8.12,3.31c-7.32-.13-14.66-.28-22,0a11.66,11.66,0,0,1-10.17-4.32c-2.63-3.07-5.66-5.78-9-9.17-3,7.07-5.72,13.23-8.2,19.49-1.24,3.15-3.19,4.44-6.61,4.36-7.87-.19-15.76-.12-23.64-.06-1.14,0-2.84.19-3.34.93-2.19,3.23-4,6.69-6.16,10.31H361.14c-1.69-2.81-3.29-5.06-4.47-7.51-1.38-2.86-3.33-4-6.54-3.86-7.32.23-14.66,0-22,.19-3.57.11-5.64-1.21-7-4.51C318.79,185.9,316.11,180,313.55,174.06ZM373,227.46c-1.82-3.17-3.46-5.57-4.65-8.18-1.41-3.09-3.55-4.12-6.88-4.06-10.08.17-20.18.07-30.27.07q-62.82,0-125.64.09c-1.52,0-3.74.2-4.44,1.17-2.38,3.29-4.22,7-6.52,10.91ZM479.54,392.4c5.47-7.26,10.69-14.18,15.88-21.11a7.81,7.81,0,0,0,1.24-2.14c3.55-10.14,7.26-20.24,10.46-30.5a19,19,0,0,0,.25-9.34,7.48,7.48,0,0,0-12-4.6,28.65,28.65,0,0,0-7.94,8.77c-6.48,11.86-12.5,24-18.55,36.07a5.27,5.27,0,0,0-.14,4.17C472.26,380.12,476,386.37,479.54,392.4Zm-163.87,4.36c1,3.16,2.13,6,2.8,8.93,2.68,11.67-4.91,20.55-16.78,19.41-2.93-.28-4.09.74-5.44,3-6,10.21-20.07,10-25.65-.34-1.26-2.33-2.61-3-5.25-2.72-10.75,1.19-18.27-6.38-17-17,.33-2.7,1.4-5.32,2.17-8,.33-1.11.77-2.19,1.16-3.28-5.5-1.94-6.28-2-8.42,2.92a237.34,237.34,0,0,0-8.39,22.4c-1,3.21-.82,6.83-1.23,10.82a18.52,18.52,0,0,0,1.87-1.05c13.47-11.62,31.79-1.94,33.82,11.35.37,2.42,1.93,2.66,3.9,2.65,6.08,0,12.17-.16,18.24.07,3.65.13,5.45-1.28,6.61-4.75,4.57-13.62,19.65-18.63,31.65-10.7,1,.64,2,1.22,3.31,2.05.08-12.56-3.58-23.42-9.46-33.66C321,394.42,320.94,394.36,315.67,396.76ZM87.3,392.19c3.15-5.07,6.65-10.32,9.73-15.8,1.89-3.37,1.16-7-.58-10.36-5.88-11.26-11.67-22.57-17.9-33.64a24.18,24.18,0,0,0-7.32-7.65c-4.63-3.19-9.65-1.52-11.19,3.88a23.91,23.91,0,0,0-.16,10.52C63.58,359.52,74.14,376.49,87.3,392.19Zm234.55-80.72c-5.36-5.8-10.44-12.28-16.56-17.59A30.53,30.53,0,0,0,292,287.67c-17.27-3.62-37.84,7-47.4,23.8Zm-38,6.26c-21.58,0-43.16.06-64.74-.07-3.08,0-3.88,1.19-3.81,3.89.07,2.37.09,4.17,3.49,4.16q64.53-.18,129.07,0c3.24,0,3.67-1.49,3.61-4s-.43-4-3.72-4C326.47,317.81,305.17,317.73,283.87,317.73Zm.1,81v-.4c-3.45,0-6.91,0-10.36,0s-6.91-.52-10.34-.27c-1.85.13-4.74.92-5.22,2.16a38.26,38.26,0,0,0-2.66,11.91c-.16,3.67,3.42,6.17,7.44,6.29,4.4.14,6.2-1.33,7-5.81.44-2.3.5-4.73,1.32-6.89.52-1.38,2.1-2.36,3.2-3.51.76,1.39,2.17,2.79,2.14,4.17-.08,4.12-.87,8.23-1.11,12.36-.37,6.23,2.57,9.8,7.86,9.89,5.44.09,8.54-3.24,8.35-9.47-.14-4.4-.93-8.79-1-13.19,0-1.23,1.41-2.49,2.17-3.74,1,1.05,2.64,1.92,3,3.17.89,2.88,1.05,6,1.8,8.91a5.21,5.21,0,0,0,2.13,3.17,8.55,8.55,0,0,0,9.39-.67,7.81,7.81,0,0,0,3-8.46c-.56-2.4-1.6-4.69-2.38-7-1-2.92-2.72-4-5.95-3.65C297.23,398.29,290.59,398.42,284,398.75Zm162.35,46.82a49.57,49.57,0,0,1-2.17-6.14c-.84-4-3.18-5.06-7.14-5-12.44.25-24.88.11-37.33.11H379.39c-1.27,3.76-2.45,7.23-3.72,11Zm-256,0c-1-3.25-1.92-5.84-2.58-8.5-.5-2-1.64-2.55-3.57-2.54-18.91.05-37.82,0-56.74.1-1.09,0-2.78.48-3.17,1.25-1.52,3-2.62,6.21-4,9.69ZM72.73,416.22c2.71-4.16,5.07-7.72,7.37-11.31a8,8,0,0,0,0-9.36C76.24,389.86,72.48,384,68,378.87c-2.83-3.2-6.79-5.61-10.63-7.62-1.89-1-4.67-.27-7-.32.13,2.22-.26,4.63.47,6.63C55.86,391.56,64.87,403.35,72.73,416.22Zm421.15,0c5.92-9.52,11.48-18.07,16.62-26.87a90.8,90.8,0,0,0,6.18-13.53c1.78-4.7-.14-6.81-5-5.2a33.11,33.11,0,0,0-10,5.49c-7.49,6-11.75,14.53-16.34,22.71a3.59,3.59,0,0,0,.08,3C488,406.35,490.69,410.8,493.88,416.18Zm-280.32,29.7v-.07c3.87,0,7.74,0,11.61,0,2.64,0,3.83-1.26,3.07-4a43.82,43.82,0,0,1,0-22.93c.64-2.54-.25-3.78-2.18-5.08-8.5-5.69-18.48-5.17-25.53,1.45-6.89,6.45-8.28,17.31-3.52,25.93,1.86,3.36,4.15,5.27,8.25,4.76A69.26,69.26,0,0,1,213.56,445.88Zm139.06,0v0c3.46,0,6.93.19,10.37-.08a7,7,0,0,0,4.27-1.89c6.55-7.18,6.22-20.33-.51-27.89-6.43-7.22-17.63-8.26-26-2.16-1.17.85-2.4,3.07-2.1,4.29a53.74,53.74,0,0,1,.16,23.84c-.62,3.09.58,4,3.45,3.95C345.71,445.82,349.17,445.89,352.62,445.89ZM262.42,447a13.19,13.19,0,0,0-13.27-13.11c-7.32-.1-13.77,6.12-13.71,13.21.06,7.78,5.69,13.56,13.21,13.59A13.79,13.79,0,0,0,262.42,447Zm55.91,13.66a13.4,13.4,0,0,0-.51-26.79c-7.83.18-13.78,6.26-13.54,13.82C304.51,454.86,310.88,460.74,318.33,460.61Zm131.93-26.06a80.59,80.59,0,0,1,3,7.56c.88,3.07,2.72,3.88,5.79,3.84,12.54-.16,25.09-.07,37.63-.09,1.41,0,2.82-.17,4.85-.29a96.14,96.14,0,0,0-4.93-9,5.27,5.27,0,0,0-3.75-1.94C479,434.49,465,434.55,450.26,434.55ZM65,445.89c15.49,0,30.22,0,44.94-.07a3.49,3.49,0,0,0,2.45-1.71c1.48-2.91,2.7-6,4.24-9.49-14.9,0-29.23,0-43.55.06A3.32,3.32,0,0,0,70.72,436C68.83,439,67.13,442.15,65,445.89Zm-2.29-12.38c1.62-2.57,2.69-4.66,4.12-6.46,1.85-2.32,1.79-4.33.07-6.69-4.07-5.56-7.58-11.6-12.12-16.74-3.2-3.62-7.54-6.33-11.69-9-2.6-1.64-5.74-1.69-9.4.77Zm441.24-1.12c.46-.22.79-.28.94-.47,8.81-11.35,17.64-22.68,26.35-34.11,2-2.57,1.14-4-2.17-4.16-4.78-.27-8.75,2-11.84,5.12a213.39,213.39,0,0,0-14.48,16.45C497.31,422,497.72,425.86,503.93,432.39ZM453.4,363.58a34.64,34.64,0,0,1-1.7-3.4c-1.67-4.71-4.86-6.15-9.86-6-12.29.34-24.59,0-36.89,0-1.41,0-2.81.24-4.39.38.47,1.53.73,2.45,1,3.37,1.82,5.66,1.82,5.65,7.66,5.65l30.68,0Zm-339-.47a7,7,0,0,0,1.42.33c13.94,0,27.89.1,41.83,0,5.68-.05,7.49-2.27,7.83-9.26h-4.42c-11,0-22.13.65-33.12-.13C120.54,353.5,116.56,356.12,114.39,363.11ZM350.46,190.53c-3.68-6.37-6.79-11.86-10-17.28a3.3,3.3,0,0,0-2.27-1.51c-6.26-.13-12.53-.07-19.4-.07,2.74,6.18,5.05,11.62,7.59,17a3.86,3.86,0,0,0,2.79,1.83C335.89,190.6,342.65,190.53,350.46,190.53Zm-101.85-19c-3.28,0-5.82.38-8.21-.06-9.71-1.79-16,1.87-19.16,11.21-.85,2.47-2.49,4.66-4.31,8,7.84,0,14.44.08,21-.08a3.91,3.91,0,0,0,2.86-1.81C243.45,183.36,245.83,177.82,248.61,171.57Zm81.74,73.84c-7.4,9.32-12.1,19.26-16.25,29.56a140.33,140.33,0,0,0,10.63-9.18c2.15-2,4-2,6,.14,3.07,3.14,6.29,6.11,10.28,9.94.59-2.83,1.77-5,1.26-6.59A76.72,76.72,0,0,0,330.35,245.41ZM225.17,275.14l1.13.18c3.16-3,6.44-5.92,9.46-9.07,2.45-2.56,4.55-2.64,7-.08,1.51,1.61,3.21,3,4.83,4.54l4.55,4.2A93.28,93.28,0,0,0,237,246c-.64.41-1.13.54-1.28.84-3.74,7.67-7.57,15.3-11,23.09C224,271.33,225,273.39,225.17,275.14Zm-3.2,6.42-1.78.06c-1.51,9.78-3,19.55-4.56,29.68h18.08a27.07,27.07,0,0,0-.77-2.6Q227.48,295.13,222,281.56Zm110.81,30.1c3.08,0,5.28,0,7.47,0,12.23-.19,10.59,1.18,9.33-10.84-.68-6.54-2.39-13-3.64-19.44l-1.18.06Zm-93.51-5c5.33-5.06,10.75-10.09,16-15.33.62-.63.59-2.65.05-3.54-.87-1.43-2.41-2.46-3.55-3.55a7.18,7.18,0,0,0-1.15.59q-4.72,4-9.43,8c-6.41,5.5-6.41,5.5-2.54,13.18A5.53,5.53,0,0,0,239.27,306.71Zm88.79.36c1.1-2.81,2.05-4.95,2.73-7.17a3.11,3.11,0,0,0-.32-2.61c-4.36-4.05-8.7-8.13-13.35-11.82-2.49-2-4.12.67-5.28,2.34a3.88,3.88,0,0,0,.33,3.7C317.17,296.65,322.39,301.57,328.06,307.07Zm-94.82-14.93c4.12-3.63,7.86-6.83,11.47-10.18.71-.66,1.57-2.33,1.28-2.71a30.88,30.88,0,0,0-5.81-6.15c-.48-.36-2.77,1.54-4.11,2.56A44.2,44.2,0,0,0,232.4,279c-3.47,3.31-3.66,4.63-1.38,9C231.65,289.17,232.3,290.36,233.24,292.14Zm101.14.52c.84-4,2.87-7.73,1.8-10-1.76-3.76-5.53-6.57-8.46-9.78-2.35,1.94-4.72,3.86-7.05,5.83-.26.22-.31.7-.55,1.28Zm-3,49.58c-.87-6.07-5.41-9.49-11.46-9-5.32.43-9.06,4.45-8.9,9.53C319.18,337.91,321.61,337.82,331.42,342.24Z"/><path d="M92.52,241.77q-23.83,0-47.68,0c-7,0-8.32-1.66-5.78-8.25a181.71,181.71,0,0,1,8-17.24c2.12-4.16,5.7-6.38,10.54-5.77,3.36.42,4.95-1.49,6.47-4,7-11.75,17.23-18.57,31.05-19.06,12.66-.45,23,4.91,31.69,13.82,9.58,9.83,15.46,21.78,19.52,34.7,1.3,4.14-.26,5.81-5.28,5.83-14.65.05-29.3,0-44,0Zm45.66-7.69c-6.41-15.19-13.26-29.26-28.49-36.82a28.4,28.4,0,0,0-24.48-.91c-6.63,2.78-11.39,7.68-14.84,13.92-2.84,5.12-6.7,8.32-13,7.56-1.17-.14-3.12.39-3.61,1.24-2.69,4.73-5,9.66-8,15.47,7.21,0,13.11-.14,19,.06a8.64,8.64,0,0,0,7.81-3.53A68.35,68.35,0,0,1,92,214.47c4.09-2.34,5.94-2.31,9.18,1.13,3.86,4.11,7.45,8.48,10.92,12.93,2.53,3.25,5.07,6.52,9.52,6.52C126.82,235,132,234.47,138.18,234.08Zm-58.72-1.14.68,1H108c-3.8-4.45-7-8.19-10.2-12-1.33-1.59-2.69-1.7-4.26-.44Q86.48,227.26,79.46,232.94Z"/><path d="M504.68,257.11H484.41c-3,0-4.69-1.12-4.32-4.5,1.65-15.46,17.79-26,32.24-20.71,9.27,3.37,14.14,10.62,16.1,20,.79,3.77-.41,5.11-4.3,5.17-6.48.1-13,0-19.45,0Zm15-7.41c-1.6-7.59-7.68-12.23-15.43-12.19A15.71,15.71,0,0,0,489,249.7Z"/><path d="M423.19,171.9c-6.09,0-12.17.07-18.26,0-5-.08-6-1.56-4.34-6.11,3.14-8.5,12.57-14.75,22.53-14.93,9.78-.17,19.53,6,22.89,14.39,1.95,4.89.89,6.54-4.56,6.65C435.37,172,429.28,171.9,423.19,171.9ZM439.64,166c-4.76-7.06-10.77-9.75-18.43-9-6,.59-10.25,3.69-14,9Z"/><path d="M144.22,176.18c6.59.06,10.55,6.56,7.3,12.3A25.28,25.28,0,0,1,139,199.58c-4.84,2-9-1.3-7.74-6.34A62.21,62.21,0,0,1,136.06,181,8.6,8.6,0,0,1,144.22,176.18ZM136.8,193l1.41,1c2.49-2.43,5.15-4.72,7.39-7.37.69-.82.24-2.61.31-4-1.56.3-3.93.07-4.54,1C139.49,186.5,138.28,189.82,136.8,193Z"/><path d="M181.22,498.33c-4.13,0-8.27.12-12.39-.08-1.12-.06-2.2-1.08-3.29-1.66,1-.69,2-1.94,3-2q13-.24,26,0c.9,0,1.78,1.19,2.67,1.83-.93.59-1.84,1.66-2.79,1.7-4.4.19-8.81.08-13.22.08Z"/><path d="M386,498.26c-4.28,0-8.57.11-12.85-.08-.95,0-1.86-1.14-2.78-1.75.89-.64,1.78-1.84,2.68-1.85q13.28-.18,26.54.07c.88,0,1.73,1.24,2.59,1.9-1,.56-1.92,1.57-2.91,1.6-4.42.18-8.84.08-13.27.08Z"/><path d="M504.05,268.9c-4.68,0-9.36.09-14-.07-1,0-1.94-1-2.91-1.54.9-.64,1.81-1.81,2.72-1.83,9.64-.11,19.27-.07,28.91.06.84,0,1.67,1,2.51,1.53-.91.57-1.81,1.59-2.74,1.63-4.81.16-9.63.07-14.45.07Z"/><path d="M144,112.6c-5.26,0-10.51.08-15.76-.07-.94,0-1.84-1-2.76-1.56.93-.58,1.86-1.64,2.8-1.65q15.77-.18,31.52,0c.95,0,1.88,1.08,2.81,1.66-.95.55-1.89,1.54-2.85,1.56-5.25.16-10.51.08-15.76.08Z"/><path d="M411.47,112.64c-4.68,0-9.37.09-14.06-.08-1.15,0-2.26-1-3.4-1.46,1.05-.62,2.09-1.76,3.15-1.78q14.05-.21,28.12,0c1.08,0,2.14,1.13,3.21,1.74-1.12.52-2.23,1.45-3.37,1.49-4.54.18-9.1.07-13.65.07Z"/><path d="M95,252.56c4.28,0,8.57-.14,12.84.08,1.2.07,2.34,1.18,3.5,1.81-1.08.59-2.14,1.67-3.23,1.68q-13.26.21-26.52,0c-1.1,0-2.18-1-3.27-1.62,1.14-.66,2.25-1.82,3.42-1.88C86.15,252.42,90.58,252.55,95,252.56Z"/><path d="M78.43,477.63c-3.87,0-7.74.1-11.61-.07-1-.05-1.94-1-2.91-1.53.86-.63,1.72-1.79,2.6-1.8,8.29-.14,16.59-.12,24.88,0,.86,0,1.71.95,2.57,1.46-.89.64-1.76,1.78-2.67,1.82-4.28.2-8.57.09-12.86.09Z"/><path d="M487.31,477.6c-3.87,0-7.75.11-11.61-.07-1,0-2-1-3-1.5,1-.63,2-1.77,3.07-1.79q12-.23,24,0c.92,0,1.82,1.08,2.74,1.66-.95.57-1.88,1.58-2.85,1.62C495.6,477.71,491.45,477.6,487.31,477.6Z"/><path d="M283.22,387.35c-6.31,0-11.53-3.53-13.57-9.08-.72-2-1-3.9,1.31-5s3.17.7,4.1,2.31c4.66,8.05,12,8.1,16.57.12,1-1.74,1.91-3.68,4.38-2.37,2.31,1.23,1.61,3.18.86,5.06C294.62,384.06,289.56,387.38,283.22,387.35Z"/><path d="M284.17,352.35c2.6.12,6.14-.59,6.62,3.79.34,3-3.75,6.51-7.28,6.58s-7.29-3.13-7.38-6.44C276.05,353.35,278.1,352.3,284.17,352.35Z"/><path d="M211.85,417.77a11.17,11.17,0,1,1-11.26,11A11.35,11.35,0,0,1,211.85,417.77Zm-.17,4.79c-3.18,0-6.29,3.11-6.11,6s3.49,5.81,6.54,5.77a5.89,5.89,0,0,0,5.71-5.84A6.22,6.22,0,0,0,211.68,422.56Z"/><path d="M365.82,428.8A11.59,11.59,0,0,1,354.7,440c-6,.08-11.27-5.38-11.13-11.58a11,11,0,0,1,11.06-10.65A11.16,11.16,0,0,1,365.82,428.8Zm-5-.24c.05-3-3.08-6-6.29-5.93a6,6,0,0,0-.07,11.91C357.52,434.59,360.8,431.5,360.86,428.56Z"/></svg>