<svg id="Слой_1" data-name="Слой 1" xmlns="http://www.w3.org/2000/svg" viewBox="0 0 566.93 566.93"><path d="M319.16,113.58c-6.93-11.73-13.8-23.51-20.8-35.2-8.79-14.68-24.48-14.92-33.28-.39C258.18,89.4,111,344.86,49.67,451.53c-4.55,7.92-9.28,15.75-13.52,23.83-6,11.35,1.18,24.07,13.56,24.16,49.58.36,420.52.07,466.49.06,9.32,0,16.63-5.91,16.71-14.65a26.43,26.43,0,0,0-3.68-12.63C512.91,443.72,320,115,319.16,113.58Zm98.72,185c14.49,26.23,30,51.91,45.1,77.8.79,1.34,1.52,2.72,2.54,4.56h-109c4.65-7.09,9.2-14.24,14.07-21.16.74-1,3-1.34,4.61-1.38,13.13-.32,25.69-2.89,36.75-10.21a61.46,61.46,0,0,0,12.25-10.86c3.48-4,1.88-6.95-3.36-7.52A27.19,27.19,0,0,1,401.5,319c3.69,0,7.37,0,11.06,0,2.17,0,4.56-.45,4-3.16-.25-1.27-2.38-2.93-3.79-3.06a88.92,88.92,0,0,0-13.46-.13c-4.14.25-6.94-1.26-8.77-4.93-2.07-4.13-4.43-8.13-6.33-12.34-.91-2-1.06-4.39-1.75-7.44,6,0,11.41.65,16.6-.14C408.52,286.4,413.35,290.37,417.88,298.56Zm-137.28,52c6.83-.09,11.85-3.45,14.31-10.06.85-2.28,2.36-3.16,4.73-2.65a171.31,171.31,0,0,0,64.86,1c-6.52,5.25-14,8.57-21.9,10.87-14.92,4.33-30,4.41-45.21,1.59-4.68-.87-5.16-.12-6.18,4.6s-2.12,9.41-4.43,13.4c-3.21,5.52-9,5.45-12.13-.08-2.21-3.9-3.29-8.56-4.32-13-1.21-5.25-1.57-5.86-6.88-4.91-18.66,3.34-37,2.72-54.57-5a97.36,97.36,0,0,1-10.59-5.91c-.69-.42-1-1.47-1.47-2.23l-.23.11.17-.15c14.64,3.91,29.57,3.61,44.48,2.6a181.68,181.68,0,0,0,18.9-2.79c2.89-.51,4.75.19,5.86,3C268.63,347.54,273.79,350.69,280.6,350.6Zm-5.66-20.33a31,31,0,0,1,4.93-.65c1.81.11,3.08-.11,4.09.32,2.29,1,5.92,1.9,6.3,3.5.56,2.31-.62,5.72-2.22,7.74-4.59,5.81-13.74,4.33-16.87-2.38C269.08,334.32,270.23,331.56,274.94,330.27Zm82.72,3.27C338,337.45,318.43,336.08,299,332a7.45,7.45,0,0,1-3.8-2.49c-6.29-7.63-21.1-8.2-28.17-1.09-1.35,1.36-3.06,2.85-4.83,3.25-23.23,5.26-46.44,6.25-69.6-.71-3.69-1.11-5.3-2.9-6-6.77-2.89-15.72-3.08-31.09,3.7-46,9.43-20.77,26.43-32.43,47.22-39.53a123.11,123.11,0,0,1,41.57-6.29c21.06-.08,40.61,3.27,58.82,12.61,27.17,13.92,40.72,39.12,37.44,69.45C373.63,330,373.09,330.47,357.66,333.54Zm-101.93,27c8-.85,7.94-.92,10.8,6.68s8.11,12.2,14.23,12.24,11.56-4.68,14.42-12.59c2.58-7.18,2.6-7.32,10.15-6.41,16.73,2,33,.66,48.55-6.23,3.95-1.75,7.68-4,11.5-6-1.11,8.68-16.61,29-29.86,39.1a89.88,89.88,0,0,1-46.39,18c-39.29,4-82.24-22-94.5-57.94C213.78,360,234.24,362.8,255.73,360.51Zm121.06-11.25c2.7-11.54,5.32-22.72,8-34.42,7.11,9.44,15.35,17.93,27.77,22.1C401.75,345.84,389.81,349.14,376.79,349.26ZM221.51,171.17q25-43.3,50-86.6c6.65-11.49,12.86-11.5,19.76-.07q9.66,16,19.23,32.07c.5.83.85,1.75,1.6,3.31l-20.24,1c-1.16.06-2.49-.26-3.44.2a25.4,25.4,0,0,0-4,3c1.35,1,2.64,2.72,4.07,2.84,4.75.4,9.56.22,14.34.27l6.53.05c8.34.06,9.33.8,12.72,9.83-1.19.11-2.26.29-3.33.29-9.86,0-19.72-.06-29.58-.07-2.18,0-4.77-.15-4.8,3s2.67,3.06,4.77,3.16c8.68.39,17.37.6,26.05,1,9.15.39,15.87,4.09,19.7,13,2.48,5.79,6.25,11,9.73,17H219.93C220.48,173.31,220.91,172.2,221.51,171.17Zm-3.29,12.32q63.5-.09,127-.06c4.86,0,6.55,1.44,7.61,6.2H211.65C212.49,184.51,213.44,183.5,218.22,183.49Zm-56.57,90.74c10.7-18.58,21.52-37.1,32.07-55.77,2.24-4,5.07-6.15,9.54-6.36,3.61-.16,7.22-.37,10.84-.54,2.31-.11,5.14.22,5.05-3.18s-3-2.94-5.24-3c-3.61,0-7.22,0-11.07,0-.3-3.92,1.54-6,4.72-6.91a17.38,17.38,0,0,1,4.74-.38c46.39,0,92.78.08,139.17-.06,5.29,0,8.61,1.61,11,6.43,3.37,6.66,7.41,13,11.64,20.3-2.35,0-3.88,0-5.4,0q-14.56.12-29.14.24c-2.09,0-4.45,0-4.53,2.78-.09,3.11,2.47,3.06,4.68,3.12,8.26.22,16.52.58,24.78.61,10.63,0,17.95,4.41,22.63,14.36,4.31,9.14,9.94,17.65,15,26.44,1.13,2,2.28,3.93,4,6.94-5.11,0-9.27-.51-13.27.1-8.77,1.34-13.57-1.43-17.58-10.1-8.51-18.39-24.18-29.6-43-36.43-38-13.79-75.52-13.26-112.42,3.84-17.64,8.17-30.78,21-38.23,39.16-1,2.52-2.31,3.63-5.11,3.52-5.48-.2-11-.06-17.58-.06C160.23,277,160.88,275.56,161.65,274.23ZM184,348.62c-8,3-27.55-3.57-34.46-11.63,4.87-3.2,10.1-6,14.51-9.72s7.9-8.38,11.92-12.76c1,5.9,1.74,11.8,3.09,17.55S182.36,343.1,184,348.62Zm-30.9-58.93a3,3,0,0,1,2.06-1.42c7.32-.1,14.64-.06,23.12-.06-1.37,3.91-2.2,7.21-3.63,10.23-5.43,11.46-5.51,11.43-18,11.46-4.72,0-9.44,0-15.12,0C145.7,302.61,149.36,296.12,153.13,289.69Zm-17.21,29.76a3.86,3.86,0,0,1,2.79-1.6c7.18-.14,14.36-.08,22.63-.08-6,6-11.81,10.18-19.2,11.07s-7.73,4.79-3.9,9.63c2,2.49,4.21,4.76,6.74,7.59H120.52C125.79,336.91,130.79,328.14,135.92,319.45ZM115.73,354.9c.62-1,2.71-1.65,4.12-1.67,11.72-.13,23.45-.11,35.18,0a32.23,32.23,0,0,1,5.08.9c8.39,1.4,16.75,3,25.17,4.05,2.71.35,4.37,1,5.87,3.43,4.11,6.57,8.58,12.91,13,19.46H100.67C105.79,372.07,110.63,363.4,115.73,354.9ZM189.62,469c-5.34,6.23-6.28,13.12-3.56,21.27-1.75.17-3.09.41-4.44.41q-64.8,0-129.59-.06c-8.27,0-11.27-5-7.11-12.33C57.53,456.09,70.34,434,83.07,412c3.55-6.16,7.13-12.29,10.57-18.49a6.53,6.53,0,0,1,6.27-3.77q53.49.1,107,.14a15.1,15.1,0,0,1,2,.39c-1.83,2.89-3.37,5.3-4.88,7.73-12.63,20.24-17.45,42.07-13.6,65.74C190.67,465.4,190.61,467.81,189.62,469Zm6.93,21c-4.71-4.2-4.71-9.48-.23-14.29C199.9,479.63,200,484.33,196.55,490Zm15.68.57c-3.88,0-3-4.22-3.26-6.85a12,12,0,0,1,1.14-5.42c.42-1,1.83-2.23,2.68-2.15s2,1.5,2.37,2.56a24.67,24.67,0,0,1,.75,4.79C215.32,486.46,216.1,490.58,212.23,490.53Zm26.75-2.3c-1.36,2.32-6.79,3.53-10.24,2.24-3-1.13-2.61-3.83-2-5.89.87-3,2.64-5.64,3.79-8.53.44-1.11.22-2.48.3-3.72-1.29.12-3-.25-3.79.44-4.37,3.76-5.69,8.86-5.69,14.45a3.47,3.47,0,0,1-1.18,2.62c-.33-4.22-.31-8.51-1.11-12.64-.61-3.13-2.33-6.21-6.17-6.36s-5.79,2.83-6.64,5.88a48.18,48.18,0,0,0-1.2,10.63c-.1,2.1-.12,3.58-2.94,2.19,2.11-6.15,1.84-12-2.15-17.27,9.83-8.93,29.91-7.47,38,2.57A11.46,11.46,0,0,1,239,488.23Zm12.48-1a38.51,38.51,0,0,1-3.07,3.1,6.21,6.21,0,0,1-.43-1.43c2.22-14.17-3.34-23.6-17-28.66-1.09-.41-2.39-.42-3.3-1-1.73-1.18-6.23.87-4.88-4,1.48-5.36,3.75-6.85,8.33-5.37,8,2.59,15.3,6.23,20.26,13.44C256.67,470.94,256.73,480.43,251.46,487.26ZM260.4,490c7.65-24.23,1.71-35.37-26.83-49l17.85-13.58-.33-.89a18.05,18.05,0,0,0-3.4.61c-13.94,5.27-25.34,13.34-30.9,27.93a4.46,4.46,0,0,1-2.42,2.56c-4.86,1.3-9.8,2.29-15.17,3.49a63.22,63.22,0,0,1-.72-22.17,88.68,88.68,0,0,1,16.86-41.87c2.4-3.29,4.25-3.32,7.42-1.12,21.62,15,45.53,21.07,71.68,17.55a98.16,98.16,0,0,0,44.05-17.29c1.07-.75,2.1-1.54,3.17-2.29a4.25,4.25,0,0,1,.79-.33c14.44,9.06,26.6,49.36,20.27,67.12-5.27-1-10.27-1.75-15.11-3.06-1.44-.4-2.92-2.25-3.53-3.78-5.77-14.39-17.26-22.05-31.16-27a5,5,0,0,0-1.68-.24c-.22,0-.45.3-1.2.85l18.47,13.81C300.12,451.38,292.1,471.52,301,490Zm53.14-2.52a28.22,28.22,0,0,1,.18,3.59,43.64,43.64,0,0,1-3.59-3.6,20,20,0,0,1,0-24.15c5.64-7.54,13.52-11.62,22.37-13.93,4.57-1.19,4.77,3.39,6.09,5.83,1.55,2.85-1.44,3.24-3.21,3.79-5.88,1.8-11.37,4.23-15.76,8.69C314.15,473.23,311.81,479.72,313.54,487.47Zm40.16-.74c-.89,1.44-1.9,3.54-3.22,3.84-2.77.64-3.14-2.06-3.28-4a24.23,24.23,0,0,1,.45-7.27c.29-1.25,1.84-2.2,2.82-3.29.89,1,2.09,1.9,2.58,3.08a21.49,21.49,0,0,1,1,4.5C353.9,485,354.1,486.07,353.7,486.73Zm7.39,2.9c-2.76,1.05-3,0-3.17-2.23-.27-4-.51-8.13-1.91-11.76-.81-2.07-3.85-4.38-6-4.48-1.83-.09-4.75,2.42-5.53,4.43-1.31,3.37-1.33,7.25-1.8,10.92a29.47,29.47,0,0,0,0,3.76l-1.75.05c0-1.39,0-2.78,0-4.16.05-5.18-1.55-9.75-5.49-13.18-.91-.79-2.73-.53-4.14-.76.26,1.34.06,3.08.84,3.95a13,13,0,0,1,3.44,11.21c-.2,1.25-2.07,3.24-3,3.17-3.21-.26-7.1,1.86-9.49-2.15a12.51,12.51,0,0,1,.76-13.14c7.59-10.15,29-12.16,39-3.36C359.27,477.33,358.1,483.22,361.09,489.63Zm6.12.26c-4.4-3.83-4.49-10.82-.43-14.35C370.71,480.05,370.88,484.09,367.21,489.89Zm56.16-10.1c.59,3.76,1.08,6.93,1.66,10.61C420.49,489.92,420.1,486.44,423.37,479.79Zm16.71-53a47.34,47.34,0,0,0-20.94-17.73,32.26,32.26,0,0,0-4.16-1.26l-.51,1.06c1.2.92,2.39,1.86,3.6,2.75,7.8,5.74,14.77,12.27,18.79,21.26a26.75,26.75,0,0,1,2.26,9.56c.33,7.29.11,14.61-.27,22.08-8.13-16.74-20.19-28.8-37.67-34.73l-1,1.2c1.46,1,2.9,2.12,4.39,3.11,18.31,12,30.31,28.37,34.21,50.23.87,4.87.49,5.66-3.33,6.2-4.72.67-5.91-.43-6.62-5a62.79,62.79,0,0,0-2.77-10.87c-.43-1.22-2.19-2.8-3.26-2.74s-2.74,1.72-3.12,3A112.54,112.54,0,0,0,417,487.2c-.37,2.14-1,3.5-3.49,3.49-11.59-.05-23.19,0-34.79-.07a10.09,10.09,0,0,1-2.21-.73c3.18-8.18,1.42-15.07-3.8-21.41a6.6,6.6,0,0,1-1-4.8c4.67-26.07-1.84-49.39-17-70.64-.57-.8-1-1.65-1.85-2.93,1.52-.15,2.59-.36,3.66-.36,36,0,71.91,0,107.86-.16,4.56,0,7.52,1.43,9.79,5.56,5.57,10.16,11.57,20.09,17.39,30.11.79,1.36,1.52,2.76,2.59,4.71-2,.18-3.56.43-5.08.44-13.92.06-27.83,0-41.75.18A7.41,7.41,0,0,1,440.08,426.8Zm15.53,58.86c0,3.39-.79,5.17-4.58,5.06-4.74-.15-5.85-.72-5.89-4.82-.14-15.51-.17-31-.2-46.52a19.51,19.51,0,0,1,.57-3.26h14c11,0,22,.18,33-.06,3.82-.08,6.35.84,7.83,4.51a42.79,42.79,0,0,0,3.41,5.65c-1.87.12-3.23.27-4.59.27-12.32,0-24.63,0-36.95,0-5.65,0-6.66,1-6.68,6.54C455.5,463.92,455.46,474.79,455.61,485.66Zm60.29,4.83c-8.55.27-17.1.06-25.66.06v.2c-8.11,0-16.23-.1-24.35.05-3.15.05-4.5-1.08-4.47-4.27.09-10.15.07-20.3,0-30.45,0-2.53,1-3.68,3.59-3.67,13,.07,26.1-.06,39.14.17a6.78,6.78,0,0,1,4.71,2.88c4.75,7.63,9.28,15.39,13.66,23.23C526.28,485.36,523.58,490.24,515.9,490.49Z"/><path d="M232.51,266.28c-18.23.07-33.39,15.65-33.35,34.28a33.76,33.76,0,0,0,34.14,33.78c19.82-.16,34.69-14.67,34.53-33.7A34.81,34.81,0,0,0,232.51,266.28Zm1.24,61.53A27.6,27.6,0,0,1,206,300.22a26.83,26.83,0,0,1,27.15-27,27.27,27.27,0,1,1,.57,54.54Z"/><path d="M327,266.26c-18.6.09-34.05,15.56-34,34.08,0,19.09,15.1,34,34.34,34s34.42-15.09,34.25-34.06A34.4,34.4,0,0,0,327,266.26Zm.76,61.56a27.56,27.56,0,0,1-27.88-27.35,27.06,27.06,0,0,1,27-27.17c15.74-.06,27.8,11.66,27.9,27.14C354.79,315.11,342.43,327.65,327.71,327.82Z"/><path d="M86.6,462.64c1.06.53,2.55.26,3.85.26h37.37V463c12.75,0,25.49,0,38.24,0a12.39,12.39,0,0,0,4.64-.69,3.39,3.39,0,0,0,1.58-2.7c0-.89-1.11-2.51-1.74-2.51-4.85,0-4.4-3.29-4.6-6.56-1.54-24.57-24.48-40.89-47.12-33.6-15.06,4.86-24.34,17.48-25.54,35.24-.24,3.44-1.06,5.25-4.8,4.57a2.58,2.58,0,0,0-1.71.11c-1.15.84-2.17,1.85-3.24,2.8C84.54,460.65,85.38,462,86.6,462.64Zm26.84-6.45c.92-3.5,1.74-6.56,2.55-9.63l1.12,0c.56,2.92,1.12,5.84,1.85,9.61Zm25.38-.08c1-3.81,1.77-7,2.59-10.26l1.26,0c.87,3.19,1.73,6.37,2.8,10.3Zm-38.9-3.84c1.11-17.25,13.9-30.07,30-30.06,16.57,0,30.16,14.32,29.59,31.1-.07,2.07-.7,3.12-3,3.29-6.57.47-6.69.3-7.95-6.34a27.21,27.21,0,0,0-3-8.05c-2.23-4-5-4-7,0a40.64,40.64,0,0,0-3.11,9.83c-.94,4.65-1.22,4.88-8.24,4.65-3.4-.11-4.3-1.83-4.59-4.95a38.8,38.8,0,0,0-2.21-9.66c-1.31-3.58-4.66-3.9-6.42-.53a42.47,42.47,0,0,0-4.35,11.66c-.94,5.09-4.52,3-7.1,3.27C99.35,456.8,99.79,454.31,99.92,452.27Z"/><path d="M173.24,472.42c-1-.56-2.54-.19-3.85-.19l-92.57,0c-1,0-2.28-.31-3,.18a25.82,25.82,0,0,0-3.6,3.57A23.21,23.21,0,0,0,74,479.43c.88.51,2.27.14,3.43.14h92.13c1.31,0,2.88.37,3.84-.22,1.26-.77,2.83-2.34,2.81-3.54S174.53,473.14,173.24,472.42Z"/><path d="M232.66,278.72c-11.44,0-20.63,9.57-20.55,21.39A21.07,21.07,0,0,0,233.23,321c11.2.08,20.62-9.46,20.62-20.87A21.46,21.46,0,0,0,232.66,278.72Zm-6.25,19.58a6.68,6.68,0,0,1-6.34-6.95,6.39,6.39,0,0,1,12.78.16C232.78,295.41,230,298.39,226.41,298.3Z"/><path d="M326.7,279c-11.82-.05-20.81,9-20.81,20.9a20.94,20.94,0,0,0,41.87.46A21,21,0,0,0,326.7,279Zm-6.61,19.3a6.76,6.76,0,0,1-6.55-7.14,6.53,6.53,0,0,1,13,.32C326.51,295.15,323.52,298.3,320.09,298.29Z"/></svg>