<svg id="Слой_1" data-name="Слой 1" xmlns="http://www.w3.org/2000/svg" viewBox="0 0 566.93 566.93"><defs><style>.cls-1{fill:#c9b6da;}</style></defs><path class="cls-1" d="M532,474.44c-16.5-28.9-211.58-361.31-212.45-362.8-7-11.86-14-23.76-21-35.59-8.89-14.85-24.76-15.09-33.66-.39-7,11.53-155.79,269.9-217.86,377.78-4.6,8-9.38,15.93-13.67,24.1-6,11.48,1.19,24.34,13.71,24.43,50.15.37,425.3.07,471.79.06,9.43,0,16.83-6,16.91-14.81A26.69,26.69,0,0,0,532,474.44Z"/><path d="M319.57,111.64c-7-11.86-14-23.76-21-35.59-8.89-14.85-24.76-15.09-33.66-.39-7,11.53-155.79,269.9-217.86,377.78-4.6,8-9.38,15.93-13.67,24.1-6,11.48,1.19,24.34,13.71,24.43,50.15.37,425.3.07,471.79.06,9.43,0,16.83-6,16.91-14.81A26.69,26.69,0,0,0,532,474.44C515.52,445.54,320.44,113.13,319.57,111.64ZM419.4,298.73c14.66,26.53,30.34,52.5,45.62,78.68.8,1.36,1.54,2.76,2.57,4.62H357.34c4.71-7.17,9.3-14.41,14.23-21.4.75-1.06,3.06-1.36,4.66-1.4,13.28-.32,26-2.92,37.17-10.33a61.94,61.94,0,0,0,12.39-11c3.52-4,1.9-7-3.4-7.61a27.53,27.53,0,0,1-19.55-10.87c3.73,0,7.46,0,11.18,0,2.2,0,4.61-.45,4.08-3.19-.26-1.28-2.42-3-3.84-3.1a90.91,90.91,0,0,0-13.61-.13c-4.19.26-7-1.27-8.88-5-2.09-4.18-4.47-8.23-6.39-12.48-.93-2.05-1.08-4.44-1.77-7.53,6.07,0,11.54.66,16.78-.14C409.94,286.43,414.83,290.45,419.4,298.73ZM280.57,351.37c6.91-.1,12-3.5,14.47-10.18.86-2.31,2.39-3.2,4.78-2.68a173.35,173.35,0,0,0,65.6,1.05c-6.59,5.31-14.14,8.67-22.15,11-15.09,4.38-30.36,4.47-45.72,1.61-4.73-.88-5.22-.12-6.25,4.66s-2.14,9.51-4.49,13.55c-3.24,5.58-9.08,5.51-12.26-.08-2.24-4-3.33-8.66-4.37-13.16-1.22-5.31-1.59-5.93-7-5-18.87,3.38-37.38,2.75-55.18-5.08a97.21,97.21,0,0,1-10.72-6c-.69-.41-1-1.48-1.48-2.25l-.23.11.16-.15c14.81,4,29.91,3.66,45,2.63a180,180,0,0,0,19.11-2.82c2.93-.51,4.81.19,5.94,3C268.46,348.27,273.68,351.46,280.57,351.37Zm-5.72-20.57a31.72,31.72,0,0,1,5-.66c1.82.12,3.12-.1,4.13.33,2.32,1,6,1.92,6.38,3.54.56,2.34-.63,5.78-2.25,7.83-4.64,5.88-13.89,4.37-17.06-2.42C268.91,334.9,270.08,332.1,274.85,330.8Zm83.65,3.31c-19.91,3.95-39.67,2.57-59.35-1.58a7.44,7.44,0,0,1-3.84-2.52c-6.37-7.71-21.34-8.29-28.5-1.1-1.37,1.38-3.09,2.88-4.88,3.29-23.5,5.31-47,6.32-70.39-.72-3.74-1.12-5.36-2.93-6.08-6.85-2.92-15.9-3.12-31.44,3.74-46.54,9.54-21,26.73-32.8,47.75-40A124.72,124.72,0,0,1,279,231.75c21.3-.08,41.07,3.3,59.49,12.75,27.48,14.08,41.18,39.57,37.86,70.25C374.65,330.49,374.11,331,358.5,334.11ZM255.41,361.39c8-.86,8-.94,10.93,6.75s8.2,12.34,14.39,12.38,11.7-4.73,14.58-12.74c2.61-7.25,2.63-7.4,10.27-6.48,16.92,2,33.38.67,49.1-6.29,4-1.78,7.76-4.06,11.63-6.11-1.12,8.78-16.8,29.33-30.2,39.55a90.81,90.81,0,0,1-46.91,18.22c-39.74,4-83.18-22.24-95.57-58.6C213,360.88,233.68,363.71,255.41,361.39ZM377.85,350c2.73-11.68,5.38-23,8.15-34.81,7.18,9.54,15.52,18.13,28.08,22.35C403.09,346.55,391,349.88,377.85,350ZM220.8,169.9q25.27-43.8,50.59-87.59c6.73-11.62,13-11.63,20-.07q9.76,16.19,19.45,32.44c.5.84.86,1.76,1.61,3.34l-20.46,1c-1.18.06-2.52-.26-3.48.21a25.37,25.37,0,0,0-4.08,3c1.37,1,2.67,2.75,4.12,2.87,4.8.4,9.66.23,14.5.27,2.2,0,4.4,0,6.6.06,8.44.05,9.45.8,12.86,9.94-1.2.11-2.28.29-3.36.29-10,0-19.94-.06-29.91-.07-2.21,0-4.83-.15-4.86,3s2.7,3.1,4.82,3.2c8.78.39,17.57.61,26.35,1,9.25.39,16,4.14,19.92,13.18,2.51,5.86,6.33,11.16,9.84,17.2H219.21C219.76,172.06,220.2,170.93,220.8,169.9Zm-3.32,12.45q64.22-.07,128.45,0c4.92,0,6.63,1.45,7.7,6.26H210.84C211.68,183.39,212.64,182.36,217.48,182.35Zm-57.22,91.77c10.83-18.79,21.77-37.52,32.44-56.4,2.26-4,5.13-6.22,9.65-6.43,3.65-.16,7.3-.37,11-.55,2.33-.11,5.2.23,5.11-3.21s-3-3-5.3-3c-3.65-.05-7.31,0-11.19,0-.3-4,1.56-6.05,4.77-7a17.35,17.35,0,0,1,4.79-.39c46.92,0,93.84.08,140.75-.06,5.35,0,8.71,1.63,11.17,6.5,3.4,6.74,7.49,13.14,11.77,20.53h-5.46l-29.47.24c-2.12,0-4.5,0-4.58,2.82-.1,3.14,2.49,3.09,4.73,3.15,8.35.23,16.71.59,25.06.62,10.75,0,18.15,4.46,22.89,14.52,4.36,9.24,10,17.86,15.16,26.75,1.14,2,2.3,4,4.06,7-5.16,0-9.37-.51-13.42.1-8.87,1.36-13.72-1.44-17.78-10.21-8.6-18.6-24.45-29.94-43.45-36.85-38.39-13.95-76.38-13.41-113.7,3.88-17.84,8.27-31.13,21.22-38.66,39.62-1.05,2.54-2.34,3.66-5.18,3.55-5.54-.2-11.09-.06-17.77-.06C158.83,276.88,159.49,275.47,160.26,274.12Zm22.64,75.24c-8.08,3.08-27.87-3.61-34.85-11.76,4.92-3.23,10.21-6.05,14.67-9.83s8-8.48,12.05-12.9c1,6,1.77,11.92,3.14,17.74C179.24,338.27,181.21,343.78,182.9,349.36Zm-31.25-59.6a3,3,0,0,1,2.08-1.43c7.4-.11,14.81-.07,23.38-.07-1.38,4-2.22,7.3-3.67,10.35-5.49,11.59-5.57,11.56-18.23,11.59-4.77,0-9.54,0-15.29,0C144.13,302.83,147.84,296.26,151.65,289.76Zm-17.4,30.09a3.94,3.94,0,0,1,2.82-1.61c7.26-.14,14.52-.08,22.88-.08-6,6.09-11.94,10.29-19.42,11.19s-7.81,4.85-3.94,9.75c2,2.52,4.26,4.81,6.81,7.67H118.67C124,337.52,129.05,328.64,134.25,319.85Zm-20.42,35.86c.62-1,2.73-1.67,4.16-1.69,11.86-.13,23.72-.11,35.58,0a33,33,0,0,1,5.14.91c8.48,1.41,16.94,3,25.46,4.1,2.73.35,4.42,1,5.93,3.47,4.16,6.64,8.68,13,13.14,19.68H98.59C103.77,373.07,108.66,364.31,113.83,355.71Zm74.73,115.36c-5.41,6.3-6.36,13.27-3.6,21.51-1.77.17-3.14.42-4.5.42q-65.52,0-131.06-.07c-8.36,0-11.4-5.07-7.19-12.47,12.75-22.41,25.71-44.71,38.59-67,3.58-6.23,7.21-12.43,10.69-18.7a6.61,6.61,0,0,1,6.34-3.82Q151.92,391,206,391a15.21,15.21,0,0,1,2,.39c-1.85,2.93-3.41,5.37-4.94,7.82-12.78,20.47-17.65,42.55-13.76,66.49C189.61,467.47,189.56,469.9,188.56,471.07Zm7,21.24c-4.76-4.25-4.76-9.59-.23-14.45C199,481.86,199.09,486.61,195.56,492.31Zm15.86.57c-3.92-.05-3.08-4.27-3.29-6.93a12,12,0,0,1,1.15-5.47c.42-1,1.85-2.26,2.71-2.18s2,1.52,2.39,2.58a24.65,24.65,0,0,1,.76,4.85C214.54,488.77,215.34,492.94,211.42,492.88Zm27.05-2.32c-1.37,2.35-6.86,3.57-10.35,2.26-3-1.14-2.64-3.87-2-6,.89-3,2.68-5.7,3.84-8.63.44-1.11.22-2.5.3-3.76-1.3.12-3-.25-3.83.45-4.42,3.81-5.76,9-5.75,14.61a3.48,3.48,0,0,1-1.2,2.65c-.34-4.27-.31-8.6-1.12-12.78-.62-3.16-2.36-6.28-6.24-6.43s-5.86,2.86-6.71,5.95a48.58,48.58,0,0,0-1.22,10.74c-.1,2.13-.12,3.63-3,2.22,2.14-6.22,1.87-12.15-2.17-17.47,9.95-9,30.25-7.55,38.44,2.6A11.59,11.59,0,0,1,238.47,490.56Zm12.62-1a39,39,0,0,1-3.09,3.14c-.29-.92-.48-1.2-.44-1.45,2.24-14.33-3.39-23.87-17.15-29-1.09-.41-2.41-.43-3.33-1.06-1.75-1.2-6.3.88-4.94-4,1.5-5.42,3.79-6.93,8.42-5.43,8.08,2.62,15.48,6.31,20.5,13.59C256.37,473.07,256.42,482.67,251.09,489.57Zm9,2.77c7.73-24.5,1.73-35.78-27.14-49.57L251.06,429c-.12-.3-.23-.61-.34-.91a18.49,18.49,0,0,0-3.44.63C233.19,434.08,221.65,442.24,216,457a4.52,4.52,0,0,1-2.46,2.59c-4.91,1.31-9.91,2.31-15.33,3.53a64,64,0,0,1-.74-22.43,89.7,89.7,0,0,1,17.06-42.34c2.42-3.32,4.29-3.36,7.5-1.13,21.86,15.19,46.05,21.31,72.49,17.75a99.35,99.35,0,0,0,44.56-17.49c1.07-.76,2.12-1.56,3.2-2.32a4.07,4.07,0,0,1,.8-.33c14.61,9.17,26.9,49.93,20.5,67.88-5.33-1-10.39-1.76-15.28-3.1-1.45-.39-2.95-2.27-3.57-3.81-5.84-14.55-17.46-22.3-31.52-27.27a5.37,5.37,0,0,0-1.69-.25c-.23,0-.46.31-1.22.87l18.69,14c-28.72,10.18-36.83,30.55-27.88,49.23Zm53.75-2.55a28.9,28.9,0,0,1,.18,3.63,41.53,41.53,0,0,1-3.63-3.64,20.16,20.16,0,0,1,0-24.42c5.7-7.63,13.68-11.76,22.62-14.09,4.63-1.21,4.83,3.42,6.17,5.9,1.56,2.88-1.46,3.27-3.25,3.82-5.94,1.83-11.5,4.28-15.94,8.8C314.5,475.39,312.14,482,313.89,489.79ZM354.5,489c-.91,1.46-1.93,3.58-3.25,3.88-2.81.65-3.18-2.08-3.32-4a24.4,24.4,0,0,1,.45-7.34c.3-1.27,1.86-2.23,2.86-3.34.89,1,2.1,1.93,2.6,3.12a21.59,21.59,0,0,1,1,4.55C354.7,487.33,354.91,488.38,354.5,489ZM362,492c-2.79,1.06-3.05,0-3.21-2.25-.27-4-.5-8.22-1.93-11.89-.81-2.1-3.89-4.43-6.06-4.54-1.86-.09-4.81,2.46-5.6,4.49-1.32,3.4-1.35,7.32-1.82,11a30.1,30.1,0,0,0,0,3.8l-1.77.05c0-1.41,0-2.81,0-4.21.06-5.24-1.57-9.86-5.55-13.32-.92-.81-2.76-.55-4.18-.78.25,1.36.06,3.12.85,4a13.19,13.19,0,0,1,3.48,11.34c-.21,1.26-2.1,3.28-3.09,3.2-3.23-.26-7.18,1.89-9.59-2.17a12.64,12.64,0,0,1,.77-13.29c7.68-10.26,29.32-12.3,39.43-3.39C360.13,479.53,359,485.49,362,492Zm6.19.26c-4.45-3.87-4.54-10.93-.43-14.51C371.7,482.28,371.87,486.37,368.16,492.23ZM425,482c.59,3.8,1.1,7,1.68,10.73C422.05,492.27,421.65,488.75,425,482Zm16.9-53.59a47.85,47.85,0,0,0-21.18-17.93,32.57,32.57,0,0,0-4.21-1.28l-.51,1.07c1.21.93,2.41,1.88,3.64,2.79,7.88,5.8,14.94,12.41,19,21.5a27.3,27.3,0,0,1,2.28,9.66c.33,7.38.11,14.79-.28,22.34-8.22-16.93-20.41-29.13-38.1-35.13l-1,1.22c1.48,1.05,2.92,2.14,4.44,3.14,18.52,12.18,30.65,28.69,34.6,50.8.88,4.93.49,5.72-3.37,6.27-4.77.68-6-.44-6.69-5a63.4,63.4,0,0,0-2.81-11c-.43-1.23-2.22-2.83-3.3-2.77s-2.77,1.74-3.15,3a113.8,113.8,0,0,0-2.75,12.4c-.38,2.17-1.05,3.54-3.53,3.53-11.73-.05-23.46,0-35.19-.07a9.8,9.8,0,0,1-2.23-.74c3.22-8.27,1.43-15.23-3.85-21.65a6.72,6.72,0,0,1-1.05-4.85c4.73-26.37-1.86-50-17.23-71.45-.57-.8-1.06-1.66-1.87-2.95,1.54-.16,2.62-.37,3.7-.37,36.36,0,72.73,0,109.09-.17,4.61,0,7.6,1.45,9.89,5.63,5.64,10.27,11.71,20.31,17.59,30.45.8,1.38,1.54,2.79,2.63,4.76-2.06.19-3.6.44-5.14.45-14.08.06-28.15,0-42.23.18A7.49,7.49,0,0,1,441.86,428.43ZM457.56,488c.05,3.42-.79,5.23-4.63,5.11-4.78-.15-5.91-.72-5.95-4.87-.15-15.68-.18-31.37-.21-47.05a21.36,21.36,0,0,1,.58-3.3h14.14c11.13,0,22.27.19,33.41-.06,3.86-.08,6.42.86,7.92,4.57.74,1.85,2.06,3.47,3.44,5.71-1.89.12-3.26.27-4.64.28-12.46,0-24.91,0-37.37,0-5.71,0-6.73,1-6.75,6.62C457.46,466,457.41,477,457.56,488Zm61,4.88c-8.64.27-17.3.06-25.95.06v.2c-8.21,0-16.42-.09-24.62,0-3.19.06-4.55-1.08-4.53-4.31.09-10.27.08-20.53,0-30.8,0-2.56,1-3.72,3.64-3.71,13.19.07,26.39-.07,39.58.17a6.83,6.83,0,0,1,4.77,2.92c4.8,7.71,9.38,15.56,13.81,23.49C529,487.66,526.31,492.59,518.54,492.84Z"/><path d="M231.93,266.08c-18.44.08-33.77,15.83-33.73,34.67a34.14,34.14,0,0,0,34.53,34.16c20.05-.15,35.09-14.83,34.92-34.07A35.21,35.21,0,0,0,231.93,266.08Zm1.25,62.24a27.93,27.93,0,0,1-28-27.91,27.12,27.12,0,0,1,27.45-27.25,27.58,27.58,0,1,1,.58,55.16Z"/><path d="M327.45,266.07A34.79,34.79,0,0,0,293,300.54c0,19.3,15.27,34.38,34.73,34.36s34.81-15.27,34.64-34.45A34.78,34.78,0,0,0,327.45,266.07Zm.77,62.25A27.86,27.86,0,0,1,300,300.66a27.37,27.37,0,0,1,27.26-27.48c15.92-.06,28.11,11.8,28.22,27.45C355.6,315.47,343.1,328.15,328.22,328.32Z"/><path d="M84.36,464.67c1.07.54,2.58.27,3.9.27h37.79V465c12.89,0,25.78,0,38.68,0a12.46,12.46,0,0,0,4.69-.7,3.45,3.45,0,0,0,1.6-2.73c0-.9-1.13-2.54-1.76-2.54-4.9,0-4.45-3.33-4.66-6.63-1.55-24.85-24.76-41.36-47.65-34-15.23,4.91-24.62,17.67-25.83,35.63-.24,3.49-1.08,5.32-4.86,4.63a2.61,2.61,0,0,0-1.72.11,41.83,41.83,0,0,0-3.28,2.83C82.28,462.66,83.13,464.05,84.36,464.67Zm27.15-6.52c.93-3.53,1.75-6.63,2.58-9.74l1.13,0c.57,2.95,1.14,5.9,1.87,9.71Zm25.66-.08c1-3.85,1.8-7.11,2.63-10.38l1.27,0c.88,3.22,1.75,6.44,2.83,10.41Zm-39.33-3.89c1.12-17.44,14-30.4,30.33-30.4,16.75,0,30.5,14.49,29.92,31.46-.07,2.09-.7,3.16-3,3.32-6.64.48-6.75.31-8-6.4a27.76,27.76,0,0,0-3-8.15c-2.26-4-5.09-4.08-7.09,0a40.76,40.76,0,0,0-3.15,9.95c-1,4.7-1.24,4.93-8.34,4.7-3.43-.11-4.34-1.85-4.63-5a39.57,39.57,0,0,0-2.24-9.78c-1.33-3.62-4.72-3.94-6.49-.53a43.12,43.12,0,0,0-4.41,11.79c-.95,5.15-4.57,3-7.17,3.31C97.26,458.77,97.7,456.25,97.84,454.18Z"/><path d="M172,474.57c-1-.57-2.57-.19-3.89-.19l-93.62,0c-1,0-2.31-.31-3,.17a27,27,0,0,0-3.65,3.61,23.4,23.4,0,0,0,3.82,3.46c.89.51,2.29.13,3.47.14h93.18c1.32,0,2.91.37,3.88-.23,1.28-.77,2.86-2.36,2.84-3.58S173.3,475.3,172,474.57Z"/><path d="M232.08,278.66c-11.57,0-20.86,9.69-20.78,21.64a21.3,21.3,0,0,0,21.36,21.13c11.32.08,20.86-9.57,20.86-21.1A21.72,21.72,0,0,0,232.08,278.66Zm-6.32,19.81a6.76,6.76,0,0,1-6.41-7,6.47,6.47,0,0,1,12.93.16C232.21,295.54,229.35,298.56,225.76,298.47Z"/><path d="M327.19,278.94c-12-.05-21,9.08-21.05,21.14a21.18,21.18,0,0,0,42.35.46A21.24,21.24,0,0,0,327.19,278.94Zm-6.68,19.52a6.84,6.84,0,0,1-6.63-7.22,6.6,6.6,0,0,1,13.18.32C327,295.28,324,298.47,320.51,298.46Z"/></svg>