<svg id="Слой_1" data-name="Слой 1" xmlns="http://www.w3.org/2000/svg" viewBox="0 0 566.93 566.93"><defs><style>.cls-1{fill:#c9b6da;}</style></defs><path class="cls-1" d="M538.34,460.53c-.72-4.52-3-9.06-5.5-13-15.69-24.63-31.6-49.12-47.51-73.6q-72.7-111.88-145.48-223.71c-12-18.48-24.17-36.9-36.56-55.13-9.64-14.19-26.58-14.6-37.3-1.26-1.12,1.39-2.14,2.87-3.12,4.36Q191.25,207.31,119.66,316.45,75.95,383.2,32.55,450.15c-4.67,7.16-5.83,14.68-1.54,22.36,4.2,7.52,11,10.29,19.46,10.28q116.49-.09,233,0H464.6c17.88,0,35.77.12,53.66-.07C530.85,482.54,540.23,472.4,538.34,460.53Z"/><path d="M283.47,482.75q-116.51,0-233,0C42,482.8,35.21,480,31,472.51c-4.29-7.68-3.13-15.2,1.54-22.36q43.55-66.87,87.11-133.7Q191.17,207.25,262.87,98.2c1-1.49,2-3,3.12-4.36,10.72-13.34,27.66-12.93,37.3,1.26,12.39,18.23,24.52,36.65,36.56,55.13Q412.66,262,485.33,373.94c15.91,24.48,31.82,49,47.51,73.6,2.5,3.93,4.78,8.47,5.5,13,1.89,11.87-7.49,22-20.08,22.14-17.89.19-35.78.06-53.66.07H283.47ZM163.08,468.52c7,0,13.11,0,19.19,0,6.62,0,6.43.72,7.26-6.3,1.6-13.54,14.51-22.62,27-19,3.06.89,5.79,4,8.69,4s5.82-2.55,8.73-4a2.05,2.05,0,0,1,.43-.09c12.93-3.11,25.36,5.95,27.15,19.76.73,5.62.73,5.56,6.19,5.59,9.68.05,19.37.11,29.05.32,3.58.07,4.51-1.54,4.55-4.9a21.48,21.48,0,0,1,32-18.51c2.68,1.51,4.62,1.61,7.34.1,13.31-7.38,29-.2,32.38,14.72.59,2.56.79,5.21,1.18,7.86h25.5c-.2-1-.28-1.58-.44-2.14Q383,408.93,366.51,351.85a45.25,45.25,0,0,0-5.37-11.72C354.47,329.75,344.22,326,332.39,326q-51.19-.11-102.39,0a41.5,41.5,0,0,0-7.55.69c-15.55,3-23.3,13.45-27.31,27.94-9.06,32.71-18.4,65.34-27.62,98C166.11,457.6,164.73,462.59,163.08,468.52Zm-9.5-177.24c11.37,0,21.65,0,31.93,0,3,0,3.75-1.51,3.93-4.17.84-12.85,8.66-23.34,20.72-26.73,4.27-1.2,9.06-.73,13.6-.54.89,0,2.51,2.4,2.32,3.42s-2.09,2-3.41,2.61c-.68.32-1.73-.21-2.62-.27-12.2-.92-23.75,9.29-24.34,21.25-.16,3.37.95,4.46,4.28,4.39,8.64-.17,17.3-.21,25.94,0a9.65,9.65,0,0,0,8.71-4c11.89-14.65,29.8-15.89,44.06-3.38,1,.85,2,1.58,3.11,2.44,1.28-1.21,2.23-2.13,3.22-3,11.63-10.55,30-11,40.33.7,5.69,6.44,11.43,7.68,18.91,7.21,5.2-.33,10.44-.07,15.66-.07h9.71a7.44,7.44,0,0,0,.23-1.79c-2.27-10.44-12.37-23.74-28.1-21.45-2.21.32-4.86.77-5.29-2.42s2.16-3.7,4.65-4a27.34,27.34,0,0,1,16.51,2.58,33.34,33.34,0,0,1,18.05,22.66c.91,3.66,2.53,4.7,6.15,4.55,7.15-.3,14.31-.1,21.47-.11H414c-9-13.89-17.45-27-26.17-40-.88-1.31-3.53-2-5.38-2-14.46-.16-28.92-.09-43.38-.1q-76.49,0-153-.09c-3.75,0-6,1.17-7.94,4.37-3.35,5.63-7.1,11-10.67,16.52Zm182.47,20c1,.19,1.68.37,2.4.46,21.89,2.73,35.65,15.06,42.2,35.82,1.62,5.1,3.14,10.25,4.34,15.46.84,3.64,2.43,5.21,6.4,5.06,7.73-.31,15.5.1,23.23-.21a11.91,11.91,0,0,0,6.74-2.53c7.77-6.5,15.18-13.42,22.89-20,2.54-2.16,2.35-3.86.67-6.42-7.13-10.81-14.18-21.68-21-32.67-2-3.16-4.3-4.36-8-4.33-24,.15-48,.11-71.95.12C335.45,302.08,335.45,302.07,336.05,311.31ZM161.7,368c3.58,0,7.16-.13,10.73,0,2.93.14,4.29-1,4.9-3.9.94-4.36,2.28-8.63,3.43-12.95,5.93-22.23,19.68-36,42.9-39.2,4.35-.61,4.18-3.48,4.29-6.47.12-3.57-2.39-3.53-4.9-3.53-24,0-48,.07-72,0-3.16,0-5.3,1-7,3.68q-10.89,17.18-22.09,34.16c-1.73,2.62-1.16,4.19,1,6,5,4.24,10.22,8.32,14.71,13.06C144.31,366,151.59,370.48,161.7,368Zm26.86-129.73c11.25,0,21.39-.18,31.51.09,4.41.11,6.62-1.22,8-5.65,4.4-13.74,16.46-22,30.14-21.27,11.95.64,23.09,9.54,27,22.14,1.14,3.71,2.82,4.87,6.61,4.74,8.79-.29,17.59-.19,26.38,0A5.67,5.67,0,0,0,323.9,235c5.44-9.77,11.05-19.43,16.56-29.15a29.57,29.57,0,0,0,1.3-3.23H324.39c-35.78,0-71.57,0-107.35-.1-3.91,0-6.41,1.24-8.31,4.64-2.18,3.89-4.82,7.53-7.26,11.27Zm48-73.1c4.75,0,8.6-.24,12.4.06s6-1.2,7.69-4.58c6.47-12.75,13.16-25.38,19.79-38.05.62-1.19,1.1-2.61,2.07-3.39a2.9,2.9,0,0,1,5.06,2.39c0,1.23-.88,2.48-1.49,3.66q-9.36,17.79-18.74,35.57c-.64,1.22-1.17,2.5-1.81,3.86H331.6c-1.08-1.76-1.82-3-2.62-4.25q-12.47-19.08-25-38.14c-4.33-6.6-8.53-13.3-13.12-19.71-4.29-6-8.92-5.93-13.33,0-2.5,3.33-4.65,6.92-6.93,10.41C259.48,130,248.34,147.11,236.57,165.17ZM407.74,441.56c2.31,8.05,4.56,15.25,6.4,22.55.84,3.37,2.48,4.55,5.89,4.54,32-.12,64,0,96-.26a10.32,10.32,0,0,0,6.86-2.86c2.35-2.54.7-5.55-1-8.15-2.63-4-5.4-7.86-7.74-12-1.7-3-3.85-3.9-7.23-3.89-31.27.12-62.53.07-93.8.07Zm-252.88.49a21.75,21.75,0,0,0-3-.46c-31,0-62-.07-93,.12-1.81,0-4.12,1.54-5.3,3.06-2.9,3.76-5.29,7.92-7.86,11.93-1.7,2.64-3.69,5.22-2,8.63s5.06,3.17,8.18,3.17h53.67c12.52,0,25-.1,37.56.1,3.5,0,5-1.16,5.83-4.52,1.46-6.08,3.39-12,5.09-18.06C154.35,444.79,154.55,443.51,154.86,442.05Zm280.45-11.4a5.93,5.93,0,0,0,0-1.77q-10.68-23.81-21.47-47.56c-.48-1.05-1.83-2.39-2.81-2.42-6.92-.2-13.85-.11-20.59-.11a5.28,5.28,0,0,0-.27,1.09c4.6,16.14,9.17,32.28,13.89,48.38a3.91,3.91,0,0,0,2.8,2.29C416.3,430.72,425.77,430.65,435.31,430.65Zm-305.1.08c8.3,0,16-.19,23.67.08,3.55.12,5-1.26,5.85-4.52,4-14.49,8.15-28.93,12.23-43.39.33-1.19.43-2.45.71-4.15-5.17,0-9.79.27-14.36-.08-3.79-.29-5.62,1.26-7.08,4.57-6.37,14.43-13,28.76-19.45,43.14C131.25,427.55,130.9,428.79,130.21,430.73Zm89.24-239.45a6,6,0,0,0,1.65.58c18.93,0,37.86,0,56.79.08,2.36,0,3.14-1,3.12-3.23,0-4.47-.08-9,.15-13.41.14-2.93-.9-3.94-3.83-3.92-14,.12-28,0-42,.19a6.18,6.18,0,0,0-4.36,2.24C227,179.41,223.38,185.23,219.45,191.28Zm130,.39c-4.28-6.5-8-12.41-12-18.08a6.16,6.16,0,0,0-4.38-2.2c-14-.16-28,0-42-.12-2.75,0-3.7,1-3.59,3.66a115.66,115.66,0,0,1,0,12.49c-.24,3.63,1.15,4.59,4.6,4.57,17.86-.13,35.73,0,53.59-.05C346.73,191.94,347.74,191.8,349.48,191.67Zm30.3,46.56c-7.41-11.36-14.21-21.82-21-32.26-3.32-5.05-8.53-4.9-11.55.32q-8,13.94-16,27.9a39.2,39.2,0,0,0-1.62,3.71c1.34.16,2.06.32,2.78.32Zm-263,152c-8.68,0-16.21.12-23.74-.07a6.32,6.32,0,0,0-6.17,3.31c-7.15,11.15-14.48,22.18-21.73,33.27-.7,1.07-1.28,2.22-2.22,3.88,6.35,0,12.11.12,17.86-.1a5.86,5.86,0,0,0,3.65-2.07C95,416.16,105.45,403.74,116.82,390.27Zm334.35.07c11.08,13.49,21.33,26,31.65,38.46a4.66,4.66,0,0,0,2.94,1.71c6,.16,12,.08,18.76.08-8.62-13.35-16.72-25.95-24.93-38.48a4.13,4.13,0,0,0-2.86-1.7C468.6,390.28,460.47,390.34,451.17,390.34Zm-21.16.29c5.77,13,11.29,25.46,17,37.89a4.14,4.14,0,0,0,3,2.08c8.42.17,16.84.1,25.3.1-.07-.74,0-1.09-.14-1.27-9.26-11.45-18.44-23-27.86-34.3C443,389.93,437.15,388.86,430,390.63ZM239.47,310.69c1.08.08,2.25.24,3.42.24,10.86,0,21.73.08,32.6-.14.92,0,2.49-1.92,2.6-3.06,1-9.89-7-20-16.82-21.59C247.79,283.93,235.12,298,239.47,310.69Zm65.48.25c5.2,0,10.41-.17,15.6.06,3.36.15,4.44-1.2,4.45-4.38.06-11.11-9.43-20.84-20.28-20.61s-19.83,10.25-19.23,21.54c.12,2.38.85,3.49,3.42,3.43C294.25,310.84,299.6,310.94,305,310.94Zm-214,119.77c8.6,0,16.21.18,23.8-.14a6.59,6.59,0,0,0,4.76-3c5.44-11.26,10.6-22.66,15.67-34.09a3.69,3.69,0,0,0-1.1-3.42c-2.69-1.38-10.05.81-12.1,3.25q-14.08,16.79-28.15,33.59C93,427.88,92.25,428.94,90.92,430.71Zm380.47-51.08c-2.73-4.22-5.29-7.39-7-11-3-6.35-7.59-7.76-14.43-8.11-10.16-.53-18.22,1.93-24.84,9.62-1.5,1.75-3.17,2.92-2,5.62,1.07,2.5,2.63,3.85,5.37,3.85ZM279.33,237.74A24.12,24.12,0,0,0,257.55,218c-10.17-.67-20.36,6.54-23.53,16.4-1.07,3.34.33,3.89,3.16,3.87,12.79-.06,25.58,0,38.37-.06A34.19,34.19,0,0,0,279.33,237.74Zm-183,141.8h20.38c6.71,0,13.42-.05,20.13,0,2.83,0,4.73-.83,5.84-3.71s0-4.41-2.05-6.08c-2.66-2.15-5-4.71-7.73-6.76a9.91,9.91,0,0,0-5.14-2.09c-5.5-.26-11-.16-16.54,0-1.22,0-3,.41-3.54,1.26C103.91,367.62,100.39,373.25,96.33,379.54ZM340.79,466c.46.41,1.59,2.26,2.82,2.34a159.31,159.31,0,0,0,16.5,0,3.81,3.81,0,0,0,2.66-2.55c.69-6.18-5.06-12.39-11.31-12.55C345.39,453.16,340.88,457.94,340.79,466Zm-7.41,2.47c.12-1.76.25-2.78.26-3.8.05-6.77-4.16-11.39-10.33-11.38S312,459,312.13,465.4c0,1.94.49,3.14,2.69,3.12C320.87,468.49,326.93,468.51,333.38,468.51Zm-111.75,0c.12-1.76.26-2.78.26-3.81-.06-6.7-4.38-11.33-10.55-11.34-5.76,0-11.24,5.72-11.26,11.72,0,2,.42,3.48,2.93,3.45C209.08,468.47,215.16,468.52,221.63,468.52Zm17.84,0v0a60.69,60.69,0,0,0,8.43-.13c1.18-.16,2.94-1.56,3.11-2.61.84-5.12-4.69-11.62-10.07-12.29-5.89-.73-10.6,3-11.59,9.14-.78,4.87,0,5.81,4.78,5.87ZM443.2,354.33h11.86L450.58,348Zm-326.68-5.95-3.94,5.92h10.78Z"/><path class="cls-1" d="M460.09,133.38c-5.66,4.82-11,9.33-16.91,14.37l25.45,4.05Z"/><path class="cls-1" d="M442.08,154c-2.35-.41-3.45.31-3.57,2.57-.11,2-1.59,4.71,2,5.29,8.51,1.38,17,2.69,25.57,4,.3,0,.72.13.87,0,1.79-1.76,3.53-3.56,5.29-5.34-1.54-.81-3-2-4.61-2.33C459.13,156.66,450.58,155.46,442.08,154Z"/><path class="cls-1" d="M438.44,169.29,448,182l13.56-10.76-21.85-3.38Z"/><path d="M466,128.37c-2.38-4.86-5-5.45-9.13-2.11-6,4.87-12,9.76-17.8,14.89s-8.95,11.42-8.81,19.53c.41,10.89,4.28,20.3,13.83,26.8,2.65,1.8,5.54,2.74,8.27.58,8.17-6.45,16.34-12.9,24.2-19.72,4-3.44,4.71-8.09,2.34-13C474.58,146.34,470.39,137.31,466,128.37Zm-5.91,5,8.54,18.42-25.45-4.05C449.12,142.71,454.43,138.2,460.09,133.38ZM448,182l-9.51-12.75,1.22-1.39,21.85,3.38Zm19-16.19c-.15.15-.57,0-.87,0-8.53-1.35-17.06-2.66-25.57-4-3.59-.58-2.11-3.26-2-5.29.12-2.26,1.22-3,3.57-2.57,8.5,1.49,17.05,2.69,25.55,4.21,1.62.29,3.07,1.52,4.61,2.33C470.48,162.29,468.74,164.09,467,165.85Z"/><path class="cls-1" d="M120.51,180.91a2.65,2.65,0,0,0,2.4.24A20.7,20.7,0,0,0,131.85,169L109,171.71C113.37,175.24,116.89,178.14,120.51,180.91Z"/><path class="cls-1" d="M127.61,147.71l-16-13.66-8.13,17.65L127,148.8Z"/><path class="cls-1" d="M128.88,155.11c-8.83,1.13-17.7,2-26.53,3.2-1.12.15-2.92,1.22-3,2a5.73,5.73,0,0,0,1.37,4.28c1.16,1.08,3.11,1.3,3.87,1.59,9.14-1.1,17.25-2,25.36-3.07,2.24-.29,3.52-1.56,3-4C132.49,156.91,132.18,154.68,128.88,155.11Z"/><path d="M131.8,141.11c-5.52-4.76-11.17-9.37-16.88-13.9-4.43-3.52-6.56-3.11-9.07,1.86-4.35,8.62-8.62,17.29-12.69,26.05-3.28,7-2.31,11.56,3.72,16.63,6.71,5.64,13.71,10.95,20.56,16.43,3,2.38,5.84,2.31,9,.2,9.31-6.27,14.34-14.83,14.35-24.87C140.57,154,138.2,146.63,131.8,141.11Zm-20.16-7.06,16,13.66L127,148.8l-23.49,2.9Zm11.27,47.1a2.65,2.65,0,0,1-2.4-.24c-3.62-2.77-7.14-5.67-11.53-9.2L131.85,169A20.7,20.7,0,0,1,122.91,181.15Zm7.05-18c-8.11,1-16.22,2-25.36,3.07-.76-.29-2.71-.51-3.87-1.59a5.73,5.73,0,0,1-1.37-4.28c.07-.78,1.87-1.85,3-2,8.83-1.16,17.7-2.07,26.53-3.2,3.3-.43,3.61,1.8,4.08,4C133.48,161.55,132.2,162.82,130,163.11Z"/><path d="M71.63,158.67c.14-.81,0-2.36.66-3.35s2.23-2.25,3.37-2.23,2.45,1.3,3.27,2.36c.55.71.46,2,.51,3,.82,15.15,9.17,24.94,22.3,31.3,2.59,1.26,6.15,1.79,5,6-.81,2.89-3.23,3.24-8,1.14C82.42,189.6,73,177.29,71.63,158.67Z"/><path d="M499.42,157.48c-.47,17.15-13.58,34.14-29.56,39.18-2.37.74-4.14.48-5.19-1.84s0-4,2.16-5.1c2.38-1.22,4.92-2.18,7.16-3.61,10.53-6.71,17-16,17.94-28.75.06-.89-.15-2.08.34-2.6,1.11-1.18,2.52-2.68,3.9-2.79.94-.07,2.25,1.89,3,3.17A4.61,4.61,0,0,1,499.42,157.48Z"/><path d="M417.47,143.87a20.11,20.11,0,0,1,.34-2.38c4.19-12.65,11.88-22.17,24.53-27.16,2.28-.9,4.51-.74,5.55,2,.95,2.51-.47,4-2.59,4.89-10.17,4.2-16.31,12-20.26,22-.59,1.48-2.79,2.86-4.46,3.19C419.62,146.56,418.23,144.53,417.47,143.87Z"/><path d="M127.68,114.61c1.83.67,2.85.93,3.77,1.39,10.43,5.17,17.93,13,21.68,24.15.83,2.47,1.17,4.86-1.72,6-3.24,1.3-4.51-1-5.43-3.56-3.32-9.27-9.36-16-18.45-20-2.16-.93-4.22-2.32-3.08-5C125,116.29,126.74,115.45,127.68,114.61Z"/><path d="M236.13,347.32a28.24,28.24,0,0,1,27.75,28.57c-.19,15.62-12.76,27.62-28.71,27.41-15.32-.2-27.15-12.79-26.9-28.63A27.75,27.75,0,0,1,236.13,347.32Zm-.07,45.81a18.08,18.08,0,0,0,17.59-17.78c0-9.31-8.37-17.72-17.72-17.71a17.75,17.75,0,0,0,.13,35.49Z"/><path d="M324.34,403.33a27.71,27.71,0,0,1-27.08-28.08c.32-15.75,12.9-28.17,28.3-27.91a28,28,0,0,1,27.27,28.44A27.67,27.67,0,0,1,324.34,403.33Zm-16.78-28.19a17.47,17.47,0,1,0,34.93.51,17.83,17.83,0,0,0-17.27-18A17.48,17.48,0,0,0,307.56,375.14Z"/><path d="M224.83,416.93A14.09,14.09,0,0,1,210.56,431a14.34,14.34,0,0,1-14.26-14.18,14.61,14.61,0,0,1,14.6-14.42A14.32,14.32,0,0,1,224.83,416.93Zm-14.14,5.51a5.63,5.63,0,1,0-.1-11.26,5.57,5.57,0,0,0-5.69,5.61A5.89,5.89,0,0,0,210.69,422.44Z"/><path d="M350,431a14.32,14.32,0,0,1-14.08-14.33c.11-7.68,6.8-14.36,14.3-14.28s14.16,6.94,14.08,14.51A14.26,14.26,0,0,1,350,431Zm.2-8.57a5.65,5.65,0,0,0,5.5-5.83,5.74,5.74,0,0,0-6-5.36,5.57,5.57,0,0,0-5.25,5.57A5.77,5.77,0,0,0,350.15,422.45Z"/><path d="M280.51,434.75c-10.14-.12-18.27-4.48-23.69-13.54a9.74,9.74,0,0,1-1.68-4.52,4.47,4.47,0,0,1,2.09-3.32c.77-.4,2.48.31,3.39,1s1.2,2,1.8,3a21.4,21.4,0,0,0,36.93.12c1.25-2.07,1.79-6,5.53-4,4.05,2.14,1.41,5.24,0,7.6C299.52,430.22,291.3,434.5,280.51,434.75Z"/><path d="M278.76,409.19a54.13,54.13,0,0,1-7.93-2.49c-.92-.44-1.86-2.76-1.47-3.57.55-1.11,2.61-2.48,3.59-2.2a19.57,19.57,0,0,0,16.67-2.24c.85-.53,3.44.21,4,1.12A4.37,4.37,0,0,1,293,404C289.05,407.57,284.12,408.65,278.76,409.19Z"/><path d="M299.64,142.16a7.88,7.88,0,0,1,7.8,7.62,7.71,7.71,0,0,1-7.81,7.52,7.57,7.57,0,1,1,0-15.14Zm-.21,9.76c.82-1,1.59-1.49,1.75-2.17.1-.43-.78-1.57-1.1-1.52-.71.1-1.76.63-1.9,1.18S298.82,150.78,299.43,151.92Z"/><path d="M244.66,375.14a8.72,8.72,0,1,1-17.44.34,8.89,8.89,0,0,1,8.6-9A8.66,8.66,0,0,1,244.66,375.14Z"/><path d="M333.68,375.29a8.88,8.88,0,0,1-8.8,8.8,9.14,9.14,0,0,1-8.89-8.82,8.92,8.92,0,0,1,8.89-8.76A8.77,8.77,0,0,1,333.68,375.29Z"/></svg>