<svg id="Слой_1" data-name="Слой 1" xmlns="http://www.w3.org/2000/svg" viewBox="0 0 566.93 566.93"><defs><style>.cls-1{fill:#61b66c;}</style></defs><path class="cls-1" d="M529.93,490.41q-10.26-19.56-20.48-39.14Q410.65,262,311.84,72.69c-4-7.75-7.93-15.62-12.6-23-7.51-11.89-22.56-12-30.66-.47a51.06,51.06,0,0,0-3.51,5.93q-43,82.14-86,164.3Q116.9,338.58,54.87,457.77c-6.24,12-12.69,23.84-18.83,35.85-5.53,10.81.77,22.75,12.8,24.54a53.28,53.28,0,0,0,7.79.51q55.5,0,111,0c3.65,0,6.59.65,9.57,3.24,5.73,5,12.34,5.51,19.31,2a6.76,6.76,0,0,1,5.34-.14c5.67,3,11,2.89,16.74.11a7.5,7.5,0,0,1,5.79,0c7.37,3.67,13.8,2.42,20.17-2.39a13.31,13.31,0,0,1,7.36-2.74q32.46-.32,64.93,0a11.89,11.89,0,0,1,6.93,2.6c6.12,5.1,12.52,6.27,19.55,2.4a6.11,6.11,0,0,1,6.84.1,14,14,0,0,0,15.28.17c2.59-1.54,4.64-1.37,7.24,0,6.36,3.26,12.61,2.53,18-2a14.45,14.45,0,0,1,10.12-3.37c18.42.1,36.84,0,55.27,0v0c19,0,38.07.15,57.1,0C529.84,518.47,537.64,505.11,529.93,490.41ZM195.14,351c-.44.33-.88.81-1.32,1.2.44-.39.88-.87,1.32-1.2Zm162.42-55.11a7.77,7.77,0,0,1,6.22-1.09h0A7.77,7.77,0,0,0,357.56,295.91Zm-73.47,93.33a31.09,31.09,0,0,1-3.6-.24A31.09,31.09,0,0,0,284.09,389.24Zm25.93-14h0l-.26.36ZM256.2,150.18h0l.67.91Zm63-20.09c-.07-.14-.14-.29-.2-.44-.13-.3-.25-.61-.37-.92.12.31.24.62.37.92.06.15.13.3.2.44ZM82.67,489.68l.72-.07-.72.07Zm3-.26-1.54.13ZM75.76,468c.49-.13,1-.2,1.56-.29-.53.09-1.07.16-1.56.29Z"/><path d="M456.1,518.64c-18.43,0-36.85.06-55.27,0A14.45,14.45,0,0,0,390.71,522c-5.43,4.58-11.68,5.31-18,2-2.6-1.34-4.65-1.51-7.24,0a14,14,0,0,1-15.28-.17,6.11,6.11,0,0,0-6.84-.1c-7,3.87-13.43,2.7-19.55-2.4a11.89,11.89,0,0,0-6.93-2.6q-32.46-.3-64.93,0a13.31,13.31,0,0,0-7.36,2.74c-6.37,4.81-12.8,6.06-20.17,2.39a7.5,7.5,0,0,0-5.79,0c-5.71,2.78-11.07,2.85-16.74-.11a6.76,6.76,0,0,0-5.34.14c-7,3.47-13.58,2.91-19.31-2-3-2.59-5.92-3.24-9.57-3.23q-55.5.09-111,0a53.28,53.28,0,0,1-7.79-.51c-12-1.79-18.33-13.73-12.8-24.54,6.14-12,12.59-23.88,18.83-35.85Q117,338.63,179.06,219.46q42.9-82.21,86-164.3a51.06,51.06,0,0,1,3.51-5.93c8.1-11.49,23.15-11.42,30.66.47,4.67,7.37,8.56,15.24,12.6,23Q410.68,262,509.45,451.27q10.21,19.59,20.48,39.14c7.71,14.7-.09,28.06-16.73,28.23-19,.19-38.07,0-57.1,0Zm-309.57-207c6.08,0,11.13-.09,16.17,0,6,.13,6.06.2,5.54-5.63-1.87-21.25,4.85-39,21.62-52.54,17.12-13.87,42-14.46,58.4-1.25,1.11.89,1.6,2.56,2.38,3.86-1.44-.15-3.09.1-4.29-.51a44.29,44.29,0,0,0-28.61-4.46c-25.56,4.54-42.59,28.38-39.18,54.46,3.3,25.15,25.94,42.47,52.18,39.71a13.27,13.27,0,0,1,8.64,1.91c29.1,16.91,58.45,17.46,87.8.69a16.56,16.56,0,0,1,10.37-2.48c32.81,3.14,57-22.82,51.7-55.25-5.21-31.64-39.63-49-68-34.35a6.61,6.61,0,0,1-2,1,3.47,3.47,0,0,1-2.34-.59c-.27-.21-.06-1.49.31-2a11.37,11.37,0,0,1,2.36-2.17c14.93-11.57,37.41-12.73,53.21-2.41,19.72,12.87,28.9,31.12,27.2,54.72-.16,2.22,0,4.45,0,6.8h21.39c-1-2-1.67-3.54-2.43-5-12.26-23.53-24.66-47-36.71-70.65-2.76-5.39-6.48-7.63-12.37-7.53-13.35.23-26.71.22-40.07.23q-66.33.06-132.67,0c-4.92,0-8.34,1.3-10.75,6-12.46,24.3-25.17,48.47-37.78,72.7C147.92,308.17,147.48,309.44,146.53,311.67ZM460,385.59a8.23,8.23,0,0,0-.29-1.45q-16.16-30.51-32.3-61c-1.36-2.57-3.44-3.19-6.09-3.15-5.68.09-11.4.47-17,0s-8.77,1.66-11.52,6.69c-9.69,17.67-24.68,28.36-45,29a66,66,0,0,0-40.56,15.29c-14,11.38-30.52,10.83-45,.94a203.32,203.32,0,0,0-23.59-13.37c-3.28-1.65-7.28-2-11-2.6-6.33-1-12.9-.87-19-2.52-15.88-4.28-26.89-14.86-34.59-29-1.68-3.08-3.67-4.47-7.25-4.33-6.44.24-12.9.27-19.34,0-3.92-.17-6.17,1.28-8,4.74-10,19.2-20.13,38.29-30.21,57.43-.59,1.11-1,2.3-1.68,3.88,13.13,0,25.56.06,38-.07a7.69,7.69,0,0,0,3.17-1.23c-3.11-7.45-6.72-13.95-8.51-20.92-2.42-9.39-.56-18.33,7-25.33,10.05-9.32,26.17-5.45,30,7.18,2.94,9.8-4.93,20.19-14.76,19.51-4-.28-7.39-2.61-7.83-5.9-.21-1.53,0-3.7,1-4.62.79-.76,3.18-.58,4.43,0,3.18,1.57,5.48.6,7-2.06s.77-5.36-1.71-7.33c-3.48-2.75-9.26-1.94-12.44,1.8a14.64,14.64,0,0,0-3.3,11.6,31.75,31.75,0,0,0,11.32,20.95c8.06,7,17.64,11,27.8,13.76,22.48,6.05,45.46,8.77,68.66,9.69,36.88,1.45,73.66,1,110-6.91,12.48-2.71,24.79-5.93,35.66-13,7.74-5,13.32-11.79,15.47-20.94,1.3-5.58,1.13-11-3.08-15.57-3.58-3.87-9.46-4.29-12.74-.9-1.86,1.92-2.63,4.12-1.19,6.67s3.65,2.82,6.34,2.26a26.45,26.45,0,0,1,5.34,0c-.37,2.44,0,5.43-1.27,7.18-2.46,3.31-6.34,4-10.4,2.72-7.1-2.29-11.36-9.17-10.46-16.94.8-7,7.59-13.45,14.89-14.21,10.5-1.08,19.64,5.68,22.3,16.5,2.82,11.49-.79,21.45-7.26,30.77a19.74,19.74,0,0,0-1.66,3.94c1.4.45,2.79,1.28,4.19,1.29,11.36.13,22.72.1,34.08.1A16.24,16.24,0,0,0,460,385.59ZM190.79,468.45c4.41-.83,8.11-1.76,11.87-2.17,6.06-.64,6.11-.49,6.67-6.61a75,75,0,0,1,15-39.43,37.75,37.75,0,0,1,3.68-4.11c1.78-1.73,3.25-1.31,4.31.89,1.84,3.82,1.37,7.32-1.1,10.79-7.12,10-10.57,21.32-12,33.39-.44,3.57.27,5.69,4.19,6.69,7.79,2,14,6.5,19.55,12.35a19.59,19.59,0,0,0,8.84,5.15c22.13,5.8,44.36,5,66.5,0a12.59,12.59,0,0,0,6.25-4.12,41.74,41.74,0,0,1,18.66-12.95c6.14-2.11,6.17-2.2,5.27-8.82-1.56-11.59-5.25-22.35-12.09-31.93-2.1-2.92-2.91-6-1.53-9.53s2.74-3.95,5.23-1.29a63.2,63.2,0,0,1,7.34,9.38,76.05,76.05,0,0,1,11.44,35.55c.14,2,0,4.12,2.83,4.48,4.8.63,9.6,1.31,14.76,2a13.56,13.56,0,0,0,.7-2.79c.78-19.25-3.59-37.07-14.4-53.24-2.24-3.34-4.76-4-8.53-3.58-15.54,1.63-31.09,3.55-46.69,4.28-31.62,1.48-63.2.69-94.55-4.36-3.65-.59-6.06.46-8.11,3.56a87.25,87.25,0,0,0-12.33,28.57A81.46,81.46,0,0,0,190.79,468.45ZM283,170.8v.06c9.67,0,19.34-.06,29,0,3.65,0,6.35-1.07,8.52-4.25,3.72-5.44,7.76-10.68,11.89-15.83,2.2-2.74,2.54-5.09.8-8.31-14.83-27.56-29.48-55.22-44.33-82.77-1.07-2-3.41-4.76-4.91-4.62-2,.19-4.46,2.52-5.55,4.56-14.91,27.86-29.6,55.85-44.43,83.75-1.44,2.71-1.15,4.8.67,7.15,4.23,5.45,8.42,11,12.39,16.6a8,8,0,0,0,7.37,3.67C263.92,170.72,273.44,170.8,283,170.8ZM382.5,427.11a4.15,4.15,0,0,0-.24,1.25c.31,1.34.62,2.68,1,4,3.88,12.78,5.51,25.74,3.78,39.08a7.44,7.44,0,0,0,1.9,5.19c6.38,7,10.82,14.8,10.74,24.66a4.64,4.64,0,0,0,1.61,3.44c3.65,2.4,13.45-.42,15.7-4.31q19.73-34.29,39.43-68.6c.8-1.39,1.43-2.89,2.31-4.7Zm-273.9-.05c.83,1.65,1.38,2.87,2,4,9,15.52,18,31,27,46.56,3.9,6.77,7.57,13.68,11.45,20.47,3.11,5.44,7.82,8,14.17,7.39,3.31-.31,4.78-1.66,4.77-5.24a31.08,31.08,0,0,1,9.35-22.33,9.52,9.52,0,0,0,2.85-8.23,93.57,93.57,0,0,1,4.53-39.46,17.75,17.75,0,0,0,.43-3.17Zm35.57,77.4a17.9,17.9,0,0,0-.65-1.84c-13.05-22.38-26-44.86-39.22-67.11-5.41-9.07-17-8.82-22.12.41-7.18,12.84-14,25.91-20.62,39-.83,1.62-.48,4.58.48,6.24,4,6.9,8.5,13.49,12.67,20.29,1.47,2.39,3.36,3.18,6.09,3.15,11.35-.1,22.71,0,34.06-.05a31.71,31.71,0,0,0,3.74-.51c-2.53-4.2-4.62-7.95-7-11.51-1.9-2.85-1.34-4.69,1.57-6.3,1.94-1.07,3.71-2.47,6.13-4.11L90.52,455.94c-4,4.08-7.33,7.67-10.91,11-.87.81-2.54.76-3.85,1.1.22-1.32,0-3.05.72-3.9,3.66-4.14,7.6-8,11.4-12,1.71-1.81,3.39-1.84,5.19-.21l30.73,27.76c2.12,1.92,1.88,3.51-.35,5.24-2.43,1.88-6.31,3.84-6.56,6.1-.29,2.59,2.7,5.56,4.27,8.36a21.49,21.49,0,0,0,1.88,3.15c.66.78,1.62,1.83,2.47,1.85C131.56,504.53,137.63,504.46,144.17,504.46Zm303.34.14c14.44,0,27.6.07,40.75-.12,1.33,0,3.08-1.39,3.88-2.62,4.5-6.95,8.91-14,13-21.16a7.23,7.23,0,0,0,.32-5.89c-6.65-12.95-13.38-25.88-20.56-38.55-5.49-9.7-15.47-9.81-21.87-.67-.61.88-1.17,1.8-1.71,2.73q-18,31-36,62.07c-.64,1.1-1.12,2.29-2,4.08,6.09,0,11.43.15,16.75-.11,1.25-.06,2.69-1.27,3.59-2.33a30.9,30.9,0,0,0,2.77-4.75c4.06-7.11,4.11-7.16-2.19-12.08-2.28-1.78-2.94-3.41-.56-5.56,10.36-9.35,20.67-18.77,31.16-28a4.34,4.34,0,0,1,4.22.06c4.21,4,8.17,8.32,12,12.7.66.76.34,2.38.48,3.6-1.19-.24-2.74-.08-3.5-.78-2.61-2.37-4.95-5-7.38-7.59-3.31-3.5-4-3.55-7.47-.4q-10.38,9.45-20.73,18.93c-1.2,1.1-2.25,2.37-3.76,4,1.69,1.33,2.91,2.42,4.24,3.34,4.3,3,4.31,2.95,1.5,7.57C452.32,496.56,450.23,500.07,447.51,504.6ZM226.88,219.94H342.57c-1.81-3.18-3.51-5.72-4.75-8.47-2.54-5.63-6.89-7.86-12.87-7.73-6.29.13-12.58.08-18.87.08q-31.53,0-63.07,0c-3.35,0-6.59.27-8.56,3.36C231.92,211.13,229.63,215.26,226.88,219.94Zm-1.3,280.76h.17c0,2.3-.15,4.61,0,6.9.26,3.22,2,5.5,5.22,6.21s6-.17,7.65-2.92a15.6,15.6,0,0,0,2.15-6.85c.59-10.79-6.57-21.39-17.08-25.44a40,40,0,0,0-30.51.57c-7.21,3-12.28,8.29-14.07,15.95a32.83,32.83,0,0,0-.41,11.36,9.14,9.14,0,0,0,9.54,7.62c4.29-.41,5.8-2.67,5.91-8.72.07-3.83-.13-7.72.5-11.46.24-1.45,2.38-3.5,3.76-3.58s3.27,1.68,4.24,3.11c.75,1.12.54,3,.58,4.48.09,3.37-.41,6.85.28,10.09.43,2.05,2.22,4.62,4,5.34a8,8,0,0,0,6.67-1.09c1.51-1.16,2.2-3.93,2.43-6.08.43-3.95.13-8,.36-12,.15-2.64,1.68-4.26,4.5-4.15,2.61.11,3.85,1.73,4,4.17C225.67,496.39,225.58,498.55,225.58,500.7Zm148.25.56H374c0,2.14-.16,4.31,0,6.44.52,5.69,6.25,8.6,10.63,5a13,13,0,0,0,4.45-7.56c1.31-10.36-2.49-19.12-11.58-24.21-12.85-7.2-26.22-7-38.84.93-8.41,5.31-13.18,17-11.2,25.56,1,4.3,4.48,6.95,8.67,6.59,4-.34,6-2.8,6.14-7.7.11-3.53,0-7.06.06-10.59.06-2.75.56-5.44,4-5.68,3.71-.26,4.63,2.52,4.87,5.42.28,3.51.22,7,.34,10.57.18,5.4,2.44,8.08,6.72,8s6.55-2.77,6.71-8.16c.1-3.68,0-7.36.12-11,.06-2.8,1.2-4.85,4.29-4.89s4.18,2.18,4.36,4.86C374,497,373.83,499.11,373.83,501.26ZM239.67,197.31h90.06c-2.7-4.82-4.91-9-7.38-13.06a10.71,10.71,0,0,0-9.64-5.28q-28.33,0-56.65,0c-3.61,0-6.72,1.33-8.62,4.44C244.82,187.71,242.51,192.2,239.67,197.31ZM441.26,394.7a24.15,24.15,0,0,0-3.83-.75c-10.11,0-20.23-.08-30.34.1-2.07,0-4.15.9-6.17,1.58-8.1,2.73-16.18,5.55-24.28,8.3-1.93.65-3.92,1.16-6.13,1.8,2.19,3.74,3.79,7.1,6,10,1.14,1.48,3.37,2.95,5.13,3q20.69.41,41.38.09c1.84,0,4.43-1.13,5.37-2.58C432.8,409.42,436.75,402.34,441.26,394.7ZM196.79,406.07a22.89,22.89,0,0,0-2.23-1c-9.66-3.33-19.33-6.69-29-9.94a19.35,19.35,0,0,0-5.78-1.16c-9.34-.12-18.69-.08-28,0a41.78,41.78,0,0,0-4.83.69c4.82,8.06,9.09,15.43,13.66,22.61.6.95,2.68,1.32,4.09,1.33q20.91.11,41.82-.08a5.33,5.33,0,0,0,3.83-1.67C192.64,413.42,194.59,409.78,196.79,406.07ZM240.47,179c-7.52,0-14.21.13-20.89-.07-3.22-.09-5,1.12-6.43,4-5.71,11.19-11.65,22.26-17.48,33.39-.6,1.13-1,2.37-1.69,4.06,7.12,0,13.56-.19,20,.08,3.32.14,5-1.29,6.43-4,5.87-10.93,11.9-21.78,17.85-32.67C238.93,182.43,239.48,181.07,240.47,179Zm133.89,41.37c-6.91-13.27-13.07-25.54-19.68-37.56-2.15-3.9-6.12-5.2-10.76-4.29a52.16,52.16,0,0,1-8.22.47c-2,.07-4,0-6.06,0,0,1.19-.11,1.55,0,1.78,6.87,12.46,13.71,24.93,20.73,37.29a5.11,5.11,0,0,0,3.67,2.19C360.45,220.44,366.86,220.32,374.36,220.32ZM91.26,418.06h40.92c-2.71-4.7-5-8.67-7.29-12.6a46,46,0,0,0-3.25-5c-5.77-7.38-15.18-7.49-20.55.21C97.45,405.88,94.77,411.76,91.26,418.06Zm385.12.27c-3.65-6.57-6.5-12.51-10.08-18-4.21-6.41-13.48-7.39-18.26-1.52-4.65,5.71-8.05,12.43-12.51,19.5ZM251.74,504.79c1.69.08,3.34.21,5,.22h56.61c1.9,0,3.68.05,3.93-2.64.33-3.61.92-7.19,1.46-11.21l-23,3.52c.05,2.61.52,4.9-.11,6.84-.23.69-3.56,1.23-4.76.56-3.2-1.77-2-4.51-.17-7.07H280.43c-.53,2.65-.63,5.06-1.62,7-.31.62-3.44.71-4.45-.06-2.82-2.14-1-4.72.4-6.91l-25.35-3.76C250.19,495.84,250.93,500.15,251.74,504.79ZM509.8,482.32l-13.91,21.83c7.33,0,13.57.14,19.8-.06,3.2-.1,4.43-2.07,3-5C516.07,493.67,513.06,488.4,509.8,482.32Zm-452.59.3c-3.14,6-6,11.2-8.64,16.55-1.57,3.2-.78,4.84,2.68,5,6.39.27,12.8.07,20.13.07ZM348.57,170.5l-10.84-20c-5.11,6.86-9.76,13.09-14.89,20Zm-104.29,0L229.9,151.13c-3.62,6.78-6.83,12.77-10.34,19.33Z"/><path d="M339.41,261.73c20-.07,37,16.88,37.09,36.94s-16.19,36.67-36,36.83c-20.2.17-37.14-16.56-37.16-36.68C303.36,278.18,319.28,261.8,339.41,261.73Zm-15.55,50.94c5.53,6.59,17.79,7.52,26.39,3.06s14.86-14.15,13.53-20.91c-4.65-.8-7.29.95-9.51,5.38-4.11,8.21-11.65,11.85-20.64,12.44C330.32,312.86,327,312.67,323.86,312.67Zm10.34-32.13a9,9,0,0,0-8.73-9.37c-5.06-.07-9.68,4.69-9.56,9.84a9.1,9.1,0,0,0,9.47,8.68C330.59,289.62,334.18,285.9,334.2,280.54Zm18.31-7.46c-.09,7.33,3.7,11.29,9.05,10.77,4.06-.4,6.06-3.66,3.89-7.08a23.78,23.78,0,0,0-6-6.09c-1.26-.92-3.63-1.48-4.91-.9S352.79,272.57,352.51,273.08Z"/><path d="M192,298.65a36.92,36.92,0,0,1,36.83-36.9c20,0,36.21,16.68,36.16,37a37,37,0,0,1-37.08,36.71C208.62,335.57,191.93,318.45,192,298.65Zm62-4.89c-4-.66-6.79-.57-8.62,3.2-5.82,12.05-13.9,16.56-27.33,15.65l-4.55-.34c8.17,7.11,17.05,7.82,26.19,3.36C248.51,311.35,253.41,304.23,254,293.76Zm-30.5-13.1a9.17,9.17,0,0,0-9.17-9.43,9.55,9.55,0,0,0-9.08,9.24,9,9,0,0,0,9.3,9.25A8.81,8.81,0,0,0,223.53,280.66ZM240,272.75c-.19,6.62,3.41,10.81,8.23,10.8,3.27,0,6-2.31,6.05-5.07,0-3.57-6.45-10-10.22-10C240.54,268.55,240.05,271.13,240,272.75Z"/><path d="M283.59,319.53c4.29,0,8.58,0,12.87,0,3.44,0,4.84,1.83,4.85,5.24,0,9.13-8.51,17.37-18,17.22-9.05-.14-17.64-8.86-17.33-17.58.12-3,1.42-4.93,4.74-4.91,4.29,0,8.59,0,12.88,0Zm12.78,5.28H270.86c.56,7.27,5.89,12.38,12.55,12.45C290.31,337.33,295.84,332.19,296.37,324.81Z"/><path d="M366.26,368.42l12.42,11.4c4.12-4.16,7.84-8,11.66-11.73,1.21-1.18,2.6-3.46,4.37-1.13.56.74-.15,3.18-1,4.17-3.9,4.32-8.09,8.38-12.14,12.57-1.85,1.91-3.6,1.95-5.55.11-5-4.72-10.13-9.37-15.18-14.07-2-1.88-1.62-3.34.27-5.36A44.07,44.07,0,0,0,368,355c3.15-6,8-7.54,13.51-3.47a29.53,29.53,0,0,1,5.27,5.09c.55.67.11,2.14.13,3.25-1.08-.1-2.4.15-3.18-.39-1.61-1.12-2.83-2.81-4.41-4-3.32-2.53-5.87-1.51-7.46,2.28C370.42,361.12,368.45,364.27,366.26,368.42Z"/><path d="M309.37,376.17C297.22,394,271,393.29,258.59,376l-.07.08c1.33.69,2.73,1.28,4,2.09q22.62,14.55,44.52-1.24a22.35,22.35,0,0,1,2-1.15Z"/><path d="M191.07,348.22a3.68,3.68,0,0,1,1.8.33,16.77,16.77,0,0,1,2.27,2.47c-.88.66-1.76,1.89-2.63,1.9-4.26,0-6.43,2.06-7.39,6.09-.27,1.14-1.73,2-2.64,3-.51-1.17-1.42-2.33-1.47-3.52A10.09,10.09,0,0,1,191.07,348.22Z"/><path d="M442.59,380.5h-7.68c1.16-2.59,2-4.53,2.88-6.46l1.19-.21Z"/><path d="M135.19,380.58h-7.64l3-6.31,1.2-.08C132.77,376,133.74,377.86,135.19,380.58Z"/><path d="M258.59,376l-.31-.12.24.2Z"/><path d="M310.23,375.18l-.08-.08Z"/><path d="M309,375.79l1.25-.61-.08-.08-.78,1.07Z"/><path d="M333.45,443.85c-.16,6.68-3,12-7,16.73-21.13,24.77-63.26,25-84.55.37-4.23-4.88-7.49-10.26-7.72-17.25,11.51,18.69,27.95,28.58,49.89,28.59Q316.7,472.29,333.45,443.85Z"/><path d="M358.94,424.55c6,7.08,9.05,15.36,10.27,24.34a60.35,60.35,0,0,1,.53,9.59c0,.83-1.44,1.63-2.21,2.44-.77-.78-2.15-1.51-2.23-2.35C364.32,447,363.2,435.54,358.94,424.55Z"/><path d="M209.27,423.78c-1.78,7.06-3.77,14.08-5.28,21.2-.88,4.18-.87,8.54-1.53,12.78-.17,1.11-1.34,2.08-2.05,3.11-.82-.9-2.37-1.81-2.36-2.7C198.21,445.54,201.32,433.79,209.27,423.78Z"/><path d="M304.76,144.84c-2.25-1.87-3.58-2.86-4.78-4-4-3.8-5-4.13-9.4-.75s-8.65,4.17-13.24.35c-3.4-2.83-6.63-2.56-9.61.88-1,1.11-2.31,1.87-4.28,3.41a73.9,73.9,0,0,1-2.76-7.11c-1.17-4.22-3.48-6.65-8.16-6.44-1,0-2.09-.77-3.15-1.19.52-1,.8-2.31,1.6-3,10.14-8.41,20.38-16.7,30.53-25.08,1.86-1.54,3.42-1.58,5.29-.06,10.22,8.31,20.51,16.53,30.69,24.89.89.73,1.17,2.2,1.74,3.33a14.8,14.8,0,0,1-3.26,1c-5.22.34-6.93,1.62-8.59,6.62C306.67,139.82,305.85,141.88,304.76,144.84ZM307.68,125c-6.67-5.41-13.87-11.37-21.26-17.08a4.5,4.5,0,0,0-4.26-.1c-7.38,5.73-14.56,11.71-21.43,17.32l5.1,9.49c5.25-4.05,6.11-4.22,9.5-2,7.9,5.24,9.22,5.29,16.8.07,2.63-1.81,5-2.07,7.5.13a26.56,26.56,0,0,0,2.44,1.74Z"/><path d="M305.75,157.64l3.06-6.67c3.08,1.43,4.81,3.9,4,6.34-.36,1.11-4.16,1.12-6.39,1.63Z"/><path d="M277.94,163.65l3.48-8.1,5.44,8.1Z"/><path d="M251.09,156.72c2.16-2.77,3.63-4.66,5.11-6.54l4.82,6.54Z"/><path d="M395.68,459.27l3.69-5.31q2.2,2.67,4.43,5.32l-.83.94h-6Z"/><path d="M168,452.45l2.85,6.76h-8l3.2-6.95Z"/><path d="M89.47,489.08l-6.8.6a44.06,44.06,0,0,1,2.44-5,49.18,49.18,0,0,1,4.18-4.74c1.95,3.76,3.59,6.85,5.11,10a1.67,1.67,0,0,1-.65,1.51,2.44,2.44,0,0,1-2,0A17.45,17.45,0,0,1,89.47,489.08Z"/><path d="M472.49,489.7a61.93,61.93,0,0,1,4.22-7.64c.4-.56,3-.34,3.8.39a19.6,19.6,0,0,1,3.67,5.17c.34.62-.07,1.66-.14,2.51-.83-.08-1.93.14-2.45-.3-2.33-2-4-1.54-5.62.91a2.73,2.73,0,0,1-2.23.77C473.3,491.46,473,490.44,472.49,489.7Z"/><path d="M311.88,499.61c-1.47.95-3,2.76-4.37,2.62a5.46,5.46,0,0,1-3.71-3.46c-.55-2.49,1.43-4.2,3.87-3.77,1.54.27,2.84,1.93,4.24,3Z"/><path d="M267.69,499c-2.69,1.65-4.1,3.11-5.7,3.38-2.31.38-3.72-1.22-3.66-3.64.06-2.59,1.58-4.29,4.08-3.76C264,495.33,265.21,497.05,267.69,499Z"/></svg>