<svg id="Слой_1" data-name="Слой 1" xmlns="http://www.w3.org/2000/svg" viewBox="0 0 566.93 566.93"><path d="M283.23,510.82H96.7c-12.88,0-17.94-7.86-12.06-19.38,11.2-22,22.7-43.77,34.1-65.62Q149,368,179.22,310.15a8.84,8.84,0,0,0,.46-7.9,55.09,55.09,0,0,1-2.2-33.73,9.06,9.06,0,0,0-1.81-8.39c-3.87-5.09-6.46-10.73-6.77-17.28a26.14,26.14,0,0,1,3.67-15.16q49-81.3,97.95-162.59c5.84-9.66,15.65-11.79,23.2-5.34a24.2,24.2,0,0,1,4.72,5.82Q332.18,121.25,365.79,177c9.47,15.73,18.48,31.75,28.25,47.3,7.87,12.53,7,24.26-1.5,35.74a9.73,9.73,0,0,0-1.91,9,53.87,53.87,0,0,1-2.54,33.68,9,9,0,0,0,.54,8.46q44.69,85.64,89.21,171.33c1.8,3.46,3.62,6.92,5.24,10.45,4.52,9.83-.61,17.9-11.44,17.91q-42.47.07-84.95,0H283.23Zm-20.46-20.38,0-.05c9.78,11.31,9.78,11.31,24.33,11.41a22.4,22.4,0,0,0,3.38-.06,4.09,4.09,0,0,0,2.36-.89c3-3.16,5.85-6.43,9.26-10.21-4.15.21-7.47.58-10.8.52C281.81,491,272.29,490.69,262.77,490.44Zm96-41.58a23.76,23.76,0,0,0-2.52.62c-8.83,3.18-17,1.95-24.59-3.52-.69-.5-1.43-.92-3.07-2,.51,9.05,1,17.32,1.44,25.39,5.94-.93,11.22-1.73,16.48-2.6a2.52,2.52,0,0,0,1.58-.9c3.57-5.67,7.09-11.38,10.61-17.09l.14-.22Zm18.09,44.49,6.65-5.28.62.7-11,12.43c6.4,1.43,10.8,0,15.06-4.5,11.34-11.95,23.23-23.39,34.93-35a28.17,28.17,0,0,1,3.13-2.36l.61.79-37.93,41.69a39,39,0,0,1,5,0c6.28.94,10.82-1.47,15.22-6,11.53-11.95,23.57-23.4,35.43-35a29.62,29.62,0,0,1,2.37-1.92l.79.84L409,501.78c4.76,0,8.37-.14,12,.05a8.54,8.54,0,0,0,7.23-3.18c9.25-10.12,18.63-20.13,28-30.16,1.41-1.51,3-3.08,1.56-5.25-1.66-2.53-1.84-6.4-6.39-6.38-27.43.1-54.86.05-82.29.13a4.52,4.52,0,0,0-3.27,1.26c-2,2.82-3.73,5.88-5.71,9.12,12.19,4.7,18.38,12.94,16.85,26ZM289.71,353a32.49,32.49,0,0,0,4.12,0c12.3-1.7,24.77-2.72,36.86-5.43,10.72-2.41,21-6.68,31.49-10.21,2.21-.75,4.21-1.93,3.78-4.85-1.09-7.45,1.37-13.91,5.69-19.76,8.94-12.08,11.91-25.5,9.64-40.29-3.62-23.62-28-41.33-51.62-37.65A67.76,67.76,0,0,0,288.77,257c-4.21,4.63-5.31,4.59-9.56-.08a67.86,67.86,0,0,0-36.9-21.39c-23.93-5.07-47.9,8.66-54.5,31.24-8.63,29.55,9,58,39.29,63.39a29.82,29.82,0,0,1,3.92,1.27l-.36,1.6c-10.12,2-19.47-1-28.58-5.53-1.91,8.32-1.54,9.08,5.81,12.15a184.91,184.91,0,0,0,53.64,13.06c3.27.31,6.6,0,10,0-.92-3.66-1.87-6.91-2.52-10.22-.56-2.92,1.39-5.31,3.83-4.49,1.44.48,2.79,2.28,3.43,3.81,1.05,2.52,1.36,5.34,2.28,7.93a3.44,3.44,0,0,0,2.26,2.1c.72,0,1.87-1.2,2.19-2.1a59.39,59.39,0,0,0,2.2-8c.49-2.42,1.52-4.16,4.2-3.73,2.94.47,3.37,2.74,2.82,5.2C291.53,346.29,290.66,349.31,289.71,353ZM250.5,226.07c-1.24-7.31-2.54-15-3.84-22.74l.89-.22c.37,1,.81,2,1.1,3,1.89,6.38,3.58,12.84,5.72,19.14a8.2,8.2,0,0,0,3.83,4.53A80.31,80.31,0,0,1,282,245.43a16.14,16.14,0,0,0,2,1.42,7,7,0,0,0,1.16-.69A80.83,80.83,0,0,1,313,228.36c1.43-.54,2.76-2.52,3.28-4.11,1.91-5.85,3.45-11.83,5.16-17.74.35-1.22.82-2.41,1.24-3.61l.92.26c-1.09,7.48-2.19,15-3.22,22h26.72c-4.87-9.5-9.6-18.72-14.32-27.95l.92-.51c1.09,1.49,2.25,2.94,3.26,4.48,4.68,7.16,9.12,14.49,14.07,21.46a19.35,19.35,0,0,0,7.22,6.17A56,56,0,0,1,381.5,248c1.18,1.73,2.39,3.42,3.65,5.22,5.62-6.95,6.13-15,1.56-22.85-7-11.94-14.13-23.79-21-35.77-1.73-3-3.89-4.12-7.31-4.11q-73.07.12-146.12-.06c-5.18,0-8.12,1.49-10.65,6.08-6.56,11.88-13.8,23.4-20.6,35.15-4.23,7.31-3.14,16.45,2.3,21.09a55.84,55.84,0,0,1,28.88-24.87c1.47-.57,2.72-2.18,3.64-3.6,5.4-8.34,10.66-16.77,16-25.16.71-1.1,1.53-2.13,2.3-3.19l.9.51c-4.68,9.48-9.36,19-13.76,27.9ZM284.15,455c1.18-1.58,1.86-2.64,2.69-3.58q7.74-8.76,15.57-17.46,8.71-9.66,17.53-19.24c1.81-2,4-3.14,6.75-2s2.87,3.48,2.92,6a53,53,0,0,0,.57,8.26,17.46,17.46,0,0,0,17.33,14.39A16.73,16.73,0,0,0,364,426.63c1.93-13.25-1.9-25.36-7.65-37.06-1-2.05-2.33-1.58-4.05-1.15-10.73,2.65-21.51,5-32.2,7.82a14.32,14.32,0,0,0-6.56,3.91c-8.75,9.54-17.25,19.33-25.85,29-3.8,4.28-4.36,4.27-8.14.07-8.92-9.9-17.81-19.85-26.84-29.66a10.59,10.59,0,0,0-4.95-3q-16.64-4.06-33.38-7.63c-1.08-.23-3.11.51-3.55,1.38-5.5,11-8.66,22.56-7.42,34.93.94,9.36,7.95,15.9,16.55,16.08,9,.18,16.18-6,17.59-15.37.39-2.59-.14-5.34.35-7.89.37-1.89,1.33-4.62,2.71-5.12,1.66-.62,4.16.45,6.06,1.32,1.28.58,2.19,2,3.2,3.15q10.68,11.7,21.34,23.44C275.28,445.32,279.34,449.75,284.15,455ZM209.42,183.57H358.89c-.86-1.6-1.41-2.69-2-3.74-3.79-6.37-7.72-12.66-11.35-19.13-1.42-2.53-3.08-3.43-6-3.41-18.11.13-36.22.07-54.33.06-18.73,0-37.47-.06-56.2.05-1.68,0-4.13.61-4.88,1.78C219.13,167,214.5,175.05,209.42,183.57ZM248,424c0,2.69,0,4.53,0,6.37-.25,14.06-.42,28.12-.84,42.18-.09,3.11,1.23,4.27,3.93,4.86a150.17,150.17,0,0,0,65.47.14c3.15-.69,3.79-2,3.68-5.11-.5-13.05-.65-26.12-.91-39.18-.05-2.81,0-5.62,0-9.33-11.14,12.37-21.55,24-32,35.5-3.1,3.42-3.67,3.42-6.81,0-8.16-8.91-16.26-17.86-24.4-26.78C253.6,429.89,251,427.21,248,424Zm15.1-273.73h38.45l-6.24-13.3-6.11-13.11.8-.46c.76,1.06,1.6,2.08,2.28,3.2,3.83,6.2,7.9,12.27,11.32,18.69,2.25,4.23,5.07,6.27,9.77,5.28,2-.41,4.53-.49,5.74-1.75a107.9,107.9,0,0,0,9.35-11.8,4.59,4.59,0,0,0,.33-4c-5.22-9-10.48-18-16.08-26.82a9.3,9.3,0,0,0-15.15-.52c-3.52,4.42-6.9,9-10.36,13.43C279.3,129.29,271.39,139.51,263.09,150.24ZM160.87,501.69,126.59,463.6l.8-.82c1.24,1.12,2.52,2.19,3.71,3.35q17,16.65,34,33.29c.87.85,1.94,2.06,3,2.11,4.68.22,9.37.1,14.35.1a8.42,8.42,0,0,0-.72-1.55c-11.94-13.79-23.86-27.6-35.91-41.29A6.51,6.51,0,0,0,141.5,457c-8.3-.28-16.6-.28-24.9-.45a5.73,5.73,0,0,0-5.91,3.76,28.55,28.55,0,0,1-1.76,3.75c-1.19,1.92-.88,3.37.62,5,9.07,10.11,18,20.33,27.11,30.43a6.17,6.17,0,0,0,3.74,2.09C146.92,501.81,153.44,501.69,160.87,501.69ZM377.28,379.81l.67-.76c1.09.95,2.24,1.83,3.25,2.85,4.87,4.91,9.61,10,14.63,14.71a8.7,8.7,0,0,0,5.22,2.17c6.53.25,13.08.11,19.62.08.91,0,1.82-.23,3.16-.4-8.18-15.81-16.14-31.2-24.15-46.57-.37-.7-1.19-1.65-1.81-1.66-6.3-.12-12.61-.07-19.59-.07,1.16,1.32,1.74,2,2.3,2.63,5.64,6.81,5.84,14.37-.37,20.69-3.35,3.41-7.86,5.69-11.88,8.42-1.07.73-2.28,1.28-3.28,1.83,1.93,4.62,3.6,8.82,5.46,12.93.39.88,1.43,2.06,2.21,2.08,6.2.17,12.41.1,19.51.1ZM174.15,398.88c7.4,0,13.69.11,20-.11,1.08,0,2.5-1.36,3.06-2.44,1.39-2.66,2.05-5.72,3.58-8.28,1.78-3,1-4.11-1.88-5.67-4.36-2.37-8.91-4.89-12.31-8.39-6.59-6.8-6-15.36.54-22.21.38-.39.68-.87,1.37-1.75-5.38,0-10.15.22-14.89-.08-3.57-.22-5.5,1.24-7.07,4.29-7.06,13.76-14.29,27.43-21.45,41.14-.5,1-.9,2-1.56,3.46,5.09,0,9.75-.41,14.31.09,7.7.83,13.63-1.52,18.59-7.55,2.75-3.35,6.53-5.84,9.85-8.72l.78.84Zm198.93-39.71c-3.3,2.27-5.94,5-9.15,6.13-16.51,5.71-33.29,10.44-50.68,12.86-37.48,5.22-73.93,1.56-109.34-12-4-1.52-7.65-3.31-9.28-7.67-3.35,3.19-3.66,5.83-.71,8.78a19.9,19.9,0,0,0,6.08,4.33c8.2,3.47,16.32,7.4,24.85,9.75,31.37,8.67,63.24,9.62,95.3,4.4,16.44-2.67,32.47-6.83,47.24-14.83a21.33,21.33,0,0,0,5.84-4.63C375.59,363.61,375.17,361.28,373.08,359.17Zm-80.3-256.9c-11.37,0-21.67-.1-31.95.12a6,6,0,0,0-4,2.66c-5.58,8.81-10.9,17.77-16.41,26.62-1.34,2.16-1.19,3.83.43,5.76,2.82,3.36,5.43,6.91,8.18,10.34,3.49,4.37,5.64,4.32,9.11-.2q9.75-12.72,19.46-25.45Zm-107.09,348c-12.55-14.52-24.39-28.22-36.26-41.89a9.36,9.36,0,0,0-2.65-2.07c-3.86-2-7-1-9,2.85-1.93,3.67-3.73,7.42-5.87,11-1.33,2.22-1.1,3.73.58,5.65,6,6.81,11.8,13.74,17.62,20.68a11.85,11.85,0,0,0,10.71,4.32c4-.31,8-.41,12.05-.49S180.84,450.31,185.69,450.31Zm196.27,0c10.7,0,20.35.05,30-.08a5,5,0,0,0,3.05-1.81c6.67-7.52,13.21-15.15,19.89-22.67,1.51-1.7,1.51-3.15.44-5-2-3.5-3.7-7.13-5.58-10.69-3.05-5.76-7.15-6.31-11.52-1.47-3.54,3.92-6.94,8-10.4,11.94ZM195.29,501.4c-3.69-6.59-6.77-13-3.5-20.29,3.1-6.95,9.63-10.23,15.86-13.86a69,69,0,0,1-4.1-6.76c-1.31-2.82-3.29-3.67-6.29-3.63-9.94.14-19.88.05-29.82.08-.95,0-1.9.15-2.84.23l-.74,1a31.43,31.43,0,0,1,3,2c4.45,3.7,8.93,7.37,13.22,11.25.88.78,1,2.38,1.5,3.6-1.28-.33-2.93-.27-3.79-1.07-4.42-4.1-9.12-8.06-12.82-12.77-4.71-6-10.53-4-16.63-4.13a7.45,7.45,0,0,0,.68,1.51q18.76,20.17,37.58,40.31A8.1,8.1,0,0,0,195.29,501.4ZM155.51,406c.06.5,0,.81.13,1q17.84,20.74,35.74,41.44c1.64,1.89,3.86,2.65,6.79,1.23C192.7,435.46,191.9,421,194.49,406Zm214,43.9c3.32.91,5.35.09,7.22-2.08,11.24-13,22.58-26,33.87-39,.7-.8,1.25-1.72,2-2.82H373.1C376.38,421.22,374.83,435.65,369.55,449.86ZM286.29,74.61l1,.68c-3.59,6.52-7.19,13-11,19.88H306c-5.89-9.4-11.25-18.33-17-27-2.66-4-6.53-4-9.27.12-5.85,8.74-11.25,17.77-16.91,26.81,5.34,1.34,9,.37,11.87-4.37C278.08,85.1,282.37,80,286.29,74.61ZM209.74,448.74l-1.08,1.19c3.44,5.14,6.86,10.31,10.37,15.41a3.65,3.65,0,0,0,2.17,1.34c5.26,1,10.53,1.79,16.51,2.78V444.64C229.2,451.4,219.94,453.19,209.74,448.74Zm50.12-50.14c8.12,9.08,15.8,17.65,23.77,26.55l23.69-26.83c-6.07-.87-10.57.44-13.84,5.42-1.84,2.8-4.37,5.16-6.64,7.68-3,3.36-3.62,3.36-6.76-.08-2.53-2.78-5.34-5.4-7.43-8.5C269.56,398.25,265.4,397.72,259.86,398.6Zm19.57-35.19v-.09c-2.38,0-4.77,0-7.16,0s-4.77-.27-7.15-.24c-.9,0-2.23.21-2.64.82-2.33,3.46.74,9.91,4.91,10.1,7.15.33,14.31.52,21.46.37,5.67-.12,7.1-2.12,7.11-7.8,0-2.53-.95-3.27-3.34-3.19C288.23,363.5,283.83,363.41,279.43,363.41Zm180.75,106L430.75,500.9c2.77.82,5.13.65,7.46.87a8.37,8.37,0,0,0,7.8-3.35c4.63-5.46,9.65-10.59,14.46-15.9S465.2,475.51,460.18,469.44Zm-354.94,2.38c-1.42,2.61-2.4,4.77-3.71,6.71-1.52,2.27-1.31,4,.57,6,4.69,4.91,9.21,10,13.86,14.94.83.87,2,2,3,2,3.93.24,7.87.09,12.85.09Zm11.19-22h29.74l-18.58-21.34C123.74,435.86,120.21,442.62,116.43,449.85Zm334.26.16-11.25-21.4-18.56,21.63h27.31C448.8,450.23,449.42,450.13,450.69,450ZM345.9,489.86c0-6.09-4.34-11.09-9.56-11-5.07.06-9.24,4.77-9.25,10.46,0,6.36,4,10.9,9.55,10.84C342,500.08,345.91,495.76,345.9,489.86ZM302.2,363.33a34.34,34.34,0,0,0-.22,4.76c.28,3.1,2.49,5.28,5.54,4.88,6.83-.9,13.64-2,20.38-3.37,3.65-.75,6.24-6.75,4.63-10.07a2.77,2.77,0,0,0-2.37-1.06C321,360,311.9,361.62,302.2,363.33ZM240.36,490c.26-5.8-3.79-10.79-9-11.07s-9.54,4.17-9.89,10.19,3.62,10.79,8.94,11S240.1,496,240.36,490ZM256.18,366.3c.11-2.15,0-3.87-2.86-4.34-7.67-1.25-15.31-2.72-22.93-4.24-2.29-.45-2.9.44-3,2.49a8.37,8.37,0,0,0,6.75,9.14c5,1.2,10.06,2.2,15.14,3C254,373.05,256,371.15,256.18,366.3Zm138.94-23-13.69-25.95c-5.53,4.4-6.84,11.88-3.26,17.31,1.49,2.25,1.32,4.23-.55,6.09-.76.76-1.63,1.43-2.93,2.55Zm-203.43,0c-2.69-2.47-6.18-4.71-3.32-7.8,3.27-3.54,2.68-7.35,2.44-11.24a9.53,9.53,0,0,0-4.59-7.84c-4.64,9-9.17,17.71-13.92,26.88Zm173.93,4.26c-8.57,2.89-16.73,5.58-24.83,8.44-2,.7-2.61,4.77-1.57,7.78.92,2.69,3,2.36,5,1.78,6-1.81,11.93-3.77,17.88-5.71a4.63,4.63,0,0,0,3.56-4.71ZM466,479.54l-18.36,22.24c5.93,0,10.7.06,15.46,0,2.21,0,9.27-7.53,9.21-9.63a2.66,2.66,0,0,0-.38-1.06C470,487.41,468.14,483.75,466,479.54ZM201.4,348.19c-.1,1.58-.2,2.56-.21,3.54-.11,6.36.48,7.24,6.32,9.42,2.93,1.1,5.86,2.21,8.8,3.28,1.95.72,4,1.39,5-1.3,1.29-3.34.67-7.19-1.5-8.05C213.91,352.75,207.92,350.61,201.4,348.19Zm67.72,153.24c-6-5.82-9.18-13.87-18.33-13.08l-4,13.08Zm29.91.05h21.42c-1.19-4.37-2.35-8.65-3.59-13.18C307.77,487.76,304.64,495.57,299,501.48Zm-83.17-24c-3.29-.29-6.09-.64-8.31,1.94-3.94,4.56-4.08,14.94-.14,19.41,2,2.3,4.42,3.45,7.76,2C210,492.77,211.7,485.18,215.86,477.45Zm136.41,23.77c5.92,0,7.91-1.34,9.41-5.91a18.88,18.88,0,0,0-.54-13.22c-1.71-4.28-4.57-5.61-9.47-4.25C356.66,485.33,356.75,493.07,352.27,501.22Zm-253.83-17c-.75,4.2-5.66,6.38-2.11,11,4.62,6,9.23,8,15.62,5.82Zm131-334.11h14.28L235.62,140C233.47,143.52,231.6,146.56,229.44,150.09Zm96,0h13.83l-6.09-9.91ZM289.79,399.34H277l6.61,7.38ZM93.11,496.83,92,497c0,1.25-.51,3.05.11,3.61.93.84,2.65.8,4,1.13l.29-.93ZM470.84,502c4.5-.85,4.74-1.16,3.88-4.52Z"/><path d="M333.73,318.24C315,318.21,299,302.48,299,284.08c.05-19.4,15.29-35.19,34-35.22,19.21,0,35.54,15.56,35.47,33.87C368.37,302.24,352.71,318.26,333.73,318.24Zm28.15-34.63a28.32,28.32,0,1,0-28.16,28.46A28.41,28.41,0,0,0,361.88,283.61Z"/><path d="M199.83,283.42c0-19.07,15.71-34.87,34.51-34.73,19,.14,34.63,15.95,34.49,34.83s-15.86,34.66-34.7,34.7S199.82,302.67,199.83,283.42ZM234,312.1c15.62.12,28.56-13,28.65-28.93C262.74,268,250,255.25,234.49,255a28.51,28.51,0,0,0-28.56,28.09C205.92,299.08,218.4,312,234,312.1Z"/><path d="M283.55,329.74c-3.16-.94-6.18-1.43-8.81-2.71a8.87,8.87,0,0,1-5.35-8.41,9.16,9.16,0,0,1,5.45-8.38,17.81,17.81,0,0,1,18,.42c6.74,4,6.74,12.24-.11,16.09C290,328.29,286.63,328.77,283.55,329.74Zm0-6.91a31.58,31.58,0,0,0,5.33-1.49c2.67-1.26,2.71-3.7,0-5a12.87,12.87,0,0,0-5.37-1.23c-3-.07-6.32.05-7.56,3.47C275.29,320.5,279.31,322.55,283.56,322.83Z"/><path d="M365,211.48c2.31,3,4.68,6,6.89,9.09.35.49,0,1.52-.11,2.29-.86-.2-2.2-.12-2.5-.65-1.88-3.29-3.53-6.71-5.26-10.1Z"/><path d="M205.5,212.33c-1.43,3.13-2.75,6.31-4.35,9.35-.36.67-1.73.8-2.64,1.18-.1-.87-.62-2-.25-2.58,2-3,4.17-5.77,6.29-8.63Z"/><path d="M277.68,215.59c.72.52.89.6.88.65-.41,2.08-.84,4.16-1.27,6.24a6.71,6.71,0,0,1-1.23-.52C276.53,219.9,277.08,217.86,277.68,215.59Z"/><path d="M295.1,214.88q1.09,3.59,2.2,7.17l-1.83.51-1.68-7.39Z"/><path d="M241.46,170h85.36c-5,2.93-76.16,3.45-85.32,1Z"/><path d="M404.82,463.63c.07-.36.13.31-.18.68-3.77,4.68-7.53,9.36-11.45,13.9-.62.71-2,.74-3.06,1.09.27-1.05.19-2.46.86-3.09C395.67,471.79,400.5,467.53,404.82,463.63Z"/><path d="M398.58,463.63c-3.77,3.52-7.52,7.07-11.36,10.51-.35.33-1.79.17-1.89-.1-.27-.66-.37-1.92,0-2.22,4.08-3.14,8.26-6.15,12.42-9.19Z"/><path d="M390.36,367.63c4.62,4.93,9.29,9.8,13.79,14.83.56.63.19,2.09.26,3.17-1-.2-2.41-.06-2.87-.66-4.13-5.45-8.08-11-12.09-16.57Z"/><path d="M177.72,368.1a12.64,12.64,0,0,1-1.09,2.1c-3.54,4.54-7,9.12-10.75,13.52-.77.9-2.39,1.09-3.61,1.61.28-1.25.16-2.86.91-3.69,4.4-4.87,9-9.56,13.54-14.31Z"/><path d="M333.34,301a19.7,19.7,0,0,1-20-19.34c-.07-10.63,8.87-19.48,19.82-19.6,11.29-.14,20.29,8.45,20.31,19.37S344.73,301,333.34,301Zm-6.7-20.24-.06-1.4c-1.31-.8-2.74-2.35-3.9-2.17s-2.12,2.06-3.16,3.2c1.14,1,2.25,2.78,3.45,2.85S325.41,281.69,326.64,280.79Z"/><path d="M234.7,262.08c11.28,0,20.09,8.66,20,19.64S245.9,301.09,234.42,301c-10.87-.06-19.68-8.67-19.65-19.21A19.56,19.56,0,0,1,234.7,262.08Zm-6,18.63c-2.08-1.74-3.06-3.19-4.29-3.44-2-.41-3.93.8-3.64,3.05a4.33,4.33,0,0,0,2.92,2.95C225,283.4,226.34,282,228.73,280.71Z"/></svg>