<svg id="Слой_1" data-name="Слой 1" xmlns="http://www.w3.org/2000/svg" viewBox="0 0 566.93 566.93"><path d="M90.23,410.08c7.23-12.91,14-24.94,21.08-37.68H70.84l7-9.72h-49c1.25-2.59,2-4.47,3-6.23,5.52-9.79,13.35-16.39,24.67-18.85a14.56,14.56,0,0,0,7.88-5.37c12.75-17.58,29.44-24,50.62-19.08a6.15,6.15,0,0,0,5-1.64,81.42,81.42,0,0,1,37.83-24.33,9.47,9.47,0,0,0,4.86-4.11q51.72-90.66,103.24-181.44,8.13-14.3,16.32-28.55c3.34-5.82,4.64-5.81,8.05.17q35.51,62.3,71,124.61,23.72,41.65,47.32,83.37a11.82,11.82,0,0,0,7.73,6.14,74.39,74.39,0,0,1,37.85,24.08c1.8,2.1,3.46,3.11,6.44,2.26,20.91-6,40.11,1.26,51.85,19.54a9.5,9.5,0,0,0,6.77,4.58c13.41,2.76,21,12.19,27,24.55H497.68l6.91,9.89H460.14l18.51,34.07c1.6-3.07,2.87-5.6,4.21-8.1,6-11.16,19.23-11.59,25.56-.48,4.24,7.44,7.56,15.4,11.15,23.18q14.13,30.56,28.12,61.17c4.41,9.64,2.54,12.53-7.86,12.53-32.38,0-64.83,1.37-97.11-.44-24.39-1.37-48.71-.79-73.05-1.5a88.78,88.78,0,0,0-10.7.11c-2.12.2-4.17,1.26-6.25,1.92-3.46,1.1-6.88,2.93-10.39,3.13-8.43.46-16.91.33-25.36,0a16,16,0,0,1-8.17-2.32,15.59,15.59,0,0,0-9.62-2.66c-11.49.11-23-.08-34.49.11-2.19,0-4.37,1.31-6.56,2-3.09,1-6.14,2.68-9.27,2.83-8.57.4-17.19.45-25.76,0-3.37-.17-6.67-2-10-3.09-2.08-.68-4.15-1.92-6.24-1.93-23.65-.14-47.43-1.63-70.93.25-36,2.89-72,.46-108,1.47-11.68.32-13.28-2.45-8.3-13.13Q37.81,442.51,56,403.6a39.13,39.13,0,0,1,4.76-8.18c6.73-8.25,17.74-7.34,23,1.86C86.05,401.13,87.83,405.24,90.23,410.08Zm199.32-1.39c5.69-.32,13.61-.59,21.5-1.26,15.7-1.34,31.22-3.75,46-9.4,27.21-10.39,40.6-37.38,32.48-65.12-8.36-28.53-37.06-44.46-64.17-35.45-12.11,4-22.06,11.7-31.83,19.65-2.75,2.24-4.19,4.17-1.46,7.44a6.71,6.71,0,0,1,1,4.13c-.07,3.95-2,6.89-5.79,8.12a8.42,8.42,0,0,1-9.67-2.72c-2.67-3.24-2.58-6.83-.59-10.35,1-1.73,2.55-3.13,0-4.91-8.56-5.91-16.71-12.5-25.65-17.74a45.1,45.1,0,0,0-30.58-5.73c-30.24,5-50.21,36.11-42.46,66.25,5.36,20.86,19.86,32.62,39.65,38.8C240.57,407.44,263.9,408.53,289.55,408.69ZM372.09,267l1.68.77a27.69,27.69,0,0,1-1.31,3.75c-3.15,6.1-6.31,12.19-9.61,18.2-1.16,2.11-.88,3.29,1.32,4.33,9.15,4.35,16.4,10.91,22.46,19a7.17,7.17,0,0,0,4.9,2.46c7.26.25,14.53,0,21.79.09a11.19,11.19,0,0,1,3.29,1.1c-1.12.45-2.23,1.28-3.36,1.3-7.47.11-14.94.06-22.41.06l-.72,1.39c1.34,1,2.67,2.76,4,2.77,9.89.13,19.79-.1,29.68-.25.16,0,.3-.37.55-.7-10.4-18.47-20.74-37-31.38-55.43-.93-1.59-3.82-2.81-5.84-2.88-8.45-.28-16.91,0-25.37,0q-87.39,0-174.8-.18c-4.41,0-7,1.52-9.09,5.37-9.18,16.64-18.63,33.14-28,49.69-.68,1.21-1.26,2.47-2.22,4.38,9.51,0,18.31.12,27.09-.14,1.21,0,2.36-1.94,3.54-3l-.67-1.41H157.58l-.08-1.32a17.38,17.38,0,0,1,3.35-.7c4.76-.09,9.53-.26,14.27,0a8.35,8.35,0,0,0,8-3.86c7.13-9.75,16.32-16.81,28-20.37a20.82,20.82,0,0,0,2.63-1.21c-3.27-8-8.49-14.89-11.19-22.88l1.6-.85c4.09,7.43,8.17,14.87,12.56,22.86,3.61-6.54,6.73-12.33,10-18,.58-1,1.88-1.61,2.84-2.4a13.24,13.24,0,0,1-.73,3.44c-2.84,5.44-5.8,10.82-8.94,16.62a25.91,25.91,0,0,0,2.93.14c9.71-.94,18.9,1,27.81,4.77,11.36,4.78,21.07,12.06,30,20.35,2.95,2.74,4.64,2.49,7.45-.1a139.07,139.07,0,0,1,14.19-11.4c13.65-9.62,28.46-15.61,45.62-13.32,3.08.41,6.13,1,9.81,1.62-3.28-6.15-6.31-11.69-9.18-17.32-.42-.82-.12-2-.15-3,.81.62,1.91,1.08,2.37,1.9,3.07,5.44,6,11,9.26,17C364.26,281.66,368.17,274.33,372.09,267ZM220.41,211.33l-.07-1.6a47.59,47.59,0,0,1,4.74-.49q51.51,0,103,0c4.86,0,10.75,1.48,14.32-.73s5.05-8.29,7.67-12.53c1.4-2.26,1.1-4-.18-6.18-3-5-5.87-10-8.59-15.15a6,6,0,0,0-6-3.49q-49.33.1-98.67,0c-2.83,0-4.27,1.17-5.55,3.47-7.36,13.12-14.84,26.17-22.27,39.26-.56,1-1,2-1.72,3.51H365.6l-12.43-21.92c-2.4,4.63-4.57,8.52-6.45,12.55-1.3,2.75-3.17,3.84-6.21,3.83q-58.24-.12-116.5-.1A31.49,31.49,0,0,1,220.41,211.33Zm139,275.25a15.51,15.51,0,0,0,2.73.58c21.79.09,43.59.22,65.39.07,1.58,0,3.76-1.78,4.6-3.31,1.83-3.33,3-7,4.41-10.58,2-4.84,4.46-6.7,9.68-6.39,2.83.17,4-1.11,5.05-3.35,5.43-11.45,10.95-22.86,16.43-34.28.95-2,1.87-3.94,2.89-6.13H430.45c1.33,3.4,2.47,6.29,3.61,9.18l-1.42.59a29.84,29.84,0,0,1-2.85-4.93c-1.47-4.15-4.24-5.32-8.52-5.29-20.87.17-41.75.05-62.62.07a46.48,46.48,0,0,0-4.89.55C362.65,444.07,363.17,465,359.46,486.58ZM253.61,225.68c1.2,1.84,1.83,2.64,2.3,3.53,4.42,8.26,9,16.46,13.16,24.84,1.82,3.67,4.13,5.15,8.31,5.13,33.43-.17,66.87-.12,100.3-.13h10.89c-.85-4.46-3.17-5.6-6.64-5.57-13.88.1-27.76,0-41.63.17-3.76,0-6.17-1.19-7.84-4.66-2.48-5.17-5.38-10.15-8.37-15.69l-9.9,17.57-1.53-.76a21.17,21.17,0,0,1,1.1-3.29c2.57-4.92,5.17-9.81,7.88-14.65A12.42,12.42,0,0,1,324,229.8a15.23,15.23,0,0,1,2.26,2.51c2.82,4.93,5.65,9.85,8.23,14.9,1.43,2.82,3.31,4,6.53,4,13.34-.14,26.69-.08,40-.11a31.78,31.78,0,0,0,3.38-.43c-4.24-7.46-8.62-14.25-12.05-21.5-2.79-5.9-6.39-7.77-13.06-7.73-49.68.33-99.37.16-149.06,0-4.19,0-6.8,1.14-8.77,5.07-3.48,7-7.57,13.6-11.39,20.4-.6,1.08-1.09,2.23-1.9,3.92,2,.1,3.46.22,4.87.22,13.74,0,27.48-.14,41.22.14,4.32.09,6.75-1.21,8.61-5.16C246,239.41,249.69,233.05,253.61,225.68Zm-48,261.68c-.22-11.69-1.31-22.43-.39-33s3.85-20.79,5.93-31.3c.29.06-.21-.12-.71-.12-17.18-.05-34.36-.11-51.53-.06a4.8,4.8,0,0,0-3.41,1.43c-2.58,3.31-4.57,7-2.57,11.31,1.92,4.18,4.15,8,10,6.53,1.74-.44,3.7,0,5.53-.15,2.64-.29,4.18.83,5.3,3.14,5.89,12.11,11.88,24.17,17.77,36.27a15.68,15.68,0,0,1,.81,3.39l-1.12.48a35.55,35.55,0,0,1-2.37-3.65c-5.43-11-10.86-22-16.18-33.08-1.21-2.5-2.67-3.92-5.7-3.89-13.22.13-26.43,0-39.64.21a6.39,6.39,0,0,0-4.59,2.69,141.48,141.48,0,0,0-6.46,12.7c-2.33,4.89-1.31,6.65,4,6.59,4.18,0,6.69,1.79,8.13,5.57,1.38,3.57,3.08,7,4.31,10.64,1.1,3.24,2.94,4.47,6.43,4.42,15.06-.19,30.13-.11,45.19-.13Zm269.18-74.95c0-1,0-1.25-.09-1.45-7.54-13.63-15-27.28-22.74-40.8-.66-1.15-2.81-2.05-4.27-2.06-16.51-.09-33-.09-49.52.19a6.31,6.31,0,0,0-4.68,3.14C386.26,388.59,373,398.89,356,404.9c-3.54,1.25-7.17,2.26-10.76,3.39,1.12,3.47,3.35,4.28,6.51,4.25,14.53-.14,29.06-.12,43.58-.1a29.45,29.45,0,0,1,4.14.58l-.09,1.59H350.08c.35,3.88,2.29,4.29,4.79,4.28,16.25,0,32.49-.05,48.74.08,2.83,0,4.24-1.13,5.43-3.55,5.91-12.09,11.95-24.11,18-36.12.38-.76,1.39-1.2,2.12-1.79,0,1,.46,2.18.07,3-5.58,11.37-11.28,22.68-16.93,34-.61,1.23-1.08,2.53-1.87,4.39,5.07,0,9.43.23,13.73-.14,1.33-.11,3-1.62,3.65-2.92a5.46,5.46,0,0,1,5.61-3.47c2.25.06,4.49.06,6.74.06Zm-317.39,6.12-22.74-46.34,1.58-.91a36,36,0,0,1,2.6,3.84q8.29,16.65,16.46,33.37c1.1,2.25,2.27,4,5.21,4,18.23-.08,36.45,0,54.68-.07a6.22,6.22,0,0,0,6.43-4.49c-1.28-.44-2.37-.86-3.48-1.18-19.63-5.66-35-16.41-43.07-35.92-1-2.46-2.8-2.75-5.07-2.75-14.92,0-29.84.06-44.77-.07a6.7,6.7,0,0,0-6.65,3.87c-7.71,13.83-15.58,27.57-23.36,41.36-2.78,4.93-2.42,5.57,3.11,5.57q27.54,0,55.08,0C154.42,418.84,155.45,418.69,157.39,418.53ZM286.2,78c-14.27,25-28.21,49.44-42.08,73.9a3.92,3.92,0,0,0-.25,3.24c1.59,2.68,3.53,5.16,5.55,8l9.05-10.85,10.64,13.3c2.05-2.68,3.76-5,5.51-7.22,2.9-3.72,3.56-3.76,6.52-.22,1.74,2.08,3.39,4.23,5.34,6.67l9.17-11.57c1.81,2.09,3,3.44,4.19,4.86s2.39,3,3.9,5l3.59-4.7c1.2-1.58,2.44-3.12,3.59-4.74,1.72-2.41,3.42-2.69,5.22-.12a46.56,46.56,0,0,0,3.94,5.44c.64.68,2.53,1.2,3.11.78,4.14-3,5-8.29,2.43-12.83q-10-17.53-20-35.08C299.26,100.72,292.89,89.63,286.2,78ZM537,357.38c-5.69-8.11-12-13.24-20.79-14.33-4-.5-6.15-2.31-8.13-5.68-14.36-24.47-47.62-27-65.88-5.22-2.05,2.45-2.53,4.42-.8,7.36,4.63,7.84,9,15.84,13.28,23.87,1.37,2.57,3.21,3.46,6,3.42,9.91-.14,19.81-.09,29.72-.14a25,25,0,0,0,3.08-.38l-6.22-7.82.8-1.08ZM82.62,366.05a5.55,5.55,0,0,0,1.35.5c9.63.08,19.26.22,28.89.08a5.23,5.23,0,0,0,3.62-2.37c5.72-9.79,11.33-19.65,16.75-29.61a4.73,4.73,0,0,0-.5-4.35c-17.9-19.26-48.29-17.09-63,4.81-3.34,5-6.59,7.74-12.76,8.48-8,1-13.77,6.23-18.53,13.32a19.52,19.52,0,0,0,2.48.42c14.38-.06,28.76-.17,43.14-.2a27.43,27.43,0,0,1,4.66.91Zm447.72,91.81c-1.91,3.35-3.06,6.58-7.53,6.47-11.22-.29-22.46-.11-33.69-.16a25.27,25.27,0,0,1-3.52-.5c0-.43,0-.86,0-1.29a35,35,0,0,1,4.63-.64c10.44-.06,20.88,0,31.32-.07a6.49,6.49,0,0,0,6.1-9.35c-1.8-4.25-3.57-8.54-5.78-12.58a5.86,5.86,0,0,0-4.21-2.65c-14.67-.19-29.33-.15-44,0-1.26,0-3.19.67-3.65,1.6-4.8,9.54-9.37,19.2-14,28.83-.08.18.12.49.25,1h23.19c-3.19-8.35-8.35-15.45-10.38-23.9a6.48,6.48,0,0,1,2.92,3c2.9,5.64,5.9,11.22,8.52,17,1.48,3.25,3.51,4.34,7.05,4.3,14.4-.19,28.8-.09,43.21-.1,1.25,0,2.51-.12,4.43-.21C533.56,464.92,532.16,461.84,530.34,457.86Zm-420,10.67a13.25,13.25,0,0,0-.52-2c-4.16-9-8.2-18-12.66-26.84-.7-1.39-3.26-2.59-5-2.62-12.14-.22-24.31.32-36.43-.26-6.72-.32-11.15,1.11-12.91,8.07-.51,2-2.07,3.72-2.65,5.71-.41,1.4-.48,4.07.16,4.37,1.52.72,3.56.54,5.37.41.72-.05,1.38-.9,2.17-1.45,2.15,7.79,2.15,7.79,10.65,7.79,7.52,0,15.05,0,22.58,0a22,22,0,0,1,3.94.79C84.47,463.66,84,464,83.55,464c-10.43.1-20.87.31-31.29.08-1.64,0-3.24-2-4.85-3.15a15.61,15.61,0,0,0-2.93-2c-2.23-.83-4.55-1.4-7.12-2.16-1.61,3.45-3.41,7.34-5.26,11.31.79.35,1.13.63,1.47.63,16,0,32,.13,47.93,0,1.28,0,3-1.53,3.72-2.79,2.25-3.71,4.09-7.68,6.23-11.46.46-.8,1.53-1.26,2.31-1.87l.85.81-7.76,15.18Zm420.12,4.82a11.36,11.36,0,0,0-2-.61q-41.17,0-82.34,0c-1,0-2.64.55-3,1.32-2.26,4.56-4.23,9.25-6.52,14.41a37.21,37.21,0,0,0,4,.48q39,0,78,0c1.33,0,3.34-.34,3.89-1.23C525.31,483.16,527.74,478.39,530.49,473.35ZM447.35,362.94a8.86,8.86,0,0,0-.42-1.69c-6.06-10.83-12.05-21.7-18.32-32.4a6.55,6.55,0,0,0-4.77-2.54c-9-.23-18-.1-26.94,0a6,6,0,0,0-1.8.37c.92,8,2.13,15.69,2.54,23.38.2,3.58,1.23,4.52,4.61,4.48,11.49-.15,23-.07,34.47,0a15.62,15.62,0,0,1,3.48.8c-.06.45-.13.9-.2,1.35-1.34.11-2.68.3-4,.3-11.36,0-22.72,0-34.08,0-5.19,0-5.5.38-5,6Zm-145.9,83.63c-6.17,1.46-12.17,4.06-18.14,4s-12.09-2.82-18.61-4.52V487.2h36.75Zm-177-84.15c.77.43,1,.65,1.21.65q22.18,0,44.38,0c2.4,0,2.89-1.75,1.88-3.13a7.88,7.88,0,0,0-4.58-2.93,26.07,26.07,0,0,0-8.68,0c-9.67,1.72-15.83-1.76-18.37-11.4a38.45,38.45,0,0,0-2.15-5.11l1.14-.69a17.49,17.49,0,0,1,2.14,2.6c1.58,2.89,3.14,5.81,4.46,8.82a4.86,4.86,0,0,0,5.2,3.28q7.92-.25,15.85,0c2.81.08,3.75-.71,4-3.75.59-7,1.82-14,2.79-21.07.13-1,.21-2,.36-3.33-5.54,0-10.67,0-15.8,0-16.18.06-11.44-2.75-19.83,11.54C133.72,345.91,129.18,354.08,124.44,362.42Zm-27,126.18c-2.74-5.18-5.08-9.87-7.71-14.38a4.46,4.46,0,0,0-3.34-1.48q-26.74-.14-53.5,0c-1.14,0-2.87.6-3.31,1.44-2.34,4.52-4.36,9.21-6.76,14.42ZM153.5,442c-3-6.18-5.51-11.7-8.48-17-.69-1.23-3-2.15-4.59-2.17-13.21-.16-26.43-.08-39.64,0-1.36,0-2.72.23-4.63.41l17.18,37L118.1,451c5.16-10,2.29-9,14.79-8.94C139.46,442.07,146,442,153.5,442Zm74.23-16.62a38.79,38.79,0,0,1,4.84,3.43c.55.53.36,1.81.51,2.75-.83,0-1.82.33-2.45,0a51,51,0,0,1-7.35-4.61c-.63-.51-.74-2.69-.19-3.46,2-2.87,7.13-3.91,10.86-2.58a11.15,11.15,0,0,1,7.26,9.95c.12,4.07-2.27,9-5.71,9.55-5.67.85-6.65,4.64-7.45,9.12-.39,2.2,0,3.26,2.41,3.24,8.31-.07,16.63,0,24.94-.15a5.55,5.55,0,0,0,3.73-1.7c1.59-1.93.4-9.25-1.58-11-7.43-6.68-12.28-14.7-13.39-24.82-.12-1.1-1-2.82-1.88-3A116,116,0,0,0,229.83,410a3.4,3.4,0,0,0-2.57,1.46c-3.18,4.83-6.22,9.75-9.27,14.67-1.11,1.8-.67,3.14,1.24,4.21,3.45,1.93,6.71,4.23,10.26,5.93a6.62,6.62,0,0,0,5.06.07c2.68-1.28,3.33-5.18,1.83-8C234.62,424.93,231.68,423.81,227.73,425.42Zm110.19,0-.22-.89a10.73,10.73,0,0,0-2.95-.26c-3.18.62-5.42,2.73-5.69,5.8-.17,1.94.7,5.13,2.05,5.76,1.8.85,4.72.26,6.77-.62,3.12-1.34,5.83-3.6,8.85-5.23,2.24-1.21,2.72-2.65,1.45-4.8-1.88-3.18-3.81-6.33-5.58-9.57-2.46-4.49-5.72-6.69-11-4.62a10.83,10.83,0,0,1-3.9.59c-3.24,0-4.62,1.49-5,4.75a33.51,33.51,0,0,1-12,22.49,11.6,11.6,0,0,0-4,11.39,3.76,3.76,0,0,0,2.6,2.48q13.47.31,27,.06c.85,0,2.51-1.83,2.36-2.42-1.08-4-.56-8.91-7-9.63-4.41-.48-7.26-5.9-6.84-10.34a11.12,11.12,0,0,1,8.92-9.87,9.49,9.49,0,0,1,10.58,5.35c-2.8,1.83-5.58,3.78-8.51,5.48-.81.47-2,.23-3.07.31.27-1.06.2-2.45.86-3.11A28.82,28.82,0,0,1,337.92,425.39ZM288.54,445c13.9-1,28.22-14.77,29.94-29.05.25-2.08-.19-3.07-2.4-2.83a18.68,18.68,0,0,1-3.15.26c-6-.42-9,1.8-10.75,8.17-2.91,10.79-12.15,16.9-21.46,15.41-8.76-1.4-14.37-7.4-16.44-15.33-1.73-6.68-5.16-8.61-11.16-8.37a7.29,7.29,0,0,1-.79-.08c-4-.35-4.45.21-3.54,4.12,2.72,11.74,9.78,19.94,20.58,25,2.54,1.2,5.24,2.06,7.58,3,.44-2.22.76-3.79,1.07-5.37l4.53,2.9,5.33-2.69C288.09,441.6,288.29,443.11,288.54,445ZM75.36,395.62c-1.46,2.86-2.72,5-3.64,7.2-1.36,3.35-3.52,5.26-7.27,4.64-2.91-.48-4.4.93-5.43,3.43s-2.34,5-3.48,7.55c-1,2.2-1.92,4.43-3,7a15.92,15.92,0,0,0,3.43.45c3.43-.41,5.57.58,6.91,4.15.57,1.51,3.13,2.93,5,3.21,11.12,1.65,13.33.56,18.49-9.57a10.21,10.21,0,0,0,.41-7.43,168.51,168.51,0,0,0-7.76-16C78.21,398.8,77,397.63,75.36,395.62ZM498,414.18l1.54-.83c1.46,2.71,3,5.36,4.36,8.14,2.27,4.79,6.08,6.11,10.92,3.53-2-4.67-4-9.38-6.15-14a5.59,5.59,0,0,0-6.41-3.54c-3.25.57-4.84-.87-6-3.64-1.12-2.56-2.64-5-4.48-8.35-1.73,2.64-3,4.28-3.93,6.07-2.11,4-4,8-6.11,12-3.2,6-1,15.27,4.78,19a7.09,7.09,0,0,0,3.67,1.18A85.22,85.22,0,0,0,500,433a4.59,4.59,0,0,0,3.81-6.7c-1.18-2.78-2.79-5.37-4.13-8.09C499.05,416.92,498.58,415.53,498,414.18ZM253.85,230.7c-3.29,6.16-6.42,11.38-8.93,16.89-2,4.41-4.7,6.67-9.75,6a66.54,66.54,0,0,0-8.71-.07q-18,0-36.07,0c-4.39,0-5.82,1.27-6.06,5.08h84.38C263.66,249.1,259,240.29,253.85,230.7Zm199.87,84.47a76.55,76.55,0,0,0-39-25.34l-.76.84,22,39.06ZM138.13,326.56l20.47-36.18c-15.69,4.35-27.4,12.66-37,24.23Zm97.1,141.74v0c5.41,0,10.82,0,16.23,0,8.44,0,8.37.06,8.11-8.37-.08-2.44-1.14-3.26-3.39-3.27q-21-.06-42-.17c-2.62,0-3.89,1.32-3.78,3.94a22.36,22.36,0,0,1,.19,3.55c-.4,3.43,1.3,4.37,4.4,4.32C221.77,468.23,228.5,468.3,235.23,468.3Zm94.94.09v-.26c7.13,0,14.27.15,21.39-.07,3.95-.12,4.35-1.43,4.22-7.61-.08-3.39-1.85-3.79-4.59-3.75-6.34.11-12.68,0-19,0-7.13,0-14.27,0-21.39.15-3.9.11-4.49,1.57-4.43,7.55,0,3.22,1.5,4.06,4.41,4C317.23,468.32,323.7,468.39,330.17,468.39ZM92,472.52c2.72,5.13,5,9.21,7.07,13.41a5,5,0,0,0,5.31,3.14c6.86-.15,13.74-.06,20.61-.12a37.86,37.86,0,0,0,3.92-.51c-2.19-5.07-4.09-9.67-6.19-14.18a3.34,3.34,0,0,0-2.41-1.66C111.27,472.48,102.21,472.52,92,472.52Zm161.28,19c5.73-4,6.19-8.91,6.29-14.21.07-3.72-1-5.07-4.89-5-11.76.24-23.52.09-35.28.08-9,0-9.76,1-7.67,9.95a13.93,13.93,0,0,0,.85,2.63c1.6,3.5,4,6,8.45,6.68,0-1.84-.34-3.36.07-4.64.92-2.89,1.53-7.36,3.47-8.13,4.49-1.79,9.7-1.75,14.62-2.43.23,0,.49.21.74.24a16,16,0,0,0,3.81.34c5.36-.77,9.06,2,9.51,7.34C253.44,486.44,253.29,488.51,253.29,491.53Zm59.92-.43c-.12-2.16-.62-3.83-.2-5.23.8-2.66,1.63-6.89,3.34-7.39,5-1.45,10.44-1.4,15.72-1.86.43,0,.89.56,1.38.72a6.31,6.31,0,0,0,2.23.49c7-.41,10.08,2.57,9.9,9.66,0,1.31,0,2.63,0,4.22,6.8-2.67,11.23-10.83,9.56-17a4,4,0,0,0-3.07-2.17c-14.12-.11-28.25,0-42.38.08a3.39,3.39,0,0,0-2.59,1.19C304.47,478.33,307.62,487.94,313.21,491.1Zm-13.62-75.57-1.12-1.31c-1.28.88-2.82,1.53-3.79,2.67-2.21,2.59-3.85,5.72-6.26,8.09-4.36,4.27-6.45,4.21-10.63-.17-2.33-2.44-4-5.54-6.16-8.14-.79-.93-2.3-1.26-3.48-1.86-.26,1.1-1,2.37-.7,3.27a31,31,0,0,0,3.5,7.46c5.69,8.1,13.6,9.57,20.73,4C296.27,426,298.41,421,299.59,415.53Zm-140.24-.62-.77,1.39c1.29.83,2.57,2.35,3.87,2.36,16.77.18,33.55.15,50.32.16,2.49,0,3.64-1.17,3.13-3.91ZM351.46,432.3c-1.65.85-2.24,1.11-2.79,1.45-8.58,5.21-8.58,5.21-6,14.88.89,3.38,9,6,11.69,3.74a2.22,2.22,0,0,0,.67-1.74C353.93,444.73,352.75,438.85,351.46,432.3Zm-136.74.25c-1.16,6.56-2.23,12.28-3.1,18a2.52,2.52,0,0,0,1.59,1.89,39.94,39.94,0,0,0,8.67.13c2.39-.31,4.73-12.73,2.71-14.11C221.8,436.58,218.8,435,214.72,432.55Zm329.61,56c-2.38-5.17-4.34-9.74-6.57-14.17-1.21-2.42-3.18-2.46-4.52-.16-2.62,4.5-5,9.17-7.72,14.33Zm-70.67-73.8c-13.59,0-27,0-40.44,0-2.37,0-3.48,1.3-3,4h40.54C473.33,418.81,474.14,417.48,473.66,414.78Zm-197.17.5-.55,1.12a69.26,69.26,0,0,0,5.41,6.05c.68.63,2.75.82,3.32.28,2.19-2.07,4-4.5,6.56-7.45Zm8.35-82c2.81-.33,4.39-2,4.25-5s-1.85-4.6-4.8-4.69a4.88,4.88,0,0,0-4.74,5.24C279.93,331.74,281.75,333.2,284.84,333.27Zm39,152.65c-1.22-1.58-2.55-4.55-3.65-4.47-4.2.3-2.87,4.12-3.25,6.77-.31,2.23.55,3.49,3,3.5C323.93,491.72,322.61,488.73,323.83,485.92Zm1.89.51c1.09,2.13,1.5,4.42,2.76,5.07,2.51,1.31,3.9-.34,3.76-4.32-.09-2.59.82-6.19-3.07-6.39C328.16,480.74,327,484.3,325.72,486.43ZM495.4,395.9c3.28,8.86,5.18,11,9.85,8.2C503.84,399.06,500.29,396,495.4,395.9ZM239.65,486.19l.95-.66c-1.21-1.67-2.72-4.9-3.58-4.73-4,.76-2.44,4.47-2.76,7.11-.23,1.86-.27,4,2.55,3.73a3.71,3.71,0,0,0,2.72-1.57C240,489,239.65,487.5,239.65,486.19Zm3.95,6.05c2.33-.7,5.23-1.07,5.28-1.67a28.59,28.59,0,0,0-.76-8.27c-.12-.57-2-1.14-3-1-.61.09-1.4,1.48-1.47,2.33C243.47,486.08,243.6,488.56,243.6,492.24Zm92.29.45c2.4-1.21,5.11-1.87,5.17-2.72.18-2.55,0-5.62-1.32-7.64-1.23-1.87-3.49-.77-3.79,1.65A84.81,84.81,0,0,0,335.89,492.69Zm-105.21-5.28.95-.61c-1.16-1.7-2.32-4.82-3.5-4.83-3.75,0-2.9,3.56-3.24,6-.29,2.09.32,3.62,2.84,3.72C231,491.81,230.8,489.6,230.68,487.41Zm252-54.53-5.32-10.12-4.83,10.12Zm-398.5,0h10l-4.5-10.4Zm421.43,0h12.49c-.33-3.17-2-4.38-4.72-4.42C510.12,428.32,506.59,427.79,505.62,432.79ZM61,433c-.16-5-3.38-4.73-6.47-4.78s-5.19,1.15-5.32,4.78ZM319.7,167.76l1.32-1.11c-2.39-3.26-4.77-6.53-7.49-10.25l-7.83,10.44,1.39,1.15,6.62-7.35ZM290.34,167h11.27l-5.8-7.87c-1.79,2.42-3.12,4.19-4.41,6C291.05,165.6,290.81,166.16,290.34,167ZM62.28,404.51c5.44,1,7.91-1.38,9.45-8.88C66.67,396.51,63.85,399.55,62.28,404.51ZM251.65,166.85,253,168.2l4.53-7c3,2.91,4.86,4.71,6.71,6.51l.78-.85L258.53,158Zm74.51.41c5.35-6.4,6-8.32,4.06-10.89C324.86,161.79,323.85,164.35,326.16,167.26Zm-78.81-.47-6.2-9.31C239.09,161.61,242.73,167,247.35,166.79Zm25.48-.14.61,1.61c3-4.67,6.08-3.75,9.27-.36l.25-1.26-5-6.42C276,162.64,274.41,164.64,272.83,166.65ZM153.66,422.56l-5.7.64,1.37,5.18h1.07ZM334.82,162.43l-1.07-.06-2.95,5.53,5.1-1Z"/><path d="M227.32,371.23a30.35,30.35,0,0,1-30.61-29.89c-.1-17.45,13.33-31.32,30.43-31.44a30.67,30.67,0,1,1,.18,61.33Zm-7.92-45.7c-4.49.11-9.37,5.22-9.25,9.68a6.8,6.8,0,0,0,6.83,6.72c4.54-.11,9.73-5.5,9.55-9.93A7,7,0,0,0,219.4,325.53Zm22.82,7.78c-.25,4.41.71,9.57-1.11,13.4s-6.46,6.4-9.83,9.5c5.38.62,11.17-4.17,13.3-11C246.22,339.85,245.06,334.75,242.22,333.31Z"/><path d="M340.45,309.9A30.67,30.67,0,1,1,310.22,341C310.13,323.59,323.43,309.94,340.45,309.9Zm-8.07,15.75c-4.42.1-9.52,5.32-9.39,9.64a7.08,7.08,0,0,0,7,6.64c4.4-.11,9.57-5.42,9.42-9.67A7,7,0,0,0,332.38,325.65Zm22.89,7.46c-.35,4.72.48,9.82-1.37,13.62s-6.38,6.39-9.55,9.33c2.6,1.07,7.15-1.11,10.31-5.47C358.82,344.84,359.1,337.54,355.27,333.11Z"/><path d="M283.74,379.05c9.9,0,19.8-.06,29.69,0,1.74,0,4.47-1.07,4.55,2,0,.58-3.06,1.65-4.76,1.77-3.81.27-7.68-.19-11.46.21-1.63.17-3.85,1.35-4.52,2.7-2.87,5.86-7.36,8.89-13.77,8.95-6.2.05-10.45-3.2-13.07-8.64a5,5,0,0,0-5.32-3.16c-4.35.14-8.72.16-13.06-.07-1.15-.06-2.24-1.2-3.36-1.85,1.13-.65,2.26-1.84,3.4-1.86C262.62,379,273.18,379.05,283.74,379.05Zm-8.95,4.05c2.11,5,5.56,7.16,10,6.5,3.72-.55,6.47-2.34,7.8-6.5Z"/><path d="M283.76,298.43c-4.47-5.29-14.5-25.22-13.1-28.19q3.21,5.83,6.42,11.67c2.14,3.9,4.26,7.82,6.65,12.21l12.66-22.26C297.77,274.78,287.68,294.33,283.76,298.43Z"/><path d="M257.84,177.71c2,1.19,4,2.32,6,3.57,5.11,3.27,10.32,6.41,15.23,10,3.22,2.33,5.87,2.58,9.31.36,5.08-3.3,10.47-6.11,15.78-9a15.21,15.21,0,0,1,3.14-.92l.43.94a7.4,7.4,0,0,1-1.45,1.5C299.52,188,292.82,192,286,195.63a5.48,5.48,0,0,1-4.62,0c-7.64-4.69-15.13-9.63-22.62-14.55a10.67,10.67,0,0,1-2-2.25Z"/><path d="M404.3,463.86c5.92-11.75,11.47-22.79,17-33.83l2,1-19,38.66-9.51-18.62-17.77,35.08c-1-4,14.5-35.95,18.25-39.25Z"/><path d="M282.63,454.3c1.77,1.59,2.49,2.17,3.12,2.82,7.67,8,6.12,4.67-.34,12.47-.33.39-1.08,1-1.22.89a50.13,50.13,0,0,1-7.21-5.42c-.66-.66-.39-3,.28-4.09A66.8,66.8,0,0,1,282.63,454.3Zm3.74,8.76c-1.27-1.79-2.39-3.89-4.59-1.78a3.63,3.63,0,0,0-.11,3.58C283.84,467.05,285,465,286.37,463.06Z"/><path d="M258.64,419c-1.69,1.18-2.71,2.4-3.81,2.47-.69,0-2.24-1.84-2.06-2.51a4.26,4.26,0,0,1,2.64-2.57C256,416.21,257.12,417.71,258.64,419Z"/><path d="M314.93,419.34c-1.76,1.09-2.85,2.27-3.91,2.24-.78,0-2.28-1.85-2.09-2.48a4.24,4.24,0,0,1,2.66-2.57C312.26,416.38,313.32,417.92,314.93,419.34Z"/><path d="M252.71,466.5c-1.18-1.42-2.5-2.31-2.46-3.15s1.32-1.78,2.06-2.67c1,.81,2.36,1.48,2.75,2.51C255.28,463.77,253.85,465,252.71,466.5Z"/><path d="M233.66,466.51c-1.27-1.53-2.59-2.41-2.57-3.27a3.23,3.23,0,0,1,2.1-2.42,3.28,3.28,0,0,1,2.48,2.09C235.84,463.72,234.67,464.82,233.66,466.51Z"/><path d="M246.32,462.73c-1.49,1.31-2.46,2.77-3.19,2.66-1-.16-1.87-1.48-2.8-2.3.79-.83,1.49-2.2,2.38-2.34S244.65,461.75,246.32,462.73Z"/><path d="M322.72,459.7c1.14,1.51,2.58,2.68,2.38,3.32a4.31,4.31,0,0,1-2.74,2.41c-.55.12-2.11-1.56-2.14-2.45S321.53,461.17,322.72,459.7Z"/><path d="M336,463.16c-1.65,1.1-2.64,2.29-3.53,2.21s-1.75-1.38-2.62-2.14c.91-.87,1.72-2.21,2.77-2.45C333.3,460.61,334.37,462,336,463.16Z"/><path d="M341.72,459.94c1.12,1.31,2.5,2.33,2.33,2.89a3.87,3.87,0,0,1-2.42,2.22c-.49.13-1.93-1.31-2-2.11S340.73,461.28,341.72,459.94Z"/></svg>