<svg id="Слой_1" data-name="Слой 1" xmlns="http://www.w3.org/2000/svg" viewBox="0 0 566.93 566.93"><defs><style>.cls-1{fill:#61b66c;}</style></defs><path class="cls-1" d="M538.45,439.15q-6.33-12.33-12.92-24.51c-3.49-6.44-8.78-10.3-16.37-9.74-3.71.27-4.47-1.23-4.43-4.54.14-12.76,0-25.53.09-38.29a31.14,31.14,0,0,0-3.95-16c-5-8.8-9.64-17.8-14.78-26.51a41.34,41.34,0,0,0-7.62-9.53c-5.07-4.58-10.89-4.5-15.76.33a59.88,59.88,0,0,0-8.48,11.12c-3.38,5.43-6.26,11.16-9.36,16.77-.54-.29-.89-.35-1-.56q-23.69-42.69-47.3-85.43a3.69,3.69,0,0,1-.19-3.11c1.91-2.87.9-5.29-.66-7.75-5.91-9.28-11.75-18.6-17.74-27.82-1.5-2.32-2-4.24-.41-6.81a8.27,8.27,0,0,0-.15-9.2c-3.8-5.75-7.64-11.48-11.77-17-1-1.32-3.43-2.75-4.75-2.4-4.09,1.1-5.36-1.3-7-4.09-16-26.65-32-53.29-48.24-79.8a42.9,42.9,0,0,0-9.14-10.55,18.46,18.46,0,0,0-24.6.46,47,47,0,0,0-8.95,10.73q-24.08,39.67-47.75,79.59c-1.51,2.54-2.76,4.57-6.4,4-1.44-.23-3.67,1.17-4.72,2.48-4,5-7.77,10.29-11.48,15.57a9.14,9.14,0,0,0-.79,10c1.48,2.75.94,4.87-.66,7.31-5.94,9.07-11.74,18.24-17.58,27.39-1.35,2.12-3,4.35-1,6.83,1.7,2.18,1,4-.14,6q-25.4,45-50.73,90.06a30.25,30.25,0,0,1-2.1,2.87c-2.06-3.85-3.72-7.29-5.69-10.53a85.46,85.46,0,0,0-7.32-10.94c-6.62-7.91-14.54-7.77-21.23.15a41.49,41.49,0,0,0-4.47,6.51c-5,8.95-10.26,17.8-14.72,27a36.09,36.09,0,0,0-3.2,13.46c-.5,8.93-.3,17.9-.12,26.85.08,3.83-.78,5.66-5.14,5.32-5.65-.46-10.67,1.79-13.56,6.65-5.77,9.69-11.13,19.63-16.42,29.6-1.83,3.46-.33,5.52,3.68,5.89,1.31.12,2.64.05,4,.05l116.65.06c6.42,0,7.39.87,8.61,8-1.91.08-3.78.23-5.65.23q-40.72,0-81.44,0c-5.76,0-7.61,1.1-7.59,4.34s2,4.27,7.68,4.26c27.88,0,55.75,0,83.63-.13,3.88,0,6.67.86,8.48,4.73s5.29,5.2,9.56,4.67a48,48,0,0,1,7-.31c5.38.13,10.75.42,16.13.6.56,0,1.13-.33,1.71-.36,2.11-.12,4.31-.59,6.33-.2,5.67,1.09,9.09.06,11.91-4.93,1.77-3.15,4-4.13,7.47-4.13q58.11.07,116.21-.08c3.72,0,6.3.9,8.29,4.35,2.68,4.68,6.24,5.78,11.62,4.71a20.63,20.63,0,0,1,4.72-.19c5.89.2,11.78.48,17.68.72.28,0,.56-.21.84-.22,2.12-.11,4.29-.53,6.35-.22,4.78.71,8.3-.29,10.42-4.54,1.92-3.86,4.62-4.56,8.5-4.55,27.44.13,54.87.08,82.31.08,1.76,0,3.53,0,5.28-.08,2.7-.2,4.51-1.58,4.45-4.42-.06-2.58-1.69-3.94-4.29-4.06-1-.05-2.05-.09-3.07-.09l-83.2,0h-4.75c1.79-7.57,2.65-8.27,9.59-8.27q58.32,0,116.64,0C540.19,447.09,541.49,445.05,538.45,439.15Zm-206-49.28c0-.17,0-.33,0-.49h0c0,.16,0,.32,0,.49,0,.34.1.7.15,1.05C332.56,390.57,332.5,390.21,332.46,389.87Z"/><path d="M407.17,455.48h4.75l83.2,0c1,0,2.05,0,3.07.09,2.6.12,4.23,1.47,4.29,4.06.06,2.84-1.75,4.22-4.45,4.42-1.75.12-3.52.08-5.28.08-27.44,0-54.87.05-82.31-.08-3.88,0-6.58.69-8.5,4.55-2.12,4.25-5.64,5.25-10.42,4.54-2.06-.31-4.23.11-6.35.22-.28,0-.56.23-.84.21-5.9-.23-11.79-.51-17.68-.71a20.63,20.63,0,0,0-4.72.19c-5.38,1.07-8.94,0-11.62-4.71-2-3.45-4.57-4.36-8.29-4.35q-58.11.17-116.21.08c-3.43,0-5.7,1-7.47,4.12-2.82,5-6.24,6-11.91,4.94-2-.39-4.22.07-6.33.2-.58,0-1.15.38-1.71.36-5.38-.18-10.75-.47-16.13-.6a48,48,0,0,0-7,.31c-4.27.53-7.77-.83-9.56-4.67s-4.6-4.74-8.48-4.73c-27.88.12-55.75.11-83.63.13-5.69,0-7.66-1.1-7.68-4.26s1.83-4.34,7.59-4.34q40.72,0,81.44,0c1.87,0,3.74-.15,5.65-.23-1.22-7.12-2.19-8-8.61-8L35.34,447.2c-1.32,0-2.65.07-4-.05-4-.37-5.51-2.43-3.68-5.89,5.29-10,10.65-19.91,16.42-29.6C47,406.8,52,404.55,57.68,405c4.36.35,5.22-1.48,5.14-5.32-.18-8.94-.38-17.91.12-26.84a36.09,36.09,0,0,1,3.2-13.46c4.46-9.23,9.7-18.09,14.72-27a42,42,0,0,1,4.47-6.52c6.69-7.92,14.61-8.05,21.23-.14a84.77,84.77,0,0,1,7.32,10.94c2,3.24,3.63,6.68,5.69,10.53a30.25,30.25,0,0,0,2.1-2.87q25.38-45,50.73-90.06c1.15-2,1.84-3.85.14-6-1.94-2.48-.34-4.71,1-6.83,5.84-9.15,11.64-18.32,17.58-27.4,1.6-2.43,2.14-4.56.66-7.3a9.14,9.14,0,0,1,.79-10c3.71-5.28,7.47-10.53,11.48-15.57,1.05-1.31,3.28-2.71,4.72-2.48,3.64.58,4.89-1.45,6.4-4Q239,134.78,262.93,95a46.6,46.6,0,0,1,8.95-10.73,18.46,18.46,0,0,1,24.6-.46,42.9,42.9,0,0,1,9.14,10.55c16.24,26.5,32.24,53.15,48.24,79.8,1.68,2.79,2.95,5.18,7,4.09,1.32-.35,3.76,1.08,4.75,2.4,4.13,5.51,8,11.24,11.77,17a8.25,8.25,0,0,1,.15,9.19c-1.58,2.58-1.09,4.5.41,6.82,6,9.22,11.83,18.54,17.74,27.82,1.56,2.46,2.57,4.88.66,7.74a3.71,3.71,0,0,0,.19,3.12q23.58,42.75,47.3,85.43c.11.2.46.27,1,.56,3.1-5.61,6-11.34,9.36-16.77a60.28,60.28,0,0,1,8.48-11.13c4.87-4.82,10.69-4.9,15.76-.32a41.34,41.34,0,0,1,7.62,9.53c5.14,8.71,9.78,17.71,14.78,26.51a31.1,31.1,0,0,1,3.95,16c-.09,12.77.05,25.53-.09,38.3,0,3.31.72,4.81,4.43,4.54,7.59-.56,12.88,3.3,16.37,9.74q6.6,12.17,12.92,24.5c3,5.91,1.74,7.95-5.05,7.95q-58.32,0-116.64,0C409.82,447.21,409,447.91,407.17,455.48Zm-99.9-231a17.51,17.51,0,0,0-2.15-.26q-21-.07-42.09-.09a5.76,5.76,0,0,0-1.59.56c5.6,5.63,12,9.09,19.5,9.86,10.33,1.08,19.67-1.19,26.25-10.17l.21-.07Zm-57.8.36c-1.11.82-1.85,1.27-2.47,1.84-17.16,15.71-37.21,24.62-60.51,26.22a7.81,7.81,0,0,0-5.07,3.38,47.37,47.37,0,0,0-7.9,26.6c.57,29.19,14.24,50.51,39.87,64.06,18.89,10,39.43,13.8,60.58,14.75,24.49,1.1,48.64-.51,71.82-9.54,25.34-9.87,42.25-27.38,48.89-54.09a54.57,54.57,0,0,0-4.77-39.67,9.78,9.78,0,0,0-8.66-5.72c-22.35-1.49-41.59-10.28-58.24-25.06-1-.92-2.21-1.7-3.59-2.74-8.91,12-20.09,18.91-34.9,18.9S258.7,236.31,249.47,224.82Zm-81.2,223.41c1.06,4.66,1.84,9,3.11,13.15.46,1.53,2.1,2.69,3.2,4,.81-1.51,2.09-2.95,2.32-4.55.41-2.73,0-5.57.28-8.33.11-1,1.29-1.91,2-2.86.73.93,1.89,1.77,2.12,2.81.59,2.71.65,5.53,1.15,8.27.37,2.05.3,5.1,3.35,4.57,1.22-.21,2.5-2.8,2.88-4.51.6-2.68.33-5.55.72-8.3.13-.95,1.11-1.77,1.71-2.65.83.83,2.2,1.55,2.39,2.5.64,3.15.65,6.43,1.32,9.57.28,1.31,1.61,2.39,2.47,3.57,1.06-1.17,2.75-2.19,3.07-3.53.71-3,.59-6.12,1.11-9.15.19-1.07,1.26-2,1.93-3,.81,1,2.11,2,2.33,3.12.47,2.42.24,5,.55,7.44.26,2-.44,5.3,2.64,5,1.5-.15,2.94-3,4-4.87,1.66-2.86,3-5.93,4.45-8.89.59-1.16,1.35-2.24,1.94-3.4,5.58-11,4.79-22.45,2.3-34-3.1-14.31-9.31-26.88-21.68-35.54a23.41,23.41,0,0,0-22.59-2.93c-12.27,4.5-19.2,13.41-21.56,26.11-2.29,12.27,1.28,23.5,6.06,34.53,2.08,4.79,2.21,4.84,6.55,2.17,8-4.89,16.42-8.45,25.74-9.62a28.08,28.08,0,0,1,8.73,0c1.39.27,3.3,2.32,3.35,3.63.05,1.13-2,2.79-3.48,3.43s-3.46.31-5.21.48C186.58,437.7,177.13,442.4,168.27,448.23Zm-48.63-80.8a17.36,17.36,0,0,0-1.82,2.07c-5.34,9.44-10.6,18.92-16,28.32-1.75,3-.1,4.11,2.25,5.31,7.76,3.94,13.57,9.7,16.17,18.22.82,2.69,2.35,3.13,5,2.74,5-.74,10.14-1.11,15.23-1.51,2.13-.16,4.28,0,7.14,0-2.38-12.82-1.89-24.66,4.28-35.67s15.44-18.47,28-21.15a3.64,3.64,0,0,0-.14-.84,6.24,6.24,0,0,0-.72-1.09c-11-12.16-13.38-25.59-6.33-40.62.67-1.44.29-3.68-.26-5.33-1.43-4.29-3.64-8.36-4.79-12.72-1.52-5.7-2.31-11.59-3.52-18-.79,1.25-1.35,2.05-1.83,2.9-5.69,10.08-11.22,20.26-17.14,30.2-2.19,3.67-2.14,6,1.25,8.94,10.36,9,14.19,20.83,13.43,34.31,0,.57-.56,1.12-.87,1.68l-1.08.19c0-14.84-5.21-27-17.23-36.42-1.21,2-2.16,3.42-3,4.93-4.57,8.18-9.11,16.39-13.69,24.57-2.91,5.2-3,5.22,1.35,9.12,8.93,8.08,13,18.2,12.84,30.14a34.55,34.55,0,0,1-.52,4l-1.27.24C136.23,387.9,131.16,376.34,119.64,367.43Zm285.14,73.71c2.31-6.35,4.85-12.38,6.69-18.61,2.53-8.6,2.93-17.38-.17-26-4.16-11.52-11.63-19.78-24.14-21.92-11.73-2-20.36,3.84-27.37,12.49-8.38,10.36-12.33,22.48-13.87,35.56-1,8.6-.92,17,2.86,25,2.39,5,7.37,8.8,7.43,15a.52.52,0,0,0,.21.37c1.13.79,2.27,1.55,3.41,2.32.72-1.1,1.88-2.14,2.06-3.32.48-3,.38-6.16.81-9.2.15-1.06,1.18-2,1.8-3,.83,1,2.18,1.86,2.39,3,.6,3,.45,6.17,1.14,9.14.32,1.35,1.94,2.39,3,3.57.94-1.28,2.42-2.44,2.73-3.86.68-3.13.64-6.42,1.19-9.58.15-.85,1.39-1.5,2.13-2.25.58.73,1.55,1.4,1.66,2.2.43,2.9.29,5.89.93,8.73.38,1.72,1.55,4.31,2.78,4.58,2.69.58,3-2.06,3.22-4.15a56.63,56.63,0,0,1,1-7.39c.38-1.48,1.57-2.75,2.4-4.12.66,1.39,1.67,2.72,1.88,4.17.34,2.31-.1,4.73.27,7,.24,1.51,1.32,2.89,2,4.32,1.21-1.21,3-2.22,3.51-3.68,1.13-3.3,1.26-6.95,2.47-10.21,1-2.75.19-3.93-2-5.26-9.19-5.47-18.75-9.71-29.73-9.6-2.47,0-4.49-.74-4.66-3.52-.18-3.05,2-3.92,4.56-4.21a20.2,20.2,0,0,1,2.2-.05,50.41,50.41,0,0,1,22.85,5.63C396.3,436.27,400.05,438.52,404.78,441.14ZM389,365.38c28,9.49,36.17,29.75,32.27,56.66,7.82.55,15.42.85,22.94,1.74,2.67.32,3.74-.27,4.5-2.6,2.58-8,8.09-13.43,15.13-17.57,1.47-.87,2.91-1.78,4.58-2.8-6.32-11.34-12.42-22.3-18.77-33.67-12.42,8.78-17.51,20.62-17.93,35.06a6.29,6.29,0,0,1-1.16-3.35c-.63-12.81,3.65-23.67,13.51-32,3.17-2.65,3.29-4.67,1.3-8.06-5-8.46-9.54-17.16-14.29-25.74-.75-1.36-1.63-2.65-2.65-4.31-6.09,4.7-10.88,9.95-13.25,16.66-2.26,6.39-3.32,13.21-5.14,20.77a28.23,28.23,0,0,1-.9-3.51c-1.2-13.53,3.52-24.82,13.54-33.73,3.32-3,3.54-5.24,1.37-8.94-5.71-9.72-11-19.68-16.52-29.53a24,24,0,0,0-1.39-2.13c-2.56,8.78-4.92,18-8,26.89-1.27,3.69-1.75,6.7-.17,10.43,5.29,12.44,3.24,24.06-4.86,34.71C391.85,362,390.48,363.54,389,365.38ZM306.69,111.87C302.15,105.25,298,98.31,293,92.09c-4.76-5.88-11-5.82-16.44-.54a36.45,36.45,0,0,0-5.69,7.21c-8.51,14-16.79,28.18-25.34,42.18-1.66,2.71-1.56,4.15,1.11,6q17.78,12.54,35.27,25.47c2.33,1.71,3.94,1.46,6.16-.18,11.43-8.45,23-16.73,34.46-25.1,1.12-.82,2.11-1.82,3.23-2.81L308.43,115.6,295,133.77C294.43,129.09,295.33,127.41,306.69,111.87Zm53.15,75.31-.7-1.42c-1.5.31-3,.56-4.5,1a265.75,265.75,0,0,1-67.4,8.6,295.09,295.09,0,0,1-72.32-8.23,6.92,6.92,0,0,0-5.7,1.53,91.75,91.75,0,0,0-8.13,10.89c-2.15,3.17-1.19,5.85,2.45,7.31a16.44,16.44,0,0,0,3,.79c43.76,9,87.76,10.81,132,4.19,9-1.34,17.86-3.28,26.75-5.08,3.9-.8,5.48-3,4-5.71a109.51,109.51,0,0,0-6.45-9.56c-13.55,8.81-22.12,11.92-27.13,9.51C345,197.94,354.27,195.46,359.84,187.18ZM235.9,388.4a34.85,34.85,0,0,0,11.77,14.53c20.16,14.67,51.08,15.41,71.57,1.14,4.8-3.34,8.45-8.38,12.41-12.83.59-.67,0-2.39,0-3.62a19.21,19.21,0,0,0-3.43,2.05,9.1,9.1,0,0,0-1.44,2.69c-.85,1.67-1.5,4-4.05,2.69s-.93-3.16-.06-4.78c3.18-5.91,4.27-12.06,2.41-18.65-.83-2.95-2.32-4-5.44-3.4a186.31,186.31,0,0,1-47.27,2.42c-7.44-.57-14.85-1.58-22.27-2.42-4.9-.55-6.41.59-7.05,5.44-.72,5.5-.17,10.81,2.57,15.76a7.27,7.27,0,0,1,1.23,2.78c0,1-.36,2.46-1.05,2.84a3.07,3.07,0,0,1-2.82-.86,21.4,21.4,0,0,1-2.36-4.68C239.46,386.87,237.94,386.7,235.9,388.4Zm76.81-208-.11-2c9.92-1.2,20-1.82,29.2-7.22-4.51-7.5-8.85-14.69-13.37-22.18-1.84,1.29-3.16,2.19-4.44,3.12-11.61,8.45-23.27,16.84-34.8,25.42-3.06,2.27-5.57,2.45-8.64,0-5.66-4.41-11.51-8.59-17.32-12.81-7.31-5.31-14.67-10.57-22.39-16.12l-13.36,22.71c9.36,5.12,19.14,5.89,28.64,7.78-10.71,2.27-20.8.38-30.78-4.19-1.54,2.43-3,4.69-4.73,7.51,42.9,9.43,85,10.29,127.19,0-1.68-6.93-2.9-7.37-8.67-5.59a99.66,99.66,0,0,1-15.39,3.39C320.13,180.84,316.39,180.42,312.71,180.42ZM223.36,392.88c1.9-1.12,3.33-1.84,4.63-2.76,3.26-2.31,6.51-4.65,9.67-7.11a3.83,3.83,0,0,0,.86-2.26c.59-3.86,1.28-7.72,1.53-11.6a4.88,4.88,0,0,0-1.93-3.51c-1.09-.8-2.77-.81-4.18-1.19-20.92-5.58-39.13-15.52-52.75-32.83a10.61,10.61,0,0,1-1-2l-1.78.54c-.36,3.64-1.3,7.34-1,10.92,1.05,11.48,8.37,18.73,17.76,24.11C206.9,371.91,216.89,380.21,223.36,392.88Zm114.28,19.9q-53.43,37.92-106.4.11c.42,6.63,1.13,13.62,1.19,20.62,0,3.84,1.15,5,5,5,30.66-.15,61.32-.11,92-.12,1.32,0,2.81.35,3.92-.14s2.79-1.8,2.88-2.86C336.89,427.84,337.21,420.25,337.64,412.78Zm52.49-83.34c-14.23,19.35-33.43,29.54-55.3,35.49-6.55,1.78-6.56,1.74-5.16,8.37,1.67,7.87,1.64,7.9,7.78,13.29,2.37,2.08,4.89,4,7.35,6a10.31,10.31,0,0,0,1.66-1.6c6.77-11.63,16.59-19.83,28.39-26.08A32.54,32.54,0,0,0,390.19,348,22.75,22.75,0,0,0,390.13,329.44ZM455,358.2c13.45-4.31,22.76-.14,22.1,10.09a13.4,13.4,0,0,1-3.45-3.43c-3.53-5.07-9.12-7-13.69-4.7-1.83.92-2.83,2-1.66,4.15,5.25,9.44,10.49,18.89,16.06,28.95,5.45-8.34,12.83-9.75,21.78-6.35,0-7.45.06-13.88,0-20.3a65.54,65.54,0,0,0-.68-10.5c-.22-1.22-2.17-3-3.35-3.05-13-.21-26-.13-39.62-.13Zm-345.39,8.09c-12.36,0-23.6-.09-34.84.15-1,0-2.9,2.09-2.93,3.25q-.36,16-.07,32.07a4.1,4.1,0,0,0,2.66,3,71.12,71.12,0,0,0,11.4.17,4.48,4.48,0,0,0,3-2.08C95.58,391,102.26,379.2,109.58,366.29Zm125.54,43.26c1.15,1,2.37,2.22,3.74,3.24,12,9,25.59,13.37,40.37,14.63,19.16,1.63,36.2-3.79,51.55-15.11,2.37-1.74,2.78-3.39,1-5.84-2.89-3.87-3.34-4-7.21-1.11-21.9,16.57-56.42,17.24-78.06,1.52-6.11-4.44-6.11-4.45-11,1.42C235.31,408.5,235.31,408.84,235.12,409.55Zm-11.63,45.52H344.83c.15-6.71-.9-7.9-6.73-7.9l-106.87.09C224.91,447.27,224.13,448,223.49,455.07ZM74.56,360.94c12.81,0,24.09.07,35.38,0,3.3,0,5.44-2.59,4.07-5.15-4.56-8.51-9.24-17-14.39-25.14-2.21-3.52-5-3.35-7.34.36C86.33,340.5,80.81,350.3,74.56,360.94ZM450,347h41.63c-5.42-9.51-10.3-18.53-15.63-27.27-3.62-5.91-6.5-6.08-10.07-.38C460.42,328.13,455.54,337.31,450,347ZM121.12,429c-1.63-2.23-3.27-3.58-3.74-5.26-2.44-8.75-8.48-14.07-16.24-18-2.14-1.08-3.41-.79-4.57,1.4Q93,414,89,420.55c-1.18,2-.73,3.12,1,4.37a11.76,11.76,0,0,1,5.19,10.14c-.07,2.83,1.27,3.45,3.77,3.39,5-.14,10-.1,14.93-.08,6,0,6,0,6.51-5.74A26,26,0,0,1,121.12,429Zm326.68-.43c.39,2.63.89,5.91,1.43,9.51h24.1c-1-6.83,2.47-11.34,7.37-15.1l-10.45-18.62c-8.89,4.28-15.68,9.59-18.77,18.76C450.85,425,449.21,426.55,447.8,428.59ZM183,243.44c11.22,3.85,48-10.44,55.72-22.67-4.51.59-8.87-.07-11.57,1.73-10.56,7.07-21.88,11.94-34.4,13.66C187.77,236.84,184.51,238.77,183,243.44Zm203.3,0c-3.31-6-3.3-6-9.3-7-11.75-1.84-22.84-5.64-32.39-12.74-4.56-3.39-8.71-3-13.56-1.69C340.79,233.9,371.58,245.86,386.25,243.42ZM69.89,438.14c-6.15-8.27-11.75-15.77-17.66-23.71L39.17,438.14Zm458.26,0-12.55-23-17.24,23ZM416,438.35c8.14,0,16.33,0,24.52,0,4.42,0,5.71-1.8,4.33-6-1-3.2-3.13-5.31-6.59-5.6-2.77-.23-5.56-.29-8.34-.29-11.32,0-11.32,0-14.05,11.2A3,3,0,0,0,416,438.35Zm-263.41,0c-1.21-3.61-2.06-6.7-3.32-9.61a4.09,4.09,0,0,0-2.9-2.16,137.1,137.1,0,0,0-16.22.29c-4.49.44-7.06,4.65-5.95,9a3.64,3.64,0,0,0,2.47,2.34C135.14,438.44,143.6,438.37,152.61,438.37Zm36.81-205.61a65.84,65.84,0,0,0,33.64-13c-7.07-1.46-13.31-2.85-19.61-4a4.46,4.46,0,0,0-3.69,1.32C196.31,222,193.15,227.06,189.42,232.76Zm156.8-13c10.49,7.37,21,11.64,33.5,12.9-3.65-5.61-6.69-10.58-10.1-15.29a5.25,5.25,0,0,0-4.26-1.65C359.34,216.79,353.38,218.23,346.22,219.79Zm142,185.32c7.9-.17,7.9-.17,7.89-8a27.52,27.52,0,0,0-.05-3.52,4.77,4.77,0,0,0-.84-2.4c-2.11-2.51-9.37-3-12.9-1.05-3.7,2.08-5.11,5.94-3.72,10.2C480,404.78,481,405.26,488.19,405.11ZM511.68,414H485.91c3.74,6.8,7.18,13,10.86,19.73Zm-429.22,0H56.63L71.56,433.7Zm150.45-6.82a37.45,37.45,0,0,0,4.17-5c.61-1,.88-3,.31-3.88a84,84,0,0,0-5.85-7.61,52.4,52.4,0,0,0-4.92,3.15c-.65.52-1.37,1.78-1.17,2.39C226.88,400.55,228,405.08,232.91,407.25Zm104.39.8A121.52,121.52,0,0,0,343.21,397c.38-.9-1-3.08-2.08-3.9s-3.48-1.62-4.55-1c-5.46,2.94-6.21,9-2,13.51C335.08,406.05,335.64,406.5,337.3,408.05ZM85.53,426.59c-2.06,3.82-4.06,7.54-6.27,11.66,3.67,0,6.64.33,9.47-.15,1.18-.2,3-2.18,2.93-3.2A9.09,9.09,0,0,0,85.53,426.59Zm403.4,11.73c-2-3.85-3.37-7-5.19-9.92-.4-.64-2.7-.9-3.36-.37a10.29,10.29,0,0,0-3,4.18c-1.75,4.42-.51,6.07,4.25,6.1C483.82,438.33,486,438.32,488.93,438.32Z"/><path d="M428.24,487.66H412c-2.18,0-4.31-.36-4.39-3.11s1.89-3.48,4.12-3.5q16.22-.12,32.42-.08c2.17,0,4.19.66,4.11,3.44s-2.07,3.23-4.27,3.24C438.75,487.68,433.49,487.66,428.24,487.66Z"/><path d="M140,487.66c-5.26,0-10.52,0-15.78,0-2.37,0-4.57-.51-4.49-3.5.08-2.79,2.31-3.11,4.42-3.12q16-.07,32,0c2.17,0,4.25.46,4.23,3.28,0,3.1-2.27,3.33-4.59,3.33-5.26,0-10.53,0-15.79,0Z"/><path d="M218,312.75a28.1,28.1,0,1,1,28.74-27.6A28.21,28.21,0,0,1,218,312.75Zm-11.5-32a6.66,6.66,0,0,0,6.49-6.83,6.53,6.53,0,0,0-7-6.67,6.76,6.76,0,0,0,.53,13.5Z"/><path d="M352.25,312.83a28,28,0,0,1-28-27.93,28.38,28.38,0,0,1,28.11-28.42c15.22-.12,28,12.93,28,28.51A28.19,28.19,0,0,1,352.25,312.83Zm-11.76-45.47a6.6,6.6,0,0,0-6.71,6.67,6.68,6.68,0,0,0,6.67,6.74,6.71,6.71,0,0,0,0-13.41Z"/><path d="M283.66,335.46c-7.59.56-15,0-21-5.39-.76-.68-1.91-1.27-2.14-2.11a5.51,5.51,0,0,1,.23-3.79c.26-.47,2.68-.52,3.29.08,9.11,9.07,20.35,6.42,31.1,5.46,2.76-.25,5.25-2.92,8-4.19,1.35-.63,3-.61,4.52-.88-.33,1.64-.13,4.21-1.09,4.76a59.62,59.62,0,0,1-12.88,5.89C290.58,336.18,287,335.46,283.66,335.46Z"/><path d="M297.93,311.09c-4.08-2-7.61-3.31-10.72-5.31-2.1-1.34-3.33-1.07-5.45,0A55.25,55.25,0,0,1,270,309.62c-.87.2-2.26-1.9-3.41-2.95,1.17-.79,2.34-2.26,3.5-2.25a13.51,13.51,0,0,0,11.08-5.32c2.34-2.86,4.31-2.85,6.68,0,2.59,3.13,5.74,5.47,10.13,5.31,2-.08,4.42-.15,4,2.54C301.73,308.35,299.62,309.43,297.93,311.09Z"/></svg>