<?xml version="1.0" encoding="utf-8"?>
<!-- Generator: Adobe Illustrator 26.0.1, SVG Export Plug-In . SVG Version: 6.00 Build 0)  -->
<svg version="1.1" id="Слой_1" xmlns="http://www.w3.org/2000/svg" xmlns:xlink="http://www.w3.org/1999/xlink" x="0px" y="0px"
	 viewBox="0 0 128 128" style="enable-background:new 0 0 128 128;" xml:space="preserve">
<style type="text/css">
	.st0{fill:#59AAF3;}
	.st1{fill:#FFDA48;}
	.st2{clip-path:url(#SVGID_00000177475204112654592300000014215217569982646408_);}
	.st3{fill:#713F13;}
	.st4{clip-path:url(#SVGID_00000049189041507632993400000013354391441392972937_);}
	.st5{fill:#61B56C;}
	.st6{fill:#FF6C3C;}
</style>
<rect x="-427.6" y="-5.2" class="st0" width="156.8" height="154.6"/>
<rect x="-11.4" y="-10.2" class="st1" width="156.8" height="154.6"/>
<g>
	<g>
		<g>
			<g>
				<defs>
					<rect id="SVGID_1_" x="-461.4" y="-191.8" width="305.2" height="305.2"/>
				</defs>
				<clipPath id="SVGID_00000103252750570278701160000013359724598756969895_">
					<use xlink:href="#SVGID_1_"  style="overflow:visible;"/>
				</clipPath>
				<g style="clip-path:url(#SVGID_00000103252750570278701160000013359724598756969895_);">
					<polygon class="st1" points="-462.4,113.8 -359.9,11.3 -257.5,113.8 					"/>
					<polygon class="st3" points="-462.4,113.8 -359.9,11.3 -337.6,113.8 					"/>
				</g>
			</g>
		</g>
		<g>
			<g>
				<defs>
					<rect id="SVGID_00000016791327900691808940000014862104353777528765_" x="-461.4" y="-191.8" width="305.2" height="305.2"/>
				</defs>
				<clipPath id="SVGID_00000132773257365855201030000002836803648151156635_">
					<use xlink:href="#SVGID_00000016791327900691808940000014862104353777528765_"  style="overflow:visible;"/>
				</clipPath>
				<g style="clip-path:url(#SVGID_00000132773257365855201030000002836803648151156635_);">
					<g>
						<path class="st1" d="M-453.3,31.9c-37,0.3-78.5,0.3-115.4,0C-531.8,31.7-490.3,31.7-453.3,31.9L-453.3,31.9z"/>
					</g>
					<g>
						<path class="st1" d="M-446.8,35.6c-37,0.3-78.5,0.3-115.4,0C-525.2,35.3-483.7,35.3-446.8,35.6L-446.8,35.6z"/>
					</g>
					<g>
						<path class="st1" d="M-440.2,39.2c-37,0.3-78.5,0.3-115.4,0C-518.6,38.9-477.1,38.9-440.2,39.2L-440.2,39.2z"/>
					</g>
					<g>
						<path class="st1" d="M-433.6,42.8c-37,0.3-78.5,0.3-115.4,0C-512,42.6-470.5,42.6-433.6,42.8L-433.6,42.8z"/>
					</g>
					<g>
						<path class="st1" d="M-427,46.5c-37,0.3-78.5,0.3-115.4,0C-505.4,46.2-463.9,46.2-427,46.5L-427,46.5z"/>
					</g>
					<g>
						<path class="st1" d="M-420.4,50.1c-37,0.3-78.5,0.3-115.4,0C-498.8,49.8-457.3,49.8-420.4,50.1L-420.4,50.1z"/>
					</g>
					<g>
						<path class="st1" d="M-413.8,53.7c-37,0.3-78.5,0.3-115.4,0C-492.2,53.4-450.7,53.4-413.8,53.7L-413.8,53.7z"/>
					</g>
					<g>
						<path class="st1" d="M-407.2,57.3c-37,0.3-78.5,0.3-115.4,0C-485.6,57.1-444.1,57.1-407.2,57.3L-407.2,57.3z"/>
					</g>
					<g>
						<path class="st1" d="M-400.6,61c-37,0.3-78.5,0.3-115.4,0C-479,60.7-437.5,60.7-400.6,61L-400.6,61z"/>
					</g>
					<g>
						<path class="st1" d="M-394,64.6c-37,0.3-78.5,0.3-115.4,0C-472.4,64.3-430.9,64.3-394,64.6L-394,64.6z"/>
					</g>
					<g>
						<path class="st1" d="M-387.4,68.2c-37,0.3-78.5,0.3-115.4,0C-465.8,68-424.3,68-387.4,68.2L-387.4,68.2z"/>
					</g>
					<g>
						<path class="st1" d="M-380.8,71.9c-37,0.3-78.5,0.3-115.4,0C-459.2,71.6-417.7,71.6-380.8,71.9L-380.8,71.9z"/>
					</g>
					<g>
						<path class="st1" d="M-374.2,75.5c-37,0.3-78.5,0.3-115.4,0C-452.6,75.2-411.1,75.2-374.2,75.5L-374.2,75.5z"/>
					</g>
					<g>
						<path class="st1" d="M-367.6,79.1c-37,0.3-78.5,0.3-115.4,0C-446,78.8-404.5,78.8-367.6,79.1L-367.6,79.1z"/>
					</g>
					<g>
						<path class="st1" d="M-361,82.7c-37,0.3-78.5,0.3-115.4,0C-439.4,82.5-397.9,82.5-361,82.7L-361,82.7z"/>
					</g>
					<g>
						<path class="st1" d="M-354.4,86.4c-37,0.3-78.5,0.3-115.4,0C-432.8,86.1-391.3,86.1-354.4,86.4L-354.4,86.4z"/>
					</g>
					<g>
						<path class="st1" d="M-347.8,90c-37,0.3-78.5,0.3-115.4,0C-426.2,89.7-384.7,89.7-347.8,90L-347.8,90z"/>
					</g>
					<g>
						<path class="st1" d="M-341.2,93.6c-37,0.3-78.5,0.3-115.4,0C-419.7,93.3-378.2,93.3-341.2,93.6L-341.2,93.6z"/>
					</g>
					<g>
						<path class="st1" d="M-334.7,97.2c-37,0.3-78.5,0.3-115.4,0C-413.1,96.9-371.6,96.9-334.7,97.2L-334.7,97.2z"/>
					</g>
					<g>
						<path class="st1" d="M-328.1,100.8c-37,0.3-78.5,0.3-115.4,0C-406.6,100.5-365.1,100.5-328.1,100.8L-328.1,100.8z"/>
					</g>
					<g>
						<path class="st1" d="M-321.6,104.4c-37,0.3-78.5,0.3-115.4,0C-400,104.1-358.5,104.1-321.6,104.4L-321.6,104.4z"/>
					</g>
					<g>
						<path class="st1" d="M-315,107.9c-37,0.3-78.5,0.3-115.4,0C-393.4,107.7-352,107.7-315,107.9L-315,107.9z"/>
					</g>
					<g>
						<path class="st1" d="M-308.4,111.5c-37,0.3-78.5,0.3-115.4,0C-386.9,111.3-345.4,111.3-308.4,111.5L-308.4,111.5z"/>
					</g>
				</g>
			</g>
		</g>
	</g>
	<polygon class="st0" points="-155.3,26.2 -359.6,113.3 -460.5,32.8 -460.5,113.3 -155.3,113.3 	"/>
</g>
<rect x="-433.9" y="113.3" class="st0" width="157.6" height="29.1"/>
<g>
	<path class="st5" d="M124.1,274.2c-1.7-3.2-3.3-6.4-5-9.6c-16.1-30.8-32.2-61.7-48.3-92.5c-1-1.9-1.9-3.8-3.1-5.6
		c-1.8-2.9-5.5-2.9-7.5-0.1c-0.3,0.5-0.6,1-0.9,1.4c-7,13.4-14,26.8-21,40.1C28.2,227.4,18.1,246.8,8,266.2
		c-1.5,2.9-3.1,5.8-4.6,8.8c-1.4,2.6,0.2,5.6,3.1,6c0.6,0.1,1.3,0.1,1.9,0.1c9,0,18.1,0,27.1,0c0.9,0,1.6,0.2,2.3,0.8
		c1.4,1.2,3,1.3,4.7,0.5c0.4-0.2,1-0.2,1.3,0c1.4,0.7,2.7,0.7,4.1,0c0.4-0.2,1-0.2,1.4,0c1.8,0.9,3.4,0.6,4.9-0.6
		c0.5-0.4,1.2-0.7,1.8-0.7c5.3,0,10.6,0,15.9,0c0.6,0,1.3,0.3,1.7,0.6c1.5,1.2,3.1,1.5,4.8,0.6c0.6-0.3,1.1-0.3,1.7,0
		c1.2,0.7,2.5,0.8,3.7,0c0.6-0.4,1.1-0.3,1.8,0c1.6,0.8,3.1,0.6,4.4-0.5c0.7-0.6,1.5-0.8,2.5-0.8c4.5,0,9,0,13.5,0c0,0,0,0,0,0
		c4.7,0,9.3,0,14,0C124.1,281,126,277.8,124.1,274.2z M42.3,240.1c-0.1,0.1-0.2,0.2-0.3,0.3C42.1,240.3,42.2,240.2,42.3,240.1
		L42.3,240.1z M82,226.6c0.4-0.3,0.9-0.4,1.5-0.3c0,0,0,0,0,0C82.9,226.3,82.4,226.4,82,226.6z M64,249.4c-0.3,0-0.6,0-0.9-0.1
		C63.4,249.4,63.7,249.4,64,249.4z M70.4,246L70.4,246C70.3,246.1,70.3,246.1,70.4,246C70.3,246.1,70.3,246.1,70.4,246z M57.2,191
		L57.2,191c0.1,0.1,0.1,0.1,0.2,0.2C57.3,191.2,57.3,191.1,57.2,191z M72.6,186.1c0,0,0-0.1,0-0.1c0-0.1-0.1-0.1-0.1-0.2
		c0,0.1,0.1,0.2,0.1,0.2C72.6,186.1,72.6,186.1,72.6,186.1L72.6,186.1z M14.8,274c0.1,0,0.1,0,0.2,0C14.9,274,14.9,274,14.8,274
		L14.8,274z M15.6,273.9c-0.1,0-0.3,0-0.4,0C15.3,273.9,15.4,273.9,15.6,273.9z M13.1,268.7c0.1,0,0.3,0,0.4-0.1
		C13.4,268.6,13.3,268.7,13.1,268.7L13.1,268.7z"/>
	<g>
		<path d="M106.1,281.1c-4.5,0-9,0-13.5,0c-0.9,0-1.7,0.2-2.5,0.8c-1.3,1.1-2.9,1.3-4.4,0.5c-0.6-0.3-1.1-0.4-1.8,0
			c-1.2,0.7-2.5,0.7-3.7,0c-0.6-0.4-1.1-0.4-1.7,0c-1.7,0.9-3.3,0.7-4.8-0.6c-0.4-0.4-1.1-0.6-1.7-0.6c-5.3,0-10.6-0.1-15.9,0
			c-0.6,0-1.3,0.3-1.8,0.7c-1.6,1.2-3.1,1.5-4.9,0.6c-0.4-0.2-1-0.2-1.4,0c-1.4,0.7-2.7,0.7-4.1,0c-0.3-0.2-0.9-0.1-1.3,0
			c-1.7,0.8-3.3,0.7-4.7-0.5c-0.7-0.6-1.4-0.8-2.3-0.8c-9,0-18.1,0-27.1,0c-0.6,0-1.3,0-1.9-0.1c-2.9-0.4-4.5-3.4-3.1-6
			c1.5-2.9,3.1-5.8,4.6-8.8c10.1-19.4,20.2-38.8,30.3-58.2c7-13.4,14-26.8,21-40.1c0.3-0.5,0.5-1,0.9-1.4c2-2.8,5.7-2.8,7.5,0.1
			c1.1,1.8,2.1,3.7,3.1,5.6c16.1,30.8,32.2,61.7,48.3,92.5c1.7,3.2,3.3,6.4,5,9.6c1.9,3.6,0,6.9-4.1,6.9
			C115.4,281.1,110.7,281.1,106.1,281.1C106.1,281.1,106.1,281.1,106.1,281.1z M30.4,230.5c1.5,0,2.7,0,4,0c1.5,0,1.5,0.1,1.4-1.4
			c-0.5-5.2,1.2-9.5,5.3-12.8c4.2-3.4,10.3-3.5,14.3-0.3c0.3,0.2,0.4,0.6,0.6,0.9c-0.4,0-0.8,0-1-0.1c-2.2-1.1-4.6-1.5-7-1.1
			c-6.2,1.1-10.4,6.9-9.6,13.3c0.8,6.1,6.3,10.4,12.7,9.7c0.8-0.1,1.4,0.1,2.1,0.5c7.1,4.1,14.3,4.3,21.5,0.2
			c0.8-0.5,1.6-0.7,2.5-0.6c8,0.8,13.9-5.6,12.6-13.5c-1.3-7.7-9.7-12-16.6-8.4c-0.2,0.1-0.3,0.2-0.5,0.2c-0.2,0-0.4,0-0.6-0.1
			c-0.1-0.1,0-0.4,0.1-0.5c0.2-0.2,0.4-0.4,0.6-0.5c3.6-2.8,9.1-3.1,13-0.6c4.8,3.1,7.1,7.6,6.6,13.4c0,0.5,0,1.1,0,1.7
			c1.8,0,3.4,0,5.2,0c-0.2-0.5-0.4-0.9-0.6-1.2c-3-5.8-6-11.5-9-17.3c-0.7-1.3-1.6-1.9-3-1.8c-3.3,0.1-6.5,0.1-9.8,0.1
			c-10.8,0-21.6,0-32.4,0c-1.2,0-2,0.3-2.6,1.5c-3,5.9-6.1,11.8-9.2,17.8C30.8,229.6,30.7,229.9,30.4,230.5z M107,248.6
			c0-0.2,0-0.3-0.1-0.4c-2.6-5-5.3-9.9-7.9-14.9c-0.3-0.6-0.8-0.8-1.5-0.8c-1.4,0-2.8,0.1-4.2,0c-1.4-0.1-2.1,0.4-2.8,1.6
			c-2.4,4.3-6,6.9-11,7.1c-3.8,0.1-7.1,1.4-9.9,3.7c-3.4,2.8-7.5,2.6-11,0.2c-1.8-1.2-3.8-2.3-5.8-3.3c-0.8-0.4-1.8-0.5-2.7-0.6
			c-1.5-0.2-3.1-0.2-4.6-0.6c-3.9-1-6.6-3.6-8.5-7.1c-0.4-0.8-0.9-1.1-1.8-1.1c-1.6,0.1-3.2,0.1-4.7,0c-1,0-1.5,0.3-1.9,1.2
			c-2.4,4.7-4.9,9.4-7.4,14c-0.1,0.3-0.2,0.6-0.4,0.9c3.2,0,6.2,0,9.3,0c0.3,0,0.7-0.3,0.8-0.3c-0.8-1.8-1.6-3.4-2.1-5.1
			c-0.6-2.3-0.1-4.5,1.7-6.2c2.5-2.3,6.4-1.3,7.3,1.8c0.7,2.4-1.2,4.9-3.6,4.8c-1-0.1-1.8-0.6-1.9-1.4c-0.1-0.4,0-0.9,0.2-1.1
			c0.2-0.2,0.8-0.1,1.1,0c0.8,0.4,1.3,0.1,1.7-0.5c0.4-0.7,0.2-1.3-0.4-1.8c-0.8-0.7-2.3-0.5-3,0.4c-0.7,0.8-0.9,1.8-0.8,2.8
			c0.2,2.1,1.2,3.8,2.8,5.1c2,1.7,4.3,2.7,6.8,3.4c5.5,1.5,11.1,2.1,16.8,2.4c9,0.4,18,0.2,26.9-1.7c3-0.7,6.1-1.4,8.7-3.2
			c1.9-1.2,3.3-2.9,3.8-5.1c0.3-1.4,0.3-2.7-0.8-3.8c-0.9-0.9-2.3-1-3.1-0.2c-0.5,0.5-0.6,1-0.3,1.6c0.4,0.6,0.9,0.7,1.5,0.6
			c0.4-0.1,0.9,0,1.3,0c-0.1,0.6,0,1.3-0.3,1.8c-0.6,0.8-1.5,1-2.5,0.7c-1.7-0.6-2.8-2.2-2.6-4.1c0.2-1.7,1.9-3.3,3.6-3.5
			c2.6-0.3,4.8,1.4,5.4,4c0.7,2.8-0.2,5.2-1.8,7.5c-0.2,0.3-0.3,0.6-0.4,1c0.3,0.1,0.7,0.3,1,0.3c2.8,0,5.6,0,8.3,0
			C106.6,248.7,106.7,248.6,107,248.6z M41.2,268.8c1.1-0.2,2-0.4,2.9-0.5c1.5-0.2,1.5-0.1,1.6-1.6c0.3-3.6,1.5-6.8,3.7-9.6
			c0.3-0.4,0.6-0.7,0.9-1c0.4-0.4,0.8-0.3,1.1,0.2c0.4,0.9,0.3,1.8-0.3,2.6c-1.7,2.4-2.6,5.2-2.9,8.2c-0.1,0.9,0.1,1.4,1,1.6
			c1.9,0.5,3.4,1.6,4.8,3c0.6,0.6,1.4,1.1,2.2,1.3c5.4,1.4,10.8,1.2,16.2,0c0.6-0.1,1.1-0.6,1.5-1c1.2-1.5,2.7-2.5,4.6-3.2
			c1.5-0.5,1.5-0.5,1.3-2.2c-0.4-2.8-1.3-5.5-3-7.8c-0.5-0.7-0.7-1.5-0.4-2.3c0.3-0.8,0.7-1,1.3-0.3c0.7,0.7,1.3,1.5,1.8,2.3
			c1.7,2.7,2.6,5.6,2.8,8.7c0,0.5,0,1,0.7,1.1c1.2,0.2,2.3,0.3,3.6,0.5c0.1-0.2,0.2-0.4,0.2-0.7c0.2-4.7-0.9-9.1-3.5-13
			c-0.5-0.8-1.2-1-2.1-0.9c-3.8,0.4-7.6,0.9-11.4,1c-7.7,0.4-15.4,0.2-23.1-1.1c-0.9-0.1-1.5,0.1-2,0.9c-1.4,2.2-2.4,4.5-3,7
			C41.1,264.2,41,266.4,41.2,268.8z M63.8,196.1C63.8,196.1,63.8,196.1,63.8,196.1c2.4,0,4.7,0,7.1,0c0.9,0,1.6-0.3,2.1-1
			c0.9-1.3,1.9-2.6,2.9-3.9c0.5-0.7,0.6-1.2,0.2-2c-3.6-6.7-7.2-13.5-10.8-20.2c-0.3-0.5-0.8-1.2-1.2-1.1c-0.5,0-1.1,0.6-1.4,1.1
			c-3.6,6.8-7.2,13.6-10.9,20.5c-0.4,0.7-0.3,1.2,0.2,1.7c1,1.3,2.1,2.7,3,4.1c0.5,0.7,1,0.9,1.8,0.9
			C59.1,196.1,61.4,196.1,63.8,196.1z M88.1,258.7c0,0.2-0.1,0.2-0.1,0.3c0.1,0.3,0.2,0.7,0.2,1c0.9,3.1,1.3,6.3,0.9,9.5
			c-0.1,0.4,0.2,1,0.5,1.3c1.6,1.7,2.6,3.6,2.6,6c0,0.3,0.2,0.7,0.4,0.8c0.9,0.6,3.3-0.1,3.8-1.1c3.2-5.6,6.4-11.2,9.6-16.8
			c0.2-0.3,0.3-0.7,0.6-1.1C100.4,258.7,94.2,258.7,88.1,258.7z M21.2,258.7c0.2,0.4,0.3,0.7,0.5,1c2.2,3.8,4.4,7.6,6.6,11.4
			c1,1.7,1.8,3.3,2.8,5c0.8,1.3,1.9,1.9,3.5,1.8c0.8-0.1,1.2-0.4,1.2-1.3c0-2.1,0.8-4,2.3-5.5c0.6-0.6,0.8-1.2,0.7-2
			c-0.3-3.3,0-6.5,1.1-9.6c0.1-0.2,0.1-0.5,0.1-0.8C33.6,258.7,27.4,258.7,21.2,258.7z M29.8,277.6c-0.1-0.3-0.1-0.4-0.2-0.4
			c-3.2-5.5-6.3-11-9.6-16.4c-1.3-2.2-4.1-2.2-5.4,0.1c-1.8,3.1-3.4,6.3-5,9.5c-0.2,0.4-0.1,1.1,0.1,1.5c1,1.7,2.1,3.3,3.1,5
			c0.4,0.6,0.8,0.8,1.5,0.8c2.8,0,5.5,0,8.3,0c0.3,0,0.5-0.1,0.9-0.1c-0.6-1-1.1-1.9-1.7-2.8c-0.5-0.7-0.3-1.1,0.4-1.5
			c0.5-0.3,0.9-0.6,1.5-1c-2.4-2.2-4.7-4.3-7-6.4c-1,1-1.8,1.9-2.7,2.7c-0.2,0.2-0.6,0.2-0.9,0.3c0.1-0.3,0-0.7,0.2-1
			c0.9-1,1.9-2,2.8-2.9c0.4-0.4,0.8-0.4,1.3-0.1c2.5,2.3,5,4.5,7.5,6.8c0.5,0.5,0.5,0.9-0.1,1.3c-0.6,0.5-1.5,0.9-1.6,1.5
			c-0.1,0.6,0.7,1.4,1,2c0.1,0.3,0.3,0.5,0.5,0.8c0.2,0.2,0.4,0.4,0.6,0.5C26.8,277.6,28.2,277.6,29.8,277.6z M104,277.6
			c3.5,0,6.7,0,10,0c0.3,0,0.8-0.3,0.9-0.6c1.1-1.7,2.2-3.4,3.2-5.2c0.2-0.4,0.3-1.1,0.1-1.4c-1.6-3.2-3.3-6.3-5-9.4
			c-1.3-2.4-3.8-2.4-5.3-0.2c-0.1,0.2-0.3,0.4-0.4,0.7c-2.9,5.1-5.9,10.1-8.8,15.2c-0.2,0.3-0.3,0.6-0.5,1c1.5,0,2.8,0,4.1,0
			c0.3,0,0.7-0.3,0.9-0.6c0.3-0.3,0.5-0.8,0.7-1.2c1-1.7,1-1.7-0.5-3c-0.6-0.4-0.7-0.8-0.1-1.4c2.5-2.3,5.1-4.6,7.6-6.8
			c0.2-0.2,0.8-0.2,1,0c1,1,2,2,2.9,3.1c0.2,0.2,0.1,0.6,0.1,0.9c-0.3-0.1-0.7,0-0.9-0.2c-0.6-0.6-1.2-1.2-1.8-1.9
			c-0.8-0.9-1-0.9-1.8-0.1c-1.7,1.5-3.4,3.1-5.1,4.6c-0.3,0.3-0.5,0.6-0.9,1c0.4,0.3,0.7,0.6,1,0.8c1.1,0.7,1.1,0.7,0.4,1.9
			C105.1,275.7,104.6,276.5,104,277.6z M50.1,208.1c9.5,0,18.8,0,28.3,0c-0.4-0.8-0.9-1.4-1.2-2.1c-0.6-1.4-1.7-1.9-3.1-1.9
			c-1.5,0-3.1,0-4.6,0c-5.1,0-10.3,0-15.4,0c-0.8,0-1.6,0.1-2.1,0.8C51.3,205.9,50.7,206.9,50.1,208.1z M49.7,276.7
			C49.7,276.7,49.8,276.7,49.7,276.7c0,0.6,0,1.1,0.1,1.7c0.1,0.8,0.5,1.3,1.3,1.5c0.8,0.2,1.5,0,1.9-0.7c0.3-0.5,0.5-1.1,0.5-1.7
			c0.1-2.6-1.6-5.2-4.2-6.2c-2.5-1-5-0.9-7.5,0.1c-1.8,0.7-3,2-3.4,3.9c-0.2,0.9-0.2,1.9-0.1,2.8c0.1,1.1,1.3,2,2.3,1.9
			c1-0.1,1.4-0.7,1.4-2.1c0-0.9,0-1.9,0.1-2.8c0.1-0.4,0.6-0.9,0.9-0.9c0.3,0,0.8,0.4,1,0.8c0.2,0.3,0.1,0.7,0.1,1.1
			c0,0.8-0.1,1.7,0.1,2.5c0.1,0.5,0.5,1.1,1,1.3c0.5,0.2,1.2,0,1.6-0.3c0.4-0.3,0.5-1,0.6-1.5c0.1-1,0-1.9,0.1-2.9
			c0-0.6,0.4-1,1.1-1c0.6,0,0.9,0.4,1,1C49.8,275.6,49.7,276.2,49.7,276.7z M86,276.8C86,276.8,86,276.8,86,276.8
			c0,0.5,0,1.1,0.1,1.6c0.1,1.4,1.5,2.1,2.6,1.2c0.5-0.4,1-1.2,1.1-1.8c0.3-2.5-0.6-4.7-2.8-5.9c-3.1-1.8-6.4-1.7-9.5,0.2
			c-2.1,1.3-3.2,4.2-2.7,6.2c0.2,1.1,1.1,1.7,2.1,1.6c1-0.1,1.5-0.7,1.5-1.9c0-0.9,0-1.7,0-2.6c0-0.7,0.1-1.3,1-1.4
			c0.9-0.1,1.1,0.6,1.2,1.3c0.1,0.9,0.1,1.7,0.1,2.6c0,1.3,0.6,2,1.6,2c1,0,1.6-0.7,1.6-2c0-0.9,0-1.8,0-2.7c0-0.7,0.3-1.2,1-1.2
			c0.8,0,1,0.5,1.1,1.2C86,275.8,86,276.3,86,276.8z M53.2,202.6c7.5,0,14.7,0,22,0c-0.7-1.2-1.2-2.2-1.8-3.2
			c-0.5-0.9-1.3-1.3-2.4-1.3c-4.6,0-9.2,0-13.8,0c-0.9,0-1.6,0.3-2.1,1.1C54.4,200.2,53.9,201.3,53.2,202.6z M102.4,250.8
			c-0.4-0.1-0.7-0.2-0.9-0.2c-2.5,0-4.9,0-7.4,0c-0.5,0-1,0.2-1.5,0.4c-2,0.7-4,1.4-5.9,2c-0.5,0.2-1,0.3-1.5,0.4
			c0.5,0.9,0.9,1.7,1.5,2.4c0.3,0.4,0.8,0.7,1.3,0.7c3.4,0.1,6.7,0.1,10.1,0c0.5,0,1.1-0.3,1.3-0.6
			C100.4,254.4,101.3,252.6,102.4,250.8z M42.7,253.6c-0.2-0.1-0.4-0.2-0.5-0.3c-2.4-0.8-4.7-1.6-7.1-2.4c-0.5-0.2-0.9-0.3-1.4-0.3
			c-2.3,0-4.6,0-6.8,0c-0.3,0-0.6,0.1-1.2,0.2c1.2,2,2.2,3.8,3.3,5.5c0.1,0.2,0.7,0.3,1,0.3c3.4,0,6.8,0,10.2,0
			c0.3,0,0.8-0.2,0.9-0.4C41.7,255.4,42.2,254.5,42.7,253.6z M53.4,198.1c-1.8,0-3.5,0-5.1,0c-0.8,0-1.2,0.3-1.6,1
			c-1.4,2.7-2.8,5.4-4.3,8.2c-0.1,0.3-0.2,0.6-0.4,1c1.7,0,3.3,0,4.9,0c0.8,0,1.2-0.3,1.6-1c1.4-2.7,2.9-5.3,4.4-8
			C53,198.9,53.1,198.6,53.4,198.1z M86.1,208.2c-1.7-3.2-3.2-6.2-4.8-9.2c-0.5-1-1.5-1.3-2.6-1c-0.7,0.1-1.3,0.1-2,0.1
			c-0.5,0-1,0-1.5,0c0,0.3,0,0.4,0,0.4c1.7,3,3.4,6.1,5.1,9.1c0.2,0.3,0.6,0.5,0.9,0.5C82.7,208.2,84.3,208.2,86.1,208.2z
			 M16.9,256.5c3.4,0,6.6,0,10,0c-0.7-1.1-1.2-2.1-1.8-3.1c-0.2-0.4-0.5-0.8-0.8-1.2c-1.4-1.8-3.7-1.8-5,0.1
			C18.4,253.5,17.8,254.9,16.9,256.5z M111,256.6c-0.9-1.6-1.6-3.1-2.5-4.4c-1-1.6-3.3-1.8-4.5-0.4c-1.1,1.4-2,3-3.1,4.8
			C104.5,256.6,107.6,256.6,111,256.6z M56.1,277.7c0.4,0,0.8,0.1,1.2,0.1c2.6,0,5.2,0,7.9,0c2,0,4,0,6,0c0.5,0,0.9,0,1-0.6
			c0.1-0.9,0.2-1.8,0.4-2.7c-2,0.3-3.9,0.6-5.6,0.9c0,0.6,0.1,1.2,0,1.7c-0.1,0.2-0.9,0.3-1.2,0.1c-0.8-0.4-0.5-1.1,0-1.7
			c-1,0-1.9,0-2.5,0c-0.1,0.6-0.2,1.2-0.4,1.7c-0.1,0.2-0.8,0.2-1.1,0c-0.7-0.5-0.3-1.2,0.1-1.7c-2.1-0.3-4.1-0.6-6.2-0.9
			C55.7,275.5,55.9,276.5,56.1,277.7z M119.2,272.2c-1.2,1.8-2.2,3.5-3.4,5.3c1.8,0,3.3,0,4.8,0c0.8,0,1.1-0.5,0.7-1.2
			C120.7,275,120,273.7,119.2,272.2z M8.6,272.3c-0.8,1.5-1.5,2.7-2.1,4c-0.4,0.8-0.2,1.2,0.7,1.2c1.6,0.1,3.1,0,4.9,0
			C10.9,275.7,9.8,274.1,8.6,272.3z M79.8,196c-0.9-1.7-1.7-3.2-2.6-4.9c-1.3,1.7-2.4,3.2-3.6,4.9C75.7,196,77.6,196,79.8,196z
			 M54.3,196c-1.2-1.7-2.3-3.1-3.5-4.7c-0.9,1.7-1.7,3.1-2.5,4.7C50.3,196,52.2,196,54.3,196z"/>
		<path d="M77.5,218.3c4.9,0,9,4.1,9.1,9c0,4.9-4,9-8.8,9c-4.9,0-9.1-4-9.1-9C68.7,222.3,72.6,218.3,77.5,218.3z M73.7,230.7
			c1.4,1.6,4.3,1.8,6.4,0.7c2.1-1.1,3.6-3.5,3.3-5.1c-1.1-0.2-1.8,0.2-2.3,1.3c-1,2-2.8,2.9-5,3C75.3,230.8,74.5,230.7,73.7,230.7z
			 M76.3,222.9c0-1.3-0.9-2.3-2.1-2.3c-1.2,0-2.4,1.1-2.3,2.4c0,1.2,1.1,2.1,2.3,2.1C75.4,225.1,76.3,224.2,76.3,222.9z M80.7,221.1
			c0,1.8,0.9,2.8,2.2,2.6c1-0.1,1.5-0.9,1-1.7c-0.4-0.6-0.9-1.1-1.5-1.5c-0.3-0.2-0.9-0.4-1.2-0.2C80.9,220.4,80.8,220.9,80.7,221.1
			z"/>
		<path d="M41.5,227.3c0-5,4-9,9-9c4.9,0,8.8,4.1,8.8,9c0,4.9-4.1,8.9-9.1,9C45.6,236.3,41.5,232.2,41.5,227.3z M56.7,226.1
			c-1-0.2-1.7-0.1-2.1,0.8c-1.4,2.9-3.4,4-6.7,3.8c-0.4,0-0.7-0.1-1.1-0.1c2,1.7,4.2,1.9,6.4,0.8C55.3,230.4,56.5,228.7,56.7,226.1z
			 M49.2,222.9c0-1.3-1-2.3-2.2-2.3c-1.2,0-2.2,1-2.2,2.3c0,1.3,1,2.3,2.3,2.3C48.3,225.1,49.2,224.2,49.2,222.9z M53.3,221
			c0,1.6,0.8,2.6,2,2.6c0.8,0,1.5-0.6,1.5-1.2c0-0.9-1.6-2.5-2.5-2.4C53.4,220,53.3,220.6,53.3,221z"/>
		<path d="M63.9,232.4c1,0,2.1,0,3.1,0c0.8,0,1.2,0.4,1.2,1.3c0,2.2-2.1,4.2-4.4,4.2c-2.2,0-4.3-2.2-4.2-4.3c0-0.7,0.3-1.2,1.2-1.2
			C61.8,232.4,62.9,232.4,63.9,232.4C63.9,232.4,63.9,232.4,63.9,232.4z M67,233.7c-2.1,0-4.2,0-6.2,0c0.1,1.8,1.4,3,3.1,3
			C65.5,236.8,66.9,235.5,67,233.7z"/>
		<path d="M84.1,244.4c0.9,0.8,1.9,1.8,3,2.8c1-1,1.9-2,2.8-2.9c0.3-0.3,0.6-0.8,1.1-0.3c0.1,0.2,0,0.8-0.3,1c-1,1.1-2,2-3,3.1
			c-0.5,0.5-0.9,0.5-1.4,0c-1.2-1.2-2.5-2.3-3.7-3.4c-0.5-0.5-0.4-0.8,0.1-1.3c0.6-0.7,1.2-1.5,1.7-2.3c0.8-1.5,2-1.8,3.3-0.8
			c0.5,0.4,0.9,0.8,1.3,1.2c0.1,0.2,0,0.5,0,0.8c-0.3,0-0.6,0-0.8-0.1c-0.4-0.3-0.7-0.7-1.1-1c-0.8-0.6-1.4-0.4-1.8,0.6
			C85.1,242.6,84.6,243.3,84.1,244.4z"/>
		<path d="M70.2,246.3c-3,4.3-9.4,4.2-12.4,0l0,0c0.3,0.2,0.7,0.3,1,0.5c3.7,2.4,7.3,2.3,10.9-0.3C69.8,246.3,70,246.3,70.2,246.3
			C70.1,246.2,70.2,246.2,70.2,246.3z"/>
		<path d="M41.3,239.4c0.1,0,0.3,0,0.4,0.1c0.2,0.2,0.4,0.4,0.6,0.6c-0.2,0.2-0.4,0.5-0.6,0.5c-1,0-1.6,0.5-1.8,1.5
			c-0.1,0.3-0.4,0.5-0.6,0.7c-0.1-0.3-0.3-0.6-0.4-0.9C38.8,240.6,39.9,239.4,41.3,239.4z"/>
		<path d="M102.8,247.3c-0.7,0-1.2,0-1.9,0c0.3-0.6,0.5-1.1,0.7-1.6c0.1,0,0.2,0,0.3-0.1C102.1,246.2,102.4,246.7,102.8,247.3z"/>
		<path d="M27.6,247.3c-0.7,0-1.2,0-1.9,0c0.3-0.6,0.5-1.1,0.7-1.5c0.1,0,0.2,0,0.3,0C27.1,246.2,27.3,246.7,27.6,247.3z"/>
		<path d="M57.8,246.2C57.8,246.2,57.7,246.2,57.8,246.2C57.7,246.2,57.8,246.2,57.8,246.2L57.8,246.2z"/>
		<path d="M70.4,246L70.4,246L70.4,246z"/>
		<path d="M70.1,246.2c0.1,0,0.2-0.1,0.3-0.1c0,0,0,0,0,0C70.3,246.1,70.3,246.2,70.1,246.2C70.2,246.2,70.1,246.2,70.1,246.2z"/>
		<path d="M76.1,262.8c0,1.6-0.7,2.9-1.7,4.1c-5.2,6.1-15.5,6.1-20.7,0.1c-1-1.2-1.8-2.5-1.9-4.2c2.8,4.6,6.8,7,12.2,7
			C69.3,269.7,73.4,267.4,76.1,262.8z"/>
		<path d="M82.3,258.1c1.5,1.7,2.2,3.8,2.5,5.9c0.1,0.8,0.1,1.6,0.1,2.3c0,0.2-0.4,0.4-0.5,0.6c-0.2-0.2-0.5-0.4-0.5-0.6
			C83.6,263.6,83.4,260.8,82.3,258.1z"/>
		<path d="M45.7,257.9c-0.4,1.7-0.9,3.4-1.3,5.2c-0.2,1-0.2,2.1-0.4,3.1c0,0.3-0.3,0.5-0.5,0.8c-0.2-0.2-0.6-0.4-0.6-0.7
			C43,263.2,43.8,260.3,45.7,257.9z"/>
		<path d="M69.1,189.7c-0.5-0.5-0.9-0.7-1.2-1c-1-0.9-1.2-1-2.3-0.2c-1.1,0.8-2.1,1-3.2,0.1c-0.8-0.7-1.6-0.6-2.3,0.2
			c-0.2,0.3-0.6,0.5-1,0.8c-0.3-0.7-0.5-1.2-0.7-1.7c-0.3-1-0.8-1.6-2-1.6c-0.3,0-0.5-0.2-0.8-0.3c0.1-0.2,0.2-0.6,0.4-0.7
			c2.5-2.1,5-4.1,7.5-6.1c0.5-0.4,0.8-0.4,1.3,0c2.5,2,5,4,7.5,6.1c0.2,0.2,0.3,0.5,0.4,0.8c-0.3,0.1-0.5,0.2-0.8,0.2
			c-1.3,0.1-1.7,0.4-2.1,1.6C69.5,188.5,69.3,189,69.1,189.7z M69.8,184.9c-1.6-1.3-3.4-2.8-5.2-4.2c-0.2-0.2-0.8-0.2-1,0
			c-1.8,1.4-3.6,2.9-5.2,4.2c0.4,0.8,0.8,1.6,1.2,2.3c1.3-1,1.5-1,2.3-0.5c1.9,1.3,2.3,1.3,4.1,0c0.6-0.4,1.2-0.5,1.8,0
			c0.2,0.2,0.4,0.3,0.6,0.4C68.9,186.4,69.3,185.7,69.8,184.9z"/>
		<path d="M69.3,192.9c0.2-0.5,0.5-1,0.7-1.6c0.8,0.4,1.2,1,1,1.5c-0.1,0.3-1,0.3-1.6,0.4C69.4,193.1,69.4,193,69.3,192.9z"/>
		<path d="M62.5,194.3c0.3-0.7,0.5-1.2,0.8-2c0.5,0.8,0.9,1.3,1.3,2C63.9,194.3,63.3,194.3,62.5,194.3z"/>
		<path d="M56,192.6c0.5-0.7,0.9-1.1,1.2-1.6c0.3,0.5,0.7,0.9,1.2,1.6C57.5,192.6,56.9,192.6,56,192.6z"/>
		<path d="M91.3,266.6c0.3-0.4,0.6-0.9,0.9-1.3c0.4,0.4,0.7,0.9,1.1,1.3c-0.1,0.1-0.1,0.2-0.2,0.2c-0.5,0-1,0-1.5,0
			C91.5,266.7,91.4,266.6,91.3,266.6z"/>
		<path d="M35.7,264.9c0.2,0.5,0.4,1,0.7,1.7c-0.7,0-1.2,0-2,0c0.3-0.7,0.5-1.2,0.8-1.7C35.4,264.9,35.5,264.9,35.7,264.9z"/>
		<path d="M16.5,273.8c-0.7,0.1-1.2,0.1-1.7,0.1c0.2-0.4,0.4-0.8,0.6-1.2c0.2-0.3,0.5-0.6,1-1.2c0.5,0.9,0.9,1.7,1.2,2.4
			c0,0.1-0.1,0.3-0.2,0.4c-0.1,0.1-0.4,0.1-0.5,0C16.8,274.2,16.6,273.9,16.5,273.8z"/>
		<path d="M110.1,274c0.3-0.6,0.6-1.3,1-1.9c0.1-0.1,0.7-0.1,0.9,0.1c0.4,0.3,0.6,0.8,0.9,1.3c0.1,0.2,0,0.4,0,0.6
			c-0.2,0-0.5,0-0.6-0.1c-0.6-0.5-1-0.4-1.4,0.2c-0.1,0.1-0.4,0.2-0.5,0.2C110.3,274.4,110.2,274.2,110.1,274z"/>
		<path d="M70.8,276.4c-0.4,0.2-0.7,0.7-1.1,0.6c-0.3,0-0.8-0.5-0.9-0.8c-0.1-0.6,0.3-1,0.9-0.9c0.4,0.1,0.7,0.5,1,0.7
			C70.8,276.1,70.8,276.3,70.8,276.4z"/>
		<path d="M60,276.3c-0.7,0.4-1,0.8-1.4,0.8c-0.6,0.1-0.9-0.3-0.9-0.9c0-0.6,0.4-1,1-0.9C59.1,275.4,59.4,275.8,60,276.3z"/>
	</g>
</g>
<path class="st6" d="M124.9,115.4c-1.7-3.2-3.3-6.4-5-9.6C103.8,75,87.7,44.1,71.6,13.3c-1-1.9-1.9-3.8-3.1-5.6
	c-0.5-0.7-1-1.3-1.7-1.6c-0.3-0.2-0.6-0.3-1-0.4c-0.2,0-0.3-0.1-0.5-0.1c-0.2,0-0.3,0-0.5,0c-0.3,0-0.7,0-1,0.1c-1,0.3-2,0.9-2.8,2
	c-0.3,0.5-0.6,1-0.9,1.4c-7,13.4-14,26.8-21,40.1C29.1,68.6,19,88,8.9,107.4c-0.8,1.5-1.5,2.9-2.3,4.4c-0.8,1.5-1.5,2.9-2.3,4.4
	c-0.6,1.2-0.6,2.4-0.2,3.4c0.5,1.3,1.7,2.4,3.4,2.6c0.6,0.1,1.3,0.1,1.9,0.1c9,0,18.1,0,27.1,0c0.4,0,66,0,70.5,0c0,0,0,0,0,0
	c2.3,0,4.7,0,7,0c2.3,0,4.7,0,7,0c1,0,1.9-0.2,2.6-0.6c0.4-0.2,0.7-0.4,1-0.7c0.4-0.4,0.7-0.8,0.9-1.4c0.1-0.3,0.2-0.7,0.3-1.1
	c0-0.2,0-0.4,0-0.6C125.6,117.1,125.4,116.3,124.9,115.4z M83.5,67.6c0.1,0,0.2,0,0.3,0c0,0,0,0,0,0C83.7,67.5,83.6,67.6,83.5,67.6
	C83.5,67.6,83.5,67.6,83.5,67.6z M83.9,67.5c0.1,0,0.3,0,0.4,0v0C84.2,67.6,84,67.5,83.9,67.5C83.9,67.5,83.9,67.5,83.9,67.5z
	 M71.2,87.2L71.2,87.2C71.2,87.3,71.2,87.3,71.2,87.2C71.2,87.3,71.2,87.3,71.2,87.2z"/>
<g>
	<path class="st1" d="M333.9,128.4c-0.1-0.2-0.2-0.4-0.4-0.6c-12.7-20.1-25.4-40.3-38.1-60.4c-0.1-0.2-0.3-0.5-0.5-0.9
		c0.8,0,1.5,0,2.2,0c1.4-0.1,1.9-1,1.3-2.2c-0.1-0.2-0.2-0.5-0.4-0.7c-6.7-10.5-13.4-21-20.1-31.5c-0.9-1.4-1.7-1.4-2.6,0
		c-5.1,8.2-10.2,16.4-15.3,24.6c-1.5,2.5-3,4.9-4.5,7.4c-0.9,1.4-0.3,2.4,1.4,2.4c0.6,0,1.2,0,1.9,0c-0.2,0.4-0.4,0.7-0.5,1
		c-10.6,17.4-21.2,34.8-31.8,52.2c-1.8,2.9-3.6,5.8-5.3,8.7c-0.8,1.3-0.3,2.2,1.2,2.2c0.2,0,0.4,0,0.6,0c8.8,0,17.6,0,26.4,0
		c23.7,0,47.5,0,71.2,0c4,0,8.1,0,12.1,0C334.1,130.6,334.6,129.7,333.9,128.4z M284,102.3c0.6-0.5,1.3-0.3,1.9,0.3
		C285.3,102,284.5,101.8,284,102.3z"/>
	<g>
		<path d="M258.9,66.5c-0.8,0-1.4,0-1.9,0c-1.7,0-2.2-1-1.4-2.4c1.5-2.5,3-4.9,4.5-7.4c5.1-8.2,10.2-16.4,15.3-24.6
			c0.9-1.4,1.7-1.4,2.6,0c6.7,10.5,13.4,21,20.1,31.5c0.1,0.2,0.3,0.4,0.4,0.7c0.6,1.2,0.1,2.2-1.3,2.2c-0.7,0-1.3,0-2.2,0
			c0.2,0.4,0.4,0.7,0.5,0.9c12.7,20.1,25.4,40.3,38.1,60.4c0.1,0.2,0.2,0.4,0.4,0.6c0.7,1.2,0.2,2.2-1.2,2.2c-4,0-8.1,0-12.1,0
			c-23.7,0-47.5,0-71.2,0c-8.8,0-17.6,0-26.4,0c-0.2,0-0.4,0-0.6,0c-1.5-0.1-2-0.9-1.2-2.2c1.8-2.9,3.5-5.8,5.3-8.7
			c10.6-17.4,21.2-34.8,31.8-52.2C258.5,67.2,258.6,66.9,258.9,66.5z M277.1,112c4.4,0,9-1.1,13.1-3.7c1.7-1.1,3-2.4,3.9-4.2
			c1.1-2.1,1.3-4.2,0.1-6.4c-0.5-0.9-0.4-1.7,0.2-2.6c0.9-1.5,1.9-2.9,2.6-4.5c1-2.1,1.3-4.4,0.8-6.7c-1.2-5.3-6.6-8.7-12.1-8
			c-3.1,0.4-5.7,1.8-8,3.8c-1,0.9-1,0.9-2,0c-2.1-1.8-4.4-3.1-7.1-3.6c-4.5-0.8-8.4,0.3-11.2,3.9c-2.8,3.6-2.7,7.5-0.7,11.4
			c0.7,1.3,1.5,2.6,2.3,3.9c0.4,0.7,0.5,1.2,0,1.9c-0.9,1.5-1.1,3.1-0.7,4.7c0.6,2.8,2.4,4.8,4.8,6.3
			C267.4,111,271.9,111.9,277.1,112z M256.9,102.7c-1.7,0.9-3.3,0.8-4.9,0.1c-1.7-0.8-2.7-2.2-3-4c-0.6-3.7,1.6-6,6.4-6.5
			c-0.1-0.4-0.3-0.7-0.4-1.1c-1-2.3-1.3-4.8-0.8-7.3c1.3-6.2,7.3-10.3,13.8-9.5c0.6,0.1,1.2,0,1.7-0.1c4.8-1.4,9.6-1.4,14.4,0
			c0.4,0.1,0.8,0.2,1.2,0.1c2.2-0.3,4.4-0.1,6.6,0.6c5.3,1.7,8.7,7.1,7.9,12.6c-0.2,1.6-0.8,3.1-1.2,4.6c5,0.3,6.4,2.7,6.3,6.1
			c-0.1,1.6-1,2.9-2.3,3.9c-1.9,1.4-3.9,1.3-5.9,0.5c-0.4,1-0.8,1.9-1.2,2.8c6.8,0,13.6,0,20.5,0c-0.7-1-1.3-2-1.9-2.9
			c-0.3-0.6-0.8-0.8-1.5-0.8c-1.9,0-3.8,0-5.7,0c-0.2,0-0.4,0-0.6,0c-0.2-0.1-0.4-0.3-0.7-0.4c0.2-0.1,0.4-0.3,0.6-0.4
			c0.1,0,0.2,0,0.3,0c2.3,0,4.6,0,7,0c0.3,0,0.6,0,1.1-0.1c-1-1.5-1.8-3-2.8-4.3c-0.1-0.2-0.6-0.3-0.9-0.3c-1.1,0-2.2,0-3.3,0
			c-0.3,0-0.7-0.1-1-0.2c0-0.1,0-0.2,0-0.3c1.4-0.6,2.9-0.1,4.4-0.4c-0.2-0.4-0.4-0.7-0.6-1c-0.9-1.5-1.9-2.9-2.7-4.4
			c-0.9-1.7-1.9-2.7-4-2.3c-0.4,0.1-0.9-0.2-1.4-0.3c0-0.1,0-0.3,0-0.4c1.1-0.1,2.1-0.1,3.2-0.2c-0.1-0.2-0.2-0.4-0.3-0.5
			c-2.8-4.4-5.6-8.9-8.4-13.3c-0.4-0.6-0.8-0.7-1.5-0.7c-3.7,0-7.4,0-11.1,0c-0.4,0-0.9-0.1-1.3-0.1c0-0.1,0-0.3,0-0.4
			c0.5-0.1,0.9-0.3,1.4-0.3c2.9,0,5.8,0,8.7,0c0.3,0,0.6,0,1.1,0c-0.2-0.4-0.3-0.6-0.5-0.9c-0.7-1.1-1.5-2.2-2.1-3.3
			c-0.4-0.6-0.8-0.8-1.5-0.8c-2.8,0-5.5,0-8.3,0c-6.6,0-13.3,0-19.9,0c-0.4,0-1,0.1-1.2,0.4c-1,1.4-1.9,3-2.9,4.5
			c0.3,0.1,0.4,0.2,0.6,0.1c3.5,0,7-0.1,10.5,0c0.4,0,0.8,0.2,1.2,0.3c0,0.1,0,0.2,0,0.3c-0.4,0.1-0.7,0.3-1.1,0.3
			c-3.6,0-7.1,0-10.7-0.1c-0.8,0-1.2,0.3-1.6,0.9c-2.6,4.3-5.2,8.6-7.8,12.9c-0.1,0.2-0.2,0.5-0.4,0.7c0.9,0.1,1.7,0.2,2.5,0.3
			c0,0.2,0,0.3,0,0.5c-0.7,0-1.4,0.2-2.1,0.1c-0.7,0-1.1,0.2-1.5,0.8c-1,1.6-2,3.2-3,4.9c-0.4,0.6-0.7,1.3-1.1,1.9
			c1.2,0.3,2.4-0.2,3.5,0.5c-0.4,0.2-0.8,0.4-1.2,0.3c-2.1-0.4-3.5,0.4-4.3,2.5c-0.3,0.8-0.9,1.5-1.4,2.4c2.3,0,4.3,0,6.3,0
			c0.3,0,0.7,0,1,0c0.2,0,0.3,0.2,0.5,0.4c-0.2,0.1-0.3,0.3-0.5,0.4c-0.1,0.1-0.3,0-0.4,0c-1.9,0-3.8,0-5.7,0c-0.8,0-1.6,0-2,0.6
			c-0.7,1-1.2,2-1.8,3.1c7,0,13.9,0,20.9,0C257.7,104.5,257.3,103.7,256.9,102.7z M322,112.8c-1.3-2.1-2.5-4-3.7-5.8
			c-0.2-0.3-0.6-0.4-1-0.4c-7.3,0-14.6,0-21.9,0c-0.4,0-0.9,0.2-1.2,0.5c-0.6,0.5-1.2,1.2-1.8,1.7c-0.4,0.3-0.4,0.6-0.1,1.1
			c0.5,0.7,1,1.3,1.4,2.1c0.4,0.8,1,1.1,2,1.1c3.7,0,7.3,0,11,0c0.2,0,0.4,0,0.6,0c0.2,0.1,0.3,0.2,0.5,0.4
			c-0.1,0.1-0.3,0.3-0.4,0.4c-0.2,0.1-0.4,0-0.7,0c-3.5,0-7.1,0-10.6,0c-0.3,0-0.7,0-1,0.1c0.8,2.7,0.8,2.7,3.3,2.7c0,0,0.1,0,0.1,0
			c3.3,0,6.7,0,10,0c0.6,0,1.3,0.1,1.9,0.2c0,0.2,0,0.3,0,0.5c-0.6,0.1-1.2,0.2-1.8,0.2c-3.5,0-7.1,0-10.6,0c-1.5,0-1.5,0-1.5,1.5
			c0,1.2,0,1.2,1.2,1.2c9.4,0,18.7,0,28.1,0c0.2,0,0.4-0.1,0.7-0.1c-0.9-1.5-1.9-2.8-2.7-4.3c-0.8-1.6-1.8-2.3-3.6-2
			c-0.8,0.1-1.5,0-2.3,0c-0.2,0-0.3-0.3-0.5-0.4c0.2-0.1,0.3-0.3,0.5-0.3c0.2-0.1,0.5,0,0.8,0C319.7,112.8,320.7,112.8,322,112.8z
			 M229.8,117.5c0,0,0.1,0.1,0.1,0.1c0.9-0.6,1.8-1.2,2.7-1.8c0.6-0.5,1.1-0.5,1.7,0c1.6,1.2,3.3,2.3,4.9,3.4
			c0.7,0.5,1.5,0.8,2.4,0.8c4.4,0,8.9,0,13.3,0c1.7,0,1.7,0,1.9-1.7c0.1-1.1,0.1-1.1-1-1.1c-3.8,0-7.5,0-11.3,0
			c-0.6,0-1.3,0-1.9-0.1c-0.2,0-0.4-0.2-0.5-0.2c0-0.1,0-0.2,0-0.3c0.6-0.1,1.1-0.2,1.7-0.2c4.1,0,8.1,0,12.2,0c0.4,0,1-0.1,1.2-0.3
			c0.5-0.6,0.7-1.4,1.2-2.3c-0.6,0-0.9,0-1.3,0c-3.5,0-7.1,0-10.6,0c-0.5,0-0.9-0.1-1.4-0.2c0-0.1,0-0.3,0-0.4
			c0.5-0.1,1-0.2,1.5-0.2c3.8,0,7.6,0,11.4,0c0.5,0,0.9-0.1,1.2-0.6c0.6-0.9,1.2-1.8,1.8-2.7c0.3-0.4,0.3-0.7-0.1-1
			c-0.5-0.4-1-1-1.5-1.4c-0.4-0.3-0.9-0.6-1.3-0.6c-6.9,0-13.7,0-20.6,0c-0.6,0-1,0.2-1.3,0.8c-0.9,1.6-1.9,3.1-2.9,4.7
			c-0.1,0.2-0.2,0.4-0.4,0.7c1.4,0.3,2.9-0.2,4.2,0.5c-0.4,0.2-0.8,0.3-1.2,0.4c-1,0-2,0-3,0c-0.3,0-0.7,0.1-0.8,0.3
			C231.3,115.1,230.6,116.3,229.8,117.5z M236.9,120.8c0,1.7-1.1,2.6-2.1,3.6c-0.8,0.8-1.7,1.7-2.5,2.6c-0.3,0.3-0.6,0.6-0.8,1
			c-0.3,0.6-0.1,1,0.5,1.1c0.7,0,1.5,0.1,2.2-0.1c0.3-0.1,0.5-0.9,0.7-1.4c0-0.1,0.1-0.2,0.1-0.3c1-1.4,2-2.8,3-4.1
			c0.2-0.3,0.7-0.5,1.1-0.5c5,0,10-0.1,15.1,0c0.4,0,1,0.3,1.1,0.7c0.8,1.5,1.5,3.1,2.1,4.7c0.3,0.9,0.8,1.1,1.7,1.1
			c11.6,0,23.1,0,34.7,0c1,0,1.3-0.3,1.4-1.2c0.8-3.4,2.9-5.7,6.2-6.5c4.8-1.2,9.3,1.6,10.6,6.4c0.3,1.3,0.3,1.3,1.6,1.3
			c5.8,0,11.5,0,17.3,0c0.3,0,0.7,0,1.2,0c-1.1-1.8-2.2-3.5-3.2-5.1c-0.3-0.5-0.6-0.3-0.9,0c-1.4,1.2-2.8,2.5-4.2,3.7
			c-0.4,0.3-1,0.6-1.5,0.6c-2,0.1-4,0-6,0c-0.8,0-1.3-0.3-1.7-1c-1.1-1.9-2.3-3.7-3.3-5.6c-0.4-0.7-0.9-0.9-1.6-0.9c-4,0-8,0-12,0
			c-1.5,0-1.5,0-2,1.4c-1.4,3.4-4.6,4.9-8.2,4c-0.6-0.2-1.2-0.2-1.8-0.1c-5.1,0.8-10.3,1.1-15.5,0.4c-2-0.2-4-0.9-6.1,0
			c-0.1,0-0.2,0-0.3,0c-3,0.2-5.6-1.7-6.6-4.6c-0.3-0.8-0.7-1.1-1.5-1.1c-5.4,0-10.8,0-16.1,0C238.8,120.8,237.9,120.8,236.9,120.8z
			 M286.3,112.3c-2.9,0.4-5.5,1-8.2,1.2c-3.4,0.3-6.8-0.2-10.1-1.3c-0.7-0.2-1.1-0.1-1.2,0.7c-0.1,0.6-0.3,1.2-0.4,1.8
			c-0.3,0.9,0,1.4,0.8,1.8c1.9,1,2.9,2.6,3.1,4.8c0,0.6-0.2,1.1-0.7,1.5c-0.5,0.4-0.9,0.9-1.3,1.4c0,0.1,0.1,0.2,0.1,0.3
			c5.5,0.8,11,0.7,16.8-0.1c-0.5-0.6-0.7-1.1-1.1-1.4c-1-0.8-1.2-1.1-0.9-2.4c0.4-1.9,1.5-3.4,3.3-4.3c0.3-0.2,0.7-0.6,0.7-0.9
			C286.8,114.4,286.5,113.3,286.3,112.3z M276.7,33.2c-0.2,0.3-0.3,0.4-0.4,0.5c-3.3,5.3-6.6,10.6-9.9,15.9
			c-0.4,0.6-0.2,0.9,0.2,1.3c2.2,2.2,4.3,4.5,6.5,6.7c1.1,1.1,2.3,2.1,3.5,3.2c3.3-3.6,6.8-7.5,10.4-11.4
			C283.6,44.1,280.2,38.7,276.7,33.2z M261.1,62.5c0.2-0.4,0.3-0.7,0.5-0.9c1-1.6,1.9-3.2,2.9-4.8c1-1.6,1-1.6-0.6-2.5
			c-0.1,0-0.1,0-0.4,0c-2.1,3.4-4.2,6.9-6.5,10.5c13.3,0,26.5,0,39.7,0c-0.2-0.4-0.3-0.6-0.5-0.8c-2-3.1-3.9-6.2-5.9-9.3
			c-1-1.6-1-1.6-2.6-0.5c-0.1,0.1-0.1,0.2-0.2,0.3c1.7,2.6,3.4,5.2,5.2,8C282.1,62.5,271.7,62.5,261.1,62.5z M263.1,117.1
			c0-0.1-0.1-0.1-0.1-0.2c0.2-0.2,0.4-0.6,0.6-0.6c1.1-0.2,1.1-1.1,1.2-1.9c0-0.2,0.1-0.3,0.1-0.5c0.2-0.8,0.7-1.8,0.4-2.4
			c-0.3-0.6-1.4-0.9-2.2-1.3c-0.1,0-0.1-0.1-0.2-0.1c-0.3,0.1-0.7,0-0.8,0.2c-1.5,2.2-3,4.4-3.7,7c-0.5,1.9-0.3,3.7,0.8,5.4
			c1.1,1.7,2.7,2.5,4.8,2.4c1-0.1,1.2-0.4,0.6-1.3c-0.4-0.6-0.9-1-1.3-1.5c-0.2-0.2-0.3-0.3-0.5-0.6c2.1-0.6,2.8,1.3,4.3,2.2
			c0.7-2.3-1-3.2-2.2-4.6c0.4-0.1,0.6-0.2,0.8-0.1c1.5,0.2,2.1,1.6,3.1,2.9c0.3-1.1-0.1-1.9-0.5-2.5
			C267.1,117.5,265.3,116.8,263.1,117.1z M290.7,110c-0.9,0.5-1.6,0.9-2.4,1.2c-0.5,0.2-0.6,0.5-0.5,1c0.3,1,0.5,2.1,0.8,3.1
			c0.1,0.3,0.4,0.5,0.6,0.7c0.4,0.3,0.8,0.6,1.2,0.8c-3.1,0.4-3.4,0.5-4.3,1.1c-1.4,1-2.2,2.8-1.7,3.7c0.5-0.6,0.9-1.3,1.4-1.9
			c0.8-0.8,1.5-0.9,2.1-0.4c-0.4,0.4-0.9,0.7-1.2,1.2c-0.4,0.7-0.8,1.5-1.1,2.2c-0.1,0.2,0.2,0.5,0.4,0.8c0.2-0.1,0.5-0.2,0.7-0.4
			c0.5-0.5,1-1,1.5-1.4c0.5-0.4,1.2-0.6,2-0.1c-0.4,0.3-0.7,0.6-1,0.9c-0.3,0.3-0.6,0.6-0.8,0.9c-0.7,1-0.6,1.4,0.7,1.5
			c3,0.2,5.6-2.3,5.6-5.5C295,115.7,292.6,113,290.7,110z M310.6,129c0.1-0.2,0.1-0.3,0.1-0.4c-0.3-2.6-2.9-5.3-5.5-5.7
			c-0.5-0.1-1.2,0.2-1.7,0.4c-0.8,0.5-1.1,1.3-1.1,2.2c0,0.3-0.2,0.6-0.4,0.8c-0.2-0.3-0.5-0.6-0.5-0.9c0.1-0.9,0.4-1.8,0.7-2.7
			c-0.2,0-0.5,0-0.8,0.2c-2.4,0.9-3.9,2.6-4.6,5c-0.2,0.7-0.1,1,0.7,1c1.3,0,2.6,0,4,0C304.5,129,307.5,129,310.6,129z M235.7,120.9
			c-0.1,0-0.2-0.1-0.3-0.1c-2.4,0-4.8,0-7.1,0c-0.3,0-0.7,0.4-0.9,0.7c-1.3,2.1-2.6,4.3-3.9,6.4c-0.2,0.3-0.4,0.6-0.6,1.1
			c2.6,0,5.1,0,7.6,0c-0.2-1.3,0.5-2.1,1.3-2.8c1.1-1.1,2.3-2.3,3.4-3.5C235.5,122.2,235.9,121.6,235.7,120.9z M249.8,129
			c0-0.9-0.1-1.7,0-2.5c0.2-0.8,0.6-1.4,1-2.3c-2.8,0-5.4,0-8.1,0c-3.8,0-3.8,0-5.8,3.2c-0.1,0.2-0.3,0.4-0.3,0.6
			c-0.1,0.3-0.1,0.6-0.2,1C240.9,129,245.3,129,249.8,129z M313.6,120.8c0.9,1.5,1.6,2.9,2.6,4.2c0.3,0.4,1,0.8,1.5,0.9
			c1,0.1,2,0.1,3.1,0c1.1,0,2-0.6,2.7-1.3c1.2-1.1,2.3-2.1,3.5-3.2c0.1-0.1,0.3-0.3,0.5-0.6C322.7,120.8,318.2,120.8,313.6,120.8z
			 M286.7,54.9c-3.1,2.2-6.2,4.4-9.4,6.6c4.7,0,9.1,0,13.6,0C289.6,59.3,288.2,57.2,286.7,54.9z M262.7,61.6c4.2,0,8.3,0,12.3,0
			c0-0.1,0-0.1,0-0.2c-2.9-1.8-5.8-3.7-8.8-5.6C265.1,57.8,263.9,59.6,262.7,61.6z M299.3,101.6c1.6,0.2,3.2-0.9,3.8-2.7
			c0.6-1.8-0.2-3.8-1.8-4.7c-1.5-0.9-3.6-0.6-4.6,0.6c-0.4,0.5-0.4,0.9,0,1.4c3.1-1.8,4.7-1.8,5.3,0c-0.9-0.1-1.8-0.2-2.7-0.2
			c-1.1,0-1.7,0.5-2,1.5C299.3,97.8,300.4,99.3,299.3,101.6z M251.8,96.2c-0.1-0.1-0.1-0.1-0.2-0.2c0.3-0.3,0.6-0.7,1-0.9
			c1.6-0.7,2.9,0.4,4.3,1c0.2-1-0.2-1.6-1-1.9c-1.5-0.7-2.9-0.6-4.2,0.4c-1.3,1-1.8,2.4-1.4,3.9c0.4,1.6,1.4,2.7,3,3.1
			c0.3,0.1,0.6,0,1,0c-0.6-1-0.8-1.9-0.3-2.8c0.5-1,1.5-1.1,2.5-1.3C255.3,95.4,253.5,96,251.8,96.2z M256.2,129
			c-0.6-1.4-1.1-2.6-1.6-3.8c-0.3-0.8-0.9-1.1-1.6-1.1c-0.8,0-1.2,0.3-1.5,1.1c-0.1,0.4-0.5,0.8-0.6,1.2c-0.1,0.6-0.1,1.3,0,1.9
			c0,0.2,0.5,0.6,0.7,0.6C253.1,129.1,254.5,129,256.2,129z M238.3,119.9c-0.1-0.2-0.1-0.2-0.2-0.3c-1.1-0.7-2.1-1.5-3.2-2.2
			c-1.8-1.2-1.2-1.2-3,0c-1.2,0.8-2.3,1.6-3.4,2.3c0,0.1,0.1,0.1,0.1,0.2C231.9,119.9,235,119.9,238.3,119.9z M281.5,75.3
			c-3.3-0.7-6.5-0.7-9.7,0c1.7,1.1,3.3,2.1,4.9,3.1C278.3,77.4,279.9,76.4,281.5,75.3z M312.2,120.6c0,0.4,0,0.5,0,0.5
			c1.1,1.9,2.3,3.8,3.5,5.7c0.2,0.3,0.7,0.5,1.1,0.5c1.7,0.1,3.5,0.1,5.2,0c0.5,0,1-0.2,1.4-0.5c1.5-1.2,2.9-2.5,4.3-3.8
			c0.2-0.2,0.3-0.3,0.5-0.5c-0.1-0.1-0.1-0.2-0.2-0.2c-0.3,0.1-0.5,0.2-0.7,0.4c-1.4,1.2-2.7,2.4-4,3.6c-0.6,0.5-1.1,0.8-1.9,0.8
			c-1.4,0-2.8,0-4.2,0c-0.7,0-1.1-0.3-1.5-0.8c-0.9-1.6-1.9-3.1-2.8-4.6C312.7,121.2,312.5,121,312.2,120.6z M292.3,66.7
			c1,1.5,2,3.1,3,4.6c0.1,0.1,0.3,0.1,0.6,0.2C294.7,69.2,293,66.8,292.3,66.7z M296.2,100c0.5,0.4,0.9,0.9,1.2,0.9
			c0.3-0.1,0.8-0.6,0.8-0.9c0.1-0.5-0.4-0.9-0.9-0.8C297,99.2,296.7,99.6,296.2,100z M257,99.7c-0.3-0.2-0.6-0.5-0.9-0.6
			c-0.6,0-0.9,0.4-0.8,0.9c0.1,0.3,0.5,0.7,0.8,0.7C256.7,101,256.8,100.4,257,99.7z M317,105.7c0.1,0,0.1-0.1,0.2-0.1
			c-0.2-1-1.9-3.6-2.8-3.8C315.4,103.2,316.2,104.4,317,105.7z"/>
		<path d="M293.5,89.8c-1.6-0.4-2.6,0.6-3.7,1.4c-1.9,1.2-4,1.2-5.9,0c-1.5-0.9-2.2-2.3-2-4.1c0-0.2,0-0.5,0.1-0.8
			c-0.5,0.1-0.9,0.1-1.5,0.2c1.9-2,4-2.7,6.5-2.3C289.6,84.4,292.9,87.3,293.5,89.8z M284.9,87.6c-0.1-0.3-0.1-0.8-0.2-1.2
			c-0.1-0.2-0.4-0.5-0.7-0.6c-0.2,0-0.6,0.3-0.7,0.5c-0.2,0.4-0.3,0.9-0.3,1.4c0,0.9,0.6,1.7,1,1.6
			C284.8,89.2,284.8,88.4,284.9,87.6z M290.5,88.2c-0.6-0.4-0.8-0.8-1.2-0.8c-0.5-0.1-0.9,0.2-0.8,0.8c0.1,0.3,0.5,0.8,0.8,0.9
			C289.5,89,289.9,88.6,290.5,88.2z"/>
		<path d="M272.7,86.3c-0.4-0.1-0.8-0.1-1.3-0.2c0,0.2-0.1,0.3,0,0.5c0.9,2.9-2,5.4-4.6,5.4c-1.5,0-2.8-0.5-4.1-1.5
			c-0.7-0.6-1.7-0.7-2.7-1.1c1.2-2.4,3-4.3,5.9-5.1C268.5,83.5,270.8,84.1,272.7,86.3z M268.4,87.6c0,1.1,0.4,1.9,0.9,1.7
			c0.9-0.2,0.9-1,1-1.7c0.1-1-0.4-1.9-1-1.9C268.8,85.8,268.4,86.5,268.4,87.6z M264.4,87.2c-0.1,0-0.2,0-0.4,0
			c-0.2,0.3-0.7,0.7-0.7,1c0,0.3,0.5,0.6,0.8,0.9c0.3-0.3,0.7-0.5,0.8-0.8C264.9,87.9,264.6,87.5,264.4,87.2z"/>
		<path d="M266.9,103.8c0-1,0.4-1.3,1-1.6c0.5-0.3,1-0.2,1.4,0.2c2,2.4,4.8,2.8,7.7,2.8c2.6,0,5-0.6,6.7-2.7c0.8-0.9,2-0.4,2.5,1
			c0,0-0.1,0.1-0.1,0.1c-1.1-0.4-1.8,0.1-2.4,0.9c-0.3,0.4-0.8,0.8-1.3,1c-4.3,1.9-8.4,2-12.5-0.5c-0.3-0.2-0.6-0.4-0.7-0.6
			C268.6,103.6,268,103,266.9,103.8z"/>
		<path d="M280.7,96c0.2,0.3,0.3,0.6,0.5,0.8c0.8,1,0.7,1.6-0.5,2.1c-0.1,0-0.1,0-0.2,0.1c-3.8,1.6-4.4,1.6-8.2,0
			c-1-0.4-1.2-1.1-0.5-2c0.2-0.3,0.5-0.5,0.8-0.9c0.1,0.2,0.1,0.3,0.1,0.3c-0.2,1.4-0.2,1.4,1.2,1.8c0.1,0,0.1,0,0.2,0.1
			c2,1.1,3.9,0.4,5.8-0.3c0.5-0.2,0.7-0.5,0.5-1c-0.1-0.2-0.1-0.4-0.1-0.6C280.5,96.2,280.6,96.1,280.7,96z"/>
		<path d="M283.1,82.4c0.7-1.6,1.8-2.1,3.1-2.2c2.5-0.2,4.4,0.9,5.8,2.9C289.1,81.8,286.3,81.3,283.1,82.4z"/>
		<path d="M261.7,83.2c0.8-1.8,3.2-3.2,5.4-3c1.5,0.1,2.7,0.9,3.1,2.1C267.2,81.3,264.4,81.7,261.7,83.2z"/>
		<path d="M290.5,104.4c0,1.1-0.4,1.6-1.1,1.9c-0.7,0.3-1.4,0.1-1.9-0.4c-0.2-0.2-0.1-0.6-0.1-0.8c0.3,0,0.6,0,0.8,0
			c0,0,0.1,0.1,0.1,0.1c0.3,0,0.5,0,0.8,0c-0.1-0.3-0.2-0.5-0.3-0.8c-0.1-0.3-0.2-0.5-0.3-0.8c0.3-0.1,0.8-0.3,1-0.2
			C290,103.6,290.3,104.1,290.5,104.4z"/>
		<path d="M288.6,107c-0.5,0.4-0.8,0.7-1.1,0.7c-0.3,0-0.7-0.4-0.7-0.7c0-0.3,0.4-0.7,0.7-0.7C287.7,106.3,288.1,106.7,288.6,107z"
			/>
		<path d="M312.5,109.7c-0.4,0.1-0.8,0.2-1.2,0.2c-4.9,0-9.7,0-14.6,0c-0.4,0-0.8-0.1-1.2-0.2c0-0.1,0-0.2,0-0.3
			c0.3-0.1,0.6-0.3,0.9-0.3c5.1,0,10.2,0,15.3,0c0.3,0,0.5,0.1,0.8,0.2C312.5,109.5,312.5,109.6,312.5,109.7z"/>
		<path d="M249.5,109.2c2.4,0,4.8,0,7.2,0c0.2,0,0.5,0,0.7,0c0.1,0,0.3,0.2,0.3,0.3c0,0.1-0.1,0.3-0.2,0.4c-0.3,0.1-0.6,0.1-0.9,0.1
			c-4.8,0-9.5,0-14.3,0c-0.4,0-0.7-0.2-1.1-0.4c0.4-0.1,0.7-0.4,1.1-0.4C244.7,109.1,247.1,109.1,249.5,109.2
			C249.5,109.1,249.5,109.2,249.5,109.2z"/>
		<path d="M276.6,37.7c0.2,0.3,0.4,0.6,0.6,0.8c2.2,3.3,4.3,6.6,6.5,9.8c0.4,0.6,0.4,0.9-0.1,1.5c-2.2,2.4-4.4,4.8-6.6,7.2
			c-0.5,0.6-0.9,0.7-1.5,0.1c-2-2.2-4.1-4.3-6.1-6.4c-0.5-0.5-0.5-0.9-0.2-1.5c2.3-3.6,4.6-7.2,6.9-10.8
			C276.3,38.1,276.4,37.9,276.6,37.7z M276.6,39.3c-2.2,3.4-4.2,6.7-6.3,10c-0.3,0.5,0,0.8,0.3,1.2c1.7,1.8,3.4,3.5,5,5.3
			c0.5,0.5,0.8,0.5,1.3,0c1.8-2,3.7-4.1,5.5-6.1c0.5-0.5,0.4-0.9,0.1-1.4c-1.3-1.9-2.6-3.9-3.8-5.8
			C278.1,41.5,277.4,40.4,276.6,39.3z"/>
	</g>
</g>
</svg>
